<?xml version="1.0" encoding="utf-8"?>
<!-- Generator: Adobe Illustrator 14.0.0, SVG Export Plug-In . SVG Version: 6.00 Build 43363)  -->
<!DOCTYPE svg PUBLIC "-//W3C//DTD SVG 1.1//EN" "http://www.w3.org/Graphics/SVG/1.1/DTD/svg11.dtd">
<svg version="1.1"
	 id="svg8" xmlns:dc="http://purl.org/dc/elements/1.1/" xmlns:cc="http://creativecommons.org/ns#" xmlns:rdf="http://www.w3.org/1999/02/22-rdf-syntax-ns#" xmlns:svg="http://www.w3.org/2000/svg" xmlns:sodipodi="http://sodipodi.sourceforge.net/DTD/sodipodi-0.dtd" xmlns:inkscape="http://www.inkscape.org/namespaces/inkscape" sodipodi:docname="actinopterygii.svg" inkscape:version="0.92.4 (5da689c313, 2019-01-14)"
	 xmlns="http://www.w3.org/2000/svg" xmlns:xlink="http://www.w3.org/1999/xlink" x="0px" y="0px" width="1133.859px"
	 height="1133.859px" viewBox="0 0 1133.859 1133.859" enable-background="new 0 0 1133.859 1133.859" xml:space="preserve">
<sodipodi:namedview  id="base" showgrid="false" pagecolor="#ffffff" inkscape:cy="621.60672" inkscape:cx="1438.0453" inkscape:zoom="0.1400905" borderopacity="1.0" bordercolor="#666666" inkscape:window-maximized="1" inkscape:window-width="1280" inkscape:window-y="-8" inkscape:window-x="-8" inkscape:pageshadow="2" inkscape:current-layer="layer1" inkscape:pageopacity="0.0" inkscape:document-units="mm" inkscape:window-height="962">
	</sodipodi:namedview>
<path fill="none" stroke="#000000" stroke-width="0.2646" d="M970.766,1124.061c-30.898,18.099-40.898,12.999-58.498-20.6
	c-28.099-54.298-57.698-108.796-88.797-162.395c-27.699-49.898-69.797-80.697-119.896-100.796
	c-19.1-8.6-38.398-15.899-57.798-23.199c-7.7-3.2-16.399-8-22.499,0.399c-6.4,9.7-3,19,3.8,26.199
	c12.199,14.1,24.398,28.1,36.898,40.799c19.299,19.899,16.6,37.499-2,57.098c-29.699,30.999-66.998,40.599-108.796,39.398
	c-19.6-0.3-30.799-12.699-35.399-29.198c-7.499-28.399-21.799-51.398-37.498-74.697c-3.1-4.9-5.5-12.5-12.8-11.4
	c-7.3,1.101-7.8,9.4-9.1,14.8c-2.2,9.3,2,21.6-10.399,32.699c-14.8-27.3-14.2-53.799-19.3-80.298
	c-3.1-10.6,2.601-23.299-17.399-27.898c-12.299-1.4-9.6-19.1-7.1-29.699c17.6-57.698-6.699-98.496-51.798-134.195
	c-21.199-17.6-37.199-39.499-59.798-62.998c-1,34.899,1.199,67.698-16.6,95.797c-6.4,9.7-14.3,19.199-23.8,23.999
	c-16.099,8.9-29.698,7.1-32.099-12.999c-9.1-63.898-45.998-122.996-31.499-191.193c11.6-56.298-30.799-91.397-62.997-128.296
	c-26.8-30.099-50.499-60.897-57.599-103.196c-3.1-10.6-7.699-21.5-12.499-30.999C21.599,171.294,14.799,103.796,0.4,38.599
	C-2.9,16.799,5.5,4.7,30.299,0.6c23.499-4.4,43.898,4.5,66.897,8.5c56.898,9,115.796,15.5,170.294,40.799
	c44.799,18.799,81.797,46.998,118.196,77.897c23.299,20.799,44.898,42.699,79.997,24.199c4.6-1.7,13.199-2.6,15.6-0.6
	c17.299,22.199,38.299,10.3,57.197,7.6c11.6-1.5,21.1-6.3,21.8,14.9c-0.4,13.899,16.3,2.4,25.599,4.5
	c11,1.1,32.899-14.899,21.199,17.6c-4.699,14.399,10.4,9.399,18.699,9.899c18.3,0,38.799-3.6,22,26.199
	c-8.6,19.099,6.499,14.199,16.199,15c8.6-0.8,17.899-4.3,22.299,6.6c3.8,7.9-5.5,11.4-9.6,17.399c-16.6,17.2-6.199,21,11.7,22.399
	c8.3,0.5,16.299,2.4,24.299,4.2c1.6,17.199-17.999,16.899-19.699,30.599c2.2,8.899,11.399,5.5,16.399,8c4,0.9,11.699,4.1,11.699,4.1
	c-6.199,20.999,7.7,39.698,8.7,59.598c0.1,5.699-12.7,12.499,0,18.299c21.399,10.6,13.199,33.898,12.8,47.898
	c-1.2,47.498,21.699,82.297,66.997,92.696c44.999,11.8,113.196,99.197,110.996,145.095c-0.8,27.899-25.999,51.599-58.498,52.398
	c-8.6,0.8-18.299,0-31.898-1.8c41.498,39.099,86.696,62.198,133.495,84.297c48.198,22.399,96.696,43.398,146.494,64.798
	c16.7,6.7,25.5,17.1,20.6,38.499C1109.16,1029.663,1043.963,1080.662,970.766,1124.061z M248.591,149.395
	c19.199-22.199,15.1-46.998-2.2-69.297c-18.599-22.599-72.197-27.899-90.396-9.7c-23.799,23.999-13.8,47.398,1.2,67.698
	C182.194,163.494,232.392,170.894,248.591,149.395z M446.584,271.09c0.4-13.899,3.1-13.299-13.1-10
	c-21.799,3.3-26.599,17.699-41.599,33.899c-20.199,20.599-52.498,32.799-86.997,35.999c-53.298,5.9-116.896-4.6-154.194-13.2
	c3.1,10.6,9.5,13.4,14.899,14.7c87.197,17.399,171.994,21.599,247.792-26.899C413.285,305.489,443.185,290.29,446.584,271.09z"/>
</svg>
