<?xml version="1.0" encoding="utf-8"?>
<!-- Generator: Adobe Illustrator 14.0.0, SVG Export Plug-In . SVG Version: 6.00 Build 43363)  -->
<!DOCTYPE svg PUBLIC "-//W3C//DTD SVG 1.1//EN" "http://www.w3.org/Graphics/SVG/1.1/DTD/svg11.dtd">
<svg version="1.1"
	 id="svg8" sodipodi:docname="actinopterygii.svg" inkscape:version="0.92.4 (5da689c313, 2019-01-14)" xmlns:dc="http://purl.org/dc/elements/1.1/" xmlns:cc="http://creativecommons.org/ns#" xmlns:rdf="http://www.w3.org/1999/02/22-rdf-syntax-ns#" xmlns:svg="http://www.w3.org/2000/svg" xmlns:sodipodi="http://sodipodi.sourceforge.net/DTD/sodipodi-0.dtd" xmlns:inkscape="http://www.inkscape.org/namespaces/inkscape"
	 xmlns="http://www.w3.org/2000/svg" xmlns:xlink="http://www.w3.org/1999/xlink" x="0px" y="0px" width="2267.717px"
	 height="2267.717px" viewBox="-566.928 -566.929 2267.717 2267.717" enable-background="new -566.928 -566.929 2267.717 2267.717"
	 xml:space="preserve">
<sodipodi:namedview  id="base" inkscape:window-height="962" inkscape:document-units="mm" inkscape:window-x="-8" inkscape:window-y="-8" inkscape:pageopacity="0.0" inkscape:pageshadow="2" inkscape:current-layer="layer1" inkscape:window-width="1280" inkscape:window-maximized="1" borderopacity="1.0" bordercolor="#666666" showgrid="false" pagecolor="#ffffff" inkscape:cy="621.60672" inkscape:cx="1438.0453" inkscape:zoom="0.1400905">
	</sodipodi:namedview>
<path id="path3713" inkscape:connector-curvature="0" fill="none" stroke="#000000" stroke-width="0.2646" d="M1366.314,1671.988
	c-61.21,35.789-81.085,25.583-115.642-40.902c-55.576-107.558-113.79-215.729-175.254-321.877
	c-54.779-99.029-137.884-160.149-237.081-199.994c-37.726-17.149-76.068-31.66-114.411-46.178
	c-15.209-6.329-32.447-15.917-44.672,0.703c-12.842,19.257-5.985,37.552,7.385,51.798c24.094,27.88,48.188,55.758,72.896,81.001
	c38.077,39.487,32.713,74.399-4.138,113.094c-58.838,61.384-132.801,80.284-215.637,77.641c-38.784-0.707-60.86-25.33-69.915-58.047
	c-14.678-56.285-42.994-101.843-73.947-148.013c-6.067-9.764-10.904-24.795-25.325-22.6c-14.424,2.197-15.479,18.64-17.945,29.194
	c-4.309,18.465,3.958,42.65-20.669,64.723c-29.105-54.086-27.96-106.673-37.981-159.091c-6.243-20.932,5.192-46.078-34.383-55.318
	c-24.36-2.902-18.996-37.812-14.067-58.92c35.008-114.233-12.917-194.971-102.084-265.856
	c-41.949-34.824-73.517-78.359-118.275-124.971c-2.206,69.035,2.102,134.021-33.17,189.775
	c-12.838,19.258-28.317,37.905-47.225,47.401c-31.922,17.581-58.922,14.064-63.494-25.95
	c-17.753-126.552-90.567-243.693-61.8-378.86c23.221-111.422-60.669-181.075-124.25-254.336
	c-52.851-59.631-99.809-120.664-113.608-204.563c-6.244-20.929-15.126-42.474-24.622-61.384
	c-66.918-118.552-80.19-252.398-108.498-381.413c-6.597-43.269,10.115-67.188,59.276-75.187
	c46.522-8.617,86.886,9.148,132.352,16.979c112.651,17.948,229.175,31.232,337.081,81.454
	c88.641,37.381,161.806,93.403,233.74,154.705c45.993,41.339,88.73,84.693,158.471,48.116c9.145-3.432,26.206-5.013,30.869-1.143
	c34.207,44.15,75.89,20.494,113.268,15.31c22.953-2.987,41.861-12.485,43.177,29.552c-0.877,27.612,32.274,4.751,50.742,9.059
	c21.723,2.288,65.258-29.283,41.945,34.828c-9.408,28.406,20.668,18.734,37.116,19.791c36.143,0.09,76.775-7.119,43.527,51.886
	c-17.152,37.728,12.924,28.056,32.009,29.726c17.062-1.581,35.351-8.437,44.234,13.106c7.475,15.655-10.822,22.512-19.175,34.471
	c-32.979,34.035-12.494,41.597,23.039,44.324c16.448,1.055,32.279,4.751,48.106,8.445c3.16,34.121-35.624,33.416-39.14,60.415
	c4.223,17.677,22.512,10.818,32.451,15.921c7.915,1.844,23.129,8.179,23.129,8.179c-12.491,41.595,15.033,78.621,16.964,118.021
	c0.176,11.168-25.239,24.709-0.094,36.141c42.386,21.023,26.035,67.281,25.148,94.892c-2.465,94.015,42.645,162.96,132.344,183.896
	c89.086,23.577,223.892,196.916,219.398,287.672c-1.762,55.23-51.626,102.015-116.001,103.675
	c-17.058,1.582-36.144-0.088-63.137-3.608c82.046,77.574,171.477,123.483,264.168,167.374
	c95.326,44.504,191.272,86.368,289.849,128.851c33.068,13.285,50.478,34.037,40.628,76.246
	C1640.701,1485.654,1511.507,1586.247,1366.314,1671.988z M-60.444-260.633c38.083-43.967,30.083-93.128-4.124-137.278
	c-36.847-44.764-142.816-55.588-179.049-19.533c-47.227,47.395-27.446,93.741,2.1,134.023
	C-192.096-232.935-92.633-218.067-60.444-260.633z M331.065-19.032c0.879-27.614,6.155-26.384-25.94-19.964
	c-43.271,6.593-52.683,34.999-82.409,67.01C182.611,68.728,118.586,92.73,50.345,99.061c-105.62,11.514-231.463-9.51-305.335-26.751
	c6.245,20.928,18.818,26.642,29.374,29.107c172.716,34.748,340.419,43.287,490.72-52.384
	C265.102,49.033,322.886,21.346,331.065-19.032z"/>
</svg>
