<?xml version="1.0" encoding="utf-8"?>
<!-- Generator: Adobe Illustrator 14.0.0, SVG Export Plug-In . SVG Version: 6.00 Build 43363)  -->
<!DOCTYPE svg PUBLIC "-//W3C//DTD SVG 1.1//EN" "http://www.w3.org/Graphics/SVG/1.1/DTD/svg11.dtd">
<svg version="1.1"
	 id="svg8" xmlns:dc="http://purl.org/dc/elements/1.1/" xmlns:cc="http://creativecommons.org/ns#" xmlns:rdf="http://www.w3.org/1999/02/22-rdf-syntax-ns#" xmlns:svg="http://www.w3.org/2000/svg" xmlns:sodipodi="http://sodipodi.sourceforge.net/DTD/sodipodi-0.dtd" xmlns:inkscape="http://www.inkscape.org/namespaces/inkscape" sodipodi:docname="amenazada-a-evaluacion-conabio.svg" inkscape:version="0.92.4 (5da689c313, 2019-01-14)"
	 xmlns="http://www.w3.org/2000/svg" xmlns:xlink="http://www.w3.org/1999/xlink" x="0px" y="0px" width="1133.859px"
	 height="1133.859px" viewBox="0 0 1133.859 1133.859" enable-background="new 0 0 1133.859 1133.859" xml:space="preserve">
<sodipodi:namedview  id="base" showgrid="false" pagecolor="#ffffff" inkscape:cy="2010.6327" inkscape:cx="2007.8733" inkscape:zoom="0.14369886" borderopacity="1.0" bordercolor="#666666" inkscape:window-maximized="1" inkscape:window-width="1280" inkscape:window-y="-8" inkscape:window-x="-8" inkscape:pageshadow="2" inkscape:current-layer="layer1" inkscape:pageopacity="0.0" inkscape:document-units="mm" inkscape:window-height="962">
	</sodipodi:namedview>
<path fill="none" stroke="#000000" stroke-width="0.2646" d="M1075.44,508.934c0-280.829-227.645-508.504-508.495-508.504
	C286.094,0.429,58.42,228.104,58.42,508.934c0,123.913,44.404,237.526,118.065,325.733H175.7
	c150.123,177.882,391.346,298.759,391.346,298.759s241.193-120.877,391.316-298.759h-0.958
	C1031.067,746.46,1075.44,632.847,1075.44,508.934z M653.676,737.883l-24.694-81.057H504.846l-24.693,81.057h-77.787l120.184-341.9
	h88.269l120.642,341.9H653.676z M573.209,471.671c2.863,9.626,15.719,51.158,38.558,124.604h-88.748
	c24.214-78.407,38.894-127.559,44.007-147.434C568.28,454.435,570.327,462.044,573.209,471.671z"/>
</svg>
