<?xml version="1.0" encoding="utf-8"?>
<!-- Generator: Adobe Illustrator 14.0.0, SVG Export Plug-In . SVG Version: 6.00 Build 43363)  -->
<!DOCTYPE svg PUBLIC "-//W3C//DTD SVG 1.1//EN" "http://www.w3.org/Graphics/SVG/1.1/DTD/svg11.dtd">
<svg version="1.1"
	 id="svg8" sodipodi:docname="amenazada-a-evaluacion-conabio.svg" inkscape:version="0.92.4 (5da689c313, 2019-01-14)" xmlns:dc="http://purl.org/dc/elements/1.1/" xmlns:cc="http://creativecommons.org/ns#" xmlns:rdf="http://www.w3.org/1999/02/22-rdf-syntax-ns#" xmlns:svg="http://www.w3.org/2000/svg" xmlns:sodipodi="http://sodipodi.sourceforge.net/DTD/sodipodi-0.dtd" xmlns:inkscape="http://www.inkscape.org/namespaces/inkscape"
	 xmlns="http://www.w3.org/2000/svg" xmlns:xlink="http://www.w3.org/1999/xlink" x="0px" y="0px" width="2267.717px"
	 height="2267.717px" viewBox="123.683 265.437 2267.717 2267.717" enable-background="new 123.683 265.437 2267.717 2267.717"
	 xml:space="preserve">
<sodipodi:namedview  id="base" inkscape:window-height="962" inkscape:document-units="mm" inkscape:window-x="-8" inkscape:window-y="-8" inkscape:pageopacity="0.0" inkscape:pageshadow="2" inkscape:current-layer="layer1" inkscape:window-width="1280" inkscape:window-maximized="1" borderopacity="1.0" bordercolor="#666666" showgrid="false" pagecolor="#ffffff" inkscape:cy="2010.6327" inkscape:cx="2007.8733" inkscape:zoom="0.14369886">
	</sodipodi:namedview>
<path fill="none" stroke="#000000" stroke-width="0.2646" d="M2271.662,1283.635c0-560.062-453.974-1014.116-1014.085-1014.116
	c-560.092,0-1014.167,454.055-1014.167,1014.116c0,247.119,88.566,473.699,235.468,649.612h-1.564
	c299.401,354.752,780.476,595.817,780.476,595.817s480.993-241.065,780.405-595.817h-1.91
	C2183.167,1757.334,2271.662,1530.754,2271.662,1283.635z M1430.554,1740.229l-49.245-161.651h-247.566l-49.245,161.651h-155.13
	l239.684-681.854h176.015l240.618,681.854H1430.554z M1270.061,1209.321c5.729,19.198,31.367,102.024,76.896,248.5h-176.99
	c48.3-156.369,77.565-254.392,87.784-294.028C1260.239,1174.946,1264.323,1190.122,1270.061,1209.321z"/>
</svg>
