<?xml version="1.0" encoding="utf-8"?>
<!-- Generator: Adobe Illustrator 14.0.0, SVG Export Plug-In . SVG Version: 6.00 Build 43363)  -->
<!DOCTYPE svg PUBLIC "-//W3C//DTD SVG 1.1//EN" "http://www.w3.org/Graphics/SVG/1.1/DTD/svg11.dtd">
<svg version="1.1"
	 id="svg8" sodipodi:docname="amphibia.svg" inkscape:version="0.92.4 (5da689c313, 2019-01-14)" xmlns:dc="http://purl.org/dc/elements/1.1/" xmlns:cc="http://creativecommons.org/ns#" xmlns:rdf="http://www.w3.org/1999/02/22-rdf-syntax-ns#" xmlns:svg="http://www.w3.org/2000/svg" xmlns:sodipodi="http://sodipodi.sourceforge.net/DTD/sodipodi-0.dtd" xmlns:inkscape="http://www.inkscape.org/namespaces/inkscape"
	 xmlns="http://www.w3.org/2000/svg" xmlns:xlink="http://www.w3.org/1999/xlink" x="0px" y="0px" width="2267.716px"
	 height="2267.717px" viewBox="-221.463 -221.307 2267.716 2267.717" enable-background="new -221.463 -221.307 2267.716 2267.717"
	 xml:space="preserve">
<sodipodi:namedview  id="base" inkscape:window-height="962" inkscape:document-units="mm" inkscape:window-x="-8" inkscape:window-y="-8" inkscape:pageopacity="0.0" inkscape:pageshadow="2" inkscape:current-layer="layer1" inkscape:window-width="1280" inkscape:window-maximized="1" borderopacity="1.0" bordercolor="#666666" showgrid="false" pagecolor="#ffffff" inkscape:cy="749.02127" inkscape:cx="1458.54" inkscape:zoom="0.280181">
	</sodipodi:namedview>
<g id="layer1" transform="translate(-142.39072,-28.007275)" inkscape:groupmode="layer" inkscape:label="Capa 1">
	<path id="path3713" inkscape:connector-curvature="0" fill="none" stroke="#000000" stroke-width="0.25" d="M2181.984,1236.743
		c-2.768,35.983-91.344,362.614-149.474,409.672c-24.912,13.841-113.492,30.447-157.779,30.447
		c-47.057,0-66.436-13.839-146.707,83.042c-77.505,96.881-105.186,71.97-105.186,58.13c0-16.609,13.841-27.681,27.681-80.274
		c16.608-49.825-69.204-47.058-69.204-47.058l-105.182,5.537c0,0-127.332-5.537-157.781-2.768
		c-30.446,2.768-66.434,66.431-83.04,66.431c-13.841,0-22.144-49.824-11.074-77.504c11.074-27.682,47.061-41.523,47.061-41.523
		l83.04-16.606l83.039-11.071c0,0,22.146-41.521,41.523-49.825c22.144-5.535,69.202,8.305,58.129-5.535
		c-5.535-5.535-11.072-22.144-16.608-41.521c-2.768,0-2.768-2.768-2.768-2.768c-8.304-24.914-24.912-22.145-41.521-11.073
		c-52.592,27.682-113.49,33.219-168.852,44.29c-63.666,13.84-135.633-2.768-199.299-33.217
		c-27.682-11.073-55.362-24.914-83.043-33.219c-71.968-24.911-99.649-13.837-146.707,44.291
		c-22.144,24.913-83.039,49.825-119.026,94.113c38.751,19.377-221.443,38.754-287.876,5.536
		c-55.36-27.68-116.257-47.056-171.619,2.77c-11.072,11.072-24.914,13.839-35.985,2.769c-11.071-11.074-13.841-22.146-8.304-35.985
		c8.303-19.378,16.608-35.985,27.68-58.129c-24.913-11.073-52.591-5.537-77.505,0c-19.376,2.768-35.984,5.535-44.289-13.841
		c-8.304-22.146,8.304-35.984,24.912-44.289c27.681-19.376,60.895-24.912,94.112-27.681c55.361,0,107.955,2.769,160.547,5.535
		c16.61,0,24.914-2.767,24.914-19.374c5.536-44.289,24.913-49.826,58.129-22.146c24.912,22.146,47.057,30.448,49.826-13.84
		c2.768-19.376,16.606-16.608,27.68-19.376c27.681-5.539,110.722-85.811,110.722-102.417c0-19.378-22.146-30.451-27.681-58.129
		c-8.304-27.685-177.155-102.421-213.138-146.708c-8.306-8.306-351.542-334.932-390.295-376.455
		c-38.752-41.522-80.272-77.507-113.49-121.796c-58.128-71.965-52.592-143.936,13.842-210.368
		c24.91-22.148,49.823-41.522,77.504-60.901c41.519-30.447,77.504-55.359,77.504-121.793c0-63.664,60.898-102.419,121.793-121.793
		c69.202-22.146,138.403-11.073,185.46,44.287c30.447,38.753,66.433,58.131,113.489,58.131
		c74.739,2.765,138.402,30.447,207.604,60.896c69.2,30.446,146.705,30.446,221.443,38.75
		c235.284,27.682,442.888,110.724,608.971,279.575c27.681,27.678,55.361,44.289,96.88,47.056
		c55.362,2.769,102.42,35.985,146.708,66.434c55.362,35.986,232.518,384.759,260.199,415.207
		C2137.695,1117.714,2184.752,1197.989,2181.984,1236.743z M224.973,458.918c-52.592-22.142-107.953-11.072-124.562,27.683
		c-16.608,35.983,13.84,85.808,66.432,107.952c52.594,22.144,107.955,11.071,124.563-27.679
		C309.41,498.918,224.973,458.918,224.973,458.918z"/>
</g>
</svg>
