<?xml version="1.0" encoding="utf-8"?>
<!-- Generator: Adobe Illustrator 18.0.0, SVG Export Plug-In . SVG Version: 6.00 Build 0)  -->
<!DOCTYPE svg PUBLIC "-//W3C//DTD SVG 1.1//EN" "http://www.w3.org/Graphics/SVG/1.1/DTD/svg11.dtd">
<svg version="1.1"
	 id="svg8" sodipodi:docname="amphibia.svg" inkscape:version="0.92.4 (5da689c313, 2019-01-14)" xmlns:dc="http://purl.org/dc/elements/1.1/" xmlns:cc="http://creativecommons.org/ns#" xmlns:rdf="http://www.w3.org/1999/02/22-rdf-syntax-ns#" xmlns:svg="http://www.w3.org/2000/svg" xmlns:sodipodi="http://sodipodi.sourceforge.net/DTD/sodipodi-0.dtd" xmlns:inkscape="http://www.inkscape.org/namespaces/inkscape"
	 xmlns="http://www.w3.org/2000/svg" xmlns:xlink="http://www.w3.org/1999/xlink" x="0px" y="0px" viewBox="0 0 1133.9 1133.9"
	 enable-background="new 0 0 1133.9 1133.9" xml:space="preserve">
<sodipodi:namedview  inkscape:window-height="962" inkscape:document-units="mm" inkscape:pageopacity="0.0" inkscape:current-layer="layer1" inkscape:pageshadow="2" inkscape:window-maximized="1" inkscape:window-x="-8" inkscape:window-y="-8" inkscape:window-width="1280" pagecolor="#ffffff" showgrid="false" bordercolor="#666666" borderopacity="1.0" inkscape:zoom="0.280181" inkscape:cx="1458.54" inkscape:cy="749.02127" id="base">
	</sodipodi:namedview>
<g id="layer1" transform="translate(-142.39072,-28.007275)" inkscape:label="Capa 1" inkscape:groupmode="layer">
	<path id="path3713" inkscape:connector-curvature="0" fill="none" stroke="#000000" stroke-width="0.2646" d="M1264,922.1
		c-6.5,18.7-99,179.7-136.4,196.6c-15.2,3.9-64.5,0.3-88-5.8c-25-6.6-33.3-16.6-89.4,23.6c-54.6,40.6-65.9,23.5-63.9,16.2
		c2.3-8.8,11.2-12.8,25.8-38.8c15.7-24.1-30.2-34.6-30.2-34.6l-56.6-11.7c0,0-66.8-20.6-83.3-23.4c-16.5-2.8-44.5,26-53.3,23.7
		c-7.3-1.9-4.8-29.5,4.9-42.7c9.8-13.1,30.8-15.5,30.8-15.5l46.3,2.7l45.6,5.7c0,0,17.5-18.9,29-20.6c12.5,0.1,35.6,14,31.6,5.2
		c-2.2-3.7-2.8-13.3-3-24.4c-1.4-0.4-1.1-1.9-1.1-1.9c-0.9-14.4-10.1-15.2-20.5-11.7c-31.7,7.4-64.8,1.9-95.7,0
		c-35.7-1.5-71.6-20.3-101.1-45.4c-13.2-9.8-25.9-20.9-39.4-29.2c-34.7-23.3-50.9-21.2-84,3c-15.2,10.1-51,14.8-76.3,33.4
		c17.9,15.7-122.9-10.3-153.5-37.2c-25.5-22.4-55.1-41.1-91.4-22.4c-7.5,4.3-15.2,3.9-19.5-3.5c-4.3-7.4-4.2-13.7,0.6-20.3
		c7.1-9.1,13.9-16.8,22.8-27c-11.7-9.4-27.1-10.3-41.1-10.8c-10.6-1.2-19.9-2.1-21.6-13.5c-1.3-12.9,9.4-17.9,19.4-20
		c17.4-6.4,35.8-4.7,53.8-1.6c29.4,7.7,56.9,16.5,84.4,25.3c8.8,2.3,13.6,2,15.9-6.8c9.1-22.7,20.1-23,33.9-3.7
		c10.2,15.2,20.8,22.7,28.4-0.4c4.2-9.9,11.1-6.5,17.4-6.4c15.5,0.9,70.7-30.1,73-39c2.7-10.3-7.5-19.3-6.6-34.7
		c-0.6-15.8-79.8-79-92.7-107.5c-3.3-5.5-139.9-226.6-154.7-254.1c-14.8-27.5-31.8-52.3-43.2-80.5c-20.8-46.3-7.8-83.7,36.7-109.7
		c16.3-8.3,32.2-15.1,49.6-21.5c26.3-10.4,48.8-18.6,58.1-53.9c8.8-33.7,46.5-45.8,81.6-47.7c39.8-2.1,75,13.4,92.3,49.3
		c10.7,24.8,27.1,40.1,52.1,46.7c39.3,11.9,69.2,35.4,101.7,61.2s73.6,36.6,112.1,51.4c121,47.5,219.6,120.4,284.2,233.2
		c10.8,18.5,23.2,31.2,44.9,38.5c29,9.1,49.3,33.4,68.6,55.7c24.4,26.8,69.8,236.6,80.3,256.6C1257.1,852.7,1270.9,901.8,1264,922.1
		z M333.9,236.7c-24.9-19.1-55.7-20.9-70-2.7c-13.9,16.8-4.7,47.5,20.2,66.5c24.9,19.1,55.7,20.9,70,2.7
		C379.9,267.2,333.9,236.7,333.9,236.7z"/>
</g>
</svg>
