<?xml version="1.0" encoding="utf-8"?>
<!-- Generator: Adobe Illustrator 14.0.0, SVG Export Plug-In . SVG Version: 6.00 Build 43363)  -->
<!DOCTYPE svg PUBLIC "-//W3C//DTD SVG 1.1//EN" "http://www.w3.org/Graphics/SVG/1.1/DTD/svg11.dtd">
<svg version="1.1"
	 id="svg8" xmlns:dc="http://purl.org/dc/elements/1.1/" xmlns:cc="http://creativecommons.org/ns#" xmlns:rdf="http://www.w3.org/1999/02/22-rdf-syntax-ns#" xmlns:svg="http://www.w3.org/2000/svg" xmlns:sodipodi="http://sodipodi.sourceforge.net/DTD/sodipodi-0.dtd" xmlns:inkscape="http://www.inkscape.org/namespaces/inkscape" sodipodi:docname="animalia.svg" inkscape:version="0.92.4 (5da689c313, 2019-01-14)"
	 xmlns="http://www.w3.org/2000/svg" xmlns:xlink="http://www.w3.org/1999/xlink" x="0px" y="0px" width="1133.859px"
	 height="1133.859px" viewBox="0 0 1133.859 1133.859" enable-background="new 0 0 1133.859 1133.859" xml:space="preserve">
<sodipodi:namedview  id="base" showgrid="false" pagecolor="#ffffff" inkscape:cy="540.22389" inkscape:cx="1606.1357" inkscape:zoom="0.1400905" borderopacity="1.0" bordercolor="#666666" inkscape:window-maximized="1" inkscape:window-width="1280" inkscape:window-y="-8" inkscape:window-x="-8" inkscape:pageshadow="2" inkscape:current-layer="layer1" inkscape:pageopacity="0.0" inkscape:document-units="mm" inkscape:window-height="962">
	</sodipodi:namedview>
<g id="layer1" transform="translate(-39.651487,-18.049754)" inkscape:groupmode="layer" inkscape:label="Capa 1">
	<path id="path3713" inkscape:connector-curvature="0" fill="none" stroke="#000000" stroke-width="0.25" d="M1098.488,1066.529
		c-7.882,12.034-15.402,22.924-24.066,33.331c-14.198,19.313-46.507,28.76-68.166,17.749c-20.456-10.589-41.635-14.8-61.669-22.622
		c-14.439-4.692-28.819-9.325-31.346-26.111c-2.105-13.958,3.368-26.773,16.063-33.271c15.884-8.122,31.046-9.867,47.109-1.985
		c3.188,2.347,7.641,5.114,10.829,7.521c27.677,16.966,30.504,16.544,43.801-12.334c7.1-13.657,10.528-28.458,11.611-44.04
		c0.782-2.407-0.481-6.8-2.105-9.988c-5.716-11.13-11.371-22.261-17.087-33.391c-31.045,13.838-61.248,29.3-97.708,18.831
		c-52.463-14.319-77.13-52.885-69.67-112.809c3.008-21.6,9.626-41.995,21.058-60.887c2.347-3.189,4.753-6.438,3.91-12.032
		c-33.271,29.059-50.537,65.939-49.816,108.656c0.602,26.774-11.972,45.245-28.217,62.571
		c-20.576,22.562-41.935,47.471-73.822,55.713c-42.777,41.874-86.096,19.914-128.993,0.723c-3.61-1.144-5.595-3.13-8.002-3.911
		c-27.675-12.936-30.925-19.313-17.989-46.989c4.693-10.408,13.838-14.078,24.607-14.56c23.164-1.805,45.183,4.031,67.565,8.604
		c25.63,6.979,37.903-2.346,50.479-24.788c21.658-38.144,22.501-77.672,20.154-119.607c-1.805-27.134-2.888-56.675-1.925-84.229
		c0.301-13.177,2.948-25.571,5.655-37.965c1.143-7.58,1.083-11.611-7.701-13.115c-28.818-5.355-59.202-9.867-87.6-16.426
		c-34.836-7.28-68.046-19.373-100.896-32.669c-8.423-2.708-18.771-3.429-25.269-12.153c-1.985-1.985-5.595-3.129-6.798,0.48
		c-11.01,21.66-34.595,20.638-52.043,33.572c-15.883,12.094-36.64,14.681-54.508,24.849c-17.87,10.107-33.752,22.261-40.372,42.656
		c-1.143,3.61-2.707,8.423-5.896,10.048c-20.215,21.358-32.73,47.831-47.29,72.317c-29.541,50.179-86.877,67.445-138.198,41.515
		c-10.047-5.897-23.224-10.168-32.128-19.674c-14.079-13.838-18.591-28.578-10.709-40.672c8.302-13.236,33.751-26.231,46.928-21.961
		c10.83,3.491,22.442,8.604,33.271,12.095c14.439,4.692,21.177,0.239,27.014-13.839c6.258-15.222,6.137-27.194-1.986-43.138
		c-17.086-33.392-10.949-64.617,28.098-74.544c8.363-1.264,10.348-7.28,12.273-13.297c8.062-41.212,20.877-80.861,33.692-120.51
		c4.272-13.236,1.805-25.991-3.911-37.122c-6.498-12.694-11.01-27.436-15.943-40.972c-8.243-27.857-19.252-55.352-43.379-75.086
		c-13.657-11.07-22.201-25.75-29.119-41.273c-2.046-5.956-5.656-7.159-11.251-6.317c-18.351-0.662-33.513,5.053-44.943,19.974
		c-17.809,22.141-44.583,18.772-65.038,8.123c-16.846-9.446-20.577-26.593-11.131-43.439c1.985-1.985,3.97-4.031,4.753-6.438
		c6.257-15.222,5.054-15.643-11.732-17.087c-17.99-1.865-29.3-16.124-27.917-40.912c-0.061-8.002,0.301-13.176-4.572-18.711
		c-6.438-8.724-7.34-18.291,2.948-25.57c7.159-5.655,14.68-12.514,22.983-17.749c11.912-8.062,23.465-14.981,22.08-35.317
		c-3.79-21.117,18.109-27.314,30.865-33.813c29.841-14.259,61.728-18.47,94.519-17.207c15.583,1.083,50.838-29.962,67.204-35.316
		c2.767-0.421,5.956-2.045,10.348-3.309c-0.722,6.377,0.241,27.977-0.12,33.151c-1.925,6.016-18.229,19.313-11.792,20.095
		c21.179,4.212,43.74,24.788,62.813,11.07c30.203-19.433,29.12-3.85,32.489,18.471c0.06,3.971,5.234,4.332,8.843,5.535
		c18.832,7.4,36.1,15.643,53.728,22.682c35.677,12.875,60.225,39.408,86.817,63.955c22.141,21.779,44.642,38.385,76.65,42.055
		c19.193,2.227,34.836,11.312,51.682,20.697c25.27,12.153,52.885,17.147,81.223,15.703c69.852-2.587,138.68,10.408,204.74,31.828
		c30.021,9.747,57.337,23.885,86.156,37.181c21.658,11.01,42.115,21.599,57.456,39.829c47.592,57.878,70.092,119.608,45.967,194.092
		c-7.762,24.006-9.146,48.793-10.528,73.581c-5.958,51.141-3.911,102.279-11.07,153.059c-1.505,8.784,0.48,10.77,8.482,10.709
		c11.973-0.12,23.945-0.181,35.558,0.902c7.581,1.145,16.004,3.851,15.703,13.057c0.901,9.566,0.54,18.771-8.966,23.645
		c-15.521,6.919-30.623,12.634-46.566,16.786c-6.378,3.248-9.928,6.076-7.461,14.86c4.633,26.713,9.626,52.224,23.043,76.47
		c6.859,11.551,1.806,23.163-1.685,33.933C1124.118,1024.415,1113.108,1046.074,1098.488,1066.529z M1013.656,857.217
		c-20.275-35.799-37.784-71.957-39.709-115.095c0.241-17.147-14.079-9.867-16.846-5.476c-26.052,35.378-54.931,71.175-46.868,120.21
		c2.947,19.553,7.159,43.498,26.772,48.492c25.63,6.979,43.56,0.843,62.632-4.934c0,0,22.862-5.175,24.547-11.912
		C1026.11,880.981,1013.656,857.217,1013.656,857.217z"/>
</g>
</svg>
