<?xml version="1.0" encoding="utf-8"?>
<!-- Generator: Adobe Illustrator 14.0.0, SVG Export Plug-In . SVG Version: 6.00 Build 43363)  -->
<!DOCTYPE svg PUBLIC "-//W3C//DTD SVG 1.1//EN" "http://www.w3.org/Graphics/SVG/1.1/DTD/svg11.dtd">
<svg version="1.1"
	 id="svg8" sodipodi:docname="animalia.svg" inkscape:version="0.92.4 (5da689c313, 2019-01-14)" xmlns:dc="http://purl.org/dc/elements/1.1/" xmlns:cc="http://creativecommons.org/ns#" xmlns:rdf="http://www.w3.org/1999/02/22-rdf-syntax-ns#" xmlns:svg="http://www.w3.org/2000/svg" xmlns:sodipodi="http://sodipodi.sourceforge.net/DTD/sodipodi-0.dtd" xmlns:inkscape="http://www.inkscape.org/namespaces/inkscape"
	 xmlns="http://www.w3.org/2000/svg" xmlns:xlink="http://www.w3.org/1999/xlink" x="0px" y="0px" width="2267.717px"
	 height="2267.717px" viewBox="-192.299 -192.826 2267.717 2267.717" enable-background="new -192.299 -192.826 2267.717 2267.717"
	 xml:space="preserve">
<sodipodi:namedview  id="base" inkscape:window-height="962" inkscape:document-units="mm" inkscape:window-x="-8" inkscape:window-y="-8" inkscape:pageopacity="0.0" inkscape:pageshadow="2" inkscape:current-layer="layer1" inkscape:window-width="1280" inkscape:window-maximized="1" borderopacity="1.0" bordercolor="#666666" showgrid="false" pagecolor="#ffffff" inkscape:cy="540.22389" inkscape:cx="1606.1357" inkscape:zoom="0.1400905">
	</sodipodi:namedview>
<g id="layer1" transform="translate(-39.651487,-18.049754)" inkscape:groupmode="layer" inkscape:label="Capa 1">
	<path id="path3713" inkscape:connector-curvature="0" fill="none" stroke="#000000" stroke-width="0.25" d="M1990.855,1871.838
		c-14.121,24.196-27.608,46.021-43.47,67.208c-25.699,38.896-87.462,60.487-130.644,41.272
		c-40.811-18.58-82.428-24.658-122.139-37.855c-28.479-7.639-56.958-15.279-63.556-47.58c-5.502-26.914,3.878-52.386,27.955-66.277
		c30.099-17.368,59.39-22.229,91.341-8.568c6.48,4.285,15.341,9.201,21.823,13.485c55.512,30.158,60.893,29.062,83.931-28.361
		c12.387-27.207,17.656-56.323,18.177-86.712c1.271-4.746-1.564-13.14-5.037-19.161c-12.156-21.069-24.313-42.139-36.468-63.209
		c-58.927,29.985-116.117,62.982-187.951,46.257c-103.324-22.633-155.132-95.044-146.567-212.32
		c3.705-42.255,14.529-82.603,34.845-120.4c4.282-6.481,8.566-12.966,6.366-23.729c-61.816,59.735-91.685,133.138-85.955,216.082
		c3.88,51.923-18.811,89.087-48.62,124.338c-37.74,45.847-76.754,96.437-137.878,115.655
		c-78.953,85.668-165.318,47.234-250.581,14.187c-7.121-1.91-11.23-5.558-15.979-6.83c-55.049-22.403-61.995-34.442-39.593-89.488
		c8.102-20.723,25.527-28.77,46.423-30.795c44.801-5.791,88.155,3.297,132.149,10.008c50.475,11,73.455-8.278,95.68-53.196
		c38.263-76.234,36.004-153.162,27.262-234.375c-6.251-52.557-11.23-109.864-12.101-163.522c-0.755-25.642,3.24-50.013,7.234-74.383
		c1.446-14.875,0.982-22.633-16.265-24.715c-56.497-7.523-116-13.312-171.859-23.207c-68.363-10.71-134.176-30.91-199.356-53.48
		c-16.613-4.458-36.871-4.808-50.301-21.128c-4.11-3.648-11.23-5.56-13.139,1.559c-19.217,43.184-65.119,43.59-97.767,70.451
		c-29.636,25.119-69.693,32.182-103.438,53.66c-33.747,21.475-63.383,46.597-74.207,86.945c-1.909,7.118-4.456,16.611-10.478,20.084
		c-37.103,43.472-58.866,96.148-84.74,145.177c-52.383,100.431-162.13,139.679-264.471,94.414
		c-20.087-10.476-46.192-17.48-64.367-35.075c-28.77-25.53-39.017-53.717-24.893-77.915c14.762-26.568,62.92-54.354,89.026-47.351
		c21.361,5.729,44.457,14.469,65.817,20.197c28.478,7.642,41.156-1.678,51.168-29.52c10.65-30.214,9.261-53.484-8.105-83.584
		c-36.468-63.209-27.67-124.449,47.232-147.604c16.149-3.302,19.333-15.167,22.517-27.037
		c11.515-80.859,32.527-159.181,53.538-237.499c7.003-26.105,0.868-50.647-11.289-71.718
		c-13.891-24.081-24.138-52.269-35.021-78.084c-18.755-53.367-42.893-105.64-91.748-141.644
		c-27.67-20.143-45.673-47.868-60.666-77.33c-4.572-11.404-11.692-13.315-22.46-11.114c-35.771,0.578-64.599,13.199-85.377,43.237
		c-32.357,44.747-84.744,40.872-125.551,22.289c-33.688-16.669-42.661-49.605-25.992-83.294c3.648-4.11,7.294-8.221,8.566-12.965
		c10.652-30.218,8.278-30.855-24.483-32.01c-35.136-1.794-58.522-28.422-58.291-76.698c-0.926-15.513-0.752-25.641-10.709-35.944
		c-13.429-16.322-16.092-34.847,3.24-50.014c13.314-11.692,27.264-25.759,42.949-36.813c22.343-16.905,44.05-31.433,39.361-70.852
		c-9.437-40.692,32.53-54.876,56.611-68.768c56.551-30.623,118.14-42.084,181.928-42.78c30.391,0.519,95.855-63.324,127.057-75.31
		c5.381-1.1,11.4-4.572,19.794-7.409c-0.81,12.503,3.241,54.294,3.068,64.425c-3.183,11.866-33.454,39.36-20.953,40.174
		c41.62,6.075,87.464,43.813,123.122,15.219c56.725-40.751,56.205-10.362,65.004,32.705c0.463,7.755,10.593,7.929,17.713,9.837
		c37.335,12.562,71.662,26.859,106.623,38.784c70.563,21.474,120.98,70.614,175.045,115.65
		c45.209,40.11,90.591,70.096,153.107,74.146c37.508,2.43,68.824,18.464,102.513,35.135
		c50.301,21.127,104.424,28.016,159.355,22.399c135.51-11.985,270.494,6.419,401.024,41.438
		c59.331,15.917,113.744,40.692,171.164,63.726c43.183,19.22,83.992,37.798,115.599,71.718
		c98.288,107.78,148.131,225.457,108.653,372.601c-12.731,47.466-12.965,95.739-13.191,144.016
		c-6.482,100.023,2.55,199.122-6.306,298.51c-2.082,17.248,2.023,20.898,17.538,19.971c23.269-1.391,46.541-2.779,69.172-1.796
		c14.874,1.447,31.491,5.904,31.781,23.791c2.661,18.52,2.952,36.409-15.106,46.827c-29.465,14.991-58.288,27.61-88.853,37.221
		c-12.041,6.946-18.698,12.795-13.023,29.577c11.634,51.46,23.906,100.544,52.329,146.331c14.527,21.71,5.788,44.804,0.061,66.164
		C2036.408,1787.385,2017.194,1830.568,1990.855,1871.838z M1805.156,1473.482c-42.953-67.489-80.52-136.084-88.623-219.669
		c-1.218-33.401-28.306-17.769-33.229-8.915c-47.114,71.314-99.615,143.729-79.18,238.253c7.699,37.686,18.235,83.76,56.845,91.572
		c50.475,11.001,84.684-2.721,121.265-15.802c0,0,43.868-12.325,46.529-25.626
		C1831.736,1518.43,1805.156,1473.482,1805.156,1473.482z"/>
</g>
</svg>
