<?xml version="1.0" encoding="utf-8"?>
<!-- Generator: Adobe Illustrator 14.0.0, SVG Export Plug-In . SVG Version: 6.00 Build 43363)  -->
<!DOCTYPE svg PUBLIC "-//W3C//DTD SVG 1.1//EN" "http://www.w3.org/Graphics/SVG/1.1/DTD/svg11.dtd">
<svg version="1.1"
	 id="svg8" sodipodi:docname="annelida.svg" inkscape:version="0.92.4 (5da689c313, 2019-01-14)" xmlns:dc="http://purl.org/dc/elements/1.1/" xmlns:cc="http://creativecommons.org/ns#" xmlns:rdf="http://www.w3.org/1999/02/22-rdf-syntax-ns#" xmlns:svg="http://www.w3.org/2000/svg" xmlns:sodipodi="http://sodipodi.sourceforge.net/DTD/sodipodi-0.dtd" xmlns:inkscape="http://www.inkscape.org/namespaces/inkscape"
	 xmlns="http://www.w3.org/2000/svg" xmlns:xlink="http://www.w3.org/1999/xlink" x="0px" y="0px" width="2267.717px"
	 height="2267.717px" viewBox="216.912 -64.554 2267.717 2267.717" enable-background="new 216.912 -64.554 2267.717 2267.717"
	 xml:space="preserve">
<sodipodi:namedview  id="base" inkscape:window-height="962" inkscape:document-units="mm" inkscape:window-x="-8" inkscape:window-y="-8" inkscape:pageopacity="0.0" inkscape:pageshadow="2" inkscape:current-layer="layer1" inkscape:window-width="1280" inkscape:window-maximized="1" borderopacity="1.0" bordercolor="#666666" showgrid="false" pagecolor="#ffffff" inkscape:cy="690.1654" inkscape:cx="1480.0147" inkscape:zoom="0.1400905">
	</sodipodi:namedview>
<g id="layer1" transform="translate(-73.02102,32.562033)" inkscape:groupmode="layer" inkscape:label="Capa 1">
	<path id="path3713" inkscape:connector-curvature="0" fill="none" stroke="#000000" stroke-width="0.2646" d="M2518.259,1766.334
		c-49.625,176.361-242.666,279.71-415.659,283.029c-120.047-0.046-242.55-20.41-353.04-56.774
		c-155.733-54.544-288.98-148.786-349.86-321.493c-57.5-159.777-57.747-317.38-29.672-481.433
		c15.731-85.566,12.96-83.414-65.535-75.748c-35.4,3.065-66.493,11.671-98.821,30.127c-59.112,32.606-124.061,31.964-189.626,36.25
		c-87.729,1.504-179.462,15.013-269.953-1.337c-34.165-6.784-70.793-13.879-104.958-20.663
		c-48.939-8.639-43.381-52.962-51.679-86.517c-6.453-28.322,1.25-49.865,31.424-71.093c97.91-62.756,201.971-114.736,310.03-158.712
		c118.527-47.665,249.042-51.31,377.395-37.716c14.774,1.853,29.549,3.706,41.862,5.25c39.089,7.402,44.639-16.913,32.643-40.926
		c-52.905-96.675-34.389-224.411-104.229-305.701c-272.292-321.771-592.519-61.792-620.231-40.255
		c-83.751,69.533-171.811,133.525-270.33,181.198c-28.939,11.378-48.947,11.37-72.027-4.03
		c-23.08-15.399-22.764-37.87-14.753-61.876c28.979-111.417,92.423-198.504,170.023-278.813
		c71.44-71.078,146.878-134.151,245.391-161.815c36.327-10.453,66.191-29.217,98.21-45.211
		C865.661,25.93,919.224,17.639,972.47,31.82c93.872,29.279,193.295,34.242,284.087,68.137
		c133.88,49.303,205.56,155.833,265.229,278.366c57.515,119.763,107.024,243.523,114.976,379.58
		c1.527,27.705,15.376,36.945,43.39,32.954c98.502-7.657,199.462,5.002,294.568,24.432
		c112.034,24.053,215.132,79.498,312.068,144.178C2548.365,1127.324,2592.54,1513.032,2518.259,1766.334z M1106.342,898.984
		c-20.617-15.089-108.97,11.348-169.612,16.248c-60.95,7.365-75.423,23.057-127.45,39.043
		c-54.181,13.216-130.538,63.668-130.538,63.668c-20.95,47.396,17.515,79.73,17.515,79.73s83.414,12.96,130.507,16.364
		c47.403,0.942,114.205-13.19,114.205-13.19s169.002-31.332,187.782-41.482C1149.993,1049.522,1127.269,911.614,1106.342,898.984z
		 M1698.853,980.784c0,0,112.343,21.59,136.041,32.065c26.16,10.783,87.403,40.973,108.64,51.14
		c18.773,9.857,90.482,36.356,111.102,51.448c23.388,12.938,36.31,29.563,52.004,44.038c18.464,12.317,93.269-5.813,112.976-23.353
		c22.479-19.689,41.274-69.856,41.274-69.856s-39.691-42.495-55.385-56.967c-16.002-12.012-83.397-52.976-123.405-73.001
		c-37.854-17.251-41.235-30.181-205.598-55.794c-164.673-23.148-188.996-8.69-188.996-8.69
		C1676.113,882.891,1698.853,980.784,1698.853,980.784z M2285.952,1524.612c-49.525-83.744-96.897-164.719-168.592-231.233
		c-49.232-46.192-107.396-80.997-160.018-120.108c-73.547-51.743-156.644-87.174-243.438-113.063
		c-33.856-9.248-52.945,3.365-57.268,37.839c-4.322,34.475-8.645,68.946-17.893,102.803
		c-21.591,112.343-31.178,228.693,2.639,337.982c26.438,88.351,75.656,174.56,180.304,197.685
		c78.179,14.807,373.341,94.336,466.095-166.655C2296.221,1548.309,2285.952,1524.612,2285.952,1524.612z"/>
</g>
</svg>
