<?xml version="1.0" encoding="utf-8"?>
<!-- Generator: Adobe Illustrator 18.0.0, SVG Export Plug-In . SVG Version: 6.00 Build 0)  -->
<!DOCTYPE svg PUBLIC "-//W3C//DTD SVG 1.1//EN" "http://www.w3.org/Graphics/SVG/1.1/DTD/svg11.dtd">
<svg version="1.1"
	 id="svg8" sodipodi:docname="annelida.svg" inkscape:version="0.92.4 (5da689c313, 2019-01-14)" xmlns:dc="http://purl.org/dc/elements/1.1/" xmlns:cc="http://creativecommons.org/ns#" xmlns:rdf="http://www.w3.org/1999/02/22-rdf-syntax-ns#" xmlns:svg="http://www.w3.org/2000/svg" xmlns:sodipodi="http://sodipodi.sourceforge.net/DTD/sodipodi-0.dtd" xmlns:inkscape="http://www.inkscape.org/namespaces/inkscape"
	 xmlns="http://www.w3.org/2000/svg" xmlns:xlink="http://www.w3.org/1999/xlink" x="0px" y="0px"
	 viewBox="783.8 502.4 1133.9 1133.9" enable-background="new 783.8 502.4 1133.9 1133.9" xml:space="preserve">
<sodipodi:namedview  inkscape:window-height="962" inkscape:document-units="mm" inkscape:pageopacity="0.0" inkscape:current-layer="layer1" inkscape:pageshadow="2" inkscape:window-maximized="1" inkscape:window-x="-8" inkscape:window-y="-8" inkscape:window-width="1280" pagecolor="#ffffff" showgrid="false" bordercolor="#666666" borderopacity="1.0" inkscape:zoom="0.1400905" inkscape:cx="1480.0147" inkscape:cy="690.1654" id="base">
	</sodipodi:namedview>
<g id="layer1" transform="translate(-73.02102,32.562033)" inkscape:label="Capa 1" inkscape:groupmode="layer">
	<path id="path3713" inkscape:connector-curvature="0" fill="none" stroke="#000000" stroke-width="0.2646" d="M1427.7,1493.3
		c-39.4-47.3-74.3-98.3-93.2-155.8c-15.5-48.9-27.9-101.2-29.4-153.3c0.5-14.9-5.1-21.7-19.7-20.9c-71.9,3.5-139.7-15.6-205.8-39.1
		c-67.7-24.5-127.7-56.1-161.1-123.7c-22.9-45.8-31.1-97.7-51.7-145.4c-10.4-27.2-9.1-55.8,1.8-83.9c6.6-17.7,14.8-34.5,18.2-54.1
		c9-53.3,37.9-96.4,71.2-138c37.8-45.3,80-83.5,136.9-104.9c12.2-5.6,23.9-7,33.3,4.3s10.5,21.8,6.2,37.6
		c-19.5,54.4-48.2,104.3-80,152.1c-9.8,15.8-128.3,198.5,55.9,323.5c46.6,32.1,112.7,15.2,166.4,37.6c13.3,5,25.7,0.7,19.7-19.4
		c-1.5-6.4-3.3-14-5.1-21.7c-14.3-66.6-19.7-135.4-1.4-200.3c17-59.2,38.5-116.8,66-171.7c9.5-17,20.3-22.3,35.6-20.5
		c18.1,2.5,41.1-2.9,48.3,22.3c5.5,17.6,11.3,36.4,16.7,54c13.7,46.6,11.7,95.5,15.8,141.7c1.4,34.7,5.4,68.8-8.4,101.6
		c-7.9,18-10.7,34.8-10.3,53.6c0.4,41.7-0.6,43.2,43.5,30.2c84.6-23.9,167.4-32.7,254.5-11.4c94.1,22.3,151.1,87,188.5,165.7
		c25.3,56,42.9,119.2,49.6,182.2c8,91-35.5,198.2-125.3,234.2C1735.6,1622.8,1530.5,1621.2,1427.7,1493.3z M1415.2,879.5
		c4.3-10.4,11.3-100.9,11.3-100.9s3.7-35.9,0.5-60.7c-4.4-24.5-15.9-67.6-15.9-67.6s-19.1-18.4-42.9-4.7c0,0-22.2,42.9-26.1,72.1
		c-5.5,28.2-12.9,36.7-13.4,69.1c0.8,32.1-8.1,80,1,90C1337.5,887,1411.2,891.2,1415.2,879.5z M1348.1,1183.5
		c0,0-6.2,13.6,15.2,98.8c22.7,84.9,29.7,85.9,40.8,104.9c12.8,19.9,38.1,53,45.3,60.7c8.5,7.4,33,25.9,33,25.9s25.3-12.7,34.4-25.6
		c8.1-11.3,13.4-51.6,5.9-60.6c-8.5-7.4-17.9-13.3-26-24.8c-9.1-10-27-46.2-33.3-55.5c-6.5-10.6-25.8-41.1-33-54.2
		c-6.8-11.9-24.5-69.7-24.5-69.7S1353.2,1176.9,1348.1,1183.5z M1748.3,1459.6c131.9-63.4,73.5-213.9,61.4-254.1
		c-18-53.7-66.1-74.7-113.9-83.6c-59.3-11.6-119.9-0.1-177.7,17.6c-17.3,6.8-35.1,11-53,15.2s-23.4,14.9-16.7,32.2
		c18.5,44.1,41.7,85.8,73,121.5c23.5,25.4,45,54,72.1,77.3c39,33.9,84.1,54.3,130.9,75.6C1724.5,1461.1,1734.1,1464.3,1748.3,1459.6
		z"/>
</g>
</svg>
