<?xml version="1.0" encoding="utf-8"?>
<!-- Generator: Adobe Illustrator 14.0.0, SVG Export Plug-In . SVG Version: 6.00 Build 43363)  -->
<!DOCTYPE svg PUBLIC "-//W3C//DTD SVG 1.1//EN" "http://www.w3.org/Graphics/SVG/1.1/DTD/svg11.dtd">
<svg version="1.1"
	 id="svg8" sodipodi:docname="anthocerotophyta.svg" inkscape:version="0.92.4 (5da689c313, 2019-01-14)" xmlns:dc="http://purl.org/dc/elements/1.1/" xmlns:cc="http://creativecommons.org/ns#" xmlns:rdf="http://www.w3.org/1999/02/22-rdf-syntax-ns#" xmlns:svg="http://www.w3.org/2000/svg" xmlns:sodipodi="http://sodipodi.sourceforge.net/DTD/sodipodi-0.dtd" xmlns:inkscape="http://www.inkscape.org/namespaces/inkscape"
	 xmlns="http://www.w3.org/2000/svg" xmlns:xlink="http://www.w3.org/1999/xlink" x="0px" y="0px" width="2267.717px"
	 height="2267.717px" viewBox="-293.372 -36.987 2267.717 2267.717" enable-background="new -293.372 -36.987 2267.717 2267.717"
	 xml:space="preserve">
<sodipodi:namedview  id="base" inkscape:window-height="962" inkscape:document-units="mm" inkscape:window-x="-8" inkscape:window-y="-8" inkscape:pageopacity="0.0" inkscape:pageshadow="2" inkscape:current-layer="layer1" inkscape:window-width="1280" inkscape:window-maximized="1" borderopacity="1.0" bordercolor="#666666" showgrid="false" pagecolor="#ffffff" inkscape:cy="746.40418" inkscape:cx="798.46106" inkscape:zoom="0.1400905">
	</sodipodi:namedview>
<g id="layer1" transform="translate(-253.34875,37.132292)" inkscape:groupmode="layer" inkscape:label="Capa 1">
	<path id="path3713_1_" inkscape:connector-curvature="0" fill="none" stroke="#000000" stroke-width="0.2646" d="M1196.98,1304.937
		c-55.58,2.926-38.028-26.328-43.879-43.88c-11.701-38.029-23.402-76.058-32.178-117.013
		c-17.552-93.609-67.283-187.219-35.104-286.68c2.925-5.851-2.926-11.702-11.702-11.702c-35.104,0-23.402-20.477-26.328-32.178
		c-5.851-38.029-55.582-67.282-78.983-114.087c-29.254,67.283,8.776,122.863,0,175.519c-29.254,0-8.776-26.327-26.328-29.253
		c-46.806,23.402-17.552,49.73-14.627,76.059c8.776,35.104,61.431,38.029,73.133,73.132c29.253,96.535,52.656,193.07,81.909,289.607
		c2.926,17.552,5.852,35.104-14.626,58.505c-14.627-55.581-26.328-102.387-40.955-160.892
		c-14.626,46.805,38.029,87.759-14.626,119.938c29.253,20.476,14.626,35.104-11.702,49.729c-8.776,2.926-5.85,17.552,5.85,17.552
		c32.179-5.851,26.329,14.626,35.104,26.327c35.104,32.179,46.806,73.134,64.357,108.237c-2.925-23.403-5.851-49.73-8.775-73.134
		c58.506,134.564,105.311,274.98,128.713,421.245c-29.254-14.626-14.627-38.028-38.029-46.804
		c-40.954,32.178-55.58,29.252-76.058-11.702c-55.581-114.087-105.312-225.249-157.967-336.411
		c-8.776-20.477-5.85-35.104,11.702-49.729c23.402-20.478,20.478-52.655-8.776-55.581c-61.431-5.851-55.581-40.954-64.356-64.357
		c-23.402-61.432-38.029-119.938-58.507-181.369c-5.851-23.402-26.328-52.656-17.552-73.133
		c8.776-20.478,55.581,2.925,78.984-11.701c-23.403-52.656-99.46-81.909-117.012-131.64
		c-38.029-108.236-67.283-219.398-84.834-330.56c-2.925-11.701,0-23.403,17.552-26.329c61.431,0,64.357-26.328,55.582-61.431
		c-5.851-23.402-14.626-43.879-49.73-46.806c-40.955-2.924-46.806-20.476-43.88-46.804c2.925-49.731-11.701-102.386-14.626-160.893
		c-49.731,49.73-90.685,73.133-93.61,38.029c-5.851,0-11.701,0-17.552,2.926c5.851,52.655-8.776,108.236,26.328,157.966
		c20.478,29.253,8.776,38.029-26.328,40.955c-32.178,2.925-61.432,8.776-64.357,35.104c-2.926,32.178,29.253,58.507,26.328,87.759
		c0,2.926,20.478,8.776,26.328,5.851c70.208-29.253,64.357,23.402,78.984,43.88c52.655,81.909,20.476,172.593,49.73,257.427
		c0,8.776,2.925,20.478-2.925,23.403c-61.432,29.253-17.553,73.133-23.403,111.162c-2.925,17.552,8.776,20.477,26.329,14.626
		c11.701-5.85,20.477-14.626,32.179-14.626c26.328,87.759,49.729,172.593,81.909,254.502c17.552,46.805,23.402,87.76-5.852,131.64
		c-29.252,38.028,8.776,76.058,64.357,73.132c11.702-2.925,8.776,5.852,14.627,8.776c102.385,55.581,84.833,146.267,125.789,216.474
		c-23.403-14.626-11.702-40.954-46.806-61.432c14.626,35.104,5.851,73.133,38.03,90.685
		c55.581,29.252,125.788,76.058,155.041,119.938c-26.327-5.851-20.477-26.328-43.88-29.253
		c14.627,32.179-2.925,35.104-38.029,23.402c-108.236-35.104-190.145-102.387-254.502-166.742
		c-108.237-105.313-175.519-231.1-228.175-359.814c-29.253-73.133-40.955-149.19-67.282-222.323
		c-8.776-29.253-5.851-49.73,35.104-67.282c58.506-23.402,26.329-55.581,8.776-84.833c-17.552-35.105-46.805-20.478-84.833-5.851
		c-2.925-117.013-90.685-222.324-32.179-336.411c5.852-5.851,2.926-26.328-5.85-20.477c-46.805,26.328-23.403-8.775-26.328-14.627
		c-5.851-29.253,2.925-61.431-14.627-93.609c-20.477,17.552-90.685,55.58-87.759,70.207c8.776,29.253-29.253,2.925-32.178,17.552
		c-2.926,32.178-52.657,67.281-2.926,102.386c8.776,5.851,8.776,23.402,11.702,35.104
		c29.252,131.639,43.879,263.279,111.161,391.991c46.805,93.61,64.357,193.071,70.208,292.532
		c-26.329,5.851-55.581-11.702-76.059,11.701c-8.776,5.851,46.805,81.908,61.432,87.76c23.403,8.775,35.104-5.852,40.955-26.328
		c40.954,49.73,61.432,99.46,114.087,134.563c38.029,23.404,78.984,58.508,52.655,108.237c-5.85,14.627,5.852,23.403,23.403,29.253
		c20.477,5.851,38.029,17.552,55.581,32.178c43.879,35.104,96.535,67.283,134.564,108.237
		c49.73,46.805,131.638,55.581,201.847,78.983c26.327,8.776,29.252,11.701,29.252,32.178c0,55.582,70.208,96.537,111.162,152.116
		c0-73.132,0-149.19,0-225.248c5.85,0,11.701,0,17.552,0c52.655,81.908,55.581,178.444,114.088,260.353
		c35.104-23.402,14.626-52.656,38.028-78.983c14.627,29.253-5.851,49.731-2.925,73.133c2.925,11.702,0,23.402,20.477,26.328
		c20.477,0,87.76-17.553,90.685-26.328c11.701-90.685,26.328-178.444,35.104-266.203c5.851-52.656,14.627-99.462,102.386-117.013
		c-38.03-14.627-64.357-26.328-26.328-49.73c11.701-5.85,8.776-20.478-11.702-23.401c-23.401-5.852-17.552-20.478-14.625-29.254
		c5.85-23.402,14.625-46.806,20.478-70.207c14.626-67.283,38.028-134.564,46.805-201.847c5.85-64.357,73.133-108.236,64.356-181.37
		c-8.775-67.282,17.552-143.34,46.805-213.548c29.253-70.207,26.328-149.19,73.134-216.473
		c23.402-38.029,23.402-49.73,46.804-55.581c-5.85-20.478-49.729-17.553-43.879-46.805
		c23.402-114.088,43.879-228.175,67.282-339.337c5.851-35.104,26.328-61.431,84.834-67.281
		c-32.178-23.403-67.282-38.03-58.506-73.133c5.851-38.029,11.7-76.059,17.551-117.012c5.852-46.805,11.701-96.536,26.328-143.341
		c2.925-8.776-67.282-26.328-93.61-23.403c-14.626,0-38.028-8.775-38.028,11.702c-2.925,14.626-5.851,29.253,2.925,40.954
		c17.552,20.478,14.627,40.955,11.702,64.356c-11.702,67.283-20.478,131.64-64.357,193.072c-11.702,20.476-26.328,0-40.954,8.775
		c29.252,20.477,2.925,49.73,23.402,70.208c40.954,40.954,17.552,81.909,5.85,117.013c-17.552,49.73-49.729,99.46-61.431,152.116
		c-2.926,32.179-2.926,67.282-23.402,90.685c-17.552,20.477-17.552,29.253-17.552,49.731
		c-5.851,38.029-23.403,76.057,14.626,111.162c2.926,2.925-2.926,8.776-5.85,11.701c-17.552,84.834-29.254,169.668-55.581,254.502
		c-11.702,43.88-5.852,93.61-52.657,131.64c11.702-49.731,23.404-102.387,35.104-155.042
		c-11.7,73.133-78.983,134.564-84.834,204.771c-5.851,73.133-35.104,143.34-46.805,216.474
		c-14.626,73.132-40.954,143.339-70.208,213.548c-14.626-8.775-26.327-20.478-43.879-26.327c-11.702-5.852-23.402,0-32.18,8.775
		c-2.924,5.851-2.924,11.7,8.777,8.776c38.028-5.852,26.327,17.552,32.178,29.252c38.029,96.535,2.926,187.221-11.701,280.83
		c-26.328-64.357-90.686-131.64,8.775-201.847c-67.281,35.104-55.58-35.104-96.534-35.104c-2.927,0-8.776-23.402-8.776-38.028
		c14.627-108.236,38.029-216.474,70.207-321.785c2.926-11.701,20.478-32.178,35.104-26.328
		c49.731,26.328,43.88-17.552,64.357-29.253c14.626-5.851,52.655-61.432,38.029-61.432c-20.478,0-20.478,23.403-46.805,17.552
		c-5.851-93.609,26.327-181.369,38.029-272.054c2.924-20.477,8.775-38.029,14.626-55.581c32.179,2.926,84.835,38.029,58.506-29.252
		c-5.851-11.702-8.775-43.88,5.852-58.507c23.401-23.402-5.852-32.178-20.479-38.029c-35.104-11.701-8.775,23.403-32.178,29.253
		c0-8.776-2.926-17.552-2.926-23.402c2.926-117.012,26.328-231.1,20.478-348.112c0-14.626,11.701-23.402,26.328-32.178
		c20.477-14.627,32.178-38.03,5.85-49.731c-35.104-17.552-29.252-38.03-32.178-58.506c-8.775-99.46-84.835-201.847-93.61-307.159
		c-46.805,61.433-43.88,190.146-2.925,263.278c5.851,11.701,5.851,32.179-11.701,52.656c-17.552,20.477-40.955,14.626-58.506,23.402
		c-32.179,11.701-43.881,29.253-43.881,55.581c2.926,17.552,17.553,23.402,40.955,26.328c49.729,5.851,81.909,38.03,73.133,73.133
		c-14.627,67.282,0,131.639-35.104,198.921c-17.553,29.253-2.926,70.207-2.926,102.386c-26.327,11.701-46.805-17.552-67.283,2.925
		c-17.551,20.478,8.777,29.253,17.553,43.88c14.627,20.477,40.955,43.88,29.253,70.208c-20.478,49.729,5.851,102.385-20.478,152.115
		c-8.775,14.627-17.551,46.806-8.775,61.432c17.553,29.254-17.553,52.655,0,84.835c11.701,17.552-20.477,17.552-38.029,8.776
		C1223.309,1284.462,1215.219,1295.472,1196.98,1304.937"/>
</g>
</svg>
