<?xml version="1.0" encoding="utf-8"?>
<!-- Generator: Adobe Illustrator 18.0.0, SVG Export Plug-In . SVG Version: 6.00 Build 0)  -->
<!DOCTYPE svg PUBLIC "-//W3C//DTD SVG 1.1//EN" "http://www.w3.org/Graphics/SVG/1.1/DTD/svg11.dtd">
<svg version="1.1"
	 id="svg8" sodipodi:docname="anthocerotophyta.svg" inkscape:version="0.92.4 (5da689c313, 2019-01-14)" xmlns:dc="http://purl.org/dc/elements/1.1/" xmlns:cc="http://creativecommons.org/ns#" xmlns:rdf="http://www.w3.org/1999/02/22-rdf-syntax-ns#" xmlns:svg="http://www.w3.org/2000/svg" xmlns:sodipodi="http://sodipodi.sourceforge.net/DTD/sodipodi-0.dtd" xmlns:inkscape="http://www.inkscape.org/namespaces/inkscape"
	 xmlns="http://www.w3.org/2000/svg" xmlns:xlink="http://www.w3.org/1999/xlink" x="0px" y="0px"
	 viewBox="273.6 529.9 1133.9 1133.9" enable-background="new 273.6 529.9 1133.9 1133.9" xml:space="preserve">
<sodipodi:namedview  inkscape:window-height="962" inkscape:document-units="mm" inkscape:pageopacity="0.0" inkscape:current-layer="layer1" inkscape:pageshadow="2" inkscape:window-maximized="1" inkscape:window-x="-8" inkscape:window-y="-8" inkscape:window-width="1280" pagecolor="#ffffff" showgrid="false" bordercolor="#666666" borderopacity="1.0" inkscape:zoom="0.1400905" inkscape:cx="798.46106" inkscape:cy="746.40418" id="base">
	</sodipodi:namedview>
<g id="layer1" transform="translate(-253.34875,37.132292)" inkscape:label="Capa 1" inkscape:groupmode="layer">
	<path id="path3713_1_" inkscape:connector-curvature="0" fill="none" stroke="#000000" stroke-width="0.2646" d="M1189.5,1242.4
		c-4.9,14.2-19.9,3-29.2,0c-19.9-6.9-39.8-13.8-60.1-22.9c-45.5-21.8-101-30-133.4-74.9c-1.6-3.1-5.9-2.4-8.7,1.3
		c-11,15-16.1,3.6-22,1.2c-18.1-9.4-46.2,2.6-73.5-2c19.6,33.6,55.2,34.8,75,55c-9.2,12.5-14-4.5-20.7,2.1
		c-4.7,27.3,15.7,23.1,27.9,30.1c17.7,7.3,35.5-14.3,54.2-8.3c50.4,17.8,99,38,149.4,55.8c8.4,4.3,16.8,8.5,20.4,24.6
		c-28.3-11.2-52-20.9-81.5-32.9c15.4,20.9,49.4,11.3,46.6,43.8c17.9-6.1,19.6,4.8,17.6,20.6c-1.5,4.7,5.7,8,9.3,3
		c7.6-15.6,14.5-6.7,22.2-6.7c24.7-4.9,45.9,2.9,66.4,6.4c-10.9-6.1-23.1-13.1-34-19.2c75.8,17.2,150.4,41.2,220.2,77.1
		c-15.4,7.9-20.8-5.7-31.9,1.6c0.9,27.6-4.9,32.9-28.8,28.8c-66.1-12-129.2-25.6-193.2-38c-11.5-2.7-16.8-8.5-17.6-20.6
		c-1.4-16.4-16.1-25.3-26.5-13.7c-21.8,24.4-34.9,10.9-47.7,7.3c-33.6-9.3-63.1-21.4-95.8-31.9c-11.8-4.8-30.7-5.3-36.7-15.4
		c-6-10.2,18.7-22.8,19.8-37.4c-29.8-6.5-66.2,16.8-92.9,8.7c-58.1-17.7-114.8-40-167.8-67.4c-5.9-2.4-10-7.3-5.7-15.7
		c19.3-26.2,8.9-35.7-8.8-43c-11.8-4.8-23.3-7.5-35.6,6.6c-14.1,16.6-23.4,13.6-33.7,4.1c-20.3-16.8-47.4-27.1-73.3-44.2
		c5.6,36.8,2.8,61.7-13.1,51.9c-1.8,2.5-3.7,5-4.3,8.4c24.3,14,43.5,37.7,75.7,38.3c18.9,0.4,19,8.2,9.2,24.1
		c-8.8,14.7-15.5,29-5.2,38.5c12.8,11.3,34.2,5.8,45.7,16.3c1.2,0.9,10.2-6,10.8-9.4c9.5-39.2,30.2-20.1,43.5-20
		c51.5,3.2,80.1,45.4,125.5,59.5c3.7,2.8,9.7,5.2,9.1,8.6c-6.8,35.4,25.7,30.4,40.1,44.8c6.6,6.8,11.5,2.7,14.5-6.7
		c1.2-6.8,0.2-13.3,3.8-18.3c45.7,16.3,89.3,32.9,134.4,44.8c25.5,7.2,44.8,17.5,54.4,43.8c7.1,24.4,35.2,20.1,51.4-4.6
		c2.4-5.9,5.2-1.9,8.3-3.5c55.8-26.3,89.1,9.6,131.9,14.1c-13.6,5.4-21.2-7.8-40.9,0.7c19.6,4.8,33.1,20.4,50.6,12.2
		c29.9-14.6,71.9-29.9,99.8-28.6c-10.8,9.4-17.7,0.5-26.2,9.6c18.3,3.8,14.1,12.3-1.9,23.6c-48.9,35.2-103.3,49.1-151,56.4
		c-78.9,13.2-153.7,2.5-225.2-15.3c-40.4-10.4-76.6-29.3-116-41c-15.2-5.4-23.1-13.1-17.7-36.1c8.3-32.3-15.5-28.7-33.5-30.3
		c-20.5-3.5-23.4,13.6-29.1,34.4c-50.9-35.4-123.4-31-153.8-91.7c-0.7-4.3-10.3-9.5-10.6-3.9c-3.4,28.2-11.1,7.2-14.5,6.7
		c-14.3-6.7-25.3-20.5-44.6-23.1c1.1,14.2-4.7,56.2,2.5,59.5c15.2,5.4-7.9,13.4-2.6,19.2c12.8,11.3,12.2,43.6,42.8,33.3
		c5.2-1.9,12.7,3.6,18.7,6c65.4,28.8,126.2,63.8,202.2,75.4c54.6,9.4,102.6,33,146.9,61.7c-5.8,13.1-22.4,20.1-18.8,36.1
		c-0.3,5.6,49.7,5.7,56.7,1.3c11.1-7.2,8.5-16.8,1.6-25.7c34.1-1.9,61.7,4.9,93.2-6.5c21.9-8.9,49.7-15.4,62.7,11.4
		c4.4,7.1,11.8,4.8,19.8-0.8c8.9-6.9,19.4-10.7,31.2-13.6c28.7-7.7,59-20.1,88.4-23.5c35.6-6.6,65-38.8,97-61.4
		c12-8.5,14.2-8.8,22.9-2.4c23.7,17.4,63.2,0.3,99.8,0.2c-31.2-22.9-63.7-46.8-96.2-70.6c1.8-2.5,3.7-5,5.5-7.5
		c51.5,3.2,93.6,32.2,146.9,32.9c1-22.3-17.9-22.8-21.8-41c17.1,2.9,19.4,18.1,30.3,24.2c5.9,2.4,10,7.3,17.7-0.5
		c6.4-8.7,20-43,17.2-47c-35.1-33.4-68-67.2-102.7-98.4c-20.7-19-37.9-37.4-17.9-80.4c-18.2,11.7-31.4,19.2-29.5-4.3
		c1.2-6.8-6-10.2-13.7-2.3c-9.8,8.2-14.2,1.1-17.1-2.9c-8.2-9.8-15.4-20.9-23.6-30.8c-24.1-27.3-45.5-58.4-71.5-83.3
		c-25.6-22.7-23.3-65.2-57.3-84.3c-31.5-17.3-55.7-52.4-76.5-86.9s-55.5-58-69.5-99.1c-8.9-21.9-13.9-25.6-9.1-37.4
		c-10.6-3.9-23.1,15.7-33.7,4.1c-41.4-45.8-83.7-90.3-123.8-135.1c-13.2-13.5-18-30.5-2.1-57.3c-20.1,6.4-37.3,16.8-49.6,2.1
		c-14.4-14.4-28.8-28.8-44.5-44.2c-18.2-17.2-37.6-35.3-53-56.2c-2.8-4-32.3,20.5-39.3,32.6c-4.6,6.2-15.7,13.5-6.9,19.9
		c5.3,5.8,10.7,11.7,18.4,11.6c14.2-1.1,22.1,6.6,31.2,15.2c25.1,26.1,49.8,50,62.3,88c5.1,11.4-8.3,11.2-9.1,20.2
		c17.9-6.1,22.2,14.3,37.3,12c30.3-4.7,40.5,18.2,51.8,34.2c15.7,23.1,26.9,52.4,45.7,73.9c12.8,11.3,27.8,22.3,31.4,38.4
		c3.2,13.9,7,16.7,15.7,23.1c14.4,14.4,25.1,33.8,52.1,28.6c2.2-0.3,2.8,4,3.2,6.2c30.7,34.1,63.3,65.7,91.3,103.5
		c15.1,18.8,38.1,31.8,39.7,63.8c-17.6-20.6-36.4-42.1-55.2-63.6c27.6,27.9,32.7,75.9,60.9,100.4c29.4,25.4,50.2,59.9,77.8,87.8
		c26.6,29.2,48.4,62.4,69.2,96.9c-8.3,3.5-17,4.8-25,10.5c-6.2,3.2-7.3,10-6.3,16.5c1.6,3.1,4.1,4.9,6.5-1
		c9.4-18.1,15.7-5.7,22.6-4.6c53.1,14,80.9,57.4,116.3,93c-35.7-8.9-84.6-2.5-83.4-67c-6.1,39.7-32.4,12.7-45.3,30.2
		c-0.9,1.2-12.7-3.6-19-8.2c-41.6-40.2-80.5-84.1-115.4-130.9c-4.1-4.9-7.3-18.8-0.2-23.2c26.8-13,6.3-24.2,7.7-36.7
		c2.1-8.1-9.7-41.7-14.3-35.5c-6.4,8.7,3.6,16.1-7.2,25.5c-41.8-26.8-69.2-68.1-104.3-101.5c-7.8-7.7-13.5-15.7-19.2-23.7
		c11.3-12.8,42.8-24.3,5.8-34.2c-6.8-1.2-21.5-10-23.2-20.8c-2.7-17.3-15.6-7.6-22.7-3.2c-16,11.3,7.2,11.1,2.4,22.9
		c-3.7-2.8-8.4-4.3-10.9-6.1c-49.1-37.9-90.4-83.7-142.2-117.9c-6.2-4.6-6.3-12.3-5.5-21.3c0.2-13.3-6.2-25.7-19.4-18.1
		c-18.5,9.5-25.4,0.6-35.1-4.6c-45.2-27.4-112.8-27-160.5-56.3c11.6,39.2,67.4,78.3,111.5,83.8c6.8,1.2,15.6,7.6,18.8,21.5
		c3.2,13.9-6.6,22.1-8.3,32.3c-5.1,17.4-1.3,27.9,10,36.2c8.4,4.3,15.5-0.2,24.1-9.2c18.1-19.4,41.9-23.1,54.2-8.3
		c24.1,27.3,56.2,41.3,73.9,77.3c7,16.7,29.1,23.3,42.8,33.3c-3.3,14.9-22.2,14.5-19.8,29.7c3.2,13.9,15.2,5.4,24.2,6.3
		c13.3,0.2,31.6-3.7,39.2,9.5c14.8,24.3,45.6,29.6,58.5,56.4c3.5,8.3,14.5,22.2,23.5,23c18,1.7,17,24,36.2,26.6
		c11.2,0.5,1.1,14.2-8.2,19C1192.3,1219.8,1192.8,1232.9,1189.5,1242.4z"/>
</g>
</svg>
