<?xml version="1.0" encoding="utf-8"?>
<!-- Generator: Adobe Illustrator 14.0.0, SVG Export Plug-In . SVG Version: 6.00 Build 43363)  -->
<!DOCTYPE svg PUBLIC "-//W3C//DTD SVG 1.1//EN" "http://www.w3.org/Graphics/SVG/1.1/DTD/svg11.dtd">
<svg version="1.1"
	 id="svg8" sodipodi:docname="apendice-iii.svg" inkscape:version="0.92.4 (5da689c313, 2019-01-14)" xmlns:dc="http://purl.org/dc/elements/1.1/" xmlns:cc="http://creativecommons.org/ns#" xmlns:rdf="http://www.w3.org/1999/02/22-rdf-syntax-ns#" xmlns:svg="http://www.w3.org/2000/svg" xmlns:sodipodi="http://sodipodi.sourceforge.net/DTD/sodipodi-0.dtd" xmlns:inkscape="http://www.inkscape.org/namespaces/inkscape"
	 xmlns="http://www.w3.org/2000/svg" xmlns:xlink="http://www.w3.org/1999/xlink" x="0px" y="0px" width="2267.717px"
	 height="2267.717px" viewBox="117.361 109.838 2267.717 2267.717" enable-background="new 117.361 109.838 2267.717 2267.717"
	 xml:space="preserve">
<sodipodi:namedview  id="base" inkscape:window-height="962" inkscape:document-units="mm" inkscape:window-x="-8" inkscape:window-y="-8" inkscape:pageopacity="0.0" inkscape:pageshadow="2" inkscape:current-layer="layer1" inkscape:window-width="1280" inkscape:window-maximized="1" borderopacity="1.0" bordercolor="#666666" showgrid="false" pagecolor="#ffffff" inkscape:cy="940.52369" inkscape:cx="1188.0825" inkscape:zoom="0.1400905">
	</sodipodi:namedview>
<g id="layer1" transform="translate(-58.661391,89.364361)" inkscape:groupmode="layer" inkscape:label="Capa 1">
	<path id="path3713" inkscape:connector-curvature="0" fill="none" stroke="#000000" stroke-width="0.2646" d="M2431.876,1165.512
		c-5.102,293.291-119.867,566.179-331.547,770.209c-145.37,160.672-336.647,262.686-548.327,308.593
		c-357.05,81.611-726.852-12.752-994.64-262.687c-178.526-153.022-298.393-357.051-344.299-586.583
		c-81.611-351.95,12.752-726.853,267.789-994.64c160.672-178.526,369.802-306.043,606.985-351.95
		c51.007-5.101,107.115-12.751,165.773-12.751h1127.258c51.008,0,51.008,0,51.008,51.007
		C2431.876,451.411,2439.528,808.462,2431.876,1165.512z M2023.819,706.448h109.665V201.476h-109.665V706.448z M1794.287,706.448
		h109.665V201.476h-109.665V706.448z M1559.654,706.448h107.114V201.476h-107.114V706.448z M947.567,1025.243
		c30.605-20.403,68.86-25.504,102.014-25.504c30.605,5.101,63.759,12.751,89.263,30.604
		c17.853-56.108,38.255-114.766,56.108-178.524c-51.007-25.504-102.014-38.255-153.022-43.357
		c-56.107-7.651-114.766,0-170.874,17.853c-96.914,33.155-165.773,96.914-204.029,186.176
		c-25.504,51.007-33.155,102.014-33.155,158.123c0,58.658,20.403,109.665,45.906,153.021
		c25.504,38.255,56.108,76.511,94.363,102.015c38.256,25.503,84.163,51.007,127.518,63.759
		c-43.355,20.402-94.363,25.504-140.27,25.504c-43.356,0-89.263-12.753-132.618-25.504c-71.41-30.604-140.27-68.859-198.928-119.867
		c76.51,114.767,198.928,196.378,331.546,221.881c45.906,12.752,84.162,12.752,127.518,7.651c38.255,0,71.41-12.751,109.666-25.504
		c56.108-20.402,114.766-45.906,158.122-84.161c7.651,0,12.751-12.752,12.751-17.853c-5.101,5.101-17.852,17.853-30.604,25.504
		c-45.906,25.503-84.162,43.356-127.518,63.759c-63.759,30.604-140.27,43.355-211.68,38.255
		c-38.255-7.651-68.859-12.751-102.014-25.504c-81.612-33.153-158.123-84.161-221.881-153.021
		c76.51,63.759,170.875,94.363,267.788,107.114c38.255,0,76.511-5.101,114.767-12.751c63.759-5.102,127.518-30.604,178.524-68.86
		c38.255-20.402,76.511-45.906,107.116-76.511c12.751-12.751,25.503-20.402,33.154-33.154c0-5.101,0-17.853,0-25.503v-76.512
		c-45.906,45.906-109.665,71.41-173.424,71.41c-30.604-7.651-63.759-20.402-89.262-38.256
		c-25.504-20.402-43.356-45.906-51.008-76.51C845.553,1127.257,876.157,1055.847,947.567,1025.243z M1495.894,1675.584h-122.417
		v-492.219h-94.363v624.838c68.86,0,145.37,0,216.78,0C1488.244,1757.195,1488.244,1713.84,1495.894,1675.584z M1648.917,1616.926
		c0-165.773,0-331.546,0-489.668c63.758,0,127.518,0,183.625,0c-17.852-63.759-43.355-135.169-63.758-198.928h-471.817
		c-25.504,63.759-43.355,135.169-63.759,198.928h191.276v489.668H1648.917z M1972.812,1629.677c-51.008,0-107.115,0-165.773,0
		v-81.611h71.409l38.256-165.773H1814.69c0-25.503,0-51.007,0-76.511h178.524c-20.402-71.41-45.906-140.27-71.41-211.68h-51.008
		l7.651,12.751l17.853,63.759h-63.759h-140.27c0,51.007,0,96.913,0,140.271c0,102.014,0,204.028,0,306.042v45.906h-114.766v140.27
		h357.05C1942.208,1752.095,1960.06,1693.436,1972.812,1629.677z M2176.84,1586.322c7.651-25.504,12.752-51.008,20.402-84.163
		c0-30.604-7.65-63.759-25.504-94.363c-25.503-45.906-45.906-84.161-63.758-135.169c-20.403-25.503-25.504-51.007-25.504-81.61
		c5.101-20.403,30.604-38.255,56.108-38.255c20.402,0,33.153,5.1,45.906,17.852h5.101c-17.854-56.108-43.356-114.766-63.76-170.874
		c-38.255-20.402-76.51-25.504-114.766-25.504c-51.007,5.102-94.363,38.255-119.867,81.612h63.76l12.751,33.155l5.102,51.007
		c20.402,56.108,38.255,107.115,58.657,165.773l17.854,63.759h-89.263l-5.101,38.255l-7.651,12.753l7.651,5.101
		c5.101,12.751,5.101,20.402,12.751,33.154c5.102,17.853,0,43.355-20.402,51.007c-5.101,0-12.752,0-17.853,0l-12.752,56.108
		l-7.65,25.503h122.416l-12.751,58.659l-7.651,17.852C2082.477,1680.685,2146.236,1650.081,2176.84,1586.322"/>
</g>
</svg>
