<?xml version="1.0" encoding="utf-8"?>
<!-- Generator: Adobe Illustrator 18.0.0, SVG Export Plug-In . SVG Version: 6.00 Build 0)  -->
<!DOCTYPE svg PUBLIC "-//W3C//DTD SVG 1.1//EN" "http://www.w3.org/Graphics/SVG/1.1/DTD/svg11.dtd">
<svg version="1.1"
	 id="svg8" sodipodi:docname="apendice-ii.svg" inkscape:version="0.92.4 (5da689c313, 2019-01-14)" xmlns:dc="http://purl.org/dc/elements/1.1/" xmlns:cc="http://creativecommons.org/ns#" xmlns:rdf="http://www.w3.org/1999/02/22-rdf-syntax-ns#" xmlns:svg="http://www.w3.org/2000/svg" xmlns:sodipodi="http://sodipodi.sourceforge.net/DTD/sodipodi-0.dtd" xmlns:inkscape="http://www.inkscape.org/namespaces/inkscape"
	 xmlns="http://www.w3.org/2000/svg" xmlns:xlink="http://www.w3.org/1999/xlink" x="0px" y="0px"
	 viewBox="684.3 676.8 1133.9 1133.9" enable-background="new 684.3 676.8 1133.9 1133.9" xml:space="preserve">
<sodipodi:namedview  inkscape:window-height="962" inkscape:document-units="mm" inkscape:pageopacity="0.0" inkscape:current-layer="layer1" inkscape:pageshadow="2" inkscape:window-maximized="1" inkscape:window-x="-8" inkscape:window-y="-8" inkscape:window-width="1280" pagecolor="#ffffff" showgrid="false" bordercolor="#666666" borderopacity="1.0" inkscape:zoom="0.1400905" inkscape:cx="1188.0825" inkscape:cy="940.52369" id="base">
	</sodipodi:namedview>
<g id="layer1" transform="translate(-58.661391,89.364361)" inkscape:label="Capa 1" inkscape:groupmode="layer">
	<path id="path3713" inkscape:connector-curvature="0" fill="none" stroke="#000000" stroke-width="0.2646" d="M1875,1161
		c-2.6,147.5-60.3,284.8-166.8,387.5c-73.1,80.8-169.4,132.2-275.9,155.2c-179.6,41.1-365.7-6.4-500.4-132.2
		c-89.8-77-150.1-179.6-173.2-295.1c-41.1-177.1,6.4-365.7,134.7-500.4c80.8-89.8,186-154,305.4-177.1c25.7-2.6,53.9-6.4,83.4-6.4
		h567.1c25.7,0,25.7,0,25.7,25.7C1875,801.7,1878.9,981.3,1875,1161z M1669.7,930h55.2V676h-55.2V930z M1554.3,930h55.2V676h-55.2
		V930z M1128.3,1090.4c15.4-10.3,34.6-12.8,51.3-12.8c15.4,2.6,32.1,6.4,44.9,15.4c9-28.2,19.2-57.7,28.2-89.8
		c-25.7-12.8-51.3-19.2-77-21.8c-28.2-3.8-57.7,0-86,9c-48.8,16.7-83.4,48.8-102.6,93.7c-12.8,25.7-16.7,51.3-16.7,79.5
		c0,29.5,10.3,55.2,23.1,77c12.8,19.2,28.2,38.5,47.5,51.3c19.2,12.8,42.3,25.7,64.2,32.1c-21.8,10.3-47.5,12.8-70.6,12.8
		c-21.8,0-44.9-6.4-66.7-12.8c-35.9-15.4-70.6-34.6-100.1-60.3c38.5,57.7,100.1,98.8,166.8,111.6c23.1,6.4,42.3,6.4,64.2,3.8
		c19.2,0,35.9-6.4,55.2-12.8c28.2-10.3,57.7-23.1,79.5-42.3c3.8,0,6.4-6.4,6.4-9c-2.6,2.6-9,9-15.4,12.8
		c-23.1,12.8-42.3,21.8-64.2,32.1c-32.1,15.4-70.6,21.8-106.5,19.2c-19.2-3.8-34.6-6.4-51.3-12.8c-41.1-16.7-79.5-42.3-111.6-77
		c38.5,32.1,86,47.5,134.7,53.9c19.2,0,38.5-2.6,57.7-6.4c32.1-2.6,64.2-15.4,89.8-34.6c19.2-10.3,38.5-23.1,53.9-38.5
		c6.4-6.4,12.8-10.3,16.7-16.7c0-2.6,0-9,0-12.8v-38.5c-23.1,23.1-55.2,35.9-87.2,35.9c-15.4-3.8-32.1-10.3-44.9-19.2
		c-12.8-10.3-21.8-23.1-25.7-38.5C1077,1141.7,1092.4,1105.8,1128.3,1090.4z M1404.1,1417.6h-61.6v-247.6h-47.5v314.3
		c34.6,0,73.1,0,109.1,0C1400.3,1458.6,1400.3,1436.8,1404.1,1417.6z M1481.1,1388.1c0-83.4,0-166.8,0-246.3c32.1,0,64.2,0,92.4,0
		c-9-32.1-21.8-68-32.1-100.1h-237.4c-12.8,32.1-21.8,68-32.1,100.1h96.2v246.3H1481.1z M1644.1,1394.5c-25.7,0-53.9,0-83.4,0v-41.1
		h35.9l19.2-83.4h-51.3c0-12.8,0-25.7,0-38.5h89.8c-10.3-35.9-23.1-70.6-35.9-106.5h-25.7l3.8,6.4l9,32.1h-32.1h-70.6
		c0,25.7,0,48.8,0,70.6c0,51.3,0,102.6,0,154v23.1h-57.7v70.6h179.6C1628.7,1456.1,1637.7,1426.5,1644.1,1394.5z M1746.7,1372.7
		c3.8-12.8,6.4-25.7,10.3-42.3c0-15.4-3.8-32.1-12.8-47.5c-12.8-23.1-23.1-42.3-32.1-68c-10.3-12.8-12.8-25.7-12.8-41.1
		c2.6-10.3,15.4-19.2,28.2-19.2c10.3,0,16.7,2.6,23.1,9h2.6c-9-28.2-21.8-57.7-32.1-86c-19.2-10.3-38.5-12.8-57.7-12.8
		c-25.7,2.6-47.5,19.2-60.3,41.1h32.1l6.4,16.7l2.6,25.7c10.3,28.2,19.2,53.9,29.5,83.4l9,32.1h-44.9l-2.6,19.2l-3.8,6.4l3.8,2.6
		c2.6,6.4,2.6,10.3,6.4,16.7c2.6,9,0,21.8-10.3,25.7c-2.6,0-6.4,0-9,0l-6.4,28.2l-3.8,12.8h61.6l-6.4,29.5l-3.8,9
		C1699.2,1420.1,1731.3,1404.7,1746.7,1372.7"/>
</g>
</svg>
