<?xml version="1.0" encoding="utf-8"?>
<!-- Generator: Adobe Illustrator 14.0.0, SVG Export Plug-In . SVG Version: 6.00 Build 43363)  -->
<!DOCTYPE svg PUBLIC "-//W3C//DTD SVG 1.1//EN" "http://www.w3.org/Graphics/SVG/1.1/DTD/svg11.dtd">
<svg version="1.1"
	 id="svg8" xmlns:dc="http://purl.org/dc/elements/1.1/" xmlns:cc="http://creativecommons.org/ns#" xmlns:rdf="http://www.w3.org/1999/02/22-rdf-syntax-ns#" xmlns:svg="http://www.w3.org/2000/svg" xmlns:sodipodi="http://sodipodi.sourceforge.net/DTD/sodipodi-0.dtd" xmlns:inkscape="http://www.inkscape.org/namespaces/inkscape" sodipodi:docname="apendice-iii.svg" inkscape:version="0.92.4 (5da689c313, 2019-01-14)"
	 xmlns="http://www.w3.org/2000/svg" xmlns:xlink="http://www.w3.org/1999/xlink" x="0px" y="0px" width="1133.859px"
	 height="1133.859px" viewBox="0 0 1133.859 1133.859" enable-background="new 0 0 1133.859 1133.859" xml:space="preserve">
<sodipodi:namedview  id="base" showgrid="false" pagecolor="#ffffff" inkscape:cy="940.52369" inkscape:cx="1188.0825" inkscape:zoom="0.1400905" borderopacity="1.0" bordercolor="#666666" inkscape:window-maximized="1" inkscape:window-width="1280" inkscape:window-y="-8" inkscape:window-x="-8" inkscape:pageshadow="2" inkscape:current-layer="layer1" inkscape:pageopacity="0.0" inkscape:document-units="mm" inkscape:window-height="962">
	</sodipodi:namedview>
<g id="layer1" transform="translate(-58.661391,89.364361)" inkscape:groupmode="layer" inkscape:label="Capa 1">
	<path id="path3713" inkscape:connector-curvature="0" fill="none" stroke="#000000" stroke-width="0.2646" d="M1190.628,483.212
		c-2.582,147.664-60.334,285.045-166.915,387.776c-73.197,80.898-169.496,132.264-276.032,155.364
		c-179.778,41.084-365.945-6.432-500.745-132.264C157.069,817.041,96.69,714.31,73.589,598.761
		C32.506,421.563,80.022,232.817,208.39,98.016C289.288,8.149,394.555-56.08,513.955-79.181c25.683-2.582,53.948-6.432,83.479-6.432
		h567.511c25.683,0,25.683,0,25.683,25.683C1190.628,123.699,1194.478,303.432,1190.628,483.212z M985.212,252.067h55.215v-254.2
		h-55.215V252.067z M869.662,252.067h55.217v-254.2h-55.217V252.067z M751.532,252.067h53.946v-254.2h-53.946V252.067z
		 M443.385,412.595c15.4-10.281,34.65-12.818,51.365-12.818c15.401,2.582,32.115,6.432,44.933,15.4
		c8.969-28.264,19.251-57.797,28.265-89.867c-25.683-12.819-51.366-19.251-77.049-21.833c-28.264-3.85-57.797,0-86.016,8.969
		c-48.783,16.714-83.48,48.784-102.731,93.717c-12.818,25.683-16.714,51.366-16.714,79.584c0,29.533,10.283,55.215,23.101,77.048
		c12.819,19.251,28.265,38.502,47.516,51.365c19.251,12.819,42.352,25.683,64.185,32.115
		c-21.833,10.282-47.516,12.818-70.616,12.818c-21.833,0-44.933-6.432-66.766-12.818c-35.966-15.4-70.616-34.651-100.149-60.334
		c38.501,57.797,100.149,98.881,166.915,111.699c23.101,6.432,42.351,6.432,64.184,3.85c19.251,0,35.966-6.431,55.216-12.818
		c28.265-10.282,57.797-23.101,79.585-42.352c3.85,0,6.432-6.432,6.432-8.969c-2.582,2.582-8.968,8.969-15.401,12.819
		c-23.101,12.819-42.351,21.832-64.184,32.114c-32.115,15.401-70.616,21.832-106.582,19.251c-19.25-3.85-34.651-6.433-51.366-12.818
		c-41.083-16.715-79.584-42.353-111.699-77.049c38.501,32.115,86.016,47.516,134.799,53.948c19.251,0,38.502-2.583,57.798-6.433
		c32.114-2.582,64.184-15.4,89.866-34.651c19.251-10.282,38.502-23.101,53.948-38.501c6.432-6.433,12.819-10.283,16.714-16.714
		c0-2.583,0-8.969,0-12.819v-38.502c-23.101,23.102-55.216,35.966-87.33,35.966c-15.401-3.851-32.115-10.283-44.934-19.252
		c-12.819-10.281-21.833-23.101-25.683-38.5C392.019,463.915,407.419,427.996,443.385,412.595z M719.417,739.993h-61.647V492.18
		h-47.515v314.579c34.651,0,73.198,0,109.118,0C715.566,781.076,715.566,759.244,719.417,739.993z M796.465,710.46
		c0-83.479,0-166.915,0-246.544c32.114,0,64.184,0,92.448,0c-8.969-32.115-21.833-68.035-32.115-100.149H619.267
		c-12.818,32.115-21.833,68.034-32.114,100.149h96.299V710.46H796.465z M959.53,716.892c-25.683,0-53.948,0-83.48,0v-41.084h35.965
		l19.25-83.479h-51.365c0-12.819,0-25.684,0-38.501h89.867c-10.282-35.966-23.101-70.616-35.964-106.582h-25.684l3.851,6.432
		l8.969,32.114h-32.115h-70.616c0,25.683,0,48.783,0,70.616c0,51.365,0,102.731,0,154.096v23.102H760.41v70.616h179.778
		C944.128,778.494,953.097,748.962,959.53,716.892z M1062.26,695.06c3.85-12.819,6.432-25.684,10.282-42.353
		c0-15.4-3.851-32.114-12.819-47.516c-12.818-23.101-23.101-42.351-32.114-68.033c-10.282-12.819-12.818-25.684-12.818-41.083
		c2.582-10.283,15.4-19.252,28.264-19.252c10.283,0,16.714,2.582,23.101,8.969h2.582c-8.969-28.264-21.832-57.797-32.114-86.016
		c-19.25-10.283-38.502-12.819-57.798-12.819c-25.682,2.582-47.516,19.25-60.333,41.083h32.114l6.433,16.714l2.582,25.683
		c10.281,28.265,19.25,53.948,29.532,83.48l8.968,32.115h-44.933l-2.582,19.25l-3.851,6.433l3.851,2.581
		c2.582,6.433,2.582,10.283,6.433,16.714c2.582,8.969,0,21.833-10.283,25.684c-2.581,0-6.432,0-8.968,0l-6.433,28.265l-3.85,12.819
		h61.647l-6.432,29.531l-3.851,8.969C1014.745,742.575,1046.814,727.13,1062.26,695.06"/>
</g>
</svg>
