<?xml version="1.0" encoding="utf-8"?>
<!-- Generator: Adobe Illustrator 14.0.0, SVG Export Plug-In . SVG Version: 6.00 Build 43363)  -->
<!DOCTYPE svg PUBLIC "-//W3C//DTD SVG 1.1//EN" "http://www.w3.org/Graphics/SVG/1.1/DTD/svg11.dtd">
<svg version="1.1"
	 id="svg8" sodipodi:docname="apendice-ii.svg" inkscape:version="0.92.4 (5da689c313, 2019-01-14)" xmlns:dc="http://purl.org/dc/elements/1.1/" xmlns:cc="http://creativecommons.org/ns#" xmlns:rdf="http://www.w3.org/1999/02/22-rdf-syntax-ns#" xmlns:svg="http://www.w3.org/2000/svg" xmlns:sodipodi="http://sodipodi.sourceforge.net/DTD/sodipodi-0.dtd" xmlns:inkscape="http://www.inkscape.org/namespaces/inkscape"
	 xmlns="http://www.w3.org/2000/svg" xmlns:xlink="http://www.w3.org/1999/xlink" x="0px" y="0px" width="2267.717px"
	 height="2267.717px" viewBox="117.361 109.838 2267.717 2267.717" enable-background="new 117.361 109.838 2267.717 2267.717"
	 xml:space="preserve">
<sodipodi:namedview  id="base" inkscape:window-height="962" inkscape:document-units="mm" inkscape:window-x="-8" inkscape:window-y="-8" inkscape:pageopacity="0.0" inkscape:pageshadow="2" inkscape:current-layer="layer1" inkscape:window-width="1280" inkscape:window-maximized="1" borderopacity="1.0" bordercolor="#666666" showgrid="false" pagecolor="#ffffff" inkscape:cy="940.52369" inkscape:cx="1188.0825" inkscape:zoom="0.1400905">
	</sodipodi:namedview>
<g id="layer1" transform="translate(-58.661391,89.364361)" inkscape:groupmode="layer" inkscape:label="Capa 1">
	<path id="path3713" inkscape:connector-curvature="0" fill="none" stroke="#000000" stroke-width="0.2646" d="M2439.621,1165.591
		c-5.136,295.314-120.692,570.087-333.834,775.524c-146.374,161.781-338.973,264.499-552.112,310.723
		c-359.516,82.175-731.87-12.84-1001.506-264.499c-179.758-154.078-300.452-359.517-346.675-590.633
		c-82.176-354.379,12.84-731.869,269.637-1001.505C636.911,215.443,847.484,87.045,1086.305,40.822
		c51.359-5.135,107.854-12.84,166.918-12.84h1135.039c51.359,0,51.359,0,51.359,51.36
		C2439.621,446.56,2447.325,806.074,2439.621,1165.591z M2028.746,703.356h110.424V194.899h-110.424V703.356z M1797.63,703.356
		h110.422V194.899H1797.63V703.356z M945.066,1024.352c30.816-20.544,69.336-25.68,102.719-25.68
		c30.816,5.135,64.199,12.839,89.879,30.815c17.976-56.496,38.52-115.558,56.495-179.757
		c-51.358-25.679-102.718-38.519-154.078-43.656c-56.494-7.704-115.558,0-172.053,17.977
		c-97.583,33.383-166.918,97.582-205.438,187.46c-25.679,51.36-33.384,102.718-33.384,159.214
		c0,59.063,20.544,110.422,46.224,154.078c25.68,38.519,56.496,77.038,95.015,102.718c38.52,25.68,84.743,51.359,128.398,64.199
		c-43.655,20.543-95.014,25.68-141.237,25.68c-43.656,0-89.879-12.84-133.534-25.68c-71.903-30.815-141.239-69.335-200.302-120.694
		c77.039,115.559,200.302,197.734,333.835,223.413c46.223,12.84,84.743,12.84,128.398,7.704c38.519,0,71.903-12.84,110.422-25.68
		c56.495-20.543,115.558-46.223,159.214-84.743c7.704,0,12.839-12.84,12.839-17.976c-5.135,5.136-17.975,17.976-30.815,25.68
		c-46.223,25.68-84.743,43.656-128.398,64.199c-64.199,30.815-141.237,43.655-213.14,38.52c-38.52-7.704-69.335-12.84-102.719-25.68
		c-82.175-33.383-159.213-84.743-223.413-154.078c77.039,64.199,172.054,95.015,269.636,107.855c38.52,0,77.04-5.137,115.559-12.841
		c64.199-5.137,128.398-30.815,179.757-69.335c38.519-20.544,77.039-46.224,107.855-77.039
		c12.839-12.839,25.679-20.543,33.383-33.384c0-5.135,0-17.975,0-25.679v-77.04c-46.224,46.224-110.423,71.904-174.621,71.904
		c-30.816-7.704-64.2-20.544-89.879-38.521c-25.68-20.543-43.655-46.223-51.36-77.038
		C842.348,1127.07,873.163,1055.168,945.066,1024.352z M1497.178,1679.181h-123.263v-495.616h-95.014v629.151
		c69.334,0,146.374,0,218.277,0C1489.475,1761.357,1489.475,1717.703,1497.178,1679.181z M1651.256,1620.119
		c0-166.918,0-333.835,0-493.049c64.199,0,128.398,0,184.893,0c-17.975-64.198-43.655-136.102-64.197-200.301h-475.074
		c-25.681,64.199-43.655,136.103-64.2,200.301h192.597v493.049H1651.256z M1977.387,1632.959c-51.358,0-107.854,0-166.917,0v-82.175
		h71.902l38.52-166.917h-102.718c0-25.68,0-51.359,0-77.039h179.757c-20.544-71.904-46.224-141.237-71.902-213.142h-51.36
		l7.704,12.84l17.976,64.199h-64.199h-141.237c0,51.359,0,97.582,0,141.238c0,102.719,0,205.437,0,308.155v46.224h-115.558v141.237
		h359.515C1946.573,1756.221,1964.547,1697.158,1977.387,1632.959z M2182.826,1589.303c7.704-25.68,12.839-51.36,20.544-84.743
		c0-30.815-7.705-64.199-25.681-95.015c-25.68-46.224-46.224-84.742-64.199-136.102c-20.543-25.68-25.68-51.359-25.68-82.175
		c5.137-20.544,30.815-38.52,56.495-38.52c20.544,0,33.384,5.136,46.225,17.976h5.135c-17.976-56.496-43.655-115.558-64.199-172.053
		c-38.519-20.543-77.038-25.68-115.558-25.68c-51.36,5.137-95.016,38.52-120.695,82.176h64.2l12.839,33.383l5.136,51.359
		c20.544,56.495,38.521,107.854,59.063,166.918l17.978,64.198h-89.88l-5.135,38.52l-7.705,12.84l7.705,5.136
		c5.135,12.84,5.135,20.544,12.839,33.384c5.136,17.976,0,43.655-20.544,51.358c-5.135,0-12.839,0-17.976,0l-12.84,56.497
		l-7.703,25.679h123.261l-12.839,59.063l-7.703,17.975C2087.81,1684.319,2152.009,1653.503,2182.826,1589.303"/>
</g>
</svg>
