<?xml version="1.0" encoding="utf-8"?>
<!-- Generator: Adobe Illustrator 18.0.0, SVG Export Plug-In . SVG Version: 6.00 Build 0)  -->
<!DOCTYPE svg PUBLIC "-//W3C//DTD SVG 1.1//EN" "http://www.w3.org/Graphics/SVG/1.1/DTD/svg11.dtd">
<svg version="1.1"
	 id="svg8" sodipodi:docname="apendice-i.svg" inkscape:version="0.92.4 (5da689c313, 2019-01-14)" xmlns:dc="http://purl.org/dc/elements/1.1/" xmlns:cc="http://creativecommons.org/ns#" xmlns:rdf="http://www.w3.org/1999/02/22-rdf-syntax-ns#" xmlns:svg="http://www.w3.org/2000/svg" xmlns:sodipodi="http://sodipodi.sourceforge.net/DTD/sodipodi-0.dtd" xmlns:inkscape="http://www.inkscape.org/namespaces/inkscape"
	 xmlns="http://www.w3.org/2000/svg" xmlns:xlink="http://www.w3.org/1999/xlink" x="0px" y="0px"
	 viewBox="684.3 676.8 1133.9 1133.9" enable-background="new 684.3 676.8 1133.9 1133.9" xml:space="preserve">
<sodipodi:namedview  inkscape:window-height="962" inkscape:document-units="mm" inkscape:pageopacity="0.0" inkscape:current-layer="layer1" inkscape:pageshadow="2" inkscape:window-maximized="1" inkscape:window-x="-8" inkscape:window-y="-8" inkscape:window-width="1280" pagecolor="#ffffff" showgrid="false" bordercolor="#666666" borderopacity="1.0" inkscape:zoom="0.1400905" inkscape:cx="1188.0825" inkscape:cy="940.52369" id="base">
	</sodipodi:namedview>
<g id="layer1" transform="translate(-58.661391,89.364361)" inkscape:label="Capa 1" inkscape:groupmode="layer">
	<path id="path3713" inkscape:connector-curvature="0" fill="none" stroke="#000000" stroke-width="0.2646" d="M1875.1,1160
		c-2.6,147.9-60.4,285.4-167.1,388.3c-73.3,81-169.7,132.4-276.4,155.6c-180,41.1-366.4-6.4-501.4-132.4
		c-90-77.1-150.4-180-173.6-295.7c-41.1-177.4,6.4-366.4,135-501.4c81-90,186.4-154.3,306-177.4c25.7-2.6,54-6.4,83.6-6.4h568.3
		c25.7,0,25.7,0,25.7,25.7C1875.1,800,1878.9,980,1875.1,1160z M1669.4,928.5h55.3V674h-55.3V928.5z M1126.8,1089.3
		c15.4-10.3,34.7-12.9,51.4-12.9c15.4,2.6,32.1,6.4,45,15.4c9-28.3,19.3-57.9,28.3-90c-25.7-12.9-51.4-19.3-77.1-21.9
		c-28.3-3.9-57.9,0-86.1,9c-48.9,16.7-83.6,48.9-102.9,93.9c-12.9,25.7-16.7,51.4-16.7,79.7c0,29.6,10.3,55.3,23.1,77.1
		c12.9,19.3,28.3,38.6,47.6,51.4c19.3,12.9,42.4,25.7,64.3,32.1c-21.9,10.3-47.6,12.9-70.7,12.9c-21.9,0-45-6.4-66.9-12.9
		c-36-15.4-70.7-34.7-100.3-60.4c38.6,57.9,100.3,99,167.1,111.9c23.1,6.4,42.4,6.4,64.3,3.9c19.3,0,36-6.4,55.3-12.9
		c28.3-10.3,57.9-23.1,79.7-42.4c3.9,0,6.4-6.4,6.4-9c-2.6,2.6-9,9-15.4,12.9c-23.1,12.9-42.4,21.9-64.3,32.1
		c-32.1,15.4-70.7,21.9-106.7,19.3c-19.3-3.9-34.7-6.4-51.4-12.9c-41.1-16.7-79.7-42.4-111.9-77.1c38.6,32.1,86.1,47.6,135,54
		c19.3,0,38.6-2.6,57.9-6.4c32.1-2.6,64.3-15.4,90-34.7c19.3-10.3,38.6-23.1,54-38.6c6.4-6.4,12.9-10.3,16.7-16.7c0-2.6,0-9,0-12.9
		v-38.6c-23.1,23.1-55.3,36-87.4,36c-15.4-3.9-32.1-10.3-45-19.3c-12.9-10.3-21.9-23.1-25.7-38.6
		C1075.4,1140.7,1090.8,1104.7,1126.8,1089.3z M1403.2,1417.1h-61.7V1169h-47.6v315c34.7,0,73.3,0,109.3,0
		C1399.4,1458.3,1399.4,1436.4,1403.2,1417.1z M1480.4,1387.5c0-83.6,0-167.1,0-246.9c32.1,0,64.3,0,92.6,0
		c-9-32.1-21.9-68.1-32.1-100.3h-237.9c-12.9,32.1-21.9,68.1-32.1,100.3h96.4v246.9H1480.4z M1643.7,1394c-25.7,0-54,0-83.6,0v-41.1
		h36l19.3-83.6h-51.4c0-12.9,0-25.7,0-38.6h90c-10.3-36-23.1-70.7-36-106.7h-25.7l3.9,6.4l9,32.1h-32.1h-70.7c0,25.7,0,48.9,0,70.7
		c0,51.4,0,102.9,0,154.3v23.1h-57.9v70.7h180C1628.2,1455.7,1637.2,1426.1,1643.7,1394z M1746.5,1372.1
		c3.9-12.9,6.4-25.7,10.3-42.4c0-15.4-3.9-32.1-12.9-47.6c-12.9-23.1-23.1-42.4-32.1-68.1c-10.3-12.9-12.9-25.7-12.9-41.1
		c2.6-10.3,15.4-19.3,28.3-19.3c10.3,0,16.7,2.6,23.1,9h2.6c-9-28.3-21.9-57.9-32.1-86.1c-19.3-10.3-38.6-12.9-57.9-12.9
		c-25.7,2.6-47.6,19.3-60.4,41.1h32.1l6.4,16.7l2.6,25.7c10.3,28.3,19.3,54,29.6,83.6l9,32.1h-45l-2.6,19.3l-3.9,6.4l3.9,2.6
		c2.6,6.4,2.6,10.3,6.4,16.7c2.6,9,0,21.9-10.3,25.7c-2.6,0-6.4,0-9,0l-6.4,28.3l-3.9,12.9h61.7l-6.4,29.6l-3.9,9
		C1698.9,1419.7,1731.1,1404.3,1746.5,1372.1"/>
</g>
</svg>
