<?xml version="1.0" encoding="utf-8"?>
<!-- Generator: Adobe Illustrator 14.0.0, SVG Export Plug-In . SVG Version: 6.00 Build 43363)  -->
<!DOCTYPE svg PUBLIC "-//W3C//DTD SVG 1.1//EN" "http://www.w3.org/Graphics/SVG/1.1/DTD/svg11.dtd">
<svg version="1.1"
	 id="svg8" sodipodi:docname="apendice-i.svg" inkscape:version="0.92.4 (5da689c313, 2019-01-14)" xmlns:dc="http://purl.org/dc/elements/1.1/" xmlns:cc="http://creativecommons.org/ns#" xmlns:rdf="http://www.w3.org/1999/02/22-rdf-syntax-ns#" xmlns:svg="http://www.w3.org/2000/svg" xmlns:sodipodi="http://sodipodi.sourceforge.net/DTD/sodipodi-0.dtd" xmlns:inkscape="http://www.inkscape.org/namespaces/inkscape"
	 xmlns="http://www.w3.org/2000/svg" xmlns:xlink="http://www.w3.org/1999/xlink" x="0px" y="0px" width="2267.717px"
	 height="2267.717px" viewBox="117.361 109.838 2267.717 2267.717" enable-background="new 117.361 109.838 2267.717 2267.717"
	 xml:space="preserve">
<sodipodi:namedview  id="base" inkscape:window-height="962" inkscape:document-units="mm" inkscape:window-x="-8" inkscape:window-y="-8" inkscape:pageopacity="0.0" inkscape:pageshadow="2" inkscape:current-layer="layer1" inkscape:window-width="1280" inkscape:window-maximized="1" borderopacity="1.0" bordercolor="#666666" showgrid="false" pagecolor="#ffffff" inkscape:cy="940.52369" inkscape:cx="1188.0825" inkscape:zoom="0.1400905">
	</sodipodi:namedview>
<g id="layer1" transform="translate(-58.661391,89.364361)" inkscape:groupmode="layer" inkscape:label="Capa 1">
	<path id="path3713" inkscape:connector-curvature="0" fill="none" stroke="#000000" stroke-width="0.2646" d="M2437.318,1165.566
		c-5.126,294.714-120.448,568.926-333.154,773.944c-146.076,161.45-338.28,263.96-550.987,310.089
		c-358.781,82.008-730.376-12.813-999.463-263.96c-179.391-153.764-299.84-358.782-345.969-589.428
		c-82.007-353.657,12.814-730.377,269.087-999.463C638.283,217.357,848.427,89.221,1086.761,43.092
		c51.254-5.125,107.634-12.814,166.577-12.814h1132.724c51.256,0,51.256,0,51.256,51.256
		C2437.318,448.003,2445.006,806.784,2437.318,1165.566z M2027.281,704.275h110.197v-507.42h-110.197V704.275z M945.81,1024.616
		c30.753-20.502,69.194-25.627,102.509-25.627c30.753,5.125,64.068,12.813,89.696,30.753c17.939-56.38,38.441-115.322,56.38-179.391
		c-51.254-25.628-102.509-38.441-153.764-43.567c-56.379-7.688-115.322,0-171.703,17.939
		c-97.384,33.316-166.577,97.384-205.018,187.079c-25.627,51.255-33.315,102.509-33.315,158.889
		c0,58.943,20.502,110.197,46.129,153.764c25.627,38.441,56.38,76.882,94.82,102.51c38.442,25.627,84.571,51.255,128.137,64.067
		c-43.566,20.502-94.821,25.628-140.95,25.628c-43.566,0-89.695-12.814-133.261-25.628
		c-71.756-30.752-140.95-69.192-199.893-120.447c76.882,115.323,199.893,197.33,333.154,222.957
		c46.129,12.813,84.57,12.813,128.137,7.688c38.441,0,71.756-12.813,110.197-25.627c56.38-20.501,115.322-46.129,158.889-84.57
		c7.688,0,12.813-12.813,12.813-17.939c-5.125,5.127-17.938,17.939-30.752,25.629c-46.129,25.627-84.57,43.566-128.136,64.067
		c-64.068,30.753-140.95,43.566-212.706,38.44c-38.441-7.688-69.194-12.813-102.509-25.627
		c-82.008-33.314-158.89-84.57-222.958-153.763c76.882,64.068,171.704,94.82,269.087,107.634c38.44,0,76.882-5.125,115.323-12.813
		c64.068-5.126,128.136-30.752,179.391-69.194c38.441-20.501,76.881-46.129,107.635-76.881
		c12.813-12.813,25.626-20.501,33.315-33.316c0-5.124,0-17.938,0-25.626v-76.883c-46.129,46.129-110.197,71.756-174.266,71.756
		c-30.752-7.688-64.068-20.501-89.695-38.44c-25.627-20.501-43.567-46.128-51.254-76.881
		C843.301,1127.126,874.054,1055.369,945.81,1024.616z M1496.796,1678.111h-123.011v-494.605h-94.821v627.868
		c69.194,0,146.075,0,217.832,0C1489.109,1760.119,1489.109,1716.553,1496.796,1678.111z M1650.561,1619.169
		c0-166.577,0-333.154,0-492.043c64.066,0,128.136,0,184.516,0c-17.938-64.068-43.566-135.825-64.068-199.893h-474.104
		c-25.627,64.067-43.566,135.824-64.068,199.893h192.204v492.043H1650.561z M1976.027,1631.982c-51.255,0-107.635,0-166.577,0
		v-82.007h71.755l38.441-166.577h-102.508c0-25.627,0-51.254,0-76.883h179.39c-20.501-71.756-46.128-140.949-71.756-212.705h-51.255
		l7.688,12.813l17.939,64.068h-64.067h-140.95c0,51.256,0,97.384,0,140.951c0,102.509,0,205.018,0,307.526v46.13h-115.322v140.949
		h358.781C1945.275,1754.994,1963.213,1696.052,1976.027,1631.982z M2181.044,1588.417c7.688-25.628,12.813-51.255,20.502-84.571
		c0-30.753-7.688-64.067-25.628-94.82c-25.626-46.129-46.128-84.57-64.066-135.824c-20.503-25.627-25.628-51.254-25.628-82.007
		c5.125-20.503,30.752-38.441,56.38-38.441c20.501,0,33.314,5.125,46.129,17.938h5.125c-17.939-56.38-43.565-115.322-64.067-171.702
		c-38.441-20.501-76.883-25.627-115.323-25.627c-51.254,5.126-94.821,38.441-120.448,82.008h64.068l12.813,33.315l5.126,51.254
		c20.501,56.379,38.44,107.635,58.942,166.576l17.938,64.069h-89.694l-5.126,38.44l-7.688,12.814l7.688,5.125
		c5.126,12.813,5.126,20.501,12.813,33.315c5.126,17.939,0,43.565-20.501,51.254c-5.125,0-12.814,0-17.939,0l-12.814,56.381
		l-7.688,25.627h123.011l-12.813,58.943l-7.688,17.938C2086.224,1683.238,2150.292,1652.485,2181.044,1588.417"/>
</g>
</svg>
