<?xml version="1.0" encoding="utf-8"?>
<!-- Generator: Adobe Illustrator 14.0.0, SVG Export Plug-In . SVG Version: 6.00 Build 43363)  -->
<!DOCTYPE svg PUBLIC "-//W3C//DTD SVG 1.1//EN" "http://www.w3.org/Graphics/SVG/1.1/DTD/svg11.dtd">
<svg version="1.1"
	 id="svg8" sodipodi:docname="arachnida.svg" inkscape:version="0.92.4 (5da689c313, 2019-01-14)" xmlns:dc="http://purl.org/dc/elements/1.1/" xmlns:cc="http://creativecommons.org/ns#" xmlns:rdf="http://www.w3.org/1999/02/22-rdf-syntax-ns#" xmlns:svg="http://www.w3.org/2000/svg" xmlns:sodipodi="http://sodipodi.sourceforge.net/DTD/sodipodi-0.dtd" xmlns:inkscape="http://www.inkscape.org/namespaces/inkscape"
	 xmlns="http://www.w3.org/2000/svg" xmlns:xlink="http://www.w3.org/1999/xlink" x="0px" y="0px" width="2267.716px"
	 height="2267.717px" viewBox="-60.352 149.904 2267.716 2267.717" enable-background="new -60.352 149.904 2267.716 2267.717"
	 xml:space="preserve">
<sodipodi:namedview  id="base" inkscape:window-height="962" inkscape:document-units="mm" inkscape:window-x="-8" inkscape:window-y="-8" inkscape:pageopacity="0.0" inkscape:pageshadow="2" inkscape:current-layer="layer1" inkscape:window-width="1280" inkscape:window-maximized="1" borderopacity="1.0" bordercolor="#666666" showgrid="false" pagecolor="#ffffff" inkscape:cy="910.22826" inkscape:cx="1087.1245" inkscape:zoom="0.1400905">
	</sodipodi:namedview>
<g id="layer1" transform="translate(-176.9732,125.64877)" inkscape:groupmode="layer" inkscape:label="Capa 1">
	<path id="path3713" inkscape:connector-curvature="0" fill="none" stroke="#000000" stroke-width="0.2646" d="M2176.115,726.258
		c-54.644,10.001-106.793,47.552-169.396,25.448c-36.651-14.355-69.217,16.371-106.558,22.279
		c-32.105,7.959-63.747-6.85-94.491,16.136c-42.811,29.128-75.605,57.349-85.641,113.81
		c-10.262,53.956-41.467,99.708-100.447,145.452c87.201-12.951,123.844,29.18,170.731,72.908
		c68.965,64.455,133.374,134.371,195.28,204.511c22.531,25.734,66.016,31.895,84.444,68.102c9.103,16.85,20.709,33.473,2.262,52.818
		c-16.169,16.617-33.247,23.213-53.963,17.518c-36.879-16.861-80.589-25.525-106.307-58.545
		c-48.248-58.756-107.657-101.35-162.738-151.908c-35.962-34.619-73.294-56.488-117.929-19.617c-2.279,2.73-4.783,2.957-7.288,3.182
		c-26.187,17.525-76.269-5.713-82.655,35.268c-1.142,15.252,46.206,36.215,70.789,56.711
		c76.479,63.771,124.718,150.305,158.612,245.709c53.685,146.637,117.161,289.863,166.065,439.461
		c23.202,61.023,55.971,116.131,76.443,174.877c13.873,41.668,11.814,74.68-31.905,93.791c-48.5,22.07-52.811-25.516-62.367-47.375
		c-42.313-104.744-84.629-209.484-119.656-317.414c-27.297-78.326-66.662-150.512-103.523-222.924
		c-24.345-45.771-20-109.289-83.058-136.402c5.672,62.613,3.832,125.904-8.026,190.105
		c-19.837,87.648-59.698,149.334-143.262,174.582c-56.468,17.74-70.824,54.391-76.302,105.387
		c-2.515,28.004,2.938,60.334-47.15,64.871c-45.08,4.086-64.201-11.857-77.621-48.516c-15.463-59.199-48.922-94.045-107.195-124.117
		c-106.306-58.543-175.489-153.277-177.269-284.416c-1.362-15.029,7.295-30.963-12.052-49.412
		c-32.348,61.008-46.712,125.436-68.815,188.037c-11.624,38.928-23.248,77.859-53.31,108.357
		c-23.229,22.305-15.043,56.912-22.793,82.865c-32.584,86.279-70.177,173.01-105.266,259.516
		c-14.809,31.643-33.029,53.492-72.638,34.355c-42.115-18.908-27.305-50.551-16.826-74.229
		c48.982-100.385,79.978-204.195,113.478-308.232c27.575-85.824,62.89-169.824,82.725-257.473
		c22.574-113.146,71.783-211.029,153.087-289.096c-81.505-7.77-105.642,4.52-183.308,94.881
		c-36.668,41.197-76.067,80.117-124.115,107.195c-16.85,9.102-28.238,22.758-39.173,41.424
		c-32.122,63.512-85.641,113.811-133.923,166.16c-20.725,22.08-52.829,30.037-79.917,9.766
		c-19.119-15.943-33.911-39.854-5.899-65.115c65.361-58.947,119.116-134.52,170.592-207.357
		c33.709-45.982,62.411-91.504,115.467-119.037c4.782-2.959,9.563-5.916,11.615-11.152c35.56-137.051,149.178-165.02,265.98-185.699
		c2.505-0.227,4.782-2.959,14.346-8.875c-93.792-31.904-145.678-102.954-190.733-182.198c-5.917-9.564-14.792-23.911-22.531-25.733
		c-87.195-14.827-160.261-68.808-247.229-81.129c-58.964-9.808-114.054-32.594-168.917-52.873
		c-31.188-9.8-58.275-30.071-51.66-68.546c6.84-35.971,33.482-48.484,67.629-33.903c76.486,35.997,157.538,38.754,241.093,41.284
		c119.072,4.363,211.494,49.015,317.563,132.833c-36.633-69.907-55.963-143.907-40.456-223.588
		c3.193-20.49-10.917-36.886-27.305-50.551c-48.712-35.988-76.698-94.054-134.292-116.612c-12.976-3.874-26.633-15.262-32.777-27.33
		c-24.337-73.546-100.598-107.038-139.056-169.205c-14.79-23.911-42.113-18.91-61.005-32.349
		c-32.096-19.817-89.009-34.862-75.563-81.531c13.221-49.173,70.135-34.128,106.104-27.288
		c69.436,13.911,128.393,51.495,173.682,105.468c20.028,25.959,42.105,46.687,71.242,61.721
		c26.407,12.757,41.198,36.668,60.772,57.62c78.974,91.322,167.513,176.727,194.338,305.598
		c28.012-25.263,25.744-50.308,23.474-75.354c-2.487-55.325,16.195-99.943,45.123-142.964
		c11.162-16.161,24.601-35.054,47.822-29.583c25.952,7.749,27.995,30.289,25.027,53.284c-1.151,43.03-4.807,86.286-5.96,129.317
		c-0.915,17.758-4.11,38.247,18.885,41.214c33.238,4.564,67.158,16.642,94.942-11.126c16.397-14.11,12.077-33.919,5.254-53.501
		c-18.885-41.215-35.265-82.657-51.644-124.097c-6.824-19.583-13.875-41.67,5.026-56.007c21.179-17.069,40.298-1.125,56.688,12.541
		c56.45,37.81,86.713,93.146,99.899,155.075c11.145,39.391,31.624,70.362,37.306,105.197
		c32.585-86.279-13.831-180.55,23.534-269.785c43.744-102.44,69.278-210.804,160.826-287.274
		c23.457-19.801,23.239-50.082,33.719-73.756c15.49-24.129,34.618-35.962,62.847-30.944c33.468,7.069,20.709,33.476,20.02,53.737
		c0.907,10.019,2.271,25.044-4.563,33.239c-47.612,87.64-66.313,187.809-121.893,271.122
		c-22.319,32.322-8.672,71.485-23.254,105.632c-18.229,49.628-26.667,95.842-1.413,151.63c18.657,38.71,3.387,93.12,2.917,143.664
		c31.422-15.473,35.758-51.216,61.947-68.739c102.7-64.855,212.906-102.615,338.803-78.669
		c41.206,8.891,87.421,17.331,131.368,0.723c14.571-6.37,32.104-7.958,47.584-4.311c25.5,2.74,40.063,24.146,47.113,46.233
		C2214.825,707.602,2190.916,722.393,2176.115,726.258z M1113.233,1062.431c2.73,2.278,0.681,7.513,0.907,10.018
		c-12.085,61.696,15.682,89.482,68.267,112.49c39.61,19.137,70.578-1.342,106.096,0.49c51.225,7.984,100.852,26.215,124.552-46.634
		c7.749-25.952,23.5-158.681,6.203-182.363c-33.685-37.35-65.09-77.431-101.731-119.562c-26.65,40.29-85.396,60.763-102.692,37.079
		c-22.759-28.238-22.759-28.238-37.114,8.413c-4.102,10.471-8.883,13.429-15.943,19.119
		C1102.115,939.712,1085.021,1001.861,1113.233,1062.431z M1533.122,1600.099c-38.458-62.166-42.759-137.529-93.512-196.057
		c-28.449-35.299-63.502-59.896-109.038-60.822c-53.273-2.748-74.688,39.59-85.177,91.041c-25.037-25.504-6.815-47.357-6.126-67.621
		c1.37-12.748-2.042-22.541-12.741-29.145c-10.245-1.596-15.027,1.361-19.355,9.328c-20.271,27.088-38.494,48.938-69.462,69.42
		c-45.316,29.355-94.733,69.182-101.13,137.938c-5.018,28.23,18.885,41.215,15.918,64.209
		c-9.591,89.244,21.581,154.598,99.883,210.629c72.839,51.477,160.033,66.303,235.638,8.953
		c9.338-8.422,18.903-14.338,36.887-10.916c50.998,5.479,109.307-75.555,89.742-124.283c-12.741-29.146-22.977-58.518,12.774-81.957
		C1527.424,1620.815,1539.33,1614.222,1533.122,1600.099z"/>
</g>
</svg>
