<?xml version="1.0" encoding="utf-8"?>
<!-- Generator: Adobe Illustrator 18.0.0, SVG Export Plug-In . SVG Version: 6.00 Build 0)  -->
<!DOCTYPE svg PUBLIC "-//W3C//DTD SVG 1.1//EN" "http://www.w3.org/Graphics/SVG/1.1/DTD/svg11.dtd">
<svg version="1.1"
	 id="svg8" sodipodi:docname="arachnida.svg" inkscape:version="0.92.4 (5da689c313, 2019-01-14)" xmlns:dc="http://purl.org/dc/elements/1.1/" xmlns:cc="http://creativecommons.org/ns#" xmlns:rdf="http://www.w3.org/1999/02/22-rdf-syntax-ns#" xmlns:svg="http://www.w3.org/2000/svg" xmlns:sodipodi="http://sodipodi.sourceforge.net/DTD/sodipodi-0.dtd" xmlns:inkscape="http://www.inkscape.org/namespaces/inkscape"
	 xmlns="http://www.w3.org/2000/svg" xmlns:xlink="http://www.w3.org/1999/xlink" x="0px" y="0px"
	 viewBox="506.6 716.8 1133.9 1133.9" enable-background="new 506.6 716.8 1133.9 1133.9" xml:space="preserve">
<sodipodi:namedview  inkscape:window-height="962" inkscape:document-units="mm" inkscape:pageopacity="0.0" inkscape:current-layer="layer1" inkscape:pageshadow="2" inkscape:window-maximized="1" inkscape:window-x="-8" inkscape:window-y="-8" inkscape:window-width="1280" pagecolor="#ffffff" showgrid="false" bordercolor="#666666" borderopacity="1.0" inkscape:zoom="0.1400905" inkscape:cx="1087.1245" inkscape:cy="910.22826" id="base">
	</sodipodi:namedview>
<g id="layer1" transform="translate(-176.9732,125.64877)" inkscape:label="Capa 1" inkscape:groupmode="layer">
	<path id="path3713" inkscape:connector-curvature="0" fill="none" stroke="#000000" stroke-width="0.2646" d="M1684.5,906.8
		c6.8,8.2,11.5,19.1,6.3,29.7c-2.4,6.9-7.4,13.3-13.4,17.4c-17.3,12.9-25.5,33-32.2,51.1c-21.9,54.8-63.8,88.2-114.3,112
		c-13.3,5.8-28.2-1.3-42,7c19.7,12.3,44.6,19.9,55,36.7c15.4,23.6,35.4,31.8,59.2,37c16.9,2.8,28.7,17.8,46.7,17.1
		c46.1-1,89.6,16.6,135.3,19.8c4.9-0.6,10.4,3.6,14,6.5c8,4.7,21.4,6.3,15.9,21.1c-5,12.2-14.4,16.7-27.6,16.7
		c-11.8-1.8-23.5-9.4-37-5.2c-52.3,16.6-100.7-0.3-151.2-8.7c-43.9-7.6-69-48.9-110.5-57.6c12.1,10.8,19.1,26.4,31.6,40.5
		c20.8,20.4,34.7,45.9,35.5,77.1c1.2,9.7,2.7,21.1-9.2,25.1c-10.2,3.8-17.1-4.4-23-11.9c-12-16.6-24.1-33.2-35.4-50.7
		c-5.9-7.5-12.5-14.1-22.1-11.2c-17.6,3.9-21.4,20.1-27.8,34.1c-4.5,9.7,4.2,13.5,11.3,17.5c17,10.2,34.7,19.5,51.6,29.7
		c9.7,4.5,17.9,10.9,14.5,22.9c-3.6,10.4-14.3,10.9-23.3,11.2c-23.8,0.6-45.8-3.2-66.6-17.9c-9.2-7.1-18.3-14.2-35-9.5
		c43.4,42.3,54.6,97.8,70.5,151c3.3,12.8,8.9,24.4,7.3,37.8c-1.4,15,1.2,28.7,6.3,42.9c9.7,30.9,9.7,63.1-2,93.5
		c-6.2,15.6-14.5,41.4-36.8,34.4c-21.4-6.3-13.2-32.1-12.9-49.5c-0.5-10.7,8.2-20,2.5-31.7c-14.6-30.3-8.7-68.2-31.2-95.8
		c-3.2-5.4-4.2-13.5-2.5-19.5c5.5-27.9-10.1-53.1-12-80.9c-1.2-9.7-4.1-19.3-12.9-23.1c-34.7-13.7-58.7-39.5-76.7-71
		c6.3,61.9,0.7,108.8-27,156.1c-19.7,33-38.7,65.2-43.6,103.7c-2.8,16.9-14.2,24.1-29.9,17.9c-16.6-7-17.7-22.5-13.8-37
		c5.7-26.3,10.5-53.3,21.3-78.6c16.7-36.8,13.9-78.5,29.7-116c1.2-3.5-2.2-10.4-4.4-15.1c-19.6-37.1-34.3-74.8-23.5-119.1
		c-4.7,2.2-6.3,2.5-7,3.4c-36.9,40.2-75.9,77.4-137.8,57.3c-2.5-0.5-4.9,0.6-7.2,1.7c-23.8,13.8-48.6,13.6-74.7,15.4
		c-41,2-83.6,4.1-122.6,14.9c-16.7,4.6-22.3-7-23.8-18.4c-1.2-15.5,9.9-26,23.6-28.6c32.3-5.8,65-14.1,97.6-10.9
		c9.9,0.4,18.1-0.7,25.8-5c22.4-11.9,47.2-17.6,72.3-21.6c54.3-7.8,65-14.1,82.2-47.6c-50.4,12.2-100.5,7.1-150-12.1
		c-38.9-14-80.2-21.1-120.4-31.6c-48.6-12.7-96.6-26.4-147.7-32.2c-11.8-1.8-27.7-3.9-24.6-24.9c2.4-20.1,15.4-21.8,31.3-19.7
		c42.2,7.8,85.2,14.7,126.7,23.4c12,3.4,23.4,15.1,37.8,11.7c19.3-4.1,37.2,1,55.2,6.1c29.8,6.9,58.3,17.3,90,19.8
		c-2.4-12.1-10.7-12.7-16.2-16.9c-50.4-33.1-70.1-83.4-66.5-139.1c2.7-30-2.5-51.6-21.6-72.3c-10.9-14.3-12.4-25.6,0.4-42.1
		c14.2-18.3,25.3-8.2,36.8-2.2c21.1,10.5,38.9,14,59.8-3.5c30.5-26.2,64.3-26.4,103.2-12.4c27.8,11.3,52.9,26.2,75.7,43.9
		c5.1-31.2-20.6-45.2-32.4-66c-19-32.2-37.2-65.3-60.9-95.3c-33.2-40.3-63.4-82.6-93.5-124.9c-6.1-9.1-23.5-22.6-3-35.9
		c18.2-12.2,31.5-4.9,44.3,10.8c17.7,22.5,31,48.8,48.9,72.9c45.9,56,85.8,116,129.4,173.1c28.6,36.7,50.3,76.9,56.1,122.3
		c1.9,14.6-1.7,38.2,4.5,41.5c17.5,7.7,20.9-17.5,34.1-23.3c0.7-0.9,1.4-1.8,3-2c25.3-8.2,26.1-28.1,21.6-50.6
		c-6-33.9-7.8-67.5-18.7-100.7c-6.4-18.1,1-37.2,3.6-55.7c2.9-9.4,9.7-14.4,20.1-16.6c12.1-2.4,15.6,6.2,19.9,13.9
		c9.5,16.1,1.1,34.5,5.5,49.6c11.9,41.4,23.1,83.6,31,126.3c5.4,29,12.6,53.6-13.9,84.3c32.3-11.6,57.8-12.4,81.3-3
		c24.4,10.1,43.4,4.3,65.3-5.1c16.5-6.2,18.6-22.2,29.6-32.7c11.5-13,31.5-18.1,35-35.8c6.9-29.8,34.4-40.7,51.8-59.4
		C1665.1,903.5,1676.8,897.9,1684.5,906.8z M1341.1,1258.5c4-1.3,6.3-2.5,11.4-1.5c17.8,3.5,17.8,3.5,12.4-12.3
		c-4.9-12.6,17.6-30.3,39.8-30.7c-7.3-24.6-15.1-46.7-21.2-69c-4.9-12.6-60.3-39.3-72.3-42.7c-34.1-8.8-39.3,14.9-48.9,36.8
		c-8.1,14.2-23.7,21.2-26.1,41.3c-4.1,26.1-0.2,43.7,26.8,54.3c0.9,0.7,3.5,1.2,3.7,2.8C1283.2,1263.4,1311.5,1272.1,1341.1,1258.5z
		 M1152.5,938.7c-17.9,8.1-26.8-3.2-35-15.3c-14.1-19.6-59.9-17.1-70.4,4.1c-3.1,7.8-7.8,10.1-13.4,11.6
		c-41,15.1-56.8,52.6-54.8,93.6c2.4,44.2,20,72.5,57,90.9c9.7,4.5,8.8,17,21,22.1c28.3,14.5,55.9,5.2,78.5-5.1
		c15.6-6.9,28.6-8.6,44.1-9.8c4.2,0.3,6.5-0.8,8.4-5.2c0.1-5.8-2.9-9.5-8.2-12.2c-8-4.7-21-3.1-24.7-19.1
		c22.6,8.7,44.3,10.8,56.4-10.5c10.9-17.9,10-37.6,3.4-57.3c-10.2-34.2-38.3-54.5-52.9-84.8C1159.3,936.6,1152.5,938.7,1152.5,938.7
		z"/>
</g>
</svg>
