<?xml version="1.0" encoding="utf-8"?>
<!-- Generator: Adobe Illustrator 18.0.0, SVG Export Plug-In . SVG Version: 6.00 Build 0)  -->
<!DOCTYPE svg PUBLIC "-//W3C//DTD SVG 1.1//EN" "http://www.w3.org/Graphics/SVG/1.1/DTD/svg11.dtd">
<svg version="1.1"
	 id="svg8" sodipodi:docname="archive.svg" inkscape:version="0.92.4 (5da689c313, 2019-01-14)" xmlns:dc="http://purl.org/dc/elements/1.1/" xmlns:cc="http://creativecommons.org/ns#" xmlns:rdf="http://www.w3.org/1999/02/22-rdf-syntax-ns#" xmlns:svg="http://www.w3.org/2000/svg" xmlns:sodipodi="http://sodipodi.sourceforge.net/DTD/sodipodi-0.dtd" xmlns:inkscape="http://www.inkscape.org/namespaces/inkscape"
	 xmlns="http://www.w3.org/2000/svg" xmlns:xlink="http://www.w3.org/1999/xlink" x="0px" y="0px"
	 viewBox="823.7 567.3 1133.9 1133.9" enable-background="new 823.7 567.3 1133.9 1133.9" xml:space="preserve">
<sodipodi:namedview  inkscape:window-height="962" inkscape:document-units="mm" inkscape:pageopacity="0.0" inkscape:current-layer="layer1" inkscape:pageshadow="2" inkscape:window-maximized="1" inkscape:window-x="-8" inkscape:window-y="-8" inkscape:window-width="1280" pagecolor="#ffffff" showgrid="false" bordercolor="#666666" borderopacity="1.0" inkscape:zoom="0.1400905" inkscape:cx="1409.8472" inkscape:cy="796.9013" id="base">
	</sodipodi:namedview>
<g id="layer1" transform="translate(0.01384209,50.132292)" inkscape:label="Capa 1" inkscape:groupmode="layer">
	<path id="path3713" inkscape:connector-curvature="0" fill="none" stroke="#000000" stroke-miterlimit="10" d="M1367.9,559.2
		l-40,39.3l547.7,556.5l40-39.3c11.7-11.5,17.6-24.2,17.8-37.9s-2.4-24.3-7.7-31.8l-478.4-486.1c-3.1-3.2-7.1-6.7-11.8-10.4
		c-4.7-3.7-14.2-5.9-28.5-6.6C1392.7,542.2,1379.7,547.6,1367.9,559.2z M1604.3,559.5c-3.1-3.2-7.1-6.7-11.8-10.4
		s-14.2-5.9-28.5-6.6c-14.3-0.6-27.3,4.8-39,16.3L1916.9,957c11.7-11.5,17.6-24.2,17.8-37.9c0.1-13.7-2.4-24.3-7.7-31.8
		L1604.3,559.5z M1249.3,518.6c-34.9-1.3-57.1,0.6-66.7,5.8c-12.7,6.2-27.1,20.4-43.2,42.5l-300,414.9
		c-9.6,13.7-13.7,28.2-12.2,43.5c1.5,15.3,4.8,26.7,10,34.2l558.7,567.7c27.3,27.7,56.3,30.6,87.2,8.6c17-10.4,86.7-58.5,209-144.3
		c122.3-85.8,193.1-134.9,212.2-147.4c17-6.2,29.5-17,37.5-32.2c8.1-15.3,12.4-24.8,12.9-28.5s0.4-14.5-0.5-32.5l0.1-15.9l0.4-47.6
		l-64,63l-657.8-668.4l64-63L1249.3,518.6z M1228.5,929.3l80-78.7l55.1,56l-64,63l204.6,207.9l64-63l53.5,54.4l-80,78.7
		c-26.7,26.2-52.6,26.6-77.7,1l-236.1-239.9c-11.5-11.7-17.5-24.2-17.9-37.4C1206.7,955.5,1228.5,929.3,1228.5,929.3z"/>
</g>
</svg>
