<?xml version="1.0" encoding="utf-8"?>
<!-- Generator: Adobe Illustrator 14.0.0, SVG Export Plug-In . SVG Version: 6.00 Build 43363)  -->
<!DOCTYPE svg PUBLIC "-//W3C//DTD SVG 1.1//EN" "http://www.w3.org/Graphics/SVG/1.1/DTD/svg11.dtd">
<svg version="1.1"
	 id="svg8" sodipodi:docname="archive.svg" inkscape:version="0.92.4 (5da689c313, 2019-01-14)" xmlns:dc="http://purl.org/dc/elements/1.1/" xmlns:cc="http://creativecommons.org/ns#" xmlns:rdf="http://www.w3.org/1999/02/22-rdf-syntax-ns#" xmlns:svg="http://www.w3.org/2000/svg" xmlns:sodipodi="http://sodipodi.sourceforge.net/DTD/sodipodi-0.dtd" xmlns:inkscape="http://www.inkscape.org/namespaces/inkscape"
	 xmlns="http://www.w3.org/2000/svg" xmlns:xlink="http://www.w3.org/1999/xlink" x="0px" y="0px" width="2267.717px"
	 height="2267.717px" viewBox="-121.294 357.41 2267.717 2267.717" enable-background="new -121.294 357.41 2267.717 2267.717"
	 xml:space="preserve">
<sodipodi:namedview  id="base" inkscape:window-height="962" inkscape:document-units="mm" inkscape:window-x="-8" inkscape:window-y="-8" inkscape:pageopacity="0.0" inkscape:pageshadow="2" inkscape:current-layer="layer1" inkscape:window-width="1280" inkscape:window-maximized="1" borderopacity="1.0" bordercolor="#666666" showgrid="false" pagecolor="#ffffff" inkscape:cy="796.9013" inkscape:cx="1409.8472" inkscape:zoom="0.1400905">
	</sodipodi:namedview>
<g id="layer1" transform="translate(0.01384209,50.132292)" inkscape:groupmode="layer" inkscape:label="Capa 1">
	<path id="path3713" inkscape:connector-curvature="0" fill="none" stroke="#000000" stroke-width="0.2646" d="M1787.438,782.771
		c-21.561-20.021-38.502-30.801-50.821-32.341c-12.319-1.541-23.101-2.311-32.34-2.311H299.762
		c-18.48,3.081-37.731,14.63-57.751,34.651c-20.02,20.02-30.03,46.971-30.03,80.852v115.503h1607.798V863.622
		C1819.779,829.741,1808.999,802.791,1787.438,782.771z M530.768,517.115c-18.48,3.08-37.731,14.629-57.751,34.65
		c-20.02,20.021-30.031,46.971-30.031,80.853h1150.408c0-33.882-10.78-60.832-32.34-80.853
		c-21.562-20.021-38.501-30.8-50.821-32.341c-12.321-1.54-23.101-2.309-32.342-2.309H530.768z M1981.482,909.824v184.804H50.276
		V909.824l-69.301,69.301l-23.101,23.101c-27.721,24.641-43.891,40.041-48.511,46.201c-4.621,6.161-12.321,26.181-23.101,60.062
		c-10.781,33.882-8.47,67.761,6.93,101.642c9.24,46.202,39.271,220.996,90.092,524.383c50.821,303.39,80.852,475.103,90.092,515.144
		c12.321,77.002,58.522,115.503,138.604,115.503H1852.12c18.48-3.079,40.041-14.631,64.682-34.65
		c24.641-20.021,40.041-46.972,46.2-80.853l175.565-1039.526c9.239-55.44,9.239-97.021,0-124.742
		c-6.16-21.56-35.421-56.981-87.783-106.263L1981.482,909.824z M1443.24,1690.623c-20.021,18.48-46.971,27.721-80.852,27.721
		H669.372c-73.922,0-110.883-38.501-110.883-115.504v-231.005h157.084v184.804h600.615v-184.804h161.704v231.005"/>
</g>
</svg>
