<?xml version="1.0" encoding="utf-8"?>
<!-- Generator: Adobe Illustrator 18.0.0, SVG Export Plug-In . SVG Version: 6.00 Build 0)  -->
<!DOCTYPE svg PUBLIC "-//W3C//DTD SVG 1.1//EN" "http://www.w3.org/Graphics/SVG/1.1/DTD/svg11.dtd">
<svg version="1.1"
	 id="svg8" sodipodi:docname="aves.svg" inkscape:version="0.92.4 (5da689c313, 2019-01-14)" xmlns:dc="http://purl.org/dc/elements/1.1/" xmlns:cc="http://creativecommons.org/ns#" xmlns:rdf="http://www.w3.org/1999/02/22-rdf-syntax-ns#" xmlns:svg="http://www.w3.org/2000/svg" xmlns:sodipodi="http://sodipodi.sourceforge.net/DTD/sodipodi-0.dtd" xmlns:inkscape="http://www.inkscape.org/namespaces/inkscape"
	 xmlns="http://www.w3.org/2000/svg" xmlns:xlink="http://www.w3.org/1999/xlink" x="0px" y="0px"
	 viewBox="835.1 375.2 1133.9 1133.9" enable-background="new 835.1 375.2 1133.9 1133.9" xml:space="preserve">
<sodipodi:namedview  inkscape:window-height="962" inkscape:document-units="mm" inkscape:pageopacity="0.0" inkscape:current-layer="layer1" inkscape:pageshadow="2" inkscape:window-maximized="1" inkscape:window-x="-8" inkscape:window-y="-8" inkscape:window-width="1280" pagecolor="#ffffff" showgrid="false" bordercolor="#666666" borderopacity="1.0" inkscape:zoom="0.1400905" inkscape:cx="1500.2029" inkscape:cy="617.86959" id="base">
	</sodipodi:namedview>
<g id="layer1" transform="translate(-54.798297,-17.530243)" inkscape:label="Capa 1" inkscape:groupmode="layer">
	<path id="path3713" inkscape:connector-curvature="0" fill="none" stroke="#000000" stroke-width="0.2646" d="M1646.9,1209.5
		c43.4,24.4,84.5,46.9,112.2,84.4c42.8,56.6,85.6,113.2,127.1,169.5c16.2,20.7,33.7,41.8,59,53.4c14.7,9.1,29.7,11.3,46.5,5.5
		c33.7-11.7,38.5-26,23.6-57.7c-36.4-77.6-90.9-144-140.8-212.2c-76.2-105.4-136.6-218.2-191.4-336.8
		c-28.3-64.4-67.5-124.4-110.6-179.7c-18.5-22.7-28.1-47.5-32.7-75.3c-13.8-101.8-80.5-164.1-165.7-208.3c-25-13-54.3-14.3-77.7-4.4
		c-69.4,25.7-131.1,1.1-192.4-19.1c-51-16.4-102.6-30-155.1-34.1c-11-1.2-22.3-1.1-33.5-1c-8.9,2.1-22.6,0.3-24.1,12.6
		c-0.2,12.6,13.1,10.1,21,12c63.3,23.5,130.5,31.1,194.8,56.2c90.3,34.2,141,110.9,130.5,208.3c-3.4,25.9-5.7,53.5-9.1,79.4
		c-16.2,121.4,41,218,104.1,313.2c31.7,44.1,33.7,47.4-12.1,74.5c-16.5,10.1-34.7,15.7-19.1,39.1c0.7,3-1.6,6.7-1.2,11
		c0.1,11.3-23,19.8-8.6,30.3c13.4,8.8,24.8-9.6,37-13.7c20.2-7.9,34-42.5,63.5-18.6c1,1.6,9.6-4.8,11.9-8.4
		c24.9-33.5,56-34.5,83.6-2.6c9.8,12.2,18.5,22.7,25.6,34.2c56.8,92.3,151.6,137.4,234.3,197.9c16.7,12.4,40.8,29.4,58.2,9.6
		c17.4-19.8-7.4-39.8-19.5-53.9c-40.1-50.3-84.1-96-129.7-140.6C1652.1,1229.1,1646.1,1224.8,1646.9,1209.5z M1278.1,938.8
		c17.1-18.5,39.6,10.8,61.1-2.3c6.6-4.1,7.4,4.6,7.4,10.2c-5.3,28.3,2.2,44.1,24.3,63.5c8.1,7.5,14.8,20.4,10.3,33.4
		c-2.9,6.3-9.5,10.4-16.5,4.5C1328.1,1018.3,1280,995.6,1278.1,938.8z M1278.1,938.8c2,56.7,50,79.4,86.5,109.2
		c7,5.9,13.6,1.8,16.5-4.5c4.5-13-2.3-25.9-10.3-33.4c-22.1-19.3-29.6-35.2-24.3-63.5c-0.1-5.6-0.8-14.3-7.4-10.2"/>
</g>
</svg>
