<?xml version="1.0" encoding="utf-8"?>
<!-- Generator: Adobe Illustrator 14.0.0, SVG Export Plug-In . SVG Version: 6.00 Build 43363)  -->
<!DOCTYPE svg PUBLIC "-//W3C//DTD SVG 1.1//EN" "http://www.w3.org/Graphics/SVG/1.1/DTD/svg11.dtd">
<svg version="1.1"
	 id="svg8" sodipodi:docname="aves.svg" inkscape:version="0.92.4 (5da689c313, 2019-01-14)" xmlns:dc="http://purl.org/dc/elements/1.1/" xmlns:cc="http://creativecommons.org/ns#" xmlns:rdf="http://www.w3.org/1999/02/22-rdf-syntax-ns#" xmlns:svg="http://www.w3.org/2000/svg" xmlns:sodipodi="http://sodipodi.sourceforge.net/DTD/sodipodi-0.dtd" xmlns:inkscape="http://www.inkscape.org/namespaces/inkscape"
	 xmlns="http://www.w3.org/2000/svg" xmlns:xlink="http://www.w3.org/1999/xlink" x="0px" y="0px" width="2267.717px"
	 height="2267.717px" viewBox="268.218 -191.72 2267.717 2267.717" enable-background="new 268.218 -191.72 2267.717 2267.717"
	 xml:space="preserve">
<sodipodi:namedview  id="base" inkscape:window-height="962" inkscape:document-units="mm" inkscape:window-x="-8" inkscape:window-y="-8" inkscape:pageopacity="0.0" inkscape:pageshadow="2" inkscape:current-layer="layer1" inkscape:window-width="1280" inkscape:window-maximized="1" borderopacity="1.0" bordercolor="#666666" showgrid="false" pagecolor="#ffffff" inkscape:cy="617.86959" inkscape:cx="1500.2029" inkscape:zoom="0.1400905">
	</sodipodi:namedview>
<g id="layer1" transform="translate(-54.798297,-17.530243)" inkscape:groupmode="layer" inkscape:label="Capa 1">
	<path id="path3713" inkscape:connector-curvature="0" fill="none" stroke="#000000" stroke-width="0.2646" d="M1851.337,1422.444
		c83.477,36.755,162.331,70.345,219.376,133.822c88.05,95.558,176.1,191.113,261.667,286.331
		c33.146,34.901,68.776,70.146,117.062,86.894c28.425,14.021,56.074,15.288,85.768,1.66c59.387-27.256,65.619-54.222,32.717-109.324
		c-80.113-134.938-191.283-246.314-294.325-361.635c-157.602-178.457-287.655-373.364-408.553-579.664
		c-62.982-112.347-145.044-214.671-233.435-307.744c-37.771-38.068-59.624-81.537-73.008-131.432
		c-43.165-182.977-175.899-284.67-338.912-350.051c-47.945-19.231-101.441-16.459-142.428,5.734
		c-121.938,59.135-238.71,25.395-354.024-0.556c-95.793-20.742-192.27-36.52-288.648-34.577
		c-20.201-0.247-40.742,1.992-61.284,4.229c-15.918,5.403-41.083,4.477-41.669,27.159c1.897,23.025,25.604,16.163,40.499,18.208
		c119.595,31.597,243.282,33.407,365.019,67.827c170.707,46.206,276.667,177.102,274.807,356.425
		c-1.512,47.849-0.882,98.521-2.394,146.371c-7.996,224.007,113.393,389.904,245.394,552.198
		c65.61,74.772,69.894,80.417-8.819,137.901c-28.234,21.416-60.41,34.701-27.945,74.569c1.801,5.306-1.705,12.413-0.244,20.202
		c2.238,20.541-38.408,40.251-10.324,56.755c25.944,13.68,43.47-21.853,65.034-31.538c35.34-17.911,54.474-83.574,112.445-45.263
		c2.142,2.823,16.6-10.367,20.105-17.476c39.334-65.416,95.993-72.813,151.921-19.605c19.956,20.444,37.77,38.067,52.761,57.83
		c119.93,158.108,300.66,223.395,462.066,318.907c32.709,19.667,79.631,46.345,107.77,7.21
		c28.137-39.135-20.588-71.117-45.168-94.728c-81.965-84.604-170.26-159.959-261.377-233.176
		C1864.28,1457.102,1852.55,1450.431,1851.337,1422.444z M1131.049,994.729c27.796-36.652,74.133,12.709,110.837-15.132
		c11.292-8.567,14.213,7.011,15.331,17.282c-4.676,52.472,11.775,80.022,55.534,111.326c16.014,12.314,30.664,34.562,24.773,59.046
		c-4.187,12.072-15.48,20.637-29.353,11.146C1236.327,1130.59,1144.72,1097.777,1131.049,994.729z M1131.049,994.729
		c13.671,103.048,105.278,135.861,177.122,183.668c13.873,9.491,25.167,0.927,29.353-11.146
		c5.891-24.484-8.759-46.731-24.773-59.046c-43.758-31.304-60.209-58.854-55.534-111.326c-1.118-10.271-4.039-25.85-15.331-17.282"
		/>
</g>
</svg>
