<?xml version="1.0" encoding="utf-8"?>
<!-- Generator: Adobe Illustrator 14.0.0, SVG Export Plug-In . SVG Version: 6.00 Build 43363)  -->
<!DOCTYPE svg PUBLIC "-//W3C//DTD SVG 1.1//EN" "http://www.w3.org/Graphics/SVG/1.1/DTD/svg11.dtd">
<svg version="1.1"
	 id="svg8" sodipodi:docname="bdi.svg" inkscape:version="0.92.4 (5da689c313, 2019-01-14)" xmlns:dc="http://purl.org/dc/elements/1.1/" xmlns:cc="http://creativecommons.org/ns#" xmlns:rdf="http://www.w3.org/1999/02/22-rdf-syntax-ns#" xmlns:svg="http://www.w3.org/2000/svg" xmlns:sodipodi="http://sodipodi.sourceforge.net/DTD/sodipodi-0.dtd" xmlns:inkscape="http://www.inkscape.org/namespaces/inkscape"
	 xmlns="http://www.w3.org/2000/svg" xmlns:xlink="http://www.w3.org/1999/xlink" x="0px" y="0px" width="2267.717px"
	 height="2267.717px" viewBox="3260.03 283.84 2267.717 2267.717" enable-background="new 3260.03 283.84 2267.717 2267.717"
	 xml:space="preserve">
<sodipodi:namedview  id="base" inkscape:window-height="962" inkscape:document-units="mm" inkscape:window-x="-8" inkscape:window-y="-8" inkscape:pageopacity="0.0" inkscape:pageshadow="2" inkscape:current-layer="layer1" inkscape:window-width="1280" inkscape:window-maximized="1" borderopacity="1.0" bordercolor="#666666" showgrid="false" pagecolor="#ffffff" inkscape:cy="1812.8712" inkscape:cx="6046.8323" inkscape:zoom="0.083651786">
	</sodipodi:namedview>
<g id="layer1" transform="translate(0,150.13229)" inkscape:groupmode="layer" inkscape:label="Capa 1">
	<path id="path3713" inkscape:connector-curvature="0" fill="none" stroke="#000000" stroke-width="0.2646" d="M3268.335,904.015
		v429.717h72.71c71.983,0,96.705-37.082,96.705-112.701v-31.993c0-57.44-24.721-77.799-49.443-85.797
		c22.54-7.271,39.991-26.176,39.991-86.526v-19.631c0-57.441-23.995-93.069-89.434-93.069h-71.983H3268.335z M3307.598,1086.517
		V938.916h28.357c37.083,0,52.352,19.631,52.352,59.622v19.632c0,51.624-10.907,68.347-50.17,68.347H3307.598z M3307.598,1120.691
		h29.084c40.717,0,58.895,20.359,58.895,69.074v29.084c0,55.986-11.633,78.527-59.623,78.527h-28.357V1120.691z M3634.794,1278.472
		v-193.409c0-47.261-16.723-82.89-72.71-82.89c-58.168,0-76.346,37.809-76.346,82.89v8.726h40.718v-9.453
		c0-26.175,7.998-47.261,34.174-47.261c26.902,0,31.993,20.359,31.993,50.169v53.806h-15.269
		c-58.168,0-101.795,26.902-101.795,99.612v5.091c0,50.169,18.905,91.614,65.439,91.614c21.813,0,42.899-6.544,53.079-31.993
		c0,5.817,1.454,18.178,2.908,26.903h38.537c-0.728-8.726-2.182-31.266-2.182-53.806H3634.794z M3593.35,1174.496v50.171
		c0,50.896-10.18,76.345-42.172,76.345c-26.902,0-35.627-25.448-35.627-55.987v-5.089c0-49.443,21.813-65.439,61.076-65.439h17.451
		H3593.35z M3695.871,1105.422v226.856h39.991v-213.041c0-66.166,17.451-79.254,46.535-79.254c24.721,0,35.628,17.451,35.628,48.716
		v242.852h40.717v-251.576c0-60.35-28.356-79.254-63.257-79.254c-29.812,0-50.17,13.814-59.623,39.263
		c0-15.269,0-26.176-1.454-33.446h-38.537c0.727,16.723,0.727,33.446,0.727,98.885H3695.871z M4026.702,1231.21v8.726
		c0,44.353-10.179,62.53-37.81,62.53c-29.811,0-36.355-33.447-36.355-65.438v-139.604c0-40.718,11.634-61.077,38.537-61.077
		c30.538,0,35.628,27.629,35.628,58.895v10.179h39.991v-13.087c0-43.626-12.361-90.888-75.619-90.888
		c-58.896,0-79.254,42.172-79.254,98.159v130.878c0,65.438,15.269,107.61,76.345,107.61c64.712,0,78.527-46.534,78.527-102.521
		v-4.363H4026.702z M4191.027,1001.447c-51.625,0-83.617,34.173-83.617,95.25v142.513c0,69.802,31.992,98.885,82.162,98.885
		c49.443,0,82.89-29.811,82.89-101.793v-138.876C4272.463,1037.074,4244.833,1001.447,4191.027,1001.447z M4190.3,1037.802
		c28.357,0,39.991,24.721,39.991,58.167v143.239c0,43.625-14.542,61.803-40.718,61.803c-29.083,0-41.444-23.994-41.444-61.076
		v-143.24C4148.128,1059.614,4161.216,1037.802,4190.3,1037.802z M4305.183,1180.313h88.706
		c-10.907,6.545-15.996,20.359-15.996,34.902c0,36.355,29.084,50.896,67.62,50.896h87.253c42.898,0,74.892-7.998,74.892-47.988
		c0-21.086-10.181-31.265-24.722-38.537c2.908,0,15.269-0.727,20.358-1.454v-42.172c-11.634,0.727-27.63,0.727-61.804,0.727
		h-236.308V1180.313z M4449.148,1222.486c-18.905,0-30.538-5.817-30.538-21.086c0-18.178,15.995-20.359,39.99-20.359h68.348
		c23.994,0,40.718,2.908,40.718,21.086c0,15.269-10.906,20.359-31.266,20.359H4449.148z M4505.136,1062.523v-83.617h-50.897
		c-44.354,0-76.346,15.269-76.346,62.531c0,54.533,46.534,63.985,76.346,63.985h73.437c44.354,0,79.254-7.998,79.254-63.985
		c0-57.441-45.807-61.804-69.074-61.804h-0.728v42.899h0.728c15.997,0,31.992,2.182,31.992,19.631
		c0,16.723-15.269,20.359-32.72,20.359h-32.719H4505.136z M4470.234,1061.796h-23.268c-21.086,0-31.266-6.544-31.266-20.359
		c0-15.996,10.907-21.086,31.266-21.086h23.268V1061.796z M4301.546,1553.317h44.354v-222.493h-44.354V1553.317z M4301.546,1301.012
		h44.354v-47.261h-44.354V1301.012z M4382.255,1553.317h44.354v-152.691c0-21.086,2.908-32.72,18.904-32.72
		c10.179,0,16.724,4.363,16.724,23.994v161.417h44.354v-151.965c0-21.813,4.362-33.446,18.904-33.446
		c13.088,0,16.723,8.726,16.723,23.268v162.144h43.627v-170.142c0-42.899-19.632-55.26-44.354-55.26
		c-22.54,0-34.174,11.634-42.172,23.994c-5.09-15.996-17.451-23.994-35.628-23.994c-17.45,0-30.538,7.998-38.537,23.268
		c0-7.999,0-13.089-1.453-20.359h-42.172c0.727,10.179,0.727,20.359,0.727,64.712V1553.317z M4738.535,1386.083
		c0-36.355-15.27-59.623-57.441-59.623c-47.988,0-61.076,29.085-61.076,61.077v2.181h42.898v-2.908
		c0-13.814,3.636-23.994,16.724-23.994s15.269,9.453,15.269,26.902v28.358h-5.089c-39.991,0-76.346,14.542-76.346,69.074v4.362
		c0,33.446,13.088,63.985,46.534,63.985c16.723,0,28.356-5.817,36.355-19.632c0,2.908,1.454,13.088,2.182,16.723h40.717
		c0-8.725-0.727-31.265-0.727-45.08V1386.083z M4689.819,1250.115l-38.537,57.44h37.082l50.897-57.44H4689.819z M4695.637,1476.971
		c0,29.812-6.545,39.99-21.086,39.99c-13.815,0-19.633-11.633-19.633-26.175v-3.636c0-27.631,13.815-35.628,33.446-35.628h7.272
		V1476.971z M4900.678,1540.955V1386.81c0-23.994,0-42.172,0.729-55.986h-38.537c-0.727,4.362-2.182,13.088-2.182,20.359
		c-2.908-12.361-13.087-23.268-36.354-23.268c-42.899,0-53.806,37.082-53.806,67.62v82.89c0,38.536,8.725,69.074,48.716,69.074
		c18.905,0,31.266-6.544,37.083-19.631v23.994c0,28.356-3.636,42.172-21.813,42.172c-17.451,0-19.632-14.542-19.632-21.086v-0.727
		h-44.354v0.727c0,24.722,8.725,58.168,61.804,58.168c62.53,0,67.62-41.445,67.62-90.161H4900.678z M4814.153,1397.717
		c0-21.086,7.999-29.812,21.813-29.812c18.177,0,20.359,15.27,20.359,34.901v64.712c0,26.902-3.636,42.172-22.541,42.172
		c-15.27,0-19.632-11.634-19.632-34.174V1397.717z M4972.661,1455.157h84.344v-50.896c0-44.354-15.997-76.346-62.53-76.346
		c-55.26,0-64.712,45.808-64.712,76.346v72.71c0,44.354,7.998,79.254,64.712,79.254s61.804-45.808,61.804-69.074v-0.728h-42.898
		v0.728c0,15.996-2.182,31.992-19.633,31.992c-16.723,0-21.086-15.269-21.086-32.72v-31.992V1455.157z M4973.389,1418.803v-22.54
		c0-21.813,6.544-31.992,21.086-31.992c15.27,0,20.358,10.906,20.358,31.992v22.54H4973.389z M5086.089,1399.171v152.691h44.354
		v-146.875c0-31.265,7.271-39.264,22.541-39.264c11.633,0,18.904,7.271,18.904,26.903v159.235h44.353v-166.507
		c0-41.444-18.178-58.167-45.079-58.167c-23.27,0-34.902,10.905-41.445,23.994c0-5.817-0.729-15.27-1.455-20.359h-42.172
		c0.729,10.179,0.729,23.268,0.729,68.348H5086.089z M5290.404,1455.157h84.344v-50.896c0-44.354-15.995-76.346-63.257-76.346
		c-54.533,0-63.985,45.808-63.985,76.346v72.71c0,44.354,7.999,79.254,63.985,79.254c57.44,0,61.804-45.808,61.804-69.074v-0.728
		h-42.898v0.728c0,15.996-2.183,31.992-19.634,31.992c-16.723,0-20.358-15.269-20.358-32.72v-31.992V1455.157z M5291.131,1418.803
		v-22.54c0-21.813,6.546-31.992,20.36-31.992c15.995,0,21.085,10.906,21.085,31.992v22.54H5291.131z M5397.289,1484.242v9.452
		c0,31.992,10.905,62.53,61.076,62.53c42.172,0,62.531-21.813,62.531-63.985c0-36.354-13.088-52.351-52.353-77.072
		c-20.358-12.36-23.994-18.178-23.994-31.266c0-11.633,3.636-19.631,14.542-19.631c10.908,0,15.271,7.271,15.271,22.539v13.089
		h42.898v-8.726c0-39.99-16.724-63.258-58.896-63.258c-38.536,0-58.896,23.268-58.896,60.35c0,31.992,15.271,47.262,45.809,67.62
		c26.902,16.724,30.539,26.902,30.539,40.718c0,15.27-5.09,22.54-17.451,22.54c-13.815,0-18.178-11.634-18.178-25.448v-10.18
		L5397.289,1484.242z"/>
</g>
</svg>
