<?xml version="1.0" encoding="utf-8"?>
<!-- Generator: Adobe Illustrator 18.0.0, SVG Export Plug-In . SVG Version: 6.00 Build 0)  -->
<!DOCTYPE svg PUBLIC "-//W3C//DTD SVG 1.1//EN" "http://www.w3.org/Graphics/SVG/1.1/DTD/svg11.dtd">
<svg version="1.1"
	 id="svg8" sodipodi:docname="bdi.svg" inkscape:version="0.92.4 (5da689c313, 2019-01-14)" xmlns:dc="http://purl.org/dc/elements/1.1/" xmlns:cc="http://creativecommons.org/ns#" xmlns:rdf="http://www.w3.org/1999/02/22-rdf-syntax-ns#" xmlns:svg="http://www.w3.org/2000/svg" xmlns:sodipodi="http://sodipodi.sourceforge.net/DTD/sodipodi-0.dtd" xmlns:inkscape="http://www.inkscape.org/namespaces/inkscape"
	 xmlns="http://www.w3.org/2000/svg" xmlns:xlink="http://www.w3.org/1999/xlink" x="0px" y="0px"
	 viewBox="3827 850.8 1133.9 1133.9" enable-background="new 3827 850.8 1133.9 1133.9" xml:space="preserve">
<sodipodi:namedview  inkscape:window-height="962" inkscape:document-units="mm" inkscape:pageopacity="0.0" inkscape:current-layer="layer1" inkscape:pageshadow="2" inkscape:window-maximized="1" inkscape:window-x="-8" inkscape:window-y="-8" inkscape:window-width="1280" pagecolor="#ffffff" showgrid="false" bordercolor="#666666" borderopacity="1.0" inkscape:zoom="0.083651786" inkscape:cx="6046.8323" inkscape:cy="1812.8712" id="base">
	</sodipodi:namedview>
<g id="layer1" transform="translate(0,150.13229)" inkscape:label="Capa 1" inkscape:groupmode="layer">
	<path id="path3713" inkscape:connector-curvature="0" fill="none" stroke="#000000" stroke-width="0.2646" d="M3983.2,701.2
		l-155.5,218.4l37,26.3c36.6,26,62.6,16.1,89.9-22.3l11.6-16.3c20.8-29.2,15.6-48.5,5.9-61.5c14.1,4.5,29.8,1.2,51.6-29.5l7.1-10
		c20.8-29.2,21.5-56-11.8-79.7L3983.2,701.2L3983.2,701.2z M3937.1,808.1l53.4-75l14.4,10.3c18.9,13.4,19.5,28.9,5,49.3l-7.1,10
		c-18.7,26.2-30.3,30.8-50.2,16.6L3937.1,808.1z M3924.7,825.5l14.8,10.5c20.7,14.7,22.6,31.7,4.9,56.4l-10.5,14.8
		c-20.3,28.5-34.3,35.7-58.7,18.3l-14.4-10.3L3924.7,825.5z M4034,1024.1l70-98.3c17.1-24,21.5-48.2-7-68.4
		c-29.6-21-52.5-8.4-68.8,14.5l-3.2,4.4l20.7,14.7l3.4-4.8c9.5-13.3,21.2-21.1,34.5-11.7c13.7,9.7,8.9,21.9-1.9,37.1l-19.5,27.4
		l-7.8-5.5c-29.6-21-61.5-23.2-87.8,13.8l-1.8,2.6c-18.2,25.5-23.5,53.4,0.1,70.2c11.1,7.9,24.2,12.2,38.6,2.9
		c-2.1,3-5.8,9.8-8.3,14.7l19.6,13.9c2.8-4.7,10.2-16.7,18.4-28.1L4034,1024.1z M4050.5,956.3l-18.2,25.5
		c-18.4,25.9-32.8,35.1-49.1,23.5c-13.7-9.7-8.9-25.8,2.1-41.4l1.8-2.6c17.9-25.1,34.8-25.4,54.7-11.2l8.9,6.3L4050.5,956.3z
		 M4127.6,958.2l-82.1,115.3l20.3,14.5l77.1-108.3c23.9-33.6,37.5-34,52.3-23.4c12.6,8.9,11.8,21.8,0.5,37.7l-87.9,123.5l20.7,14.7
		l91-127.9c21.8-30.7,14.3-50.5-3.5-63.2c-15.2-10.8-30.5-11.1-44.5-1.6c5.5-7.8,9.5-13.3,11.4-17.5l-19.6-13.9
		c-5.7,8.8-11.7,17.3-35.4,50.5L4127.6,958.2z M4250.3,1141.9l-3.2,4.4c-16,22.5-27.8,28.1-41.8,18.1c-15.2-10.8-6.4-30.2,5.2-46.4
		l50.5-71c14.7-20.7,28-26.8,41.7-17.1c15.5,11.1,8.1,26.9-3.2,42.8l-3.7,5.2l20.3,14.5l4.7-6.7c15.8-22.2,26.6-50.7-5.6-73.6
		c-29.9-21.3-55.5-7.2-75.8,21.2l-47.4,66.5c-23.7,33.3-31.2,60.2-0.1,82.3c32.9,23.4,56.8,4.8,77-23.7l1.6-2.2L4250.3,1141.9z
		 M4417,1084.6c-26.2-18.7-54.9-12.9-77,18.2l-51.6,72.4c-25.3,35.5-19.5,61.8,6,80c25.1,17.9,52.9,14.8,79-21.8l50.3-70.6
		C4445.5,1132.1,4444.3,1104,4417,1084.6z M4403.4,1102.8c14.4,10.3,11.4,27-0.7,44l-51.8,72.8c-15.8,22.2-29.8,26.2-43.1,16.7
		c-14.8-10.5-12.4-27.2,1-46l51.8-72.8C4374.1,1098.6,4388.7,1092.3,4403.4,1102.8z M4410.3,1216.8l45.1,32.1
		c-7.9-0.6-15.5,4.6-20.8,12c-13.2,18.5-3.6,36.4,16,50.3l44.4,31.6c21.8,15.5,41,23,55.4,2.7c7.6-10.7,6.1-19.6,1.4-28.5
		c1.5,1.1,8,5.2,10.9,6.6l15.3-21.4c-6.2-3.8-14.3-9.6-31.7-22l-120.1-85.5L4410.3,1216.8z M4468.2,1290.3
		c-9.6-6.8-13.4-14-7.9-21.8c6.6-9.2,15.5-4.6,27.7,4.1l34.7,24.7c12.2,8.7,19.6,16.2,13.1,25.5c-5.5,7.8-12.9,6.4-23.3-1
		L4468.2,1290.3z M4554.5,1229.3l30.3-42.5l-25.9-18.4c-22.5-16-44.3-19.9-61.4,4.2c-19.7,27.7,0.5,49.4,15.7,60.2l37.3,26.6
		c22.5,16,43.2,24.6,63.4-3.8c20.8-29.2-0.9-48-12.8-56.4l-0.4-0.3l-15.5,21.8l0.4,0.3c8.1,5.8,15.5,12.7,9.2,21.6
		c-6.1,8.5-15.1,4.8-24-1.5l-16.6-11.8L4554.5,1229.3z M4537.1,1216.3l-11.8-8.4c-10.7-7.6-13.5-14.6-8.5-21.7
		c5.8-8.1,13.2-6.8,23.5,0.6l11.8,8.4L4537.1,1216.3z M4273.5,1405.1l22.5,16l80.5-113.1l-22.5-16L4273.5,1405.1z M4364.7,1276.8
		l22.5,16l17.1-24l-22.5-16L4364.7,1276.8z M4314.5,1434.3l22.5,16l55.3-77.6c7.6-10.7,13.3-15.6,21.4-9.8c5.2,3.7,6.9,8.3-0.2,18.2
		l-58.4,82.1l22.5,16l55-77.2c7.9-11.1,14.3-15.4,21.7-10.2c6.7,4.7,5.3,10.5,0.1,17.9l-58.7,82.4l22.2,15.8l61.6-86.5
		c15.5-21.8,10-35.2-2.6-44.1c-11.5-8.2-21.6-6.5-30.1-3.1c3.2-10-0.2-18.5-9.4-25.1c-8.9-6.3-18.4-7-28-2.1
		c2.9-4.1,4.7-6.7,6.6-10.9l-21.4-15.3c-3.3,5.4-7,10.6-23,33.2L4314.5,1434.3z M4556.1,1478.2c13.2-18.5,13.8-35.8-7.6-51.1
		c-24.4-17.4-41.6-7.3-53.1,8.9l-0.8,1.1l21.8,15.5l1.1-1.5c5-7,10.5-10.9,17.2-6.1c6.7,4.7,4.3,10.3-2,19.2l-10.3,14.4l-2.6-1.8
		c-20.3-14.5-44.1-20.2-63.8,7.5l-1.6,2.2c-12.1,17-16.5,37.3,0.5,49.4c8.5,6.1,16.5,7.3,25.6,3.2c-1.1,1.5-4,7.2-4.9,9.3l20.7,14.7
		c3.2-4.4,10.9-16.2,15.9-23.2L4556.1,1478.2z M4580.5,1391.4l-40.4,15.3l18.9,13.4l46.7-10.8L4580.5,1391.4z M4501.4,1508.9
		c-10.8,15.2-17.8,18-25.2,12.7c-7-5-5.8-13-0.5-20.4l1.3-1.8c10-14,19.9-13.1,29.9-6l3.7,2.6L4501.4,1508.9z M4582.5,1615.6
		l55.8-78.4c8.7-12.2,15.3-21.4,20.6-28.2l-19.6-13.9c-1.9,2-5.8,5.9-8.5,9.6c3-7.3,1.8-16.6-10.1-25c-21.8-15.5-40.8-0.6-51.8,14.9
		l-30,42.1c-13.9,19.6-20.6,38.3-0.2,52.7c9.6,6.8,18.3,8,26,3.4l-8.7,12.2c-10.3,14.4-17.1,20.1-26.3,13.5
		c-8.9-6.3-4.7-14.5-2.3-17.8l0.3-0.4l-22.5-16l-0.3,0.4c-8.9,12.6-16.6,32.7,10.4,51.9c31.8,22.6,49.4,3.4,67-21.4L4582.5,1615.6z
		 M4590.3,1511.5c7.6-10.7,14.9-12.3,21.9-7.3c9.2,6.6,4.8,15.1-2.3,25.1l-23.4,32.9c-9.7,13.7-17.1,20.1-26.7,13.3
		c-7.8-5.5-5.8-13,2.4-24.5L4590.3,1511.5z M4650.1,1598l42.9,30.5l18.4-25.9c16-22.5,19.5-44.6-4.2-61.4
		c-28.1-20-49.5-0.1-60.5,15.4l-26.3,37c-16,22.5-24.6,43.2,4.2,63.7c28.8,20.5,48-0.9,56.4-12.8l0.3-0.4l-21.8-15.5l-0.3,0.4
		c-5.8,8.1-12.7,15.5-21.6,9.2c-8.5-6.1-5.2-15.4,1.1-24.3l11.6-16.3L4650.1,1598z M4663.6,1579.8l8.2-11.5
		c7.9-11.1,14.9-13.9,22.3-8.6c7.8,5.5,6.4,12.9-1.2,23.6l-8.2,11.5L4663.6,1579.8z M4728,1610.6l-55.3,77.6l22.5,16l53.1-74.7
		c11.3-15.9,17.9-17.3,25.7-11.8c5.9,4.2,7,10.5-0.1,20.5l-57.6,80.9l22.5,16l60.2-84.6c15-21.1,11.8-36.1-1.9-45.9
		c-11.8-8.4-21.7-7.1-29.8-2.8c2.1-3,5.2-8,6.6-10.9l-21.4-15.3c-3.3,5.4-8,12.1-24.4,35L4728,1610.6z M4811.6,1713l42.9,30.5
		l18.4-25.9c16-22.5,19.5-44.6-4.5-61.7c-27.7-19.7-49.1,0.1-60.2,15.7l-26.3,37c-16,22.5-24.6,43.2,3.8,63.4
		c29.2,20.8,48-0.9,56.4-12.8l0.3-0.4l-21.8-15.5l-0.3,0.4c-5.8,8.1-12.7,15.5-21.6,9.2c-8.5-6.1-4.8-15.1,1.5-24l11.6-16.3
		L4811.6,1713z M4825.2,1694.8l8.2-11.5c7.9-11.1,14.9-13.9,21.9-8.9c8.1,5.8,6.8,13.2-0.9,23.9l-8.2,11.5L4825.2,1694.8z
		 M4855.5,1766.5l-3.4,4.8c-11.6,16.3-17.1,35.7,8.4,53.9c21.4,15.3,39.7,11.5,54.9-9.9c13.2-18.5,12.3-31.3,1.3-58.1
		c-5.9-13.7-5.6-17.9-0.9-24.6c4.2-5.9,9-8.7,14.5-4.7c5.5,3.9,5.1,9.2-0.4,17l-4.7,6.7l21.8,15.5l3.2-4.4
		c14.5-20.3,14.4-38.2-7-53.5c-19.6-13.9-38.4-9.5-51.8,9.4c-11.6,16.3-9.3,29.5-1.2,50.9c7.6,18.2,5.8,24.7,0.8,31.7
		c-5.5,7.8-10.7,9.6-17,5.1c-7-5-5-12.5,0-19.5l3.7-5.2L4855.5,1766.5z"/>
</g>
</svg>
