<?xml version="1.0" encoding="utf-8"?>
<!-- Generator: Adobe Illustrator 18.0.0, SVG Export Plug-In . SVG Version: 6.00 Build 0)  -->
<!DOCTYPE svg PUBLIC "-//W3C//DTD SVG 1.1//EN" "http://www.w3.org/Graphics/SVG/1.1/DTD/svg11.dtd">
<svg version="1.1"
	 id="svg8" sodipodi:docname="biomex.svg" inkscape:version="0.92.4 (5da689c313, 2019-01-14)" xmlns:dc="http://purl.org/dc/elements/1.1/" xmlns:cc="http://creativecommons.org/ns#" xmlns:rdf="http://www.w3.org/1999/02/22-rdf-syntax-ns#" xmlns:svg="http://www.w3.org/2000/svg" xmlns:sodipodi="http://sodipodi.sourceforge.net/DTD/sodipodi-0.dtd" xmlns:inkscape="http://www.inkscape.org/namespaces/inkscape"
	 xmlns="http://www.w3.org/2000/svg" xmlns:xlink="http://www.w3.org/1999/xlink" x="0px" y="0px"
	 viewBox="3119.9 465.3 1133.9 1133.9" enable-background="new 3119.9 465.3 1133.9 1133.9" xml:space="preserve">
<sodipodi:namedview  inkscape:window-height="962" inkscape:document-units="mm" inkscape:pageopacity="0.0" inkscape:current-layer="layer1" inkscape:pageshadow="2" inkscape:window-maximized="1" inkscape:window-x="-8" inkscape:window-y="-8" inkscape:window-width="1280" pagecolor="#ffffff" showgrid="false" bordercolor="#666666" borderopacity="1.0" inkscape:zoom="0.1400905" inkscape:cx="1232.6571" inkscape:cy="660.83799" id="base">
	</sodipodi:namedview>
<g id="layer1" transform="translate(-46.867708,14.132292)" inkscape:label="Capa 1" inkscape:groupmode="layer">
	<path id="path3713" inkscape:connector-curvature="0" fill="none" stroke="#000000" stroke-miterlimit="10" d="M3800,1148.6
		l5.4-5.9l-17.7-16.2l-5.7,6.3c-5.7,6.3-10.7,13.2-13.2,20.4c0.6,5.3-0.6,11-3.1,17.4c0.2,4.2,1.4,8.8,4.1,13.2l8.5-23.3l2.9-6.8
		l9.6,8.8C3792,1158.2,3795.6,1153.4,3800,1148.6z M3662.7,832.4l-18.8-17.2l-97.5,164.3l20.2,18.5l155-111.1l-17.7-16.2
		c-26.3,20.6-106.7,78.2-129.1,99l-0.4-0.3c20.7-27.8,71.3-110.5,87.8-136.7L3662.7,832.4z M3266,559.5l12.5,11.4
		c17.7,16.2,17,31.7-1.6,52l-11.4,12.5c-21.2,23.2-35.5,28.4-55.7,9.9l-12.1-11.1L3266,559.5z M3279.8,544.4l57.2-62.6l11.8,10.8
		c16.6,15.2,14.7,29-0.8,45.9l-7.7,8.5c-19.9,21.7-31,24.3-47.2,9.5L3279.8,544.4z M3167.6,633.1l30.9,28.3
		c30.6,27.9,55,21.9,84-9.7l12.5-13.6c22.2-24.3,20-42.6,12.7-55.3c12.2,5.1,26.7,4.1,50.2-21.7l7.7-8.5
		c22.2-24.3,26.1-48.5-1.2-73.4l-30.6-27.9L3167.6,633.1z M3260,717.6l17.3,15.8l125.9-137.7l-17.3-15.8L3260,717.6z M3408.1,555.6
		l17.7,16.2l25.6-28l-17.7-16.2L3408.1,555.6z M3448.5,661.5c12.1,11.1,7.9,26.1-4.9,40.1l-55.9,61.1c-17.2,18.8-30.2,20.4-41.6,10
		c-12.1-11.1-8.2-25.8,6.3-41.6l55.9-61.1C3422.8,654.2,3436.4,650.4,3448.5,661.5z M3463,646.4c-22.1-20.2-48.5-18-72,7.8
		l-55.2,60.4c-26.9,29.4-25.1,54.1-3.8,73.6s46.8,19.8,74.7-10.7l53.9-58.9C3483.8,693.1,3485.9,667.3,3463,646.4z M3495.7,752.6
		c14.8-16.2,28.7-21.1,40.5-10.3c16.6,15.2,4.9,30.9-9.2,46.3l-42.4,46.4c-17.8,19.5-34.6,31.2-50.1,17.1
		c-11-10.1-7.4-24.4,9.4-42.8L3495.7,752.6z M3614.1,692.6l-55.2,60.4c2.1-7.5,0.2-18.7-11.9-29.8c-21.3-19.5-45.7-12.1-68.3,12.6
		l-52.2,57.1c-23.9,26.1-34.1,49.9-11.3,70.8c14.4,13.1,27.7,11.1,38.4,6.1c-3.4,3.7-9.7,12.1-11.7,14.3l16.6,15.2
		c7-8.4,17.5-19.8,31.3-34.9l142.1-155.3L3614.1,692.6z M3484.5,923l16.9,15.5l125.9-137.7l-16.9-15.5L3484.5,923z M3632.7,761
		l17.3,15.8l25.6-28l-17.3-15.8L3632.7,761z M3763.8,1000.5l-28.6,31.3l-50.4-46.1l-20.9,22.8c-7.1,7.7-13.4,16.8-15.8,24.7
		c-1.8-0.3-3.9-0.9-5.3-0.8l2-3.6l-14.7-13.5c4.3-7.6,10.2-15.6,17.7-23.7l48.1-52.6c19.9-21.7,47.8-36,74.3-11.8
		C3796.2,951.1,3785.3,977,3763.8,1000.5z M3748.2,984.3c11.8-12.9,22.7-28.6,8-42c-14-12.8-28.1-4-41.9,11l-16.5,18l33.9,31
		L3748.2,984.3z M3694,1043.6l16.6,15.2l-1,1.1c-4.4,4.8-8.8,8.9-14.2,13.3c-0.7-0.7-1.1-1-1.8-1.7c-8.5-7.7-16.6-9.1-24.1-9.2
		c0.3-0.4,0.3-1.1,0.3-1.8c8.1-1.4,15.6-7.4,23.3-15.9L3694,1043.6z M3629.7,1057.7c1.1,1,1.5,1.3,1.5,2.8c-0.7-0.7-1.5-2.1-2.3-3.4
		C3629.6,1057,3630,1057.4,3629.7,1057.7z M3819.5,1015.7c8.8-9.6,15.8-18,18.8-22l-16.6-15.2c-10.1,11.7-22.2,25-42.7,47.5
		l-83.2,90.9l7,6.4c8.9-6,17.3-8.5,26.1-7.9l60.3-65.9c21.9-23.9,43.7-25.6,61.4-9.4l19.2-21
		C3857.3,1008.4,3839.8,1003.2,3819.5,1015.7z M3864.1,1120c-5.6-22-4.9-30.9,5.5-42.3c10.1-11,20.5-14.3,30.5-5.2
		c10.7,9.8,7.3,20.2-3.9,32.3l-7.1,7.7l16.9,15.5l6.1-6.6c17.8-19.5,25.7-42.1,1.7-64c-22.5-20.5-45.1-13.5-63.3,6.4
		c-17.5,19.1-17.4,36.8-10.5,65.4c5.7,24.8,4.4,35.1-8.7,49.5c-8.8,9.6-17.4,13.8-25.6,11.7c-2.9,6.1-5.8,12.3-8,17.7
		c1.7-0.4,3.4-2.3,5.5-3.1c5.2-2.7,11.4-5.8,18.3-9.6l3.1-1.9l12.1,11.1c4.4-3.4,9.2-7.1,13.9-12.3
		C3871.2,1169.8,3870,1150.5,3864.1,1120z M4120.2,1155.6L3966,1324.1c-11.9-4.8-23.8-2.1-35,7.2l-1.1-1c2-2.9,8.3-11.3,11.7-15
		c-4.5,2.7-9.3,4.3-14.6,4.2c2.6-4.4,4.5-10.1,4.6-16.1c12.9,4.4,26.5-6.8,41-22.7l42.1-46c14.1-15.5,25.8-31.2,9.2-46.3
		c-11.4-10.4-25.7-5.2-40.1,10.6l-52.2,57.1c-6.7,7.4-11.7,14.3-13.9,20.4l-0.7-0.7c-5.9-5.4-12.5-10-20.6-11.4
		c4.6-8,10.9-16.4,18.7-24.8l52.2-57.1c22.6-24.7,47.3-31.8,68.7-12.2c12.1,11.1,14.1,22.3,11.9,29.8l55.2-60.4L4120.2,1155.6z
		 M3896.6,1303.9c-1.1-1.7-1.9-3.8-3.1-6.2c1.1,0.3,1.8,1,2.2,1.3C3896.8,1300,3897.9,1301.1,3896.6,1303.9z M4129,1319.7
		l-75.1,82.1c-3.6-2.7-7.9-3.9-11.8-4.1l2.7-3.6l-11.8-10.8c7.3-2.8,15.5-9.5,24.9-19.8l19.5-21.3l-7.7-7.1
		c-16.6-15.2-32.2-16.6-51,4l-2.4,2.6c-11.4,12.5-17.5,26.6-5.8,37.3c0.4,0.3,0.7,0.7,1.5,1.3c-3,3.3-7.1,7.7-14.1,15.5
		c-2.2-1.3-4.4-3.3-6.6-5.4c-1.5-1.3-2.6-2.4-3.7-3.4c12.7-16.1,12.7-31.6,0.8-45.9c2.6-5.1,6.3-9.8,10.6-14.6l2-2.2
		c27.9-30.6,57.1-25.5,81.8-2.9l6.6,6.1l20.9-22.8c11.4-12.5,17-23,5.6-33.4c-11-10.1-22.1-4.7-32.5,6.7l-3.7,4l-17.3-15.8l3.4-3.7
		c17.5-19.1,40.1-28.3,64.3-6C4153.6,1278,4146.8,1299.5,4129,1319.7z M4134.8,1497.4c2.7-11.1-0.3-21.9-9.9-32
		c8.7-3.6,17.1-11.4,26.2-21.3l42.1-46c14.1-15.5,25.8-31.2,9.2-46.3c-11.4-10.4-26-5.5-40.5,10.3l-51.8,56.7
		c-11.1,12.1-17,22.3-15.6,31.1c-8.5-0.3-16.1,2.8-24,9.2c-6.8-17,3.7-35.8,22.6-56.4l52.2-57.1c22.6-24.7,47.3-31.8,68.7-12.2
		c12.1,11.1,13.7,22,11.9,29.8l55.2-60.4l17.7,16.2l-142.1,155.3C4148.3,1483.4,4141.2,1491.1,4134.8,1497.4z M3766,1320.3
		l18.8,17.2l213.5-233.4l-18.8-17.2L3766,1320.3z M3991.3,1074.8l18.8,17.2l18.5-20.2l-18.8-17.2L3991.3,1074.8z M3595.4,1041.2
		l-61.3,67l18.8,17.2l59.6-65.2c8.1-8.8,13.9-13,20.9-6.6c4.4,4,5.3,8.2-2.8,17.1l-62.6,68.5l18.8,17.2l59.3-64.8
		c8.4-9.2,15-12.7,21.6-6.6c5.2,4.7,3.6,10.1-2.4,16.7l-63,68.8l18.8,17.2l66-72.1c16.8-18.4,13.4-31.7,3.1-41.1
		c-9.9-9.1-19.8-7.9-27.5-6.2c3.5-9,2.1-17-6-24.4c-7.4-6.7-16.3-8.1-25.7-5.2c3-3.3,5.1-5.5,7.4-8.8l-18-16.5
		c-4,4.4-8.1,8.8-25.3,27.6L3595.4,1041.2z M3706.7,1161.3l8.8-9.6c8.4-9.2,15.4-10.9,21.3-5.5c7,6.4,4.5,12.9-3.6,21.7l-8.8,9.6
		L3706.7,1161.3z M3729.3,1209.7l19.9-21.7c16.8-18.4,23-38.5,2.8-57c-23.9-21.9-45.8-6.1-57.6,6.8l-29,31.7
		c-17.5,19.1-26.9,37.6-3,59.5c24.3,22.2,43.6,4.8,52.7-5.2l0.3-0.4l-18.4-16.8l-0.3,0.4c-5.7,6.3-13.2,12.2-20.6,5.5
		c-7-6.4-2.4-15.1,4-22.1l12.8-14L3729.3,1209.7z M3783.3,1162.5l-23.6,63.6l-64,30.7l19.9,18.2c19.3-10.7,34.4-19.9,40.6-23.7
		l0.4,0.3c-2.2,5.4-10.1,19.9-20,42.6l20.2,18.5l27-68.6l59.5-26.7l-19.5-17.8c-16.2,8.8-29,15.4-36.9,20.4l-0.4-0.3
		c2.9-6.1,8.7-19.8,17.4-38.2L3783.3,1162.5z M3862,1351.4l-4,4.4c-7.1,7.7-12.9,11.2-18.8,5.8c-6.3-5.7-2-12.6,4.1-19.2l37.4-40.9
		c7.4-8.1,13.3-10.8,18.8-5.8c5.9,5.4,2.6,11.9-3.7,18.9l-3.7,4l18.4,16.8l3.4-3.7c10.8-11.8,24.1-30.7,0.5-52.3
		c-21.7-19.9-41.3-8.7-55.5,6.7l-29.3,32c-18.2,19.9-27.6,38.3-5.5,58.5c21.7,19.9,39.3,9.5,55.1-7.8l1-1.1L3862,1351.4z
		 M3936.5,1397.8l-9.8,10.7c-11.8,12.9-18.4,14.9-25,8.9c-5.5-5.1-3.7-12.2,2.3-18.8l1-1.1c11.1-12.1,19.7-10.4,28.5-2.3l3.3,3
		L3936.5,1397.8z M3980.5,1387.4c14.1-15.5,17.3-31.5-1.1-48.3c-20.6-18.9-37.2-11.8-50,2.2l-1,1.1l18.4,16.8l1.3-1.5
		c5.4-5.9,10.9-9,16.4-3.9s2.6,10.5-3.8,17.5l-11.1,12.1l-2.2-2c-17.3-15.8-38.5-23.7-60-0.1l-1.3,1.5
		c-13.1,14.4-19.7,32.7-5.4,45.8c7.4,6.7,14.5,8.5,23.2,5.7c-0.6,1.4-3.3,5.8-4.6,8l16.9,15.5c3.4-3.7,12.1-13.3,17.5-19.1
		L3980.5,1387.4z M3933.5,1473.5l18.8,17.2l57.2-62.6c12.1-13.3,18.1-13.9,24.7-7.8c5.5,5.1,5.4,10.4-2.3,18.8l-62.3,68.1l18.8,17.2
		l65.3-71.4c16.2-17.7,15.2-32.1,3.4-42.9c-9.6-8.8-18.4-8.7-26.4-5.9c2.4-2.6,5.4-6.6,7-9.1l-18-16.5c-3.7,4.8-8.7,10.3-26.2,29.4
		L3933.5,1473.5z M4075.6,1525.1l-9.8,10.7c-11.8,12.9-18.4,14.9-25,8.9c-5.5-5.1-3.7-12.2,2.3-18.8l1-1.1
		c11.1-12.1,19.7-10.4,28.5-2.3l3.3,3L4075.6,1525.1z M4119.6,1514.7c14.1-15.5,17.3-31.5-1.1-48.3c-20.6-18.9-37.2-11.8-50,2.2
		l-1,1.1l18.4,16.8l1.3-1.5c5.4-5.9,10.9-9,16.4-3.9s2.6,10.5-3.8,17.5l-11.1,12.1l-2.2-2c-17.3-15.8-38.5-23.7-60-0.1l-1.3,1.5
		c-13.1,14.4-19.7,32.7-5.4,45.8c7,6.4,14.5,8.5,23.2,5.7c-0.6,1.4-3.3,5.8-4.6,8l16.9,15.5c3.4-3.7,12.1-13.3,17.5-19.1
		L4119.6,1514.7z"/>
</g>
</svg>
