<?xml version="1.0" encoding="utf-8"?>
<!-- Generator: Adobe Illustrator 14.0.0, SVG Export Plug-In . SVG Version: 6.00 Build 43363)  -->
<!DOCTYPE svg PUBLIC "-//W3C//DTD SVG 1.1//EN" "http://www.w3.org/Graphics/SVG/1.1/DTD/svg11.dtd">
<svg version="1.1"
	 id="svg8" sodipodi:docname="biomex.svg" inkscape:version="0.92.4 (5da689c313, 2019-01-14)" xmlns:dc="http://purl.org/dc/elements/1.1/" xmlns:cc="http://creativecommons.org/ns#" xmlns:rdf="http://www.w3.org/1999/02/22-rdf-syntax-ns#" xmlns:svg="http://www.w3.org/2000/svg" xmlns:sodipodi="http://sodipodi.sourceforge.net/DTD/sodipodi-0.dtd" xmlns:inkscape="http://www.inkscape.org/namespaces/inkscape"
	 xmlns="http://www.w3.org/2000/svg" xmlns:xlink="http://www.w3.org/1999/xlink" x="0px" y="0px" width="2267.717px"
	 height="2267.717px" viewBox="2552.974 -101.672 2267.717 2267.717" enable-background="new 2552.974 -101.672 2267.717 2267.717"
	 xml:space="preserve">
<sodipodi:namedview  id="base" inkscape:window-height="962" inkscape:document-units="mm" inkscape:window-x="-8" inkscape:window-y="-8" inkscape:pageopacity="0.0" inkscape:pageshadow="2" inkscape:current-layer="layer1" inkscape:window-width="1280" inkscape:window-maximized="1" borderopacity="1.0" bordercolor="#666666" showgrid="false" pagecolor="#ffffff" inkscape:cy="660.83799" inkscape:cx="1232.6571" inkscape:zoom="0.1400905">
	</sodipodi:namedview>
<g id="layer1" transform="translate(-46.867708,14.132292)" inkscape:groupmode="layer" inkscape:label="Capa 1">
	<path id="path3713" inkscape:connector-curvature="0" fill="none" stroke="#000000" stroke-width="0.2646" d="M4022.4,1069.281
		v-13.892h-41.677v14.761c0,14.761,1.736,29.521,6.946,41.677c6.947,6.078,12.157,14.761,16.497,26.049
		c5.211,5.209,12.155,9.552,20.84,12.155l-16.498-39.94l-4.342-12.155h22.574C4023.269,1090.989,4022.4,1080.569,4022.4,1069.281z
		 M3474.521,824.429h-44.282l67.725,325.602h47.755l68.593-324.734h-41.677c-9.551,57.307-45.149,225.752-49.491,278.715h-0.868
		c-6.078-59.91-38.204-225.749-47.754-278.715V824.429z M2644.453,939.909h29.521c41.677,0,59.043,20.839,59.043,68.593v29.522
		c0,54.699-12.156,78.144-59.911,78.144h-28.653V939.909z M2644.453,904.31V756.703h27.785c39.072,0,52.965,19.97,52.965,59.911
		v19.97c0,51.229-11.288,67.726-49.491,67.726H2644.453z M2604.513,1150.031h72.935c72.066,0,96.378-36.468,96.378-111.139v-32.126
		c0-57.305-24.312-78.144-48.623-85.959c21.707-7.813,39.072-26.048,39.072-86.827v-19.97c0-57.306-23.443-92.906-87.695-92.906
		h-72.066V1150.031z M2822.449,1150.031h40.809V825.296h-40.809V1150.031z M2822.449,767.99h41.677v-65.987h-41.677V767.99z
		 M2998.708,856.555c28.653,0,40.809,24.311,40.809,57.306v144.133c0,44.28-14.76,61.647-41.677,61.647
		c-28.653,0-40.809-23.443-40.809-60.78V914.73C2957.031,877.393,2970.055,856.555,2998.708,856.555z M2999.576,820.088
		c-52.096,0-83.354,33.862-83.354,94.642v142.396c0,69.462,31.258,98.983,81.618,98.983s83.354-29.521,83.354-101.587V915.597
		C3081.194,855.686,3053.409,820.088,2999.576,820.088z M3166.285,918.201c0-38.203,12.156-60.779,39.94-60.779
		c39.073,0,42.545,33.864,42.545,70.331v109.402c0,46.019-7.814,80.749-44.282,80.749c-26.048,0-38.204-22.575-38.204-65.989
		V918.201z M3247.902,702.003V844.4c-6.078-12.156-21.707-24.312-50.36-24.312c-50.36,0-72.935,38.203-72.935,96.378v134.582
		c0,61.647,14.761,104.191,68.594,104.191c33.862,0,48.623-18.233,56.437-37.335c0,8.683,1.737,26.916,1.737,32.126h39.071
		c-0.868-19.102-0.868-46.02-0.868-81.617v-366.41H3247.902z M3352.094,1150.031h39.94V825.296h-39.94V1150.031z M3352.094,767.99
		h40.809v-65.987h-40.809V767.99z M3801.859,921.676v73.802h-118.952v53.832c0,18.234,2.604,37.337,8.682,50.361
		c-2.604,1.736-6.078,3.473-7.814,5.209l-1.737-6.945h-34.731c-3.473-14.761-5.21-32.125-5.21-51.229V922.543
		c0-51.228,19.102-102.455,81.617-102.455C3785.364,820.088,3801.859,866.105,3801.859,921.676z M3762.788,919.071
		c0-30.39-4.342-63.384-39.073-63.384c-32.994,0-40.808,27.784-40.808,63.384v42.545h79.881V919.071z M3762.788,1058.862h39.071
		v2.605c0,11.288-0.867,21.707-2.604,33.862c-1.736,0-2.604,0-4.343,0c-19.97,0-32.125,7.814-41.677,16.497
		c0-0.867-0.867-1.736-1.736-2.604c8.683-11.288,11.288-27.785,11.288-47.756V1058.862z M3696.799,1152.636
		c2.604,0,3.473,0,5.209,1.736c-1.736,0-4.342-0.869-6.946-1.736C3695.93,1151.767,3696.799,1151.767,3696.799,1152.636z
		 M3891.292,875.656c0-22.574-0.867-41.677-1.736-50.36h-39.071c0.867,26.917,0.867,58.174,0.867,111.14V1150.9h16.497
		c4.342-18.234,12.157-31.258,24.313-40.81V954.67c0-56.438,26.047-84.223,67.726-84.223v-49.491
		C3931.232,821.824,3902.579,835.717,3891.292,875.656z M4071.023,957.276c-32.993-21.708-42.544-33.864-42.544-60.78
		c0-26.049,9.551-42.546,32.994-42.546c25.18,0,32.993,17.365,32.993,46.019v18.232h39.942v-15.628
		c0-46.018-16.498-84.222-72.936-84.222c-52.965,0-73.804,35.598-73.804,82.484c0,45.151,20.839,67.726,63.383,96.379
		c36.468,25.179,46.887,39.94,46.887,73.802c0,22.576-6.077,38.206-19.099,45.151c3.471,11.286,6.943,22.574,10.418,32.126
		c1.736-2.604,1.736-6.946,3.473-10.419c3.472-9.552,7.813-20.84,12.155-33.864l1.737-6.076h28.652
		c1.736-9.552,3.473-19.971,3.473-32.125C4138.749,1012.843,4114.438,989.4,4071.023,957.276z M4441.776,702.003v397.668
		c-20.839,7.815-32.994,25.18-36.467,50.359h-2.606c-0.867-6.077-2.604-24.311-2.604-32.995
		c-2.605,8.685-6.945,16.498-13.894,22.576c-1.734-8.683-6.076-18.233-13.022-26.049c21.707-9.552,26.047-39.94,26.047-77.277
		V927.753c0-36.467-3.473-70.331-42.546-70.331c-26.916,0-39.071,23.443-39.071,60.779v134.584c0,17.364,1.736,32.125,6.079,42.544
		h-1.736c-13.895,0-27.786,1.736-39.943,9.551c-3.471-15.628-5.207-33.863-5.207-53.832V916.466
		c0-58.175,23.443-96.378,73.803-96.378c28.652,0,44.282,12.155,50.358,24.312V702.003H4441.776z M4328.901,1155.24
		c-3.473-0.867-6.945-2.604-11.288-4.34c1.736-0.869,3.473-0.869,4.343-0.869C4324.559,1150.031,4327.165,1150.031,4328.901,1155.24
		z M4645.82,902.573v193.625c-7.814,0.867-14.761,4.342-19.97,8.682l-0.869-7.814h-27.783c6.076-12.155,8.682-30.389,8.682-54.699
		v-50.362h-18.233c-39.073,0-60.779,16.498-60.779,65.121v6.078c0,29.521,8.684,54.701,36.467,54.701c0.867,0,1.736,0,3.474,0
		c0,7.815,0,18.234,0,36.468c-4.341,0.867-9.552,0.867-14.762,0.867c-3.473,0-6.076,0-8.682,0
		c-2.605-35.598-20.838-55.568-52.965-59.91c-2.604-9.55-3.473-19.969-3.473-31.257v-5.211c0-72.065,43.413-99.852,101.587-99.852
		h15.63v-53.832c0-29.521-5.211-49.492-32.125-49.492c-26.049,0-33.864,19.97-33.864,46.887v9.551h-40.81v-8.683
		c0-45.15,18.234-83.354,75.541-83.354C4628.456,820.088,4644.951,855.686,4645.82,902.573z M4862.02,1123.984
		c-9.552-17.366-26.049-27.785-50.361-29.523c6.947-14.759,8.684-34.731,8.684-58.175V927.753c0-36.467-3.473-70.331-42.546-70.331
		c-26.916,0-39.94,23.443-39.94,60.779v133.714c0,28.653,4.342,48.625,16.498,58.175c-11.289,9.552-17.365,22.575-19.971,39.94
		c-28.652-13.892-37.335-50.359-37.335-98.982V916.466c0-58.175,23.443-96.378,73.803-96.378c28.652,0,43.413,12.155,50.358,24.312
		V702.003h41.678v366.41C4862.887,1090.119,4862.887,1108.354,4862.02,1123.984z M4180.425,1329.762h44.282V779.279h-44.282
		V1329.762z M4181.294,749.757h44.28v-47.754h-44.28V749.757z M3633.415,1171.737v158.025h44.282v-153.683
		c0-20.84,2.604-32.995,19.103-32.995c10.419,0,16.497,4.343,16.497,25.18v161.498h44.281v-152.815
		c0-21.707,4.342-33.862,19.972-33.862c12.155,0,16.497,8.683,16.497,24.313v162.365h44.281v-170.181
		c0-43.413-19.971-56.438-44.281-56.438c-23.442,0-34.73,13.024-42.546,24.311c-6.078-15.628-17.366-24.311-36.467-24.311
		c-17.366,0-30.389,8.683-39.073,23.443c0-7.814,0-13.024-0.868-19.97h-42.545c0,10.418,0,20.837,0,65.119H3633.415z
		 M3917.34,1195.182v-22.576c0-21.706,6.945-32.127,20.839-32.127c16.495,0,20.838,11.288,20.838,32.127v22.576H3917.34z
		 M4003.297,1230.781v-51.229c0-43.413-15.628-76.408-63.382-76.408c-56.439,0-65.989,46.02-65.989,76.408v74.672
		c0,45.149,9.55,79.88,65.989,79.88c57.306,0,61.646-45.149,61.646-68.593v-0.867h-43.414v0.867
		c0,14.761-2.604,31.259-19.968,31.259c-16.499,0-20.839-16.498-20.839-32.995v-32.994H4003.297z M4017.191,1106.617l44.282,109.402
		l-46.019,114.611h46.886c12.155-36.468,20.84-65.987,24.313-78.145h0.867c3.475,9.552,10.419,37.335,24.313,78.145h47.756
		l-46.02-119.821l45.149-104.192h-46.017c-10.419,30.389-19.103,53.834-23.443,69.462h-0.869
		c-3.473-11.288-12.155-35.601-22.576-69.462H4017.191z M4340.189,1256.827v10.42c0,18.234-3.474,29.522-17.366,29.522
		c-14.762,0-17.365-13.894-17.365-29.522v-96.378c0-19.103,4.34-29.521,17.365-29.521c13.893,0,17.366,12.155,17.366,28.652v9.552
		h43.413v-8.683c0-27.785-5.209-67.726-60.779-67.726c-51.229,0-63.384,37.335-63.384,73.803v75.54
		c0,46.887,9.552,81.617,61.646,81.617c51.229,0,61.647-33.861,61.647-74.671v-2.605H4340.189z M4490.399,1229.044v25.18
		c0,30.389-6.078,40.807-21.707,40.807c-13.024,0-19.103-11.285-19.103-26.916v-2.604c0-28.652,13.024-36.467,33.863-36.467h7.815
		H4490.399z M4534.681,1163.922c0-36.468-14.761-60.778-58.174-60.778c-48.623,0-61.647,28.652-61.647,61.647v2.605h43.414v-3.475
		c0-13.892,3.473-24.311,16.497-24.311s15.628,10.419,15.628,26.916v28.654h-5.209c-40.809,0-77.275,14.759-77.275,70.329v3.474
		c0,33.861,13.022,65.119,46.886,65.119c17.364,0,28.652-6.078,36.468-19.97c0.867,2.605,2.604,11.288,3.473,15.628h39.94
		c0-8.683,0-31.256,0-45.149V1163.922z M4575.489,1329.762h44.283v-147.604c0-31.258,6.945-39.073,22.575-39.073
		c13.024,0,19.101,6.946,19.101,26.916v160.631h44.283v-168.445c0-41.677-18.234-59.042-46.02-59.042
		c-22.575,0-33.861,10.419-40.808,23.443c0-6.078-0.869-14.761-1.736-19.97h-42.546c0.867,10.418,0.867,23.442,0.867,68.593
		V1329.762z M4818.606,1229.044v25.18c0,30.389-6.078,40.807-21.707,40.807c-13.023,0-19.103-11.285-19.103-26.916v-2.604
		c0-28.652,13.024-36.467,33.862-36.467h7.814H4818.606z M4862.887,1163.922c0-36.468-14.762-60.778-58.173-60.778
		c-48.624,0-61.649,28.652-61.649,61.647v2.605h43.414v-3.475c0-13.892,3.473-24.311,16.499-24.311
		c13.022,0,15.628,10.419,15.628,26.916v28.654h-5.211c-40.808,0-77.275,14.759-77.275,70.329v3.474
		c0,33.861,13.024,65.119,46.889,65.119c16.495,0,28.65-6.078,36.465-19.97c0.869,2.605,2.605,11.288,3.473,15.628h39.941
		c0-8.683,0-31.256,0-45.149V1163.922z"/>
</g>
</svg>
