<?xml version="1.0" encoding="utf-8"?>
<!-- Generator: Adobe Illustrator 14.0.0, SVG Export Plug-In . SVG Version: 6.00 Build 43363)  -->
<!DOCTYPE svg PUBLIC "-//W3C//DTD SVG 1.1//EN" "http://www.w3.org/Graphics/SVG/1.1/DTD/svg11.dtd">
<svg version="1.1"
	 id="svg8" sodipodi:docname="block.svg" inkscape:version="0.92.4 (5da689c313, 2019-01-14)" xmlns:dc="http://purl.org/dc/elements/1.1/" xmlns:cc="http://creativecommons.org/ns#" xmlns:rdf="http://www.w3.org/1999/02/22-rdf-syntax-ns#" xmlns:svg="http://www.w3.org/2000/svg" xmlns:sodipodi="http://sodipodi.sourceforge.net/DTD/sodipodi-0.dtd" xmlns:inkscape="http://www.inkscape.org/namespaces/inkscape"
	 xmlns="http://www.w3.org/2000/svg" xmlns:xlink="http://www.w3.org/1999/xlink" x="0px" y="0px" width="2267.716px"
	 height="2267.717px" viewBox="81.201 85.772 2267.716 2267.717" enable-background="new 81.201 85.772 2267.716 2267.717"
	 xml:space="preserve">
<sodipodi:namedview  id="base" inkscape:window-height="962" inkscape:document-units="mm" inkscape:window-x="-8" inkscape:window-y="-8" inkscape:pageopacity="0.0" inkscape:pageshadow="2" inkscape:current-layer="layer1" inkscape:window-width="1280" inkscape:window-maximized="1" borderopacity="1.0" bordercolor="#666666" showgrid="false" pagecolor="#ffffff" inkscape:cy="914.91663" inkscape:cx="1410.3998" inkscape:zoom="0.1400905">
	</sodipodi:namedview>
<path fill="none" stroke="#000000" stroke-width="0.2646" d="M2126.263,547.807c-66.178-89.607-145.242-169.115-234.479-235.76
	c-188.771-140.982-422.999-224.459-676.725-224.459C589.85,87.589,83.017,594.422,83.017,1219.632
	c0,253.727,83.477,487.953,224.459,676.725c66.646,89.236,146.152,168.303,235.76,234.479
	c187.918,138.783,420.284,220.838,671.823,220.838c625.21,0,1132.042-506.832,1132.042-1132.041
	C2347.101,968.091,2265.045,735.725,2126.263,547.807z M414.558,1219.632c0-442.105,358.396-800.502,800.501-800.502
	c162.006,0,312.769,48.13,438.777,130.865L545.423,1658.409C462.688,1532.399,414.558,1381.637,414.558,1219.632z
	 M1215.059,2020.132c-159.8,0-308.657-46.832-433.612-127.508L1888.051,786.018c80.677,124.955,127.51,273.813,127.51,433.613
	C2015.56,1661.735,1657.164,2020.132,1215.059,2020.132z"/>
</svg>
