<?xml version="1.0" encoding="utf-8"?>
<!-- Generator: Adobe Illustrator 18.0.0, SVG Export Plug-In . SVG Version: 6.00 Build 0)  -->
<!DOCTYPE svg PUBLIC "-//W3C//DTD SVG 1.1//EN" "http://www.w3.org/Graphics/SVG/1.1/DTD/svg11.dtd">
<svg version="1.1"
	 id="svg8" sodipodi:docname="block.svg" inkscape:version="0.92.4 (5da689c313, 2019-01-14)" xmlns:dc="http://purl.org/dc/elements/1.1/" xmlns:cc="http://creativecommons.org/ns#" xmlns:rdf="http://www.w3.org/1999/02/22-rdf-syntax-ns#" xmlns:svg="http://www.w3.org/2000/svg" xmlns:sodipodi="http://sodipodi.sourceforge.net/DTD/sodipodi-0.dtd" xmlns:inkscape="http://www.inkscape.org/namespaces/inkscape"
	 xmlns="http://www.w3.org/2000/svg" xmlns:xlink="http://www.w3.org/1999/xlink" x="0px" y="0px"
	 viewBox="648.1 652.7 1133.9 1133.9" enable-background="new 648.1 652.7 1133.9 1133.9" xml:space="preserve">
<sodipodi:namedview  inkscape:window-height="962" inkscape:document-units="mm" inkscape:pageopacity="0.0" inkscape:current-layer="layer1" inkscape:pageshadow="2" inkscape:window-maximized="1" inkscape:window-x="-8" inkscape:window-y="-8" inkscape:window-width="1280" pagecolor="#ffffff" showgrid="false" bordercolor="#666666" borderopacity="1.0" inkscape:zoom="0.1400905" inkscape:cx="1410.3998" inkscape:cy="914.91663" id="base">
	</sodipodi:namedview>
<path fill="none" stroke="#000000" stroke-width="0.2646" d="M1215.1,654.4c-312.1,0-565.2,253-565.2,565.2s253,565.2,565.2,565.2
	s565.2-253,565.2-565.2S1527.2,654.4,1215.1,654.4z M1215.1,1619.7c-220.9,0-400.1-179.1-400.1-400.1c0-81.1,24.1-156.5,65.6-219.5
	l554,554C1371.6,1595.6,1296.1,1619.7,1215.1,1619.7z M1551.2,1436.6L997.3,884c62.7-40.7,137.4-64.4,217.8-64.4
	c220.9,0,400.1,179.1,400.1,400.1C1615.1,1299.6,1591.6,1374.1,1551.2,1436.6z"/>
</svg>
