<?xml version="1.0" encoding="utf-8"?>
<!-- Generator: Adobe Illustrator 18.0.0, SVG Export Plug-In . SVG Version: 6.00 Build 0)  -->
<!DOCTYPE svg PUBLIC "-//W3C//DTD SVG 1.1//EN" "http://www.w3.org/Graphics/SVG/1.1/DTD/svg11.dtd">
<svg version="1.1"
	 id="svg8" xmlns:dc="http://purl.org/dc/elements/1.1/" xmlns:cc="http://creativecommons.org/ns#" xmlns:rdf="http://www.w3.org/1999/02/22-rdf-syntax-ns#" xmlns:svg="http://www.w3.org/2000/svg" xmlns:sodipodi="http://sodipodi.sourceforge.net/DTD/sodipodi-0.dtd" xmlns:inkscape="http://www.inkscape.org/namespaces/inkscape" inkscape:version="0.92.4 (5da689c313, 2019-01-14)" sodipodi:docname="bone.svg"
	 xmlns="http://www.w3.org/2000/svg" xmlns:xlink="http://www.w3.org/1999/xlink" x="0px" y="0px" viewBox="0 0 2267.7 2267.7"
	 enable-background="new 0 0 2267.7 2267.7" xml:space="preserve">
<sodipodi:namedview  inkscape:zoom="0.1400905" inkscape:cx="1346.4132" inkscape:cy="1110.6021" pagecolor="#ffffff" showgrid="false" bordercolor="#666666" borderopacity="1.0" id="base" inkscape:window-maximized="1" inkscape:pageopacity="0.0" inkscape:window-y="-8" inkscape:window-x="-8" inkscape:document-units="mm" inkscape:window-width="1280" inkscape:window-height="962" inkscape:current-layer="layer1" inkscape:pageshadow="2">
	</sodipodi:namedview>
<path fill="none" stroke="#000000" stroke-width="0.25" d="M1730.6,1287.3c-52.7-34.2-160.9-85.8-238.2-124.4
	c-30.6-12.9-56.7-26.5-67-32.4c-135.5-78.8-243-207.7-351.6-326.2c-53.4-72.5-99-138.4-121.9-179.3c-58.9-62.6-90.6-104.6-51.5-158
	c8.5-10.7,21-24.3,33.5-40.5c67.7-74,192.6-215.8,28.7-361.6C957,60.9,873.8-5.8,763,15.6c-73.3,11.8-139.9,58.9-200.3,137
	c-41.2,56-65.5,167.9,41.6,248.5c7.7,4.1,13.3,27.2,7,54.9c-2.6,17.3-12.9,30.6-19.9,33.9c-11.8,4.1-36.5-2.6-70-36.8
	c-8.1-6.3-65.2-57.1-125.2-32.4c-34.2,16.6-58.2,56-67.4,115.2C307.9,693,359.1,827.1,464,893.3c41.6,23.6,128.1,56,191.8,81.7
	c25.4,8.8,45.7,15.8,53.4,19.9c57.8,27.2,141.8,109.4,213.6,186.3c51.9,66.3,117.5,149.5,198.1,251.8c15.8,29.5,46.4,59.3,77,91.7
	c75.5,79.9,120.8,132.2,82.1,187.8c-8.1,13.3-20.6,26.9-33.1,43.1c-67.7,76.2-194.4,220.5,21.4,413.1c5.5,6.6,116,93.9,243.4,87.3
	c11.8-1.5,21.4-2.9,30.9-4.1c71.1-11.4,133.3-53.4,182.3-124.8c40.9-58.5,54.1-183.4-85.8-293.8c-8.1-6.3-18.8-33.9-15.5-63.3
	c0-19.5,10.3-32.8,19.5-36.5c11.8-4,42.3,9.2,86.9,54.1c10.7,8.5,86.9,73.6,149.5,53.4c42-12.5,63.3-54.1,64.1-121.9
	C1944.5,1540.6,1865.7,1379,1730.6,1287.3z"/>
</svg>
