<?xml version="1.0" encoding="utf-8"?>
<!-- Generator: Adobe Illustrator 18.0.0, SVG Export Plug-In . SVG Version: 6.00 Build 0)  -->
<!DOCTYPE svg PUBLIC "-//W3C//DTD SVG 1.1//EN" "http://www.w3.org/Graphics/SVG/1.1/DTD/svg11.dtd">
<svg version="1.1"
	 id="svg8" sodipodi:docname="bone.svg" inkscape:version="0.92.4 (5da689c313, 2019-01-14)" xmlns:dc="http://purl.org/dc/elements/1.1/" xmlns:cc="http://creativecommons.org/ns#" xmlns:rdf="http://www.w3.org/1999/02/22-rdf-syntax-ns#" xmlns:svg="http://www.w3.org/2000/svg" xmlns:sodipodi="http://sodipodi.sourceforge.net/DTD/sodipodi-0.dtd" xmlns:inkscape="http://www.inkscape.org/namespaces/inkscape"
	 xmlns="http://www.w3.org/2000/svg" xmlns:xlink="http://www.w3.org/1999/xlink" x="0px" y="0px"
	 viewBox="304.1 802.9 1133.9 1133.9" enable-background="new 304.1 802.9 1133.9 1133.9" xml:space="preserve">
<sodipodi:namedview  inkscape:window-height="962" inkscape:document-units="mm" inkscape:pageopacity="0.0" inkscape:current-layer="layer1" inkscape:pageshadow="2" inkscape:window-maximized="1" inkscape:window-x="-8" inkscape:window-y="-8" inkscape:window-width="1280" pagecolor="#ffffff" showgrid="false" bordercolor="#666666" borderopacity="1.0" inkscape:zoom="0.1400905" inkscape:cx="1346.4132" inkscape:cy="1110.6021" id="base">
	</sodipodi:namedview>
<path fill="none" stroke="#000000" stroke-miterlimit="10" d="M1231.2,1345.1c-35.8-9.1-105.5-17.2-155.7-23.8
	c-19.5-1.4-36.4-4.1-43.3-5.4c-90-18.1-174-69.1-256.7-114.3c-43.4-30.2-81-58.1-101.4-76.4c-44.4-23.6-70.1-40.8-58.5-77.8
	c2.6-7.5,7-17.5,10.9-28.8c23.7-53.9,65.9-156-52.5-206c-3.8-1.3-62.7-22.5-120.1,10.4c-38.5,20.4-66.5,59.2-85.1,113.8
	c-12.2,38.9-4.6,105.6,70,130c5,0.7,12.5,12.7,14.2,29c1.8,10.1-1.4,19.5-4.6,22.6c-5.7,4.4-20.8,5.5-45.8-7.3
	c-5.6-1.9-47-19.2-75.5,5.7c-15.8,15.6-21.7,42-15.7,76.6c18.2,91.3,71.7,155.8,142.6,172.7c27.6,5.2,81.7,6.9,121.9,9.1
	c15.7,0.1,28.3,0.2,33.3,0.9c37.2,4.1,99.2,33.8,153.6,63c41.3,27,93.4,60.7,157.5,102.2c14.4,13.3,36.9,24.2,60.1,36.3
	c57,30,92,50.4,81,88.6c-2,8.8-6.4,18.8-10.3,30.1c-23.1,55.1-66,159.2,90,225.1c4.4,2.5,82.1,30.2,151.5,2.4
	c6.3-3.1,11.4-5.6,16.4-8c37.2-19.8,63.9-54.8,77.5-103.8c11.6-40.1-4.8-111.9-103.2-146.6c-5.6-1.9-16.9-15.2-20.5-32.2
	c-3.7-10.7-0.5-20.1,4-23.9c5.7-4.4,25.2-2.9,58.4,13.6c7.5,2.6,62,24.4,93,1.3c20.9-14.9,24.8-41.9,12.6-79.7
	C1397.6,1445,1323.4,1370.3,1231.2,1345.1z"/>
</svg>
