<?xml version="1.0" encoding="utf-8"?>
<!-- Generator: Adobe Illustrator 18.0.0, SVG Export Plug-In . SVG Version: 6.00 Build 0)  -->
<!DOCTYPE svg PUBLIC "-//W3C//DTD SVG 1.1//EN" "http://www.w3.org/Graphics/SVG/1.1/DTD/svg11.dtd">
<svg version="1.1"
	 id="svg8" sodipodi:docname="bryophyta.svg" inkscape:version="0.92.4 (5da689c313, 2019-01-14)" xmlns:dc="http://purl.org/dc/elements/1.1/" xmlns:cc="http://creativecommons.org/ns#" xmlns:rdf="http://www.w3.org/1999/02/22-rdf-syntax-ns#" xmlns:svg="http://www.w3.org/2000/svg" xmlns:sodipodi="http://sodipodi.sourceforge.net/DTD/sodipodi-0.dtd" xmlns:inkscape="http://www.inkscape.org/namespaces/inkscape"
	 xmlns="http://www.w3.org/2000/svg" xmlns:xlink="http://www.w3.org/1999/xlink" x="0px" y="0px"
	 viewBox="13.4 661.5 1133.9 1133.9" enable-background="new 13.4 661.5 1133.9 1133.9" xml:space="preserve">
<sodipodi:namedview  inkscape:window-height="962" inkscape:document-units="mm" inkscape:pageopacity="0.0" inkscape:current-layer="layer1" inkscape:pageshadow="2" inkscape:window-maximized="1" inkscape:window-x="-8" inkscape:window-y="-8" inkscape:window-width="1280" pagecolor="#ffffff" showgrid="false" bordercolor="#666666" borderopacity="1.0" inkscape:zoom="0.1400905" inkscape:cx="453.02084" inkscape:cy="922.97731" id="base">
	</sodipodi:namedview>
<g id="layer1" transform="translate(-344.74648,83.270143)" inkscape:label="Capa 1" inkscape:groupmode="layer">
	<path id="path3713" inkscape:connector-curvature="0" fill="none" stroke="#000000" stroke-width="0.2646" d="M1035.1,1433.8
		c3.4,24.9,28.6,30.6,42.4,32.3c21.7,2.5,4.6,28.2,22.8,27.4c-1,3.5-1.9,9.2-4.1,9.3c-10.1,3.9-14-8.5-20.8-8.2
		c-14.8-0.5-18.6-8.3-26.9-15.9c-11.8-8.6-22.6-22.9-39.4-16.5c-18,5.3-28.5-2.2-36.9-12c-55.5-72.7-136-118.1-200.2-181.3
		c-10.7-9.8-17.9-18.6-15.3-38c5.3-34.4-19.8-61.7-52.8-63.7c-29.6-1-77.9,39.8-89.2,68.7c-9.2,24.3,0.6,39.8,12.5,52.9
		c17.9,18.6,39.9,27.8,67.7,14.1c17.9-7.6,30.5-4.7,45.7,4.8c43.4,28.8,75.9,71.8,118.1,99.5c59.7,39.5,85.3,104.4,117.5,164.4
		c11.1,18.9,48.4,13.8,68.1,23.2c25.6,12.5,47.8,26.4,50.4,59.2c0.2,4.5,46,37.8,76.5,33.1c26-4.5,51.3,3.4,77.4,1.2
		c15.8-3,37.8,6.3,58.6,12.2c-8.1-29.2,53.5-129.8,60.7-147.1c1-3.5,113.5-135.8,123.9-185.2c1.8-11.5-33.9-46.3-33.2-56.6
		c-0.8-18.2-11.9-37-20.3-49.2c-14.4-17.6-25.8-43.2-34.7-38.3c-3.3,3.6-25-25.1-28-40.9c-3.1-18.1-44.3-25.4-46.9-32.1
		c-3.9-10.1-69.8-9.5-78.5,26.2c-5,15,10.4,3,26.8,13.6c-40.8-22.1-66.2-56.3-88.2-91.7c-66-104.1-136.3-203.4-223.1-289.5
		c-15.4-14.1-20.4-25.3-9-49.7c14.6-30.2,6.6-57.2-15.8-75.5c-20.1-18.5-71.3-43.5-107.5-13.5c-27.4,22.8-65,75.6-61,114.2
		c5,37.3,43.6,85.7,78.2,71.7c42.6-15.5,70-12.2,91.4,9.7c76.5,85.4,144.3,178,208.8,274.2c23.2,36.5,49.7,69.5,83.1,104.5
		c-9.1,0.4-12.4,1.7-14.8-0.5c-27.7-10.2-34.3-55.4-74.4-35.4c-1.1,1.2-3.6-3.3-4.7-4.3c-7.7-20.1-21.3-19.5-38.9-5.1
		c-10,6.1-18.1,3.1-26.3-2.3c-74.8-44.5-138.8-103.2-196.1-166.6c-85.9-91.8-166.3-187.3-256.6-274.4c-10.8-12-13.5-23.3-7.4-39.5
		c21.6-52.1,0.8-86.5-35.6-111.1c-35.3-25.8-109.3-28.2-150.2-0.3c-42,29.1-69.9,66.8-69.9,119.1c-1.4,46.7,12.9,112.1,54.4,126.2
		c42.7,12.9,92.8-10.9,129.1-40.9c19.7-16.8,34.5-18.6,48.8-3.3c16.7,17.5,35.7,34.9,51.3,53.5c84.8,93,166.5,191.8,259.1,278.8
		c37.9,34.8,75.7,67.2,120.2,94.9c10.5,5.2,28.9,11.3,25.1,27.3c-4.6,24.1,1.8,40.9,12.5,52.9c13.1,14.2,30.8,28.2,54.7,28.3
		c23.9,0.1,34.9,16.7,57.9,22.5c-17.8,9.9-38.5,30.1-43.5,19c-9.9-17.8-34.6-9.9-42.3-30c-1.4-5.6-15.2-9.6-29.8-5.5
		c-18,5.3-21-12.7-37.5-25.7c-42.3-30-83.4-61.2-118.1-99.5c-59.8-65.7-134.7-114.7-210.5-158.1c-22.1-11.5-37.4-23.4-41-52.8
		c-6.4-43-51.8-64.9-99-53.7c-41.7,9.8-115.9,55.1-118.5,100.7c-2.2,54.7,42.1,104,91.2,107.5c34.3,3.1,64.1-17.6,86.9-42.5
		c17.3-21.2,29.7-22.9,48.4-12.4c65.4,38.1,126.5,83.2,183.4,135.3c47.3,41.2,89.2,88.3,141.8,121.2c9.4,6.4,42.3,3.8,16.3,34.6
		c-2.1,4.6,4.8,6.6,9.4,6.4c6.9,2,15.5-9.8,23.8-2.2C1032,1415.7,1000,1436.4,1035.1,1433.8z M546.8,724.7
		c-2.9,12.6-20.4,27.1-21.5,28.2c-30.4,7-28,35.4-31.9,51.5c-7,21.9-17.4,19-27.6,18.3c-58.3-5.4-88.4-43.9-69.8-114.1
		c10.8-40.3,64.5-87,104-94.4c38.4-6.2,60.1,22.4,48.2,61.6c-6,18.5-15.5,35.9-24.8,58C533.4,729.8,540.1,727.2,546.8,724.7z
		 M527.7,1016.8c1.3,3.4,2.6,6.7,9.3,4.1c32.6-9.4,43.2,0.4,28.7,32.9c-8.4,16.3-5.4,32.1-9.3,48.2c-1.9,9.2-2.6,19.5-13.9,19.9
		c-10.2,1.6-17.2-2.7-17.6-11.7c-1.2-27.3-18.7-36.7-41.8-44.8c-27.7-10.2,7.9-27.6,6.2-40.1C504.8,1013.2,516.5,995.6,527.7,1016.8
		z M837.7,742.7c-15.4,12-1.4,20.5-0.9,31.9c-12,10.8-15.1-7.3-27.4-1.1c19.4,26.5,42.6,10.7,66.9-4.1
		c-16.4,15.5,10.4,29.1-5.9,46.9c-8.7,9.5-14.2,13.1-23.3,13.5c-42.2-1.6-61.3-49.7-36.8-88.3c11.6-19.8,19.8-40.7,43.5-45.1
		c10.2-1.6,20.3-3.2,26.5,6.8c0.1,2.3-1.9,9.2-4,11.6c-8.6,11.8-14.7,1.8-21.6-0.2c-8.1-3.1-16.1-3.8-27.1,5.7
		C843.7,724.2,867.4,719.8,837.7,742.7z M429.7,674c11.7-17.6,27.3-25.1,45.8-19.1c21.9,7,36.2,22.3,29.4,48.8
		c-6.8,26.5-24,50-52.1,56.9c-25.9,6.8-40.2-8.5-50.3-30.8c8.9-4.9,10.3,0.7,13.7,1.7c8.1,3.1,14.3,15.3,24.2,6.9
		c9.9-8.4,0.4-17.1-2.2-23.8c-3.7-5.5-10.8-12,1.5-18.3c10.1-3.9,19.9-12.2,16.1-22.3 M438.3,714.6c2.6,6.7,12,15.4,2.2,23.8
		c-9.9,8.4-16.1-3.8-24.2-6.9c-3.5-1-4.8-6.6-13.7-1.7 M452.8,760.6c28.1-6.9,45.3-30.4,52.1-56.9c6.8-26.5-7.5-41.8-29.4-48.8
		c-18.5-6-34.1,1.5-45.8,19.1c8.2,5.3,21.1-11.2,26.2,0c3.9,10.1-6,18.5-16.1,22.3"/>
</g>
</svg>
