<?xml version="1.0" encoding="utf-8"?>
<!-- Generator: Adobe Illustrator 14.0.0, SVG Export Plug-In . SVG Version: 6.00 Build 43363)  -->
<!DOCTYPE svg PUBLIC "-//W3C//DTD SVG 1.1//EN" "http://www.w3.org/Graphics/SVG/1.1/DTD/svg11.dtd">
<svg version="1.1"
	 id="svg8" sodipodi:docname="bryophyta.svg" inkscape:version="0.92.4 (5da689c313, 2019-01-14)" xmlns:dc="http://purl.org/dc/elements/1.1/" xmlns:cc="http://creativecommons.org/ns#" xmlns:rdf="http://www.w3.org/1999/02/22-rdf-syntax-ns#" xmlns:svg="http://www.w3.org/2000/svg" xmlns:sodipodi="http://sodipodi.sourceforge.net/DTD/sodipodi-0.dtd" xmlns:inkscape="http://www.inkscape.org/namespaces/inkscape"
	 xmlns="http://www.w3.org/2000/svg" xmlns:xlink="http://www.w3.org/1999/xlink" x="0px" y="0px" width="2267.717px"
	 height="2267.717px" viewBox="-553.52 94.62 2267.717 2267.717" enable-background="new -553.52 94.62 2267.717 2267.717"
	 xml:space="preserve">
<sodipodi:namedview  id="base" inkscape:window-height="962" inkscape:document-units="mm" inkscape:window-x="-8" inkscape:window-y="-8" inkscape:pageopacity="0.0" inkscape:pageshadow="2" inkscape:current-layer="layer1" inkscape:window-width="1280" inkscape:window-maximized="1" borderopacity="1.0" bordercolor="#666666" showgrid="false" pagecolor="#ffffff" inkscape:cy="922.97731" inkscape:cx="453.02084" inkscape:zoom="0.1400905">
	</sodipodi:namedview>
<g id="layer1" transform="translate(-344.74648,83.270143)" inkscape:groupmode="layer" inkscape:label="Capa 1">
	<path id="path3713" inkscape:connector-curvature="0" fill="none" stroke="#000000" stroke-width="0.2646" d="M598.675,1652.203
		c-29.492,29.081-12.002,68.093-0.618,87.858c18.266,31.096-32.648,34.099-13.606,57.279c-5.538,2.123-13.971,6.623-16.35,3.726
		c-15.057-9.469-2.692-26.906-9.833-35.598c-14.023-20.024-7.452-32.701-5.642-51.173c-0.312-24.007,7.811-52.52-17.284-68.299
		c-24.837-18.418-25.408-39.789-20.699-60.64c40.871-145.19,21.047-296.328,40.807-443.586c2.327-23.75,6.776-41.963,34.975-57.849
		c50.603-27.011,61.828-87.188,31.66-132.771c-28.045-40.047-129.667-63.328-178.977-49.51
		c-41.135,11.953-51.896,40.205-57.379,68.975c-6.777,41.962,2.797,80.199,48.486,103.326c27.734,16.039,36.479,35.544,38.912,65.09
		c4.918,85.737-19.448,171.268-14.271,254.362c7.093,117.92-53.13,215.923-100.419,317.856
		c-13.917,33.271,29.704,77.509,36.896,112.849c8.799,46.152,12.578,89.148-28.246,125.111c-5.794,4.76-4.29,98.155,32.189,133.701
		c31.72,29.751,46.312,71.144,75.133,103.274c19.56,17.902,29.133,56.138,41.863,89.356
		c30.526-39.637,224.143-57.961,254.206-65.672c5.537-2.122,291.566,15.254,366.953-19.986c16.867-9.005,27.524-90.55,41.751-99.813
		c23.18-19.041,37.099-52.313,44.702-75.544c8.899-36.426,31.509-76.838,16.193-83.668c-7.916-0.774,8.328-57.795,26.231-77.354
		c20.798-21.941-10.456-83.616-4.145-93.653c9.469-15.057-56.662-101.465-112.282-77.608c-24.785,8.229,6.365,16.609,8.538,48.792
		c-11.231-75.698,8.687-143.014,33.623-207.176c71.915-190.104,133.273-381.241,160.844-581.017
		c3.362-34.305,13.089-52.001,56.603-61.058c54.329-10.661,81.957-47.916,83.974-95.674c4.397-44.861-13.199-137.167-88.691-155.223
		c-57.279-13.606-164.127-10.755-211.002,32.606c-44.238,43.62-69.897,142.344-17.067,174.163
		c62.607,40.77,85.376,80.301,77.825,130.18c-36.833,185.549-91.881,366.647-154.842,546.971
		c-25.197,66.799-42.477,134.376-55.512,213.023c-9.521-11.591-14.541-14.746-14.022-20.022
		c-14.077-46.672,39.111-100.071-26.912-133.184c-2.639-0.26,0.774-7.916,1.035-10.555c18.937-30.116,4.655-47.501-31.771-56.398
		c-17.956-7.088-21.941-20.799-23.028-36.892c-15.321-142.703-1.355-285.2,25.546-423.767
		c36.005-204.279,82.304-404.885,107.753-610.197c5.226-26.13,17.332-40.93,44.757-48.9
		c90.184-23.131,114.861-84.653,111.289-156.936c-0.936-72.025-71.049-172.144-148.402-198.374
		C1010.424,6.121,933.122,6.537,864.1,58.386c-62.968,44.449-135.094,127.963-112.531,196.779
		c25.201,69.075,106.283,111.655,181.774,129.71c41.704,9.415,58.626,27.059,52.624,61.105
		c-6.517,39.325-10.655,81.546-19.812,120.611c-38.645,204.02-88.101,409.644-111.17,617.854
		c-8.275,84.442-13.653,166.507-6.095,252.501c3.467,18.99,13.817,49.31-11.225,60.177c-36.374,17.749-52.154,42.846-57.379,68.973
		c-5.742,31.41-6.724,68.611,16.82,100.225c23.543,31.613,12.523,62.505,27.634,98.619c-30.632-13.659-77.872-20.952-68.146-38.646
		c13.659-30.635-21.217-55.365-2.28-85.479c6.054-7.4-2.433-29.545-22.25-44.807c-24.837-18.42-4.038-40.359-3.315-74.924
		c-2.279-85.477-1.921-170.695,14.271-254.364c27.417-143.843,17.89-291.307-0.069-434.27
		c-6.677-40.616-6.211-72.542,29.075-106.383c50.291-51.019,34.299-132.511-27.276-183.838
		c-54.176-45.272-187.516-98.302-250.226-56.492c-74.299,51.332-95.458,158.489-51.526,226.736
		c29.909,48.221,86.669,67.104,142.086,72.537c45.118,1.756,59.658,16.502,64.213,51.583
		c14.492,123.973,15.533,249.292,3.12,375.958c-7.447,103.174-28.088,205.055-19.443,307.14
		c0.829,18.732,36.791,59.555-29.439,55.729c-8.175,1.863-3.932,12.937,0.829,18.729c4.243,11.073,28.251,10.762,26.441,29.234
		C619.475,1630.263,560.333,1608.483,598.675,1652.203z M1050.329,305.757c-19.504,8.745-55.933-0.153-58.571-0.412
		c-39.379-33.165-74.406-1.963-99.448,8.904c-35.856,12.47-42.222-4.139-51.483-18.368c-50.556-82.215-29.603-160.088,81.381-205.16
		c63.797-25.718,178.615-1.146,227.511,43.609c46.259,44.497,30.015,101.517-33.522,124.597
		c-30.322,10.349-62.764,15.161-100.999,24.737C1030.252,293.133,1040.291,299.444,1050.329,305.757z M646.131,569.863
		c-3.157,5.019-6.312,10.039,3.726,16.351c44.655,33.682,42.327,57.432-14.899,70.473c-29.803,5.072-47.704,24.63-72.747,35.498
		c-13.97,6.623-28.199,15.886-40.101,1.398c-12.16-11.849-13.506-25.302-1.916-34.824c34.77-28.562,29.956-61.004,17.744-99.499
		c-14.076-46.671,44.29-16.974,59.036-31.514C628.123,536.128,662.945,534.212,646.131,569.863z M1314.695,707.315
		c-31.15-8.38-28.457,18.525-42.946,30.426c-26.129-5.226-5.329-27.165-25.664-37.149c-15.729,51.742,28.1,66.693,71.665,84.284
		c-36.685-6.259-28.146,42.534-67.729,38.653c-21.111-2.069-31.407-5.742-40.928-17.33c-39.688-57.174,4.754-130.08,79.937-136.034
		c37.719-4.296,73.316-14.128,102.655,12.725c12.16,11.849,24.32,23.697,17.232,41.652c-2.897,2.38-13.971,6.623-19.247,6.105
		c-24.01,0.312-16.923-17.644-21.165-28.716c-3.984-13.711-10.865-25.042-34.357-30.009
		C1345.016,696.966,1374.354,723.82,1314.695,707.315z M912.016,140.343c3.985,13.711-6.001,34.047,14.852,38.754
		c20.853,4.708,22.92-16.402,29.233-26.441c3.674-10.297,5.225-26.13,25.559-16.145c15.058,9.468,35.91,14.176,45.379-0.881
		c7.088-17.955-24.839-18.418-25.923-34.511c34.819-1.916,60.174,11.226,70.525,41.546c12.471,35.856,6.469,69.903-35.182,87.134
		c-41.651,17.232-89.67,17.854-126.666-12.412c-34.616-27.371-28.615-61.417-9.162-96.81
		C915.948,127.408,909.894,134.807,912.016,140.343z M909.794,217.387c36.996,30.267,85.014,29.645,126.666,12.412
		c41.65-17.231,47.652-51.277,35.182-87.134c-10.352-30.321-35.706-43.462-70.525-41.546c1.084,16.092,35.649,16.814,25.923,34.511
		c-9.469,15.057-30.321,10.35-45.379,0.881c-20.334-9.985-21.627,3.209-25.559,16.145c-6.313,10.039-8.381,31.149-29.233,26.441
		c-20.853-4.707-10.866-25.043-14.852-38.754c-2.122-5.536,3.932-12.935-11.384-19.765"/>
</g>
</svg>
