<?xml version="1.0" encoding="utf-8"?>
<!-- Generator: Adobe Illustrator 14.0.0, SVG Export Plug-In . SVG Version: 6.00 Build 43363)  -->
<!DOCTYPE svg PUBLIC "-//W3C//DTD SVG 1.1//EN" "http://www.w3.org/Graphics/SVG/1.1/DTD/svg11.dtd">
<svg version="1.1"
	 id="svg8" sodipodi:docname="busqueda-avanzada.svg" inkscape:version="0.92.4 (5da689c313, 2019-01-14)" xmlns:dc="http://purl.org/dc/elements/1.1/" xmlns:cc="http://creativecommons.org/ns#" xmlns:rdf="http://www.w3.org/1999/02/22-rdf-syntax-ns#" xmlns:svg="http://www.w3.org/2000/svg" xmlns:sodipodi="http://sodipodi.sourceforge.net/DTD/sodipodi-0.dtd" xmlns:inkscape="http://www.inkscape.org/namespaces/inkscape"
	 xmlns="http://www.w3.org/2000/svg" xmlns:xlink="http://www.w3.org/1999/xlink" x="0px" y="0px" width="2267.717px"
	 height="2267.717px" viewBox="259.745 169.745 2267.717 2267.717" enable-background="new 259.745 169.745 2267.717 2267.717"
	 xml:space="preserve">
<sodipodi:namedview  id="base" inkscape:window-height="962" inkscape:document-units="mm" inkscape:window-x="-8" inkscape:window-y="-8" inkscape:pageopacity="0.0" inkscape:pageshadow="2" inkscape:current-layer="layer1" inkscape:window-width="1280" inkscape:window-maximized="1" borderopacity="1.0" bordercolor="#666666" showgrid="false" pagecolor="#ffffff" inkscape:cy="1000.996" inkscape:cx="1251.5547" inkscape:zoom="0.1400905">
	</sodipodi:namedview>
<g id="layer1" transform="translate(-41.867708,115.63252)" inkscape:groupmode="layer" inkscape:label="Capa 1">
	<path id="path3713" inkscape:connector-curvature="0" fill="none" stroke="#000000" stroke-width="0.2646" d="M311.058,1266.327
		c0-29.74,25.165-52.618,54.905-54.908h77.782c13.727-68.629,41.179-132.685,80.071-189.878l-57.193-57.193
		c-20.589-20.589-20.589-54.906,0-75.495l59.48-57.193c20.59-20.589,52.618-20.589,75.496,0l57.192,57.193
		c54.905-38.892,121.249-66.344,189.881-80.07v-80.069c0-29.741,22.877-54.906,52.618-54.906h84.646
		c27.453,0,52.617,22.878,52.617,52.618v82.357c68.632,13.726,132.688,41.179,189.881,77.782l57.192-57.193
		c20.589-20.589,54.905-20.589,75.495,0l59.481,59.481c20.59,20.589,20.59,54.906,0,75.495l-59.481,57.193
		c38.892,54.905,66.343,118.961,80.071,189.878h80.069c29.741,0,54.904,22.88,54.904,52.62v82.355
		c0,29.743-25.163,54.908-54.904,54.908h-77.782c-13.726,68.631-41.179,134.975-80.07,192.168l57.193,54.902
		c20.59,20.59,20.59,54.905,0,75.495l-59.481,59.48c-20.589,20.59-54.905,20.59-75.495,0l-54.905-57.19
		c-57.193,38.889-121.249,68.632-192.168,80.067v80.07c0,29.743-22.877,52.618-52.617,52.618h-82.359
		c-29.74,0-54.904-22.875-54.904-52.618v-77.779c-70.919-13.727-134.976-41.179-192.168-80.073l-54.905,54.905
		c-20.589,20.59-54.905,20.59-75.496,0l-59.48-59.48c-20.589-20.59-20.589-54.905,0-75.495l57.193-54.902
		c-38.892-57.193-66.345-121.249-80.071-192.168h-80.07c-29.74,0-52.617-22.878-52.617-52.618V1266.327z M667.943,1307.505
		c0,150.989,123.536,274.523,274.526,274.523c153.276,0,276.813-123.534,276.813-276.814c0-150.986-125.824-274.523-276.813-274.523
		C791.479,1030.691,667.943,1154.228,667.943,1307.505z M2559.885,2069.313c0,9.151-2.288,18.302-9.151,25.165l-134.975,134.976
		c-13.726,13.727-36.604,13.727-50.33,0l-571.929-571.93c-36.604,27.455-77.782,52.617-121.249,75.497v-130.402
		c50.33-29.738,98.372-66.342,141.838-109.808c137.264-137.264,212.757-320.281,212.757-514.737s-75.493-377.474-212.757-514.737
		c-137.264-137.263-320.28-212.757-514.736-212.757c-194.457,0-377.473,75.494-514.736,212.757
		c-34.316,34.316-64.056,70.919-91.509,112.099H560.42c38.89-70.919,86.933-134.976,144.125-192.168
		c160.141-160.14,370.61-247.073,594.807-247.073c224.196,0,434.665,89.221,594.806,247.073
		c160.141,157.853,247.073,368.322,247.073,594.807c0,180.729-57.192,352.309-162.426,494.147l571.928,571.927"/>
</g>
</svg>
