<?xml version="1.0" encoding="utf-8"?>
<!-- Generator: Adobe Illustrator 18.0.0, SVG Export Plug-In . SVG Version: 6.00 Build 0)  -->
<!DOCTYPE svg PUBLIC "-//W3C//DTD SVG 1.1//EN" "http://www.w3.org/Graphics/SVG/1.1/DTD/svg11.dtd">
<svg version="1.1"
	 id="svg8" sodipodi:docname="busqueda-region.svg" inkscape:version="0.92.4 (5da689c313, 2019-01-14)" xmlns:dc="http://purl.org/dc/elements/1.1/" xmlns:cc="http://creativecommons.org/ns#" xmlns:rdf="http://www.w3.org/1999/02/22-rdf-syntax-ns#" xmlns:svg="http://www.w3.org/2000/svg" xmlns:sodipodi="http://sodipodi.sourceforge.net/DTD/sodipodi-0.dtd" xmlns:inkscape="http://www.inkscape.org/namespaces/inkscape"
	 xmlns="http://www.w3.org/2000/svg" xmlns:xlink="http://www.w3.org/1999/xlink" x="0px" y="0px"
	 viewBox="1492.8 736.7 1133.9 1133.9" enable-background="new 1492.8 736.7 1133.9 1133.9" xml:space="preserve">
<sodipodi:namedview  inkscape:window-height="962" inkscape:document-units="mm" inkscape:pageopacity="0.0" inkscape:current-layer="layer1" inkscape:pageshadow="2" inkscape:window-maximized="1" inkscape:window-x="-8" inkscape:window-y="-8" inkscape:window-width="1280" pagecolor="#ffffff" showgrid="false" bordercolor="#666666" borderopacity="1.0" inkscape:zoom="0.1400905" inkscape:cx="1285.5705" inkscape:cy="1000.996" id="base">
	</sodipodi:namedview>
<g id="layer1" transform="translate(-32.867708,115.63252)" inkscape:label="Capa 1" inkscape:groupmode="layer">
	<path id="path3713" inkscape:connector-curvature="0" fill="none" stroke="#000000" stroke-width="0.2646" d="M2367.7,1312.1
		c-4.4,4.7-9.5,8.2-14.5,11.7c-7.4,4.8-13.7,8.9-15.5,18.4c-0.8,2.8-5.3,4.4-8.9,6.4c-0.3,0.9-1.2,0.6-3.6,1.9c2.5,1.7,3.4,2,5,3.5
		c1.8,0.5,2.5,1.7,4.3,2.3c-1.5,1.6-2.9,3.1-4.1,3.8c-3,0.1-5.2,0.5-6.2,4.1c2.1-0.4,3-0.1,6.3-1.1c-7.5,11.8-14.8,22.6-22,33.5
		c-1.9-3.6-3-6.9-4.2-9.3c-0.6-1.2,0.8-2.8,1.1-3.7c0.8-2.8,1.4-4.6,3.1-7.1c-0.9-0.3-1.8-0.5-1.8-0.5c-2.7,2.2-5.3,4.4-7.7,5.7
		c-1.5,1.6-3.6,1.9-5.7,2.3c-2.4,1.3-4.2,0.7-5.7,2.3c-4.1,3.8-8.3,7.6-11.2,10.7c-2.7,2.2-4.8,2.6-7-0.1c-2.5-1.7-4.1-3.2-6.1,0.2
		c-0.8,2.8-2.7,2.2-5.4,1.4c-16.6-4.9-32.2-9.6-47.8-14.3c-4.6-1.4-6.7-1-7.4,4.8c0,0-0.3,0.9-0.5,1.8c-1.1,3.7-1.6,8.6-3.9,9.8
		c-2.4,1.3-7-0.1-10.7-1.2c0,0-1.2,0.6-3.3,1c6,6.8,10.8,14.2,14.9,20.5c0.6,1.2,2.2,2.7,1.9,3.6c0.5,5.2,1.2,9.4,6.2,12.9
		c0,0,0.4,2.1-0.8,2.8c-3.7,8.9-3.7,8.9-12.9,6.2c-9.2-2.7-17.5-5.2-26.7-8c-3.7-1.1-5.8-0.7-7.5,1.8c-5.9,6.3-12.7,12.3-18.6,18.5
		c-0.3,0.9-1.1,3.7-0.7,5.8c1,3.3,0.7,4.2-1,6.7c-2.7,2.2-2.8,6.2-4.6,8.7c-0.5,1.8-2,3.4-3.5,5c-1.6-1.5-3.1-2.9-3.8-4.1
		c-8.8-17.6-18.7-34.6-27.5-52.3c-0.6-1.2-3.1-2.9-3.5-5.1c-1.6-1.5-3.1-2.9-2.9-3.9c-0.5-5.2-2.3-5.7-5.6-4.7
		c-0.9-0.3-1.8-0.5-2.5-1.7c0.9,0.3,2.1-0.4,4,0.2c-3.1-2.9-6.3-5.9-8.7-7.6l-0.3,0.9c-3,0.1-6.7-1-10.7-1.2c1.7-2.5,2-3.4,3.8-5.9
		c-2.1,0.4-3.3,1-5.1,0.5c-0.6-1.2-1.3-2.4-2.6-4.8c-2.1,0.4-3.6,1.9-5.7,2.3c1.6,1.5,1.3,2.4,2.9,3.9c-0.9-0.3-1.2,0.6-2.1,0.4
		c-5.5-1.6-10,0-14.8,2.6c-1.2,0.6-3,0.1-5.2,0.5c-6.3,1.1-13.3,1-19.7,2.1c-10.6,1.9-17.9-0.3-24.8-7.4c-1.8-0.5-1.6-1.5-2.5-1.7
		c-6-6.8-13.3-9-20.2-13c-2.8-0.8-5-3.5-7.2-6.2c-5-3.5-9-6.7-12.8-10.8c-2.5-1.7-5-3.5-6.3-5.9c-1.8-7.5-8.8-10.7-15-13.5
		c-4.1-3.2-8.7-4.6-13-6.9c-2.5-1.7-5-3.5-5.6-4.7c-4.5-8.4-12.3-12.7-18.8-17.6c-2.5-1.7-4.1-3.2-5.9-3.8
		c-8.4-5.5-12.9-13.9-18.9-20.7c-3.5-5.1-5.8-10.8-9.3-15.8c-1.9-3.6-3.9-7.2-9.3-5.8c-0.9-0.3-1.8-0.5-2.8-0.8
		c-11.8-7.5-23.3-16-33.9-24.1c-1.8-0.5-2.9-3.9-3.2-6c-3.3-9-7.8-17.4-16.6-25c-6-6.8-13.7-11.1-18.5-18.6
		c-0.9-0.3-1.6-1.5-2.2-2.7c-2.3-5.7-4.3-12.3-6.6-18c-1.8-7.5-2.6-14.8-3.2-23c-1-3.3,2-3.4,5.1-3.5c1.8,0.5,3.7,1.1,5.8,0.7
		c1.2-0.6,4.5-1.7,3.9-2.9c0.5-1.8-1-3.3-2.3-5.7c-0.9-0.3-1.8-0.5-3.4-2c2.7-2.2,4.1-3.8,6.5-5.1c6-3.2,8-6.6,6.9-13
		c-0.8-7.3-2.9-13.9-4.9-20.5c-0.1-3-0.2-6.1,0.4-7.9c2.7-9.2,2.2-17.4-2.3-25.8c-3.9-7.2-7.1-13.1-10.1-20s-6.8-14.1-7.7-21.3
		c-1-3.3-2-6.6-4-10.2c-2.6-4.8-6.1-9.8-9.6-14.9c-1.3-2.4-2.9-3.9-3.5-5.1c0.5-1.8,1.7-2.5,2-3.4c-0.9-0.3-1.8-0.5-2.8-0.8
		c-1.6-1.5-3.1-2.9-5-3.5c-0.6-1.2-0.4-2.1-1.3-2.4c-4.3-2.3-5.3-5.6-3.6-8.1c-1.7-4.5-2.7-7.8-4.6-11.4c2.8,0.8,4.6,1.4,6.4,1.9
		c0.5-1.8,0.3-0.9,0.3-0.9c-5.3-5.6-10.7-11.2-16-16.8c-0.6-1.2-2.2-2.7-2.6-4.8c-0.6-1.2-0.4-2.1-1-3.3c-1.2,0.6-2.4,1.3-3.9,2.9
		c-2.9-3.9-6-6.8-8.8-10.7c-5.1-6.5-3.8-14.2,2.7-19.2c7.4-4.8,7.8-12.7,2.5-18.3c-1.6-1.5-3.4-2-5.2-2.6c-4.9-0.5-7.1-3.1-6.6-8
		c0.7-5.8-0.9-10.3-7.1-13.1c-6.4-1.9-12.3-15.7-8-23.4c2.8-6.2,0.6-8.8-5.4-8.6c-0.9-0.3-2.1,0.4-1.8-0.5c-2.6-4.8-9-6.7-10.1-13
		c-1.4-5.4-3-9.9-6.8-14.1c-4.1-3.2-4.2-9.3-6.8-14.1c-1-3.3-2.3-5.7-4.2-9.3l-0.5-5.2c2.3-4.3,1.6-5.5-1.5-8.5
		c-0.9-0.3-1.3-2.4-1-3.3c-0.4-2.1,0.2-4-0.5-5.2c-1.4-5.4-3-9.9-4.4-15.4c-0.6-1.2-1-3.3-0.5-5.2c1.9-6.4,0.8-12.8-1.2-19.4
		c-3.2-6-2.5-11.8,1.3-17.7c3.2-4.1,1.9-6.4-1.5-8.5c-1.8-0.5-4.3-2.3-6.2-2.8c-3.4-2-6.8-4-6.4-8.9c1.1-3.7-5.7-7.7-9-6.7
		c-3.6,1.9-6.3,1.1-9.2-2.7c-1.6-1.5-3.8-4.1-5.1-6.5c-4.7-4.4-9.6-4.9-12.1,0.4c-4,6.8-9.3,14.3-3.8,22.9c-0.3,0.9,0.4,2.1,0.4,2.1
		c-1,6.7-3.2,14.1-4.2,20.8c0.1,3-0.7,5.8-0.4,7.9c2.3,5.7,4.6,11.4,7.5,15.3c6.4,8.9,13.9,17.2,14.6,28.4c0.4,2.1-0.2,4,1.4,5.4
		c0.4,2.1,1.9,3.6,3.2,6l0.6,1.2c5.5,1.6,3,6.9,3,9.9c0.4,2.1,1.7,4.5,3.2,6c0.4,2.1,2.9,3.9,2.6,4.8c0.2,6.1-0.8,12.8-0.6,18.9
		c1,3.3,3,6.9,5.2,9.6c1.9,3.6,4.1,6.2,4,10.2c-0.5,4.9,0.3,9.1,4.6,11.4c0.6,1.2,1,3.3,0.7,4.2c-0.2,4-0.5,4.9,3,6.9
		c3.7,1.1,6.5,5,6.6,8c1.2,9.4,3.3,19,0.6,28.2c-1.6,5.5,1.6,11.5,3,16.9c0.6,1.2,1.9,3.6,2.6,4.8c0.2,6.1,1.6,11.5,3,16.9
		c0.1,3,0.8,7.3-0.9,9.8c-5.4,11.4-4.7,15.6,5.9,23.8c1.5-1.6,2.9-3.1,5-6.5c1.4,5.4,3.3,9,5.3,12.6c0.6,1.2,0.6,1.2,0.6,1.2
		c6.2,2.8,3.3,9,5,13.5c0.4,2.1,0.7,4.2,2.3,5.7c5.1,6.5,2.6,14.8-4.3,17.8c-3.6,1.9-6,3.2-9.3,4.2c-6.6,2-9.1,0.3-9-6.7
		c-0.2-6.1-0.7-11.2-1.8-17.6c-0.4-2.1-2.6-4.8-3.9-7.2c-2.9-3.9-5.7-7.7-8.6-11.6c-4.1-6.2-8.6-11.6-12.7-17.8
		c-1.9-3.6-3.9-7.2-7-10.1c-0.6-1.2-2.2-2.7-2.9-3.9c-1.2,0.6-1.2,0.6-1.2,0.6c0.4,2.1-0.2,4,0.5,5.2l-1.2,0.6
		c-1.6-1.5-2.9-3.9-5.1-6.5c6-3.2,5.9-6.3,0.9-9.8c-1.6-1.5-1.9-3.6-3.2-6c-1.2,0.6-2.4,1.3-3.6,1.9l-0.6-1.2c1.5-1.6,2-3.4,3.5-5
		c8.8-9.4,12.1-20.4,9.9-33.1c-0.7-4.2-1.8-7.5-2.5-11.8c-1.6-1.5-3.1-2.9-4.7-4.4c-3.1-2.9-6.3-5.9-9.1-9.7c-3.8-4.1-6.6-8-10.1-13
		c-1.6-1.5-4.1-3.2-7.4-2.2c-1.2,0.6-4.3-2.3-4.7-4.4c-2.2-2.7-2-6.6-6.6-8c-0.9-0.3-1.6-1.5-2.2-2.7c-2.5-1.7-3.8-4.1-5.6-4.7
		c-3.4-2-4.7-4.4-5.4-8.6c0.5-1.8-0.7-4.2-2.3-5.7c-2.6-4.8-5.4-8.6-9.2-12.8c-0.6-1.2-0.4-2.1-1-3.3c1.2-0.6,1.2-0.6,1.5-1.6
		c2.8,0.8,5.5,1.6,8,3.4c5.3,5.6,10.8,4.2,16.7,1c3.6-1.9,8.4-4.5,7-9.9c0.5-1.8,2.9-3.1,3.5-5c0.8-2.8,1.9-6.4,0.4-7.9
		c-4.9-10.5-10.7-21.2-16.5-32c-0.6-1.2-1.3-2.4-2.2-2.7c-4.7-4.4-9.4-8.8-13.2-12.9c-6-6.8-6.8-14.1-4.6-21.4
		c1.4-4.6,1.3-7.6-1.9-10.6c-1.6-1.5-1.7-4.5-1.4-5.4c1.6-5.5,2.1-10.4-1.7-14.5c-1.6-1.5-0.5-5.2-1.8-7.5
		c-0.7-4.2-0.9-10.3-3.8-14.2c-2.6-4.8-1.8-7.5,0.3-10.9c1.7-2.5,1.4-4.6-0.2-6.1c-2.9-3.9-5.1-6.5-3.7-11.1c0.3-0.9-1-3.3-1.7-4.5
		c-0.4-2.1-0.7-4.2-1.1-6.3c0.3-0.9-0.6-1.2-0.4-2.1c0,0,0,0,1.2-0.6c1.2-0.6,2.4-1.3,3.3-1c13.2,2.9,26.6,4.9,40.7,8.1
		c9.5,1.8,19.6,4.8,29.1,6.7c0.9,0.3,1.8,0.5,2.8,0.8c-0.3,0.9-0.5,1.8-0.8,2.8c-2.9,3.1-2.3,4.3,1.1,6.3
		c32,23.6,65.3,46.5,97.3,70.1c3.4,2,6.8,4,10.5,5.1c25.8,7.7,51.5,15.4,78.2,23.3c7.4,2.2,7.4,2.2,9.6-5.2c0.3-0.9,0.5-1.8,0.8-2.8
		c0.5-4.9,2.6-5.2,7.2-3.9c11,3.3,21.2,6.3,33.1,9.9c3.7,1.1,7.4,2.2,11,3.3c5.5,1.6,9.6,4.9,9.8,10.9c0.4,2.1,1.7,4.5,3.2,6
		c4.8,7.4,9.6,14.9,14.7,21.4c1.9,3.6,4.1,6.2,7.3,9.2c3.8,4.1,8.2,9.5,8.4,15.5c-0.5,1.8-0.2,4,0.5,5.2c1.7,4.5,0.8,7.3,0.7,11.2
		c-1.3,7.6-0.4,14.9,5.8,20.8c0.6,1.2,1.6,1.5,2.5,1.7c4.9,10.5,15.4,15.6,22,23.6c5.1,6.5,12.6,4.8,18.8-2.4c2-3.4,5-6.5,7.9-9.7
		c2-3.4,5.3-4.4,9.3-4.2l0.9,0.3c9-3.3,15.4,5.6,23.3,5.9c2.8,0.8,5.2,2.6,8,3.4c0.9,0.3,1.8,0.5,2.5,1.7
		c4.5,8.4,9.3,15.8,14.8,24.4c1.3,2.4,1.1,6.3,2.1,9.7c1.5,8.5,2.7,17.8,4.2,26.3c-0.3,0.9,0.4,2.1,1,3.3c4.4,5.3,6.2,12.9,8.2,19.5
		c0.4,2.1,2.6,4.8,5.1,6.5c2.2,2.7,3.2,6,2.1,9.7c-0.5,1.8-1.1,3.7-1.6,5.5c-1.6,5.5-0.3,10.9,1.1,16.4c1.7,4.5,1.2,9.4,2,13.6
		c0.6,1.2,1,3.3,1.9,3.6c3.8,4.1,9,6.7,12.8,10.8c6.9,7.1,15.3,12.6,24.5,15.3c1.8,0.5,3.1,2.9,4.7,4.4c2.2,2.7,3.2,6,8,3.4
		c1.2-0.6,3-0.1,4,0.2c0.6,1.2,0.1,3-0.5,4.9c-2,3.4-4.6,8.7-8.4,11.5c-12.7,12.3-20.1,27.1-26.9,43.1c-4.5,11.7-8.1,23.6-11.6,35.6
		c-0.8,2.8-2.8,6.2-4.6,8.7c-7,9.9-6.3,21.2-5.7,32.4c-0.2,4,3.6,8.1,5.5,11.7c1.9,3.6,3.2,6-0.6,8.8c-3.9,2.9-3.4,8-2.6,12.2
		c-0.3,10.9,4,20.2,7,30.2c1.3,2.4,3.2,6,4.2,9.3c3,6.9,5,13.5,4,20.2c-1.3,7.6,2.6,14.8,4.6,21.4c1.3,2.4,1.7,4.5,2,6.6
		c1.8,7.5,7,10.1,12.5,11.8c5.2,2.6,9.3,5.8,13.3,9c5.6,4.7,6.7,11,9.3,15.8c1.3,2.4,3.8,4.1,5.6,4.7c4.9,0.5,9.1-0.3,14,0.2
		c5.8,0.7,11.2-0.7,16.4-1.1c3-0.1,5.8,0.7,7.4,2.2c6.2,2.8,12,3.6,17.7,1.3c9-3.3,17.3-0.9,26.8,1c0.9,0.3,2.2,2.7,2.6,4.8
		c0.2,6.1,4.2,9.3,10.6,8.2c0.3-0.9,1.2-0.6,1.5-1.6c2.4-1.3,4.8-2.6,8.1-3.6c-1.3-2.4-2.6-4.8-4.8-7.4c1.2-0.6,3.3-1,4.5-1.7
		c7.8-2.7,14.2-3.8,20.1-7c3.6-1.9,5.9-6.3,7-9.9c2-3.4,2.8-6.2,7.3-7.8c2.4-1.3,4.4-4.7,5-6.5c3.1-7.1,5.3-14.4,7.5-21.8
		c3.4-8,9.9-13.1,19-13.4c7.9,0.4,15.8,0.7,23.5,2c8.8,0.6,16.5,1.9,25.8,0.7c7.3-0.8,15.8,0.7,23.6,5c5.2,2.6,10.2,6.1,16.4,8.9
		c1.6,1.5,4.3,2.3,5.7-2.3c-0.4-2.1,2.4-1.3,4,0.2C2373.8,1294.8,2374.5,1306.1,2367.7,1312.1z M2659.1,1705.7
		c-1.1,3.7-4,6.8-7.6,8.7l-69.6,38.4c-7.2,3.9-16.4,1.1-20.2-6L2400.2,1448c-18.9,6.4-38.5,11.6-57.8,15.8l15.7-52.4
		c23.8-5.9,47.5-14.9,69.3-27.4c71.7-38.7,124.9-103,148.3-181.2c23.3-78.2,14-161.2-24.7-232.9c-38.7-71.7-103.3-124-181.5-147.4
		c-78.2-23.3-160-14.7-232.6,23.8c-17.9,9.7-34.3,20.8-50.3,34.1l-53.4-15.9c24.2-23.9,51.2-43.9,81-60
		c83.6-45.2,178.7-54.9,269.8-27.7c90.2,26.9,165,88.3,209.6,170.8c44.5,82.4,54.2,177.5,27.1,268.6
		c-21.7,72.7-64.4,135.1-123.7,179.5l160.5,298.4C2657.5,1694.2,2660.5,1701.7,2659.1,1705.7z"/>
</g>
</svg>
