<?xml version="1.0" encoding="utf-8"?>
<!-- Generator: Adobe Illustrator 14.0.0, SVG Export Plug-In . SVG Version: 6.00 Build 43363)  -->
<!DOCTYPE svg PUBLIC "-//W3C//DTD SVG 1.1//EN" "http://www.w3.org/Graphics/SVG/1.1/DTD/svg11.dtd">
<svg version="1.1"
	 id="svg8" sodipodi:docname="busqueda-region.svg" inkscape:version="0.92.4 (5da689c313, 2019-01-14)" xmlns:dc="http://purl.org/dc/elements/1.1/" xmlns:cc="http://creativecommons.org/ns#" xmlns:rdf="http://www.w3.org/1999/02/22-rdf-syntax-ns#" xmlns:svg="http://www.w3.org/2000/svg" xmlns:sodipodi="http://sodipodi.sourceforge.net/DTD/sodipodi-0.dtd" xmlns:inkscape="http://www.inkscape.org/namespaces/inkscape"
	 xmlns="http://www.w3.org/2000/svg" xmlns:xlink="http://www.w3.org/1999/xlink" x="0px" y="0px" width="2267.717px"
	 height="2267.717px" viewBox="925.887 169.745 2267.717 2267.717" enable-background="new 925.887 169.745 2267.717 2267.717"
	 xml:space="preserve">
<sodipodi:namedview  id="base" inkscape:window-height="962" inkscape:document-units="mm" inkscape:window-x="-8" inkscape:window-y="-8" inkscape:pageopacity="0.0" inkscape:pageshadow="2" inkscape:current-layer="layer1" inkscape:window-width="1280" inkscape:window-maximized="1" borderopacity="1.0" bordercolor="#666666" showgrid="false" pagecolor="#ffffff" inkscape:cy="1000.996" inkscape:cx="1285.5705" inkscape:zoom="0.1400905">
	</sodipodi:namedview>
<g id="layer1" transform="translate(-32.867708,115.63252)" inkscape:groupmode="layer" inkscape:label="Capa 1">
	<path id="path3713" inkscape:connector-curvature="0" fill="none" stroke="#000000" stroke-width="0.2646" d="M2586.63,1310.894
		c-4.651,9.306-10.855,17.062-17.061,24.817c-9.306,10.857-17.063,20.164-15.51,35.675c0,4.652-6.205,9.307-10.858,13.959
		c0,1.551-1.551,1.551-4.654,4.654c4.654,1.551,6.204,1.551,9.308,3.102c3.102,0,4.651,1.552,7.755,1.552
		c-1.55,3.102-3.104,6.203-4.653,7.755c-4.652,1.552-7.755,3.103-7.755,9.307c3.103-1.552,4.653-1.552,9.305-4.654
		c-6.202,21.715-12.406,41.88-18.611,62.044c-4.653-4.653-7.755-9.306-10.858-12.408c-1.55-1.552,0-4.654,0-6.205
		c0-4.652,0-7.755,1.551-12.408c-1.551,0-3.101,0-3.101,0c-3.102,4.653-6.205,9.307-9.307,12.408
		c-1.553,3.103-4.653,4.653-7.757,6.205c-3.102,3.103-6.202,3.103-7.755,6.203c-4.652,7.757-9.306,15.512-12.407,21.716
		c-3.104,4.653-6.204,6.205-10.858,3.102c-4.654-1.551-7.755-3.102-9.306,3.104c0,4.652-3.104,4.652-7.755,4.652
		c-27.92,0-54.288,0-80.657,0c-7.755,0-10.858,1.551-9.306,10.857c0,0,0,1.551,0,3.103c0,6.203,1.551,13.96-1.553,17.063
		c-3.102,3.101-10.856,3.101-17.061,3.101c0,0-1.551,1.552-4.654,3.104c12.409,7.755,23.268,17.061,32.573,24.817
		c1.551,1.55,4.654,3.102,4.654,4.652c3.101,7.755,6.204,13.96,15.51,17.063c0,0,1.551,3.102,0,4.652
		c-1.551,15.512-1.551,15.512-17.063,15.512c-15.51,0-29.47,0-44.979,0c-6.205,0-9.306,1.551-10.858,6.204
		c-6.203,12.408-13.96,24.817-20.162,37.226c0,1.552,0,6.204,1.551,9.307c3.101,4.652,3.101,6.204,1.55,10.857
		c-3.101,4.654-1.55,10.857-3.101,15.51c0,3.104-1.553,6.205-3.104,9.308c-3.102-1.551-6.205-3.103-7.755-4.653
		c-21.715-23.267-44.982-44.981-66.697-68.248c-1.551-1.55-6.205-3.102-7.756-6.203c-3.101-1.552-6.204-3.103-6.204-4.654
		c-3.102-7.755-6.205-7.755-10.856-4.652c-1.551,0-3.104,0-4.654-1.552c1.551,0,3.104-1.551,6.205-1.551
		c-6.205-3.103-12.409-6.204-17.061-7.755v1.551c-4.654,1.55-10.858,1.55-17.063,3.102c1.551-4.652,1.551-6.204,3.104-10.857
		c-3.104,1.551-4.654,3.103-7.758,3.103c-1.551-1.552-3.101-3.103-6.202-6.204c-3.104,1.552-4.653,4.652-7.757,6.204
		c3.104,1.551,3.104,3.103,6.204,4.653c-1.551,0-1.551,1.55-3.101,1.55c-9.307,0-15.511,4.654-21.715,10.859
		c-1.551,1.55-4.654,1.55-7.756,3.102c-9.308,4.653-20.164,7.756-29.472,12.408c-15.511,7.755-27.919,7.755-41.879,0
		c-3.102,0-3.102-1.551-4.653-1.551c-12.409-7.755-24.817-7.755-37.226-10.857c-4.653,0-9.306-3.102-13.959-6.204
		c-9.307-3.103-17.062-6.205-24.818-10.857c-4.653-1.552-9.306-3.103-12.409-6.205c-6.205-10.857-18.612-12.409-29.47-13.959
		c-7.755-3.103-15.51-3.103-23.266-4.654c-4.653-1.551-9.307-3.102-10.857-4.653c-10.857-10.856-24.817-13.959-37.226-18.612
		c-4.653-1.551-7.755-3.102-10.857-3.102c-15.511-4.653-26.368-15.512-38.777-23.267c-7.755-6.205-13.959-13.96-21.715-20.165
		c-4.653-4.652-9.306-9.306-17.062-4.652c-1.551,0-3.102,0-4.653,0c-21.715-6.205-43.43-13.96-63.594-21.715
		c-3.102,0-6.205-4.654-7.755-7.755c-9.307-12.409-20.165-23.267-37.226-31.023c-12.409-7.755-26.368-10.855-37.226-20.163
		c-1.551,0-3.102-1.552-4.653-3.102c-6.205-7.756-12.409-17.063-18.613-24.817c-6.205-10.857-10.857-21.715-15.511-34.124
		c-3.102-4.652,1.551-6.204,6.205-7.755c3.102,0,6.204,0,9.306-1.552c1.551-1.551,6.205-4.653,4.653-6.203
		c0-3.104-3.102-4.654-6.205-7.757c-1.551,0-3.102,0-6.205-1.551c3.103-4.652,4.654-7.756,7.756-10.857
		c7.755-7.755,9.307-13.959,4.653-23.267c-4.653-10.857-10.858-20.164-17.062-29.471c-1.551-4.652-3.102-9.306-3.102-12.408
		c0-15.511-4.653-27.919-15.511-38.776c-9.306-9.307-17.062-17.063-24.818-26.369c-7.755-9.306-17.062-18.613-21.715-29.47
		c-3.102-4.654-6.204-9.307-10.857-13.959c-6.204-6.205-13.959-12.409-21.715-18.614c-3.102-3.101-6.204-4.653-7.755-6.205
		c0-3.101,1.551-4.653,1.551-6.204c-1.551,0-3.103,0-4.654,0c-3.102-1.552-6.204-3.102-9.306-3.102
		c-1.551-1.551-1.551-3.103-3.102-3.103c-7.756-1.551-10.858-6.205-9.308-10.857c-4.653-6.205-7.755-10.857-12.408-15.512
		c4.653,0,7.755,0,10.857,0c0-3.103,0-1.551,0-1.551c-10.857-6.204-21.715-12.409-32.572-18.612
		c-1.552-1.552-4.653-3.104-6.205-6.205c-1.552-1.552-1.552-3.102-3.103-4.654c-1.551,1.552-3.102,3.102-4.653,6.205
		c-6.205-4.653-12.409-7.755-18.614-12.409c-10.857-7.755-12.408-20.165-4.653-31.021c9.308-10.859,6.205-23.267-4.653-29.471
		c-3.102-1.552-6.204-1.552-9.307-1.552c-7.755,1.552-12.408-1.551-13.96-9.306c-1.551-9.307-6.204-15.511-17.061-17.062
		c-10.858,0-26.369-18.612-23.266-32.572c1.551-10.858-3.103-13.959-12.409-10.858c-1.55,0-3.102,1.552-3.102,0
		c-6.205-6.204-17.063-6.204-21.716-15.51c-4.653-7.755-9.307-13.96-17.062-18.612c-7.756-3.103-10.857-12.409-17.062-18.613
		c-3.102-4.654-6.204-7.756-10.857-12.409l-3.102-7.755c1.551-7.755,0-9.307-6.204-12.409c-1.551,0-3.103-3.102-3.103-4.654
		c-1.551-3.102-1.551-6.204-3.102-7.755c-4.653-7.755-9.306-13.959-13.96-21.715c-1.551-1.55-3.102-4.653-3.102-7.755
		c0-10.858-4.653-20.164-10.858-29.471c-7.756-7.755-9.306-17.062-6.205-27.919c3.103-7.755,0-10.857-6.205-12.408
		c-3.102,0-7.755-1.552-10.857-1.552c-6.205-1.552-12.409-3.103-13.96-10.857c0-6.205-12.409-9.307-17.062-6.205
		c-4.653,4.654-9.306,4.654-15.511,0c-3.102-1.551-7.755-4.653-10.857-7.755c-9.306-4.654-17.062-3.102-18.613,6.205
		c-3.102,12.408-7.755,26.369,4.653,37.225c0,1.552,1.551,3.104,1.551,3.104c1.551,10.856,1.551,23.265,3.103,34.123
		c1.551,4.653,1.551,9.307,3.102,12.409c6.204,7.755,12.409,15.511,18.613,20.165c13.959,10.857,29.47,20.163,35.675,37.226
		c1.551,3.101,1.551,6.205,4.653,7.755c1.551,3.103,4.653,4.653,7.755,7.755l1.551,1.55c9.307,0,7.756,9.307,9.307,13.96
		c1.55,3.103,4.653,6.205,7.755,7.756c1.551,3.102,6.205,4.652,6.205,6.203c3.102,9.307,4.653,20.164,7.755,29.471
		c3.102,4.653,7.755,9.307,12.409,12.408c4.653,4.654,9.306,7.755,10.856,13.96c1.551,7.755,4.654,13.959,12.409,15.511
		c1.551,1.551,3.102,4.653,3.102,6.204c1.551,6.205,1.551,7.756,7.755,9.307c6.205,0,12.409,4.653,13.96,9.307
		c6.204,13.96,13.959,27.92,13.959,43.43c0,9.308,7.755,17.063,12.409,24.818c1.551,1.551,4.653,4.653,6.205,6.205
		c3.102,9.306,7.755,17.061,12.408,24.817c1.551,4.653,4.653,10.857,3.103,15.512c-3.103,20.163,0,26.368,20.164,34.123
		c1.551-3.102,3.103-6.203,4.653-12.408c4.653,7.755,9.307,12.408,13.96,17.061c1.551,1.552,1.551,1.552,1.551,1.552
		c10.857,1.552,9.307,12.408,13.96,18.613c1.551,3.102,3.102,6.205,6.204,7.755c10.858,7.755,10.858,21.715,1.552,29.471
		c-4.654,4.653-7.756,7.755-12.409,10.857c-9.307,6.204-13.96,4.652-17.062-6.205c-3.103-9.306-6.205-17.061-10.858-26.369
		c-1.551-3.102-6.205-6.204-9.306-9.306c-6.205-4.653-12.409-9.306-18.613-13.96c-9.306-7.755-18.612-13.959-27.919-21.715
		c-4.653-4.654-9.306-9.307-15.511-12.409c-1.551-1.55-4.653-3.101-6.205-4.653c-1.551,1.552-1.551,1.552-1.551,1.552
		c1.551,3.101,1.551,6.204,3.103,7.755l-1.551,1.55c-3.102-1.55-6.205-4.653-10.857-7.755c7.756-7.755,6.205-12.409-3.102-15.51
		c-3.102-1.552-4.653-4.654-7.755-7.756c-1.551,1.552-3.102,3.102-4.653,4.653l-1.551-1.551c1.551-3.102,1.551-6.204,3.103-9.307
		c9.306-18.612,9.306-37.226,0-55.839c-3.103-6.204-6.204-10.857-9.307-17.062c-3.102-1.551-6.204-3.103-9.307-4.653
		c-6.204-3.102-12.409-6.204-18.613-10.857c-7.755-4.654-13.959-9.307-21.715-15.511c-3.102-1.552-7.755-3.102-12.408,0
		c-1.551,1.552-7.755-1.552-9.307-4.653c-4.653-3.102-6.204-9.307-13.959-9.307c-1.551,0-3.102-1.552-4.653-3.103
		c-4.653-1.55-7.755-4.653-10.858-4.653c-6.204-1.552-9.306-4.653-12.408-10.857c0-3.102-3.103-6.205-6.205-7.755
		c-6.205-6.205-12.408-10.859-20.164-15.511c-1.551-1.552-1.551-3.103-3.103-4.653c1.552-1.55,1.552-1.55,1.552-3.102
		c4.653,0,9.307,0,13.96,1.552c10.857,6.204,18.612,1.55,26.368-6.205c4.653-4.654,10.858-10.858,6.205-18.614
		c0-3.101,3.102-6.205,3.102-9.306c0-4.654,0-10.858-3.102-12.409c-12.409-13.959-26.368-27.919-40.328-41.879
		c-1.551-1.551-3.102-3.102-4.653-3.102c-9.306-4.653-18.613-9.307-26.368-13.96c-12.409-7.755-17.062-18.612-17.062-31.021
		c0-7.755-1.551-12.409-7.755-15.51c-3.102-1.552-4.653-6.205-4.653-7.756c0-9.307-1.551-17.062-9.306-21.715
		c-3.103-1.552-3.103-7.755-6.205-10.857c-3.102-6.205-6.205-15.512-12.409-20.164c-6.205-6.205-6.205-10.857-4.653-17.062
		c1.551-4.653,0-7.755-3.102-9.307c-6.204-4.653-10.857-7.755-10.857-15.51c0-1.55-3.103-4.654-4.653-6.205
		c-1.551-3.101-3.103-6.204-4.654-9.306c0-1.552-1.55-1.552-1.55-3.102c0,0,0,0,1.55-1.552c1.551-1.55,3.103-3.101,4.654-3.101
		c21.715-1.552,43.43-4.654,66.696-6.205c15.51-1.551,32.573-1.551,48.084-3.102c1.55,0,3.102,0,4.653,0c0,1.551,0,3.102,0,4.652
		c-3.103,6.205-1.552,7.755,4.653,9.307c60.492,21.715,122.535,41.878,183.027,63.594c6.204,1.55,12.409,3.102,18.613,3.102
		c43.43,0,86.86,0,131.841,0c12.409,0,12.409,0,12.409-12.409c0-1.551,0-3.103,0-4.653c-1.551-7.756,1.551-9.307,9.307-9.307
		c18.613,0,35.674,0,55.838,0c6.205,0,12.409,0,18.613,0c9.307,0,17.063,3.103,20.164,12.409c1.552,3.101,4.653,6.205,7.755,7.755
		c10.858,9.306,21.716,18.613,32.573,26.369c4.653,4.653,9.306,7.755,15.511,10.857c7.755,4.653,17.062,10.857,20.164,20.163
		c0,3.104,1.551,6.205,3.103,7.756c4.653,6.203,4.653,10.857,6.204,17.062c1.551,12.409,6.205,23.266,18.613,29.47
		c1.551,1.552,3.103,1.552,4.653,1.552c12.409,13.959,31.022,17.062,44.981,26.368c10.857,7.756,21.715,1.552,27.919-12.408
		c1.551-6.204,4.653-12.409,7.755-18.612c1.551-6.205,6.204-9.307,12.409-10.858h1.551c12.409-9.306,26.368,1.552,38.777-1.551
		c4.653,0,9.307,1.551,13.959,1.551c1.551,0,3.103,0,4.653,1.552c10.857,10.857,21.715,20.163,34.124,31.021
		c3.102,3.102,4.653,9.306,7.755,13.959c6.205,12.409,12.408,26.369,18.612,38.777c0,1.552,1.552,3.103,3.103,4.653
		c9.307,6.205,15.511,17.062,21.715,26.369c1.551,3.102,6.205,6.205,10.857,7.755c4.653,3.102,7.755,7.755,7.755,13.959
		c0,3.103,0,6.205,0,9.306c0,9.307,4.653,17.063,9.307,24.818c4.653,6.205,6.205,13.96,9.306,20.164
		c1.551,1.551,3.103,4.653,4.653,4.653c7.756,4.652,17.062,6.204,24.817,10.857c13.96,7.755,29.471,12.409,44.981,12.409
		c3.102,0,6.205,3.101,9.307,4.653c4.652,3.103,7.755,7.756,13.959,1.552c1.551-1.552,4.653-1.552,6.205-1.552
		c1.551,1.552,1.551,4.653,1.551,7.756c-1.551,6.204-3.103,15.51-7.755,21.715c-13.959,24.817-18.613,51.185-21.715,79.104
		c-1.552,20.165-1.552,40.329-1.552,60.493c0,4.652-1.551,10.857-3.102,15.51c-6.205,18.614,0,35.675,6.204,52.737
		c1.551,6.204,9.307,10.856,13.96,15.511c4.653,4.653,7.756,7.755,3.103,13.96c-4.653,6.204-1.551,13.959,1.55,20.164
		c4.653,17.062,15.511,29.47,24.818,43.43c3.102,3.102,7.755,7.756,10.858,12.409c7.755,9.307,13.959,18.612,15.51,29.471
		c1.551,12.408,10.857,21.715,17.062,31.021c3.104,3.103,4.653,6.205,6.204,9.307c6.205,10.857,15.513,12.409,24.818,12.409
		c9.306,1.551,17.061,4.653,24.816,7.755c10.858,4.653,15.512,13.96,21.717,20.165c3.102,3.102,7.755,4.652,10.856,4.652
		c7.755-1.551,13.959-4.652,21.715-6.204c9.306-1.551,17.063-6.205,24.817-9.306c4.652-1.552,9.307-1.552,12.407,0
		c10.858,1.55,20.164,0,27.919-6.205c12.41-9.307,26.369-9.307,41.882-10.857c1.551,0,4.651,3.103,6.204,6.204
		c3.102,9.307,10.856,12.408,20.162,7.756c0-1.552,1.553-1.552,1.553-3.103c3.102-3.103,6.205-6.204,10.856-9.307
		c-3.101-3.103-6.204-6.204-10.856-9.307c1.551-1.551,4.652-3.102,6.205-4.653c10.856-7.755,20.162-12.407,27.919-20.164
		c4.652-4.652,6.202-12.408,6.202-18.612c1.554-6.205,1.554-10.857,7.758-15.512c3.102-3.101,4.651-9.306,4.651-12.407
		c1.554-12.41,1.554-24.817,1.554-37.227c1.55-13.96,9.306-24.817,23.265-29.47c12.409-3.103,24.816-6.205,37.226-7.756
		c13.959-3.103,26.368-4.653,40.328-10.858c10.856-4.652,24.818-6.204,38.778-3.102c9.306,1.551,18.611,4.652,29.47,6.204
		c3.102,1.552,7.755,1.552,7.755-6.204c-1.551-3.103,3.102-3.103,6.205-1.551C2588.183,1281.423,2594.385,1298.485,2586.63,1310.894
		z M3219.472,1785.524c0,6.204-3.104,12.409-7.756,17.062l-89.965,91.515c-9.306,9.306-24.815,9.306-34.121,0L2699.86,1506.33
		c-26.368,18.613-54.288,35.675-82.207,51.187v-88.412c34.124-20.164,66.697-44.981,94.616-74.451
		c93.064-93.065,145.802-217.152,145.802-348.994c0-131.841-52.737-255.927-145.802-348.993
		c-93.066-93.064-217.152-144.25-348.994-144.25s-254.375,51.186-348.992,144.25c-23.267,23.267-43.431,48.083-62.044,76.003
		h-89.962c26.368-48.083,58.941-91.513,97.718-130.29c108.576-108.575,251.274-167.517,404.831-167.517
		c152.006,0,296.257,60.493,403.28,167.517c107.025,107.025,165.968,249.724,165.968,403.28
		c0,122.535-37.228,238.867-108.576,335.034l386.219,387.769"/>
</g>
</svg>
