<?xml version="1.0" encoding="utf-8"?>
<!-- Generator: Adobe Illustrator 18.0.0, SVG Export Plug-In . SVG Version: 6.00 Build 0)  -->
<!DOCTYPE svg PUBLIC "-//W3C//DTD SVG 1.1//EN" "http://www.w3.org/Graphics/SVG/1.1/DTD/svg11.dtd">
<svg version="1.1"
	 id="svg8" sodipodi:docname="busqueda-avanzada.svg" inkscape:version="0.92.4 (5da689c313, 2019-01-14)" xmlns:dc="http://purl.org/dc/elements/1.1/" xmlns:cc="http://creativecommons.org/ns#" xmlns:rdf="http://www.w3.org/1999/02/22-rdf-syntax-ns#" xmlns:svg="http://www.w3.org/2000/svg" xmlns:sodipodi="http://sodipodi.sourceforge.net/DTD/sodipodi-0.dtd" xmlns:inkscape="http://www.inkscape.org/namespaces/inkscape"
	 xmlns="http://www.w3.org/2000/svg" xmlns:xlink="http://www.w3.org/1999/xlink" x="0px" y="0px"
	 viewBox="826.7 736.7 1133.9 1133.9" enable-background="new 826.7 736.7 1133.9 1133.9" xml:space="preserve">
<sodipodi:namedview  inkscape:window-height="962" inkscape:document-units="mm" inkscape:pageopacity="0.0" inkscape:current-layer="layer1" inkscape:pageshadow="2" inkscape:window-maximized="1" inkscape:window-x="-8" inkscape:window-y="-8" inkscape:window-width="1280" pagecolor="#ffffff" showgrid="false" bordercolor="#666666" borderopacity="1.0" inkscape:zoom="0.1400905" inkscape:cx="1251.5547" inkscape:cy="1000.996" id="base">
	</sodipodi:namedview>
<g id="layer1" transform="translate(-41.867708,115.63252)" inkscape:label="Capa 1" inkscape:groupmode="layer">
	<path id="path3713" inkscape:connector-curvature="0" fill="none" stroke="#000000" stroke-width="0.2646" d="M874.4,1164.3
		c1.3-15.3,15.2-26,30.6-26l40.1,3.3c10-34.8,26.9-66.6,49.3-94.5l-27-31.9c-9.7-11.5-8.3-29.2,3.2-38.9l33.1-26.9
		c11.5-9.7,28-8.4,38.9,3.2l27,31.9c29.9-17.7,65.3-29,101.2-33.2l3.4-41.3c1.3-15.3,14.1-27.3,29.4-26.1l43.6,3.6
		c14.1,1.2,26.1,14,24.9,29.3l-3.5,42.4c34.8,10,66.6,26.9,94.6,48.1l31.9-27c11.5-9.7,29.2-8.3,38.9,3.2l28.1,33.2
		c9.7,11.5,8.3,29.2-3.2,38.9l-33.1,26.9c17.7,29.9,29.1,64.1,33.2,101.2l41.3,3.4c15.3,1.3,27.3,14.1,26.1,29.4l-3.5,42.4
		c-1.3,15.3-15.3,27.2-30.6,26l-40.1-3.3c-10,34.8-26.9,67.8-49.4,95.6l27.1,30.7c9.7,11.5,8.3,29.2-3.2,38.9l-33.2,28.1
		c-11.5,9.7-29.2,8.3-38.9-3.2l-25.9-31.8c-31.1,17.6-65.4,30.2-102.4,33.1l-3.4,41.3c-1.3,15.3-14,26.1-29.3,24.9l-42.4-3.5
		c-15.3-1.3-27.3-14.1-26.1-29.4l3.3-40.1c-36-10.1-67.8-26.9-95.6-49.4l-30.6,26c-11.5,9.7-29.2,8.3-38.9-3.2l-28.1-33.2
		c-9.7-11.5-8.3-29.2,3.2-38.9l31.8-25.9c-17.6-31.1-29-65.3-33.1-102.4l-41.3-3.4c-15.3-1.3-26.1-14-24.9-29.3L874.4,1164.3z
		 M1056.6,1200.6c-6.4,77.8,52,146.7,129.8,153.1c79,6.5,147.9-51.9,154.4-130.9c6.4-77.8-53.2-146.8-131-153.2
		C1132,1063.2,1063.1,1121.6,1056.6,1200.6z M1999.2,1673.5c-0.4,4.7-2,9.3-5.8,12.6l-75.3,63.8c-7.7,6.5-19.4,5.5-25.9-2.1
		l-270.5-319c-20,12.6-42.3,23.8-65.7,33.8l5.5-67.2c27.2-13.2,53.5-30,77.8-50.6c76.6-64.9,123.2-156,131.5-256.2
		s-22.9-197.7-87.8-274.3c-64.9-76.6-156-123.2-256.2-131.5c-100.2-8.3-197.7,22.9-274.3,87.8c-19.1,16.2-36,33.8-51.9,53.9
		l-68.4-5.6c23.1-34.9,50.5-65.9,82.4-92.9c89.3-75.7,201.5-111.6,317-102.1c115.5,9.5,220.2,64.4,296,152.6
		c75.8,88.1,111.7,200.3,102.1,317c-7.7,93.1-44.4,179.1-104.7,247.8l270.5,319C1995.6,1660.1,2000.1,1668.6,1999.2,1673.5z"/>
</g>
</svg>
