<?xml version="1.0" encoding="utf-8"?>
<!-- Generator: Adobe Illustrator 14.0.0, SVG Export Plug-In . SVG Version: 6.00 Build 43363)  -->
<!DOCTYPE svg PUBLIC "-//W3C//DTD SVG 1.1//EN" "http://www.w3.org/Graphics/SVG/1.1/DTD/svg11.dtd">
<svg version="1.1"
	 id="svg8" xmlns:dc="http://purl.org/dc/elements/1.1/" xmlns:cc="http://creativecommons.org/ns#" xmlns:rdf="http://www.w3.org/1999/02/22-rdf-syntax-ns#" xmlns:svg="http://www.w3.org/2000/svg" xmlns:sodipodi="http://sodipodi.sourceforge.net/DTD/sodipodi-0.dtd" xmlns:inkscape="http://www.inkscape.org/namespaces/inkscape" sodipodi:docname="casi-amenazado-nt-evaluacion-conabio.svg" inkscape:version="0.92.4 (5da689c313, 2019-01-14)"
	 xmlns="http://www.w3.org/2000/svg" xmlns:xlink="http://www.w3.org/1999/xlink" x="0px" y="0px" width="1133.859px"
	 height="1133.859px" viewBox="0 0 1133.859 1133.859" enable-background="new 0 0 1133.859 1133.859" xml:space="preserve">
<sodipodi:namedview  id="base" showgrid="false" pagecolor="#ffffff" inkscape:cy="1991.7351" inkscape:cx="1988.9756" inkscape:zoom="0.14369886" borderopacity="1.0" bordercolor="#666666" inkscape:window-maximized="1" inkscape:window-width="1280" inkscape:window-y="-8" inkscape:window-x="-8" inkscape:pageshadow="2" inkscape:current-layer="layer1" inkscape:pageopacity="0.0" inkscape:document-units="mm" inkscape:window-height="962">
	</sodipodi:namedview>
<path fill="none" stroke="#000000" stroke-width="0.2646" d="M579.594,0.264c-280.936,0-508.649,227.714-508.649,508.67
	c0,123.95,44.387,237.558,118.101,325.792h-0.785c150.159,177.977,391.415,298.87,391.415,298.87s241.297-120.894,391.436-298.87
	h-0.957c73.692-88.234,118.07-201.843,118.07-325.792C1088.225,227.978,860.531,0.264,579.594,0.264z M575.856,737.24h-91.781
	L335.892,479.566h-2.099c2.955,45.509,4.433,77.964,4.433,97.386V737.24h-64.533V396.631h91.088l147.948,255.105h1.62
	c-2.333-44.275-3.495-75.569-3.495-93.901V396.631h65.002V737.24z M885.496,456.731h-92.494V737.24h-72.216V456.731h-92.505v-60.1
	h257.215V456.731z"/>
</svg>
