<?xml version="1.0" encoding="utf-8"?>
<!-- Generator: Adobe Illustrator 14.0.0, SVG Export Plug-In . SVG Version: 6.00 Build 43363)  -->
<!DOCTYPE svg PUBLIC "-//W3C//DTD SVG 1.1//EN" "http://www.w3.org/Graphics/SVG/1.1/DTD/svg11.dtd">
<svg version="1.1"
	 id="svg8" sodipodi:docname="casi-amenazado-nt-evaluacion-conabio.svg" inkscape:version="0.92.4 (5da689c313, 2019-01-14)" xmlns:dc="http://purl.org/dc/elements/1.1/" xmlns:cc="http://creativecommons.org/ns#" xmlns:rdf="http://www.w3.org/1999/02/22-rdf-syntax-ns#" xmlns:svg="http://www.w3.org/2000/svg" xmlns:sodipodi="http://sodipodi.sourceforge.net/DTD/sodipodi-0.dtd" xmlns:inkscape="http://www.inkscape.org/namespaces/inkscape"
	 xmlns="http://www.w3.org/2000/svg" xmlns:xlink="http://www.w3.org/1999/xlink" x="0px" y="0px" width="2267.716px"
	 height="2267.717px" viewBox="108.091 251.263 2267.716 2267.717" enable-background="new 108.091 251.263 2267.716 2267.717"
	 xml:space="preserve">
<path fill="none" stroke="#000000" stroke-width="0.2646" d="M1241.969,260.451c-557.566,0-1009.525,451.948-1009.525,1009.565
	c0,246.009,88.097,471.483,234.397,646.603h-1.547c298.012,353.236,776.848,593.175,776.848,593.175
	s478.906-239.938,776.888-593.175h-1.913c146.271-175.12,234.337-400.594,234.337-646.603
	C2251.453,712.399,1799.536,260.451,1241.969,260.451z M1234.547,1723.135h-182.158L758.29,1211.73h-4.166
	c5.865,90.322,8.798,154.733,8.798,193.282v318.123h-128.08v-676.008h180.783l293.634,506.308h3.215
	c-4.632-87.873-6.927-149.981-6.927-186.362v-319.945h129V1723.135z M1849.094,1166.409h-183.572v556.727h-143.338v-556.727
	h-183.575v-119.281h510.485V1166.409z"/>
<sodipodi:namedview  id="base" inkscape:window-height="962" inkscape:document-units="mm" inkscape:window-x="-8" inkscape:window-y="-8" inkscape:pageopacity="0.0" inkscape:pageshadow="2" inkscape:current-layer="layer1" inkscape:window-width="1280" inkscape:window-maximized="1" borderopacity="1.0" bordercolor="#666666" showgrid="false" pagecolor="#ffffff" inkscape:cy="1991.7351" inkscape:cx="1988.9756" inkscape:zoom="0.14369886">
	</sodipodi:namedview>
</svg>
