<?xml version="1.0" encoding="utf-8"?>
<!-- Generator: Adobe Illustrator 14.0.0, SVG Export Plug-In . SVG Version: 6.00 Build 43363)  -->
<!DOCTYPE svg PUBLIC "-//W3C//DTD SVG 1.1//EN" "http://www.w3.org/Graphics/SVG/1.1/DTD/svg11.dtd">
<svg version="1.1"
	 id="svg8" sodipodi:docname="certificacion.svg" inkscape:version="0.92.4 (5da689c313, 2019-01-14)" xmlns:dc="http://purl.org/dc/elements/1.1/" xmlns:cc="http://creativecommons.org/ns#" xmlns:rdf="http://www.w3.org/1999/02/22-rdf-syntax-ns#" xmlns:svg="http://www.w3.org/2000/svg" xmlns:sodipodi="http://sodipodi.sourceforge.net/DTD/sodipodi-0.dtd" xmlns:inkscape="http://www.inkscape.org/namespaces/inkscape"
	 xmlns="http://www.w3.org/2000/svg" xmlns:xlink="http://www.w3.org/1999/xlink" x="0px" y="0px" width="2267.716px"
	 height="2267.717px" viewBox="-98.691 226.06 2267.716 2267.717" enable-background="new -98.691 226.06 2267.716 2267.717"
	 xml:space="preserve">
<sodipodi:namedview  id="base" inkscape:window-height="962" inkscape:document-units="mm" inkscape:window-x="-8" inkscape:window-y="-8" inkscape:pageopacity="0.0" inkscape:pageshadow="2" inkscape:current-layer="layer1" inkscape:window-width="1280" inkscape:window-maximized="1" borderopacity="1.0" bordercolor="#666666" showgrid="false" pagecolor="#ffffff" inkscape:cy="1084.3087" inkscape:cx="885.13635" inkscape:zoom="0.1400905">
	</sodipodi:namedview>
<g id="layer1" transform="translate(-138.8159,133.32216)" inkscape:groupmode="layer" inkscape:label="Capa 1">
	<path id="path3713" inkscape:connector-curvature="0" fill="none" stroke="#000000" stroke-width="0.2646" d="M712.316,915.863
		c0-253.098,208.57-461.667,461.667-461.667c253.095,0,461.666,208.57,461.666,461.667c0,255.44-208.571,461.667-461.666,461.667
		C920.886,1377.53,712.316,1171.302,712.316,915.863z M836.522,929.923l253.096,253.097l110.144-110.145l311.683-311.683
		l-110.143-110.146l-311.684,311.684L946.664,819.779L836.522,929.923z M494.372,735.414c18.748-18.749,28.122-44.526,23.434-70.306
		l-35.151-250.752l248.409-44.526c25.778-4.688,46.87-18.748,58.586-42.184l119.518-224.974l227.319,112.487
		c23.434,11.718,51.556,11.718,74.991,0l227.319-112.487l119.517,224.974c11.718,21.092,32.81,37.496,58.587,42.184l248.41,44.526
		l-35.152,250.752c-4.688,25.78,4.687,51.557,23.435,70.306l175.761,180.448l-175.761,182.792
		c-18.748,18.747-28.122,44.526-23.435,67.96l35.152,253.095l-248.41,42.184c-25.777,4.688-46.869,21.093-58.587,44.526
		l-119.517,222.633l-227.319-110.146c-11.717-7.03-25.778-9.375-37.495-9.375c-11.718,0-25.779,2.345-37.496,9.375l-227.319,110.146
		L789.651,1506.42c-11.716-23.434-32.808-39.839-58.586-44.526l-248.409-42.184l35.151-253.095
		c4.688-23.435-4.686-49.214-23.434-67.96L318.612,915.863L494.372,735.414z M592.798,915.863
		c0,321.059,260.128,581.185,581.186,581.185c321.057,0,581.185-260.126,581.185-581.185c0-321.058-260.128-581.186-581.185-581.186
		C852.926,334.677,592.798,594.805,592.798,915.863z M1942.648,2183.689c9.373,23.434-4.688,49.212-28.122,58.587
		c-14.062,2.343-25.779,2.343-37.497-2.345l-295.278-149.981l-171.074,241.378c-9.374,14.061-28.122,21.091-44.527,18.748
		c-2.343,0-4.687,0-9.374-2.345c-11.717-4.686-23.435-14.061-28.122-28.121l-149.982-456.979l-159.356,454.637
		c-4.688,14.06-14.062,25.777-28.122,30.463c-2.344,0-4.688,0-9.374,0c-16.405,4.688-32.81-4.686-42.183-18.745L768.56,2087.605
		l-297.623,147.641c-11.718,4.686-23.436,4.686-35.153,0c-25.778-7.03-37.495-32.811-30.464-56.244l192.166-595.244l112.488,18.745
		c25.778,4.688,49.212,23.436,60.929,46.871l126.549,234.349l239.036-117.173c11.716-7.033,23.434-9.375,37.496-9.375
		c14.061,0,25.778,4.688,37.495,9.375l239.037,117.173l126.547-236.693c11.718-23.433,35.151-39.839,60.931-44.526l98.427-16.402
		C1736.42,1586.1,1940.454,2160.724,1942.648,2183.689z"/>
</g>
</svg>
