<?xml version="1.0" encoding="utf-8"?>
<!-- Generator: Adobe Illustrator 18.0.0, SVG Export Plug-In . SVG Version: 6.00 Build 0)  -->
<!DOCTYPE svg PUBLIC "-//W3C//DTD SVG 1.1//EN" "http://www.w3.org/Graphics/SVG/1.1/DTD/svg11.dtd">
<svg version="1.1"
	 id="svg8" sodipodi:docname="certificacion.svg" inkscape:version="0.92.4 (5da689c313, 2019-01-14)" xmlns:dc="http://purl.org/dc/elements/1.1/" xmlns:cc="http://creativecommons.org/ns#" xmlns:rdf="http://www.w3.org/1999/02/22-rdf-syntax-ns#" xmlns:svg="http://www.w3.org/2000/svg" xmlns:sodipodi="http://sodipodi.sourceforge.net/DTD/sodipodi-0.dtd" xmlns:inkscape="http://www.inkscape.org/namespaces/inkscape"
	 xmlns="http://www.w3.org/2000/svg" xmlns:xlink="http://www.w3.org/1999/xlink" x="0px" y="0px"
	 viewBox="468.2 793 1133.9 1133.9" enable-background="new 468.2 793 1133.9 1133.9" xml:space="preserve">
<sodipodi:namedview  inkscape:window-height="962" inkscape:document-units="mm" inkscape:pageopacity="0.0" inkscape:current-layer="layer1" inkscape:pageshadow="2" inkscape:window-maximized="1" inkscape:window-x="-8" inkscape:window-y="-8" inkscape:window-width="1280" pagecolor="#ffffff" showgrid="false" bordercolor="#666666" borderopacity="1.0" inkscape:zoom="0.1400905" inkscape:cx="885.13635" inkscape:cy="1084.3087" id="base">
	</sodipodi:namedview>
<g id="layer1" transform="translate(-138.8159,133.32216)" inkscape:label="Capa 1" inkscape:groupmode="layer">
	<path id="path3713" inkscape:connector-curvature="0" fill="none" stroke="#000000" stroke-width="0.2646" d="M861.2,1234.1
		c-87.4-88.2-86.7-232.9,1.5-320.2s232.9-86.7,320.2,1.5c88.2,89,86.7,232.9-1.5,320.2S949.4,1323.1,861.2,1234.1z M909.4,1196.1
		l175.6,0.8l0.4-76.4l1-216.2l-76.4-0.4l-1,216.2l-99.2-0.5L909.4,1196.1z M723,1246.5c0.1-13-5.6-25.2-16.1-32.6l-98.8-75.2
		l71.2-101.3c7.4-10.5,9.9-22.7,5.8-34.9l-36-119.6l118-39.3c12.2-4,22-13.7,26.1-25.9L833.6,700l119.3,37.1
		c11.4,3.3,24.4,1.7,35-5.5l101.9-70.2l74.3,99.5c7.3,10.6,19.4,16.3,32.4,16.4l123.5,2.2l1.9,124.4c-0.1,13,5.6,25.2,15.3,31.8
		l99.6,76l-72,100.5c-7.4,10.5-9,23.5-5,35.7l35.2,118.8l-117.2,40.1c-6.5,1.6-12.2,5.6-16.3,9.7c-4.1,4-8.2,9.7-9.8,16.2
		l-41.2,116.9l-118.5-36.3c-12.2-4.1-25.2-2.6-35.8,4.7L955.2,1489L880,1388.6c-6.5-9.8-18.6-15.5-31.6-15.6l-124.3-3L723,1246.5z
		 M819.6,1275.4c110.8,111.9,291.3,112.7,403.1,1.8c111.9-110.8,112.7-291.3,1.8-403.1s-291.3-112.7-403.1-1.8
		S708.7,1163.5,819.6,1275.4z M1727.6,1251.1c11.4,4.9,15.4,18.8,10.4,30.1c-4.1,5.7-8.2,9.7-13.9,12.1l-154.7,49.7l23.7,143.2
		c1.6,8.1-2.5,17.1-9,21.9c-0.8,0.8-1.6,1.6-4.1,2.4c-5.7,2.4-13,3.2-19.5-0.1l-210-107.4l101.4,213.4c3.2,6.5,4,13.8,0.7,20.3
		c-0.8,0.8-1.6,1.6-3.3,3.2c-4.1,7.3-13,9.7-21.2,8l-142.9-25l-52.7,154.2c-2.5,5.7-6.5,9.7-12.2,12.1c-11.4,6.5-24.4,1.5-30-9.1
		l-138.5-273.7l45.7-32.3c10.6-7.3,25.2-8.8,37.4-4.7l125,38l42.8-123.4c1.7-6.5,4.9-11.4,9.8-16.2s10.6-7.3,16.3-9.7l123.7-41.7
		l-37.6-126.2c-4-12.2-1.5-26,5.9-36.5l28.6-39.7L1727.6,1251.1z"/>
</g>
</svg>
