<?xml version="1.0" encoding="utf-8"?>
<!-- Generator: Adobe Illustrator 14.0.0, SVG Export Plug-In . SVG Version: 6.00 Build 43363)  -->
<!DOCTYPE svg PUBLIC "-//W3C//DTD SVG 1.1//EN" "http://www.w3.org/Graphics/SVG/1.1/DTD/svg11.dtd">
<svg version="1.1"
	 id="svg8" sodipodi:docname="chondrichthyes.svg" inkscape:version="0.92.4 (5da689c313, 2019-01-14)" xmlns:dc="http://purl.org/dc/elements/1.1/" xmlns:cc="http://creativecommons.org/ns#" xmlns:rdf="http://www.w3.org/1999/02/22-rdf-syntax-ns#" xmlns:svg="http://www.w3.org/2000/svg" xmlns:sodipodi="http://sodipodi.sourceforge.net/DTD/sodipodi-0.dtd" xmlns:inkscape="http://www.inkscape.org/namespaces/inkscape"
	 xmlns="http://www.w3.org/2000/svg" xmlns:xlink="http://www.w3.org/1999/xlink" x="0px" y="0px" width="2267.717px"
	 height="2267.717px" viewBox="280.482 -216.507 2267.717 2267.717" enable-background="new 280.482 -216.507 2267.717 2267.717"
	 xml:space="preserve">
<sodipodi:namedview  id="base" inkscape:window-height="962" inkscape:document-units="mm" inkscape:window-x="-8" inkscape:window-y="-8" inkscape:pageopacity="0.0" inkscape:pageshadow="2" inkscape:current-layer="layer1" inkscape:window-width="1280" inkscape:window-maximized="1" borderopacity="1.0" bordercolor="#666666" showgrid="false" pagecolor="#ffffff" inkscape:cy="1376.823" inkscape:cx="2223.2178" inkscape:zoom="0.14369886">
	</sodipodi:namedview>
<g id="layer1" transform="translate(1.1088613,-28.194236)" inkscape:groupmode="layer" inkscape:label="Capa 1">
	<path id="path3713_2_" inkscape:connector-curvature="0" fill="none" stroke="#000000" stroke-width="0.2646" d="
		M1529.292,1083.515c-0.232-30.403,42.27-96.822,83.938-129.311c11.345-6.805,29.493-6.805,27.225-27.223
		c0-20.417-20.418-20.417-34.029-24.954c-81.874-19.45-165.454-30.847-249.544-34.028c-41.955-0.815-82.527-15.136-115.699-40.835
		C1093.583,708.231,935.669,602.702,769.316,511.83c-152.198-77.591-295.249-171.944-426.495-281.304
		c-13.611-11.343-27.222-24.956-47.64-15.881c-18.149,11.343-13.612,31.76-11.343,47.641c4.506,48.522,16.76,96.01,36.297,140.652
		c11.344,24.956,34.028,49.91,27.223,77.132c-13.611,58.984,13.611,99.818,43.103,142.922
		c16.265,22.076,33.682,43.278,52.178,63.521c70.327,79.399,115.698,179.217,195.098,249.544
		c75.821,59.615,124.796,146.955,136.116,242.74c11.883,70.98,42.417,137.527,88.475,192.828
		c6.806,11.342,13.611,27.224,29.492,24.954c18.149-4.536,13.611-22.685,15.88-34.028c9.075-38.566,20.417-79.399,29.492-117.966
		c4.538-22.688,13.612-24.954,36.297-11.344c88.475,61.251,176.95,122.503,267.693,179.219
		c30.235,17.297,51.069,47.296,56.715,81.668c8.893,37.29,21.038,73.727,36.297,108.894c13.611,31.76,31.761,34.028,56.714,11.343
		c31.76-27.224,63.52-56.716,97.549-83.938c41.009-26.15,94.645-20.505,129.309,13.612c63.521,61.252,65.79,63.521,129.311,2.269
		c14.01-16.261,36.85-21.742,56.715-13.612c19.282,6.301,31.562,25.192,29.492,45.373c0.178,22.013-1.339,44.009-4.538,65.788
		c-6.806,34.029,9.075,43.103,36.298,29.492c41.41-15.72,79.22-39.641,111.16-70.326c29.76-31.93,70.029-52.065,113.43-56.715
		c88.014-14.799,172.584-45.551,249.545-90.744c18.736-12.461,39.445-21.665,61.251-27.223
		c58.983-9.074,90.743-56.715,131.578-88.475c9.075-6.806,18.148-20.418,9.075-31.76c-11.344-11.344-22.687-2.269-34.029,2.269
		c-29.492,13.61-56.715,27.223-86.206,38.564c-162.528,65.829-340.827,82.396-512.7,47.641
		c-38.566-9.074-63.521-20.417-18.149-54.445c11.218-10.902,21.117-23.085,29.491-36.297c6.807-9.075,22.688-15.881,13.612-31.761
		c-11.344-18.149-27.225-6.807-38.567-4.537c-124.771,29.492-258.064-33.33-318.366-98.017
		C1554.744,1148.539,1529.571,1119.992,1529.292,1083.515z"/>
</g>
</svg>
