<?xml version="1.0" encoding="utf-8"?>
<!-- Generator: Adobe Illustrator 18.0.0, SVG Export Plug-In . SVG Version: 6.00 Build 0)  -->
<!DOCTYPE svg PUBLIC "-//W3C//DTD SVG 1.1//EN" "http://www.w3.org/Graphics/SVG/1.1/DTD/svg11.dtd">
<svg version="1.1"
	 id="svg8" xmlns:dc="http://purl.org/dc/elements/1.1/" xmlns:cc="http://creativecommons.org/ns#" xmlns:rdf="http://www.w3.org/1999/02/22-rdf-syntax-ns#" xmlns:svg="http://www.w3.org/2000/svg" xmlns:sodipodi="http://sodipodi.sourceforge.net/DTD/sodipodi-0.dtd" xmlns:inkscape="http://www.inkscape.org/namespaces/inkscape" sodipodi:docname="chondrichthyes.svg" inkscape:version="0.92.4 (5da689c313, 2019-01-14)"
	 xmlns="http://www.w3.org/2000/svg" xmlns:xlink="http://www.w3.org/1999/xlink" x="0px" y="0px" viewBox="0 0 2267.7 2267.7"
	 enable-background="new 0 0 2267.7 2267.7" xml:space="preserve">
<sodipodi:namedview  borderopacity="1.0" bordercolor="#666666" showgrid="false" pagecolor="#ffffff" inkscape:cy="1376.823" inkscape:cx="2223.2178" inkscape:zoom="0.14369886" id="base" inkscape:document-units="mm" inkscape:pageshadow="2" inkscape:window-x="-8" inkscape:current-layer="layer1" inkscape:window-height="962" inkscape:window-y="-8" inkscape:pageopacity="0.0" inkscape:window-width="1280" inkscape:window-maximized="1">
	</sodipodi:namedview>
<path fill="none" stroke="#000000" stroke-width="0.2646" d="M1249.2,1271.3c-0.4-30.3,42.1-96.3,83.4-128.8
	c11.1-6.6,29.5-6.6,26.9-26.9c0-20.3-20.3-20.3-34-24.7c-81.6-19.6-165-30.6-248.4-34c-41.7-0.7-82.3-15.1-115.2-40.6
	C815.1,897.7,657.8,792.5,491.7,702.1C340.4,624.6,197.9,530.5,67.2,421.6c-13.7-11.1-26.9-24.7-47.2-15.9
	C1.9,416.8,6.3,437.4,8.9,452.9c4.4,48.4,16.6,95.6,36.2,140.3C56.1,617.9,79,643,72,670c-13.7,58.7,13.7,99.3,42.8,142.5
	c16.2,22.1,33.6,43.2,52,63.1c70.1,79,115.2,178.7,194.5,248.4c75.7,59.4,124.4,146.5,135.5,241.8c11.8,70.9,42.1,136.9,88.2,191.9
	c6.6,11.1,13.7,26.9,29.5,24.7c18.1-4.4,13.7-22.5,15.9-34c9.2-38.4,20.3-79,29.5-117.4c4.4-22.5,13.7-24.7,36.2-11.1
	c88.2,60.9,176.1,122.2,266.5,178.7c30.3,17.3,50.9,47.2,56.5,81.2c8.9,37.3,21,73.5,36.2,108.5c13.7,31.7,31.7,34,56.5,11.1
	c31.7-26.9,63.1-56.5,97.1-83.4c41-26.2,94.1-20.3,128.8,13.7c63.1,60.9,65.7,63.1,128.8,2.2c14-16.2,36.5-21.8,56.5-13.7
	c19.2,6.3,31.4,25.1,29.5,45.4c0.4,21.8-1.5,43.9-4.4,65.7c-6.6,34,9.2,42.8,36.2,29.5c41.3-15.5,79-39.5,110.7-70.1
	c29.5-31.7,69.8-52,113-56.5c87.5-14.8,172-45.4,248.4-90.4c18.5-12.6,39.1-21.8,60.9-26.9c58.7-9.2,90.4-56.5,131-88.2
	c9.2-6.6,18.1-20.3,9.2-31.7c-11.1-11.1-22.5-2.2-34,2.2c-29.5,13.7-56.5,26.9-86,38.4c-162,65.7-339.6,81.9-510.9,47.2
	c-38.4-9.2-63.1-20.3-18.1-54.3c11.1-10.7,21-22.9,29.5-36.2c6.6-9.2,22.5-15.9,13.7-31.7c-11.1-18.1-26.9-6.6-38.4-4.4
	c-124.4,29.5-257.3-33.2-317.1-97.5C1274.6,1336.3,1249.5,1307.9,1249.2,1271.3z"/>
</svg>
