<?xml version="1.0" encoding="utf-8"?>
<!-- Generator: Adobe Illustrator 18.0.0, SVG Export Plug-In . SVG Version: 6.00 Build 0)  -->
<!DOCTYPE svg PUBLIC "-//W3C//DTD SVG 1.1//EN" "http://www.w3.org/Graphics/SVG/1.1/DTD/svg11.dtd">
<svg version="1.1"
	 id="svg8" sodipodi:docname="chondrichthyes.svg" inkscape:version="0.92.4 (5da689c313, 2019-01-14)" xmlns:dc="http://purl.org/dc/elements/1.1/" xmlns:cc="http://creativecommons.org/ns#" xmlns:rdf="http://www.w3.org/1999/02/22-rdf-syntax-ns#" xmlns:svg="http://www.w3.org/2000/svg" xmlns:sodipodi="http://sodipodi.sourceforge.net/DTD/sodipodi-0.dtd" xmlns:inkscape="http://www.inkscape.org/namespaces/inkscape"
	 xmlns="http://www.w3.org/2000/svg" xmlns:xlink="http://www.w3.org/1999/xlink" x="0px" y="0px"
	 viewBox="847.4 350.4 1133.9 1133.9" enable-background="new 847.4 350.4 1133.9 1133.9" xml:space="preserve">
<sodipodi:namedview  inkscape:window-height="962" inkscape:document-units="mm" inkscape:pageopacity="0.0" inkscape:current-layer="layer1" inkscape:pageshadow="2" inkscape:window-maximized="1" inkscape:window-x="-8" inkscape:window-y="-8" inkscape:window-width="1280" pagecolor="#ffffff" showgrid="false" bordercolor="#666666" borderopacity="1.0" inkscape:zoom="0.14369886" inkscape:cx="2223.2178" inkscape:cy="1376.823" id="base">
	</sodipodi:namedview>
<g id="layer1" transform="translate(1.1088613,-28.194236)" inkscape:label="Capa 1" inkscape:groupmode="layer">
	<path id="path3713_2_" inkscape:connector-curvature="0" fill="none" stroke="#000000" stroke-width="0.2646" d="M1441.3,1091.2
		c14.3-33.1,35-49.1,63.4-61.3c7.4-2.2,17.7,0.5,19.4-11.4c3-11.6-8.5-14.6-15.6-19.2c-43.5-23.1-89.1-41.9-136.2-56.2
		c-23.6-6.7-44.5-20.8-59.4-40.2c-65.9-89.1-139.7-172.2-220.4-248.2c-74.7-66.4-141.7-141-199.8-222.3c-6-8.4-11.7-18.1-24.6-16
		c-11.9,3.7-12.4,16-13.5,25.3c-4.6,28.1-4.7,56.8-0.3,85c2.7,15.8,11.9,33.3,4,47.7c-16.4,31.4-7.1,58.5,3.3,87.3
		c5.9,14.9,12.7,29.5,20.1,43.7c28.1,55.3,39,118.5,73.5,170.1c34.1,44.9,48.9,101.6,41.1,157.5c-3.8,41.9,3.7,84.1,21.6,122.2
		c2.2,7.4,3.7,17.4,13,18.5c10.9,0.1,11.1-10.8,14-16.9c10.8-20.5,23.3-41.9,34.1-62.4c5.9-12.2,11.4-12.1,22.2-1.1
		c41,47.7,82,95.5,125,141c14.6,14.3,21.9,34.3,20,54.6c-0.5,22.4,1,44.8,4.4,67c3,20,12.9,24,30.4,14.8
		c22-10.7,44.3-22.7,67.6-33.1c27.1-8.7,56.6,2.4,71.2,26.8c26.9,44.1,27.8,45.7,72.8,20.4c10.3-7.1,24.1-6.9,34.1,0.7
		c10,6.4,14.1,18.9,10,30c-3.2,12.5-7.3,24.7-12.3,36.6c-8.9,18.3-1.2,25.7,16.2,22.1c25.8-2.8,50.7-10.7,73.3-23.4
		c21.6-13.7,47.3-19.1,72.6-15.3c52,4.6,104.4-0.3,154.6-14.5c12.4-4.3,25.5-6.4,38.7-6.4c34.7,3.6,59.7-18.7,87.5-30.6
		c6.1-2.5,13.3-8.9,9.8-16.6c-4.7-8.1-12.5-4.6-19.6-3.7c-18.7,3.3-36.1,7-54.5,9.1c-101.7,13.2-205.1-3.8-297.2-48.8
		c-20.5-10.8-32.9-20.9-2.2-33.5c8-4.5,15.4-9.9,22.1-16.2c5.2-4.1,15.2-5.6,12.4-16c-3.7-11.9-14.4-7.9-21.2-8.3
		c-75-1.8-125.4-27.8-162.1-104.1C1449.1,1133.1,1440.6,1124,1441.3,1091.2z"/>
</g>
</svg>
