<?xml version="1.0" encoding="utf-8"?>
<!-- Generator: Adobe Illustrator 18.0.0, SVG Export Plug-In . SVG Version: 6.00 Build 0)  -->
<!DOCTYPE svg PUBLIC "-//W3C//DTD SVG 1.1//EN" "http://www.w3.org/Graphics/SVG/1.1/DTD/svg11.dtd">
<svg version="1.1"
	 id="svg8" sodipodi:docname="cites.svg" inkscape:version="0.92.4 (5da689c313, 2019-01-14)" xmlns:dc="http://purl.org/dc/elements/1.1/" xmlns:cc="http://creativecommons.org/ns#" xmlns:rdf="http://www.w3.org/1999/02/22-rdf-syntax-ns#" xmlns:svg="http://www.w3.org/2000/svg" xmlns:sodipodi="http://sodipodi.sourceforge.net/DTD/sodipodi-0.dtd" xmlns:inkscape="http://www.inkscape.org/namespaces/inkscape"
	 xmlns="http://www.w3.org/2000/svg" xmlns:xlink="http://www.w3.org/1999/xlink" x="0px" y="0px"
	 viewBox="1946.9 849.1 1133.9 1133.9" enable-background="new 1946.9 849.1 1133.9 1133.9" xml:space="preserve">
<sodipodi:namedview  inkscape:window-height="962" inkscape:document-units="mm" inkscape:pageopacity="0.0" inkscape:current-layer="layer1" inkscape:pageshadow="2" inkscape:window-maximized="1" inkscape:window-x="-8" inkscape:window-y="-8" inkscape:window-width="1280" pagecolor="#ffffff" showgrid="false" bordercolor="#666666" borderopacity="1.0" inkscape:zoom="0.1400905" inkscape:cx="1410.1257" inkscape:cy="1174.2849" id="base">
	</sodipodi:namedview>
<g id="layer1" transform="translate(0.08753925,149.13229)" inkscape:label="Capa 1" inkscape:groupmode="layer">
	<path id="path3713" inkscape:connector-curvature="0" fill="none" stroke="#000000" stroke-width="0.2646" d="M2521.7,1084.4
		l104.3,98.4l-253.9,269l123.5,116.6c83.9-88.9,169.4-179.5,253.9-269c33.5,31.6,67,65.3,101,95.3c21.4-46.9,43.7-94,66.9-141.3
		l-259.1-244.5C2613.6,1033.2,2567.4,1059.1,2521.7,1084.4z M3080.3,1476.7c-9.1-28-25.9-52.9-48.5-71.7
		c-43.2-35.6-90.6-30.5-131.1-10.6l31.8,30c-26.4,59.5-53.3,119.2-80.8,179.1l-53.8-50.8c-9,21.6-18.3,49.1-26.2,71.8
		c-2.5,8.3-5.7,16.5-9.4,24.3c-8.1,15.2-26,25.3-37.4,17.6c-9.2-5.6-14.3-15.6-24.2-22.8c-25.2,15.7-49.8,31.9-75,47.6
		c21.4,20.2,45,40.3,64.8,61.1c-10.5,6.7-21,13.4-32,20.7c48,54.7,98.7,70.3,147.2,50.7c17.7-6.8,34.1-16.6,48.3-29.2
		c22.9-21,27.6-41.4,36-64.6c12.8-38.8,23.6-70.1,36.4-107.8c5.4-17.8,10.4-47.3,29.8-58c16.7-9.6,37.6-7.4,51.9,5.4
		c7.9,8.8,13.2,19.5,15.3,31.1c0,1.1-0.4,3.7,1.7,3.7C3042.8,1562.7,3061.8,1519.5,3080.3,1476.7z M2855.4,1416l-103.2-97.4
		L2498.9,1587l-48.3-45.6l-87.6,92.8l194.3,183.4c36.7-23.5,74.4-48.1,111.7-71c-30.7-29-63.1-57.4-92.2-87l41.4-43.9l37.9,35.7
		c36-23.5,72-46.9,108-70.4l-54.9-51.8c13.5-14.3,26.4-30.1,39.9-42.3l98.8,93.3c23.6-51.4,45.6-102.2,68.7-154.2l-44.5-42
		C2865.4,1393.3,2862,1405.6,2855.4,1416z M2482,1072.1c-0.8-0.1-1.6,0.4-1.7,1.2L2144,1429.6c39.5,37.3,80.7,76.2,120.8,114
		c111.9-118.6,225.4-238.8,337.8-357.9c-39-36.8-80.1-75.6-120.2-113.5C2482.2,1072.2,2482.1,1072.1,2482,1072.1z M2065.1,1320.8
		c-22.9,22,14.5,58.3,35.2,35.3c0.6-0.7,1.1-1.5,1.6-2.3c7.1-11.3,3.8-26.2-7.5-33.3C2085.9,1313.4,2073.4,1313.5,2065.1,1320.8z
		 M2071.6,1323.9c5.4-3.2,12.2-3.2,17.6,0c2.7,1.3,5,3.2,6.7,5.5c6,8,4.3,19.4-3.7,25.3c-16.7,12.2-42.7-17.5-21.2-31.4
		L2071.6,1323.9z M2080.2,1326.8c-19.1,3.8-9.1,35,8.1,22.2c-5-5.7-7.4,1.3-11.3-2.3c-7.7-6.2,4.3-18.8,11.4-12.1
		c3.3,4.2-2,5.4,4.6,10.5C2099.7,1336.9,2088.2,1326,2080.2,1326.8z M2020.1,1095.7c18.9,26.3,41.9,49.5,68.2,68.5
		c23.1,16.3,48,29.7,74.3,40c41.6,18,85.7,29.5,130.7,34.1c6.2,3,13.6,1.5,18-3.7c-10.7-1.8-21.4-1.5-32.7-3.9
		c-34.8-5.8-68.9-15.4-101.7-28.6c-51.9-17.6-98.2-48.5-134.5-89.5c-17-20.2-31.6-42.4-43.6-66c-32.1-61.3-47.9-129.8-45.8-198.9
		c13.6,62.6,31.7,135.8,90.6,197.6c20,20.5,42.6,38.3,67.2,53.1c41.5,26,87.7,43.5,136,51.6c33.2,6.5,66.9,10.5,100.7,12
		c11,1.9,22.1,1.9,33.1,0.1c4.8-4.1,9.1-8.7,13-13.7l40.4-42.8c-41.3-5.7-89.8-4.9-130.1-49.1c-16.3-18-26.5-40.7-29.1-64.8
		c-3.4-22.6,0.8-45.6,12-65.5c24.5-44.7,76.5-66.5,125.6-52.8c25.5,6.4,48.6,20.2,66.3,39.7c16.2,18.8,28.3,40.8,35.5,64.6
		c41.5-24.2,83.5-46.7,124.5-70.3c-14.7-37.2-35.3-71.8-61.2-102.3c-28-33.6-63-60.7-102.7-79.3c-66.5-29-142-29.3-208.8-0.9
		c-39.1,16.7-74,41.9-102,74c-26.4,30.4-44.8,66.9-53.5,106.2c-6.9,34.4-6.8,69.8,0.3,104.1c6.5,36.4,19.1,71.4,37.2,103.6
		c-31-16.3-59.9-36.2-86.1-59.4c-25.5-24-46.6-52.3-62.2-83.6c-26.4-52.8-42.8-110.1-48.1-168.9"/>
</g>
</svg>
