<?xml version="1.0" encoding="utf-8"?>
<!-- Generator: Adobe Illustrator 18.0.0, SVG Export Plug-In . SVG Version: 6.00 Build 0)  -->
<!DOCTYPE svg PUBLIC "-//W3C//DTD SVG 1.1//EN" "http://www.w3.org/Graphics/SVG/1.1/DTD/svg11.dtd">
<svg version="1.1"
	 id="svg8" xmlns:dc="http://purl.org/dc/elements/1.1/" xmlns:cc="http://creativecommons.org/ns#" xmlns:rdf="http://www.w3.org/1999/02/22-rdf-syntax-ns#" xmlns:svg="http://www.w3.org/2000/svg" xmlns:sodipodi="http://sodipodi.sourceforge.net/DTD/sodipodi-0.dtd" xmlns:inkscape="http://www.inkscape.org/namespaces/inkscape" inkscape:version="0.92.4 (5da689c313, 2019-01-14)" sodipodi:docname="cites.svg"
	 xmlns="http://www.w3.org/2000/svg" xmlns:xlink="http://www.w3.org/1999/xlink" x="0px" y="0px" viewBox="0 0 2267.7 2267.7"
	 enable-background="new 0 0 2267.7 2267.7" xml:space="preserve">
<sodipodi:namedview  inkscape:zoom="0.1400905" inkscape:cx="1410.1257" inkscape:cy="1174.2849" pagecolor="#ffffff" showgrid="false" bordercolor="#666666" borderopacity="1.0" id="base" inkscape:window-maximized="1" inkscape:pageopacity="0.0" inkscape:window-y="-8" inkscape:window-x="-8" inkscape:document-units="mm" inkscape:window-width="1280" inkscape:window-height="962" inkscape:current-layer="layer1" inkscape:pageshadow="2">
	</sodipodi:namedview>
<path fill-rule="evenodd" clip-rule="evenodd" fill="none" stroke="#000000" stroke-miterlimit="10" d="M1113.3,657.6
	c199.9,0,399.7,0,599.6,0c26.7,84.4,54.2,168.1,82.2,251.2c-76.2,2.2-156.4,0.3-234.2,0.9c-0.6,207.4,1.3,417.4-0.9,623.2
	c-95.1,0-190.1,0-285.2,0c0-208.1,0-416.1,0-624.2c-80.6,0-161.2,0-241.7,0C1059.3,824.5,1085.6,740.4,1113.3,657.6z M2171.8,743.5
	c-37.4-20.5-86.7-36.3-142.6-33c-93.7,5.5-146.2,67.2-173.7,137.9c23.9,0,47.8,0,71.8,0c36.7,104,73,208.4,108.6,313.5
	c-41.9,0-83.7,0-125.6,0c15.3,36.1,35.4,80.9,51.9,118c6.1,13.7,13.7,27.5,17,40.6c7.2,28.2-3,60.5-25.5,65.2
	c-18.1,3.7-35.8-2.8-55.7,0c-12.9,47.6-24.7,96.2-36.8,144.5c49.7,0.6,102-1.3,150.1,0.9c-5,21.2-11,41.3-16.1,62.3
	c123.3,11.7,202.5-27.6,239.8-107.6c12.6-27,24.1-58.9,26.4-91.6c3.8-52.5-14-82.5-31.2-120.9c-28.1-62.9-51.8-113.7-80.3-174.7
	c-13-27.8-41-69.9-30.2-105.8c8.6-28.5,37.7-54.1,70.8-52.9c22.8,0.9,41,11.9,54.8,20.8c1.6,1.1,4,5,6.6,2.8
	C2224.7,890.8,2198.4,817,2171.8,743.5z M1826.2,928.6c-80,0-159.9,0-239.8,0c0,207.4,0,414.8,0,622.3c-37.5,0-74.9,0-112.4,0
	c0,72.7,0,145.4,0,218.1c150.1,0,300.3,0,450.4,0c18.7-72,36.1-145.2,54.8-217.2c-70.8-0.6-144.2,1.3-213.4-0.9
	c0-34.3,0-68.6,0-102.9c28.6,0,57.3,0,85.9,0c17.2-70.6,34.6-141.1,51.9-211.5c-42.5,0-85,0-127.5,0c0.6-32.1-1.3-66.7,0.9-97.3
	c76.2,0,152.3,0,228.5,0c-30.6-89.9-62.2-178.9-93.5-268.2c-34.6,0-69.2,0-103.9,0C1810.9,889.8,1821.7,908.6,1826.2,928.6z
	 M968.8,941.8c0,275.7,0,551.4,0,827.2c91.3,2.2,186.6,0.3,279.5,0.9c2.2-274.8,0.3-553.7,0.9-830c-91-2.2-186-0.3-278.6-0.9
	C969.5,939.4,968.8,940.2,968.8,941.8z M746.9,1727.2c-3.5,54,84.6,54.9,83.1,1.9c-0.7-23-21.8-40.5-48.2-36.8
	C763.4,1694.9,748.2,1707.1,746.9,1727.2z M780,1702.7c22.6-4.9,44.6,9.5,39.7,34c-6.9,34.5-72,28.4-62.3-14.2
	C759.2,1714.4,767.9,1705.3,780,1702.7z M772.4,1716.8c-19.6,26.9,29.3,52.9,35.9,17.9c-13.5-2.1-8.1,8.2-17,9.4
	c-17.2,2.5-17.4-28.5-0.9-27.4c8.7,0.6,3.7,9.4,17.9,7.6C807.6,1705.7,780.2,1706.2,772.4,1716.8z M430.6,1501.8
	c52.4,11.3,110.6,12.8,162.4,6.6c51.2-6.1,97.4-22.2,138.8-37.8c74.4-28.1,143.4-63.7,200.2-108.6c8.1-6.4,22-12.2,17.9-26.4
	c-15.6,9.5-29,22.3-44.4,33c-47.4,33.1-102.2,58.8-158.6,82.2c-75.5,31.2-161.7,58.6-269.1,47.2c-44.8-4.8-89.7-16.1-129.4-30.2
	c-117.3-41.6-216.5-109.9-287.1-191.7c89.4,62.6,196.6,129.4,339.9,137.9c48.8,2.9,98-3.6,144.5-13.2
	c92.3-19.1,155.8-49.1,225.7-93.5c47.8-30.3,93.5-64.5,136.9-102c9-7.8,38.8-28,41.5-38.7c2.2-8.5,0-21.3,0-32.1
	c0-33.1,0-68.8,0-99.1c-56.8,41.6-116.5,99.1-216.2,90.6c-46.1-3.9-81.2-21.3-110.5-45.3c-28.6-23.4-51.8-54.1-61.4-94.4
	c-24.2-101.6,29.7-173.1,92.5-209.6c33.4-19.4,78.5-31.7,127.5-28.3c46.2,3.2,83.8,20.3,118,37.8c23.7-77.1,48.2-153.3,71.8-230.4
	c-56.9-26.3-119.5-46.4-193.6-54.8c-79-9-157.3,1.1-218.1,22.7c-116.6,41.3-209.2,131.1-256.8,239.8
	c-25.9,59.1-41.9,131.9-38.7,207.7c3.2,75.9,25.7,138.5,56.7,191.7c29.8,51.2,73.9,92.8,120.9,127.5c48.4,35.8,103.7,64.7,165.2,84
	c-53.7,13-111.6,28.3-174.7,28.3c-64.1,0-123.1-12.9-172.8-31.2c-98-36.1-186.8-90.6-254-151.1C99,1358.7,238.1,1460.4,430.6,1501.8
	z"/>
</svg>
