<?xml version="1.0" encoding="utf-8"?>
<!-- Generator: Adobe Illustrator 18.0.0, SVG Export Plug-In . SVG Version: 6.00 Build 0)  -->
<!DOCTYPE svg PUBLIC "-//W3C//DTD SVG 1.1//EN" "http://www.w3.org/Graphics/SVG/1.1/DTD/svg11.dtd">
<svg version="1.1"
	 id="svg8" xmlns:dc="http://purl.org/dc/elements/1.1/" xmlns:cc="http://creativecommons.org/ns#" xmlns:rdf="http://www.w3.org/1999/02/22-rdf-syntax-ns#" xmlns:svg="http://www.w3.org/2000/svg" xmlns:sodipodi="http://sodipodi.sourceforge.net/DTD/sodipodi-0.dtd" xmlns:inkscape="http://www.inkscape.org/namespaces/inkscape" inkscape:version="0.92.4 (5da689c313, 2019-01-14)" sodipodi:docname="cnidaria.svg"
	 xmlns="http://www.w3.org/2000/svg" xmlns:xlink="http://www.w3.org/1999/xlink" x="0px" y="0px" viewBox="0 0 2267.7 2267.7"
	 enable-background="new 0 0 2267.7 2267.7" xml:space="preserve">
<path fill="none" stroke="#000000" stroke-width="0.2646" d="M824.1,1673.4c-60.3-20.4-138-28.8-163.3-122
	c-22.2-77.4-76-148.4-152.5-196.2c-38.5-22.4-66-6.2-93.4,10c-30.9,18.6-42.3,47-30.7,82.7c10.5,41.6,27.5,81.4,38.6,120.1
	c21.6,80.3,0.8,110-80.8,122.2c-18.8,2.6-40.5,4.6-56.9,10.7c-45.7,15.9-94.3,31.2-125,65.1c-37.7,38.7-31,101,2.5,150
	c30.6,48.4,79,17.8,113.1,15c93.4-10,178.6-58.2,278.7-54.8c103.5,1,201.7-2,289.1,69.2c16,12.1,38,25.4,59.2,26.3
	c57.1,4.6,96.4,39.3,138.6,74.7c26.2,23.2,55.3,46.9,82,67.2c68.9,55.6,148.2,88.7,226.3,127.6c33.2,18.4,67.5,30.9,91.9,14.1
	c31.5-21.6,23.9-62.7,12.3-98.4c-40.3-111.2-80.5-222.5-127.2-331.8c-12.2-32.8-47-42.3-52.2-79.9c-17-88.6-33.5-180.1-73.4-260.8
	c-10.9-23.4-22.3-43.8-30.3-66.7c-12.4-48.1,6.2-66,52.1-66.6c48.8,0,97.8,15.2,146.1,18.1c92.5,11.2,184.8,7,271.3-31.7
	c69.6-29.7,135-69.4,200.3-109.1c21-14.4,32.8-12.2,51.8,0.5c21.4,16.2,29.3,39,47.2,57.6c17.9,18.6,40.6,44.2,70.4,31.4
	c29.8-12.7,32.4-42.8,29-73.9c-3.9-28.2-4.3-58.8-17.6-85.6c-8.5-19.9-5.2-37.6,15.2-49c51.9-33,63.5-94.9,91.1-144.7
	c12.7-19,0.2-33.5-6.5-47c-12-17.5-29.5-5.5-39.4-1.3c-36.3,14.6-58.9,37.8-83.2,69.9c-2-21.7-8.7-35.2-5.9-49.9
	c7.2-38.3-6.1-65.2-45-69.4c-38.9-4.2-61,16.1-70.5,50.9c-23.1,75-43.3,150.5-133.6,176.4c-61,16.1-112.1,61.4-182.1,60.6
	c33.4-97.5,82.4-179.9,123-266.9c75.6-159.8,150.6-316.6,239.8-467.8c62.2-104.3,116.6-216.2,89-346.4
	c-8.7-35.2-17.9-67.4-60.3-69.2c-38.9-4.2-50.8,27.1-57.4,62.5c-3.8,20.6-7.7,41.3-12.1,64.9c-18.2,97.3-41.5,108.2-131.5,67
	c-87-40.6-175.1-75.4-276.6-54.6c-15.8,3.1-30.6,0.4-33.9,18.1c-6.2,17.1,2.8,34.1,14,39.2c39.1,19.5,68.4,58.5,110.2,63.3
	c61.9,11.5,103.6,49.8,148.7,85.7c32.1,24.3,32.5,54.9,10.6,90.4c-73.8,117.4-152.9,230.8-210.1,357.4
	c-38.8,93.4-85.9,182.3-130,271.7c-8.6,13.6-9.9,53.1-43.1,34.7c-42-20-84.4-21.8-125.7-29.5c-29.5-5.5-39.1-19.5-39.5-50.1
	c-4.6-40.5,12.5-83.1,4.3-121.2c-24-83.8-10.5-172.8-4.5-254c6.6-84.2-1.1-174.1,23.7-257.9c15.2-49-14.1-88-57.9-114.5
	c-32.6-21.3-66.4-36.8-105.4-7.5c-42.5,31.7-76.8,68-60.1,126.1c11.8,51-28.3,86.2-45.4,128.8c-1.7,8.8-21.5,17.3-44.6,10
	c-31.3-11.9-69.7-19.1-105-25.7c-38.3-7.1-112,27.9-122.8,53.4c-15.8,52,4.1,92.3,65.7,122.1c44.4,23.5,85.9,46.5,126.8,72.5
	c24.9,13.8,41.7,38.3,30.3,66.7c-14.9,30.8-26.3,59.2-27,95.6c3.1,15.8-7.3,23-18,14.9c-46.8-27-103.2-19.3-148.1-39.8
	c-36.7-16-88.4-16.5-106-53.3c-27.9-63.2-84.1-88.9-135.7-122.9c-38-25.4-69.7-19.1-102.8,11.3c-39.6,32.3-27.4,65.1-15.8,100.8
	c10.3,26.3,31.7,42.5,49.6,61.1c20.8,19.1,31.2,45.5,12.6,63.4c-36.1,29.9-48.4,79.4-78.6,110.4c-22.1,20.3-27.6,49.8-13.8,73.7
	c14.9,18,36.9,31.3,68,27.9c48.8,0,84.3-27,121.7-47.5c17.5-12,33.9-18.1,54-11.3c85.1,34.2,175.4,57.1,264.6,86
	c31.9,9,62.1,26.8,75,72c7.4,25.8-2.4,45.3,5.6,68.2c34,128.4,55.1,260.4,73.9,389C961.2,1723.4,794.2,1663.7,824.1,1673.4z"/>
</svg>
