<?xml version="1.0" encoding="utf-8"?>
<!-- Generator: Adobe Illustrator 18.0.0, SVG Export Plug-In . SVG Version: 6.00 Build 0)  -->
<!DOCTYPE svg PUBLIC "-//W3C//DTD SVG 1.1//EN" "http://www.w3.org/Graphics/SVG/1.1/DTD/svg11.dtd">
<svg version="1.1"
	 id="svg8" sodipodi:docname="cnidaria.svg" inkscape:version="0.92.4 (5da689c313, 2019-01-14)" xmlns:dc="http://purl.org/dc/elements/1.1/" xmlns:cc="http://creativecommons.org/ns#" xmlns:rdf="http://www.w3.org/1999/02/22-rdf-syntax-ns#" xmlns:svg="http://www.w3.org/2000/svg" xmlns:sodipodi="http://sodipodi.sourceforge.net/DTD/sodipodi-0.dtd" xmlns:inkscape="http://www.inkscape.org/namespaces/inkscape"
	 xmlns="http://www.w3.org/2000/svg" xmlns:xlink="http://www.w3.org/1999/xlink" x="0px" y="0px"
	 viewBox="292.4 530.3 1133.9 1133.9" enable-background="new 292.4 530.3 1133.9 1133.9" xml:space="preserve">
<sodipodi:namedview  inkscape:window-height="962" inkscape:document-units="mm" inkscape:pageopacity="0.0" inkscape:current-layer="layer1" inkscape:pageshadow="2" inkscape:window-maximized="1" inkscape:window-x="-8" inkscape:window-y="-8" inkscape:window-width="1280" pagecolor="#ffffff" showgrid="false" bordercolor="#666666" borderopacity="1.0" inkscape:zoom="0.1400905" inkscape:cx="857.45673" inkscape:cy="790.30958" id="base">
	</sodipodi:namedview>
<g id="layer1" transform="translate(-237.73947,25.765715)" inkscape:label="Capa 1" inkscape:groupmode="layer">
	<path id="path3713_2_" inkscape:connector-curvature="0" fill="none" stroke="#000000" stroke-width="0.2646" d="M1307.9,1260.1
		c-15.6,29.7-26.3,69.4-76.9,74.9c-42.1,5.2-83.5,27.3-114.6,63.2c-14.8,18.2-8.7,33.8-2.5,49.4c7.1,17.6,21,25.9,40.5,22.8
		c22.5-2.1,44.6-7.6,65.6-10.2c43.5-4.6,57.3,8.6,56.9,52.1c-0.2,10-0.9,21.5,0.9,30.5c4.5,25.1,8.5,51.6,23.6,70.4
		c17,22.8,50,24.5,78.2,11c27.7-11.9,15.8-39.6,17.1-57.6c2.5-49.4-15.6-97.7-5.6-149.5c9-53.8,15.5-105.1,59.8-144.7
		c7.6-7.3,16.3-17.7,18.5-28.6c7.1-29.3,28.4-46.9,50.2-65.9c14.2-11.7,29-24.9,41.7-37.1c34.6-31.3,58.3-69.8,85-107.2
		c12.3-15.7,21.6-32.5,14.9-46.7c-8.6-18.2-30.6-17.6-50.2-14.5c-61.2,11.8-122.3,23.6-183.1,38.9c-18.1,3.6-25.9,21-45.9,20.6
		c-47.5,1.6-96.5,2.6-141.7,16.7c-13.1,3.7-24.6,8-37.2,10.3c-26,2.5-33.8-8.7-30.3-32.6c4-25.4,16-49.6,21.4-74.5
		c13.4-47.2,18.9-95.5,5.8-143.7c-9.7-38.7-25-75.9-40.2-113.2c-5.8-12.1-3.6-18.1,4.5-26.9c10.2-9.8,22.7-12,33.9-19.8
		s26.3-17.5,22.1-34s-19.6-20.4-36-21.2c-15-0.3-30.9-2.6-46,2.1c-11,2.8-20-0.4-24.2-12c-12.9-29.7-44.2-40.8-67.8-59.3
		c-8.8-8.2-17.4-2.8-25-0.5c-10.1,4.8-5.3,14.9-3.9,20.4c4.6,20.1,14.8,33.8,29.5,49c-11.5-0.7-19,1.6-26.5-1
		c-19.3-6.9-34.4-2.2-39.8,17.7c-5.4,19.9,3.3,33,20.7,40.9c37.1,18.2,74.7,34.9,80.8,84c3.3,33,22.7,63.4,16.5,99.7
		c-48-25.4-86.8-57.6-128.7-85.9C893.4,695.6,818,643.7,746.7,584.8c-49.1-40.9-102.9-78.4-172.9-74.8c-19,1.6-36.5,3.8-41,25.7
		c-5.4,19.9,9.9,28.7,27.8,35c10.4,3.7,20.8,7.4,32.7,11.6c49.1,17.4,52.8,30.5,24,73.9c-28.3,41.9-53.6,84.9-51.2,139.4
		c0.3,8.5-2.3,15.9,6.6,19.1c8.4,4.7,18,1.4,21.6-4.1c13.4-18.7,36.1-30.8,42-52.1c11.1-31.2,34.4-49.8,56.8-70.3
		c15.3-14.7,31.2-12.4,47.9,1.9c55,48,107.5,98.5,168.6,138.7c45.4,27.9,87.7,59.7,130.6,90c6.4,5.6,26.8,9.5,14.5,25.3
		c-13.9,20.2-18.3,42.1-25.7,62.9c-5.3,14.9-13.4,18.7-29.3,16.4c-21.5-0.9-42.2-13.3-62.7-12.2c-45.6,5.6-90.7-8.8-132.5-18.6
		c-43.3-10.3-90.6-13.8-132.2-33.6c-24.2-12-47,0.1-64.3,20.7c-13.8,15.2-24.6,31.5-12.6,54.2c13,24.7,29.1,45.5,60.6,41.6
		c27.5-2,42.5,21.8,63.3,34.2c4.5,1.6,7.2,12.6,1.5,24c-8.8,15.3-15.7,34.7-22,52.5c-6.9,19.3,5.3,60.5,17.6,68.3
		c25.7,12.5,48.3,5.4,68.9-24.1c15.9-21.2,31.3-40.8,48.1-60c9.2-11.8,23.3-18.5,37.2-10.3c14.8,10.3,28.6,18.5,47.5,21.9
		c8.5-0.3,11.4,5.7,6.3,10.6c-17.9,22.1-18.5,52.1-32.9,73.8c-11.3,17.8-15.9,44.6-36.5,50.7c-35.1,9.3-53.2,36.4-75.1,60.5
		c-16.3,17.7-15.7,34.7-2.6,54.4c13.5,23.2,31.6,19.6,51.1,16.5c14.5-3.2,24.7-13,35.9-20.8c11.7-9.3,26.2-12.5,34-1.3
		c12.6,21.2,37.3,31.7,51,49.9c8.7,13.2,23.6,18.4,37.2,13.2c10.6-6.3,19.3-16.6,20.1-33.1c4-25.4-7.1-46.1-14.7-67.2
		c-4.8-10.1-6.6-19.1-1.4-29c24.8-41.5,44.2-86.5,66.5-130.6c7.3-15.8,19.1-30.1,43.6-33.1c14-1.7,23.4,5,35.9,2.7
		c69.6-7.1,140-7.2,208.4-6.4C1347.5,1195.2,1307.9,1260.1,1307.9,1260.1z"/>
</g>
</svg>
