<?xml version="1.0" encoding="utf-8"?>
<!-- Generator: Adobe Illustrator 18.0.0, SVG Export Plug-In . SVG Version: 6.00 Build 0)  -->
<!DOCTYPE svg PUBLIC "-//W3C//DTD SVG 1.1//EN" "http://www.w3.org/Graphics/SVG/1.1/DTD/svg11.dtd">
<svg version="1.1"
	 id="svg8" xmlns:dc="http://purl.org/dc/elements/1.1/" xmlns:cc="http://creativecommons.org/ns#" xmlns:rdf="http://www.w3.org/1999/02/22-rdf-syntax-ns#" xmlns:svg="http://www.w3.org/2000/svg" xmlns:sodipodi="http://sodipodi.sourceforge.net/DTD/sodipodi-0.dtd" xmlns:inkscape="http://www.inkscape.org/namespaces/inkscape" sodipodi:docname="cobi.svg" inkscape:version="0.92.4 (5da689c313, 2019-01-14)"
	 xmlns="http://www.w3.org/2000/svg" xmlns:xlink="http://www.w3.org/1999/xlink" x="0px" y="0px" viewBox="0 0 2267.7 2267.7"
	 enable-background="new 0 0 2267.7 2267.7" xml:space="preserve">
<path id="path3713" inkscape:connector-curvature="0" fill="none" stroke="#000000" stroke-width="0.2646" d="M510.9,1473.2
	c15.7-2.7,23.2-10.2,23.9-25.2c0.7-5.5,0.7-7.5-1.4-12.3c-1.4-3.4-2.7-6.1-4.1-6.8c-6.1-4.8-15.7-13.6-32.7-30
	c-19.8-20.4-33.4-35.4-40.9-47.7c-2.7-3.4-5.5-7.5-6.1-8.2c-0.7-1.4-0.7-1.4-5.5,0.7c-2,0.7-10.2,5.5-17.7,9.5
	c-31.4,17.7-51.8,25.2-64.8,23.9c-9.5-1.4-17.7-5.5-35.4-17.7c-19.8-13.6-27.9-17-39.5-17c-6.1,0-6.8,0-12.3,2.7
	c-3.4,1.4-10.2,6.1-15.7,10.2c-24.5,19.8-35.4,25.2-50.4,23.9c-10.9-0.7-18.4-4.1-34.8-17.7c-9.5-8.2-20.4-13.6-27.3-15
	c-2.7-0.7-5.5-1.4-6.8-1.4c-0.7,0-1.4-0.7-1.4-0.7c0-0.7,10.9-9.5,23.9-20.4c41.6-32.7,66.8-53.8,102.2-85.2
	c28.6-26.6,75-71.6,88.6-87.9c40.9-47.7,64.1-95.4,72.2-146.5c2-15.7,2.7-47.7,0.7-61.3c-4.8-24.5-13.6-47.7-25.9-67.5
	c-38.9-57.9-98.1-84.5-186.1-82.5c-32,0.7-57.3,5.5-87.2,16.4c-12.3,4.8-35.4,16.4-47,23.9c-28.6,19.1-51.1,42.9-65.4,69.5
	c-2,4.8-4.1,8.9-3.4,9.5c0.7,1.4,9.5,6.1,15,8.2c5.5,1.4,17,1.4,22.5,0c7.5-2.7,10.9-5.5,26.6-21.1c20.4-21.1,34.1-30.7,55.2-40.9
	c30.7-14.3,66.8-21.8,107-20.4c8.2,0,19.1,1.4,23.9,2c34.8,4.8,60.7,17.7,84.5,42.3c30,30,40.9,72.2,32,124
	c-5.5,32-20.4,64.8-45,97.5c-12.3,17-25.2,32-48.4,55.2c-23.9,23.2-35.4,34.1-64.8,59.3c-50.4,42.9-60,51.1-101.6,82.5
	c-44.3,34.1-68.8,53.8-86.6,72.2c-11.6,12.3-17,19.1-21.1,27.3c-7.5,15.7-7.5,32,0.7,47.7c6.1,12.3,15.7,19.8,30,23.9
	c6.1,2,7.5,2,56.6,2.7C185.1,1475.2,505.5,1474.6,510.9,1473.2z M897.4,827.1c21.1,10.2,47.7,26.6,66.8,42.3
	c13,10.2,34.8,31.4,45.7,43.6c45,53.8,71.6,115.9,79.7,186.1c1.4,16.4,1.4,52.5,0,68.8c-10.2,92-55.2,173.8-126.1,230.4
	c-65.4,51.8-143.8,77.7-228.3,73.6l0,0c-147.9-6.8-276-111.8-312.2-256.3c-19.1-78.4-10.2-160.2,25.9-232.4
	c8.2-17,12.3-24.5,22.5-39.5c49.1-72.2,124.7-123.4,209.2-141.8c23.2-4.8,45.7-7.5,68.8-7.5C800.6,794.4,850.4,805.3,897.4,827.1z
	 M705.9,827.1c-56.6,8.2-107.7,32-152,68.2c-19.1,15.7-41.6,40.2-55.2,60c-30.7,42.9-49.1,92.7-55.2,146.5
	c-1.4,14.3-1.4,53.2,0.7,66.8c2.7,24.5,7.5,44.3,15,65.4c20.4,58.6,57.9,110.4,108.4,147.9c23.2,17.7,52.5,33.4,80.4,43.6
	c39.5,14.3,83.2,20.4,124.7,17c96.1-6.8,182-55.9,235.8-135c45.7-67.5,63.4-149.9,48.4-231.1c-8.2-45.7-28.6-91.3-56.6-128.8
	c-18.4-24.5-45-50.4-70.2-67.5c-39.5-28.6-86.6-47-134.3-53.8c-13.6-2-30-2.7-45.7-2.7S718.8,825,705.9,827.1z M784.3,1418.7
	c82.5-9.5,153.4-51.8,202.4-120c2.7-4.1,5.5-7.5,4.8-8.2c0-2-8.9-8.9-15.7-12.3c-8.9-4.1-14.3-5.5-25.2-5.5
	c-18.4-1.4-30.7,3.4-47,16.4c-24.5,21.1-31.4,24.5-50.4,25.2c-19.8,1.4-31.4-3.4-51.8-20.4c-18.4-16.4-27.3-20.4-45-21.1
	c-14.3-0.7-25.9,1.4-36.8,8.2c-2.7,2-10.2,7.5-15.7,12.3c-20.4,17.7-31.4,22.5-52.5,21.1c-17-0.7-27.3-4.8-45-20.4
	c-19.8-17-28.6-21.1-49.1-21.1c-13,0-17.7,0.7-27.3,5.5c-5.5,2.7-16.4,10.2-17,12.3c-0.7,1.4,7.5,12.9,17,24.5
	c9.5,12.3,30,32.7,42.9,42.3c38.2,30.7,81.8,50.4,130.2,58.6c9.5,2,15,2.7,34.1,4.1C744.7,1420.7,774,1420,784.3,1418.7z
	 M874.9,1281c0-0.7-1.4-6.8-3.4-12.9c-2-6.8-6.1-22.5-9.5-35.4c-8.9-36.1-14.3-55.2-19.8-68.8c-2-5.5-2.7-8.9-2.7-12.3
	c0-10.9,6.1-15,13-8.2c6.8,6.8,23.9,32,38.2,56.6c14.3,25.2,18.4,29.3,22.5,24.5c1.4-1.4,1.4-2.7,1.4-5.5c0-17-19.1-63.4-36.8-90
	c-11.6-17-21.1-27.9-47-52.5c-12.3-11.6-15.7-15.7-20.4-27.9c-6.1-15-8.9-28.6-9.5-45c-0.7-12.9,0-23.2,4.1-43.6
	c2.7-15.7,2.7-17,0-17.7c-4.1-1.4-12.9,9.5-17,21.1c-4.8,13-6.1,23.2-6.8,41.6c-0.7,19.1,0.7,34.8,4.8,54.5
	c2.7,15.7,2.7,25.9-0.7,37.5c-3.4,11.6-3.4,16.4,0,27.9c6.1,21.8,6.8,32,2,53.2c-5.5,25.9-5.5,30.7-6.1,51.8l-0.7,19.1l4.8,2.7
	c2.7,2,9.5,6.8,15,12.3c6.1,4.8,10.9,8.2,11.6,8.2s1.4-1.4,0.7-8.9c0-5.5,0-13.6,0.7-19.1c0.7-10.9,2.7-15.7,4.8-15.7
	c4.1,0,12.3,14.3,23.2,40.2c3.4,8.2,6.8,15.7,6.8,16.4C849.7,1287.1,873.5,1283.7,874.9,1281z M652,1266
	c13-42.3,23.2-64.8,28.6-64.8c5.5,0,10.2,19.1,14.3,55.9c0.7,6.8,1.4,11.6,2,12.3c0,0,4.8-2.7,9.5-6.8s11.6-8.9,14.3-10.9
	c2.7-2,5.5-3.4,5.5-4.1c0.7-0.7-0.7-15.7-2-32.7c-4.1-42.3-4.8-54.5-4.8-80.4c0-53.8,7.5-91.3,25.2-136.3
	c7.5-19.1,14.3-33.4,33.4-72.2c16.4-33.4,19.8-40.2,19.8-45.7c0-3.4-0.7-4.1-2.7-4.8c-4.8-1.4-11.6,5.5-23.9,22.5
	c-2.7,4.1-9.5,14.3-15.7,23.2c-13,18.4-30.7,42.3-40.2,54.5c-17.7,20.4-25.9,28.6-47,47.7c-16.4,14.3-30,29.3-45.7,51.1
	c-8.2,10.2-17,25.9-26.6,44.3c-23.9,48.4-33.4,80.4-22.5,80.4c3.4,0,8.2-6.1,15.7-19.1c33.4-55.9,51.8-83.2,58.6-83.2
	c4.1,0,4.8,8.2,1.4,22.5c-8.2,35.4-19.1,82.5-26.6,112.5c-4.8,19.8-8.9,36.8-8.9,37.5c0,3.4,12.3,10.9,22.5,14.3
	C645.9,1286.5,645.2,1287.1,652,1266z M864,1056.8c11.6-10.9,8.2-30.7-6.8-37.5c-5.5-2.7-15-2.7-19.8,0c-10.2,4.8-15.7,17-13,27.3
	c2,7.5,8.9,14.3,16.4,16.4C849,1064.9,857.9,1062.9,864,1056.8z M684.7,990c6.1-2.7,9.5-5.5,12.3-10.2c10.2-15.7,4.8-36.1-11.6-44.3
	c-4.1-1.4-5.5-2-13-2c-8.2,0-8.2,0.7-13,2.7c-6.1,3.4-10.9,8.2-13.6,14.3c-2,4.1-2,5.5-2,12.3s0,8.2,2,12.3
	c4.1,8.2,10.2,13.6,19.1,16.4C669.7,992.7,679.3,992,684.7,990z M2229.2,1288.5c15.7,5.5,26.6,17,32,33.4c2,5.5,2,7.5,2,16.4
	c0,9.5,0,11.6-1.4,17c-4.8,15.7-14.3,26.6-27.9,32.7c-3.4,1.4-7.5,2.7-9.5,3.4c-5.5,1.4-17,2-21.8,0.7c-17-2.7-30.7-12.9-38.2-28.6
	c-2-4.1-4.1-8.9-4.8-11.6c-1.4-6.1-1.4-20.4,0.7-26.6c4.8-19.1,19.8-34.1,37.5-38.2c3.4-0.7,7.5-1.4,11.6-1.4
	C2216.9,1285.8,2224.4,1286.5,2229.2,1288.5z M2199.9,1312.4c-5.5,2.7-10.9,8.2-13.6,14.3c-2,6.1-2,18.4,0,24.5
	c3.4,8.2,10.2,14.3,17.7,16.4c4.8,1.4,13,0.7,17.7-1.4l0,0c5.5-2,10.9-8.2,13.6-13.6c2-4.8,2-5.5,2-13.6c0-8.2,0-8.9-2-13.6
	c-2.7-5.5-8.2-10.9-13.6-13.6c-2.7-1.4-6.8-2-10.9-2C2206.7,1309.6,2202.6,1310.3,2199.9,1312.4z M1778,1392.1
	c14.3-0.7,18.4-1.4,25.2-6.1c9.5-6.1,13.6-15.7,13.6-27.3c0-5.5,0-6.8-2-11.6c-4.8-9.5-13.6-15-32-20.4c-15-4.8-17-6.1-17-11.6
	c0-4.8,3.4-6.8,11.6-6.8c6.1,0,13,2,19.1,5.5c2,0.7,4.8,2,4.8,2c1.4,0,13.6-17.7,13-19.8c0-1.4-10.2-6.8-17-8.2
	c-7.5-2-27.9-2.7-34.8-0.7c-11.6,2-20.4,9.5-23.9,18.4c-1.4,3.4-1.4,6.1-1.4,11.6c0,8.9,1.4,13.6,7.5,19.1
	c5.5,4.8,12.3,8.2,26.6,12.9c12.9,4.8,16.4,6.8,16.4,11.6c0,6.1-3.4,8.9-10.9,8.9c-6.8,0-12.9-2-21.1-6.1c-3.4-1.4-6.8-2.7-6.8-2.7
	c-1.4,0-12.9,16.4-12.9,18.4s12.9,8.9,22.5,10.9c3.4,0.7,6.8,2,6.8,2C1765.7,1392.1,1771.2,1392.1,1778,1392.1z M1113.5,1288.5
	c1.4,2,38.9,100.9,38.2,101.6c-0.7,0.7-6.8,0.7-13.6,0.7l-12.3-0.7l-3.4-8.2c-1.4-4.8-3.4-8.9-4.1-9.5c0-0.7-8.9-0.7-19.1-0.7
	l-18.4,0.7l-1.4,2c0,0.7-2,4.8-3.4,8.9l-2.7,6.8l-12.3,0.7c-7.5,0-13,0-13.6-0.7c0-0.7,37.5-99.5,38.9-101.6c0-0.7,4.1-1.4,13.6-1.4
	C1108.7,1287.1,1112.8,1287.8,1113.5,1288.5z M1087.6,1351.2c0,0.7,2.7,0.7,12.3,0.7c8.9,0,12.3,0,11.6-0.7
	c0-2.7-10.9-34.1-11.6-34.1S1087.6,1348.5,1087.6,1351.2z M1194.6,1390.7l11.6-0.7v-27.9c0-15.7,0.7-28.6,0.7-29.3
	c0.7-0.7,10.9,11.6,24.5,27.9c12.3,15,23.2,28.6,23.9,29.3c1.4,0.7,4.1,0.7,10.2,0.7l8.9-0.7v-51.1v-51.1h-11.6h-11.6l-0.7,27.9
	c0,25.2,0,28.6-1.4,27.9c-0.7,0-11.6-12.3-24.5-27.9l-23.2-27.9h-9.5h-9.5v50.4c0,27.9,0,51.1,0,51.8
	C1182.3,1390.7,1185.7,1390.7,1194.6,1390.7z M1329.5,1390.7l11.6-0.7v-51.1v-51.1h-12.3h-11.6v50.4c-0.7,27.9,0,51.1,0,51.8
	C1317.2,1390.7,1320.7,1390.7,1329.5,1390.7z M1424.3,1390.7c9.5,0,12.3,0,12.9-1.4c1.4-1.4,38.9-100.2,38.9-100.9
	c-0.7-0.7-4.1-1.4-12.9-1.4c-11.6,0-12.3,0-13.6,2c0,0.7-6.1,17.7-13,36.8c-6.8,19.8-12.3,35.4-13,35.4c0,0-6.1-16.4-12.9-36.1
	c-6.8-19.8-12.3-36.1-13-36.8c-0.7-0.7-4.1-1.4-12.9-1.4c-9.5,0-12.3,0.7-12.3,1.4c-0.7,1.4,36.8,100.9,38.2,101.6
	C1411.3,1390.7,1417.4,1390.7,1424.3,1390.7z M1543.5,1390.7l36.8-0.7v-10.2v-10.9h-24.5l-24.5-0.7v-9.5l0.7-10.2l20.4-0.7h20.4
	v-8.9c0-5.5,0-8.9-0.7-9.5c-0.7-0.7-4.8-1.4-21.1-1.4h-19.8v-8.9v-9.5l24.5-0.7h24.5V1298v-10.2h-36.8h-36.8l-0.7,50.4
	c0,27.9,0,51.1,0.7,51.8C1506.7,1390.7,1514.9,1390.7,1543.5,1390.7z M1644.4,1287.8c28.6,0,30.7,0,39.5,4.1
	c15.7,7.5,23.2,27.3,16.4,44.3c-2,4.8-6.8,10.9-11.6,13.6c-2.7,2-4.1,3.4-4.1,4.1c0,0.7,4.8,8.9,10.9,17.7
	c7.5,10.9,10.9,17,10.9,17.7c-0.7,1.4-2.7,1.4-14.3,1.4h-13.6l-4.8-8.2c-3.4-4.8-8.2-12.3-10.9-17l-5.5-8.2l-6.8-0.7
	c-4.1,0-7.5,0-7.5,0c0,0.7,0,8.2-0.7,17v16.4l-11.6,0.7c-8.9,0-12.3,0-12.3-0.7l0,0c0-0.7-0.7-23.9,0-51.8v-50.4L1644.4,1287.8
	L1644.4,1287.8z M1643,1311c0,0.7-0.7,5.5-0.7,11.6c0,5.5,0.7,10.9,0.7,11.6c0.7,1.4,2,1.4,11.6,1.4c6.1,0,12.3-0.7,13.6-1.4
	c6.1-2,9.5-7.5,8.9-13.6c-0.7-4.8-2.7-7.5-6.8-9.5c-3.4-1.4-4.8-1.4-15-1.4S1643.7,1309.6,1643,1311z M1905.4,1288.5
	c2,1.4,38.9,100.9,38.9,101.6c-0.7,0.7-23.9,0.7-25.2,0c-0.7-0.7-2.7-4.1-4.1-8.9c-1.4-4.8-3.4-8.2-3.4-8.9c-0.7,0-9.5-0.7-19.8-0.7
	c-21.1,0-19.1-0.7-22.5,10.2c-1.4,4.1-2.7,7.5-2.7,8.2c-0.7,0.7-4.8,0.7-13.6,0.7c-8.9,0-12.3,0-13-0.7c0-1.4,36.8-99.5,38.9-101.6
	c0-0.7,4.1-1.4,12.9-1.4C1901.4,1287.1,1905.4,1287.8,1905.4,1288.5z M1880.2,1351.2c0.7,0.7,6.1,0.7,12.3,0.7
	c10.9,0,11.6,0,11.6-1.4l0,0c0-2-10.9-33.4-11.6-33.4C1891.1,1317.1,1879.5,1350.5,1880.2,1351.2z M2040.4,1291.9
	c13.6,6.8,21.1,21.1,18.4,35.4c-1.4,10.2-6.1,17.7-13.6,22.5c-2.7,2-4.1,3.4-4.1,4.1c0,0.7,4.8,8.9,10.9,17.7
	c7.5,10.9,10.9,17,10.9,17.7c-0.7,1.4-2.7,1.4-13.6,1.4c-8.9,0-12.9,0-14.3-0.7c-0.7-0.7-4.8-7.5-9.5-15
	c-12.9-19.8-10.9-18.4-19.1-18.4c-3.4,0-6.8,0-6.8,0c0,0.7,0,8.2-0.7,17v16.4l-11.6,0.7c-8.9,0-12.3,0-12.3-0.7
	c0-0.7-0.7-23.9,0-51.8v-50.4h23.9c3.4,0,6.1-0.7,8.9-0.7C2026.8,1287.8,2032.9,1288.5,2040.4,1291.9z M1999.5,1311
	c-0.7,1.4-0.7,21.8,0,23.2c0.7,1.4,2,1.4,12.3,1.4c10.2-0.7,12.3-0.7,15-2c4.8-2,7.5-7.5,6.8-12.3c-0.7-4.8-2.7-7.5-6.8-10.2
	c-3.4-1.4-4.8-1.4-15-1.4C2001.5,1309.6,2000.2,1309.6,1999.5,1311z M2109.9,1390.7c7.5,0,11.6,0,12.3-0.7
	c0.7-0.7,0.7-13.6,0.7-51.1c0-37.5,0-49.8-0.7-50.4c-0.7-0.7-4.8-1.4-12.3-1.4c-6.8,0-10.9,0.7-11.6,1.4s-0.7,12.9-0.7,50.4
	c0,37.5,0,50.4,0.7,51.1C2099,1390.7,2103.1,1390.7,2109.9,1390.7z M1362.2,1227.8c15.7-7.5,34.1-21.1,33.4-24.5
	c-0.7-2-45-61.3-46.3-61.3c0,0-1.4,0.7-2,2c-2,2-12.3,8.9-18.4,11.6c-25.9,12.9-57.9,14.3-83.8,3.4c-31.4-13.6-50.4-44.3-52.5-83.8
	c-2-34.8,10.9-66.1,33.4-84.5c16.4-12.9,34.1-19.1,56.6-19.1c16.4,0,28.6,2.7,43.6,9.5c6.8,2.7,17.7,3.4,23.9,1.4
	c13.6-4.1,25.9-15,37.5-32.7c4.8-6.8,8.2-13.6,8.2-15c0-2-7.5-8.9-16.4-14.3c-19.1-13-44.3-21.8-72.2-25.2c-13.6-2-47.7-1.4-60,0.7
	c-55.9,10.2-96.8,40.2-120,89.3c-13,25.9-18.4,51.1-19.1,83.2c0,25.2,2.7,42.3,10.2,64.1c21.8,65.4,77.7,107.7,148.6,112.5
	C1301.6,1246.9,1335,1240.8,1362.2,1227.8z M1604.9,895.2c70.2,8.9,125.4,57.3,143.1,126.8c4.1,17,5.5,25.9,5.5,47
	c0,13.6-0.7,20.4-1.4,27.3c-6.1,38.8-21.8,70.9-47,97.5c-30,30.7-68.2,48.4-112.5,51.1c-13,0.7-13,0.7-25.9,0
	c-36.1-2.7-70.2-16.4-97.5-39.5c-33.4-27.9-55.2-70.9-60-117.2c-1.4-12.9-0.7-38.2,1.4-50.4c6.8-36.8,21.8-67.5,45.7-92.7
	c24.5-25.9,54.5-41.6,92-49.1c7.5-1.4,21.8-2,35.4-2C1591.9,893.9,1599.4,894.5,1604.9,895.2z M1527.9,990
	c-16.4,12.3-27.9,32-33.4,55.2c-2,9.5-2,31.4-0.7,42.3c6.1,40.9,33.4,70.2,70.9,77c8.9,2,27.9,1.4,36.8-0.7
	c29.3-7.5,51.8-27.9,62-57.9c6.8-20.4,7.5-47,1.4-68.8c-2.7-10.2-10.2-24.5-16.4-32.7c-17.7-21.8-43.6-32.7-69.5-32
	C1561.3,972.2,1543.5,978.4,1527.9,990z M1890.5,900.7c92,0,96.1,0.7,113.8,4.1c25.9,5.5,45.7,17.7,57.9,34.1
	c7.5,9.5,12.3,22.5,15,35.4c1.4,9.5,1.4,28.6-0.7,36.1c-5.5,19.1-17.7,36.8-32.7,47c-6.8,4.8-6.8,6.8,1.4,10.2
	c15.7,6.1,28.6,19.1,35.4,35.4c5.5,11.6,6.1,16.4,6.1,34.1c0,14.3,0,17.7-1.4,23.9c-4.1,17-10.9,30-21.8,41.6
	c-8.2,8.2-14.3,13.6-24.5,18.4c-10.2,5.5-17.7,8.2-29.3,10.9c-19.8,4.8-21.8,5.5-90,5.5c-34.1,0-64.1,0-66.8-0.7l0,0
	c-21.1-3.4-38.2-18.4-45-39.5c-4.1-12.9-4.1-10.2-4.1-158.1V900.7L1890.5,900.7L1890.5,900.7z M1885.7,1003.6c0,29.3,0,32,1.4,32.7
	c0.7,0.7,8.9,1.4,38.9,0.7c35.4,0,38.2,0,42.9-2c13.6-4.1,21.8-15,22.5-27.9c1.4-15-5.5-26.6-17.7-32.7l-5.5-2.7h-41.6h-40.9
	L1885.7,1003.6L1885.7,1003.6z M1887,1098.3c-1.4,0.7-1.4,1.4-1.4,34.1c0,30.7,0,33.4,1.4,34.1c0.7,0.7,14.3,0.7,42.3,0.7
	c38.9,0,40.9,0,45.7-2c6.8-2,10.9-4.8,15.7-9.5c9.5-10.2,11.6-25.2,5.5-38.2c-4.8-8.9-11.6-14.3-21.1-17.7c-4.8-2-5.5-2-45.7-2
	c-6.8,0-12.9,0-18.4,0C1895.2,1097.7,1887.7,1097.7,1887,1098.3z M2221,1236.7c0.7,0,1.4-28.6,1.4-140.4c0-154.7,0-145.2-5.5-156.8
	c-5.5-10.9-19.1-22.5-34.8-28.6c-10.9-4.8-25.9-8.2-36.8-9.5l-4.8-0.7l0.7,149.3v149.3l2,4.8c6.8,12.9,22.5,23.2,45.7,28.6
	c8.2,2,21.1,4.1,27.9,4.8"/>
</svg>
