<?xml version="1.0" encoding="utf-8"?>
<!-- Generator: Adobe Illustrator 18.0.0, SVG Export Plug-In . SVG Version: 6.00 Build 0)  -->
<!DOCTYPE svg PUBLIC "-//W3C//DTD SVG 1.1//EN" "http://www.w3.org/Graphics/SVG/1.1/DTD/svg11.dtd">
<svg version="1.1"
	 id="svg8" sodipodi:docname="cobi-1.svg" inkscape:version="0.92.4 (5da689c313, 2019-01-14)" xmlns:dc="http://purl.org/dc/elements/1.1/" xmlns:cc="http://creativecommons.org/ns#" xmlns:rdf="http://www.w3.org/1999/02/22-rdf-syntax-ns#" xmlns:svg="http://www.w3.org/2000/svg" xmlns:sodipodi="http://sodipodi.sourceforge.net/DTD/sodipodi-0.dtd" xmlns:inkscape="http://www.inkscape.org/namespaces/inkscape"
	 xmlns="http://www.w3.org/2000/svg" xmlns:xlink="http://www.w3.org/1999/xlink" x="0px" y="0px"
	 viewBox="4625.1 850.8 1133.9 1133.9" enable-background="new 4625.1 850.8 1133.9 1133.9" xml:space="preserve">
<sodipodi:namedview  inkscape:window-height="962" inkscape:document-units="mm" inkscape:pageopacity="0.0" inkscape:current-layer="layer1" inkscape:pageshadow="2" inkscape:window-maximized="1" inkscape:window-x="-8" inkscape:window-y="-8" inkscape:window-width="1280" pagecolor="#ffffff" showgrid="false" bordercolor="#666666" borderopacity="1.0" inkscape:zoom="0.1400905" inkscape:cx="1410.2949" inkscape:cy="1174.8543" id="base">
	</sodipodi:namedview>
<g id="layer1" transform="translate(0.13229166,150.13229)" inkscape:label="Capa 1" inkscape:groupmode="layer">
	<path id="path3713" inkscape:connector-curvature="0" fill="none" stroke="#000000" stroke-miterlimit="10" d="M4955,1026.3
		c-73.1,74.7-193,76-267.7,3s-76-193-3-267.7s193-76,267.7-3S5028.1,951.6,4955,1026.3z M4946.9,1018.3
		c68.6-70.1,67.6-183.3-2.5-251.9c-70.1-68.6-183.3-67-251.9,3.1s-67.6,183.3,2.5,251.9C4765.1,1089.9,4878.3,1088.4,4946.9,1018.3z
		 M4862.9,805.4c6.1-6.6,5.8-16.9-0.8-23c-6.4-6.3-16.7-6.2-23,0.3l0,0c-6.3,6.4-6.2,16.7,0.3,23c0.1,0.1,0.2,0.2,0.3,0.3
		c6.4,6.3,16.7,6.2,23-0.3C4862.7,805.6,4862.8,805.5,4862.9,805.4z M4892.1,857.8c-19,21.1-28.3,33.8-17,56.4
		c0.1,34-23.4,88.9-26.4,78.5c-3.8-1-1.8-13.9,5.9-44.5c2.3-8.9,2-13.4-4.4-11.7c-2.6,2.7-11,17.8-14.7,22.7
		c-3.7,4.9-27.8,52.2-35.7,37.6c-1.4-6.1,15.4-35.8,15.4-35.8l-4.4-12.8c0,0-19.6,21.1-22,21.4c-7.8-0.2-10-7.1-6.1-15.5l65.7-65
		c0,0,46.5-54.1,55.9-54.4C4913,834.3,4892.1,857.8,4892.1,857.8z M4903.1,882.3c-5.1-5-13.2-4.9-18.2,0.2c-5,5.1-4.9,13.2,0.2,18.2
		s13.2,4.9,18.2-0.2C4908.3,895.4,4908.2,887.3,4903.1,882.3z M5103,1265.3c0.2,18.7-5.8,52-6.9,53.1c-1.6,1.6-4.5,2.5-9.1,3.3
		c-39.3,3.4-67.9-19.9-98.5-49.8c-31.1-30.4-46.5-65.6-45.3-105.8c0.9-38.8,16.6-73.8,46.8-104.7c29.4-30,63.5-46.5,102.5-49.1
		c40.7-3.1,74.5,11.5,105.9,39.5c13.8,12.4,57.1,57.5,56.2,95.2c-0.2,4-1,7-2.6,8.6c-1.9,1.9-53.6,21.2-73.3-16
		c-6-10.6-16.6-22-25.2-30.5c-14.6-14.3-35.5-18.9-55.1-16.8c-18.2,2.3-34.1,10.6-48.7,25.4c-14.6,14.9-22.9,31.6-24.6,49.5
		c-1.9,19.8,0.7,40.9,13.8,56.9C5063.8,1254.5,5102.9,1253,5103,1265.3z M5441,1350.7c-0.6,40.7-15.5,76.5-45.4,107
		c-29.9,30.6-65.3,46.8-105.5,47.8c-40.9,1.3-77-13.3-108.1-43.8s-46.5-66.1-45.9-107.4c0.1-40.7,14.9-75.9,44.9-106.5
		s65.3-46.8,106-47.8c41.2-1.5,77.2,13.1,108.4,43.5C5426,1273.5,5441.3,1309.2,5441,1350.7z M5338.8,1401.6
		c14.6-14.9,22.1-31.8,23.5-51.1c0.8-20.4-6-37.7-20.7-52c-14.3-14-31.8-20-52.7-18.2c-20.1,1.6-37.1,9.2-50.9,23.3
		c-14.6,14.9-22.7,31.8-23.5,50.6c-0.9,19.8,6.6,37.1,21.7,52c14.1,13.8,31.3,20,52.1,18.7C5308.5,1423.3,5325,1415.7,5338.8,1401.6
		z M5558.1,1693.9c-17.7,18.1-38.5,27.5-61.5,28.3c-26.5,0.6-56.4-14.9-89.4-47.2c-2.4-2.4-6-5.8-10.6-10.9
		c-4.6-4.5-8.4-8.2-10.6-10.3c-37.1-36.3-22.7-22.2-30-29.4c-23-22-13.9-50.2-8.2-62.5l177.1-181.1c3.8,2.6,15.4,14,35.2,33.3
		c32.2,31.5,50.9,49.8,56,55.3c23.8,24.9,38,46.7,43,64.8c6.4,24.8-1.3,47.9-23.3,70.4c-5.6,5.7-13.3,10.3-23.1,13.4
		c-7.2,2-15.2,3.1-23.8,3.7c-7.8,0.4-11.5,0.4-11.2,0.1c-0.8,0.8-0.5,3.2,0.9,7.2c3.1,10.9,2.4,22.5-1.8,34.8
		C5572.6,1675.2,5566.5,1685.2,5558.1,1693.9z M5492.9,1515.8l31.1,30.4c8.4,8.2,15.7,13.7,21.9,16.6s12.6,3.3,19.6,1.1
		c4.8-1.1,9.3-4.1,13-7.9c8.2-8.4,10.8-17,7.5-25.5c-3.3-8.5-10.9-19.2-23.1-31.1l-27.6-27L5492.9,1515.8z M5508.7,1640.9
		c8.5-8.7,11.3-17.5,9.1-27.1s-9.1-20-21-31.6l-35.2-34.4l-47.6,48.7l36.3,35.5C5473.3,1654.4,5492.9,1657.1,5508.7,1640.9z
		 M5752.7,1652.4l-178.1,182.1c-0.8-0.3-1.3-0.8-1.9-1.3c-5.7-4-32.9-42.7-24.6-67.5l181-185.1
		C5746.2,1597.8,5757.9,1633.6,5752.7,1652.4z M4815.1,814.2c37.6,8.7,120.1-8.6,120.1-8.6c11.3,9.5-91.1,40.1-91.1,40.1l-81,83.4
		c-10.6,7.6-19.5,2.6-14.6-9.5c1.3-3,22.5-24.1,22.5-24.1l-23.8,0c0,0-19.9,16-28.2,14.2c-19.9-10,8.6-22.8,35.1-40.8
		c6.9-4.4,26.5-22.2,30.2-26c2.3-8.9-1.7-8-13.2-4.9c-9.1,2.8-46.4,17.6-47.8,13.1C4713.6,842.1,4759.5,822.3,4815.1,814.2z
		 M4852.2,1052.8c0,0-86,21.8-149-39.8c-61.4-60.1-42.6-147.6-42.6-147.6c8.5-7.6,41.7-5.8,37.1,36.3c-3.4,28.9,28,39,39,38.6
		c10.4-0.4,39.6,2.2,40,36.5c0.4,31.6,19.5,41.8,40.9,41.6C4869,1014.3,4852.2,1052.8,4852.2,1052.8z"/>
</g>
</svg>
