<?xml version="1.0" encoding="utf-8"?>
<!-- Generator: Adobe Illustrator 18.0.0, SVG Export Plug-In . SVG Version: 6.00 Build 0)  -->
<!DOCTYPE svg PUBLIC "-//W3C//DTD SVG 1.1//EN" "http://www.w3.org/Graphics/SVG/1.1/DTD/svg11.dtd">
<svg version="1.1"
	 id="svg8" xmlns:dc="http://purl.org/dc/elements/1.1/" xmlns:cc="http://creativecommons.org/ns#" xmlns:rdf="http://www.w3.org/1999/02/22-rdf-syntax-ns#" xmlns:svg="http://www.w3.org/2000/svg" xmlns:sodipodi="http://sodipodi.sourceforge.net/DTD/sodipodi-0.dtd" xmlns:inkscape="http://www.inkscape.org/namespaces/inkscape" sodipodi:docname="cobi-1.svg" inkscape:version="0.92.4 (5da689c313, 2019-01-14)"
	 xmlns="http://www.w3.org/2000/svg" xmlns:xlink="http://www.w3.org/1999/xlink" x="0px" y="0px" viewBox="0 0 2267.7 2267.7"
	 enable-background="new 0 0 2267.7 2267.7" xml:space="preserve">
<path id="path3713" inkscape:connector-curvature="0" fill="none" stroke="#000000" stroke-width="0.25" d="M621.4,1133.9
	c0,170.1-138.1,308.2-308.2,308.2S5,1304,5,1133.9s138.1-308.2,308.2-308.2S621.4,963.7,621.4,1133.9z M602.9,1133.9
	c0-159.6-130-290.3-289.7-290.3S23.5,974.2,23.5,1133.9c0,159.6,130,290.3,289.7,290.3S602.9,1293.5,602.9,1133.9z M262.6,981.6
	c-0.3-14.6-12.5-26.2-27.1-25.9c-14.6,0-26.5,11.9-26.5,26.5l0,0c0,14.6,11.9,26.5,26.5,26.5c0.2,0,0.4,0,0.6,0
	c14.6,0,26.5-11.9,26.5-26.5C262.7,982,262.7,981.8,262.6,981.6z M356.3,1009.4c1.8,46.2,5.5,71.5,44.4,85.1
	c38.8,39.4,74,130,58.6,121.4c-5.5,3.1-17.9-14.2-43.8-58.6c-7.4-12.9-12.9-17.9-18.5-8.6c0,6.2,7.4,33.3,8.6,43.1
	c1.2,9.9,27.1,92.4,1.2,84.4c-8.6-5.5-22.8-59.2-22.8-59.2l-19.7-9.9c0,0,1.2,46.8-1.2,49.9c-9.2,8.6-19.7,3.1-24.7-11.1l2.5-150.4
	c0,0-7.4-115.9,3.1-127C353.9,958.2,356.3,1009.4,356.3,1009.4z M397,1025.4c-11.6,0-21,9.4-21,21c0,11.6,9.4,21,21,21s21-9.4,21-21
	C418,1034.8,408.6,1025.4,397,1025.4z M1065.8,1243.6c21.6,21.6,52.4,67.2,52.4,69.6c0,3.7-2.5,8-6.8,14.2
	c-41.9,48.7-101.7,54.2-171.3,54.2c-70.9,0-128.8-23.4-173.2-71.5c-43.1-46.2-64.7-104.8-64.7-175c0-68.4,21-126.4,63.5-173.8
	c43.8-49.9,99.8-71.5,168.3-74.6c30.2-1.2,131.9,1.8,173.8,46.8c4.3,4.9,6.8,9.2,6.8,12.9c0,4.3-38.2,85.7-103.5,64.7
	c-19.1-5.5-44.4-6.8-64.1-6.8c-33.3,0-62.9,18.5-83.2,43.1c-18.5,23.4-27.7,51.2-27.7,85.1c0,33.9,9.2,62.9,27.7,85.7
	c20.3,25.3,47.5,46.8,80.7,50.5C1007.8,1275.6,1051.6,1229.4,1065.8,1243.6z M1556.4,958.2c45.6,48.1,69,106.6,69,176.3
	c0,69.6-22.8,128.8-68.4,175.7c-46.2,48.1-104.8,72.1-175.7,72.1c-70.9,0-129.4-24-175.7-72.7c-46.2-47.5-69-105.4-69-175
	c0-69.6,22.8-128.8,69-176.3c46.2-48.7,104.8-72.7,175.7-72.7C1451,885.5,1509.5,909.5,1556.4,958.2z M1495.3,1133.9
	c0-33.9-10.5-62.3-30.8-86.3c-22.2-24.7-49.9-37-83.2-37c-32.7,0-59.8,12.9-82,38.8c-21.6,24.7-32.7,53-32.7,85.1
	c0,33.9,9.9,62.9,30.2,85.7c21.6,24,49.9,35.7,84.4,35.7c32,0,59.2-12.3,82-37.6C1484.9,1193.6,1495.3,1165.9,1495.3,1133.9z
	 M2083.3,1224.5c0,41.3-13.6,75.8-39.4,102.9c-30.2,30.8-82.6,46.8-157.8,46.8c-5.5,0-13.6,0-24.7-0.6c-10.5,0-19.1,0-24,0
	c-84.4,0-51.8,0-68.4,0c-51.8,0.6-73.3-42.5-80.7-63.5V897.8c7.4-1.2,33.9-1.2,78.9-1.2c73.3,0,115.9,0,128.2,0.6
	c56.1,1.8,97.4,11.1,123.9,26.5c35.7,21.6,53,57.3,53,108.5c0,12.9-3.7,27.1-11.7,41.9c-6.2,10.5-14.2,21-23.4,31.4
	c-8.6,9.2-12.9,13.6-12.9,12.9c0,1.8,3.1,4.3,9.2,7.4c16,9.2,28.4,23.4,37.6,42.5C2079,1186.2,2083.3,1204.7,2083.3,1224.5z
	 M1804.7,1091.3h70.9c19.1,0,33.9-1.8,44.4-5.5c10.5-3.7,18.5-10.5,24-21c4.3-6.8,6.2-15.4,6.2-24c0-19.1-6.8-32.1-20.3-38.2
	c-13.6-6.2-34.5-9.9-62.3-9.9h-62.9V1091.3z M1965.6,1218.9c0-19.7-6.8-33.3-20.3-41.9c-13.6-8.6-33.3-12.9-60.4-12.9h-80.1V1275
	h82.6C1939.7,1275,1965.6,1255.9,1965.6,1218.9z M2262.7,954.5v414.8c-1.2,0.6-2.5,0.6-3.7,0.6c-11.1,1.8-86.9-12.3-105.4-50.5
	V897.8C2193,898.4,2247.3,926.8,2262.7,954.5z M217,1046.3c53.6-32.7,130-146.7,130-146.7c24-1.8-60.4,150.4-60.4,150.4l0.6,189.2
	c-3.7,21-19.7,25.3-27.7,5.5c-1.8-4.9-1.2-53.6-1.2-53.6l-27.7,27.1c0,0-4.9,41.3-16.6,48.7c-34.5,11.1-16-36.4-5.5-87.5
	c3.1-12.9,5.5-56.1,5.5-64.7c-7.4-12.9-11.1-7.4-21,9.2c-7.4,13.6-33.9,73.3-40.7,69.6C130.8,1194.3,161.6,1119.1,217,1046.3z
	 M532,1281.8c0,0-75.2,123.3-218.8,123.3c-139.9,0-217.6-123.3-217.6-123.3c1.2-18.5,41.9-54.2,84.4,0c29,37.6,77,13.6,89.4,0.6
	c11.7-12.3,48.7-42.5,88.1-3.1c36.4,36.4,70.3,26.5,94.9,1.9C452.5,1281.2,499,1217.3,532,1281.8z"/>
</svg>
