<?xml version="1.0" encoding="utf-8"?>
<!-- Generator: Adobe Illustrator 18.0.0, SVG Export Plug-In . SVG Version: 6.00 Build 0)  -->
<!DOCTYPE svg PUBLIC "-//W3C//DTD SVG 1.1//EN" "http://www.w3.org/Graphics/SVG/1.1/DTD/svg11.dtd">
<svg version="1.1"
	 id="svg8" sodipodi:docname="cobi.svg" inkscape:version="0.92.4 (5da689c313, 2019-01-14)" xmlns:dc="http://purl.org/dc/elements/1.1/" xmlns:cc="http://creativecommons.org/ns#" xmlns:rdf="http://www.w3.org/1999/02/22-rdf-syntax-ns#" xmlns:svg="http://www.w3.org/2000/svg" xmlns:sodipodi="http://sodipodi.sourceforge.net/DTD/sodipodi-0.dtd" xmlns:inkscape="http://www.inkscape.org/namespaces/inkscape"
	 xmlns="http://www.w3.org/2000/svg" xmlns:xlink="http://www.w3.org/1999/xlink" x="0px" y="0px"
	 viewBox="4130.6 851.6 1133.9 1133.9" enable-background="new 4130.6 851.6 1133.9 1133.9" xml:space="preserve">
<sodipodi:namedview  inkscape:window-height="962" inkscape:document-units="mm" inkscape:pageopacity="0.0" inkscape:current-layer="layer1" inkscape:pageshadow="2" inkscape:window-maximized="1" inkscape:window-x="-8" inkscape:window-y="-8" inkscape:window-width="1280" pagecolor="#ffffff" showgrid="false" bordercolor="#666666" borderopacity="1.0" inkscape:zoom="0.083651786" inkscape:cx="6047.814" inkscape:cy="1813.4777" id="base">
	</sodipodi:namedview>
<g id="layer1" transform="translate(0.25973876,150.5246)" inkscape:label="Capa 1" inkscape:groupmode="layer">
	<path id="path3713" inkscape:connector-curvature="0" fill="none" stroke="#000000" stroke-width="0.2646" d="M4330.2,1151.7
		c7.7,5.4,13.9,5.4,20.4-0.6c2.5-2,3.4-2.8,4.5-5.7c0.8-2,1.4-3.7,1.1-4.5c-0.6-4.5-0.9-12.2-1.2-26.1c0.2-16.7,0.8-28.6,2.7-36.9
		c0.3-2.6,0.8-5.4,0.8-6c0.3-0.9,0.3-0.9-2.6-2c-1.1-0.6-6.5-2-11.3-3.4c-20.4-5.6-32.1-11-36.9-16.9c-3.4-4.5-5.1-9.6-7.4-22.1
		c-2.6-13.9-4.6-18.7-9.4-23.5c-2.6-2.5-2.8-2.8-6.2-4c-2-0.8-6.8-1.7-10.8-2.2c-18.4-1.9-25.2-4.2-30.9-11c-4.3-4.8-6-9.3-7.1-21.8
		c-0.6-7.4-2.9-14.2-5.1-17.6c-0.9-1.4-1.7-2.8-2.3-3.4c-0.3-0.3-0.3-0.8-0.3-0.8c0.3-0.3,8.5,0.5,18.4,1.4
		c30.9,3.6,50.2,5.3,78,6.9c23,0.8,61,1.3,73.4,0.1c36.8-2.9,66.3-13.2,90.9-31.1c7.4-5.7,20.9-18.8,25.7-25.3
		c8.2-12.2,14.1-25.5,17.2-38.9c7.8-40.3-5.9-76-43.4-111.6c-13.6-13-26.1-21.5-43.2-29.4c-7.1-3.1-21.6-7.9-29.5-9.6
		c-19.9-3.9-39.1-3.3-56.1,1.8c-2.8,1.1-5.4,2-5.4,2.6c-0.3,0.9,1.4,6.5,2.9,9.6c1.7,2.8,6.5,7.6,9.4,9.3c4.3,2,6.8,2.3,19.9,2.2
		c17.3-0.3,26.9,1.4,40,5.9c18.7,6.8,36.9,18.6,53.1,35.9c3.4,3.4,7.4,8.5,9.1,10.8c12.5,16.4,17.9,32.6,17.7,52.7
		c0.1,24.9-12.9,47.1-38.1,65c-15.6,11.1-35.4,18.5-59.2,22c-12.2,2-23.8,2.9-43.1,2.9c-19.6-0.2-28.9-0.5-51.6-2.1
		c-38.8-3-46.2-3.6-76.6-7.8c-32.6-4.2-51-6.1-66.1-5.8c-9.9,0.3-15,0.9-20.1,2.6c-9.6,3.4-16.4,10.2-19.5,20.2
		c-2.5,7.7-1.7,14.7,2.6,22.4c1.7,3.4,2.3,4,22.5,24.6C4193.5,1017.4,4327.3,1150,4330.2,1151.7z M4759.4,1042.7
		c4.6,13,8.9,30.9,10.3,45.3c1.2,9.6,1.5,27.5,0.9,37.1c-3.6,41.1-18.2,78-44,110.7c-6.2,7.4-21.2,22.4-28.6,28.7
		c-42.4,34.1-95.1,49.6-148.2,43.7c-48.8-5.6-92.2-27.3-125.7-64.1l0,0c-58.8-64.2-68.7-161.2-23.8-236.4
		c24.6-40.6,62.2-71,107.2-86.2c10.5-3.7,15.3-5.1,25.8-7.1c50.4-9.8,103.2,0.3,146.1,27.7c11.6,7.6,22.2,15.8,31.8,25.4
		C4732.6,988.9,4748.9,1014.1,4759.4,1042.7z M4679.6,963.2c-27-20.1-58.2-31.3-91.7-34.7c-14.5-1.4-34-0.5-47.9,2.1
		c-30.6,5.2-58.9,18.3-83.8,38.2c-6.5,5.4-22.6,21.6-27.4,28.1c-9,11.4-15.3,21.6-20.9,33.5c-15.8,32.9-21.7,70.1-16.2,106.6
		c2.3,17,8,35.7,15.4,51.6c10.5,22.4,26.2,43,44.9,58.9c42.9,37,99.1,52.2,154.3,41.6c47-9.2,88.7-36.2,116.1-76.3
		c15.5-22.4,26-50,29.9-77.2c2.5-17.9,2.2-39.7-1.3-57.3c-4.6-28.3-16.6-55.5-33.6-78.2c-4.8-6.5-11.4-13.6-17.9-20.1
		C4692.9,973.6,4685.8,967.7,4679.6,963.2z M4466.7,1242.4c38.3,30.2,85.4,42,134.2,34c2.8-0.6,5.4-0.9,5.4-1.4
		c0.8-0.9,0-7.4-1.4-11.6c-2-5.4-3.7-8.2-8.3-12.7c-7.1-8.2-14.2-11.3-26.4-12.7c-19-1.4-23.3-2.8-31.5-10.4
		c-8.8-7.6-11.7-14.4-13.1-30c-0.9-14.5-2.9-19.8-10-27.5c-5.7-6.2-11.4-10.2-18.7-11.9c-2-0.3-7.4-1.1-11.6-1.4
		c-15.9-1.1-22.4-3.6-30.7-13c-6.8-7.4-9.4-13.3-10.3-27.2c-1.2-15.3-3.2-20.7-11.7-29.2c-5.4-5.4-7.7-7.1-13.6-9
		c-3.4-1.1-11.1-2.5-12.2-2c-0.8,0.3-2.2,8.5-3.1,17.3c-1.1,9.1-1.1,26.1,0.4,35.4c3.2,28.6,13.2,55,30,78.5
		c3.1,4.8,5.1,7.4,12.5,15.8C4449.4,1226.8,4461.9,1238.7,4466.7,1242.4z M4561.7,1222.6c0.3-0.3,2.3-3.4,4-6.8
		c2-3.7,6.8-11.9,10.7-18.7c11.3-18.7,16.9-29,20.3-36.9c1.4-3.1,2.5-4.8,4-6.2c4.5-4.5,8.8-3.7,8.8,2c0,5.7-3.3,23.3-7.6,39.4
		c-4.5,16.5-4.5,19.9-0.8,19.6c1.1,0,1.7-0.6,2.8-1.7c7.1-7.1,18.3-34.3,22-52.8c2.2-11.9,2.8-20.4,2.2-41.4c-0.3-9.9,0-13,3.1-20.1
		c3.7-8.8,8.2-15.6,14.7-22.7c5.1-5.7,9.6-9.7,19.8-16.5c7.6-5.4,8.2-6,7.4-7.4c-1.1-2.3-9.4-1.4-15.9,1.7
		c-7.4,3.4-12.2,7.1-20.1,14.5c-8.2,7.7-14.1,14.8-20.6,24.7c-5.4,7.7-9.6,11.9-15.8,15.3c-6.2,3.4-8.2,5.4-11.6,11.7
		c-6.5,11.6-10.5,16.2-21.2,23c-13,8.5-15,10.5-24.1,19.1l-8.2,7.7l0.9,3.1c0.3,2,1.1,6.8,1.2,11.3c0.6,4.5,1.2,7.9,1.4,8.2
		s1.1,0,4-3.4c2.3-2.3,5.7-5.7,8.2-7.7c4.8-4.3,7.6-5.4,8.5-4.6c1.7,1.7-0.8,11.1-7,26.4c-2,4.8-3.7,9.4-3.9,9.6
		C4548.6,1214.7,4560,1223.2,4561.7,1222.6z M4475,1123.9c22.9-12.2,36.5-17.4,38.8-15.1c2.3,2.3-3.7,12.2-17.2,29.2
		c-2.5,3.1-4.2,5.4-4.2,6c0,0,3.1,0.8,6.8,1.1c3.7,0.3,8.5,1.1,10.5,1.4c2,0.3,3.7,0.8,4,0.6c0.6,0,6.2-6.8,12.7-14.5
		c15.8-19.3,20.6-24.7,31.4-35.5c22.3-22.5,41-35,67.1-46.4c11-4.8,19.8-8,43.9-16.3c20.7-7.1,24.9-8.6,27.2-10.8
		c1.4-1.4,1.4-2,0.8-3.1c-1.4-2.5-7.1-2.5-19.3-0.5c-2.8,0.6-9.9,2-16.2,3.2c-13,2.3-30.3,4.9-39.4,6c-15.9,1.2-22.7,1.2-39.4,0.4
		c-12.8-0.8-24.7-0.2-40.3,2.4c-7.7,0.9-17.9,3.7-29.5,7.4c-30,10.3-47.3,19.7-42.8,24.2c1.4,1.4,6,0.8,14.5-1.5
		c37.1-9.4,56.1-13.2,58.9-10.3c1.7,1.7-1.4,5.4-8.8,9.9c-18.1,11.4-42.2,26.5-57.8,35.9c-10.2,6.3-19,11.7-19.3,12
		c-1.4,1.4,0.6,9.6,3.4,15.3C4463.9,1129.8,4463.4,1129.8,4475,1123.9z M4650.2,1124.6c9.4,0.3,16.1-9.4,12.7-18.5
		c-1.1-3.4-5.1-7.4-8.2-8.2c-6.2-2.3-13.6,0.6-16.7,6c-2.3,4-2.2,9.6,0,13.6C4640.5,1121.8,4645.1,1124.6,4650.2,1124.6z
		 M4603.1,1022.3c3.7,1.4,6.2,1.7,9.4,0.8c10.8-2.3,17-13.1,13.6-23.3c-1.1-2.3-1.4-3.1-4.6-6.2c-3.4-3.4-3.7-3.1-6.5-4.2
		c-4-1.1-7.9-1.1-11.6,0.3c-2.5,0.9-3.1,1.4-5.9,4.3c-2.8,2.8-3.4,3.4-4.2,6c-1.7,5.1-1.4,9.9,1.2,14.7
		C4595.8,1017.3,4600,1020.9,4603.1,1022.3z M5123.2,1787.7c4.3,8.8,4,18.1-0.5,27.2c-1.4,3.1-2.3,4-5.9,7.7c-4,4-4.8,4.8-7.6,6.5
		c-8.5,4.6-17,5.1-25.2,2c-2-0.8-4.3-2-5.4-2.5c-2.8-1.7-8-6.2-9.4-8.8c-6-8.2-7.4-18.1-4-27.8c0.8-2.6,2-5.4,2.8-6.8
		c2-3.1,7.9-9.1,11.3-10.8c9.9-6,22.4-6,31.5-0.4c1.7,1.1,3.7,2.5,5.4,4.2C5119.3,1781.5,5122.1,1784.9,5123.2,1787.7z
		 M5101.1,1785.5c-3.4-1.1-7.9-1.1-11.6,0.3c-3.4,1.7-8.5,6.8-10.2,10.2c-2,4.8-1.7,10.2,0.6,14.2c1.4,2.5,5.1,5.7,8,6.8l0,0
		c3.1,1.4,7.9,1.1,11.3,0c2.8-1.1,3.1-1.4,6.5-4.8s3.7-3.7,4.8-6.5c1.1-3.4,1.1-7.9,0-11.3c-0.6-1.7-2-3.7-3.7-5.4
		S5103.1,1785.8,5101.1,1785.5z M4892.1,1643.7c6.3,5.7,8.2,7.1,13.1,7.9c6.5,1.4,12.2-0.9,17-5.7c2.3-2.3,2.8-2.8,4-5.7
		c2-6,0.5-11.9-4.9-21.8c-4.3-8.2-4.6-9.6-2.3-11.9c2-2,4.2-1.4,7.7,2c2.6,2.5,4.6,6.2,5.7,10.2c0.6,1.1,1.1,2.8,1.1,2.8
		c0.6,0.6,13-1.7,13.6-2.9c0.6-0.6-1.4-7.1-3.7-10.5c-2.3-4-10.5-12.7-14.2-14.7c-5.7-4-12.5-4.5-17.6-2.2c-2,0.9-3.1,2-5.4,4.3
		c-3.7,3.7-5.1,6.2-4.8,11.1c0.3,4.3,1.7,8.5,5.7,16.4c3.4,7.4,4,9.6,2,11.6c-2.5,2.6-5.1,2.3-8.2-0.8c-2.8-2.8-4.6-6.2-6.3-11.3
		c-0.9-2-1.7-4-1.7-4c-0.6-0.6-12.2,1.4-13,2.3c-0.8,0.9,1.7,9.1,4.9,13.9c1.1,1.7,2,3.7,2,3.7
		C4887,1638.6,4889.3,1640.9,4892.1,1643.7z M4658,1324.7c-0.3,1.4-25.7,58.2-26.2,58.2c-0.6,0-3.1-2.5-6-5.4l-4.8-5.4l2-4.8
		c1.4-2.6,2.3-5.1,2.3-5.7c0.3-0.3-3.4-4-7.7-8.2l-8-7.4l-1.4,0.3c-0.3,0.3-2.8,1.1-5.1,2.3l-4,1.7l-5.4-4.8
		c-3.1-3.1-5.4-5.4-5.4-5.9c0.3-0.3,56.9-25.9,58.3-26.2c0.3-0.3,2.3,1.1,6.2,5.1C4656.6,1322.2,4658,1324.2,4658,1324.7z
		 M4621.2,1340.1c-0.3,0.3,0.9,1.4,4.8,5.4c3.7,3.7,5.1,5.1,5.1,4.5c1.1-1.1,9.6-18.7,9.3-19S4622.3,1339,4621.2,1340.1z
		 M4649.4,1401l5.1,4.5l11.6-11.7c6.5-6.5,12.2-11.7,12.4-11.9c0.6,0-0.3,9.4-1.4,21.8c-1.1,11.3-2.2,21.6-2.2,22.1
		c0.3,0.8,1.4,2,4,4.5l4,3.4l21.2-21.3l21.2-21.3l-4.8-4.8l-4.8-4.8l-11.9,11.4c-10.5,10.5-11.9,11.9-12.2,11.1
		c-0.3-0.3,0.3-9.9,1.4-21.8l1.9-21.3l-4-4l-4-4l-20.9,21c-11.6,11.7-21.2,21.3-21.5,21.6S4645.7,1397.3,4649.4,1401z M4705.7,1457
		l5.1,4.5l21.2-21.3l21.2-21.3l-5.1-5.1l-4.8-4.8l-20.9,21c-11.9,11.4-21.2,21.3-21.5,21.6S4702,1453.3,4705.7,1457z M4745.2,1496.3
		c4,4,5.1,5.1,6,4.8c1.1,0,57.8-25.7,58.1-25.9c0-0.6-1.1-2.3-4.8-5.9c-4.8-4.8-5.1-5.1-6.5-4.8c-0.3,0.3-9.9,4.8-20.7,10
		c-11,5.4-19.8,9.7-20.1,9.4c0,0,4.2-9.4,9.6-20.4c5.4-11.1,9.9-20.2,9.9-20.7c0-0.6-1.1-2.3-4.8-5.9c-4-4-5.4-4.8-5.7-4.5
		c-0.9,0.3-26.5,57.3-26.2,58.2C4739.8,1490.9,4742.3,1493.5,4745.2,1496.3z M4794.9,1545.8l15.6,15l4.2-4.3l4.5-4.5l-10.2-10.2
		l-9.9-10.5l4-4l4.5-4l8.8,8.2l8.5,8.5l3.7-3.7c2.3-2.3,3.7-3.7,3.7-4.3s-1.4-2.5-8.2-9.3l-8.2-8.2l3.7-3.7l4-4l10.5,9.9l10.2,10.2
		l4.5-4.5l4.2-4.3l-15.3-15.3l-15.3-15.3l-21.2,20.7c-11.6,11.7-21.2,21.3-21.2,21.9C4779.6,1530.5,4783,1533.9,4794.9,1545.8z
		 M4879.7,1544.8c11.9,11.9,12.8,12.7,14.8,18.1c3.4,9.6-1.7,21-11.6,25.3c-2.8,1.1-7.4,1.7-10.5,0.9c-2-0.3-3.1-0.3-3.4,0
		c-0.3,0.3-1.7,5.7-2.8,11.9c-1.4,7.7-2.5,11.6-2.8,11.9c-0.8,0.3-1.7-0.6-6.5-5.4l-5.7-5.7l1.4-5.4c0.6-3.4,1.7-8.5,2.5-11.6
		l1.1-5.7l-2.6-3.1c-1.7-1.7-3.1-3.1-3.1-3.1c-0.3,0.3-3.4,3.4-7.4,6.8l-6.8,6.8l-5.1-4.5c-3.7-3.7-5.1-5.1-4.8-5.4l0,0
		c0.3-0.3,9.6-10.2,21.5-21.6l20.9-21L4879.7,1544.8z M4869.5,1553.9c-0.3,0.3-2.5,2-5.1,4.5c-2.3,2.3-4.2,4.8-4.5,5.1
		c-0.3,0.9,0.3,1.4,4.3,5.4c2.6,2.5,5.4,4.8,6.2,5.1c3.4,1.7,7.1,0.8,9.4-2c1.7-2.3,2-4.3,1.1-6.8c-0.9-2-1.4-2.5-5.7-6.8
		C4870.9,1554.1,4870.4,1553.6,4869.5,1553.9z M4988.2,1653.4c0.3,1.4-25.7,58.2-25.9,58.5c-0.6,0-10.2-9.6-10.5-10.5
		c0-0.6,0.6-2.8,2-5.4c1.4-2.6,2-4.8,2.3-5.1c-0.3-0.3-3.7-4.2-8-8.5c-8.8-8.8-7.7-8.2-13.6-5.1c-2.3,1.1-4.2,2-4.5,2.3
		c-0.6,0-2.3-1.7-6-5.4c-3.7-3.7-5.1-5.1-5.1-5.7c0.6-0.6,56.6-26.2,58.3-26.2c0.3-0.3,2.3,1.1,6,4.8
		C4987.1,1651.1,4988.5,1653.1,4988.2,1653.4z M4951.7,1669.1c0,0.6,2.3,2.8,4.8,5.4c4.5,4.5,4.8,4.8,5.4,4.2l0,0
		c0.8-0.9,9.3-18.5,9-18.7C4970.4,1659.4,4951.7,1668.5,4951.7,1669.1z M5043.1,1710.8c2.9,8.5,0,17.6-7,22.4
		c-4.8,3.7-9.9,4.8-15,3.7c-2-0.3-3.1-0.3-3.4,0s-1.7,5.7-2.8,11.9c-1.4,7.7-2.5,11.6-2.8,11.9c-0.8,0.3-1.7-0.6-6.2-5.1
		c-3.7-3.7-5.4-5.4-5.7-6.2c0-0.6,1.1-5.1,2.2-10.2c2.8-13.6,3.1-12.2-0.3-15.6c-1.4-1.4-2.8-2.8-2.8-2.8c-0.3,0.3-3.4,3.4-7.4,6.8
		l-6.8,6.8l-5.1-4.5c-3.7-3.7-5.1-5.1-4.8-5.4s9.6-10.2,21.5-21.6l20.9-21l9.9,9.9c1.4,1.4,2.8,2.3,4,3.4
		C5039.1,1703.4,5041.4,1706.3,5043.1,1710.8z M5018.1,1701.8c-0.8,0.3-9.3,8.8-9.6,9.7c-0.3,0.9,0.3,1.4,4.5,5.7
		c4.5,4,5.4,4.8,7.1,5.4c2.8,1.1,6.2,0,7.9-2.3c1.7-2.3,2-4.3,1.4-7.1c-0.9-2-1.4-2.5-5.7-6.8
		C5019.5,1702.1,5019,1701.5,5018.1,1701.8z M5031.1,1780.9c3.1,3.1,4.8,4.8,5.4,4.8c0.6,0,5.9-5.4,21.5-21
		c15.6-15.6,20.6-20.7,20.6-21.3c0-0.6-1.4-2.5-4.5-5.7c-2.8-2.8-4.8-4.2-5.4-4.2c-0.6,0-5.7,5.1-21.2,20.7
		c-15.6,15.6-20.9,21-20.9,21.6S5028.2,1778,5031.1,1780.9z M4786.9,1402.7c9.6,3.4,23,5.3,24.1,3.6c0.6-1.1,6.7-44.2,6.1-44.8
		c0,0-0.9-0.3-1.7,0c-1.7,0-8.8-1.4-12.5-2.8c-16.2-5.3-30.1-18.1-36.4-33.4c-7.4-18.7-2.6-39.4,12.9-56.7c13.6-15.3,32-23,49-21.4
		c12.2,1.4,22.1,6.2,31.5,15.5c6.8,6.8,10.8,13,14.2,22.1c1.7,4,6,8.8,9.4,10.5c7.4,4,17,4.5,29.2,1.9c4.8-0.9,9.1-2.3,9.6-2.9
		c0.8-0.9,0.6-6.8-0.9-12.8c-2.6-13.3-9.4-27.5-19.7-40.5c-4.8-6.5-19.3-20.4-25.3-24.6c-27.5-18.9-57-23.4-87.1-12.6
		c-16.1,5.4-28.9,13.7-42.5,26.8c-10.5,10.5-16.4,18.8-22.3,31c-18.1,36.3-12.3,77.1,15.3,108.5
		C4753.7,1385.4,4770.2,1396.7,4786.9,1402.7z M5026.1,1364.7c25.6,32.8,28.5,75.9,7.1,112.3c-5.4,8.8-8.5,13.1-17.2,21.9
		c-5.7,5.7-8.8,8.2-11.9,10.8c-18.7,13.7-38.5,20.5-60.1,21.1c-25.2,0.3-48.5-8.1-68.1-25.4c-5.7-5.1-5.7-5.1-10.8-10.7
		c-13.9-16.1-22.5-36-24.2-56.9c-2.3-25.5,6.4-52.5,23.6-73.8c4.8-6,15.6-16.2,21.5-20.5c18.1-12.5,37.1-19.1,57.5-19.7
		c21-0.6,40,5.3,58.7,17.7c3.7,2.5,9.9,8.2,15.6,13.9C5021.3,1358.7,5024.1,1362.1,5026.1,1364.7z M4954.7,1372.2
		c-11.9-1.7-24.9,1.8-36.8,9.2c-4.8,3.1-13.9,12.2-17.8,17.3c-14.4,19.6-15.2,43.1-2.4,61.5c2.8,4.5,11.1,12.2,15.6,15
		c15.3,9,33.2,9.8,49.9,1.6c11.3-5.7,22.6-16.5,29.1-28.1c3.1-5.4,5.9-14.5,6.8-20.4c1.7-16.4-4.6-31.7-15.7-42.2
		C4976,1378.7,4966,1373.9,4954.7,1372.2z M5142.9,1485.4c38.4,38.2,39.8,40.2,45.8,48.9c8.5,13,11.7,26.3,10,38.3
		c-0.8,7.1-4.2,14.5-8.5,21c-3.4,4.5-11.3,12.5-15.3,14.8c-10.2,5.7-22.7,8-33.2,6c-4.8-0.8-5.7,0-3.7,4.8c4,9.1,4,19.8,0.1,29.5
		c-2.5,7.1-4.2,9.4-11.6,16.8c-5.9,6-7.4,7.4-10.5,9.4c-8.8,5.4-17,8-26.3,8.3c-6.8,0-11.6-0.3-17.9-2.5c-6.5-2-10.8-3.9-16.7-7.6
		c-10.2-6.2-11.4-6.8-39.8-35.1c-14.2-14.1-26.7-26.6-27.6-28l0,0c-7.4-10.2-8.3-23.5-2.4-35.1c3.7-7.1,2.5-6,63.9-67.6l57.4-57.7
		L5142.9,1485.4z M5098.2,1526.4c-12.2,12.2-13.3,13.4-13,14.2c0,0.6,3.1,4.2,15.9,16.4c14.8,14.7,15.9,15.8,18.8,17
		c7.4,4,15.3,2.8,21-2.3c6.8-5.7,8.8-13.3,6.2-21l-1.1-3.4l-17.3-17.3l-17.1-17L5098.2,1526.4z M5059.5,1566.4
		c-0.9-0.3-1.1,0-14.7,13.6c-12.7,12.8-13.9,13.9-13.6,14.8c0,0.6,5.7,6.2,17.3,17.8c16.2,16.1,17.1,17,19.9,18.1
		c3.7,2,6.5,2.5,10.5,2.5c8.2-0.3,15.3-5.7,18.1-13.7c1.7-5.7,1.1-10.8-1.5-16.2c-1.1-2.8-1.4-3.1-18.2-19.8
		c-2.8-2.8-5.4-5.4-7.7-7.6C5063.2,1569.6,5060.1,1566.4,5059.5,1566.4z M5141.3,1762.7c0.3,0.3,12.4-11.4,58.8-58
		c64.2-64.5,60.2-60.5,62.8-67.6c2.3-6.8,1.4-17.3-2.6-26.4c-2.6-6.5-7.4-14.2-11.4-19.3l-1.7-2.3l-61.7,62.5l-61.9,62.2l-1.1,2.8
		c-2.5,8.2-0.2,19,7.2,30.9c2.6,4.2,7.1,10.5,9.7,13.6"/>
</g>
</svg>
