<?xml version="1.0" encoding="utf-8"?>
<!-- Generator: Adobe Illustrator 18.0.0, SVG Export Plug-In . SVG Version: 6.00 Build 0)  -->
<!DOCTYPE svg PUBLIC "-//W3C//DTD SVG 1.1//EN" "http://www.w3.org/Graphics/SVG/1.1/DTD/svg11.dtd">
<svg version="1.1"
	 id="svg8" sodipodi:docname="conabio_completo.svg" inkscape:version="0.92.4 (5da689c313, 2019-01-14)" xmlns:dc="http://purl.org/dc/elements/1.1/" xmlns:cc="http://creativecommons.org/ns#" xmlns:rdf="http://www.w3.org/1999/02/22-rdf-syntax-ns#" xmlns:svg="http://www.w3.org/2000/svg" xmlns:sodipodi="http://sodipodi.sourceforge.net/DTD/sodipodi-0.dtd" xmlns:inkscape="http://www.inkscape.org/namespaces/inkscape"
	 xmlns="http://www.w3.org/2000/svg" xmlns:xlink="http://www.w3.org/1999/xlink" x="0px" y="0px"
	 viewBox="5151.9 851.1 1133.9 1133.9" enable-background="new 5151.9 851.1 1133.9 1133.9" xml:space="preserve">
<sodipodi:namedview  inkscape:window-height="962" inkscape:document-units="mm" inkscape:pageopacity="0.0" inkscape:current-layer="layer1" inkscape:pageshadow="2" inkscape:window-maximized="1" inkscape:window-x="-8" inkscape:window-y="-8" inkscape:window-width="1280" pagecolor="#ffffff" showgrid="false" bordercolor="#666666" borderopacity="1.0" inkscape:zoom="0.1400905" inkscape:cx="1409.0328" inkscape:cy="1175.2633" id="base">
	</sodipodi:namedview>
<g id="layer1" transform="translate(-0.20161961,150.24223)" inkscape:label="Capa 1" inkscape:groupmode="layer">
	<path id="path3713" inkscape:connector-curvature="0" fill="none" stroke="#000000" stroke-width="0.2646" d="M5452.9,1136.6
		c1.7,1.9,3.6,3.6,5.9,4.5s4.3,1.6,6.6,1.5l0.2-6.4c-3.1,0.3-5.9-1.2-7.8-3.4c-1.2-1.4-2.1-3-2.5-4.6c-0.1-1.8-0.3-3.6,0.4-5.1
		c0.6-1.5,1.8-3,3.1-4.2c1.4-1.2,3-2.1,4.6-2.5c1.6-0.4,3.6-0.3,5.1,0.4s3,1.8,4.2,3.1c1.9,2.2,3,5.1,2.3,8.2l6.4,0.7
		c0.4-2.3,0.3-4.6-0.6-6.7c-0.6-2.4-2-4.5-3.7-6.4c-2.2-2.5-4.3-4.4-7.1-5.4c-2.8-1-5.3-1.1-8.2-0.6c-2.9,0.6-5.6,1.9-7.7,3.9
		c-2.2,1.9-4.2,4.6-4.9,7.1c-0.7,2.5-0.9,5.1-0.3,8C5449.4,1131.4,5450.7,1134.1,5452.9,1136.6z M5477.3,1164.6
		c2.2,2.5,4.6,4.2,7.4,5.1c2.8,1,5.6,1.4,8.5,0.8c2.6-0.3,5.3-1.7,7.5-3.6c2.2-1.9,3.9-4.4,4.9-7.1c0.7-2.5,0.9-5.6,0.3-8.5
		c-0.9-2.6-2.2-5.3-4.4-7.8c-1.9-2.2-4.4-3.9-7.1-5.4c-2.8-1-5.6-0.9-8.2-0.6c-2.9,0.6-5.6,1.9-7.7,3.9c-2.2,1.9-3.6,4.1-4.6,6.9
		c-1,2.8-1.1,5.3-0.6,8.2C5474,1159.7,5475.4,1162.4,5477.3,1164.6z M5481.9,1160.5c-1.2-1.4-1.9-2.7-2.3-4.3
		c-0.1-1.8-0.3-3.6,0.4-5.1c0.6-1.5,1.8-3,3.1-4.2c1.4-1.2,3-2.1,4.6-2.5s3.6-0.3,5.1,0.4c1.5,0.6,2.7,1.5,3.9,2.8
		c1.2,1.4,2.1,3,2.5,4.6s0,3.4-0.4,5.1c-0.6,1.5-1.8,3-3.1,4.2c-1.4,1.2-3,2.1-4.6,2.5c-1.8,0.1-3.4,0-5.1-0.4
		C5484.6,1163,5483.1,1161.9,5481.9,1160.5z M5519.2,1211.6l23.3-20.3l-4.1-4.7l-22,4.2l6.9-21.5l-3.8-4.4l-23.3,20.3l4.3,4.9
		l13.7-12l-5.3,16.7l2.2,2.5l17.5-3.2l-14,12.2L5519.2,1211.6z M5527.6,1221.2l4.8,5.5l23.3-20.3l-4.8-5.5L5527.6,1221.2z
		 M5546.7,1244.1c1.9,2.2,3.9,3.9,5.9,4.5c2,1.2,3.8,1.5,5.6,1.4c1.6-0.4,3.4-1.1,4.5-2c1.6-1.4,2.5-3.2,2.6-4.7
		c0.1-1.5,0.2-3.1-0.5-4.4c-0.6-1.9-1.6-3.5-2.5-5.6c-1.4-2.2-1.8-3.7-2.3-4.8c-0.2-1.3-0.1-2.3,0.7-3c0.8-0.7,1.6-0.9,2.9-0.6
		c1.3,0.3,2.2,1.4,3.4,2.8c1.9,2.2,3.3,4.9,4.1,8l5.6-1.9c-0.4-1.6-0.8-3.2-2-5c-0.6-1.9-1.8-3.2-3.3-4.9c-1.7-1.9-3.6-3.6-5.4-4.5
		c-2.3-0.9-3.8-1-5.6-0.9s-3.2,0.8-4.5,2c-1.6,1.4-2.8,2.9-2.9,4.4c-0.1,1.5-0.2,3.1,0.7,4.7c0.4,1.6,1.3,3.2,2.5,5.6
		c0.7,1.3,1.1,2.4,1.6,3.5c0.5,0.5,0.6,1.9,0.6,2.4c0,0.5-0.3,1.3-0.9,1.7c-0.8,0.7-1.9,1.2-2.9,0.6c-1-0.6-2.2-1.4-3.4-2.8
		c-1.2-1.4-2.1-3-3.3-4.9c-0.6-1.9-1.1-3.4-1.2-5.2l-5.6,1.9c0.1,1.8,0.8,3.7,1.7,5.8C5543.8,1240.3,5545.2,1242.5,5546.7,1244.1z
		 M5562.8,1261.5l4.8,5.5l23.3-20.3l-4.8-5.5L5562.8,1261.5z M5585.2,1288.3c2.2,2.5,4.6,4.2,7.4,5.1s5.3,1.1,8.5,0.8
		c2.6-0.3,5.3-1.7,7.5-3.6c2.2-1.9,3.9-4.4,4.9-7.1c0.5-2.8,0.9-5.6,0.3-8.5c-0.9-2.6-2.2-5.3-4.4-7.8c-2.2-2.5-4.6-4.2-7.1-5.4
		c-2.8-1-5.9-1.2-8.5-0.8c-2.9,0.6-5.6,1.9-7.7,3.9c-2.2,1.9-3.6,4.1-4.6,6.9c-1,2.8-0.9,5.6-0.3,8.5S5583,1285.8,5585.2,1288.3z
		 M5589.8,1284.2c-1.2-1.4-2.1-3-2.5-4.6c-0.1-1.8,0.2-3.1,0.6-4.9c0.4-1.8,1.5-3.3,2.9-4.4c1.4-1.2,3.2-1.8,4.8-2.3
		s3.4-0.5,4.9,0.1s3,1.8,4.2,3.1c1.2,1.4,2.1,3,2.5,4.6s0,3.4-0.6,4.9c-0.4,1.8-1.5,3.3-2.9,4.4c-1.4,1.2-3,2.1-4.8,2.3
		c-1.6,0.4-3.1,0.3-4.9-0.1C5592.5,1286.7,5591,1285.6,5589.8,1284.2z M5608.3,1262.8l3.6,4.1l9.9,2l-5-5.8L5608.3,1262.8z
		 M5641.3,1304.5l-14.3,12.4l4.2-24l-4.1-4.7l-23.3,20.3l4.8,5.5l14-12.2l-3.9,23.7l4.1,4.7l23.3-20.3L5641.3,1304.5z M5680.1,1349
		l-14.3,12.4l4.2-24l-3.8-4.4l-23.3,20.3l4.5,5.2l14-12.2l-3.7,24l3.8,4.4l23.3-20.3L5680.1,1349z M5685.2,1401.9l4.8,5.5l14.2-30.8
		l-4.5-5.2l-32.4,9.9l4.8,5.5l6.9-2.1l9.3,10.7L5685.2,1401.9z M5684.5,1382.8l11.9-4.1l-5.4,11.5L5684.5,1382.8z M5704.8,1425.5
		c1.7,1.9,3.6,3.6,5.9,4.5c2.3,0.9,4.3,1.6,6.6,1.5l0.2-6.4c-3.4,0-5.9-1.2-7.8-3.4c-1.2-1.4-2.1-3-2.5-4.6
		c-0.1-1.8-0.3-3.6,0.4-5.1c0.6-1.5,1.8-3,3.1-4.2c1.4-1.2,3-2.1,4.6-2.5s3.6-0.3,5.1,0.4c1.5,0.6,3,1.8,4.2,3.1
		c1.9,2.2,2.8,4.8,2.3,8.2l6.4,0.7c0.4-2.3,0.3-4.6-0.6-6.7c-0.6-2.4-2-4.5-3.7-6.4c-2.2-2.5-4.3-4.4-7.1-5.4
		c-2.8-1-5.6-1.4-8.5-0.8c-2.9,0.6-5.6,1.9-7.7,3.9c-2.2,1.9-4.2,4.6-4.9,7.1s-0.6,5.4,0,8.3
		C5701.3,1420.3,5702.6,1423,5704.8,1425.5z M5720.4,1442.3l4.8,5.5l23.3-20.3l-4.8-5.5L5720.4,1442.3z M5742.8,1469.1
		c2.2,2.5,4.6,4.2,7.4,5.1c2.8,1,5.3,1.1,8.2,0.6c2.6-0.3,5.3-1.7,7.5-3.6c2.2-1.9,3.9-4.4,4.9-7.1c0.7-2.5,1.1-5.3,0.6-8.2
		c-0.9-2.6-2.2-5.3-4.4-7.8c-2.2-2.5-4.6-4.2-7.1-5.4c-2.8-1-5.9-1.2-8.5-0.8c-2.9,0.6-5.6,1.9-7.7,3.9c-2.2,1.9-3.6,4.1-4.6,6.9
		c-1,2.8-0.9,5.6-0.3,8.5S5740.7,1466.6,5742.8,1469.1z M5747.5,1465c-1.2-1.4-2.1-3-2.5-4.6c-0.1-1.8,0.2-3.1,0.6-4.9
		c0.4-1.8,1.5-3.3,2.9-4.4c1.4-1.2,3.2-1.8,4.8-2.3c1.6-0.4,3.4-0.5,4.9,0.1c1.5,0.6,3,1.8,4.2,3.1c1.2,1.4,1.9,2.7,2.5,4.6
		c0.4,1.6,0,3.4-0.6,4.9c-0.6,1.5-1.5,3.3-2.9,4.4c-1.4,1.2-3.2,1.8-4.8,2.3s-3.1,0.3-4.9-0.1
		C5749.9,1467.2,5748.7,1466.4,5747.5,1465z M5799,1485.3l-14.3,12.4l4-24.2l-3.8-4.4l-23.3,20.3l4.8,5.5l14-12.2l-3.9,23.7l3.8,4.4
		l23.3-20.3L5799,1485.3z M5803.9,1538l5,5.8l14.2-30.8l-4.8-5.5l-32.4,9.9l4.8,5.5l6.9-2.1l9.3,10.7L5803.9,1538z M5803.1,1518.9
		l12.1-3.8l-5.7,11.2L5803.1,1518.9z M5814.4,1550.1l15.1,17.3l4.4-3.8l-10.3-11.8l18.9-16.5l-4.8-5.5L5814.4,1550.1z
		 M5879.6,1577.8l-8.9-10.2l-23.3,20.3l4.8,5.5l6.3-5.5l4.1,4.7c1.7,1.9,3.6,3.6,5.9,4.5c1.7,0.9,3.8,1,5.6,0.9
		c2.1-0.4,4.2-1.3,5.9-2.7c1.6-1.4,2.8-3.4,3.2-5.2c0.7-2,0.8-4.1,0.1-5.9C5882.7,1581.8,5881.3,1579.7,5879.6,1577.8z
		 M5866.7,1588.5l-3.8-4.4l8.2-7.2l3.8,4.4c1.4,1.6,1.8,3.2,2,4.5c-0.1,1.5-0.4,2.8-1.8,4c-1.4,1.2-2.9,1.6-4.2,1.3
		C5869.4,1591,5868.2,1590.1,5866.7,1588.5z M5886.2,1632.4l5,5.8l14.2-30.8l-4.8-5.5l-32.4,9.9l4.8,5.5l6.9-2.1l9.6,11
		L5886.2,1632.4z M5885.4,1613.2l12.1-3.8l-5.7,11.2L5885.4,1613.2z M5914.9,1665.3l2.9-11.7c2,1.2,4,1.3,5.9,1.2
		c2.1-0.4,4-1.5,5.6-3s3.1-3.1,3.4-4.9c0.7-2,0.3-4.1-0.1-6.2s-1.8-4.2-3.7-6.4l-8.6-9.9l-23.3,20.3l4.5,5.2l6.3-5.5l4.1,4.7
		l0.2,0.3l-2.2,10.2L5914.9,1665.3z M5924.7,1646.6c-1.4,1.2-2.9,1.6-4.2,1.3c-1.5-0.1-3-1.2-4.4-2.9l-3.8-4.4l8.2-7.2l3.8,4.4
		c1.4,1.6,2.1,3.5,2.3,4.8C5926.4,1644.2,5926,1645.4,5924.7,1646.6z M5937.1,1690.8l4.8,5.5l14.2-30.8l-4.5-5.2l-32.4,9.9l4.8,5.5
		l6.6-2.4l9.6,11L5937.1,1690.8z M5936.4,1671.7l11.9-4.1l-5.4,11.5L5936.4,1671.7z M5414.4,1159.5l5.5-4.8l9.6,11l4.4-3.8l-9.6-11
		l4.9-4.3l10.8,12.3l4.4-3.8l-15.3-17.6l-23.3,20.3l15.8,18.1l4.1-3.6L5414.4,1159.5z M5428.7,1184.2l15.1,17.3l4.4-3.8l-10.3-11.8
		l18.9-16.5l-4.8-5.5L5428.7,1184.2z M5471,1233.8c1.7,1.9,3.6,3.6,5.9,4.5s4.6,1.3,6.6,1.5l0.2-6.4c-3.1,0.3-5.9-1.2-7.8-3.4
		c-1.2-1.4-2.1-3-2.5-4.6c-0.1-1.8-0.3-3.6,0.4-5.1c0.6-1.5,1.5-2.7,3.1-4.2c1.6-1.4,2.7-1.9,4.6-2.5c1.9-0.6,3.6-0.3,5.1,0.4
		c1.5,0.6,3.3,1.5,4.4,2.9c1.9,2.2,2.7,5.3,2.3,8.2l6.1,0.9c0.4-2.3,0.3-4.6-0.6-6.7c-0.6-2.4-2-4.5-3.7-6.4
		c-2.2-2.5-4.3-4.4-7.1-5.4c-2.8-1-5.3-1.1-8.2-0.6c-2.9,0.6-5.6,1.9-7.7,3.9c-2.2,1.9-3.6,4.1-4.6,6.9c-1,2.8-1.1,5.3-0.6,8.2
		C5467.5,1228.7,5468.8,1231.3,5471,1233.8z M5495.4,1261.8c2.2,2.5,4.6,4.2,7.4,5.1c2.8,1,5.6,1.4,8.5,0.8c2.6-0.3,5-1.5,7.5-3.6
		c2.5-2.2,3.9-4.4,4.9-7.1c1-2.8,0.9-5.6,0.3-8.5c-0.9-2.6-2.2-5.3-4.4-7.8c-1.9-2.2-4.4-3.9-6.9-5.1c-3-1.2-5.6-1.4-8.5-0.8
		c-2.9,0.6-5.6,1.9-7.7,3.9c-2.2,1.9-3.6,4.1-4.6,6.9c-1,2.8-1.1,5.3-0.3,8.5C5492.1,1256.9,5493.5,1259.6,5495.4,1261.8z
		 M5500.1,1257.7c-1.2-1.4-1.9-2.7-2.3-4.3c-0.1-1.8-0.3-3.6,0.4-5.1c0.6-1.5,1.5-2.7,3.1-4.2c1.6-1.4,2.5-2.2,4.6-2.5
		c2.1-0.4,3.6-0.3,5.1,0.4c1.5,0.6,3,1.2,4.2,2.6c1.4,1.6,1.8,3.2,2.3,4.8s0.3,3.1-0.4,5.1c-0.6,1.5-1.8,3-3.1,4.2
		c-1.4,1.2-3,2.1-4.6,2.5c-1.8,0.1-3.4,0-5.1-0.4C5502.7,1260.2,5501.5,1259.4,5500.1,1257.7z M5551.8,1278.3l-14.3,12.4l4-24.2
		l-3.8-4.4l-23.3,20.3l4.5,5.2l14-12.2l-3.7,24l3.8,4.4l23.3-20.3L5551.8,1278.3z M5550.7,1325.2c2.2,2.5,4.6,4.2,7.4,5.1
		c2.8,1,5.6,1.4,8.5,0.8c2.6-0.3,5-1.5,7.5-3.6c2.5-2.2,3.9-4.4,4.9-7.1c1-2.8,0.9-5.6,0.3-8.5c-0.9-2.6-2.2-5.3-4.4-7.8
		c-2.2-2.5-4.6-4.2-7.1-5.4c-2.8-1-5.3-1.1-8.2-0.6c-2.9,0.6-5.6,1.9-7.7,3.9c-2.2,1.9-3.6,4.1-4.6,6.9c-1,2.8-1.1,5.3-0.6,8.2
		S5548.5,1322.7,5550.7,1325.2z M5555.3,1321.1c-1.2-1.4-1.9-2.7-2.3-4.3c-0.1-1.8-0.3-3.6,0.4-5.1c0.6-1.5,1.5-2.7,3.1-4.2
		s2.7-1.9,4.6-2.5s3.6-0.3,5.1,0.4c1.5,0.6,3,1.2,4.2,2.6c1.2,1.4,1.8,3.2,2.3,4.8s0.3,3.1-0.4,5.1c-0.6,1.5-1.8,3-3.1,4.2
		c-1.4,1.2-3,2.1-4.6,2.5c-1.8,0.1-3.4,0-5.1-0.4C5558,1323.6,5556.5,1322.5,5555.3,1321.1z M5578.6,1357.2c1.9,2.2,3.9,3.9,6.1,4.8
		s4.6,1.3,6.6,1.5l0.2-6.4c-3.4,0-5.9-1.2-7.8-3.4c-1.4-1.6-2.1-3-2.8-4.8c-0.1-1.8,0.2-3.1,0.6-4.9c0.4-1.8,1.2-3,2.9-4.4
		c1.6-1.4,2.9-1.6,4.8-2.3s3.4-0.5,4.9,0.1c1.7,0.9,3.3,1.5,4.7,3.2c1.9,2.2,2.5,5.1,2.3,8.2l6.1,0.9c0.4-2.3,0.3-4.6-0.6-6.7
		c-0.6-2.4-2-4.5-3.7-6.4c-2.2-2.5-4.3-4.4-7.1-5.4c-2.8-1-5.6-1.4-8.5-0.8s-5.6,1.9-7.7,3.9c-2.2,1.9-3.6,4.1-4.6,6.9
		c-1,2.8-0.9,5.6-0.3,8.5C5575.4,1352.4,5576.7,1355.1,5578.6,1357.2z M5594.5,1374.3l4.5,5.2l23.3-20.3l-4.5-5.2L5594.5,1374.3z
		 M5630.4,1415.5l23.3-20.3l-3.8-4.4l-22,4.2l6.9-21.5l-4.1-4.7l-23.3,20.3l4.5,5.2l13.7-12l-5.3,16.7l2.2,2.5l17.5-3.2l-14,12.2
		L5630.4,1415.5z M5638.8,1425.1l4.8,5.5l23.3-20.3l-4.8-5.5L5638.8,1425.1z M5660.8,1442.1l5.5-4.8l9.3,10.7l4.4-3.8l-9.3-10.7
		l4.9-4.3l10.8,12.3l4.4-3.8l-15.5-17.8l-23.3,20.3l15.8,18.1l4.1-3.6L5660.8,1442.1z M5712.3,1462.4l-14.3,12.4l4.2-24l-3.8-4.4
		l-23.3,20.3l4.5,5.2l14-12.2l-3.7,24l3.8,4.4l23.3-20.3L5712.3,1462.4z M5725.2,1485.9l-18.9,16.5l4.8,5.5l18.9-16.5l6.7,7.7
		l4.4-3.8l-17.9-20.6l-4.4,3.8l6.7,7.7L5725.2,1485.9z M5732.7,1533.9c2.2,2.5,4.6,4.2,7.4,5.1c2.8,1,5.3,1.1,8.2,0.6
		c2.8-0.1,5.2-1.2,7.7-3.3c2.5-2.2,3.9-4.4,4.6-7.4c1-2.8,1.1-5.3,0.6-8.2c-0.9-2.6-2.2-5.3-4.4-7.8c-2.2-2.5-4.6-4.2-7.1-5.4
		c-2.8-1-5.6-1.4-8.5-0.8c-2.9,0.6-5.6,1.9-7.7,3.9c-2.2,1.9-3.6,4.1-4.6,6.9c-1,2.8-0.9,5.6-0.3,8.5
		C5729.2,1528.8,5730.6,1531.5,5732.7,1533.9z M5737.4,1529.9c-1.2-1.4-2.1-3-2.5-4.6c-0.1-1.8,0.2-3.1,0.6-4.9
		c0.4-1.8,1.2-3,2.9-4.4c1.6-1.4,2.9-1.6,4.8-2.3s3.4-0.5,4.9,0.1c1.5,0.6,3.3,1.5,4.4,2.9s1.8,3.2,2.3,4.8c0.4,1.6,0.3,3.1-0.6,4.9
		c-0.6,1.5-1.5,3.3-2.9,4.4c-1.4,1.2-3.2,1.8-4.8,2.3s-3.1,0.3-4.9-0.1C5740,1532.4,5738.6,1531.2,5737.4,1529.9z M5804.4,1568
		l-4.8-5.5l-15.9,2.8l5.2-15.1l-5-5.8l-7.2,22.2l-8.2,7.2l4.5,5.2l8.2-7.2L5804.4,1568z M5806.9,1619c2.9,3.3,6.1,4.8,9.4,5.3
		c3.6,0.2,7.1-1.3,10.3-4.2l13.2-11.5l-4.5-5.2l-12.9,11.2c-2.2,1.9-4.3,2.8-5.9,2.7c-1.8,0.1-3.6-0.8-5-2.4
		c-3.1-3.6-2.4-7.1,1.8-10.7l12.9-11.2l-4.8-5.5l-13.2,11.5c-3.3,2.9-5.3,6.1-5.6,9.7C5802.7,1612,5804,1615.7,5806.9,1619z
		 M5831,1646.7c1.7,1.9,3.6,3.6,5.6,4.3c2,1.2,3.8,1.5,5.6,1.4c1.6-0.4,3.4-1.1,4.8-2.3c1.4-1.2,2.3-2.9,2.4-4.5s0.2-3.1-0.5-4.4
		c-0.4-1.6-1.6-3.5-2.5-5.6c-1.4-2.2-1.8-3.7-2.3-4.8c-0.2-1.3-0.1-2.3,0.7-3c0.8-0.7,1.9-0.6,2.9-0.6c1.3,0.3,2.5,1.2,3.7,2.6
		c1.9,2.2,3,5.1,3.8,8.3l5.6-1.9c-0.4-1.6-0.8-3.2-1.7-4.8c-0.9-2.1-2.1-3.5-3.3-4.9c-1.9-2.2-3.9-3.9-5.6-4.8
		c-2.3-0.9-3.8-1-5.6-0.9c-1.8,0.1-3.2,0.8-4.5,2c-1.6,1.4-2.5,2.7-2.9,4.4c-0.1,1.5-0.2,3.1,0.7,4.7c0.4,1.6,1.3,3.2,2.5,5.6
		c0.7,1.3,1.1,2.4,1.6,3.5c0.5,0.5,0.6,1.9,0.6,2.4s-0.3,1.3-0.9,1.7c-0.8,0.7-1.9,1.2-2.9,0.6c-1-0.6-2.2-1.4-3.4-2.8
		c-1.2-1.4-2.1-3-3-4.6c-0.6-1.9-1.3-3.7-1.4-5.5l-5.6,1.9c0.1,1.8,0.8,3.7,1.7,5.8C5828,1642.6,5829.4,1644.8,5831,1646.7z
		 M5856.1,1675.5c2.2,2.5,4.6,4.2,7.4,5.1c2.8,1,5.6,1.4,8.5,0.8c2.6-0.3,5-1.5,7.5-3.6c2.5-2.2,3.9-4.4,4.9-7.1
		c1-2.8,0.9-5.6,0.3-8.5c-0.9-2.6-2.2-5.3-4.4-7.8c-2.2-2.5-4.4-3.9-7.1-5.4c-2.8-1-5.3-1.1-8.2-0.6c-2.9,0.6-5.6,1.9-7.7,3.9
		s-3.6,4.1-4.6,6.9s-1.1,5.3-0.6,8.2C5852.9,1670.6,5854,1673,5856.1,1675.5z M5860.8,1671.4c-1.2-1.4-1.9-2.7-2.3-4.3
		c-0.1-1.8-0.3-3.6,0.4-5.1c0.6-1.5,1.5-2.7,3.1-4.2s2.7-1.9,4.6-2.5s3.6-0.3,5.1,0.4s3,1.2,4.2,2.6c1.2,1.4,1.8,3.2,2.3,4.8
		s0.3,3.1-0.4,5.1c-0.6,1.5-1.8,3-3.1,4.2c-1.4,1.2-3,2.1-4.6,2.5c-1.8,0.1-3.4,0-5.1-0.4C5863.5,1673.9,5862,1672.8,5860.8,1671.4z
		 M5367.9,1190.9l9.3,10.7c2.2,2.5,4.3,4.4,7.1,5.4c2.5,1.2,5.6,1.4,8.2,1.1c2.6-0.3,5-1.5,7.5-3.6c2.5-2.2,3.9-4.4,4.9-7.1
		c0.7-2.5,0.6-5.4,0-8.3c-0.9-2.6-2.2-5.3-4.4-7.8l-9.3-10.7L5367.9,1190.9z M5377.1,1192.5l14.5-12.7l4.3,4.9
		c1.9,2.2,2.8,4.8,2.9,7.2c-0.2,2.6-1.4,5.1-3.6,7c-2.2,1.9-4.6,2.5-7.1,2.4c-2.6-0.2-4.8-1.6-6.7-3.8L5377.1,1192.5z
		 M5404.3,1224.3l5.5-4.8l9.3,10.7l4.4-3.8l-9.3-10.7l4.9-4.3l10.8,12.3l4.4-3.8l-15.5-17.8l-23.3,20.3l15.8,18.1l4.1-3.6
		L5404.3,1224.3z M5430.3,1262.5l15.1,17.3l4.4-3.8l-10.3-11.8l18.9-16.5l-4.8-5.5L5430.3,1262.5z M5466.9,1304.5l5,5.8l14-31
		l-4.5-5.2l-32.4,9.9l4.8,5.5l6.9-2.1l9.3,10.7L5466.9,1304.5z M5466.2,1285.3l12.4-4.1l-5.9,11.5L5466.2,1285.3z M5516.3,1336.7
		c1.5,0.6,2.5,0.7,4.1,0.3c1.3-0.2,2.6-0.9,3.7-1.8c1.9-1.7,2.8-3.4,2.5-6c-0.1-2.3-1.7-5.3-4.1-8l-10-11.5l-23.3,20.3l10.8,12.3
		c2.6,3,5.1,4.7,7.6,5.4c2.5,0.7,4.6,0.3,6.8-1.6c1.4-1.2,2.3-2.9,2.4-4.5C5517.4,1340.2,5517,1338.6,5516.3,1336.7z M5518,1324.2
		c1,1.1,2.2,2.5,2.1,3.5s-0.7,2-1.5,2.7c-0.8,0.7-1.4,1.2-2.6,0.9c-1.3-0.3-2.5-1.2-3.5-2.3l-4.8-5.5l5.5-4.8L5518,1324.2z
		 M5503.6,1338.2l-5.5-6.3l5.8-5l5.5,6.3c2.6,3,2.7,5.3,0.8,7c-1.1,1-2.1,0.9-3.2,0.8C5505.7,1340.7,5504.8,1339.6,5503.6,1338.2z
		 M5515,1359.6l4.8,5.5l23.3-20.3l-4.8-5.5L5515,1359.6z M5537.4,1386.4c2.2,2.5,4.6,4.2,7.4,5.1c2.8,1,5.6,1.4,8.5,0.8
		c2.6-0.3,5-1.5,7.5-3.6c2.5-2.2,3.9-4.4,4.9-7.1c1-2.8,0.9-5.6,0.3-8.5c-0.9-2.6-2.2-5.3-4.4-7.8s-4.4-3.9-7.1-5.4
		c-2.8-1-5.3-1.1-8.2-0.6c-2.9,0.6-5.6,1.9-7.7,3.9c-2.2,1.9-3.6,4.1-4.6,6.9c-1,2.8-1.1,5.3-0.6,8.2
		C5534.2,1381.6,5535.3,1384,5537.4,1386.4z M5542.1,1382.4c-1.2-1.4-1.9-2.7-2.3-4.3c-0.1-1.8-0.3-3.6,0.4-5.1
		c0.6-1.5,1.5-2.7,3.1-4.2c1.6-1.4,2.7-1.9,4.6-2.5c1.9-0.6,3.6-0.3,5.1,0.4c1.5,0.6,3,1.2,4.2,2.6c1.2,1.4,1.8,3.2,2.3,4.8
		s0.3,3.1-0.4,5.1c-0.6,1.5-1.8,3-3.1,4.2c-1.4,1.2-3,2.1-4.6,2.5c-1.8,0.1-3.4,0-5.1-0.4
		C5544.8,1384.9,5543.3,1383.7,5542.1,1382.4z M5556.4,1407.1l9.1,10.4c2.4,2.7,4.6,4.7,7.4,5.7c2.5,1.2,5.8,1.7,8.2,1.1
		s4.8-1.7,7.2-3.9c2.5-2.2,3.9-4.4,5.1-6.9c0.7-2.5,0.6-5.4,0-8.3c-0.9-2.6-2.2-5.3-4.6-8.1l-9.1-10.4L5556.4,1407.1z
		 M5565.3,1408.5l14.5-12.7l4.3,4.9c2.2,2.5,3,5.1,3.1,7.4c-0.2,2.6-1.6,4.8-3.8,6.7c-2.2,1.9-4.3,2.8-6.9,2.6s-4.8-1.6-6.9-4.1
		L5565.3,1408.5z M5583.9,1438.6l4.8,5.5l23.3-20.3l-4.8-5.5L5583.9,1438.6z M5635.2,1450.4l-23.2,7.2l10.5-21.7l-5-5.8l-14.5,30.5
		l4.5,5.2l32.2-10.2L5635.2,1450.4z M5630.6,1483.9l5.5-4.8l9.3,10.7l4.4-3.8l-9.3-10.7l4.9-4.3l10.8,12.3l4.4-3.8l-15.5-17.8
		l-23.3,20.3l15.8,18.1l4.1-3.6L5630.6,1483.9z M5662.9,1529.1l2.9-11.7c2.3,0.9,4,1.3,6.1,0.9c1.8-0.1,3.9-1,5.6-2.5
		s2.8-3.4,3.2-5.2c0.7-2,0.3-4.1-0.1-6.2s-1.8-4.2-3.4-6.2l-8.9-10.2l-23.3,20.3l4.5,5.2l6.3-5.5l4.3,4.9l0,0l-2.2,10.2
		L5662.9,1529.1z M5672.7,1510.5c-1.4,1.2-2.7,1.4-4.2,1.3s-3-1.2-4.4-2.9l-3.8-4.4l8.2-7.2l3.8,4.4c1.4,1.6,2.4,3.3,2.3,4.8
		C5674.4,1508,5674,1509.3,5672.7,1510.5z M5676,1545.3c1.9,2.2,3.6,3.6,5.9,4.5c1.7,0.9,3.5,1.3,5.3,1.1c1.8-0.1,3.4-1.1,4.8-2.3
		c1.4-1.2,2.5-2.7,2.6-4.2c0.1-1.5,0-3.4-0.7-4.7c-0.4-1.6-1.3-3.7-2.5-5.6c-1.2-1.9-1.8-3.7-2.3-4.8c-0.2-1.3-0.1-2.3,0.7-3
		c0.8-0.7,1.9-0.6,2.9-0.6c1.3,0.3,2.5,1.2,3.9,2.8c1.9,2.2,2.8,4.8,3.6,8l5.6-1.9c-0.2-1.3-0.8-3.2-1.7-4.8
		c-0.6-1.9-2.1-3.5-3.3-4.9c-1.9-2.2-3.9-3.9-5.6-4.8c-1.7-0.9-3.8-1-5.6-0.9c-1.8,0.1-3.2,0.8-4.5,2c-1.6,1.4-2.5,2.7-2.9,4.4
		c-0.1,1.5,0,3.4,0.7,4.7c0.4,1.6,1.3,3.2,2.5,5.6c0.7,1.3,1.1,2.4,1.6,3.5c0.5,0.5,0.4,1.6,0.6,2.4c0.2,0.8-0.3,1.3-0.9,1.7
		c-0.8,0.7-1.6,0.4-2.6,0.3c-1-0.1-2.3-0.9-3.7-2.6c-1.2-1.4-2.1-3-3-4.6c-0.6-1.9-1.3-3.7-1.2-5.2l-5.8,1.7
		c0.1,1.8,0.8,3.7,1.7,5.8C5673.1,1541.5,5674.3,1543.3,5676,1545.3z M5691.8,1562.3l4.8,5.5l23.3-20.3l-4.8-5.5L5691.8,1562.3z
		 M5705,1577.4l9.3,10.7c2.2,2.5,4.3,4.4,7.1,5.4c2.5,1.2,5.6,1.4,8.2,1.1s5-1.5,7.5-3.6c2.5-2.2,3.9-4.4,4.9-7.1
		c0.7-2.5,0.6-5.4,0-8.3c-0.9-2.6-2.2-5.3-4.4-7.8l-9.3-10.7L5705,1577.4z M5714.1,1579.1l14.5-12.7l4.3,4.9
		c1.9,2.2,2.8,4.8,2.9,7.2c-0.2,2.6-1.4,5.1-3.6,7c-2.2,1.9-4.6,2.5-7.1,2.4s-4.8-1.6-6.7-3.8L5714.1,1579.1z M5747.5,1626.3l5,5.8
		l14.2-30.8l-4.8-5.5l-32.4,9.9l4.8,5.5l6.9-2.1l9.3,10.7L5747.5,1626.3z M5746.8,1607.1l12.4-4.1l-5.9,11.5L5746.8,1607.1z
		 M5758.1,1638.3l9.3,10.7c2.2,2.5,4.3,4.4,7.4,5.7c2.5,1.2,5.3,1.1,7.9,0.8s5-1.5,7.5-3.6c2.5-2.2,3.9-4.4,4.9-7.1
		c0.7-2.5,0.9-5.1,0.3-8c-1.1-2.9-2.5-5.6-4.6-8.1l-9.3-10.7L5758.1,1638.3z M5767.2,1640l14.5-12.7l4.3,4.9
		c2.2,2.5,2.8,4.8,2.9,7.2c0.1,2.8-1.4,5.1-3.6,7c-2.2,1.9-4.3,2.8-7.1,2.4c-2.6-0.2-4.6-1.3-6.7-3.8L5767.2,1640z M5575.6,1110.7
		c-18.9-21.7-13.6-49.9,11.9-72.2c15.4-13.4,33.6-20.1,48.3-20.4c7.6,2.1,16.5,7.3,23.7,15.6c7.4,8.5,11,17,11.8,24
		c-2.6,4.7-8.9,13.1-17,22.6c2.3,3.8,8.5,11.4,10.9,14.2c9.4-5.3,22.6-12.9,32-18.7l2.2-5.8c-3.6-15.2-10.5-30.9-23.2-45.4
		c-28.2-32.4-75.5-39-110.6-8.3c-34.6,30.1-37.1,70.5-6.9,105c14.1,16.2,31.5,26.1,44.9,29.9l6.3-1.6c5.8-5,16.2-14.6,22-20.2
		c-2.4-3.3-10-12.5-12.4-15.3c-10.2,5.5-18.4,9.3-23.7,11.5C5590,1123.8,5583.3,1119.5,5575.6,1110.7z M5655.1,1231.7
		c27.8,31.8,74,34,109.4,3.1c33.2-28.9,35.4-68.5,8.6-99.3c-27.5-31.5-74.9-36.1-110.9-4.7C5629,1159.7,5627.3,1199.9,5655.1,1231.7
		z M5671.4,1222.7c-18.2-20.8-12.2-47.8,14.1-70.8c16.7-14.6,33.9-20.9,46.9-22.1c8.7,1.6,16.8,6.6,23.8,14.5
		c18.9,21.7,10,46.9-17.2,70.5c-17,14.8-32.4,20.5-42.3,22.4C5688,1236.3,5679.3,1231.8,5671.4,1222.7z M5805.5,1397
		c47.5-41.4,84.7-72.9,97.4-81.6l16.6,10.2l6.8-8.8l-39.5-45.3l-9.7,5.5c3.7,7,9.4,17.9,8.9,21.2c-1.8,4-27.5,28.3-60.2,57.3
		c7.9-43.6,17.4-99.2,26.6-124.6c-8.4-9.1-19-20.6-27.6-30.5l-9.6,5c2.7,6.4,5.5,14.6,5.7,18.7c-0.8,3.6-13.7,15.3-39.2,37.6
		c-22.8,19.9-37.5,31.7-42.9,35.5l-16.6-10.2l-6.3,8.9l39.5,45.3l9.6-5c-4.5-9.1-10.8-19.6-10-23.1c1.6-4.3,29.6-29.7,60.4-57
		c-5,28.5-11.6,64.7-18.3,94.7l-7.8,30.9L5805.5,1397z M5872.2,1459.1l-10.3-22.4c8.8-3.8,18.3-7.8,28.1-11.5l36.9,40.7
		c-6.1,10.7-11.4,20.1-16.1,28.6l-17.1-10.7l-6.5,8.6l42.8,49.1l9.4-5.3l-7.5-18.6c12.3-25.7,34.5-66.3,52.6-101.4
		c4.7-9,9.1-15.6,12.8-21.3c-5.9-7.4-18.8-18.8-23.3-21.7l-19.9,8.2c-37,13.5-75.9,27.6-107.8,37l-17.2-8.7l-6.3,8.9l39.7,45.5
		L5872.2,1459.1z M5906.5,1418.1c19.1-7.5,39.2-15.4,58.6-22.6c-10.1,19.9-20.5,39.1-30.2,56.2L5906.5,1418.1z M5953.3,1552.1
		l-6.5,8.6l20.6,23.6c9.3,10.7,20.2,25.9,28.8,35.8c19.1,21.9,46.3,31.5,66.9,13.6c15.1-13.2,14-31,6-46.8
		c13.3,5.3,28.7,6.3,40.8-4.2c18.9-16.5,14.6-40.3-7.4-65.5c-6.5-7.4-22.1-23.7-26.9-29.2l-19.6-22.5l-9.7,5.5
		c2.9,6.1,6.7,14.9,5.8,17.7c-0.8,4.1-16.2,17.5-25.8,25.8l-27.2,23.7c-8.5,7.4-26,21.7-29.5,23.8L5953.3,1552.1z M6045.2,1536.2
		c8.8-7.7,26.5-21.7,29.8-24l1.7,0.9c3.9,3.4,8.5,7.5,11.9,11.4c6,6.9,9.9,14.1,10.2,20.6c-0.9,5.1-3.6,10.8-10.2,16.6
		c-9.9,8.6-22,9.1-30.1,6.5l-20.4-25.6L6045.2,1536.2z M5992.6,1585.5c0.8-3.6,16.2-17.5,25.5-25.6l6.9-6l17.9,20.6
		c12.2,14,11,27.1,0.3,36.4c-7.7,6.7-17.1,9.1-24.7,7.1c-5-2.9-10.3-7.9-13.9-12c-5.7-6.6-11.1-14.4-12.1-18.9
		C5992.5,1586.5,5992.5,1586,5992.6,1585.5z M6053.8,1667.3l-6.5,8.6l42.1,48.3l9.4-5.3c-2.9-6.1-6.7-14.9-5.7-18.2
		c0.8-3.6,16.2-17.5,25.5-25.6l27.2-23.7c8.8-7.7,26.5-21.7,29.8-24l16.3,10.4l6.8-8.8l-42.1-48.3l-9.7,5.5
		c2.9,6.1,6.7,14.9,5.8,17.7c-0.8,4.1-16.2,17.5-25.8,25.8l-27.2,23.7c-8.5,7.4-26,21.7-29.5,23.8L6053.8,1667.3z M6145,1793.5
		c27.7,31.8,74,34,109.4,3.1c33.2-28.9,35.4-68.5,8.6-99.3c-27.5-31.5-74.9-36.1-110.9-4.7C6119,1721.6,6117.3,1761.7,6145,1793.5z
		 M6161.4,1784.6c-18.2-20.8-12.2-47.8,14.1-70.8c16.7-14.6,33.9-20.9,46.9-22.1c8.7,1.6,16.8,6.6,23.8,14.5
		c18.9,21.7,10,46.9-17.2,70.5c-17,14.8-32.4,20.5-42.3,22.4C6178,1798.1,6169.3,1793.6,6161.4,1784.6z M5467.7,863.4
		c-1.7-1.9-4.5-2.4-6.1-0.9s-1.6,4.3,0.1,6.2s4.5,2.4,6.1,0.9C5469.4,868.1,5469.4,865.3,5467.7,863.4 M5457.9,848.3
		c-2.1,0.4-4.8-1.1-6.6-1s-6.2-0.4-14.6,6.5c-8.4,6.4-6.3,16.6-6.3,16.6s6.3-1.6,7.3-1c1,0.6,6,18,7.4,20.1
		c1.9,2.2,8.5,7.5,10.5,9.2c2.2,2,12.3,8.1,15.4,8.8c2.8,0.4,6.2,0.4,8.5-0.2c2.6-0.9,5.7-4,6.9-6c1.4-2.2,1.4-16.2,1.1-20.3
		c-0.2-4.1-3.3-12.6-5.5-17.9c-2.2-5.8-9.9-14.1-14.1-15.7C5463.2,846,5459.7,847.6,5457.9,848.3z M5466.8,911
		c-9.4-2.4-10.8-3.6-17.6-10.2c-1.7-1.4-3.6-3.6-5-5.8c-1.2-1.9-1.8-3.2-2.6-3.5c-0.5-0.5-3.4,0.5-6.7,3.4c-1.4,1.2-5,5.8-9.2,13.8
		c-3.5,6-7.7,13.9-11.7,23.7c-2.1,4.8-4.3,9.5-6.5,15.3c-8.5,22.4-13.5,50.9-11.1,75.3c0.6,2.9,5.1,1.4,6.6,1
		c0.8-0.2,12-9,23.3-16.5c15.2-10.3,29.9-26.1,33.3-30.5c6-8.1,11.9-26.8,14.3-36.2c1.1-4.3,3.3-10.6,4-16.5
		c0.7-6.4,0.3-12.4-0.1-12.9C5477.3,911,5471.6,912.1,5466.8,911 M5393.4,979.8c-1.7-0.9-8.2,3.3-15.5,7.2
		c-7.5,3.6-29.9,17.8-37,23.5c-7.1,5.7-10.8,11.4-20.4,19.8c-9.6,8.4-28.5,20.5-38.5,27.8c-10.3,7.5-20.8,17.2-22.8,19.9
		c-2.5,2.7-2.8,3.9-1,6.6c1.6,2.4,3.8,1.5,5.3,1.1c1.3-0.7,5.9-3.7,28.8-14s71-35.4,82-41.1c10.7-6,12.4-7.9,14.4-11.1
		c1.5-3.3,2.3-7.3,2.8-11.2c0.8-3.6,1.3-19.5,1.5-22.1C5393.2,983.4,5394.7,980.7,5393.4,979.8 M5402.1,853
		c-3.3,2.9,2.4,10,3.9,14.5c1.5,4,0.2,4.7,0.2,4.7s-6.3-10-8.9-13.5c-2.4-3.3-4.8-5-7.8-7.2c-3.2-2.5-5.9-1.2-7.2,0
		c-1.9,1.2-2.3,2.9-1.6,4.8c0.6,1.9,9.7,16.7,9.7,16.7s-8.9-9.6-13-13.8c-4.4-3.9-7.4-1.3-7.9-0.8c-0.8,0.2-3.2,1.3-1.4,5.6
		c2,4,6.3,9.5,7.9,12.9s0.6,6.2,0.6,6.2s-3-5.6-6-9.7s-6.2-3.8-8.6-2.7c-2.1,0.9-3.3,2.4-1.8,6.8c1.8,4.2,1.2,5.8,1.6,10.7
		c1,5-3.9,18.8,6.1,31.9c9.4,13,21.7,11.5,25.3,11.8c3.6,0.8,12.7-0.9,13.8-1.4c0.5-0.5,3.3-2.9,7.7-11.1c4.7-7.9,6.4-18.1,7.5-23
		c1.1-4.3,1.5-13.8,1.4-16.2c-0.4-2.1-3.1-11.3-3.9-13.9c-1.1-2.9-3.7-7-7.8-10.6C5407.9,851.8,5405.4,850.1,5402.1,853
		 M5351.9,918.9c-2.5,2.7-4.2,4.6-1.4,9.4c2.8,4.8,13.5,14.3,15.6,16.8c2.2,2.5,4.4,3.9,13.4,7.1c9.6,3.2,17.4,2.2,20,1.4
		c2.4-1.1,4.1-3.1,5.1-6.9s-0.7-4.7-2.7-6.4c-2.5-1.7-11.2-2.3-14.3-2.5c-3.3-0.5-4.8-1.6-6.6-2c-1.8-0.4-8.3-6.8-11.7-9.6
		c-3.1-3.1-12.5-9.9-13.2-10.2C5355.5,915.8,5354.2,916.5,5351.9,918.9 M5346.5,930.9c-3.3-3.8-9.1,1.7-11.9,4.6
		c-2.8,2.9,2.8,11.5,4.5,13.5c1.4,2.2,6.8,6.7,12.4,11.4c5.9,4.5,15.1,12.9,24.4,13.5c9.2,0.6,13.6-2.7,16.1-5.3
		c2.2-2.4,0.7-6.4,0-7.2c-0.7-1.3-11.6-3.9-16.4-5c-4.6-1.3-9.7-5-11.7-6.7C5361.6,947.7,5350,935,5346.5,930.9 M5369.9,981
		c-1-0.6-15-10.6-21.9-16.2c-6.8-5.6-14.5-14.9-17.1-17.4c-2.6-3-5.4-0.1-6.8,1.6c-1.9,1.7-7.4,7-20.5,20.8
		c-12.8,13.6-34.1,30.7-38.7,34.2c-4.1,3.6,0.1,5.7,0.9,6c0.2,0.3,8.9,5.3,12.9,7.1c3.8,1.5,16.6,6.8,19.4,6.2
		c3.1-0.3,36-17.4,46.5-23.1C5355.5,994.5,5371.1,981.4,5369.9,981 M5227.6,876.6c-0.5-0.5-1.2-0.9-4.8-1.1
		c-3.1-0.2-8.7-4.5-12.7-7.3c-3.9-2.8-8.3-7.3-9.3-7.9c-1-0.6-4.7,0.2-6.3,1.1c-1.9,0.6-2.3-0.9-3,9.9s-1.5,21.6,3.8,42.6
		c4.7,21.5,23.5,52.9,37.2,67.6c13.2,14.6,23.5,18.6,24.6,18.2c1.6-0.4,17-11,24.9-16.4c8.1-5.6,21.6-17.4,21.3-20.5
		c-0.1-2.3-2.4-6.1-6-9.7c-1.7-1.9-4.4-3.9-6.4-5.1c-4.7-3.7-9.3-3-12.8-1.4c-4,1.5-18,7-21.9,7c-3.4,0-13-2.2-24.2-22.8
		c-11.7-20.7-5.5-47.8-5.4-49.4C5226.9,880.2,5227.9,876.9,5227.6,876.6 M5323.1,1065.8c-0.1-2.3,10.1-8.3,18.2-14
		c8.4-5.4,21.7-8.3,33.3-12.2c12.1-3.8,46.4-7.1,86.6-55.7c40.2-49.1,31.6-110.6,23.2-127.9c-7.8-17.3-39.7-79.8-92.7-108.5
		c-53.5-28.7-96.5-14.9-130.4,8.9c-33.6,24-71.5,68.6-76.5,108.3c-5,39.6,10,84.5,41.9,119.5c31.6,35.2,77.9,52.3,77.9,52.3
		l-25.7,17.1c0,0-40.3-7.4-79.2-57c-38.9-49.6-52.4-89.5-46.4-136.8c5.8-47.6,49.2-92.6,65.4-108.3c16.1-15.9,52.1-41.1,93.4-49.1
		c41.3-7.5,90.5,15.2,94.7,18.3c4.2,3.1,9.9,5.8,24.6,17.2s35.7,32.1,42.6,40.6c7.1,8.7,13.9,14.9,30.1,47.2
		c15.9,32,19.4,67.6,18.7,89c-0.4,21.6-11,40-19.2,57.8c-8.4,17.5-32.5,45.2-41.3,52.9c-9.1,7.9-14.8,12.9-37.9,25.8
		c-23.1,12.9-53.4,19.1-59.1,19.7c-6.2,0.6-11.4,1.3-23.5,0.7C5329.7,1070.6,5323.7,1068.2,5323.1,1065.8 M5240.8,842.4
		c-2.5,2.7-7,4.2-10.7,1.1c-3.7-3.1-9-8.6-6.6-13.1c2.1-4.2,6.6-5.7,9.6-4.5c3,1.2,3,1.2,6.2,3.8
		C5242.3,832.5,5243.3,839.8,5240.8,842.4z M5303.9,949.2c-4.9-0.1-7.8-2.9-11.3-4.6c-3.7-2.1-6.6-4.8-9.2-5
		c-2.8,0.1-11.2,2.1-17.7,5.8c-6.7,3.9-11.6,3.8-12.9,3.5c-1.3-0.3-16-15.5-19.6-25.9c-4-10.1-4.3-16-3.2-28.6
		c0.8-12.3,2.3-18.9,2.3-18.9l-2.6-3c0,0-13.7-0.2-20.1-10.9c-6.8-10.5-14.9-31.5,4.6-47.9c19.4-16.5,32.6-5.3,34.2-5.7
		c1.8-0.1,4-1.5,1.3-4c-2.4-2.7-7.4-5.7-11.2-6.7c-4-1.3-11.9-2.6-8.9-6.3c3.3-3.4,13.9-10.7,26.2-5.4c12.6,5,13.4,8.1,16.7,4.8
		c3.3-2.9-4.1-8.5-7.1-9.8c-2.7-1.5-9.8-4.5-11.1-4.4c-0.8,0.2-6.4-1.2-2.5-4.6s12.7-8.7,24.1-5.1c11.1,3.9,16.1,13.5,19.4,11.1
		c3-2.1,0.7-6.4-2-8.9c-2.9-2.8-12.8-8.6-15.6-9.1c-2.5-0.7-5-2.9-0.6-5.7c4.6-2.5,17-7.1,27.9-0.2c11.1,7.2,12.6,18.9,15,18.3
		c2.6-0.3,5.2-4,3.2-9.6c-1.7-5.3-3-8.5-9.7-12.8c-6.7-4.3-6.8-6.1-3.9-7.2c3.2-0.8,16.8-7.9,28.8,5.8c11.7,13.4,2.2,27.5,5.9,30.1
		s9.8-10.9,11.7-17c1.7-6.3,0.4-21.1,5.8-20c5.6,1.4,11.9,10.4,13.4,18.7c1,8.3,0.4,8.8-0.3,11.8s-8,18.5-6.5,19.2
		c1.2,0.9,8.6-4.6,12.5-10c4.2-5.1,9.2-21,9.4-24.6c0-3.9,2.1-4.8,5.2-1.2c3.4,3.3,10.9,14.2,8.6,25.4c-1.8,11.2-13.6,22-15.8,22.9
		c-2.4,0.6-6.5,4.7-1.6,4.8c4.6,0.3,17.4-2.2,26.9-8c9.5-6.3,17.7-13,20.3-10.5c2.2,2.5-4.5,16.5-9.8,22.5
		c-5.8,6.1-13.2,15.9-28.8,21.8c-15.9,6.1-30.9,7.2-33.2,5.7c-2.2-2-4.4-3.9-4.4-3.9s0-15-9.2-23.8c-9-8.6-18-12.8-32.3-14.8
		c-13.8-2-24,0.7-30.5,4.4c-5.9,3.7-14.7,11.9-17.5,18.2c-3,6.5-1.5,6.6-1.5,6.6s0.9,1.6,1.7,1.4c0.8-0.2,10.7-17.1,22.4-21.9
		c11.4-4.6,22.7-7.7,43.2,1.9c18.7,9.3,15.4,23.8,16,30s1.3,11.4,1.8,15.3c1,3.9,3.6,26.8,2,39.3c-1.9,12.3-1.4,13.3-4.9,14.9
		c-3.2,1.3-9.3,0.4-11,2.3s-3.4,8.8-7.4,9.8s-6,0.9-11.3-1.3c-5.5-2.4-9.4-1.4-10-0.9c-0.5,0.5,1.4,2.2,2.9,3.3
		c2,1.2,4.3,1.1,6.7,4.3c1.8,3.2,4.7,7-1.2,14.1C5312.2,945.9,5308.9,948.7,5303.9,949.2z M5240.8,850.2c6-5.3,4.8-17.2-1-23.8
		c0,0-8-8-16.7-1.4c-9,6.9-4.8,17.2-0.1,23.7C5227.6,855,5234.8,855.4,5240.8,850.2z M5324.2,856.7c0.1-1-4.3-8.3-11.5-9.3
		c-6.9-0.7-13.3,2.4-13.5,4.5c-0.1,1.5,5,6.3,11.7,6.7c3.1,0.2,6.2,0.4,8.8,0.1C5322.3,857.8,5324.4,856.9,5324.2,856.7z
		 M5335.5,895.6c0.1-1.5-0.3-2.6-3.4-3.3c-3-1.2-5.4-0.6-5.6,1.9c0.3,2.6,3.7,3.1,4.4,3.4"/>
</g>
</svg>
