<?xml version="1.0" encoding="utf-8"?>
<!-- Generator: Adobe Illustrator 18.0.0, SVG Export Plug-In . SVG Version: 6.00 Build 0)  -->
<!DOCTYPE svg PUBLIC "-//W3C//DTD SVG 1.1//EN" "http://www.w3.org/Graphics/SVG/1.1/DTD/svg11.dtd">
<svg version="1.1"
	 id="svg8" xmlns:dc="http://purl.org/dc/elements/1.1/" xmlns:cc="http://creativecommons.org/ns#" xmlns:rdf="http://www.w3.org/1999/02/22-rdf-syntax-ns#" xmlns:svg="http://www.w3.org/2000/svg" xmlns:sodipodi="http://sodipodi.sourceforge.net/DTD/sodipodi-0.dtd" xmlns:inkscape="http://www.inkscape.org/namespaces/inkscape" sodipodi:docname="conabio_completo.svg" inkscape:version="0.92.4 (5da689c313, 2019-01-14)"
	 xmlns="http://www.w3.org/2000/svg" xmlns:xlink="http://www.w3.org/1999/xlink" x="0px" y="0px" viewBox="0 0 2267.7 2267.7"
	 enable-background="new 0 0 2267.7 2267.7" xml:space="preserve">
<sodipodi:namedview  borderopacity="1.0" bordercolor="#666666" showgrid="false" pagecolor="#ffffff" inkscape:cy="1175.2633" inkscape:cx="1409.0328" inkscape:zoom="0.1400905" id="base" inkscape:document-units="mm" inkscape:pageshadow="2" inkscape:window-x="-8" inkscape:current-layer="layer1" inkscape:window-height="962" inkscape:window-y="-8" inkscape:pageopacity="0.0" inkscape:window-width="1280" inkscape:window-maximized="1">
	</sodipodi:namedview>
<path id="path3713" inkscape:connector-curvature="0" fill="none" stroke="#000000" stroke-width="0.2646" d="M689.4,1240.4
	c3.9,0,7.8-0.6,11.2-2.2c3.3-1.7,6.1-3.3,8.4-6.1l-7.3-6.7c-2.8,3.9-7.3,5.6-11.7,5.6c-2.8,0-5.6-0.6-7.8-1.7
	c-2.2-1.7-4.5-3.3-5.6-5.6c-1.1-2.2-1.7-5-1.7-7.8c0-2.8,0.6-5.6,1.7-7.8c1.1-2.2,3.3-4.5,5.6-5.6c2.2-1.1,5-1.7,7.8-1.7
	c4.5,0,8.9,1.7,11.7,5.6l7.3-6.7c-2.2-2.8-5-5-8.4-6.1c-3.3-1.7-7.3-2.2-11.2-2.2c-5,0-9.5,0.6-13.4,2.8c-3.9,2.2-6.7,5-8.9,8.9
	c-2.2,3.9-3.3,8.4-3.3,12.8c0,4.5,1.1,9.5,3.3,12.8c2.2,3.3,5,6.1,8.9,8.4C679.9,1239.3,684.4,1240.4,689.4,1240.4z M746.3,1240.4
	c5,0,9.5-1.1,13.4-3.3c3.9-2.2,7.3-5,9.5-8.9c2.2-3.3,3.3-7.8,3.3-12.3c0-4.5-1.1-8.9-3.3-12.8c-2.2-3.3-5.6-6.7-9.5-8.9
	c-3.9-1.7-8.4-2.8-13.4-2.8c-4.5,0-8.9,1.1-13.4,2.8c-3.9,2.2-6.7,5.6-8.9,8.9c-2.2,3.9-3.3,8.4-3.3,12.8c0,4.5,1.1,8.4,3.3,12.3
	c2.2,3.9,5,6.7,8.9,8.9C737.4,1239.3,741.8,1240.4,746.3,1240.4z M746.3,1230.9c-2.8,0-5-0.6-7.3-1.7c-2.2-1.7-4.5-3.3-5.6-5.6
	c-1.1-2.2-1.7-5-1.7-7.8c0-2.8,0.6-5.6,1.7-7.8s3.3-4.5,5.6-5.6c2.2-1.1,4.5-1.7,7.3-1.7s5.6,0.6,7.8,1.7c2.2,1.1,3.9,3.3,5.6,5.6
	c1.1,2.2,1.7,5,1.7,7.8c0,2.8-0.6,5.6-1.7,7.8c-1.7,2.2-3.3,3.9-5.6,5.6C751.9,1230.4,749.1,1230.9,746.3,1230.9z M842.8,1239.3
	v-47.4h-9.5l-17.3,29.6l-17.9-29.6h-8.9v47.4h10v-27.9l13.9,22.9h5l13.9-23.4v28.5H842.8z M862.3,1239.3h11.2v-47.4h-11.2V1239.3z
	 M908.1,1240.4c4.5,0,8.4-0.6,11.2-2.2c3.3-1.1,5.6-2.8,7.3-5c1.1-2.2,2.2-5,2.2-7.3c0-3.3-1.1-6.1-2.8-7.8
	c-1.7-1.7-3.3-3.3-5.6-3.9c-2.8-1.1-5.6-1.7-8.9-2.8c-3.9-0.6-6.1-1.7-7.8-2.2c-1.7-1.1-2.8-2.2-2.8-3.9c0-1.7,0.6-2.8,2.2-3.9
	c1.7-1.1,3.9-1.1,6.7-1.1c4.5,0,8.9,1.1,13.4,3.3l3.3-8.4c-2.2-1.1-4.5-2.2-7.8-2.8c-2.8-1.1-5.6-1.1-8.9-1.1
	c-3.9,0-7.8,0.6-10.6,1.7c-3.3,1.7-5,3.3-6.7,5.6c-1.7,2.2-2.2,4.5-2.2,7.3c0,3.3,0.6,6.1,2.2,7.8c1.7,1.7,3.3,3.3,6.1,3.9
	c2.2,1.1,5,1.7,8.9,2.8c2.2,0.6,3.9,1.1,5.6,1.7c1.1,0,2.8,1.1,3.3,1.7c0.6,0.6,1.1,1.7,1.1,2.8c0,1.7-0.6,3.3-2.2,3.9
	c-1.7,0.6-3.9,1.1-6.7,1.1c-2.8,0-5.6-0.6-8.9-1.1c-2.8-1.1-5-2.2-7.3-3.9l-3.3,8.4c2.2,1.7,5,2.8,8.4,3.9
	C900.8,1239.9,904.7,1240.4,908.1,1240.4z M944.3,1239.3h11.2v-47.4h-11.2V1239.3z M997.9,1240.4c5,0,9.5-1.1,13.4-3.3
	c3.9-2.2,6.7-5,9.5-8.9c2.2-3.3,3.3-7.8,3.3-12.3c0-4.5-1.1-8.9-3.3-12.8c-2.8-3.3-5.6-6.7-9.5-8.9c-3.9-1.7-8.4-2.8-13.4-2.8
	c-5,0-9.5,1.1-13.4,2.8c-3.9,2.2-7.3,5.6-9.5,8.9c-2.2,3.9-3.3,8.4-3.3,12.8c0,4.5,1.1,8.4,3.3,12.3c2.2,3.9,5.6,6.7,9.5,8.9
	C988.4,1239.3,992.9,1240.4,997.9,1240.4z M997.9,1230.9c-2.8,0-5.6-0.6-7.8-1.7c-2.2-1.7-3.3-3.3-5-5.6c-1.7-2.2-2.2-5-2.2-7.8
	c0-2.8,1.1-5.6,2.2-7.8c1.1-2.2,2.8-4.5,5-5.6c2.2-1.1,5-1.7,7.8-1.7s5.6,0.6,7.8,1.7c2.2,1.1,3.9,3.3,5,5.6c1.7,2.2,2.2,5,2.2,7.8
	c0,2.8-0.6,5.6-2.2,7.8c-1.1,2.2-2.8,3.9-5,5.6C1003.5,1230.4,1000.7,1230.9,997.9,1230.9z M991.8,1188h8.4l12.3-9.5h-11.7
	L991.8,1188z M1073.2,1191.9v29l-23.4-29h-9.5v47.4h11.2v-28.5l23.4,28.5h9.5v-47.4H1073.2z M1163.6,1191.9v29l-23.4-29h-8.9v47.4
	h10.6v-28.5l24,28.5h8.9v-47.4H1163.6z M1230,1239.3h11.2l-21.2-47.4h-10.6l-21.2,47.4h11.2l4.5-10h21.8L1230,1239.3z
	 M1207.1,1220.9l7.3-17.9l7.8,17.9H1207.1z M1276.9,1240.4c3.9,0,7.8-0.6,11.2-2.2c3.3-1.7,6.1-3.3,8.4-6.1l-7.3-6.7
	c-3.3,3.9-7.3,5.6-11.7,5.6c-2.8,0-5.6-0.6-7.8-1.7c-2.2-1.7-4.5-3.3-5.6-5.6c-1.1-2.2-1.7-5-1.7-7.8c0-2.8,0.6-5.6,1.7-7.8
	s3.3-4.5,5.6-5.6c2.2-1.1,5-1.7,7.8-1.7c4.5,0,8.4,1.7,11.7,5.6l7.3-6.7c-2.2-2.8-5-5-8.4-6.1c-3.3-1.7-7.3-2.2-11.2-2.2
	c-5,0-9.5,0.6-13.4,2.8c-3.9,2.2-7.3,5-9.5,8.9c-2.2,3.9-3.3,8.4-3.3,12.8c0,4.5,1.1,9.5,3.3,12.8s5.6,6.1,9.5,8.4
	C1267.4,1239.3,1271.9,1240.4,1276.9,1240.4z M1312,1239.3h11.2v-47.4H1312V1239.3z M1365.6,1240.4c5,0,9.5-1.1,13.4-3.3
	c3.9-2.2,6.7-5,8.9-8.9c2.2-3.3,3.3-7.8,3.3-12.3c0-4.5-1.1-8.9-3.3-12.8c-2.2-3.3-5-6.7-8.9-8.9c-3.9-1.7-8.4-2.8-13.4-2.8
	c-5,0-9.5,1.1-13.4,2.8c-3.9,2.2-7.3,5.6-9.5,8.9c-2.2,3.9-3.3,8.4-3.3,12.8c0,4.5,1.1,8.4,3.3,12.3c2.2,3.9,5.6,6.7,9.5,8.9
	C1356.1,1239.3,1360.6,1240.4,1365.6,1240.4z M1365.6,1230.9c-2.8,0-5.6-0.6-7.8-1.7c-2.2-1.7-3.3-3.3-5-5.6c-1.7-2.2-2.2-5-2.2-7.8
	c0-2.8,1.1-5.6,2.2-7.8c1.1-2.2,2.8-4.5,5-5.6c2.2-1.1,5-1.7,7.8-1.7c2.8,0,5,0.6,7.8,1.7c2.2,1.1,3.9,3.3,5,5.6
	c1.1,2.2,2.2,5,2.2,7.8c0,2.8-1.1,5.6-2.2,7.8c-1.1,2.2-2.8,3.9-5,5.6C1370.6,1230.4,1368.4,1230.9,1365.6,1230.9z M1440.9,1191.9
	v29l-24-29h-8.9v47.4h11.2v-28.5l23.4,28.5h8.9v-47.4H1440.9z M1506.7,1239.3h11.7l-21.2-47.4h-11.2l-21.2,47.4h11.2l4.5-10h21.8
	L1506.7,1239.3z M1483.9,1220.9l7.8-17.9l7.3,17.9H1483.9z M1531.3,1239.3h35.1v-8.9h-24v-38.5h-11.2L1531.3,1239.3L1531.3,1239.3z
	 M1628.9,1191.9h-20.6v47.4h11.2v-12.8h9.5c3.9,0,7.8-0.6,11.2-2.2c2.8-1.1,5-3.3,6.7-5.6c1.7-2.8,2.8-6.1,2.8-9.5s-1.1-6.7-2.8-8.9
	c-1.7-2.8-3.9-5-6.7-6.1C1636.7,1192.4,1632.8,1191.9,1628.9,1191.9z M1628.4,1217.5h-8.9v-16.7h8.9c3.3,0,5.6,1.1,7.3,2.2
	c1.7,1.7,2.8,3.3,2.8,6.1c0,2.8-1.1,5-2.8,6.1C1633.9,1217,1631.7,1217.5,1628.4,1217.5z M1698.7,1239.3h11.7l-21.2-47.4H1678
	l-21.2,47.4h11.2l4.5-10h22.3L1698.7,1239.3z M1675.8,1220.9l7.8-17.9l7.3,17.9H1675.8z M1765.6,1239.3l-10.6-15.1
	c3.3-1.1,5.6-3.3,7.3-5.6c1.7-2.8,2.2-6.1,2.2-9.5s-0.6-6.7-2.2-8.9c-1.7-2.8-4.5-4.5-7.3-6.1c-2.8-1.7-6.7-2.2-11.2-2.2h-20.1v47.4
	h10.6v-12.8h9.5h0.6l9.5,12.8L1765.6,1239.3L1765.6,1239.3z M1753.9,1209.2c0,2.8-1.1,5-2.8,6.1c-1.7,1.7-4.5,2.2-7.8,2.2h-8.9
	v-16.7h8.9c3.3,0,6.1,1.1,7.8,2.2C1752.8,1204.7,1753.9,1206.4,1753.9,1209.2z M1817.5,1239.3h11.2l-21.2-47.4h-10.6l-21.2,47.4
	h11.2l3.9-10h22.3L1817.5,1239.3z M1794.6,1220.9l7.3-17.9l7.8,17.9H1794.6z M677.1,1307.9v-11.2h22.3v-8.9h-22.3v-10h25.1v-8.9
	h-35.7v47.4h36.8v-8.4L677.1,1307.9L677.1,1307.9z M720.1,1316.3h35.1v-8.9h-24v-38.5h-11.2L720.1,1316.3L720.1,1316.3z
	 M819.9,1317.4c3.9,0,7.8-0.6,11.2-2.2c3.3-1.7,6.1-3.9,8.4-6.1l-7.3-6.7c-2.8,3.9-7.3,5.6-11.7,5.6c-2.8,0-5.6-0.6-7.8-1.7
	c-2.2-1.7-4.5-3.3-5.6-5.6c-1.1-2.2-1.7-4.5-1.7-7.8c0-3.3,0.6-5,1.7-7.8s3.3-4.5,5.6-5.6c2.2-1.1,5-2.2,7.8-2.2
	c4.5,0,8.9,2.2,11.7,5.6l7.3-6.1c-2.2-2.8-5-5-8.4-6.1c-3.3-1.7-7.3-2.2-11.2-2.2c-5,0-9.5,0.6-13.4,2.8c-3.9,2.2-6.7,5-8.9,8.9
	c-2.2,3.9-3.3,8.4-3.3,12.8s1.1,8.4,3.3,12.3c2.2,3.9,5,6.7,8.9,8.9C810.4,1316.3,814.9,1317.4,819.9,1317.4z M876.8,1317.4
	c5,0,9.5-1.1,13.4-3.3c3.9-2.2,7.3-5,9.5-8.9c2.2-3.3,3.3-7.3,3.3-12.3s-1.1-8.9-3.3-12.8c-2.2-3.9-5.6-6.7-9.5-8.9
	c-3.9-1.7-8.4-2.8-13.4-2.8c-4.5,0-8.9,1.1-12.8,2.8c-4.5,2.2-7.3,5-9.5,8.9c-2.2,3.9-3.3,8.4-3.3,12.8s1.1,8.4,3.3,12.3
	c2.2,3.9,5,6.7,9.5,8.9C867.9,1316.3,872.4,1317.4,876.8,1317.4z M876.8,1307.9c-2.8,0-5-0.6-7.3-1.7c-2.2-1.7-4.5-3.3-5.6-5.6
	c-1.1-2.2-1.7-4.5-1.7-7.8c0-3.3,0-5,1.7-7.8c1.7-2.8,3.3-4.5,5.6-5.6c2.2-1.1,4.5-2.2,7.3-2.2c3.3,0,5.6,1.1,7.8,2.2
	c2.2,1.1,3.9,2.8,5.6,5.6c1.1,2.2,1.7,5,1.7,7.8s-0.6,5.6-1.7,7.8c-1.7,2.2-3.3,3.9-5.6,5.6C882.4,1307.4,880.2,1307.9,876.8,1307.9
	z M952.7,1268.9v29l-24-29h-8.9v47.4h10.6v-28.5l24,28.5h8.9v-47.4H952.7z M1005.7,1317.4c5,0,9.5-1.1,13.4-3.3
	c3.9-2.2,7.3-5,9.5-8.9c2.2-3.3,3.3-7.3,3.3-12.3s-1.1-8.9-3.3-12.8c-2.2-3.9-5.6-6.7-9.5-8.9c-3.9-1.7-8.4-2.8-13.4-2.8
	s-9.5,1.1-13.4,2.8c-3.9,2.2-6.7,5-8.9,8.9c-2.2,3.9-3.3,8.4-3.3,12.8s1.1,8.4,3.3,12.3c2.2,3.9,5,6.7,8.9,8.9
	C996.2,1316.3,1000.7,1317.4,1005.7,1317.4z M1005.7,1307.9c-2.8,0-5-0.6-7.3-1.7c-2.2-1.7-4.5-3.3-5.6-5.6
	c-1.1-2.2-1.7-4.5-1.7-7.8c0-3.3,0.6-5,1.7-7.8c1.1-2.8,3.3-4.5,5.6-5.6c2.2-1.1,4.5-2.2,7.3-2.2s5.6,1.1,7.8,2.2
	c2.2,1.1,3.9,2.8,5.6,5.6c1.1,2.2,1.7,5,1.7,7.8s-0.6,5.6-1.7,7.8c-1.7,2.2-3.3,3.9-5.6,5.6
	C1011.3,1307.4,1008.5,1307.9,1005.7,1307.9z M1071,1317.4c4.5,0,8.4-0.6,11.7-2.2c3.3-1.7,6.1-3.9,8.4-6.1l-7.3-6.7
	c-3.3,3.9-7.3,5.6-11.7,5.6c-3.3,0-5.6-0.6-8.4-1.7c-2.2-1.7-3.3-3.3-5-5.6c-1.7-2.2-2.2-4.5-2.2-7.8c0-3.3,1.1-5,2.2-7.8
	c1.1-2.8,2.8-4.5,5-5.6c2.8-1.1,5-2.2,8.4-2.2c4.5,0,8.4,2.2,11.7,5.6l7.3-6.1c-2.2-2.8-5-5-8.4-6.1c-3.3-1.7-7.3-2.2-11.2-2.2
	c-5,0-9.5,0.6-13.4,2.8c-3.9,2.2-7.3,5-9.5,8.9c-2.2,3.9-3.3,8.4-3.3,12.8s1.1,8.4,3.3,12.3c2.2,3.9,5.6,6.7,9.5,8.9
	C1062.1,1316.3,1066.5,1317.4,1071,1317.4z M1106.7,1316.3h10.6v-47.4h-10.6V1316.3z M1190.4,1316.3v-47.4h-8.9l-17.3,29.6
	l-17.9-29.6h-9.5v47.4h10.6v-27.9l13.9,22.9h5l13.9-23.4v28.5H1190.4z M1209.9,1316.3h11.2v-47.4h-11.2V1316.3z M1251.8,1307.9
	v-11.2h21.8v-8.9h-21.8v-10h25.1v-8.9h-36.3v47.4h36.8v-8.4L1251.8,1307.9L1251.8,1307.9z M1327.1,1268.9v29l-23.4-29h-8.9v47.4
	h10.6v-28.5l24,28.5h8.9v-47.4H1327.1z M1367.3,1277.8v38.5h11.2v-38.5h15.6v-8.9h-41.8v8.9h15.6H1367.3z M1430.3,1317.4
	c5,0,9.5-1.1,13.4-3.3c3.9-2.2,6.7-5,8.9-8.9c2.8-3.3,3.9-7.3,3.9-12.3s-1.1-8.9-3.9-12.8c-2.2-3.9-5-6.7-8.9-8.9
	c-3.9-1.7-8.4-2.8-13.4-2.8s-9.5,1.1-13.4,2.8c-3.9,2.2-7.3,5-9.5,8.9c-2.2,3.9-3.3,8.4-3.3,12.8s1.1,8.4,3.3,12.3
	c2.2,3.9,5.6,6.7,9.5,8.9C1420.8,1316.3,1425.3,1317.4,1430.3,1317.4z M1430.3,1307.9c-2.8,0-5.6-0.6-7.8-1.7
	c-2.2-1.7-3.3-3.3-5-5.6c-1.7-2.2-2.2-4.5-2.2-7.8c0-3.3,1.1-5,2.2-7.8c1.1-2.8,2.8-4.5,5-5.6c2.2-1.1,5-2.2,7.8-2.2
	c2.8,0,5.6,1.1,7.8,2.2c2.2,1.1,3.9,2.8,5,5.6c1.1,2.2,2.2,5,2.2,7.8s-1.1,5.6-2.2,7.8c-1.1,2.2-2.8,3.9-5,5.6
	C1435.9,1307.4,1433.1,1307.9,1430.3,1307.9z M1541.9,1268.9h-11.2l-12.8,21.2l-12.3-21.2h-11.7l18.4,30.7v16.7h10.6v-16.7
	L1541.9,1268.9z M1603.3,1317.4c6.7,0,11.7-2.2,15.6-5.6c3.9-3.9,5.6-9.5,5.6-16.2v-26.8h-10.6v26.2c0,4.5-1.1,7.8-2.8,9.5
	c-1.7,2.2-4.5,3.3-7.8,3.3c-7.3,0-10.6-4.5-10.6-12.8v-26.2h-11.2v26.8c0,6.7,1.7,12.3,5.6,16.2
	C1591,1315.2,1596.6,1317.4,1603.3,1317.4z M1659.6,1317.4c3.9,0,7.8-0.6,10.6-2.2c3.3-1.1,5.6-2.8,7.3-5c1.1-2.2,2.2-5,2.2-7.8
	c0-2.8-1.1-5.6-2.8-7.3c-1.7-1.7-3.3-3.3-5.6-3.9c-2.2-1.1-5.6-1.7-8.9-2.8c-3.9-0.6-6.1-1.7-7.8-2.2c-1.7-1.1-2.8-2.2-2.8-3.9
	c0-1.7,1.1-2.8,2.2-3.9c1.7-1.1,3.9-1.7,6.7-1.7c4.5,0,8.9,1.7,13.4,3.9l3.3-8.4c-2.2-1.1-4.5-2.2-7.3-2.8c-3.3-1.1-6.1-1.1-8.9-1.1
	c-4.5,0-8.4,0.6-11.2,1.7c-3.3,1.7-5,3.3-6.7,5.6c-1.7,2.2-2.2,4.5-2.2,7.3c0,3.3,0.6,5.6,2.2,7.8c1.7,1.7,3.3,3.3,6.1,3.9
	c2.2,1.1,5,1.7,8.9,2.8c2.2,0.6,3.9,1.1,5.6,1.7c1.1,0,2.8,1.1,3.3,1.7c0.6,0.6,1.1,1.7,1.1,2.8c0,1.7-0.6,3.3-2.2,3.9
	c-1.7,0.6-3.9,1.1-6.7,1.1s-5.6-0.6-8.4-1.1c-2.8-1.1-5.6-2.2-7.8-3.9l-3.3,8.4c2.2,1.7,5,2.8,8.4,3.9S1655.7,1317.4,1659.6,1317.4z
	 M1718.2,1317.4c5,0,9.5-1.1,13.4-3.3c3.9-2.2,7.3-5,9.5-8.9c2.2-3.3,3.3-7.3,3.3-12.3s-1.1-8.9-3.3-12.8c-2.2-3.9-5.6-6.7-9.5-8.9
	c-3.9-1.7-8.4-2.8-13.4-2.8s-8.9,1.1-13.4,2.8c-3.9,2.2-6.7,5-8.9,8.9c-2.2,3.9-3.3,8.4-3.3,12.8s1.1,8.4,3.3,12.3
	c2.2,3.9,5,6.7,8.9,8.9C1709.3,1316.3,1713.2,1317.4,1718.2,1317.4z M1718.2,1307.9c-2.8,0-5-0.6-7.3-1.7c-2.2-1.7-4.5-3.3-5.6-5.6
	c-1.1-2.2-1.7-4.5-1.7-7.8c0-3.3,0.6-5,1.7-7.8c1.1-2.8,3.3-4.5,5.6-5.6c2.2-1.1,4.5-2.2,7.3-2.2c2.8,0,5.6,1.1,7.8,2.2
	c2.2,1.1,3.9,2.8,5.6,5.6c1.1,2.2,1.7,5,1.7,7.8s-0.6,5.6-1.7,7.8c-1.7,2.2-3.3,3.9-5.6,5.6
	C1723.8,1307.4,1721,1307.9,1718.2,1307.9z M666.5,1393.3h21.8c5,0,9.5-0.6,13.4-2.8c3.9-1.7,7.3-5,9.5-8.4
	c2.2-3.3,3.3-7.3,3.3-12.3s-1.1-8.9-3.3-12.8c-2.2-3.3-5.6-6.1-9.5-8.4c-3.9-1.7-8.4-2.8-13.4-2.8h-21.8V1393.3z M677.7,1384.4
	v-29.6h10c4.5,0,8.4,1.7,11.2,3.9c2.8,2.8,4.5,6.7,4.5,11.2c0,4.5-1.7,7.8-4.5,10.6c-2.8,2.8-6.7,3.9-11.2,3.9H677.7z M741.8,1384.9
	v-11.2h21.8v-8.9h-21.8v-10h25.1v-8.9h-36.3v47.4h36.8v-8.4L741.8,1384.9L741.8,1384.9z M812.1,1393.3h35.1v-8.9h-24v-38.5h-11.2
	L812.1,1393.3L812.1,1393.3z M897.5,1393.3h11.7l-21.8-47.4h-10.6l-21.2,47.4h11.2l4.5-10H893L897.5,1393.3z M874.6,1374.9l7.8-18.4
	l7.3,18.4H874.6z M984.5,1368.7c2.2-1.1,3.3-2.2,4.5-4.5c1.1-1.7,1.7-3.9,1.7-6.1c0-3.9-1.1-6.7-4.5-8.9c-2.8-2.2-7.8-3.3-13.4-3.3
	h-23.4v47.4h25.1c6.1,0,10.6-1.1,13.9-3.3c3.3-2.2,5-5,5-9.5c0-2.8-1.1-5.6-2.8-7.3C989.5,1371,987.3,1369.9,984.5,1368.7z
	 M971.7,1354.2c2.2,0,5,0,6.1,1.1c1.1,1.1,1.7,2.8,1.7,4.5c0,1.7,0,2.8-1.7,3.9c-1.7,1.1-3.9,1.7-6.1,1.7h-11.2v-11.2H971.7z
	 M973.4,1384.9h-12.8v-11.7h12.8c6.1,0,8.9,2.2,8.9,6.1c0,2.2-1.1,3.3-2.2,4.5C978.4,1384.9,976.2,1384.9,973.4,1384.9z
	 M1009.6,1393.3h11.2v-47.4h-11.2V1393.3z M1063.2,1394.4c5,0,9.5-1.1,13.4-3.3c3.9-2.2,7.3-5,9.5-8.9c2.2-3.3,3.3-7.3,3.3-12.3
	s-1.1-8.9-3.3-12.8c-2.2-3.9-5.6-6.7-9.5-8.9c-3.9-1.7-8.4-2.8-13.4-2.8s-8.9,1.1-13.4,2.8c-3.9,2.2-6.7,5-8.9,8.9
	c-2.2,3.9-3.3,8.4-3.3,12.8c0,4.5,1.1,8.4,3.3,12.3c2.2,3.9,5,6.7,8.9,8.9C1054.3,1393.3,1058.2,1394.4,1063.2,1394.4z
	 M1063.2,1384.9c-2.8,0-5-0.6-7.3-1.7c-2.2-1.7-4.5-3.3-5.6-5.6c-1.1-2.2-1.7-4.5-1.7-7.8s0.6-5,1.7-7.8c1.1-2.8,3.3-4.5,5.6-5.6
	c2.2-1.1,4.5-2.2,7.3-2.2c2.8,0,5.6,1.1,7.8,2.2c2.2,1.1,3.9,2.8,5.6,5.6c1.1,2.2,1.7,5,1.7,7.8s-0.6,5.6-1.7,7.8
	c-1.7,2.2-3.3,3.9-5.6,5.6C1068.8,1384.4,1066,1384.9,1063.2,1384.9z M1106.1,1393.3h21.2c5.6,0,10-0.6,13.9-2.8
	c3.9-1.7,7.8-5,9.5-8.4c1.7-3.3,2.8-7.3,2.8-12.3s-1.1-8.9-2.8-12.8c-2.2-3.3-5.6-6.1-9.5-8.4c-3.9-1.7-8.4-2.8-13.9-2.8h-21.2
	V1393.3z M1116.7,1384.4v-29.6h10c5,0,8.9,1.7,11.7,3.9c2.8,2.8,3.9,6.7,3.9,11.2c0,4.5-1.1,7.8-3.9,10.6s-6.7,3.9-11.7,3.9H1116.7z
	 M1170.3,1393.3h11.2v-47.4h-11.2V1393.3z M1235.6,1345.9l-15.1,34l-14.5-34h-11.7l20.6,47.4h10.6l20.6-47.4H1235.6z M1269.6,1384.9
	v-11.2h21.8v-8.9h-21.8v-10h25.1v-8.9h-36.3v47.4h36.8v-8.4L1269.6,1384.9L1269.6,1384.9z M1354.4,1393.3l-10.6-15.1
	c3.3-1.7,5.6-3.3,7.3-6.1c1.7-2.2,2.8-5.6,2.8-8.9c0-3.3-1.1-6.7-2.8-8.9c-1.7-2.8-4.5-4.5-7.3-6.1c-2.8-1.7-6.7-2.2-10.6-2.2h-20.6
	v47.4h10.6v-12.8h10l0,0l9.5,12.8L1354.4,1393.3L1354.4,1393.3z M1342.7,1363.2c0,2.8-1.1,4.5-2.8,6.1c-1.7,1.7-4.5,2.2-7.8,2.2
	h-8.9v-16.7h8.9c3.3,0,6.1,0.6,7.8,2.2C1341.6,1358.7,1342.7,1360.4,1342.7,1363.2z M1386.2,1394.4c4.5,0,7.8-0.6,11.2-2.2
	c2.8-1.1,5-2.8,6.7-5c1.7-2.2,2.2-5,2.2-7.8s-0.6-5.6-2.2-7.3c-1.7-1.7-3.9-3.3-6.1-3.9c-2.2-1.1-5.6-2.2-8.9-2.8
	c-3.3-0.6-6.1-1.7-7.8-2.2c-1.7-1.1-2.8-2.2-2.8-3.9c0-1.7,1.1-2.8,2.2-3.9c1.7-1.1,3.9-1.7,7.3-1.7c4.5,0,8.4,1.7,12.8,3.9l3.3-8.4
	c-1.7-1.1-4.5-2.2-7.3-2.8c-2.8-1.1-6.1-1.1-8.9-1.1c-4.5,0-8.4,0.6-11.2,1.7c-2.8,1.1-5,3.3-6.7,5.6c-1.7,2.2-2.2,4.5-2.2,7.3
	c0,3.3,0.6,5.6,2.2,7.8c1.7,1.7,3.9,3.3,6.1,3.9c2.2,1.1,5,1.7,8.9,2.8c2.2,0.6,3.9,1.1,5.6,1.7c1.1,0,2.2,1.1,3.3,1.7
	c1.1,0.6,1.1,1.7,1.1,2.8c0,1.7-1.1,2.2-2.2,3.3c-1.1,1.1-3.3,1.7-6.7,1.7c-2.8,0-5.6-0.6-8.4-1.1c-2.8-1.1-5.6-2.2-7.3-3.9
	l-3.9,8.4c2.2,1.7,5,2.8,8.4,3.9C1379,1393.9,1382.3,1394.4,1386.2,1394.4z M1421.9,1393.3h11.2v-47.4h-11.2V1393.3z M1452.6,1393.3
	h21.8c5,0,9.5-0.6,13.4-2.8c3.9-1.7,7.3-5,9.5-8.4c2.2-3.3,3.3-7.3,3.3-12.3s-1.1-8.9-3.3-12.8c-2.2-3.3-5.6-6.1-9.5-8.4
	c-3.9-1.7-8.4-2.8-13.4-2.8h-21.8V1393.3z M1463.8,1384.4v-29.6h10c4.5,0,8.4,1.7,11.2,3.9c2.8,2.8,4.5,6.7,4.5,11.2
	c0,4.5-1.7,7.8-4.5,10.6c-2.8,2.8-6.7,3.9-11.2,3.9H1463.8z M1551.9,1393.3h11.7l-21.2-47.4h-11.2l-21.2,47.4h11.2l4.5-10h21.8
	L1551.9,1393.3z M1529.1,1374.9l7.8-18.4l7.3,18.4H1529.1z M1576.5,1393.3h21.8c5,0,9.5-0.6,13.9-2.8c3.9-1.7,6.7-5,8.9-8.4
	c2.2-3.3,3.3-7.3,3.3-12.3s-1.1-8.9-3.3-12.8c-2.2-3.3-5-6.1-8.9-8.4c-4.5-1.7-8.9-2.8-13.9-2.8h-21.8V1393.3z M1587.6,1384.4v-29.6
	h10c5,0,8.4,1.7,11.2,3.9c3.3,2.8,4.5,6.7,4.5,11.2c0,4.5-1.1,7.8-4.5,10.6c-2.8,2.8-6.1,3.9-11.2,3.9H1587.6z M783.1,1072.5
	c-44.1,0-71.4-34.6-71.4-86.5c0-31.2,10.6-59.1,25.1-76.4c10-6.7,25.1-11.7,41.8-11.7c17.3,0,30.7,4.5,39.6,10.6
	c2.8,7.8,6.1,23.4,8.9,42.4c6.7,1.1,21.8,1.7,27.3,1.7c3.3-16.2,7.8-39.1,10.6-55.8l-4.5-8.4c-21.2-11.2-46.3-19-75.9-19
	c-65.8,0-121.1,48-121.1,119.4c0,70.3,44.1,113.8,114.4,113.8c32.9,0,61.9-10,79.8-21.8l4.5-8.9c0-11.7-0.6-33.5-1.1-45.8
	c-6.1-0.6-24.5-1.1-30.1-1.1c-3.9,17.3-7.8,30.7-10.6,39.1C812.7,1069.1,801,1072.5,783.1,1072.5z M1002.9,1102.6
	c64.7,0,113.8-51.3,113.8-123.3c0-67.5-43.5-109.9-106-109.9c-64.2,0-117.2,50.2-117.2,123.3
	C893.6,1060.2,938.2,1102.6,1002.9,1102.6z M1009.1,1074.7c-42.4,0-67.5-34-67.5-87.6c0-34,10-60.3,21.8-76.4
	c10.6-8.4,24.5-12.8,40.7-12.8c44.1,0,64.2,35.7,64.2,90.9c0,34.6-8.9,58-16.7,71.4C1041.4,1069.1,1027.5,1074.7,1009.1,1074.7z
	 M1345.5,1095.4c0-96.5,1.1-171.3,3.9-194.7l28.5-8.9l-3.3-16.7h-92.1l-3.3,16.7c11.7,2.8,30.1,7.3,33.5,11.2
	c2.8,6.1,5,60.3,5.6,127.2c-42.4-53-97.1-120-117.2-156.2c-19,0.6-43,1.1-63,1.1l-3.9,16.2c10,3.3,22.3,8.4,27.3,12.3
	c3.3,4.5,3.9,31.2,3.9,83.1c0,46.3-1.1,75.3-2.2,85.4l-28.5,8.9l3.9,16.2h92.1l3.9-16.2c-15.1-3.9-33.5-7.3-36.8-11.7
	c-3.3-6.1-4.5-64.2-5-127.2c27.9,34.6,63,78.7,90.9,116.6l27.9,40.2L1345.5,1095.4z M1484.4,1080.9l-36.3-10.6
	c4.5-13.9,9.5-29,15.1-44.1l84.2-1.7c6.1,17.9,11.7,33.5,16.7,47.4l-29.6,8.9l3.3,16.2h99.9l3.3-16.2l-29-10
	c-17.3-40.2-41.8-106.6-64.2-162.9c-5.6-14.5-8.9-26.2-11.7-36.3c-14.5-0.6-40.7,2.8-48.5,5l-10.6,31.2
	c-21.8,56.3-44.6,115.5-65.8,161.8l-27.3,11.2l3.9,16.2h92.6L1484.4,1080.9z M1471.6,1000c10.6-29.6,21.8-60.8,32.9-90.4
	c12.8,31.8,24.5,63,34.6,91.5L1471.6,1000z M1673.6,1080.9l3.3,16.2h48c21.8,0,50.2,2.8,70.3,2.8c44.6,0,83.1-21.8,83.1-63.6
	c0-30.7-21.8-47.4-48-54.1c19.5-10,36.3-26.8,36.3-51.3c0-38.5-31.8-57.5-83.1-57.5c-15.1,0-49.7,1.7-60.8,1.7h-45.8l-3.3,16.7
	c10,2.8,24,7.3,26.2,11.2c3.9,5,3.9,36.3,3.9,55.8v55.2c0,17.3-1.1,51.9-2.2,58L1673.6,1080.9z M1747.8,958.7
	c0-17.9,1.7-52.4,2.2-58.6l2.8-1.1c7.8-1.1,17.3-2.2,25.1-2.2c13.9,0,26.2,2.8,34,8.9c5,6.1,8.9,15.1,8.9,28.5
	c0,20.1-11.7,34.6-22.9,41.3l-50.2-2.2L1747.8,958.7L1747.8,958.7z M1751.7,1069.1c-3.3-4.5-3.9-36.3-3.9-55.2V1000h41.8
	c28.5,0,42.4,14.5,42.4,36.3c0,15.6-6.7,29-16.7,35.7c-8.4,2.8-19.5,3.9-27.9,3.9c-13.4,0-27.9-1.7-34-5
	C1752.8,1070.3,1752.2,1069.7,1751.7,1069.1z M1907.9,1080.9l3.3,16.2h98.2l3.3-16.2c-10-2.8-24-7.3-26.8-11.7
	c-3.3-4.5-3.9-36.3-3.9-55.2v-55.2c0-17.9,1.7-52.4,2.2-58.6l28.5-8.4l-3.3-16.7h-98.2l-3.3,16.7c10,2.8,24,7.3,26.2,11.2
	c3.9,5,3.9,36.3,3.9,55.8v55.2c0,17.3-1.1,51.9-2.2,58L1907.9,1080.9z M2145.6,1102.6c64.7,0,113.8-51.3,113.8-123.3
	c0-67.5-43.5-109.9-106-109.9c-64.2,0-117.2,50.2-117.2,123.3C2036.2,1060.2,2080.8,1102.6,2145.6,1102.6z M2151.7,1074.7
	c-42.4,0-67.5-34-67.5-87.6c0-34,10-60.3,21.8-76.4c10.6-8.4,24.5-12.8,40.7-12.8c44.1,0,64.2,35.7,64.2,90.9
	c0,34.6-8.9,58-16.7,71.4C2184.1,1069.1,2170.1,1074.7,2151.7,1074.7z M388.7,948.1c-3.9,0-7.3,2.8-7.3,6.1c0,3.3,3.3,6.1,7.3,6.1
	s7.3-2.8,7.3-6.1C395.9,950.9,392.6,948.1,388.7,948.1 M361.3,944.2c-1.7,2.8-6.1,4.5-7.8,6.7c-1.7,2.2-6.7,6.7-7.3,23.4
	c-1.1,16.2,12.8,24,12.8,24s4.5-8.9,6.1-9.5c1.7-0.6,26.8,11.2,30.7,11.7c4.5,0,17.3-2.2,21.2-2.8c4.5-0.6,21.8-6.1,25.7-8.9
	c3.3-2.8,6.7-6.7,8.4-10c1.7-3.9,1.1-10.6,0-13.9c-1.1-3.9-17.3-17.9-22.3-21.8c-5-3.9-17.9-8.9-26.2-11.7
	c-8.9-3.3-26.2-2.8-32.4,0.6C364.1,935.8,362.4,941.4,361.3,944.2z M442.8,997.2c-12.3,8.4-15.1,8.9-29.6,10
	c-3.3,0.6-7.8,0.6-11.7,0c-3.3-0.6-5.6-1.1-6.7-0.6c-1.1,0-2.8,4.5-2.8,11.2c0,2.8,1.7,11.7,6.7,24.5c3.3,10,8.4,22.9,15.6,37.4
	c3.3,7.3,6.7,14.5,11.2,22.9c17.3,32.4,45.2,67,75.9,88.7c3.9,2.2,6.7-4.5,7.8-6.7c0.6-1.1,1.7-22.9,4.5-43.5
	c3.3-27.9,0-60.8-1.7-69.2c-3.3-15.1-19-40.7-27.3-53c-3.9-5.6-8.9-14.5-15.1-21.2c-6.7-7.3-13.9-12.8-15.1-12.8
	S448.9,992.7,442.8,997.2 M448.4,1151.2c-2.8,1.1-4.5,12.8-7.3,25.1c-3.3,12.3-9.5,52.4-10,66.4s2.2,24,2.2,43.5s-5,53.6-6.7,72.5
	c-1.7,19.5-1.1,41.3,0,46.3c0.6,5.6,1.7,7.3,6.7,7.8c4.5,0.6,5.6-2.8,6.7-5c0.6-2.2,1.7-10.6,12.8-47.4
	c11.2-36.8,30.7-117.7,35.1-136.1c3.9-18.4,3.3-22.3,1.7-27.9c-2.2-5-6.1-10-10-14.5c-3.3-4.5-21.2-21.2-24-24
	C452.3,1155.1,450.6,1150.6,448.4,1151.2 M310.5,1013.3c0,6.7,13.9,7.3,20.6,10c6.1,2.2,5.6,4.5,5.6,4.5s-17.9-2.8-24.5-3.3
	c-6.1-0.6-10.6,0.6-16.2,1.7c-6.1,1.1-7.3,5.6-7.3,8.4c-0.6,3.3,1.1,5.6,3.9,6.7s29,5.6,29,5.6s-20.1,0.6-29,1.1
	c-8.9,1.1-8.9,7.3-8.9,8.4c-0.6,1.1-1.7,5,5,7.3c6.7,1.7,17.3,2.2,22.9,3.9c5.6,1.7,7.8,5.6,7.8,5.6s-9.5-2.2-17.3-2.8
	c-7.8-0.6-10.6,3.3-11.7,7.3c-1.1,3.3-0.6,6.1,6.1,8.9c6.7,2.2,7.8,4.5,13.9,8.9c6.7,3.9,17.9,23.4,43,25.1
	c24.5,2.2,35.1-13.4,39.1-17.3c4.5-3.3,11.7-15.6,12.3-17.3c0-1.1,0-6.7-5-20.1c-4.5-13.4-14.5-25.7-19-31.8
	c-3.9-5.6-14.5-15.6-17.3-17.9c-2.8-1.7-16.2-7.8-20.1-9.5c-4.5-1.7-11.7-2.8-20.1-1.7C315,1005.5,310.5,1006.6,310.5,1013.3
	 M336.2,1137.8c0.6,5.6,1.1,9.5,9.5,11.2c8.4,1.7,30.1-1.1,35.1-1.1s8.9-1.1,21.8-8.4c13.4-7.8,20.1-17.9,21.8-21.8
	c1.1-3.9,0.6-7.8-2.8-12.8c-3.3-5-6.1-3.9-10-3.3c-4.5,1.1-13.9,10.6-17.3,13.9c-3.9,3.3-6.7,3.9-8.9,5.6s-16.2,2.8-22.9,3.9
	c-6.7,0.6-24,4.5-25.1,5C336.2,1130.5,335.6,1132.7,336.2,1137.8 M344.6,1156.2c-7.8,0-7.3,12.3-6.7,18.4c0.6,6.1,16.2,8.4,20.1,8.4
	c3.9,0.6,14.5-1.1,25.7-2.8c11.2-2.2,30.1-4.5,40.2-14.5s10.6-18.4,10-24c-0.6-5-6.7-7.3-8.4-7.3c-2.2-0.6-16.2,9.5-22.3,13.9
	c-6.1,3.9-15.6,6.1-19.5,6.7C379.2,1155.6,352.9,1156.2,344.6,1156.2 M426,1179.6c-1.7,0.6-27.3,6.7-40.7,8.9
	c-13.4,2.2-31.8,1.7-37.4,2.2c-6.1,0-5.6,6.1-5,9.5c0,3.9,0.6,15.6,3.3,44.6c2.8,28.5,1.1,70.3,0.6,79.2c0,8.4,6.7,5.6,7.8,5
	c0.6,0,15.1-5,21.2-7.8c5.6-2.8,24.5-12.3,26.8-16.2c2.8-3.9,16.2-59.1,20.1-77C427.2,1209.7,427.7,1178.5,426,1179.6 M162.1,1238.7
	c-1.1,0-2.2,0.6-6.1,4.5c-3.3,3.3-13.9,5.6-21.2,7.3c-7.3,1.7-16.7,2.2-18.4,2.8c-1.7,0.6-4.5,5.6-5,8.4c-1.1,2.8-3.3,1.7,8.4,13.4
	c11.7,11.7,23.4,23.4,53,38.5c29.6,16.2,84.8,26.2,115.5,25.1c30.1-0.6,45.2-8.4,45.8-10c1.1-2.2,4.5-30.7,6.1-45.2
	c1.7-15.1,1.7-42.4-2.2-45.2c-2.8-2.2-9.5-3.3-17.3-2.8c-3.9,0-8.9,1.1-12.3,2.2c-8.9,1.7-12.8,7.8-14.5,13.4
	c-2.2,6.1-10,27.9-13.9,32.4c-3.3,3.9-15.6,12.8-50.8,5c-35.7-7.3-60.8-41.8-62.5-43.5C165.5,1243.2,162.7,1238.7,162.1,1238.7
	 M476.8,1319.1c-2.8-2.2,0.6-20.1,2.2-35.1c2.2-15.1,12.3-33.5,19.5-50.8c7.8-17.9,38.5-60.8,22.9-156.2
	c-16.2-96-96-147.9-124.4-155.7c-27.9-8.4-132.2-34.6-218.7-2.2c-87,32.9-114.4,96.5-121.1,159.6c-6.1,63,7.3,151.8,48,197.5
	c40.7,45.8,107.7,73.6,180.2,72c72.5-1.1,138.9-37.4,138.9-37.4l-6.1,46.9c0,0-49.1,39.1-145.6,34c-96.5-5-156.2-29.6-204.8-84.2
	c-49.1-54.7-57.5-150.1-59.1-184.7c-2.2-34.6,5-101.5,37.4-157.3c32.9-55.2,108.8-89.3,116.6-90.9s16.7-5.6,44.6-11.2
	c27.9-5.6,73.1-8.9,89.8-8.4c17.3,0.6,31.2-1.1,84.8,12.8c53,13.9,97.6,45.8,121.6,68.1c24.5,22.3,35.1,53,47.4,80.3
	c11.7,27.3,19.5,83.1,19.5,101c0,18.4,0,30.1-8.4,69.7c-8.4,39.6-31.8,80.9-36.8,88.2c-5.6,7.8-10,14.5-22.9,27.9
	C489.1,1316.3,480.2,1320.8,476.8,1319.1 M135.9,1189.1c0.6,5.6-2.2,12.3-9.5,13.4c-7.3,1.1-19,1.7-21.8-5.6
	c-2.8-6.7,0-13.4,4.5-15.6c4.5-2.2,4.5-2.2,10.6-3.3C125.9,1177.4,135.4,1183.5,135.9,1189.1z M322.8,1223.7
	c-5,5.6-11.2,6.1-16.7,8.4c-6.1,2.2-12.3,2.8-15.1,5.6c-2.8,3.3-8.9,15.1-11.2,26.2c-2.2,11.7-7.3,17.3-8.9,18.4
	c-1.7,1.1-34,2.8-49.7-3.3c-15.6-5.6-22.9-11.2-36.3-25.1c-13.4-13.4-19.5-21.8-19.5-21.8h-6.1c0,0-13.9,15.6-32.9,12.3
	c-19-2.8-51.3-14.5-50.8-53.6c0.6-39.1,26.8-43,27.9-45.2c1.7-2.2,2.2-6.1-3.3-5.6c-5.6,0-13.9,2.8-19,6.1
	c-5.6,3.3-15.1,11.2-16.2,3.9c-0.6-7.3,1.7-26.8,20.1-35.7c18.4-9.5,22.9-7.3,22.3-14.5c0-6.7-13.9-3.9-18.4-1.7
	c-4.5,1.7-15.1,6.7-16.2,8.4c-0.6,1.1-7.8,6.1-7.8-1.7c0-7.8,2.8-23.4,18.4-32.9c15.6-8.9,31.8-5,32.4-11.2
	c0.6-5.6-6.7-7.3-12.3-6.7c-6.1,0.6-22.9,6.1-26.2,8.9c-3.3,2.2-8.4,2.8-7.3-5c1.7-7.8,8.9-26.8,27.9-32.4
	c19.5-5.6,34.6,4.5,36.3,1.1c2.2-3.3,0.6-10-7.8-13.4c-7.8-3.3-12.8-5-24.5-1.7c-11.7,3.3-13.9,1.7-12.3-2.8
	c2.2-4.5,7.8-27.3,35.7-27.3c27.3,0,34,25.1,40.7,23.4c6.7-1.7-2.8-22.3-7.8-30.7c-5.6-8.4-24-21.8-17.3-26.8c7.3-5,24-3.3,35.1,3.3
	c10.6,7.3,10.6,8.4,13.4,12.3c2.8,3.9,13.4,27.9,15.6,26.8c2.2-0.6,3.3-14.5,1.1-24.5c-1.7-10-15.1-31.8-19-35.7
	c-4.5-3.9-3.3-7.3,3.9-7.3c7.3-0.6,27.3,1.7,37.9,15.6c11.2,13.4,11.7,37.9,10.6,41.3c-1.7,3.3-1.1,12.3,3.9,6.7
	c5-5,15.1-22.3,17.9-39.1c2.2-17.3,2.8-33.5,8.4-34c5,0,14.5,21.8,16.2,34c1.1,12.8,5,31.2-3.9,55.2c-8.9,24.5-22.9,43-26.8,44.1
	c-4.5,0.6-8.9,1.1-8.9,1.1s-17.3-15.1-36.8-13.4c-19,1.7-32.9,7.8-49.7,22.3c-16.2,13.9-23.4,28.5-25.7,39.6
	c-1.7,10.6-1.1,29,3.3,38.5c4.5,10,6.1,8.4,6.1,8.4s2.8,0.6,3.3-0.6c0.6-1.1-8.9-29.6-2.8-48c6.1-17.9,13.9-34,45.8-48
	c29.6-12.3,43,6.1,50.8,11.7c7.8,5.6,14.5,10,19.5,13.4c5.6,2.8,34.6,22.9,47.4,37.4c12.3,14.5,13.9,15.1,12.3,20.6
	c-1.7,5-8.9,11.2-8.4,15.1c0.6,3.9,6.7,12.8,3.9,18.4c-2.8,5.6-5,7.8-12.8,11.7c-8.4,3.9-11.2,9.5-11.2,10.6c0,1.1,3.9,0.6,6.7,0
	c3.3-1.1,5.6-3.9,11.7-3.3c5.6,1.1,12.8,1.7,15.1,15.6C327.3,1210.9,327.3,1217.5,322.8,1223.7z M144.8,1196.9
	c0-12.3-15.1-22.9-28.5-22.9c0,0-17.3,1.1-18.4,17.9c-1.1,17.3,15.1,22.9,27.3,24C137,1217,144.8,1209.2,144.8,1196.9z
	 M236.3,1107.1c-1.1-1.1-13.9-3.3-22.3,3.9c-7.8,7.3-10.6,17.9-8.4,20.1c1.7,1.7,12.3,0.6,19.5-6.7c3.3-3.3,6.7-6.7,8.9-10
	C235.8,1110.4,236.9,1107.1,236.3,1107.1z M292.7,1133.3c-1.7-1.7-3.3-2.2-7.3,0.6c-4.5,2.2-6.1,5.6-3.3,8.4
	c3.3,2.2,7.3-1.1,8.4-1.7"/>
</svg>
