<?xml version="1.0" encoding="utf-8"?>
<!-- Generator: Adobe Illustrator 18.0.0, SVG Export Plug-In . SVG Version: 6.00 Build 0)  -->
<!DOCTYPE svg PUBLIC "-//W3C//DTD SVG 1.1//EN" "http://www.w3.org/Graphics/SVG/1.1/DTD/svg11.dtd">
<svg version="1.1"
	 id="svg8" sodipodi:docname="conabio.svg" inkscape:version="0.92.4 (5da689c313, 2019-01-14)" xmlns:dc="http://purl.org/dc/elements/1.1/" xmlns:cc="http://creativecommons.org/ns#" xmlns:rdf="http://www.w3.org/1999/02/22-rdf-syntax-ns#" xmlns:svg="http://www.w3.org/2000/svg" xmlns:sodipodi="http://sodipodi.sourceforge.net/DTD/sodipodi-0.dtd" xmlns:inkscape="http://www.inkscape.org/namespaces/inkscape"
	 xmlns="http://www.w3.org/2000/svg" xmlns:xlink="http://www.w3.org/1999/xlink" x="0px" y="0px"
	 viewBox="1217.9 723.4 1133.9 1133.9" enable-background="new 1217.9 723.4 1133.9 1133.9" xml:space="preserve">
<sodipodi:namedview  inkscape:window-height="962" inkscape:document-units="mm" inkscape:pageopacity="0.0" inkscape:current-layer="layer1" inkscape:pageshadow="2" inkscape:window-maximized="1" inkscape:window-x="-8" inkscape:window-y="-8" inkscape:window-width="1280" pagecolor="#ffffff" showgrid="false" bordercolor="#666666" borderopacity="1.0" inkscape:zoom="0.1400905" inkscape:cx="1330.9248" inkscape:cy="1005.3593" id="base">
	</sodipodi:namedview>
<g id="layer1" transform="translate(-20.867708,105.1327)" inkscape:label="Capa 1" inkscape:groupmode="layer">
	<path id="path3713" inkscape:connector-curvature="0" fill="none" stroke="#000000" stroke-width="0.2646" d="M1820.4,1462
		l-5.5-10.2l-275.8,149c-109.8,59.3-197.5,108.9-196.1,111.4c1.8,3.4,91.3-42.7,201.1-102.1L1820.4,1462z M1890.6,1408.7l6,11.1
		l275-148.6c109.8-59.3,197.8-110.2,196.5-112.7c-1.4-2.6-92.2,43.2-202,102.5L1890.6,1408.7z M1428.2,1613.4
		c-0.8-11.7-7.4-30.1-12-38.6l-6,3.2c5,21.5,0.5,43.7-26.7,58.4c-34.9,18.9-75.1,7.6-98.1-35c-22.5-41.7-14.7-80.1,22.8-100.3
		c27.2-14.7,51.6-12.5,68.1,18.2l6.8-3.7c-2.3-4.3-9.9-24.4-15.8-35.4c-2.3-4.3-6.8-10.6-8.2-13.2c-10.2,5.5-35.6,11.5-56,22.6
		c-51.9,28.1-69.9,76.3-43.2,125.6c29,53.6,80.2,58.9,126.2,34.1C1405.6,1638.8,1419.8,1624.5,1428.2,1613.4z M1548.6,1561.5
		c46-24.8,64.7-75.7,38-125c-24.4-45.1-73.4-60.5-121.9-34.2c-45.1,24.4-64.3,74.4-37.6,123.7
		C1452,1572,1500.1,1587.8,1548.6,1561.5z M1546,1548.6c-39.2,21.2-75-2.4-94.8-39c-20.7-38.3-19.3-76.5,16.4-95.8
		c39.2-21.2,74.6,3.7,93.5,38.6C1580.9,1489.1,1581.8,1529.3,1546,1548.6z M1787.8,1430.1c3.4-1.8,6.4-4.5,8.4-6.8l-59.3-109.8
		c-16.1-29.8-18-35.4-7.4-42.2l8.1-5.5l-2.8-5.1l-56.2,30.4l2.8,5.1l10.7-4.7c9.8-4.2,14.2-2.2,28.9,25.1l39.5,71.1l-1.2,1.8
		c-45.2-18.5-102.6-41.3-140.3-54c-8.3-3.2-15.3-3.8-18.7-2l-37.5,20.2l2.8,5.1l6.8-3.7c12-4.3,20.7-2.4,27.6,10.4l45.1,85.6
		c17,31.5,17.6,36.7,7.4,42.2l-9.3,7.2l2.3,4.3l58.7-31.7l-2.3-4.3l-12,4.3c-9.4,5.1-13.8,3-31.2-29.3l-44.1-79.6l1.2-1.8
		C1684.7,1387.9,1736.8,1407.1,1787.8,1430.1z M1876.6,1378.8l-2.8-5.1c-16.2,6.6-21,8-24.2,2.1c-2.3-4.3-4.9-19.3-6.1-29.7
		l-1.8-15.5c5.1-2.8,45.1-24.4,50.2-27.1l16.5,14.2c10.2,8.8,15.2,13.8,17,17.2c3.2,6,1.2,10.4-8.2,15.4l-8.1,5.5l2.8,5.1l66.4-35.9
		l-2.8-5.1c-8.1,3.3-12.4,3.4-21.7-1.5c-15.9-9-110.6-88.7-133.3-108.3c-0.9,0.5-2.9,2.7-4.2,4.5l14.5,157.1
		c1.9,19.9-1.4,23.9-12.3,34.2l2.3,4.3L1876.6,1378.8z M1883.5,1295.9l-43.9,22.6c-1.5-19-4.4-42.7-5.9-61.7l1.7-0.9L1883.5,1295.9z
		 M1991.2,1318l58.7-31.7c36.6-19.8,49.1-49.6,34.4-76.9c-11.5-21.3-34.6-25.3-58.6-16.8l-0.5-0.9c13-12.5,19.4-31.4,9.7-49.2
		c-11.5-21.3-35.9-25.7-68.2-8.2c-14.5,7.8-41.3,23.4-57.4,32.1l2.8,5.1l12-4.3c8.5-4.6,13-0.4,29.1,29.4l36.3,67.3
		c16.6,30.6,17.6,36.7,9.6,42.1l-10.6,6.8L1991.2,1318z M1990.3,1208.5l-29.4-54.5c2.5-3.5,8-7.6,13.1-10.4
		c13.6-7.4,28-3.1,38.2,15.7c8.3,15.3,6.2,31.8-10.4,41.9L1990.3,1208.5z M2047.4,1275.5c-14.5,7.8-17.9,7.5-35-24l-18.9-34.9
		l15.8-7.4c21.3-11.5,41.6-0.5,52.1,19.1C2073,1249.6,2063.6,1266.8,2047.4,1275.5z M2192.1,1209.5l-2.3-4.3l-11.1,3.8
		c-9,3.7-13,0.4-29.5-30.2l-36.8-68.1c-16.6-30.6-18-35.4-9.1-41.3l9.8-6.4l-2.8-5.1l-64.7,35l2.8,5.1l10.7-4.7
		c9.8-4.2,13.8-0.9,30.4,29.8l36.3,67.3c16.6,30.6,18,35.4,8.7,42.6l-9.8,6.4l2.8,5.1L2192.1,1209.5z M2293.6,1159
		c46-24.8,63.9-75.2,37.2-124.6c-24.4-45.1-73.4-60.5-121-34.7c-46,24.8-65.2,74.8-38.5,124.2
		C2196.1,1169.9,2245,1185.3,2293.6,1159z M2291,1146.1c-40,21.6-75.8-1.9-95.6-38.5c-20.7-38.3-18.5-76.9,17.3-96.2
		c38.3-20.7,74.6,3.7,93.5,38.6C2325.9,1086.6,2326.8,1126.8,2291,1146.1z M1637.7,698.4c0.1,4.3-0.6,9.1-2.6,13.5
		c-1.2,3.9-13.7,17.3-17.5,20.5c-4.3,2.3-13.9,10.8-17.4,12.7c-3.9,1-31.5,2.7-31.9,4c-1.2,1.8-1,10.4-1,10.4s-16.5,0.1-23.4-14.8
		c-7-14.9-5-21.5-4.2-24.1c0.8-2.6,3.3-6.2,3.2-8.3c-0.1-4.3-0.7-9.5,2.5-15.7c3.3-6.2,18.1-15.3,26.8-15.6c9-1.6,22.4-3.3,28.9-3.5
		c6.6,2,27.5,6.1,30.2,9C1633.9,689.4,1637.6,694,1637.7,698.4z M1578.1,704.2c-1.8-3.4-6.2-3.3-9.6-1.4s-5,4.9-3.2,8.3
		c1.4,2.6,5.3,3.7,8.7,1.9S1579.5,706.7,1578.1,704.2z M1637.9,719.1c-6.1,13.2-8.2,15.4-19.6,24.9c-3.4,1.8-6.8,3.7-10.7,4.7
		c-3,0.5-5.6,1.9-6.4,2.4c0.5,0.9,0.6,5.2,3.8,11.1c1.4,2.6,7.2,9.3,16.6,18.5c8,6.7,19.6,15.8,32,24.5c6.2,5.4,12.9,9.6,20.4,15.4
		c30.5,19.8,71.8,37.1,107.8,40.7c4.8,0.7,4.1-6.6,4.1-8.8s-9.3-21.4-16.4-40.6c-9.9-26.5-29-53.6-34.4-59.5
		c-9.9-12.2-36-27.9-49.1-33.9c-6.2-3.3-14.6-8.6-23.7-11.4c-8.3-3.2-18.8-4.2-18.8-4.2C1641.8,703.9,1642,712.5,1637.9,719.1
		 M1717,851.3c-2.1,2.2,1.7,13.4,4.3,26.3c3.8,11.1,18,49.7,23.6,62c5.6,12.4,12.7,19.5,21.9,36.5c9.7,17.9,21.5,50,28.5,67.1
		c8,18.8,18.9,37.1,22.1,40.9c3.6,4.6,4.9,5,9.6,3.6c4.3-2.3,3.7-5.3,3.2-8.3c-0.9-1.7-3.4-10.3-11-46.8
		c-7.3-37.9-28.4-117.7-32.9-136.2c-5.3-18-8-21-12.5-25.2c-4-3.3-10.6-5.3-15.4-8.2c-5.7-2.4-28-9.1-32.3-8.9
		C1721.8,852,1718.3,849.5,1717,851.3 M1531.3,796.6c2.8,5.1,16-0.9,21.2-1.5c6.9-1.5,7.4,1.5,7.4,1.5s-16.7,5.7-23.1,8.1
		c-5.1,2.8-9.4,5.1-13.6,9.5c-5.1,2.8-4.5,7.9-2.7,11.3c1.4,2.6,4.5,4.2,7,2.8c3-0.5,28.3-8.7,28.3-8.7s-16.6,10.1-25.1,14.7
		c-6.7,5.8-4,11-3.5,11.8c0.9,1.7,1.1,6,7.9,4.5c7.7-2,17.1-7,22.3-7.6c5.6-1.9,9.1,0.6,9.1,0.6s-8.6,2.4-16.2,6.6
		c-6.8,3.7-8,7.6-7,11.5s3.2,6,10.6,5.3c6.9-1.5,7.8,0.2,15.6,0.4c7.4,1.5,27.2,11.7,49.4,1.9c22.2-9.8,24.7-27.6,26.2-32.9
		s3.2-20.5,2.8-21.3c-0.9-1.7-3.7-6.8-13.9-15.6c-10.7-9.6-24.7-15.2-30.9-18.5c-7-2.8-20.6-7.6-24.1-7.9c-3,0.5-18.2,1-22,2
		c-4.3,0.1-11.6,3-18.8,8C1530.5,787.1,1528,790.6,1531.3,796.6 M1611.8,892.7c3.6,4.6,6.3,7.6,14,5.6c8.1-3.3,26.3-16.4,30.6-18.7
		c3.4-1.8,7.2-5,15.1-16.9c7.8-14.1,9.1-25.8,8.2-29.7c-1-3.9-2.8-7.3-8.5-9.7c-4.9-2.9-7.8-0.2-10.7,2.5c-3.4,1.8-6.9,15.8-8,19.7
		c-2,4.4-4.1,6.6-5.4,8.4c-0.8,2.6-12.6,11.2-17.3,14.8c-6,3.2-19.4,14.9-19.8,16.2C1608.6,886.8,1609.5,888.5,1611.8,892.7
		 M1628.2,904.8c-6.8,3.7,0,14.3,2.8,19.4c4.1,5.5,18.6-0.2,22-2c3.4-1.8,11.9-8.6,20.3-15.4c8-7.6,24.1-18.5,28-31.6
		c4.8-13.6,0.6-21.2-1.7-25.5c-3.6-4.6-9.2-2.7-11.3-2.7c-1.7,0.9-9,15.9-13.1,22.5c-3.7,7.5-10.4,13.3-13.3,16
		S1635.9,900.6,1628.2,904.8 M1709.9,887c-0.4,1.3-20.6,18.8-30.3,27.4c-10.1,7.7-26.3,16.4-31.4,19.2s-1.9,8.7,0.3,10.8
		c1.8,3.4,7.4,13.6,23.7,37.8c15.9,23.3,34,60.8,38.1,68.5c3.3,8.1,7.4,1.5,8.3,1c1.7-0.9,11.3-11.6,15.1-16.9
		c4.2-4.5,15.3-22.6,16-27.4c-0.1-4.3-13.6-59.8-18.5-76.9S1711.2,885.3,1709.9,887 M1507.3,1063.6c0,0-1.2,1.8-3.7,7.5
		c-1.6,5.2-8.7,12.4-15.1,16.9c-5.5,4.1-13.6,9.5-14.8,11.3c-0.9,0.5-1.1,6.1-0.6,9.1c0.5,3-2.1,2.2,13.6,6.9
		c15.7,4.7,32.3,8.9,65.2,8.8c32.9-0.2,86-17.9,112-33c27.2-14.7,36.3-28.4,36.3-30.6s-10.9-28.2-16.1-41.9s-18.1-37.5-23.3-39.1
		c-2.6-0.8-9.9,2-15.4,6.1c-4.3,2.3-8.1,5.5-10.1,7.7c-6.7,5.8-7.4,12.8-6.3,18.8c0.6,5.2,4.4,28.4,3.3,34.5
		c-1.6,5.2-7.6,18.4-42.8,28.6c-33.9,10.6-72.6-8.1-74.3-9.3C1512.5,1065.2,1508.1,1063.2,1507.3,1063.6 M1820.8,984.4
		c-3.5-0.3-8.3-17.5-14-32c-5.7-14.5-4.6-34.9-7.4-54.3c-1.5-19,5.5-71.2-54-146.8c-60-76.5-153.4-84.3-181.7-77.8
		c-29.2,7-133.2,32.4-193.3,102.3c-60.1,69.9-53.6,139-30.1,196.7c23.5,57.7,78.1,128.3,134.6,149.4c57.8,21.5,129.5,13.6,192-21.2
		c62.9-36.2,103.8-99,103.8-99l17,43.6c0,0-24.6,58.4-111.6,98.8c-86.6,41.3-150,48.1-219.2,23.8
		c-67.5-25.1-120.2-104.4-138.5-134.2c-17.8-28.9-43.6-90.8-40.9-155c1.9-63.7,52.2-129.4,59.4-134.4c5.9-5.4,11.7-12.9,32.8-30.9
		c22.4-17.6,59.7-42.2,75.5-49.6c14.5-7.8,26.8-15.6,79.2-28.5c53.3-13.4,107.6-6.4,139.5,1.6c31.9,8.1,55.5,29.4,78.6,47.7
		c23.9,17.9,56.6,64,64.9,79.3c8.3,15.3,14.3,26.4,25.8,64.1c10.7,38.2,10.1,85.8,9.5,95c-1.9,8.7-1.6,17.4-7.6,34.9
		C1829.7,976.3,1824.3,984.7,1820.8,984.4 M1461.7,1032.2c2.8,5.1,3.4,12.4-2.1,16.5c-6.4,4.5-16.6,10.1-21,5.9
		c-5.8-4.6-6.4-11.9-4.4-16.3c2.9-4.9,2.9-4.9,8-7.6C1446.8,1027,1458.1,1027.5,1461.7,1032.2z M1640.8,975
		c-1.5,7.4-6.1,11-10.3,15.5c-4.2,4.5-8.8,8.1-11.3,11.6c-0.7,4.8-0.8,16.9,3.1,28c3.4,10.3,2.3,18.5,1.1,20.3s-28.4,18.7-45.7,21.4
		c-16,0.9-25.1,0.4-43.5-5.1c-18.4-5.5-27.6-10.4-27.6-10.4l-5.1,2.8c0,0-4.6,20.1-23.4,25.9c-18.4,6.6-52,11.6-69.6-22.9
		c-17.5-34.5,2.7-49.9,3.5-52.5c-0.5-3-1.1-6-6.2-3.3c-4.3,2.3-11,8.1-14.3,14.3c-2.9,4.9-7.7,16.3-11.8,10.8
		c-4.5-6.4-12-24.3,0.9-41.2c11.6-17.3,15.9-17.4,13.1-22.5c-3.2-6-15.1,2.6-17.1,7c-3.3,4-10.4,13.3-10.8,14.6
		c0.5,0.9-3.6,9.6-7.7,2c-3.7-6.8-8.5-21.8,1-36.8c9-15.9,25.3-20.3,23.4-25.9c-2.8-5.1-9.6-3.6-14.3,0c-6,3.2-17.7,16.1-18.8,20.1
		c-1.6,3.1-6.3,6.7-8.3-1c-2.8-7.3-5.6-26.7,8.2-41.8c14.7-13.5,32.9-12.3,33.3-15.8c-0.1-4.3-4.6-8.5-13.3-8.2
		c-8.2,1.1-13.4,1.7-21.7,10.6c-8.8,8.1-11,8.1-11.6,3c-0.6-5.2-6.1-27.5,17.8-40.4c23.8-12.9,41.8,6,46.8,1.1s-13.1-18.2-21.5-23.6
		c-8.4-5.4-31.9-8.1-26.9-15.2c3.2-8.3,18.6-14.4,31.6-12.7c12.1,0,13,1.8,17.4,3.8c4.4,2,25.3,18.3,26,15.6
		c1.7-0.9-4.3-14.2-10.6-21.7c-6.3-7.6-28.8-20.7-34-22.3c-5.2-1.6-5.8-4.6,0.2-7.8c6.4-4.5,24.8-11.2,40.6-4.3
		c16.7,6.4,28.2,27.7,28.7,30.7c0.1,4.3,5.1,11.5,7.1,5c0.6-6.9,2.2-26.5-3.1-42.3c-4.4-16.3-12.7-31.6-8.4-33.9
		c4.3-2.3,22.9,11.8,29.7,22.4c7.7,10.1,19,24.9,22.8,50.4c3.4,24.6,0.7,48-2.3,50.7c-3.8,3.2-7.2,5-7.2,5s-22.2-4.5-37.5,6
		c-16.6,10.1-26.1,22.9-34.2,42.7c-7.6,20.6-6.6,36.6-3.3,46.9s12.1,26.5,21,32.7c8.9,6.2,10.1,4.4,10.1,4.4l2.6-1.4
		c-0.1-2.2-21.9-22.3-25.6-41.2c-3.2-18.1-4.2-36.2,17.5-63.3c19.6-24.9,40.2-15.1,50.3-12.9c9.6,1.4,17.4,1.6,23,1.9
		c6.9,0.6,41.7,3.9,59.7,10.7c18,6.8,19.3,7.2,20.7,11.9c0.1,4.3-3.1,12.7-1.2,16.1c2.7,2.9,11.9,7.8,12.1,14.3
		c0.2,6.5-0.6,9.1-6.4,16.7c-5,7.1-4.8,13.6-3.5,14c0.9,1.7,3.9-1,5.1-2.8c3.4-1.8,3.7-5.3,9.3-7.2c5.1-2.8,12.4-5.6,20.5,5.4
		C1639.1,961.6,1642.3,967.5,1640.8,975z M1472.6,1034c-5.5-10.2-23.4-12.7-35.3-6.2c0,0-14.9,9.1-7.9,24.1
		c6.6,16.2,24.7,13.1,35.3,8.4C1475.4,1055.5,1478.5,1045,1472.6,1034z M1510.7,913.3c-1.3-0.4-13.8,3-17.7,14
		c-4.4,10.1-1.1,20.4,1.5,21.2c2.6,0.8,11.1-6,14.3-14.3c1.6-5.2,2.7-9.2,2.6-13.5C1512.6,916.7,1511.6,912.8,1510.7,913.3z
		 M1574,916.5c0.4-1.3,0.6-6.9-2-7.7s-4.3,0.1-6,3.2c-2.9,4.9-2.7,9.2,1.6,9"/>
</g>
</svg>
