<?xml version="1.0" encoding="utf-8"?>
<!-- Generator: Adobe Illustrator 18.0.0, SVG Export Plug-In . SVG Version: 6.00 Build 0)  -->
<!DOCTYPE svg PUBLIC "-//W3C//DTD SVG 1.1//EN" "http://www.w3.org/Graphics/SVG/1.1/DTD/svg11.dtd">
<svg version="1.1"
	 id="svg8" xmlns:dc="http://purl.org/dc/elements/1.1/" xmlns:cc="http://creativecommons.org/ns#" xmlns:rdf="http://www.w3.org/1999/02/22-rdf-syntax-ns#" xmlns:svg="http://www.w3.org/2000/svg" xmlns:sodipodi="http://sodipodi.sourceforge.net/DTD/sodipodi-0.dtd" xmlns:inkscape="http://www.inkscape.org/namespaces/inkscape" sodipodi:docname="conabio.svg" inkscape:version="0.92.4 (5da689c313, 2019-01-14)"
	 xmlns="http://www.w3.org/2000/svg" xmlns:xlink="http://www.w3.org/1999/xlink" x="0px" y="0px" viewBox="0 0 2267.7 2267.7"
	 enable-background="new 0 0 2267.7 2267.7" xml:space="preserve">
<path id="path3713" inkscape:connector-curvature="0" fill="none" stroke="#000000" stroke-width="0.2646" d="M1054.3,1947.8v-21.5
	H474.7c-230.7,0-416.8,3.6-416.8,8.9c0,7.2,186,10.7,416.8,10.7L1054.3,1947.8z M1215.2,1922.8v23.3H1793
	c230.7,0,418.5-5.4,418.5-10.7c0-5.4-187.8-10.7-418.5-10.7L1215.2,1922.8z M283.3,1849.5c8.9-19.7,14.3-55.4,14.3-73.3h-12.5
	c-10.7,39.4-37.6,71.5-94.8,71.5c-73.3,0-128.8-53.7-128.8-143.1c0-87.6,46.5-143.1,125.2-143.1c57.2,0,94.8,25,94.8,89.4h14.3
	c0-8.9,5.4-48.3,5.4-71.5c0-8.9-1.8-23.3-1.8-28.6c-21.5,0-68-12.5-110.9-12.5c-109.1,0-180.7,62.6-180.7,166.3
	c0,112.7,78.7,166.3,175.3,166.3C224.3,1870.9,260.1,1860.2,283.3,1849.5z M524.8,1870.9c96.6,0,171.7-66.2,171.7-169.9
	c0-94.8-66.2-162.8-168.1-162.8c-94.8,0-169.9,64.4-169.9,168.1C358.5,1803,422.9,1870.9,524.8,1870.9z M532,1847.7
	c-82.3,0-119.8-69.8-119.8-146.7c0-80.5,35.8-141.3,110.9-141.3c82.3,0,118.1,71.5,118.1,144.9
	C641.1,1781.5,607.1,1847.7,532,1847.7z M1029.2,1867.4c7.2,0,14.3-1.8,19.7-3.6V1633c0-62.6,1.8-73.3,25-75.1l17.9-1.8v-10.7H973.8
	v10.7l21.5,1.8c19.7,1.8,25,8.9,25,66.2l1.8,150.2l-3.6,1.8c-57.2-69.8-130.6-157.4-180.7-211.1c-10.7-12.5-21.5-19.7-28.6-19.7
	h-78.7v10.7h14.3c23.3,3.6,35.8,14.3,35.8,41.1l-1.8,178.9c0,66.2-3.6,75.1-25,75.1l-21.5,3.6v8.9h123.4v-8.9l-23.3-3.6
	c-19.7,0-25-7.2-25-75.1l-1.8-168.1l3.6-1.8C898.6,1708.2,966.6,1785.1,1029.2,1867.4z M1218.8,1862v-10.7
	c-32.2-3.6-41.1-5.4-41.1-17.9c0-8.9,8.9-35.8,16.1-53.7l10.7-26.8c10.7,0,94.8,0,105.5,0l14.3,37.6c8.9,23.3,12.5,35.8,12.5,42.9
	c0,12.5-7.2,17.9-26.8,17.9l-17.9,1.8v10.7h139.5V1853c-16.1-1.8-23.3-5.4-34-21.5c-17.9-28.6-102-241.5-121.6-293.3
	c-1.8,0-7.2,1.8-10.7,3.6l-114.5,268.3c-14.3,34-23.3,37.6-50.1,44.7v8.9L1218.8,1862z M1302.9,1733.2l-91.2-1.8
	c14.3-32.2,30.4-73.3,44.7-105.5h3.6L1302.9,1733.2z M1458.5,1863.8h123.4c76.9,0,123.4-37.6,123.4-94.8c0-44.7-34-71.5-80.5-78.7
	v-1.8c32.2-8.9,59-34,59-71.5c0-44.7-35.8-73.3-103.7-73.3c-30.4,0-87.6,1.8-121.6,1.8v10.7l23.3,3.6c17.9,0,21.5,10.7,21.5,73.3
	v141.3c0,64.4-3.6,75.1-21.5,76.9l-23.3,1.8L1458.5,1863.8L1458.5,1863.8z M1553.3,1684.9v-114.5c7.2-3.6,19.7-5.4,30.4-5.4
	c28.6,0,48.3,19.7,48.3,59c0,32.2-17.9,57.2-53.7,59L1553.3,1684.9z M1587.3,1844.1c-30.4,0-35.8-3.6-35.8-69.8V1701l32.2,1.8
	c44.7,0,68,35.8,68,76.9C1651.7,1824.4,1621.3,1844.1,1587.3,1844.1z M1880.6,1863.8v-8.9l-21.5-3.6c-17.9-1.8-21.5-10.7-21.5-75.1
	V1633c0-64.4,1.8-73.3,21.5-75.1l21.5-1.8v-10.7h-135.9v10.7l21.5,1.8c19.7,1.8,23.3,10.7,23.3,75.1v141.3
	c0,64.4-1.8,73.3-23.3,76.9l-21.5,1.8v10.7H1880.6z M2089.9,1870.9c96.6,0,169.9-66.2,169.9-169.9c0-94.8-66.2-162.8-166.3-162.8
	c-96.6,0-171.7,64.4-171.7,168.1C1921.8,1803,1987.9,1870.9,2089.9,1870.9z M2097.1,1847.7c-84.1,0-121.6-69.8-121.6-146.7
	c0-80.5,37.6-141.3,112.7-141.3c80.5,0,118.1,71.5,118.1,144.9C2206.2,1781.5,2172.2,1847.7,2097.1,1847.7z M1428.1,545.5
	c-3.6,7.2-8.9,14.3-16.1,19.7c-5.4,5.4-37.6,16.1-46.5,17.9c-8.9,0-32.2,5.4-39.4,5.4c-7.2-1.8-53.7-23.3-55.4-21.5
	c-3.6,1.8-10.7,16.1-10.7,16.1s-26.8-14.3-25-44.7c1.8-30.4,10.7-39.3,14.3-42.9c3.6-3.6,10.7-7.2,12.5-10.7
	c3.6-7.2,7.2-16.1,17.9-23.3c10.7-7.2,42.9-8.9,57.2-1.8c16.1,5.4,39.4,14.3,50.1,19.7c8.9,8.9,39.4,34,41.1,41.1
	C1429.9,527.6,1431.7,538.4,1428.1,545.5z M1326.1,502.6c0-7.2-7.2-10.7-14.3-10.7s-12.5,3.6-12.5,10.7c0,5.4,5.4,10.7,12.5,10.7
	S1326.1,508,1326.1,502.6z M1410.2,579.5c-21.5,16.1-26.8,17.9-53.7,23.3c-7.2,0-14.3,0-21.5-1.8c-5.4-1.8-10.7-1.8-12.5-1.8
	c0,1.8-3.6,8.9-3.6,21.5c0,5.4,3.6,21.5,10.7,44.7c7.2,17.9,17.9,42.9,30.4,68c5.4,14.3,12.5,26.8,19.7,42.9
	c32.2,59,84.1,123.4,139.5,161c7.2,5.4,12.5-7.2,14.3-10.7c1.8-3.6,3.6-42.9,8.9-80.5c7.2-51.9,0-112.7-3.6-127
	c-5.4-28.6-34-76.9-50.1-98.4c-7.2-10.7-16.1-26.8-28.6-39.3c-10.7-12.5-26.8-23.3-26.8-23.3C1429.9,558,1422.7,572.4,1410.2,579.5
	 M1422.7,863.9c-5.4,1.8-8.9,23.3-16.1,46.5c-3.6,21.5-14.3,96.6-16.1,121.6c-1.8,25,3.6,42.9,3.6,78.7c0,37.6-8.9,100.2-12.5,134.2
	c-3.6,37.6-1.8,76.9,0,85.9c1.8,10.7,3.6,12.5,12.5,14.3c8.9,0,10.7-5.4,12.5-10.7c0-3.6,3.6-19.7,23.3-85.9
	c21.5-68,57.2-216.4,66.2-250.4c7.2-34,5.4-41.1,1.8-51.9c-3.6-8.9-12.5-17.9-17.9-26.8c-7.2-8.9-37.6-39.3-44.7-42.9
	C1429.9,869.3,1426.3,862.1,1422.7,863.9 M1168.7,611.7c0,10.7,26.8,12.5,35.8,16.1c12.5,3.6,10.7,8.9,10.7,8.9s-32.2-5.4-44.7-7.2
	c-10.7,0-19.7,0-30.4,3.6c-10.7,0-14.3,8.9-14.3,16.1c0,5.4,3.6,10.7,8.9,10.7c5.4,1.8,53.7,10.7,53.7,10.7s-35.8,1.8-53.7,1.8
	c-16.1,3.6-16.1,14.3-16.1,16.1c0,3.6-3.6,10.7,8.9,14.3c14.3,3.6,34,3.6,42.9,7.2c10.7,1.8,14.3,8.9,14.3,8.9s-16.1-3.6-32.2-3.6
	c-14.3,0-19.7,5.4-21.5,12.5c-1.8,7.2,0,12.5,12.5,17.9c12.5,3.6,12.5,7.2,25,14.3c10.7,8.9,34,42.9,78.7,46.5
	c44.7,3.6,64.4-23.3,71.5-30.4s23.3-30.4,23.3-32.2c0-3.6,0-14.3-8.9-37.6c-8.9-25-26.8-46.5-34-57.2c-8.9-10.7-26.8-30.4-32.2-34
	c-5.4-1.8-30.4-14.3-37.6-16.1c-7.2-3.6-21.5-5.4-37.6-3.6C1175.9,595.6,1168.7,599.2,1168.7,611.7 M1215.2,838.9
	c1.8,10.7,3.6,17.9,17.9,21.5c16.1,1.8,57.2-3.6,66.2-3.6c7.2,0,16.1-1.8,39.4-14.3c25-16.1,37.6-34,39.4-41.1
	c1.8-7.2,1.8-14.3-5.4-23.3c-5.4-8.9-12.5-7.2-19.7-5.4c-7.2,0-25,19.7-30.4,25c-7.2,5.4-12.5,7.2-16.1,8.9
	c-3.6,3.6-30.4,7.2-41.1,8.9c-12.5,0-44.7,7.2-46.5,8.9C1215.2,826.3,1215.2,829.9,1215.2,838.9 M1231.3,872.9
	c-14.3,0-12.5,23.3-12.5,34c1.8,12.5,30.4,16.1,37.6,16.1s26.8-3.6,46.5-7.2c19.7-5.4,55.4-8.9,73.3-26.8
	c19.7-17.9,19.7-34,19.7-42.9c-1.8-10.7-12.5-12.5-16.1-14.3c-3.6,0-28.6,17.9-41.1,25c-12.5,8.9-28.6,12.5-35.8,14.3
	C1295.7,872.9,1247.4,872.9,1231.3,872.9 M1379.8,915.8c-1.8,1.8-50.1,12.5-73.3,17.9c-23.3,3.6-57.2,3.6-68,3.6
	c-10.7,0-10.7,12.5-8.9,17.9c0,7.2,0,28.6,5.4,82.3c5.4,51.9,1.8,128.8,1.8,144.9c-1.8,16.1,10.7,8.9,12.5,8.9
	c3.6,0,28.6-8.9,39.4-14.3c10.7-3.6,44.7-23.3,50.1-30.4c3.6-7.2,30.4-109.1,37.6-141.3C1383.4,973,1383.4,914,1379.8,915.8
	 M895.1,1024.9c0,0-3.6,1.8-12.5,8.9c-7.2,7.2-25,12.5-39.4,14.3c-12.5,1.8-30.4,3.6-34,5.4c-1.8,0-7.2,8.9-8.9,14.3
	c-1.8,5.4-5.4,1.8,16.1,23.3c21.5,21.5,44.7,42.9,98.4,71.5c53.7,28.6,155.6,46.5,211.1,44.7c57.2,0,84.1-14.3,85.9-17.9
	c1.8-3.6,7.2-55.4,10.7-82.3c3.6-26.8,3.6-76.9-3.6-84.1c-3.6-3.6-17.9-5.4-30.4-3.6c-8.9,0-17.9,1.8-23.3,3.6
	c-16.1,3.6-23.3,14.3-26.8,25c-3.6,8.9-17.9,50.1-25,59c-7.2,7.2-28.6,23.3-94.8,8.9c-64.4-12.5-110.9-76.9-112.7-80.5
	C902.2,1032,896.9,1024.9,895.1,1024.9 M1474.6,1171.6c-5.4-3.6,1.8-35.8,5.4-64.4c3.6-28.6,23.3-60.8,35.8-94.8
	c14.3-32.2,71.5-110.9,41.1-286.2c-30.4-177.1-175.3-271.9-227.2-286.2c-53.7-14.3-245-64.4-404.2-3.6
	c-159.2,60.8-209.3,178.9-221.8,293.3c-12.5,114.5,14.3,277.2,87.6,361.3c75.1,85.9,198.5,135.9,330.9,134.1
	c134.1-3.6,255.8-69.8,255.8-69.8l-10.7,85.9c0,0-91.2,73.3-268.3,62.6c-177.1-8.9-286.2-53.7-377.4-153.8
	c-87.6-100.2-103.7-275.5-107.3-339.8c-3.6-62.6,8.9-186,69.8-288c59-102,198.5-164.6,214.6-166.3c14.3-3.6,30.4-10.7,80.5-21.5
	c51.9-8.9,134.2-16.1,166.3-14.3c30.4,0,57.2-1.8,153.8,23.3c98.4,25,180.7,84.1,225.4,125.2c44.7,41.1,64.4,96.6,85.9,146.7
	c23.3,50.1,35.8,153.8,35.8,186s0,55.4-14.3,127c-16.1,71.5-59,148.5-68,162.8c-10.7,12.5-17.9,26.8-42.9,50.1
	C1496.1,1166.2,1480,1175.1,1474.6,1171.6 M848.6,933.7c0,10.7-5.4,23.3-17.9,25c-14.3,1.8-35.8,1.8-39.4-8.9
	c-5.4-12.5,0-25,7.2-30.4c8.9-5.4,8.9-5.4,19.7-5.4C828.9,912.2,846.8,922.9,848.6,933.7z M1190.2,998.1
	c-8.9,10.7-19.7,12.5-30.4,16.1c-10.7,3.6-21.5,5.4-28.6,8.9c-5.4,7.2-16.1,26.8-19.7,48.3c-3.6,19.7-12.5,32.2-16.1,34
	c-3.6,1.8-62.6,5.4-93-5.4c-26.8-12.5-41.1-21.5-66.2-46.5c-25-25-35.8-41.1-35.8-41.1h-10.7c0,0-25,28.6-60.8,21.5
	c-35.8-5.4-94.8-26.8-93-98.4c1.8-71.5,48.3-78.7,51.9-82.3c1.8-5.4,3.6-10.7-7.2-10.7c-8.9,0-25,3.6-35.8,10.7
	c-8.9,5.4-26.8,19.7-28.6,7.2c-1.8-14.3,1.8-50.1,37.6-66.2c34-17.9,41.1-14.3,41.1-25c0-12.5-26.8-8.9-34-3.6
	c-8.9,3.6-28.6,12.5-30.4,14.3c0,1.8-14.3,12.5-14.3-3.6c0-14.3,5.4-42.9,34-59c28.6-17.9,59-10.7,60.8-21.5
	c0-10.7-12.5-14.3-23.3-12.5c-12.5,0-42.9,10.7-48.3,16.1c-5.4,3.6-16.1,5.4-12.5-8.9c1.8-14.3,14.3-48.3,50.1-60.8
	c35.8-8.9,64.4,8.9,68,3.6c3.6-7.2,0-17.9-14.3-25c-14.3-5.4-23.3-8.9-44.7-1.8c-21.5,5.4-25,3.6-21.5-5.4s14.3-50.1,64.4-50.1
	c50.1,0,62.6,46.5,75.1,42.9c12.5-3.6-5.4-41.1-14.3-57.2s-44.7-41.1-30.4-48.3c12.5-10.7,42.9-7.2,62.6,7.2
	c19.7,10.7,19.7,14.3,25,21.5c5.4,7.2,25,51.9,28.6,48.3c3.6,0,5.4-26.8,1.8-44.7c-3.6-17.9-28.6-59-35.8-66.2
	c-7.2-7.2-5.4-12.5,7.2-12.5c14.3-1.8,50.1,3.6,69.8,28.6c21.5,25,21.5,69.8,19.7,75.1c-3.6,7.2-1.8,23.3,7.2,14.3
	c7.2-10.7,26.8-41.1,32.2-71.5c7.2-30.4,7.2-62.6,16.1-62.6c8.9,0,26.8,39.4,28.6,62.6c3.6,23.3,8.9,57.2-7.2,102
	c-16.1,42.9-41.1,78.7-48.3,80.5c-8.9,1.8-16.1,1.8-16.1,1.8s-32.2-26.8-66.2-23.3c-35.8,1.8-62.6,14.3-93,39.4
	c-30.4,26.8-42.9,53.7-46.5,73.3c-3.6,19.7-3.6,53.7,5.4,71.5c8.9,17.9,12.5,16.1,12.5,16.1h5.4c1.8-3.6-16.1-55.4-5.4-89.4
	c10.7-32.2,25-62.6,84.1-87.6c53.7-23.3,78.7,10.7,93,23.3c14.3,10.7,26.8,17.9,35.8,23.3c10.7,7.2,64.4,42.9,87.6,69.8
	c23.3,26.8,25,28.6,23.3,37.6c-3.6,7.2-16.1,17.9-16.1,25c1.8,7.2,12.5,23.3,7.2,34s-8.9,14.3-25,21.5
	c-14.3,7.2-19.7,17.9-17.9,19.7c0,3.6,7.2,1.8,10.7,0c7.2,0,10.7-5.4,21.5-3.6c10.7,0,25,1.8,28.6,26.8
	C1199.1,974.8,1199.1,987.3,1190.2,998.1z M864.7,946.2c0-21.5-26.8-41.1-51.9-41.1c0,0-32.2,1.8-34,32.2
	c-3.6,32.2,28.6,42.9,50.1,44.7C850.4,983.7,864.7,969.4,864.7,946.2z M1032.8,783.4c-1.8-1.8-25-7.2-41.1,7.2
	c-16.1,12.5-19.7,32.2-16.1,35.8c3.6,3.6,23.3,0,35.8-10.7c7.2-7.2,12.5-12.5,16.1-19.7C1032.8,790.6,1034.6,783.4,1032.8,783.4z
	 M1133,844.2c1.8-1.8,7.2-10.7,3.6-14.3c-3.6-3.6-7.2-3.6-12.5,0c-8.9,5.4-12.5,12.5-5.4,16.1"/>
</svg>
