<?xml version="1.0" encoding="utf-8"?>
<!-- Generator: Adobe Illustrator 18.0.0, SVG Export Plug-In . SVG Version: 6.00 Build 0)  -->
<!DOCTYPE svg PUBLIC "-//W3C//DTD SVG 1.1//EN" "http://www.w3.org/Graphics/SVG/1.1/DTD/svg11.dtd">
<svg version="1.1"
	 id="svg8" sodipodi:docname="copyright.svg" inkscape:version="0.92.4 (5da689c313, 2019-01-14)" xmlns:dc="http://purl.org/dc/elements/1.1/" xmlns:cc="http://creativecommons.org/ns#" xmlns:rdf="http://www.w3.org/1999/02/22-rdf-syntax-ns#" xmlns:svg="http://www.w3.org/2000/svg" xmlns:sodipodi="http://sodipodi.sourceforge.net/DTD/sodipodi-0.dtd" xmlns:inkscape="http://www.inkscape.org/namespaces/inkscape"
	 xmlns="http://www.w3.org/2000/svg" xmlns:xlink="http://www.w3.org/1999/xlink" x="0px" y="0px"
	 viewBox="648.3 649.5 1133.9 1133.9" enable-background="new 648.3 649.5 1133.9 1133.9" xml:space="preserve">
<sodipodi:namedview  inkscape:window-height="962" inkscape:document-units="mm" inkscape:pageopacity="0.0" inkscape:current-layer="layer1" inkscape:pageshadow="2" inkscape:window-maximized="1" inkscape:window-x="-8" inkscape:window-y="-8" inkscape:window-width="1280" pagecolor="#ffffff" showgrid="false" bordercolor="#666666" borderopacity="1.0" inkscape:zoom="0.14369886" inkscape:cx="2220.0583" inkscape:cy="1768.7428" id="base">
	</sodipodi:namedview>
<g>
	<path fill="none" stroke="#000000" stroke-width="0.25" stroke-miterlimit="10" d="M1215.2,650.2c-312.7,0-566.2,253.5-566.2,566.2
		s253.5,566.2,566.2,566.2s566.2-253.5,566.2-566.2S1527.9,650.2,1215.2,650.2z M1215.2,1687.2c-260,0-470.7-210.8-470.7-470.7
		s210.8-470.7,470.7-470.7s470.7,210.8,470.7,470.7S1475.2,1687.2,1215.2,1687.2z"/>
	<path fill="none" stroke="#000000" stroke-width="0.25" stroke-miterlimit="10" d="M1485.5,1332.3H1397c-1.8,0.9-4,2.2-6.6,4
		c-2.6,1.8-4,4.4-4,7.9v51.5c0,20.3-17.2,36.6-51.5,48.9c-34.4,12.3-68.3,18.5-101.7,18.5c-69.6,0-126.8-24.2-171.8-72.7
		c-44.9-48.4-67.4-110.1-67.4-185c0-71.3,21.6-129.5,64.7-174.4c43.2-44.9,99.5-67.4,169.1-67.4c34.4-0.9,67.8,4.8,100.4,17.2
		c32.6,12.3,48.9,29.1,48.9,50.2v51.5c0,7.9,4,11.9,11.9,11.9h87.2c7.9,0,11.9-4,11.9-11.9V1002c0.9-22.9-6.2-42.7-21.1-59.5
		c-15-16.7-32.1-30.4-51.5-41c-19.4-10.6-41.8-18.9-67.4-25.1c-25.5-6.2-48.4-10.6-68.7-13.2c-20.3-2.6-38.8-4-55.5-4
		c-99.5,0-182.8,33.5-249.7,100.4s-100.4,150.2-100.4,249.7c-0.9,101.3,32.6,186.3,100.4,255c67.8,68.7,152.4,103.1,253.7,103.1
		c26.4,0,55.1-2.6,85.9-7.9c30.8-5.3,59.9-13.2,87.2-23.8c27.3-10.6,50.2-25.5,68.7-44.9c18.5-19.4,27.7-41.4,27.7-66.1v-80.6
		c0-2.6-1.3-5.3-4-7.9S1488.1,1332.3,1485.5,1332.3z"/>
</g>
</svg>
