<?xml version="1.0" encoding="utf-8"?>
<!-- Generator: Adobe Illustrator 14.0.0, SVG Export Plug-In . SVG Version: 6.00 Build 43363)  -->
<!DOCTYPE svg PUBLIC "-//W3C//DTD SVG 1.1//EN" "http://www.w3.org/Graphics/SVG/1.1/DTD/svg11.dtd">
<svg version="1.1"
	 id="svg8" sodipodi:docname="copyright.svg" inkscape:version="0.92.4 (5da689c313, 2019-01-14)" xmlns:dc="http://purl.org/dc/elements/1.1/" xmlns:cc="http://creativecommons.org/ns#" xmlns:rdf="http://www.w3.org/1999/02/22-rdf-syntax-ns#" xmlns:svg="http://www.w3.org/2000/svg" xmlns:sodipodi="http://sodipodi.sourceforge.net/DTD/sodipodi-0.dtd" xmlns:inkscape="http://www.inkscape.org/namespaces/inkscape"
	 xmlns="http://www.w3.org/2000/svg" xmlns:xlink="http://www.w3.org/1999/xlink" x="0px" y="0px" width="2267.717px"
	 height="2267.717px" viewBox="81.362 82.58 2267.717 2267.717" enable-background="new 81.362 82.58 2267.717 2267.717"
	 xml:space="preserve">
<sodipodi:namedview  id="base" inkscape:window-height="962" inkscape:document-units="mm" inkscape:window-x="-8" inkscape:window-y="-8" inkscape:pageopacity="0.0" inkscape:pageshadow="2" inkscape:current-layer="layer1" inkscape:window-width="1280" inkscape:window-maximized="1" borderopacity="1.0" bordercolor="#666666" showgrid="false" pagecolor="#ffffff" inkscape:cy="1768.7428" inkscape:cx="2220.0583" inkscape:zoom="0.14369886">
	</sodipodi:namedview>
<g id="layer1" transform="translate(0.27290535,79.132292)" inkscape:groupmode="layer" inkscape:label="Capa 1">
	<path id="path3713" inkscape:connector-curvature="0" fill="none" stroke="#000000" stroke-width="0.2646" d="M1769.905,1382.406
		c-5.271-5.27-10.542-7.904-15.813-7.904h-176.578c-3.514,1.756-7.906,4.391-13.178,7.904c-5.271,3.515-7.906,8.785-7.906,15.814
		v102.782c0,40.411-34.262,72.917-102.785,97.515c-68.522,24.599-136.166,36.897-202.933,36.897
		c-138.803,0-253.009-48.317-342.616-144.953c-89.607-96.635-134.409-219.625-134.409-368.969
		c0-142.318,43.046-258.279,129.139-347.886c86.093-89.607,198.541-134.411,337.343-134.411
		c68.523-1.757,135.291,9.663,200.299,34.262c65.011,24.596,97.514,57.981,97.514,100.149v102.785
		c0,15.813,7.906,23.719,23.72,23.719h173.942c15.813,0,23.72-7.906,23.72-23.719V715.626
		c1.758-45.681-12.299-85.214-42.168-118.598c-29.869-33.382-64.131-60.616-102.783-81.7
		c-38.654-21.084-83.459-37.775-134.411-50.074c-50.953-12.299-96.636-21.084-137.047-26.355
		c-40.411-5.271-77.309-7.906-110.69-7.906c-198.542,0-364.578,66.765-498.109,200.297
		C600.622,764.822,533.855,930.858,533.855,1129.4c-1.757,202.056,65.008,371.604,200.299,508.65
		c135.289,137.047,303.96,205.57,506.015,205.57c52.712,0,109.813-5.273,171.309-15.813
		c61.495-10.543,119.476-26.354,173.942-47.439c54.467-21.084,100.15-50.952,137.045-89.607
		c36.898-38.652,55.347-82.578,55.347-131.774v-160.765C1777.811,1392.949,1775.177,1387.677,1769.905,1382.406z M1580.149,270.226
		c117.72,42.168,217.866,108.935,300.446,200.298c82.58,91.364,149.346,191.513,200.298,300.448
		c50.954,108.933,76.43,231.045,76.43,366.333c0,135.288-25.476,257.4-76.43,366.336
		c-50.952,108.932-117.718,208.205-200.298,297.812c-82.58,89.605-182.727,157.252-300.446,202.934
		c-117.719,45.681-238.951,70.279-363.699,73.794c-124.747,3.514-246.859-21.083-366.334-73.794
		c-119.477-52.71-219.625-120.354-300.448-202.934c-80.821-82.58-147.587-181.851-200.298-297.812
		c-52.71-115.964-78.186-238.074-76.429-366.336c1.756-128.26,27.233-250.371,76.429-366.333
		c49.196-115.963,115.963-216.111,200.298-300.448c84.336-84.337,184.486-151.102,300.448-200.298
		c115.962-49.196,238.074-73.794,366.334-73.794C1341.198,203.459,1462.43,228.058,1580.149,270.226z M2194.221,570.674
		c-110.691-172.186-247.737-309.232-411.138-411.139C1619.681,57.629,1430.804,6.676,1216.45,6.676
		c-214.354,0-404.111,50.953-569.268,152.858C482.023,261.441,345.856,398.488,238.679,570.674
		C131.502,742.859,80.549,931.737,85.82,1137.305c5.271,205.57,56.224,394.448,152.859,566.634
		c96.635,172.186,232.802,309.232,408.503,411.138c175.7,101.906,365.456,152.86,569.268,152.86s392.689-50.954,566.634-152.86
		c173.94-101.905,310.988-238.952,411.138-411.138c100.148-172.186,150.223-361.063,150.223-566.634
		C2344.444,1137.305,2328.818,748.385,2194.221,570.674z"/>
</g>
</svg>
