<?xml version="1.0" encoding="utf-8"?>
<!-- Generator: Adobe Illustrator 18.0.0, SVG Export Plug-In . SVG Version: 6.00 Build 0)  -->
<!DOCTYPE svg PUBLIC "-//W3C//DTD SVG 1.1//EN" "http://www.w3.org/Graphics/SVG/1.1/DTD/svg11.dtd">
<svg version="1.1"
	 id="svg8" xmlns:dc="http://purl.org/dc/elements/1.1/" xmlns:cc="http://creativecommons.org/ns#" xmlns:rdf="http://www.w3.org/1999/02/22-rdf-syntax-ns#" xmlns:svg="http://www.w3.org/2000/svg" xmlns:sodipodi="http://sodipodi.sourceforge.net/DTD/sodipodi-0.dtd" xmlns:inkscape="http://www.inkscape.org/namespaces/inkscape" sodipodi:docname="cornell_lab.svg" inkscape:version="0.92.4 (5da689c313, 2019-01-14)"
	 xmlns="http://www.w3.org/2000/svg" xmlns:xlink="http://www.w3.org/1999/xlink" x="0px" y="0px" viewBox="0 0 2267.7 2267.7"
	 enable-background="new 0 0 2267.7 2267.7" xml:space="preserve">
<sodipodi:namedview  borderopacity="1.0" bordercolor="#666666" showgrid="false" pagecolor="#ffffff" inkscape:cy="981.89559" inkscape:cx="1470.9699" inkscape:zoom="0.1400905" id="base" inkscape:document-units="mm" inkscape:pageshadow="2" inkscape:window-x="-8" inkscape:current-layer="layer1" inkscape:window-height="962" inkscape:window-y="-8" inkscape:pageopacity="0.0" inkscape:window-width="1280" inkscape:window-maximized="1">
	</sodipodi:namedview>
<path id="path3713" inkscape:connector-curvature="0" fill="none" stroke="#000000" stroke-width="0.2646" d="M1308,1118.3
	c25,0,42.6,17.5,42.6,41.6c0,24-17.5,41.3-42.6,41.3s-42.3-17.3-42.3-41.3C1265.7,1135.6,1282.9,1118.3,1308,1118.3z M1275.4,1159.9
	c0,18.3,12.5,32.5,32.5,32.5c20.3,0,32.8-14.3,32.8-32.5s-12.5-32.8-32.8-32.8C1287.9,1127.1,1275.4,1141.6,1275.4,1159.9z
	 M1366.8,1199.2v-67.3h-16.3v-8.8h17.3v-23c0-20.3,13.5-26,24-26c4.8,0,8.8,1,11.5,2l-1.8,8.8c-3-2-6-2-9.8-2
	c-9.5,0-14.5,6.8-14.5,21.3v19h19.3v9.8h-19.3v66.3h-9.5H1366.8z M1491,1075c37.6,0,63.6,27,63.6,63.6c0,36.6-26,63.6-63.6,63.6
	c-37.6,0-63.6-27-63.6-63.6C1427.4,1101.1,1453.4,1075,1491,1075z M1452.4,1100.1c-9.5,9.8-14.3,23-14.3,38.6s5.8,28.8,14.3,38.6
	c8.8,9.5,22.3,15.3,38.6,15.3c16.5,0,29.8-5.8,38.6-15.3c9.8-9.8,14.5-23,14.5-38.6c0-15.5-5.8-28.8-14.5-38.6
	c-8.8-9.5-22-15.3-38.6-15.3C1474.7,1084.8,1461.2,1090.5,1452.4,1100.1z M1604.6,1118.3c2,0,3.8,1,5.8,1l-1,9.8c-1.8-1-2.8-1-3.8-1
	c-18.3,0-27,12.5-27,27.8v43.3h-9.5v-56.8c0-5.8-1-17.3-1-22h9.5c0,5.8,0,11.5,1,13.5C1584.4,1124.1,1592.1,1118.3,1604.6,1118.3z
	 M1687.5,1152.1v47.1h-9.8v-46.1c0-13.5-3.8-26-20-26c-15.5,0-28,10.5-28,32.8v39.3h-9.5v-56.8c0-5.8-1-17.3-1-22h9.5
	c0,5.8,1,11.5,1,13.5h1c3.8-8.8,14.5-15.5,27-15.5C1682.7,1118.3,1688.5,1134.9,1687.5,1152.1z M1718.3,1079.8c4.8,0,7.8,4,7.8,7.8
	c0,4.8-4,7.8-7.8,7.8c-4.8,0-7.8-3.8-7.8-7.8C1710.5,1083.8,1713.5,1080.8,1718.3,1079.8z M1712.5,1120.3h10.5v78.9h-10.5v-39.3
	V1120.3z M1788.6,1189.7l1,8.5c-4,2-9.8,3-13.5,3c-14.5,0-20.3-8.8-20.3-20.3v-51.8h-17.3v-8.8h17.3v-23h9.5v23h23.3v8.8h-23.3v51.8
	c0,7.8,5,11.5,11.8,11.5C1780.9,1192.4,1784.6,1190.7,1788.6,1189.7z M1871.3,1152.1v46.1h-9.5v-46.1c0-13.5-3.8-26-20.3-26
	c-15.3,0-27.8,10.5-27.8,32.8v39.3h-9.8V1077h9.8v56.8h1c3.8-8.8,14.3-15.5,26.8-15.5C1866.5,1118.3,1872.3,1134.9,1871.3,1152.1z
	 M1925.3,1118.3c25,0,42.3,17.5,42.3,41.6c0,24-17.3,41.3-42.3,41.3c-25,0-42.3-17.3-42.3-41.3
	C1883,1135.6,1900.3,1118.3,1925.3,1118.3z M1892.5,1159.9c0,18.3,12.5,32.5,32.8,32.5c20.3,0,32.8-14.3,32.8-32.5
	s-12.5-32.8-32.8-32.8C1905.1,1127.1,1892.5,1141.6,1892.5,1159.9z M1980.2,1077h9.8v122.2h-9.8v-61.6V1077z M2044.7,1118.3
	c25,0,42.3,17.5,42.3,41.6c0,24-17.3,41.3-42.3,41.3c-25,0-42.3-17.3-42.3-41.3C2003.2,1135.6,2020.7,1118.3,2044.7,1118.3z
	 M2012,1159.9c0,18.3,12.5,32.5,32.8,32.5c20.3,0,32.8-14.3,32.8-32.5s-12.5-32.8-32.8-32.8C2025.5,1127.1,2013,1141.6,2012,1159.9z
	 M2167.9,1120.3h9.8v74.1c0,39.6-26,46.3-42.6,46.3c-16.3,0-31.8-6.8-39.3-16.5l5.8-5.8c9.5,8.8,21,12.5,33.5,12.5
	c31.8,0,32.8-27.8,32.8-36.6v-11.5h-1c-5.8,9.5-16.3,15.3-29.8,15.3c-24,0-43.3-18.3-43.3-40.3c1-22.3,19.3-40.6,43.3-40.6
	c13.5,0,24,5.8,29.8,15.5L2167.9,1120.3z M2136.1,1127.1c-18.3,0-32.8,14.5-32.8,31.8c0,17.3,14.5,31.8,32.8,31.8
	c18.3,0,32.8-14.5,32.8-31.8C2168.9,1140.6,2154.4,1127.1,2136.1,1127.1z M2265.3,1120.3l-41.6,103.9c-4.8,9.8-11.5,16.5-23,16.5
	c-4.8,0-12.5-2-16.5-4l5-6.5c2.8,0.8,5.8,1.8,11.5,1.8c8.5,0,12.5-7.8,15.3-13.5l7.8-18.3l-36.6-79.9h10.5l30.8,67.3l26-67.3
	L2265.3,1120.3L2265.3,1120.3z M379.9,1092.3c-10.8-13.3-28-18.3-41.6-18.3c-38.3,0-66.3,24-66.3,63.6c0,38.6,28,63.6,66.3,63.6
	c16.5,0,33.8-6.8,44.3-21.3l-23-16.3c-4.8,8.8-14.5,13.5-25,13.5c-19.3,0-34.5-16.5-34.5-39.6c0-23,15.3-39.6,35.5-39.6
	c9.5,0,17.3,3,23,9.8L379.9,1092.3z M382.7,1156.9c0,27,21.3,44.3,47.3,44.3s47.1-17.3,47.1-44.3c0-27-21-44.3-47.1-44.3
	S382.7,1129.8,382.7,1156.9z M408.7,1155.9c0-12.5,7.8-21,21.3-21s21,8.5,21,21c0,12.5-7.5,21.3-21,21.3S408.7,1168.4,408.7,1155.9z
	 M485.8,1114.6v82.9h26v-34.8c0-16.3,1.8-27.8,22-27.8c4,0,7.8,0.8,11.5,1.8v-23c-1.8-1-5.8-1-8.5-1c-11.5,0-18.3,4.8-24,15.5v-13.5
	h-26L485.8,1114.6L485.8,1114.6z M555.2,1114.6v83.6h26v-41.3c0-10.5,1.8-21.3,15.3-21.3c13.5,0,13.5,12.5,13.5,22.3v40.3h26v-46.1
	c0-22.3-4.8-39.6-31.8-39.6c-12.5,0-21.3,6.8-25,13.5v-11.5h-25L555.2,1114.6L555.2,1114.6z M709.1,1169.4
	c-3.8,6.8-9.5,10.5-18.3,10.5c-10.5,0-18.3-6.8-20.3-16.3h60.8v-7.8c0-26.8-15.5-44.3-39.6-44.3c-26,0-47.3,17.3-47.3,44.3
	s21.3,44.3,47.3,44.3c13.5,0,27.8-5.8,35.5-16.3L709.1,1169.4z M670.6,1147.4c0-7.8,6.8-15.5,18.3-15.5c9.8,0,16.5,6.8,16.5,15.5
	H670.6z M740.9,1197.4h26V1076h-26v60.6V1197.4z M782.2,1197.4h26V1076h-26v60.6V1197.4z M41,1085.5H2.4v-9.5H92v9.5H52.5v112.7H42
	v-112.7H41z M168.9,1150.1v47.3h-9.5v-46.3c0-13.5-3.8-26-20.3-26c-15.3,0-27.8,10.5-27.8,32.8v39.6h-9.8V1076h9.8v56.8
	c4.8-8.8,14.3-15.5,27.8-15.5C164.1,1117.3,169.9,1133.9,168.9,1150.1z M252.8,1177.2l6.8,7.8c-8.8,11.5-20.3,16.3-34.5,16.3
	c-24.3,0-40.6-17-40.6-41.3c0-24.3,17.3-41.6,40.6-41.6c25,0,37.6,18.3,37.6,36.6v6.8h-67.6c0,8.8,5.8,30,30.8,30
	C236.5,1191.7,247,1185.7,252.8,1177.2z M252.8,1152.1c0-14.5-12.5-26-27.8-26c-23.3,0-30,22-30,26H252.8z M840.1,1188.7h50.1v9.5
	h-61.6V1076h11.5v60.6L840.1,1188.7L840.1,1188.7z M961.5,1163.6c0,15.5,1,24,2,32.8h-9.8c-1-4-1-7.8-1-12.5h-1
	c-5.8,9.5-14.3,14.3-27.8,14.3c-13.5,0-28-6.5-28-23c0-11.5,7.8-18.3,16.5-22c8.5-3,20-4,27.8-4h12.5v-4.8c0-13.5-9.5-19.3-23-19.3
	c-9.8,0-18.3,3-25,8.8l-5.8-6.8c7.8-6.8,20.3-10.5,30.8-10.5c19.3,0.8,31.8,8.5,31.8,28.8V1163.6z M951.7,1157.9h-11.5
	c-18.3,0-35.5,4.8-35.5,18.3c0,10.5,9.5,15.5,18.3,15.5c11.5,0,19.3-4,23-8.8c4-5.8,5.8-12.5,5.8-19.3V1157.9z M1062.6,1157.9
	c0,24-17.5,41.3-42.6,41.3c-11.5,0-25-4.8-31.5-15.3h-1v13.5h-9.8V1076h9.8v56.8h1c5.8-10.5,20-15.5,31.5-15.5
	C1044.4,1117.3,1062.6,1134.9,1062.6,1157.9z M1052.9,1158.9c0-18.3-12.5-32.8-32.8-32.8c-19,0-33.5,14.5-33.5,32.8
	s14.5,32.8,33.5,32.8C1040.4,1191.7,1051.9,1177.2,1052.9,1158.9z M1353.3,1052h-56.8l-73.1,52.8c0-4.8,3-19.3,17.3-27.8
	c14.5-9.8,65.6-36.6,65.6-36.6c12.5,1,46.1,9.5,46.1,9.5S1354.3,1052,1353.3,1052z M1301.5,1034.7c0,0-51.1,27.8-66.6,37.6
	c-16.3,10.5-20.3,26.8-20.3,38.3v140.7c-20,0-33.5,1-61.6-14.5c-26.8-16.3-44.3-43.3-44.3-75.1v-73.1l-70.3-49.1h-81.6
	c-13.5,0-25-5.8-25-13.5h282.1c0,0,17.3-9.5,42.3-9.5C1276.2,1016.4,1292.7,1025,1301.5,1034.7z M1269.7,1037.5c0,3,1.8,4.8,4.8,4.8
	c2.8,0,4.8-1.8,4.8-4.8c0-2.8-2-4.8-4.8-4.8C1271.4,1032.7,1268.7,1035.5,1269.7,1037.5z M1214.6,1058.7v8.5l46.3-25l-14.5-0.7
	L1214.6,1058.7z M1130,1087.5c0,9.8,4.8,17.3,11.5,23l52.1,35.8v-25c0-10.5-4-17.3-14.5-24l-41.3-29
	C1137.7,1068.3,1130.3,1078,1130,1087.5z"/>
</svg>
