<?xml version="1.0" encoding="utf-8"?>
<!-- Generator: Adobe Illustrator 18.0.0, SVG Export Plug-In . SVG Version: 6.00 Build 0)  -->
<!DOCTYPE svg PUBLIC "-//W3C//DTD SVG 1.1//EN" "http://www.w3.org/Graphics/SVG/1.1/DTD/svg11.dtd">
<svg version="1.1"
	 id="svg8" sodipodi:docname="cornell_lab.svg" inkscape:version="0.92.4 (5da689c313, 2019-01-14)" xmlns:dc="http://purl.org/dc/elements/1.1/" xmlns:cc="http://creativecommons.org/ns#" xmlns:rdf="http://www.w3.org/1999/02/22-rdf-syntax-ns#" xmlns:svg="http://www.w3.org/2000/svg" xmlns:sodipodi="http://sodipodi.sourceforge.net/DTD/sodipodi-0.dtd" xmlns:inkscape="http://www.inkscape.org/namespaces/inkscape"
	 xmlns="http://www.w3.org/2000/svg" xmlns:xlink="http://www.w3.org/1999/xlink" x="0px" y="0px" viewBox="0 0 1133.9 1133.9"
	 enable-background="new 0 0 1133.9 1133.9" xml:space="preserve">
<sodipodi:namedview  inkscape:window-height="962" inkscape:document-units="mm" inkscape:pageopacity="0.0" inkscape:current-layer="layer1" inkscape:pageshadow="2" inkscape:window-maximized="1" inkscape:window-x="-8" inkscape:window-y="-8" inkscape:window-width="1280" pagecolor="#ffffff" showgrid="false" bordercolor="#666666" borderopacity="1.0" inkscape:zoom="0.1400905" inkscape:cx="1470.9699" inkscape:cy="981.89559" id="base">
	</sodipodi:namedview>
<g id="layer1" transform="translate(0.13229166,123.18428)" inkscape:label="Capa 1" inkscape:groupmode="layer">
	<path id="path3713" inkscape:connector-curvature="0" fill="none" stroke="#000000" stroke-width="0.2646" d="M662.3,520
		c12.3,11.9,12.6,28.9,1.2,40.8c-11.4,11.9-28.3,12-40.7,0.1c-12.3-11.9-12.6-28.7-1.2-40.5C633.2,508.4,650,508.1,662.3,520z
		 M626.5,525c-8.7,9-9.3,22,0.6,31.5c10,9.7,23,8.6,31.7-0.4c8.7-9,9.4-22.1-0.6-31.8C648.3,514.8,635.2,516,626.5,525z
		 M652.8,587.9l32.1-33.2l-8-7.7l4.2-4.3l8.5,8.2l11-11.4c9.7-10,19.1-6.4,24.3-1.4c2.3,2.3,3.8,4.7,4.7,6.5l-5,3.5
		c-0.5-2.4-2-3.8-3.9-5.6c-4.7-4.5-10.4-3.6-17.3,3.6l-9.1,9.4l9.5,9.2l-4.6,4.8l-9.5-9.2L658,592.9l-4.7-4.5L652.8,587.9z
		 M773.2,585.8c18.5,17.9,18.5,43.6,1.1,61.6c-17.4,18-43.1,19-61.6,1.1c-18.5-17.9-18.5-43.6-1.1-61.6
		C729.4,568.4,754.7,567.9,773.2,585.8z M742.3,579.8c-9.3,0.3-18,4.6-25.4,12.2c-7.4,7.7-10.9,16.9-11.3,25.8
		c-0.2,8.9,3.7,18.1,11.7,25.9c8.1,7.9,17.4,11.3,26.3,10.8c9.5-0.2,18.1-4.4,25.5-12.1c7.4-7.7,10.9-16.9,11.2-25.9
		c0.2-8.9-3.6-18-11.7-25.9C760.5,582.9,751.1,579.3,742.3,579.8z M808.6,661.3c1,1,1.4,2.3,2.4,3.2l-5.1,4.3
		c-0.4-1.3-0.9-1.8-1.4-2.3c-9-8.7-19.3-6.7-26.6,0.8l-20.6,21.4l-4.7-4.5l27.1-28c2.7-2.8,7.7-9,10-11.3l4.7,4.5
		c-2.7,2.8-5.5,5.7-5.9,7.1C795.9,654.5,802.5,655.3,808.6,661.3z M833.4,717.4L811,740.6l-4.8-4.6l21.9-22.7
		c6.4-6.7,10.5-14.6,2.5-22.4c-7.7-7.4-18.8-8.2-29.4,2.8l-18.7,19.4l-4.7-4.5l27.1-28c2.7-2.8,7.7-9,10-11.3l4.7,4.5
		c-2.7,2.8-5,6.2-5.9,7.1l0.5,0.5c6-2.5,14.6-0.7,20.7,5.2C847.2,698.5,842.1,709.4,833.4,717.4z M883,696.4
		c2.3,2.3,1.9,5.7,0.1,7.5c-2.3,2.3-5.7,1.9-7.5,0.1c-2.3-2.3-2-5.5-0.1-7.5C877.3,694.7,880.2,694.6,883,696.4z M860.9,713.6l5.2,5
		l-37.6,38.9l-5.2-5l18.7-19.4L860.9,713.6z M865.4,784.1l-3.6,4.7c-2.9-0.9-6.2-3.2-8.1-5c-7.2-6.9-5.8-14-0.3-19.7l24.7-25.6
		l-8.5-8.2l4.2-4.3l8.5,8.2l11-11.4l4.7,4.5l-11,11.4l11.5,11.1l-4.2,4.3l-11.5-11.1l-24.7,25.6c-3.7,3.8-3,8.1,0.3,11.3
		C860.3,781.8,863,782.7,865.4,784.1z M924,804.9l-21.9,22.7l-4.7-4.5l21.9-22.7c6.4-6.7,10.5-14.6,2.4-22.5
		c-7.5-7.3-18.7-8-29.3,2.9l-18.7,19.4l-4.8-4.6l57.7-59.8l4.8,4.6l-27.1,28l0.5,0.5c6-2.5,14.4-0.9,20.6,5.1
		C937.8,786,932.8,796.9,924,804.9z M966.8,814c12.3,11.9,12.5,28.8,1.1,40.6c-11.4,11.9-28.2,12.1-40.5,0.2s-12.6-28.7-1.2-40.5
		C937.7,802.4,954.5,802.1,966.8,814z M930.8,818.9c-8.7,9-9.3,22,0.7,31.7s23,8.6,31.7-0.4c8.7-9,9.4-22.1-0.6-31.8
		C952.6,808.7,939.5,809.9,930.8,818.9z M1013.5,819.7l4.8,4.6l-58.2,60.3l-4.8-4.6l29.3-30.4L1013.5,819.7z M1025.7,870.9
		c12.3,11.9,12.5,28.8,1.1,40.6c-11.4,11.9-28.2,12.1-40.5,0.2s-12.6-28.7-1.2-40.5C997,859.6,1013.8,859.4,1025.7,870.9z
		 M989.7,875.7c-8.7,9-9.3,22,0.7,31.7c10,9.7,23,8.6,31.7-0.4c8.7-9,9.4-22.1-0.6-31.8C1012,866,998.9,867.2,989.7,875.7z
		 M1085.5,930.5l4.8,4.6l-35.3,36.5c-18.8,19.5-34.9,10.4-43,2.6c-8-7.7-12.5-18.5-11.5-26.9l5.6-0.1c0.5,8.9,4.4,16.2,10.6,22.1
		c15.7,15.1,29.4,1.9,33.6-2.4l5.5-5.7l-0.5-0.5c-7.4,1.9-15.3-0.2-22-6.7c-11.9-11.4-12.7-29.6-2.2-40.5
		c11.1-10.5,28.8-10.8,40.7,0.6c6.7,6.4,9.1,14.3,7.3,21.8L1085.5,930.5z M1066.6,918.7c-9-8.7-23.1-8.5-31.3,0.1
		c-8.2,8.5-8,22.6,1,31.3c9,8.7,23.1,8.5,31.3-0.1C1076.3,941,1075.6,927.4,1066.6,918.7z M1133.5,976.9l-70,31.5
		c-7,2.6-13.5,2.7-19.2-2.8c-2.3-2.3-5.2-6.9-6.2-9.8l5.6-0.8c1,1.7,2,3.6,4.8,6.3c4.2,4.1,9.9,2.1,14,0.6l12.5-5.3l20-56.8l5.2,5
		l-16.9,47.9l44.9-20.8L1133.5,976.9z M217,65.3c1-11.7-5.1-22.4-11.8-28.8c-18.9-18.2-44.2-19.7-63-0.2c-18.4,19-16.5,44.7,2.4,63
		c8.1,7.9,19.9,12.8,32,10.6l-3.6-19c-6.5,2.1-13.6-0.2-18.8-5.3c-9.5-9.2-9.2-24.6,1.8-36c11-11.4,26.4-12.2,36.4-2.6
		c4.7,4.5,7.1,9.7,6.7,15.8L217,65.3z M187.6,98.4c-12.9,13.3-10.6,32,2.2,44.4c12.8,12.4,31.4,13.9,44.3,0.6s10.7-31.9-2.1-44.3
		C219.2,86.7,200.5,85.1,187.6,98.4z M200.9,110.3c6-6.2,13.8-6.7,20.5-0.2c6.7,6.4,6.3,14.2,0.4,20.4c-6,6.2-13.8,6.9-20.5,0.5
		C194.6,124.5,195,116.5,200.9,110.3z M258.6,126.7l-39.5,40.9l12.8,12.4l16.6-17.2c7.7-8,14.1-12.9,24.1-3.2c2,1.9,3.5,4.1,4.8,6.3
		l11-11.4c-0.4-1.3-2.4-3.2-3.7-4.5c-5.7-5.5-11.3-6.4-19.2-3.8l6.4-6.7l-12.8-12.4L258.6,126.7z M292.8,159.7L253,200.9l12.8,12.4
		l19.7-20.4c5-5.2,11-9.7,17.7-3.2c6.7,6.4,0.7,12.6-3.9,17.4L280.1,227l12.8,12.4l21.9-22.7c10.6-11,16.5-21.8,3.2-34.6
		c-6.2-6-13.7-6.8-18.8-5.3l5.5-5.7l-12.3-11.9L292.8,159.7z M342.7,260.1c-5.1,1.5-9.7,0.7-14-3.5c-5.2-5-5.8-12-2.3-17.7l30,29
		l3.7-3.8c12.8-13.2,13.4-29.2,1.6-40.7c-12.8-12.4-31.6-14-44.4-0.7s-10.6,32,2.2,44.4c6.7,6.4,16.4,10.4,25.3,8.9L342.7,260.1z
		 M334.1,230.8c3.7-3.8,10.7-4.4,16.4,1c4.8,4.6,4.9,11.2,0.8,15.5L334.1,230.8z M345,289l12.8,12.4l57.8-59.9l-12.8-12.4L374,259
		L345,289z M365.4,308.7l12.8,12.4l57.8-59.9l-12.8-12.4l-28.8,29.9L365.4,308.7z M53.1-99.5l-19-18.4l4.5-4.7l44.2,42.7l-4.5,4.7
		L58.7-94L5.1-38.4l-5.2-5L53.6-99 M85.4-6.7L62.9,16.6l-4.7-4.5l22.1-22.8c6.4-6.7,10.5-14.6,2.4-22.5c-7.5-7.3-18.7-8-29.3,2.9
		L34.5-10.8l-4.8-4.6l57.8-59.9l4.8,4.6l-27.1,28c6.5-2.1,14.4-0.9,21.1,5.6C98.7-25.2,93.6-14.3,85.4-6.7z M113.9,46.6l-0.4,7
		c-9.8,1.5-17.7-1.6-24.8-8.4c-12-11.6-11.9-27.7-0.3-39.7s28.3-12.3,39.8-1.2c12.3,11.9,9.8,26.9,1.1,35.9l-3.2,3.3L92.8,11.4
		c-4.2,4.3-11.5,17.6,0.9,29.5C98.9,46,107,48,113.9,46.6z M125.8,34.2c6.9-7.2,6.2-18.8-1.3-26.1C113-3,99.2,4.7,97.3,6.7
		L125.8,34.2z M398.1,331.9l24.7,23.8l-4.5,4.7l-30.4-29.3l58.2-60.3l5.7,5.5l-28.8,29.9L398.1,331.9z M469.9,377.4
		c-7.4,7.7-11,12.3-14.6,17.1l-4.8-4.6c1.4-2.5,3.2-4.3,5.5-6.7l-0.5-0.5c-7.4,1.9-13.8,0.2-20.5-6.2c-6.7-6.4-10.7-16.6-2.9-24.7
		c5.5-5.7,12.5-5.3,18.6-3c5.6,2.6,11.8,7.6,15.6,11.3l6.2,6l2.3-2.3c6.4-6.7,4.5-14-2.2-20.5c-4.8-4.6-10.4-7.2-16.5-7.6l0.4-6.1
		c7,0.4,15,4.5,20.2,9.5c9.1,9.5,11.6,19.3,2,29.3L469.9,377.4z M467.8,369.9l-5.7-5.5c-9-8.7-19.8-14.6-26.2-7.9
		c-5,5.2-2.7,12.2,1.6,16.4c5.7,5.5,11.4,7.2,15.5,6.6c4.7-0.9,8.8-3.4,12-6.8L467.8,369.9z M522.5,422.7
		c-11.4,11.9-28.3,12-40.7,0.1c-5.7-5.5-10.1-14.3-8.3-22.6l-0.5-0.5l-6.4,6.7l-4.8-4.6l57.8-59.9l4.8,4.6l-27.1,28l0.5,0.5
		c7.8-2.4,17.3,1.9,22.9,7.4C532.8,394,533.5,411.3,522.5,422.7z M517.2,418.5c8.7-9,9.4-22.1-0.6-31.8c-9.4-9.1-23.5-8.8-32.2,0.2
		c-8.7,9-8.5,23.1,0.9,32.1C495.4,428.8,508,427.1,517.2,418.5z M716.3,508.9l-28-27.1l-61.2-8.8c2.3-2.3,10.7-8.1,21.8-5.5
		c11.8,2.1,49.8,13.2,49.8,13.2c5.7,6.5,18.2,26.6,18.2,26.6S716.8,509.4,716.3,508.9z M698.9,475.7c0,0-38.4-10.6-50.7-13.2
		c-13-2.6-22.8,3.6-28.2,9.2l-67,69.4c-9.9-9.5-17-15.5-23.5-36.5c-5.5-20.8-1.2-42.5,13.9-58.1l34.8-36.1l-11.3-57.7l-40.3-38.9
		c-6.7-6.4-9.6-14.8-5.9-18.6l139.1,134.4c0,0,13,3.5,25.4,15.5C695.2,454.6,699.3,466.7,698.9,475.7z M681.9,461.9
		c-1.4,1.5-1.4,3.2,0.1,4.6c1.4,1.3,3.2,1.4,4.6-0.1c1.3-1.4,1.3-3.3-0.1-4.6C685.1,460.4,682.4,460.4,681.9,461.9z M644.6,446.2
		l-4.1,4.2l34.8,9.7l-6.8-7.3L644.6,446.2z M589.2,420.1c-4.6,4.8-5.9,10.8-5.3,16.8l8.6,42.5l11.9-12.3c5-5.2,6.3-10.4,4.3-18.8
		l-6.5-34C602.2,414.3,592.9,416,589.2,420.1z"/>
</g>
</svg>
