<?xml version="1.0" encoding="utf-8"?>
<!-- Generator: Adobe Illustrator 14.0.0, SVG Export Plug-In . SVG Version: 6.00 Build 43363)  -->
<!DOCTYPE svg PUBLIC "-//W3C//DTD SVG 1.1//EN" "http://www.w3.org/Graphics/SVG/1.1/DTD/svg11.dtd">
<svg version="1.1"
	 id="svg8" xmlns:dc="http://purl.org/dc/elements/1.1/" xmlns:cc="http://creativecommons.org/ns#" xmlns:rdf="http://www.w3.org/1999/02/22-rdf-syntax-ns#" xmlns:svg="http://www.w3.org/2000/svg" xmlns:sodipodi="http://sodipodi.sourceforge.net/DTD/sodipodi-0.dtd" xmlns:inkscape="http://www.inkscape.org/namespaces/inkscape" sodipodi:docname="crustacea.svg" inkscape:version="0.92.4 (5da689c313, 2019-01-14)"
	 xmlns="http://www.w3.org/2000/svg" xmlns:xlink="http://www.w3.org/1999/xlink" x="0px" y="0px" width="1133.859px"
	 height="1133.858px" viewBox="739.956 566.414 1133.859 1133.858" enable-background="new 739.956 566.414 1133.859 1133.858"
	 xml:space="preserve">
<sodipodi:namedview  id="base" showgrid="false" pagecolor="#ffffff" inkscape:cy="746.86759" inkscape:cx="1607.2442" inkscape:zoom="0.1400905" borderopacity="1.0" bordercolor="#666666" inkscape:window-maximized="1" inkscape:window-width="1280" inkscape:window-y="-8" inkscape:window-x="-8" inkscape:pageshadow="2" inkscape:current-layer="layer1" inkscape:pageopacity="0.0" inkscape:document-units="mm" inkscape:window-height="962">
	</sodipodi:namedview>
<g id="layer1" transform="translate(-39.358218,62.742154)" inkscape:groupmode="layer" inkscape:label="Capa 1">
	<path id="path3713_1_" inkscape:connector-curvature="0" fill="none" stroke="#000000" stroke-width="0.2646" d="
		M1546.027,1595.665c-36.861,25.752-82.337,36.045-126.693,28.68l-36.192-5.71c-59.757-9.745-109.611-50.966-130.411-107.826
		l-16.358-42.124l165.22,25.654c10.844,1.501,20.877-6.008,22.494-16.836c1.502-10.844-6.008-20.878-16.836-22.495l-104.641-16.405
		l-7.896-3.015c0.324-52.098,42.822-94.068,94.92-93.742c8.015,0.05,15.99,1.121,23.736,3.187
		c50.301,4.437,99.152,19.161,143.521,43.264c6-11.938,7.188-25.721,3.319-38.511l-16.434-46.831
		c-8.326,2.734-17.14,3.676-25.856,2.762c-18.722-1.679-35.512-12.208-45.182-28.329c-21.374-33.223-52.477-59.046-89.065-73.942
		l-75.587,84.381c12.3,18.321,7.42,43.142-10.9,55.442c-18.319,12.298-43.141,7.418-55.44-10.9
		c-12.299-18.319-7.419-43.141,10.901-55.44c13.089-8.79,30.125-9.06,43.485-0.686l70.207-77.233
		c-12.491-3.934-25.47-6.106-38.56-6.456l-51.812-0.757c-26.001-0.646-47.15-21.141-48.617-47.108l-5.721-64.269
		c-0.364-8.758-1.818-17.433-4.33-25.831l-70.953,79.601c10.358,15.686,8.745,36.399-3.917,50.292
		c-15.313,15.889-40.604,16.354-56.493,1.045c-15.888-15.312-16.357-40.604-1.045-56.491c12.967-13.456,33.526-16.126,49.5-6.429
		l75.587-84.384l0,0c-18.923-36.179-48.045-66.011-83.758-85.8c-15.503-8.862-26.14-24.288-28.914-41.927
		c-1.294-8.681-0.629-17.54,1.946-25.93l-47.301-13.383c-12.874-3.834-26.758-2.196-38.386,4.528
		c19.353,28.134,33.412,59.563,41.487,92.743l11.725,46.907c9.836,54.902-26.699,107.382-81.601,117.217
		c-2.771,0.495-5.561,0.877-8.364,1.14l-25.242-107.912c-4.314-10.154-16.042-14.889-26.196-10.577
		c-7.858,3.337-12.726,11.298-12.117,19.813l37.915,165.005l-42.568-11.889c-57.833-17.509-101.76-64.801-114.965-123.766
		l-8.439-37.539c-9.67-43.679-1.944-89.406,21.539-127.483c0.633-0.921,1.417-1.729,2.317-2.391
		c29.395-38.704,62.771-74.214,99.578-105.951c32.19-24.704,69.913-41.19,109.907-48.035c40.375-7.375,82.004-3.412,120.262,11.451
		l49.067,25.913c10.323-10.313,21.761-19.442,34.105-27.222l32.708-16.211l-26.572-42.749c-1.507-2.623-2.361-5.572-2.49-8.593
		l-1.629-103.574c-0.205-4.638,1.413-9.17,4.51-12.628l50.972-52.602c8.839-5.518,20.477-2.824,25.995,6.016
		c3.702,5.931,3.819,13.425,0.305,19.47l-45.565,47.022l1.433,91.02l28.19,45.863l0,0l33.703-2.885l-20.566-60.11
		c-1.497-4.04-1.567-8.469-0.198-12.554l24.672-78.086c1.699-5.184,5.685-9.298,10.811-11.158l77.272-27.116
		c10.266-1.794,20.042,5.073,21.834,15.336c1.388,7.951-2.434,15.904-9.507,19.788l-68.703,23.056l-19.413,63.094l23.9,72.614
		c14.809,1.173,29.384,4.376,43.317,9.521l-1.259-80.034c-0.335-4.656,1.302-9.237,4.51-12.628l50.973-52.603
		c4.849-5.003,12.062-6.928,18.757-5.003l78.089,24.671c10.015,2.877,15.802,13.327,12.924,23.341
		c-3.525,9.4-13.795,14.391-23.366,11.355l-67.826-20.908l-37.071,38.256l2.231,91.792c7.976,5.46,15.432,11.648,22.265,18.485
		c10.548,9.445,23.358,16.003,37.187,19.037c9.644-1.357,19.435-1.247,29.046,0.326c45.942-1.514,84.419,34.503,85.932,80.447
		c0.188,5.73-0.213,11.465-1.205,17.111c-2.961,15.387,2.008,31.232,13.22,42.173c9.096,8.874,17.151,18.753,24.01,29.447
		l94.957-0.709l37.841-39.053l-23.827-67.906c-2.769-9.453,2.202-19.445,11.411-22.939c9.453-2.768,19.444,2.202,22.94,11.411
		l27.117,77.272c2.654,6.711,1.255,14.351-3.617,19.679l-50.972,52.601c-3.288,3.312-7.816,5.092-12.481,4.906l-83.172,1.308
		c4.333,12.974,7.435,26.327,9.261,39.882l74.925,23.15l62.451-21.387l20.884-69.396c1.471-10.314,11.022-17.486,21.339-16.017
		c10.316,1.47,17.486,11.024,16.017,21.339c-0.293,2.052-0.922,4.043-1.863,5.892l-24.67,78.088
		c-1.699,5.182-5.686,9.296-10.813,11.157l-78.045,27.913c-3.563,1.146-7.386,1.205-10.985,0.173l-67.028-20.136l0.348,21.97
		c0.845,3.909-0.675,7.073-1.422,9.439l53.873,32.117l91.818-0.661l45.565-47.021c5.234-9.009,16.784-12.068,25.791-6.832
		c9.009,5.238,12.067,16.785,6.831,25.794c-1.543,2.657-3.715,4.896-6.323,6.522l-50.969,52.602
		c-3.362,3.204-7.841,4.964-12.483,4.905l-103.573,1.63c-3.364-0.134-6.633-1.165-9.466-2.99l-49.887-28.253l-9.819,24.483
		c-6.53,13.195-14.782,25.465-24.54,36.489c29.785,47.405,28.964,45.065,29.785,47.405c16.525,36.519,22.856,76.828,18.317,116.654
		c-4.76,40.239-19.237,78.718-42.189,112.111c-12.903,19.105-27.896,36.714-44.693,52.503
		C1604,1539.029,1557.001,1587.419,1546.027,1595.665z"/>
</g>
</svg>
