<?xml version="1.0" encoding="utf-8"?>
<!-- Generator: Adobe Illustrator 18.0.0, SVG Export Plug-In . SVG Version: 6.00 Build 0)  -->
<!DOCTYPE svg PUBLIC "-//W3C//DTD SVG 1.1//EN" "http://www.w3.org/Graphics/SVG/1.1/DTD/svg11.dtd">
<svg version="1.1"
	 id="svg8" xmlns:dc="http://purl.org/dc/elements/1.1/" xmlns:cc="http://creativecommons.org/ns#" xmlns:rdf="http://www.w3.org/1999/02/22-rdf-syntax-ns#" xmlns:svg="http://www.w3.org/2000/svg" xmlns:sodipodi="http://sodipodi.sourceforge.net/DTD/sodipodi-0.dtd" xmlns:inkscape="http://www.inkscape.org/namespaces/inkscape" sodipodi:docname="crustacea.svg" inkscape:version="0.92.4 (5da689c313, 2019-01-14)"
	 xmlns="http://www.w3.org/2000/svg" xmlns:xlink="http://www.w3.org/1999/xlink" x="0px" y="0px" viewBox="0 0 2267.7 2267.7"
	 enable-background="new 0 0 2267.7 2267.7" xml:space="preserve">
<path fill="none" stroke="#000000" stroke-width="0.2646" d="M2259.4,708.9c2.4,50.7-0.9,101.5-9.8,151.5
	c-14.9,88-50.9,171-105.1,241.9c-53.8,69.9-125.6,124-207.7,156.4c-4.9,2.4,0,0-119.7,29.3c-1.5,32.4-7.2,64.4-17.1,95.3l-22,53.8
	l122.2,31.8c7.3,1.5,14,4.8,19.5,9.8l161.3,161.3c7.4,7,11.8,16.7,12.2,26.9V1828c1.6,6.6,1.6,13.4,0,20
	c-5.5,22.3-28.1,35.8-50.3,30.3c-22.3-5.5-35.8-28.1-30.3-50.3v-144.2l-144.2-141.7l-134.4-31.8c-2.4,4.9-4.9,12.2-12.2,17.1
	l-34.2,34.2l136.8,70.9c7.3,3.9,13.2,9.8,17.1,17.1l80.6,163.7c5.3,10.8,5.3,23.4,0,34.2l-80.6,161.3c-1.3,4.4-3.4,8.5-6.1,12.2
	c-13.5,18.6-39.5,22.7-58,9.2c-18.6-13.5-22.7-39.5-9.2-58l73.3-141.7l-66-129.5l-153.9-78.2c-23.7,18.6-49,35-75.8,48.9
	l129.5,129.5c7.7,6.8,12.1,16.6,12.2,26.9v161.3c-0.5,15.9-9.9,30.1-24.4,36.7l-161.3,80.6c-19.6,9.2-43.1,1.8-53.8-17.1
	c-9.2-19.6-1.8-43.1,17.1-53.8l141.7-70.9v-119.7l-149.1-146.6c-27.2,6.4-55.1,9.7-83.1,9.8c-34.5,0.1-66.6,17.6-85.5,46.4
	c-7.1,10.4-15.2,20.1-24.3,28.9c-72.8,70.3-188.8,68.3-259.1-4.5c-17.6-12.2-33.3-27.1-46.4-44c-26.5-16.4-56.8-25.7-88-26.9
	c-21.3,0.3-42.6-1.3-63.5-4.9l-144.2,141.7v117.3l139.3,70.9c19.8,9.9,28.4,33.5,19.6,53.8c-10.8,20.2-36,27.9-56.2,17.1
	l-161.3-80.6c-13.5-7.2-22-21.3-22-36.7v-161.3c0.1-10.3,4.6-20,12.2-26.9l124.6-124.6c-29.9-13.2-57.9-30.5-83.1-51.3L487.8,1701
	l-66,129.5l73.3,141.7c5.2,17-0.9,35.4-15.3,45.9c-18.6,13.5-44.5,9.4-58-9.2l-80.6-161.3c-5.3-10.8-5.3-23.4,0-34.2l80.6-161.3
	c4.1-8.6,11-15.5,19.5-19.6L566,1569l-48.9-56.2l0,0l-114.8,29.3l-141.7,141.7V1828c-3.7,14.9-15.4,26.6-30.3,30.3
	c-22.3,5.5-44.8-8.1-50.3-30.3v-161.3c0.4-10.2,4.8-19.9,12.2-26.9l161.3-161.3c4.8-4.6,10.7-7.9,17.1-9.8l107.5-26.9l-26.9-75.7
	c-7.6-31.2-11.7-63.2-12.2-95.3l-117.3-34.2c-83.3-35.1-155.2-92.6-207.7-166.2c-52.8-72.1-87.1-156-100.2-244.4
	C4.2,719.6,5.8,612.3,18.6,506c-0.4-2.4-0.4-4.9,0-7.3c21.2-96.2,79.1-180.3,161.3-234.6l70.9-46.4c111.2-73,253.1-80.5,371.4-19.5
	l85.5,46.4L394.9,447.4c-14,12.5-18.5,32.6-11.2,49.9c9.4,22.4,35.2,32.9,57.6,23.4l205.3-132c4,4.7,7.9,9.6,11.5,14.6
	c71.7,99.7,49.1,238.6-50.6,310.4L517.1,770c-63.6,40.1-134,68.2-207.7,83.1c8.1,28.5,27.5,52.3,53.8,66l95.3,51.3
	c8.8-17.2,21.3-32.2,36.7-44c31.4-23.6,71.9-31.7,110-22c86.8,23.4,178.5,20.9,263.9-7.3l0,0l9.8-249.2c-40.1-9.1-68.5-44.9-68.4-86
	c0.1-48.6,39.6-87.9,88.2-87.7c48.6,0.1,87.9,39.6,87.7,88.2c-1.3,41.4-30.5,76.6-70.9,85.5l-9.8,234.6
	c16.8-9.4,32.4-20.9,46.4-34.2l107.5-92.9c42.1-38.8,107-38.8,149.1,0l83.1,78.2c21.2,19.5,45.1,36,70.9,48.9l7.3-229.7
	c-34-7.2-60.5-33.8-67.7-67.7c-10.1-47.5,20.2-94.2,67.7-104.4c47.5-10.1,94.2,20.2,104.4,67.7s-20.2,94.2-67.7,104.4l-9.8,249.2
	c80.7,32.5,169.4,39.3,254.1,19.5c40-10.7,82.7-1.6,114.8,24.4c15.2,11.9,27.7,26.9,36.7,44l97.7-48.9c25.7-14.3,44.9-37.9,53.8-66
	c-107.1-29.9-206.9-81.4-293.2-151.5c-15.4-8.6-29.7-19.1-42.4-31.3c-82.9-79.3-85.8-210.8-6.5-293.7l17.1,7.3l190.6,134.4
	c19.6,14,46.8,9.7,61.1-9.8c14-19.6,9.7-46.8-9.8-61.1l-300.6-212.6l90.4-41.5c120-58,262-46.8,371.4,29.3l66,46.4
	c81.4,56.3,137.6,142.3,156.4,239.5L2259.4,708.9z"/>
</svg>
