<?xml version="1.0" encoding="utf-8"?>
<!-- Generator: Adobe Illustrator 18.0.0, SVG Export Plug-In . SVG Version: 6.00 Build 0)  -->
<!DOCTYPE svg PUBLIC "-//W3C//DTD SVG 1.1//EN" "http://www.w3.org/Graphics/SVG/1.1/DTD/svg11.dtd">
<svg version="1.1"
	 id="svg8" xmlns:dc="http://purl.org/dc/elements/1.1/" xmlns:cc="http://creativecommons.org/ns#" xmlns:rdf="http://www.w3.org/1999/02/22-rdf-syntax-ns#" xmlns:svg="http://www.w3.org/2000/svg" xmlns:sodipodi="http://sodipodi.sourceforge.net/DTD/sodipodi-0.dtd" xmlns:inkscape="http://www.inkscape.org/namespaces/inkscape" sodipodi:docname="cycadidae.svg" inkscape:version="0.92.4 (5da689c313, 2019-01-14)"
	 xmlns="http://www.w3.org/2000/svg" xmlns:xlink="http://www.w3.org/1999/xlink" x="0px" y="0px" viewBox="0 0 2267.7 2267.7"
	 enable-background="new 0 0 2267.7 2267.7" xml:space="preserve">
<path id="path3713" inkscape:connector-curvature="0" fill="none" stroke="#000000" stroke-width="0.2646" d="M1169.2,2056.6
	c-9.9-7.5-22.4-44.8-29.8-99.5c32.3-24.9,59.7-52.2,84.6-79.6c-9.9,62.2-22.4,124.4-27.4,184
	C1186.7,2061.5,1176.7,2059,1169.2,2056.6z M2263.5,778.2L2184,922.5l-19.9,102h-29.8l-5-62.2l-7.5,49.7l-22.4-44.8l-9.9,57.2
	l-27.4-64.7l-12.4,64.7l-42.3-54.7l-17.4,49.7l-37.3-44.8l-12.4,59.7l-27.4-49.7l-14.9,62.2l-24.9-44.8l-17.4,52.2l-22.4-44.8
	l-14.9,39.8l-14.9-24.9l-14.9,57.2l-19.9-47.3l-14.9,62.2l-9.9-32.3l-22.4,32.3c0,0-126.8,82.1-156.7,111.9
	c-29.8,32.3-92,111.9-92,111.9s-52.2,82.1-62.2,87c-12.4,2.5-17.4,7.5-17.4,7.5s-44.8,14.9-17.4,67.2c22.4,47.3,42.3,5,32.3,114.4
	l-159.2,206.4l74.6-375.5c-22.4,119.4-54.7,243.7-82.1,365.6l-87-186.5c17.4-64.7,44.8-116.9,87-141.8c19.9-12.4-7.5-79.6-29.8-42.3
	c-24.9,44.8-124.4,213.9-174.1,238.8c-87,44.8-109.4-77.1-74.6-144.3c32.3-67.2,74.6-92,74.6-92l-89.5,24.9l-39.8,39.8l12.4-57.2
	l-27.4,34.8l-9.9,34.8l-7.5,37.3l-27.4-52.2l-22.4,74.6l-19.9-57.2l-2.5,99.5l-39.8-74.6l-14.9,111.9l-24.9-59.7l-9.9,121.9
	l-22.4-72.1l-14.9,97l-29.8-97l-34.8,124.4l-7.5-116.9l-32.3,161.7l-34.8-64.7l-19.9,111.9l-27.4-39.8l-17.4,106.9l-44.8-82.1
	l-17.4,131.8l-24.9-57.2l-19.9,79.6l-29.8-64.7l-7.5,94.5l-27.4-57.2L286.3,2064L249,1949.6L226.7,2059l-19.9-94.5L164.5,2074
	l-14.9-102l-24.9,87v-67.2L70,2031.7l27.4-67.2l-69.6,34.8l79.6-77.1l-74.6,12.4l84.6-49.7c0,0-97,2.5-111.9,2.5
	s121.9-67.2,121.9-67.2l-99.5-5l119.4-37.3l-136.8-14.9l114.4-7.5c0,0-19.9-14.9-77.1-14.9c-57.2,0,181.6-44.8,181.6-44.8
	s-131.8-34.8-154.2-39.8c-22.4-2.5,131.8,5,131.8,5l-22.4-49.7l114.4,12.4l-39.8-84.6l169.1,49.7c0,0-69.6-77.1-97-87
	c-24.9-12.4,111.9,22.4,111.9,22.4l-54.7-67.2l184,62.2l-104.5-116.9l87,37.3l-9.9-62.2l74.6,39.8l-22.4-72.1l106.9,49.7l-52.2-64.7
	l119.4,34.8l-37.3-49.7l87,27.4l-7.5-49.7l72.1,19.9v-27.4l92,19.9l109.4-7.5l124.4,37.3l29.8-29.8l-97-97l-69.6-54.7L923,1171.2
	l32.3-42.3l-99.5,34.8l34.8-34.8l-104.5,32.3l99.5-47.3l-164.1,5l34.8-42.3L642,1111.5l5-22.4l-99.5,24.9l5-39.8l-44.8,32.3
	l9.9-44.8l-89.5,79.6l17.4-27.4l-136.8,47.3l-2.5-34.8L264,1201l7.5-104.5l-67.1,94.5l9.9-94.5l-87,82.1l22.4-114.4l-14.9-44.8
	l-67.2-74.6l136.8,24.9l-84.6-94.5l131.8,54.7l-94.5-92l114.4,59.7l-59.7-104.5l124.4,89.5c0,0-44.8-89.5-64.7-102
	c-19.9-9.9,136.8,72.1,136.8,72.1l-92-106.9l151.7,106.9l-52.2-139.3l159.2,144.2l12.4-134.3l29.8,126.8l67.2-104.5l-14.9,111.9
	c0,0,114.4-87,129.3-104.5c14.9-14.9-99.5,99.5-99.5,99.5l151.7-94.5l-82.1,109.4l82.1-29.8l-9.9,49.7l67.2-19.9l7.5,79.6l64.7,7.5
	l19.9,47.3c0,0,37.3,9.9,64.7,9.9c24.9,0,7.5,44.8,7.5,44.8l59.7,42.3l-2.5,42.3l72.1,37.3l2.5,42.3l87,99.5c0,0,0,0-2.5-94.5
	c-5-97-47.3-99.5-47.3-99.5l-14.9-44.8l-22.4-27.4l5-42.3l-47.3-7.5l-9.9-37.3l-54.7-37.3l9.9-24.9l-42.3-44.8l44.8-7.5L987.7,818
	l29.8-14.9l-146.7-44.8H938L841,716l74.6-7.5c0,0-124.4-9.9-136.8-9.9c-9.9,0,39.8-39.8,39.8-39.8s-129.3,19.9-149.2,19.9
	c-17.4,0,64.7-22.4,64.7-22.4l-59.7-14.9l-57.2,19.9l-14.9,5h-72.1l57.2-72.1l-126.8,47.3l19.9-64.7l-99.5,14.9l-32.3-62.2
	c0,0,94.5-29.8,14.9-37.3s57.2-14.9,57.2-14.9L395.8,440h99.5l-67.2-49.7L545,435c0,0-84.6-99.5-116.9-131.8
	c32.3,24.9,116.9,87,116.9,87L472.9,246l121.9,121.9l-42.3-124.4l94.5,74.6L632,193.8l79.6,121.9l-12.4-121.9l92,121.9l2.5-104.5
	L858.4,338l27.4-121.9l34.8,129.3l42.3-94.5l-17.4,159.2l97-114.4l-49.7,171.6L1122,362.9l-42.3,79.6l89.5-7.5l-32.3,47.3l42.3,9.9
	l-106.9,121.9l139.3-94.5l-49.7,67.2l77.1,7.5l-59.7,54.7l67.2,37.3l-44.8,27.4l57.2,24.9l-54.7,42.3l37.3,22.4l-24.9,34.8
	l32.3,27.4l-7.5,37.3l34.8,14.9l-7.5,42.3l22.4,7.5l-9.9,37.3l17.4,7.5l19.9,134.3l37.3,159.2l42.3-39.8l29.8-109.4l19.9-59.7
	l-34.8-14.9l22.4-34.8L1413,1017l22.4-19.9l-22.4-37.3l29.8-37.3c0,0-37.3-42.3-49.7-42.3c-9.9,0,47.3-34.8,47.3-34.8
	s-27.4,0-39.8,0c-9.9,0,42.3-29.8,42.3-29.8l-32.3-42.3l44.8-22.4l-29.8-29.8l17.4-29.8l-44.8-34.8l74.6-14.9l-47.3-12.4l52.2-57.2
	l-34.8-42.3l57.2,5l-34.8-42.3l57.2-7.5l-37.3-24.9h64.7l-49.7-42.3l92,24.9l-27.4-44.8l77.1,42.3l-57.2-64.7l89.5,42.3l-29.8-54.7
	l37.3,14.9l34.8-17.4l14.9,7.5l22.4,14.9l14.9-42.3l27.4,57.2l52.2-29.8l12.4,67.2v171.6l-22.4,12.4c0,0-5,37.3-7.5,47.3
	c-5,12.4-29.8,32.3-29.8,32.3l-12.4,39.8c0,0-14.9,0-37.3,0c-22.4,0-12.4,47.3-12.4,47.3l-17.4,22.4l-24.9,29.8l-59.7,29.8
	l44.8,12.4l-89.5,37.3l59.7,22.4l-82.1,14.9l44.8,34.8l-49.7,12.4l19.9,9.9l-62.2,34.8l12.4,42.3c0,0-77.1,94.5-129.3,218.9
	c-52.2,124.4,42.3-2.5,102-82.1c62.2-79.6,149.2-179.1,149.2-179.1l37.3-62.2l7.5,19.9l34.8-27.4l5-14.9l12.4-37.3l14.9,29.8
	l27.4-64.7l22.4,12.4l12.4-49.7l42.3,22.4l7.5-64.7l29.8,27.4l22.4-64.7l37.3,44.8l19.9-59.7l37.3,49.7l12.4-57.2l29.8,37.3
	l22.4-49.7l27.4,54.7l39.8-57.2l-2.5,114.4l44.8-54.7L2263.5,778.2z M1233.9,1822.8l-94.5,121.9c-12.4-87-14.9-211.4,7.5-315.9
	C1164.3,1700.9,1196.6,1760.6,1233.9,1822.8z M1321,1962c-42.3,67.2-87,99.5-121.9,99.5l37.3-199c5-5,9.9-9.9,12.4-14.9
	C1273.7,1885,1298.6,1922.3,1321,1962z M428.1,303.2c-12.4-9.9-17.4-14.9-12.4-12.4C418.2,293.2,423.1,298.2,428.1,303.2z
	 M1408,1611.4c-2.5,27.4-7.5,64.7-14.9,114.4c-12.4,102-39.8,179.1-72.1,233.8l-59.7-126.8L1408,1611.4z"/>
</svg>
