<?xml version="1.0" encoding="utf-8"?>
<!-- Generator: Adobe Illustrator 14.0.0, SVG Export Plug-In . SVG Version: 6.00 Build 43363)  -->
<!DOCTYPE svg PUBLIC "-//W3C//DTD SVG 1.1//EN" "http://www.w3.org/Graphics/SVG/1.1/DTD/svg11.dtd">
<svg version="1.1"
	 id="svg8" xmlns:dc="http://purl.org/dc/elements/1.1/" xmlns:cc="http://creativecommons.org/ns#" xmlns:rdf="http://www.w3.org/1999/02/22-rdf-syntax-ns#" xmlns:svg="http://www.w3.org/2000/svg" xmlns:sodipodi="http://sodipodi.sourceforge.net/DTD/sodipodi-0.dtd" xmlns:inkscape="http://www.inkscape.org/namespaces/inkscape" sodipodi:docname="cycadidae.svg" inkscape:version="0.92.4 (5da689c313, 2019-01-14)"
	 xmlns="http://www.w3.org/2000/svg" xmlns:xlink="http://www.w3.org/1999/xlink" x="0px" y="0px" width="1133.859px"
	 height="1133.858px" viewBox="721.217 505.948 1133.859 1133.858" enable-background="new 721.217 505.948 1133.859 1133.858"
	 xml:space="preserve">
<sodipodi:namedview  id="base" showgrid="false" pagecolor="#ffffff" inkscape:cy="714.98108" inkscape:cx="1395.3944" inkscape:zoom="0.1400905" borderopacity="1.0" bordercolor="#666666" inkscape:window-maximized="1" inkscape:window-width="1280" inkscape:window-y="-8" inkscape:window-x="-8" inkscape:pageshadow="2" inkscape:current-layer="layer1" inkscape:pageopacity="0.0" inkscape:document-units="mm" inkscape:window-height="962">
	</sodipodi:namedview>
<g id="layer1" transform="translate(-95.41015,28.517215)" inkscape:groupmode="layer" inkscape:label="Capa 1">
	<path id="path3713" inkscape:connector-curvature="0" fill="none" stroke="#000000" stroke-width="0.25" d="M1571.206,1445.185
		c-6.218-2.262-18.313-19.334-30.562-46.035c12.618-17.656,22.319-35.811,30.754-53.581c4.541,33.191,7.815,66.766,14.503,97.922
		C1580.838,1445.028,1575.389,1445.299,1571.206,1445.185z M1930.834,625.33l-18.233,85.731l5.624,54.986l-15.192,4.61
		l-12.139-30.887l3.885,26.478l-18.312-19.334l3.772,30.66l-23.916-28.694l3.658,34.841l-29.977-21.325l-1.181,28.013
		l-25.907-17.028l2.891,32.309l-21.612-21.097l2.008,33.96l-19.576-18.95l-0.797,29.279l-18.31-19.333l-1.45,22.563l-11.438-10.356
		l1.24,31.428l-17.43-20.984l2.008,33.959l-10.059-14.924l-6.401,19.918c0,0-51.896,61.377-62.479,81.182
		c-10.198,21.071-29.558,71.192-29.558,71.192s-13.91,49.853-18.208,53.92c-5.944,3.188-7.711,6.489-7.711,6.489
		s-20.483,14.511,1.512,36.876c18.695,20.599,22.293-3.999,34.133,53.248l-49.145,129.681l-20.028-202.715
		c7.044,64.231,9.794,132.534,14.692,198.804l-73.13-81.517c-1.126-35.608,4.733-66.424,22.415-85.617
		c8.209-9.405-16.092-39.364-21.725-16.916c-5.746,26.635-30.267,128.102-51.748,148.446c-37.399,36.24-67.621-22.346-60.269-61.911
		c6.087-39.181,23.77-58.372,23.77-58.372l-41.74,26.491l-14.111,26.407l-2.506-31.045l-8.549,21.955l0.313,19.262l1.965,20.145
		l-21.996-22.363l0.13,41.443l-18.966-26.048l14.102,51.03l-31.785-31.837l9.692,59.281l-21.882-26.544l13.761,63.578
		l-22.538-33.262l7.387,51.685l-30.178-44.77l1.483,68.688l-21.856-58.357l8.513,87.296l-27.716-27.543l7.161,60.051l-20.076-16.03
		l7.659,57.134l-35.471-34.868l11.5,69.796l-21.498-25.28l2.165,43.591l-25.183-28.31l10.801,49.266l-22.765-24.895l8.54,55.483
		l-36.666-52.479l5.51,59.17l-24.729-45.041l-4.619,62.242l-23.35-49.607l0.786,48.158l-10.374-34.187l-21.708,28.711l3.554-38.411
		l-30.074,28.483l28.608-51.548l-36.065,17.858l35.366-38.387c0,0-48.996,16.25-56.594,18.556
		c-7.597,2.305,51.669-53.012,51.669-53.012l-51.416,12.835l55.014-37.434l-71.945,13.534l57.092-21.472
		c0,0-12.435-4.523-41.556,4.313c-29.122,8.838,85.512-50.838,85.512-50.838s-72.484,2.636-84.649,3.562
		c-11.779,2.192,67.875-17.829,67.875-17.829l-19.079-21.866l60.164-11.344l-33.321-36.901l93.782-0.804
		c0,0-47.363-28.492-62.827-29.331c-14.582-2.488,60.435-5.894,60.435-5.894l-38.228-25.733l103.301,3.225l-71.236-43.375
		l50.078,5.547l-14.67-30.119l44.132,8.732l-22.538-33.26l62.13,8.803l-36.579-24.852l66.155-0.718l-26.677-19.56l48.542,0.481
		l-11.483-24.171l39.792-1.012l-4.227-13.928l49.922-4.087l54.559-20.703l69.07-0.219l10.584-19.804l-64.366-34.397l-43.904-17.097
		l-74.545,32.299l9.928-26.519l-45.268,33.093l12.347-23.104l-48.183,32.598l43.346-39.426l-82.798,27.89l11.195-26.904
		l-52.865,35.4l-0.924-12.164l-46.805,28.029l-3.616-21.026l-17.796,23.375l-1.851-24.328l-33.288,54.349l4.637-16.618
		l-62.338,45.188l-6.645-17.341l-10,44.515l-12.338-54.33l-19.587,58.487l-9.534-49.649l-31.637,55.229l-6.279-61.702
		l-14.512-20.485l-45.712-27.61l73.481-8.471l-57.65-35.051l75.56,7.493l-62.331-32.249l67.464,12.715l-46.524-43.957l77.139,26.371
		c0,0-36.622-38.665-48.672-41.922c-11.666-1.991,80.781,15.586,80.781,15.586l-63.368-40.229l93.755,31.008l-48.105-62.836
		l103.318,48.849l-14.416-70.294l34.788,59.964l18.05-63.551l9.692,59.281c0,0,44.796-61.989,49.705-73.157
		c5.291-9.903-35.278,66.014-35.278,66.014l62.635-71.549l-24.877,68.389l37.172-27.873l2.62,26.86l31.112-20.503l16.093,39.365
		l34.073-6.191l17.429,20.984c0,0,20.529-0.698,34.458-4.924c12.662-3.842,10.714,21.637,10.714,21.637l36.92,12.304l5.264,21.909
		l42.482,7.851l7.797,21.139l59.685,37.201c0,0,0,0-15.865-47.731c-17.519-48.611-39.427-43.346-39.427-43.346l-14.511-20.485
		l-15.623-10.471l-3.999-22.293l-25.209,3.502l-10.828-17.456l-33.619-10.54l1.222-14.199l-28.44-16.259l21.639-10.715l-67.42,1.102
		l12.888-12.207l-81.619-0.123l34.187-10.374l-55.911-6.542l36.832-15.324c0,0-64.845,14.145-71.176,16.066
		c-5.064,1.537,14.111-26.405,14.111-26.405s-62.767,30.109-72.896,33.182c-8.863,2.689,29.463-21.384,29.463-21.384l-32.693,1.623
		l-26.048,18.965l-6.828,4.837l-36.719,11.142l17.979-45.555l-57.274,43.652l0.14-35.994l-48.341,22.965l-26.065-26.659
		c0,0,43.504-29.794,1.834-21.298c-41.67,8.497,26.816-16.433,26.816-16.433l-18.424-15.15l50.646-15.368l-41.871-14.95
		l66.425,4.734c0,0-58.417-37.584-79.873-49.048c20.302,7.666,72.957,26.257,72.957,26.257l-59.002-62.296l80.867,43.216
		l-40.735-56.777l59.641,23.386l-26.808-61.003l59.343,49.746l-25.156-60.12l65.674,47.826l-14.871-53.563l52.515,54.584
		l-4.898-66.267l37.705,60.46l6.925-54.646l15.726,83.724l31.708-73.227l1.187,95.049l49.704-73.157l-9.23,47.048l44.43-17.63
		l-9.161,29.051l23.061-1.467l-35.619,78.563l56.306-69.63l-14.95,41.872l40.404-8.113l-21.936,37.077l39.95,8.619l-18.565,20.842
		l32.964,3.826l-21.324,29.977l22.451,5.632l-7.283,21.567l20.686,8.935l1.966,20.144l20.03,2.218l2.733,22.678l12.548,0.341
		l0.699,20.529l10.016,1.109l30.875,65.299l43.582,75.272l15.378-26.792l-1.712-60.321l0.909-33.461l-20.031-2.217l6.017-21.185
		l-16.006-11.736l8.321-13.587l-17.158-15.535l9.432-23.602c0,0-25.524-15.762-31.855-13.841
		c-5.065,1.537,18.678-25.026,18.678-25.026s-13.928,4.225-20.258,6.147c-5.065,1.537,16.913-21.725,16.913-21.725l-22.99-16.53
		l19.333-18.311l-19.805-10.584l4.252-17.883l-28.169-10.81l35.68-19.123l-25.979,0.968l17.752-37.19l-24.257-16.146l29.89-6.304
		l-24.257-16.146l27.969-12.635l-22.834-6.899l32.919-9.989l-31.855-13.84l50.691-1.553l-20.844-18.565l45.782,9.615l-39.111-24.084
		l52.114,7.694l-23.648-23.244l21.299,1.834l15.036-14.242l8.75,1.492l13.7,4.14l1.066-23.829l22.764,24.895l21.98-23.263
		l16.703,32.266l26.511,87.365l-9.476,9.789c0,0,3.232,19.76,3.503,25.208c-0.611,7.101-10.198,21.071-10.198,21.071l-0.186,22.18
		c0,0-7.597,2.305-18.992,5.763c-11.394,3.458,0.97,25.978,0.97,25.978l-5.405,14.084l-8.052,19.035l-25.777,24.416l24.712-0.584
		l-39.818,32.823l33.846,2.176l-39.479,20.275l28.17,10.811l-23.401,14.015l11.664,1.991l-26.272,27.331l12.861,19.604
		c0,0-24.651,60.024-32.031,131.401c-7.379,71.375,21.142-7.798,39.234-57.536c19.359-50.123,48.307-114.216,48.307-114.216
		l9.388-37.418l6.872,8.978l13.5-19.308l0.226-8.365l0.568-20.914l12.207,12.889l3.938-37.147l13.318,2.874l-1.354-27.245
		l24.982,4.864l-6.192-34.072l19.421,9.317l1.406-36.377l25.908,17.028l0.907-33.461l26.678,19.56l-2.505-31.042l20.955,14.382
		l3.712-28.782l22.38,23.63l11.422-35.27l16.407,58.627l14.34-34.771L1930.834,625.33z M1568.011,1316.178l-29.286,76.642
		c-19.779-42.395-40.255-105.319-44.998-161.955C1513.733,1264.892,1539.412,1290.286,1568.011,1316.178z M1633.841,1373.635
		c-11.148,40.718-28.947,64.094-46.673,69.473l-11.744-107.057c1.766-3.299,3.527-6.601,4.026-9.517
		C1597.875,1341.683,1616.299,1356.834,1633.841,1373.635z M923.026,667.037c-7.868-3.145-11.168-4.908-8.251-4.411
		C916.425,663.509,919.725,665.273,923.026,667.037z M1623.984,1181.658c2.961,14.313,6.192,34.074,10.078,60.551
		c9.422,53.833,7.402,97.31-0.604,130.16l-49.982-55.354L1623.984,1181.658z"/>
</g>
</svg>
