<?xml version="1.0" encoding="utf-8"?>
<!-- Generator: Adobe Illustrator 18.0.0, SVG Export Plug-In . SVG Version: 6.00 Build 0)  -->
<!DOCTYPE svg PUBLIC "-//W3C//DTD SVG 1.1//EN" "http://www.w3.org/Graphics/SVG/1.1/DTD/svg11.dtd">
<svg version="1.1"
	 id="svg8" xmlns:dc="http://purl.org/dc/elements/1.1/" xmlns:cc="http://creativecommons.org/ns#" xmlns:rdf="http://www.w3.org/1999/02/22-rdf-syntax-ns#" xmlns:svg="http://www.w3.org/2000/svg" xmlns:sodipodi="http://sodipodi.sourceforge.net/DTD/sodipodi-0.dtd" xmlns:inkscape="http://www.inkscape.org/namespaces/inkscape" sodipodi:docname="datos-ecologicos.svg" inkscape:version="0.92.4 (5da689c313, 2019-01-14)"
	 xmlns="http://www.w3.org/2000/svg" xmlns:xlink="http://www.w3.org/1999/xlink" x="0px" y="0px" viewBox="0 0 2267.7 2267.7"
	 enable-background="new 0 0 2267.7 2267.7" xml:space="preserve">
<path id="path3713" inkscape:connector-curvature="0" fill="none" stroke="#000000" stroke-width="0.25" d="M50,955.6
	c0-92.6,76.4-169,171.3-169c32.4,0,62.5,9.3,88,25.5l266.2-212.9c-9.3-20.8-13.9-44-13.9-69.4c0-92.6,76.4-169,169-169
	c92.6,0,169,76.4,169,169c0,2.3,0,2.3,0,4.6l208.3,60.2c30.1-39.3,78.7-64.8,131.9-64.8c32.4,0,60.2,9.3,85.6,25.5l277.8-277.8
	c-16.2-25.5-25.5-53.2-25.5-85.6c0-92.6,78.7-169,171.3-169c92.6,0,166.7,76.4,166.7,169c0,92.6-74.1,169-169,169
	c-30.1,0-60.2-9.3-85.6-23.1l-277.8,275.4c16.2,25.5,25.5,55.5,25.5,88c0,92.6-74.1,169-169,169c-94.9,0-171.3-76.4-171.3-169
	c0-9.3,2.3-18.5,4.6-27.8l-196.7-55.6C846.3,668.6,793,701,730.5,701c-37,0-74.1-13.9-101.8-34.7l-259.2,206
	c13.9,25.5,20.8,53.2,20.8,83.3c0,92.6-76.4,169-169,169S50,1048.2,50,955.6z M1663.3,194.1c0,23.1,9.3,44,25.5,57.9l0,0
	c0,2.3,0,2.3,0,2.3c13.9,13.9,37,23.1,60.2,23.1c46.3,0,83.3-39.3,83.3-85.6s-37-83.3-83.3-83.3
	C1702.7,108.5,1663.3,145.5,1663.3,194.1z M1154.1,701c0,46.3,37,85.6,85.6,85.6c46.3,0,83.3-39.3,83.3-85.6
	c0-46.3-37-85.6-83.3-85.6C1193.5,615.4,1154.1,654.7,1154.1,701z M644.9,532c0,20.8,6.9,37,18.5,53.2l0,0l0,0
	c16.2,18.5,39.3,32.4,67.1,32.4c46.3,0,83.3-37,83.3-85.6c0-48.6-37-85.6-83.3-85.6C684.2,446.4,644.9,483.4,644.9,532z
	 M135.7,955.6c0,46.3,39.4,85.6,85.6,85.6s85.6-39.3,85.6-85.6c0-46.3-39.3-85.6-85.6-85.6C175,870,135.7,909.3,135.7,955.6z
	 M1832.3,1407V786.7h-169V1370c-30.1-2.3-57.9-4.6-85.6-4.6V742.7c0-23.1,18.5-41.7,41.7-41.7H1874c23.1,0,44,18.5,44,41.7v696.7
	C1890.2,1427.8,1862.4,1416.2,1832.3,1407z M1323.1,1404.7v-111.1h-169v187.5c-30.1,16.2-57.9,34.7-85.6,53.2v-282.4
	c0-23.1,20.8-41.7,44-41.7h254.6c23.1,0,41.7,18.5,41.7,41.7v131.9C1380.9,1390.8,1350.9,1397.7,1323.1,1404.7z M975.9,2059.7h-118
	H603.2H348.6H94H45.4c-23.1,0-41.7-20.8-41.7-44c0-23.1,18.5-41.7,41.7-41.7H50v-467.6c0-23.1,20.8-41.7,44-41.7h254.6
	c23.1,0,41.7,18.5,41.7,41.7v467.6h169v-888.8c0-23.1,20.8-44,44-44h254.6c23.1,0,41.7,20.8,41.7,44v599.5
	c-30.1,30.1-57.9,64.8-85.6,99.5v-657.4h-169v847.2h169v-88C864.8,1950.9,918,2008.8,975.9,2059.7z M304.6,1550.5h-169v423.6h169
	V1550.5z M2253.6,1867.6c-175.9,233.8-412,377.3-675.9,377.3c-261.6,0-500-143.5-675.9-377.3c-13.9-18.5-13.9-46.3,0-64.8
	c175.9-233.8,414.3-377.3,675.9-377.3c263.9,0,500,143.5,675.9,377.3C2267.5,1821.3,2267.5,1849.1,2253.6,1867.6z M1559.2,1545.9
	c-143.5,9.3-259.2,127.3-268.5,270.8c-11.6,173.6,131.9,317.1,305.5,305.5c143.5-9.3,261.6-125,270.8-268.5
	C1878.6,1680.1,1735.1,1536.6,1559.2,1545.9z M1728.1,1795.8c4.6,16.2,6.9,32.4,4.6,48.6c-4.6,78.7-67.1,141.2-145.8,145.8
	c-92.6,6.9-171.3-71.8-164.3-164.3c4.6-78.7,67.1-141.2,145.8-145.8c18.5-2.3,34.7,0,50.9,4.6l-41.7,150.4L1728.1,1795.8z"/>
</svg>
