<?xml version="1.0" encoding="utf-8"?>
<!-- Generator: Adobe Illustrator 14.0.0, SVG Export Plug-In . SVG Version: 6.00 Build 43363)  -->
<!DOCTYPE svg PUBLIC "-//W3C//DTD SVG 1.1//EN" "http://www.w3.org/Graphics/SVG/1.1/DTD/svg11.dtd">
<svg version="1.1"
	 id="svg8" xmlns:dc="http://purl.org/dc/elements/1.1/" xmlns:cc="http://creativecommons.org/ns#" xmlns:rdf="http://www.w3.org/1999/02/22-rdf-syntax-ns#" xmlns:svg="http://www.w3.org/2000/svg" xmlns:sodipodi="http://sodipodi.sourceforge.net/DTD/sodipodi-0.dtd" xmlns:inkscape="http://www.inkscape.org/namespaces/inkscape" sodipodi:docname="datos-insuficientes-dd-evaluacion-conabio.svg" inkscape:version="0.92.4 (5da689c313, 2019-01-14)"
	 xmlns="http://www.w3.org/2000/svg" xmlns:xlink="http://www.w3.org/1999/xlink" x="0px" y="0px" width="1133.859px"
	 height="1133.859px" viewBox="0 0 1133.859 1133.859" enable-background="new 0 0 1133.859 1133.859" xml:space="preserve">
<sodipodi:namedview  id="base" showgrid="false" pagecolor="#ffffff" inkscape:cy="1999.294" inkscape:cx="1996.5347" inkscape:zoom="0.14369886" borderopacity="1.0" bordercolor="#666666" inkscape:window-maximized="1" inkscape:window-width="1280" inkscape:window-y="-8" inkscape:window-x="-8" inkscape:pageshadow="2" inkscape:current-layer="layer1" inkscape:pageopacity="0.0" inkscape:document-units="mm" inkscape:window-height="962">
	</sodipodi:namedview>
<path fill="none" stroke="#000000" stroke-width="0.25" d="M459.652,565.542c0,74.549-34.711,111.819-104.122,111.819h-30.921
	V456.055h38.349C427.424,456.055,459.652,492.547,459.652,565.542z M715.366,456.055h-38.36v221.307h30.921
	c69.422,0,104.133-37.271,104.133-111.819C812.06,492.547,779.832,456.055,715.366,456.055z M956.635,834.126h0.994
	c-149.855,177.592-390.628,298.22-390.628,298.22s-240.729-120.628-390.584-298.22h0.777
	C103.67,746.082,59.393,632.761,59.393,509.022c0-280.255,227.212-507.51,507.5-507.51c280.331,0,507.575,227.255,507.575,507.51
	C1074.468,632.761,1030.106,746.082,956.635,834.126z M534.525,563.674c0-52.524-15.342-93.433-46.025-122.745
	c-30.684-29.28-73.783-43.931-129.266-43.931H252.553v339.874h96.219c60.136,0,106.129-14.889,137.979-44.622
	C518.6,662.473,534.525,619.633,534.525,563.674z M886.933,563.674c0-52.524-15.353-93.433-46.036-122.745
	c-30.684-29.28-73.782-43.931-129.256-43.931H604.95v339.874h96.229c60.125,0,106.118-14.889,137.979-44.622
	C870.997,662.473,886.933,619.633,886.933,563.674z"/>
</svg>
