<?xml version="1.0" encoding="utf-8"?>
<!-- Generator: Adobe Illustrator 14.0.0, SVG Export Plug-In . SVG Version: 6.00 Build 43363)  -->
<!DOCTYPE svg PUBLIC "-//W3C//DTD SVG 1.1//EN" "http://www.w3.org/Graphics/SVG/1.1/DTD/svg11.dtd">
<svg version="1.1"
	 id="svg8" xmlns:dc="http://purl.org/dc/elements/1.1/" xmlns:cc="http://creativecommons.org/ns#" xmlns:rdf="http://www.w3.org/1999/02/22-rdf-syntax-ns#" xmlns:svg="http://www.w3.org/2000/svg" xmlns:sodipodi="http://sodipodi.sourceforge.net/DTD/sodipodi-0.dtd" xmlns:inkscape="http://www.inkscape.org/namespaces/inkscape" sodipodi:docname="datos-ecologicos.svg" inkscape:version="0.92.4 (5da689c313, 2019-01-14)"
	 xmlns="http://www.w3.org/2000/svg" xmlns:xlink="http://www.w3.org/1999/xlink" x="0px" y="0px" width="1133.859px"
	 height="1133.858px" viewBox="817.465 794.076 1133.859 1133.858" enable-background="new 817.465 794.076 1133.859 1133.858"
	 xml:space="preserve">
<sodipodi:namedview  id="base" showgrid="false" pagecolor="#ffffff" inkscape:cy="1110.6021" inkscape:cx="1372.4996" inkscape:zoom="0.1400905" borderopacity="1.0" bordercolor="#666666" inkscape:window-maximized="1" inkscape:window-width="1280" inkscape:window-y="-8" inkscape:window-x="-8" inkscape:pageshadow="2" inkscape:current-layer="layer1" inkscape:pageopacity="0.0" inkscape:document-units="mm" inkscape:window-height="962">
	</sodipodi:namedview>
<g id="layer1" transform="translate(-9.8677083,127.13229)" inkscape:groupmode="layer" inkscape:label="Capa 1">
	<path id="path3713" inkscape:connector-curvature="0" fill="none" stroke="#000000" d="M939.827,1239.494
		c46.208,0,84.328,38.121,84.328,84.328c0,15.018-3.465,28.879-10.396,41.587l129.381,102.811
		c13.862-10.396,32.345-17.327,50.828-17.327c31.19,0,57.759,16.173,72.776,41.587l98.191-27.725
		c-1.155-4.621-2.31-9.241-2.31-13.862c0-46.207,38.121-84.328,85.483-84.328s84.328,38.121,84.328,84.328
		c0,16.173-4.621,31.19-12.706,43.897l138.621,137.467c12.708-6.932,27.726-11.553,42.743-11.553
		c47.362,0,84.327,38.122,84.327,84.33c0,46.206-36.965,84.327-83.174,84.327c-46.206,0-85.482-38.121-85.482-84.327
		c0-16.174,4.62-30.035,12.707-42.742l-138.622-138.623c-12.707,8.086-26.569,12.707-42.742,12.707
		c-26.569,0-50.827-12.707-65.845-32.345l-103.967,30.035c0,1.154,0,1.154,0,2.31c0,46.208-38.121,84.328-84.329,84.328
		c-46.207,0-84.328-38.12-84.328-84.328c0-12.707,2.31-24.259,6.931-34.655l-132.846-106.276
		c-12.707,8.086-27.725,12.706-43.897,12.706c-47.363,0-85.484-38.12-85.484-84.328
		C854.343,1277.615,893.619,1239.494,939.827,1239.494z M1702.248,1746.619c23.104,0,41.588-18.482,41.588-41.585
		c0-23.104-18.483-42.742-41.588-42.742c-11.55,0-23.103,4.62-30.033,11.551c0,0,0,0,0,1.156l0,0
		c-8.087,6.931-12.707,17.327-12.707,28.879C1659.508,1728.136,1679.145,1746.619,1702.248,1746.619z M1448.108,1493.633
		c23.104,0,41.587-19.638,41.587-42.741s-18.482-42.742-41.587-42.742c-24.259,0-42.742,19.639-42.742,42.742
		S1425.005,1493.633,1448.108,1493.633z M1193.968,1577.962c23.104,0,41.587-18.482,41.587-42.742
		c0-24.258-18.483-42.741-41.587-42.741c-13.862,0-25.414,6.931-33.5,16.172l0,0l0,0c-5.776,8.087-9.241,16.173-9.241,26.569
		C1151.226,1559.48,1170.864,1577.962,1193.968,1577.962z M939.827,1366.564c23.104,0,42.742-19.639,42.742-42.742
		s-19.639-42.741-42.742-42.741c-23.104,0-42.742,19.638-42.742,42.741S916.723,1366.564,939.827,1366.564z M1786.578,1082.388
		v347.711c0,11.551-10.396,20.793-21.949,20.793h-127.07c-11.552,0-20.793-9.242-20.793-20.793v-310.745
		c13.862,0,27.724-1.155,42.742-2.311v291.106h84.328v-309.589C1758.853,1093.94,1772.716,1088.164,1786.578,1082.388z
		 M1532.436,1110.113v65.846c0,11.552-9.24,20.793-20.792,20.793h-127.071c-11.552,0-21.948-9.241-21.948-20.793v-140.933
		c13.862,9.241,27.725,18.482,42.741,26.569v93.57h84.329v-55.449C1503.557,1103.182,1518.575,1106.647,1532.436,1110.113z
		 M1235.554,859.438v-43.897h-84.329v422.798h84.329V910.266c13.862,17.327,27.724,34.655,42.742,49.673v299.193
		c0,11.551-9.241,21.948-20.793,21.948h-127.07c-11.551,0-21.949-10.397-21.949-21.948V815.541h-84.329v233.347
		c0,11.552-9.241,20.793-20.792,20.793H876.292c-11.552,0-21.949-9.241-21.949-20.793V815.541h-2.31
		c-11.552,0-20.793-9.242-20.793-20.793c0-11.552,9.241-21.949,20.793-21.949h24.259h127.071h127.07h127.07h58.914
		C1287.537,798.213,1260.969,827.092,1235.554,859.438z M981.413,815.541h-84.328v211.399h84.328V815.541z M1954.079,901.025
		c-87.794,116.673-205.622,188.294-337.313,188.294c-130.535,0-249.52-71.621-337.314-188.294c-6.931-9.242-6.931-23.104,0-32.346
		c87.794-116.674,206.779-188.295,337.314-188.295c131.691,0,249.52,71.622,337.313,188.295
		C1961.01,877.92,1961.01,891.783,1954.079,901.025z M1761.164,875.61c-4.621-71.622-63.535-129.381-135.157-134.002
		c-86.639-5.776-158.26,65.846-152.484,152.485c4.621,71.622,62.38,130.536,134.002,135.156
		C1695.317,1033.87,1766.939,962.249,1761.164,875.61z M1616.765,884.852l20.793,75.087c-8.086,2.31-16.173,3.465-25.413,2.31
		c-39.277-2.31-70.467-33.5-72.777-72.776c-3.466-46.208,35.811-85.484,82.018-82.018c39.277,2.31,70.467,33.5,72.777,72.776
		c1.154,8.086,0,16.173-2.311,24.259L1616.765,884.852z"/>
</g>
</svg>
