<?xml version="1.0" encoding="utf-8"?>
<!-- Generator: Adobe Illustrator 14.0.0, SVG Export Plug-In . SVG Version: 6.00 Build 43363)  -->
<!DOCTYPE svg PUBLIC "-//W3C//DTD SVG 1.1//EN" "http://www.w3.org/Graphics/SVG/1.1/DTD/svg11.dtd">
<svg version="1.1"
	 id="svg8" xmlns:dc="http://purl.org/dc/elements/1.1/" xmlns:cc="http://creativecommons.org/ns#" xmlns:rdf="http://www.w3.org/1999/02/22-rdf-syntax-ns#" xmlns:svg="http://www.w3.org/2000/svg" xmlns:sodipodi="http://sodipodi.sourceforge.net/DTD/sodipodi-0.dtd" xmlns:inkscape="http://www.inkscape.org/namespaces/inkscape" sodipodi:docname="datos-insuficientes-dd.svg" inkscape:version="0.92.4 (5da689c313, 2019-01-14)"
	 xmlns="http://www.w3.org/2000/svg" xmlns:xlink="http://www.w3.org/1999/xlink" x="0px" y="0px" width="1133.858px"
	 height="1133.859px" viewBox="0 0 1133.858 1133.859" enable-background="new 0 0 1133.858 1133.859" xml:space="preserve">
<sodipodi:namedview  id="base" showgrid="false" pagecolor="#ffffff" inkscape:cy="1167.2953" inkscape:cx="1398.7589" inkscape:zoom="0.1400905" borderopacity="1.0" bordercolor="#666666" inkscape:window-maximized="1" inkscape:window-width="1280" inkscape:window-y="-8" inkscape:window-x="-8" inkscape:pageshadow="2" inkscape:current-layer="layer1" inkscape:pageopacity="0.0" inkscape:document-units="mm" inkscape:window-height="962">
	</sodipodi:namedview>
<path fill="none" stroke="#000000" stroke-width="0.2646" d="M835.977,566.253c0,82.773-38.552,124.172-115.621,124.172H686.01
	V444.667h42.588C800.17,444.667,835.977,485.203,835.977,566.253z M1131.446,13.506v554.288
	c0,311.785-252.743,564.528-564.551,564.528c-311.784,0-564.482-252.743-564.482-564.528c0-300.297,234.442-545.716,530.342-563.393
	V3.279h588.43C1126.82,3.279,1131.446,7.871,1131.446,13.506z M527.788,564.201c0-58.338-17.02-103.773-51.093-136.282
	c-34.084-32.554-81.935-48.791-143.539-48.791H214.688v377.369h106.869c66.764,0,117.822-16.532,153.2-49.585
	C510.099,673.893,527.788,626.315,527.788,564.201z M919.114,564.201c0-58.338-17.03-103.773-51.115-136.282
	c-34.062-32.554-81.945-48.791-143.55-48.791H605.992v377.369h106.869c66.763,0,117.833-16.532,153.21-49.585
	C901.403,673.893,919.114,626.315,919.114,564.201z M337.295,444.667h-42.589v245.759h34.334
	c77.082,0,115.634-41.398,115.634-124.172C444.674,485.203,408.866,444.667,337.295,444.667z"/>
</svg>
