<?xml version="1.0" encoding="utf-8"?>
<!-- Generator: Adobe Illustrator 22.1.0, SVG Export Plug-In . SVG Version: 6.00 Build 0)  -->
<svg version="1.1"
	 id="svg8" inkscape:version="0.92.4 (5da689c313, 2019-01-14)" sodipodi:docname="doc-text.svg" xmlns:cc="http://creativecommons.org/ns#" xmlns:dc="http://purl.org/dc/elements/1.1/" xmlns:inkscape="http://www.inkscape.org/namespaces/inkscape" xmlns:rdf="http://www.w3.org/1999/02/22-rdf-syntax-ns#" xmlns:sodipodi="http://sodipodi.sourceforge.net/DTD/sodipodi-0.dtd" xmlns:svg="http://www.w3.org/2000/svg"
	 xmlns="http://www.w3.org/2000/svg" xmlns:xlink="http://www.w3.org/1999/xlink" x="0px" y="0px" viewBox="0 0 2267.7 2267.7"
	 style="enable-background:new 0 0 2267.7 2267.7;" xml:space="preserve">
<style type="text/css">
	.st0{fill:none;stroke:#000000;stroke-width:0.2646;}
</style>
<sodipodi:namedview  bordercolor="#666666" borderopacity="1.0" id="base" inkscape:current-layer="layer1" inkscape:cx="1410.2949" inkscape:cy="1174.8543" inkscape:document-units="mm" inkscape:pageopacity="0.0" inkscape:pageshadow="2" inkscape:window-height="962" inkscape:window-maximized="1" inkscape:window-width="1280" inkscape:window-x="-8" inkscape:window-y="-8" inkscape:zoom="0.1400905" pagecolor="#ffffff" showgrid="false">
	</sodipodi:namedview>
<g id="layer1" transform="translate(0.13229166,150.13229)" inkscape:groupmode="layer" inkscape:label="Capa 1">
	<path id="path3713" inkscape:connector-curvature="0" class="st0" d="M1629.2-54.2c-22.5-24-54-44.3-94.5-60.8
		c-40.5-16.5-77.3-24.8-110.3-24.8H299c-33,1.5-61.5,13.5-85.5,36s-36,51-36,85.5v2007.6c1.5,33,13.5,61.5,36,85.5s51,36,85.5,36
		h1688c34.5-1.5,63-13.5,85.5-36s33.8-51,33.8-85.5v-1445c0-36-8.3-73.5-24.8-112.5c-16.5-39-36.8-70.5-60.8-94.5L1629.2-54.2z
		 M1514.4,58.4l393.9,393.9c10.5,9,19.5,26.3,27,51.8h-472.7V31.4C1488.1,38.9,1505.4,47.9,1514.4,58.4z M337.3,1951.2V20.1h965.6
		v524.4c1.5,31.5,13.5,59.3,36,83.3c22.5,24,51,36,85.5,36h522.2v1287.4H337.3z M659.1,945.1c0,12,3.8,21.8,11.3,29.3
		c7.5,7.5,17.3,11.3,29.3,11.3h884.5c12,0,21.8-3.8,29.3-11.3c7.5-7.5,11.3-17.3,11.3-29.3v-81c0-10.5-3.8-19.5-11.3-27
		c-7.5-7.5-17.3-11.3-29.3-11.3H699.6c-12,0-21.8,3.8-29.3,11.3c-7.5,7.5-11.3,16.5-11.3,27V945.1z M699.6,1145.5
		c-12,0-21.8,3.8-29.3,11.3s-11.3,17.3-11.3,29.3v81c0,12,3.8,21.8,11.3,29.3s17.3,11.3,29.3,11.3h884.5c12,0,21.8-3.8,29.3-11.3
		s11.3-17.3,11.3-29.3v-81c0-12-3.8-21.8-11.3-29.3s-17.3-11.3-29.3-11.3H699.6z M699.6,1467.3c-12,0-21.8,3.8-29.3,11.3
		c-7.5,7.5-11.3,17.3-11.3,29.3v81c0,12,3.8,21.8,11.3,29.3c7.5,7.5,17.3,11.3,29.3,11.3h884.5c12,0,21.8-3.8,29.3-11.3
		c7.5-7.5,11.3-17.3,11.3-29.3v-81c0-12-3.8-21.8-11.3-29.3c-7.5-7.5-17.3-11.3-29.3-11.3H699.6z"/>
</g>
</svg>
