<?xml version="1.0" encoding="utf-8"?>
<!-- Generator: Adobe Illustrator 14.0.0, SVG Export Plug-In . SVG Version: 6.00 Build 43363)  -->
<!DOCTYPE svg PUBLIC "-//W3C//DTD SVG 1.1//EN" "http://www.w3.org/Graphics/SVG/1.1/DTD/svg11.dtd">
<svg version="1.1"
	 id="svg8" xmlns:dc="http://purl.org/dc/elements/1.1/" xmlns:cc="http://creativecommons.org/ns#" xmlns:rdf="http://www.w3.org/1999/02/22-rdf-syntax-ns#" xmlns:svg="http://www.w3.org/2000/svg" xmlns:sodipodi="http://sodipodi.sourceforge.net/DTD/sodipodi-0.dtd" xmlns:inkscape="http://www.inkscape.org/namespaces/inkscape" sodipodi:docname="doc-text.svg" inkscape:version="0.92.4 (5da689c313, 2019-01-14)"
	 xmlns="http://www.w3.org/2000/svg" xmlns:xlink="http://www.w3.org/1999/xlink" x="0px" y="0px" width="1133.859px"
	 height="1133.858px" viewBox="648.092 850.768 1133.859 1133.858" enable-background="new 648.092 850.768 1133.859 1133.858"
	 xml:space="preserve">
<sodipodi:namedview  id="base" showgrid="false" pagecolor="#ffffff" inkscape:cy="1174.8543" inkscape:cx="1410.2949" inkscape:zoom="0.1400905" borderopacity="1.0" bordercolor="#666666" inkscape:window-maximized="1" inkscape:window-width="1280" inkscape:window-y="-8" inkscape:window-x="-8" inkscape:pageshadow="2" inkscape:current-layer="layer1" inkscape:pageopacity="0.0" inkscape:document-units="mm" inkscape:window-height="962">
	</sodipodi:namedview>
<g id="layer1" transform="translate(0.13229166,150.13229)" inkscape:groupmode="layer" inkscape:label="Capa 1">
	<path id="path3713" inkscape:connector-curvature="0" fill="none" stroke="#000000" d="M1653.936,1591.37
		c11.993-11.992,22.111-27.733,30.356-47.222c8.246-19.487,12.368-38.227,12.368-56.216V766.117c0-17.24-5.622-31.481-16.865-42.724
		c-11.243-11.243-25.484-17.24-42.723-17.989H793.829c-17.239,0-31.481,5.997-42.724,17.989
		c-11.243,11.993-17.24,26.234-17.989,42.724v1002.896c0,17.24,5.997,31.48,17.989,42.725
		c11.992,11.242,26.234,17.239,42.724,17.988h562.162c16.491,0,34.854-4.122,55.091-12.367c20.239-8.245,35.98-18.364,47.223-30.357
		L1653.936,1591.37z M1375.104,1744.279v-236.108h236.107c-3.747,12.741-8.244,21.361-13.491,25.858l-196.756,196.757
		C1396.467,1736.033,1387.846,1740.531,1375.104,1744.279z M1616.834,785.231v643.114h-260.843c-17.24,0-31.48,5.995-42.724,17.988
		s-17.24,25.858-17.99,41.6V1749.9H812.943V785.231H1616.834z M973.721,1328.278c0,5.247,1.874,9.745,5.621,13.492
		c3.749,3.748,8.62,5.622,14.617,5.622h441.859c5.996,0,10.869-1.874,14.616-5.622c3.747-3.747,5.621-8.245,5.621-13.492v-40.476
		c0-5.997-1.874-10.866-5.621-14.615c-3.747-3.748-8.62-5.622-14.616-5.622H993.959c-5.997,0-10.868,1.874-14.617,5.622
		c-3.747,3.749-5.621,8.618-5.621,14.615V1328.278z M1435.818,1187.738c5.996,0,10.869-1.874,14.616-5.622
		c3.747-3.747,5.621-8.62,5.621-14.616v-40.476c0-5.996-1.874-10.868-5.621-14.616c-3.747-3.748-8.62-5.621-14.616-5.621H993.959
		c-5.997,0-10.868,1.874-14.617,5.621c-3.747,3.749-5.621,8.62-5.621,14.616v40.476c0,5.996,1.874,10.869,5.621,14.616
		c3.749,3.748,8.62,5.622,14.617,5.622H1435.818z M1435.818,1026.96c5.996,0,10.869-1.874,14.616-5.621
		c3.747-3.749,5.621-8.62,5.621-14.617v-40.476c0-5.997-1.874-10.868-5.621-14.616c-3.747-3.748-8.62-5.622-14.616-5.622H993.959
		c-5.997,0-10.868,1.874-14.617,5.622c-3.747,3.748-5.621,8.619-5.621,14.616v40.476c0,5.997,1.874,10.868,5.621,14.617
		c3.749,3.747,8.62,5.621,14.617,5.621H1435.818z"/>
</g>
</svg>
