<?xml version="1.0" encoding="utf-8"?>
<!-- Generator: Adobe Illustrator 14.0.0, SVG Export Plug-In . SVG Version: 6.00 Build 43363)  -->
<!DOCTYPE svg PUBLIC "-//W3C//DTD SVG 1.1//EN" "http://www.w3.org/Graphics/SVG/1.1/DTD/svg11.dtd">
<svg version="1.1"
	 id="svg8" xmlns:dc="http://purl.org/dc/elements/1.1/" xmlns:cc="http://creativecommons.org/ns#" xmlns:rdf="http://www.w3.org/1999/02/22-rdf-syntax-ns#" xmlns:svg="http://www.w3.org/2000/svg" xmlns:sodipodi="http://sodipodi.sourceforge.net/DTD/sodipodi-0.dtd" xmlns:inkscape="http://www.inkscape.org/namespaces/inkscape" sodipodi:docname="dulceacuicola.svg" inkscape:version="0.92.4 (5da689c313, 2019-01-14)"
	 xmlns="http://www.w3.org/2000/svg" xmlns:xlink="http://www.w3.org/1999/xlink" x="0px" y="0px" width="1133.859px"
	 height="1133.858px" viewBox="673.603 675.02 1133.859 1133.858" enable-background="new 673.603 675.02 1133.859 1133.858"
	 xml:space="preserve">
<sodipodi:namedview  id="base" showgrid="false" pagecolor="#ffffff" inkscape:cy="940.52366" inkscape:cx="1172.1847" inkscape:zoom="0.1400905" borderopacity="1.0" bordercolor="#666666" inkscape:window-maximized="1" inkscape:window-width="1280" inkscape:window-y="-8" inkscape:window-x="-8" inkscape:pageshadow="2" inkscape:current-layer="layer1" inkscape:pageopacity="0.0" inkscape:document-units="mm" inkscape:window-height="962">
	</sodipodi:namedview>
<g id="layer1" transform="translate(-62.867708,88.132292)" inkscape:groupmode="layer" inkscape:label="Capa 1">
	<path id="path3713" inkscape:connector-curvature="0" fill="none" stroke="#000000" stroke-width="0.25" d="M1868.709,588.863
		v565.954c0,312.697-253.257,565.954-565.954,565.954c-312.696,0-564.663-251.966-564.663-565.954s251.967-565.954,564.663-565.954
		H1868.709z M1780.844,1335.716c6.461-10.337,10.337-23.258,12.921-36.18c-47.808,3.877-96.909,19.383-135.673,49.101
		c-41.349,32.304-93.033,45.226-144.719,45.226c-51.687,0-103.372-16.797-146.012-45.226
		c-47.809-32.303-103.371-49.101-161.516-49.101c-58.147,0-112.416,16.798-161.518,49.101
		c-41.348,28.429-90.449,41.349-142.135,41.349c-19.381,0-41.348-2.584-60.73-6.459c6.46,12.921,15.506,25.841,21.966,38.763
		c12.92,3.876,25.843,3.876,38.764,3.876c58.146,0,113.708-16.798,161.517-49.1c42.64-32.305,94.326-45.226,146.011-45.226
		c51.686,0,103.371,16.797,144.72,45.226c49.101,32.302,103.37,49.1,161.517,49.1c58.146,0,113.706-16.798,161.517-49.1
		C1709.776,1355.098,1748.541,1342.177,1780.844,1335.716z M1817.023,1189.706c0-12.922,0-21.968,0-34.889v-3.876
		c-45.225-28.427-100.785-45.225-155.056-41.348c-58.146,0-113.709,15.505-161.517,47.809
		c-42.641,32.305-94.326,45.225-146.011,45.225c-51.686,0-103.372-15.505-144.72-45.225
		c-49.101-32.304-103.371-47.809-161.517-47.809c-58.145,0-113.708,15.505-161.516,47.809
		c-29.719,19.383-64.606,32.305-100.786,38.765c0,12.921,0,23.258,3.876,36.179c41.348-6.461,80.111-23.258,116.291-45.224
		c41.349-32.304,93.034-45.226,144.719-45.226c51.686,0,103.371,15.506,146.012,45.226c47.809,32.303,103.371,47.809,161.517,47.809
		c58.146,0,112.416-15.506,161.518-47.809c41.348-32.304,93.033-45.226,144.719-45.226s103.37,15.506,146.01,45.226
		L1817.023,1189.706z M822.081,960.997c25.842-6.461,47.808-10.337,73.651-10.337c51.686,0,103.371,16.798,146.011,45.226
		c47.809,32.304,103.371,49.101,161.517,49.101s112.416-16.796,161.517-49.101c41.348-32.304,93.033-45.226,144.718-45.226
		c51.687,0,103.372,16.798,146.012,45.226c47.81,32.304,103.371,49.101,161.517,49.101h2.584V637.963h-516.853
		C1302.755,637.963,945.883,650.711,822.081,960.997z"/>
</g>
</svg>
