<?xml version="1.0" encoding="utf-8"?>
<!-- Generator: Adobe Illustrator 18.0.0, SVG Export Plug-In . SVG Version: 6.00 Build 0)  -->
<!DOCTYPE svg PUBLIC "-//W3C//DTD SVG 1.1//EN" "http://www.w3.org/Graphics/SVG/1.1/DTD/svg11.dtd">
<svg version="1.1"
	 id="svg8" xmlns:dc="http://purl.org/dc/elements/1.1/" xmlns:cc="http://creativecommons.org/ns#" xmlns:rdf="http://www.w3.org/1999/02/22-rdf-syntax-ns#" xmlns:svg="http://www.w3.org/2000/svg" xmlns:sodipodi="http://sodipodi.sourceforge.net/DTD/sodipodi-0.dtd" xmlns:inkscape="http://www.inkscape.org/namespaces/inkscape" sodipodi:docname="dulceacuicola.svg" inkscape:version="0.92.4 (5da689c313, 2019-01-14)"
	 xmlns="http://www.w3.org/2000/svg" xmlns:xlink="http://www.w3.org/1999/xlink" x="0px" y="0px" viewBox="0 0 2267.7 2267.7"
	 enable-background="new 0 0 2267.7 2267.7" xml:space="preserve">
<sodipodi:namedview  borderopacity="1.0" bordercolor="#666666" showgrid="false" pagecolor="#ffffff" inkscape:cy="940.52366" inkscape:cx="1172.1847" inkscape:zoom="0.1400905" id="base" inkscape:document-units="mm" inkscape:pageshadow="2" inkscape:window-x="-8" inkscape:current-layer="layer1" inkscape:window-height="962" inkscape:window-y="-8" inkscape:pageopacity="0.0" inkscape:window-width="1280" inkscape:window-maximized="1">
	</sodipodi:namedview>
<path id="path3713" inkscape:connector-curvature="0" fill="none" stroke="#000000" stroke-width="0.2646" d="M2258.4,7.8v1125.8
	c0,622-503.8,1125.8-1125.8,1125.8S9.4,1758.1,9.4,1133.6S510.6,7.8,1132.5,7.8H2258.4z M2083.6,1493.4c12.9-20.6,20.6-46.3,25.7-72
	c-95.1,7.7-192.8,38.6-269.9,97.7c-82.2,64.3-185.1,90-287.9,90c-102.8,0-205.6-33.4-290.4-90c-95.1-64.3-205.6-97.7-321.3-97.7
	s-223.6,33.4-321.3,97.7c-82.2,56.5-179.9,82.2-282.7,82.2c-38.6,0-82.2-5.1-120.8-12.9c12.9,25.7,30.8,51.4,43.7,77.1
	c25.7,7.7,51.4,7.7,77.1,7.7c115.7,0,226.2-33.4,321.3-97.7c84.8-64.3,187.6-90,290.4-90c102.8,0,205.6,33.4,287.9,90
	c97.7,64.3,205.6,97.7,321.3,97.7c115.7,0,226.2-33.4,321.3-97.7C1942.2,1531.9,2019.4,1506.2,2083.6,1493.4z M2155.6,1203
	c0-25.7,0-43.7,0-69.4v-7.7c-90-56.5-200.5-90-308.4-82.2c-115.7,0-226.2,30.8-321.3,95.1c-84.8,64.3-187.6,90-290.4,90
	s-205.6-30.8-287.9-90c-97.7-64.3-205.6-95.1-321.3-95.1s-226.2,30.8-321.3,95.1c-59.1,38.6-128.5,64.3-200.5,77.1
	c0,25.7,0,46.3,7.7,72c82.2-12.9,159.4-46.3,231.3-90c82.2-64.3,185.1-90,287.9-90s205.6,30.8,290.4,90
	c95.1,64.3,205.6,95.1,321.3,95.1c115.7,0,223.6-30.8,321.3-95.1c82.2-64.3,185.1-90,287.9-90c102.8,0,205.6,30.8,290.4,90
	L2155.6,1203z M176.4,748c51.4-12.9,95.1-20.6,146.5-20.6c102.8,0,205.6,33.4,290.4,90c95.1,64.3,205.6,97.7,321.3,97.7
	s223.6-33.4,321.3-97.7c82.2-64.3,185.1-90,287.9-90c102.8,0,205.6,33.4,290.4,90c95.1,64.3,205.6,97.7,321.3,97.7h5.1V105.5H1132.5
	C465.3,97.4,176.4,748,176.4,748z"/>
</svg>
