<?xml version="1.0" encoding="utf-8"?>
<!-- Generator: Adobe Illustrator 14.0.0, SVG Export Plug-In . SVG Version: 6.00 Build 43363)  -->
<!DOCTYPE svg PUBLIC "-//W3C//DTD SVG 1.1//EN" "http://www.w3.org/Graphics/SVG/1.1/DTD/svg11.dtd">
<svg version="1.1"
	 id="svg8" xmlns:dc="http://purl.org/dc/elements/1.1/" xmlns:cc="http://creativecommons.org/ns#" xmlns:rdf="http://www.w3.org/1999/02/22-rdf-syntax-ns#" xmlns:svg="http://www.w3.org/2000/svg" xmlns:sodipodi="http://sodipodi.sourceforge.net/DTD/sodipodi-0.dtd" xmlns:inkscape="http://www.inkscape.org/namespaces/inkscape" sodipodi:docname="echinodermata.svg" inkscape:version="0.92.4 (5da689c313, 2019-01-14)"
	 xmlns="http://www.w3.org/2000/svg" xmlns:xlink="http://www.w3.org/1999/xlink" x="0px" y="0px" width="1133.858px"
	 height="1133.858px" viewBox="647.074 646.59 1133.858 1133.858" enable-background="new 647.074 646.59 1133.858 1133.858"
	 xml:space="preserve">
<sodipodi:namedview  id="base" showgrid="false" pagecolor="#ffffff" inkscape:cy="902.72849" inkscape:cx="1484.9069" inkscape:zoom="0.1400905" borderopacity="1.0" bordercolor="#666666" inkscape:window-maximized="1" inkscape:window-width="1280" inkscape:window-y="-8" inkscape:window-x="-8" inkscape:pageshadow="2" inkscape:current-layer="layer1" inkscape:pageopacity="0.0" inkscape:document-units="mm" inkscape:window-height="962">
	</sodipodi:namedview>
<g id="layer1" transform="translate(-71.726611,78.072713)" inkscape:groupmode="layer" inkscape:label="Capa 1">
	<path id="path3713" inkscape:connector-curvature="0" fill="none" stroke="#000000" stroke-width="0.2646" d="M1849.722,1272.454
		c-5.282,15.849-17.17,26.415-31.699,29.057l-260.202,38.306c-51.514,7.923-97.742,43.585-120.197,92.457l-116.23,246.995
		c-6.605,13.207-21.135,22.454-35.664,22.454c-14.529,0-29.058-9.247-35.662-22.454l-116.232-246.995
		c-22.455-48.872-67.362-84.534-120.196-92.457l-258.882-38.306c-15.851-2.642-27.737-13.208-33.021-29.057
		c-3.962-14.531,0-30.38,10.568-42.268l187.557-191.52c38.305-38.304,55.475-93.779,46.229-147.932l-43.587-272.091
		c-2.642-14.529,2.642-30.379,14.529-39.625c13.208-9.247,29.059-10.567,42.266-2.642l232.466,126.8
		c46.229,26.416,101.703,26.416,149.253,0l231.145-126.8c13.209-7.925,30.379-6.604,42.268,2.642
		c11.888,9.245,18.491,25.095,15.849,39.625l-44.907,272.091c-9.246,54.153,7.925,109.628,46.229,147.932l187.558,191.52
		C1849.722,1242.074,1853.686,1257.923,1849.722,1272.454z M927.785,1199.808c-9.246-29.058-39.625-44.91-68.683-35.663
		c-27.737,9.245-43.587,42.268-34.341,71.324c9.246,29.06,39.625,46.23,68.683,35.663
		C921.181,1261.887,937.031,1230.187,927.785,1199.808z M1431.019,1160.183c15.852,6.604,33.022-2.643,38.306-19.812
		c3.963-17.172-3.962-34.343-19.813-39.625c-15.85-5.284-33.021,3.962-38.304,19.812
		C1405.926,1137.729,1415.172,1154.897,1431.019,1160.183z M1285.729,1565.678c30.379,0,54.154-25.098,54.154-56.797
		c0-30.379-23.775-56.795-54.154-56.795c-29.058,0-54.153,26.416-54.153,56.795
		C1231.576,1540.58,1256.671,1565.678,1285.729,1565.678z M1285.729,1313.397c-21.133,0-39.624,18.493-39.624,40.947
		c0,22.453,18.491,40.945,39.624,40.945c22.454,0,39.625-18.492,39.625-40.945
		C1325.354,1331.891,1306.863,1313.397,1285.729,1313.397z M1316.108,1227.545c0-17.17-13.208-31.7-30.379-31.7
		c-17.17,0-30.379,14.53-30.379,31.7c0,18.492,13.208,31.7,30.379,31.7C1302.9,1259.245,1316.108,1246.037,1316.108,1227.545z
		 M1103.456,1140.371c5.283,17.169,21.133,26.415,36.982,19.812c15.85-5.285,25.096-22.454,19.813-39.625
		c-5.284-15.849-22.454-25.095-38.304-19.812C1106.097,1106.028,1098.172,1124.521,1103.456,1140.371z M979.297,1182.636
		c7.925,21.135,29.059,33.021,50.191,26.417c21.134-6.604,31.7-30.377,25.097-51.513c-6.604-22.454-29.059-34.341-50.192-26.416
		C984.581,1137.729,972.694,1161.503,979.297,1182.636z M1078.359,686.005c-17.17-25.096-51.512-29.058-75.287-10.567
		c-23.775,19.812-27.737,55.475-9.246,79.25c18.492,25.095,52.833,29.058,75.287,10.566
		C1092.888,745.442,1096.852,709.78,1078.359,686.005z M1158.929,816.767c-13.208-17.171-38.304-21.133-55.474-6.604
		c-17.171,14.529-19.813,39.624-6.604,58.115c13.208,18.493,38.304,21.134,55.474,6.605
		C1169.497,861.675,1172.138,835.258,1158.929,816.767z M1224.971,922.434c-9.245-13.208-29.058-15.85-42.266-5.284
		c-13.208,10.567-14.53,30.379-5.284,44.908c10.566,13.208,29.059,15.851,42.266,5.284
		C1232.896,956.774,1235.538,936.963,1224.971,922.434z M1288.372,996.4c-40.946,0-75.287,34.342-75.287,76.607
		c0,42.267,31.699,77.928,72.645,77.928c40.945,1.322,73.966-33.02,75.287-75.286
		C1361.016,1032.062,1327.996,997.721,1288.372,996.4z M1388.754,917.15c-13.208-10.566-31.7-7.925-42.265,5.284
		c-10.567,14.529-7.927,34.341,5.282,44.908c13.208,10.567,31.7,7.925,42.266-5.284
		C1404.604,947.529,1401.964,927.717,1388.754,917.15z M1468.004,810.164c-17.171-14.529-42.267-10.567-55.476,6.604
		c-13.207,18.491-9.245,44.908,7.926,58.117c15.851,14.529,40.946,10.566,54.153-6.605
		C1487.816,849.788,1485.175,824.692,1468.004,810.164z M1568.386,675.438c-23.774-18.491-56.796-14.529-75.287,10.567
		c-18.492,23.775-14.529,59.437,9.246,79.25c23.775,18.491,56.795,14.529,75.287-9.246
		C1596.124,730.913,1592.161,695.25,1568.386,675.438z M1567.066,1131.125c-21.133-7.925-43.588,3.962-50.191,26.416
		c-6.604,21.136,3.962,44.909,25.096,51.513c21.133,6.604,43.587-5.282,50.19-26.417
		C1598.766,1161.503,1586.879,1137.729,1567.066,1131.125z M1712.356,1164.145c-29.057-9.247-59.437,6.605-68.683,35.663
		c-9.245,30.379,6.604,62.079,34.341,71.324c29.059,10.567,59.438-6.604,68.684-35.663
		C1761.974,1183.472,1712.356,1164.145,1712.356,1164.145z"/>
</g>
</svg>
