<?xml version="1.0" encoding="utf-8"?>
<!-- Generator: Adobe Illustrator 18.0.0, SVG Export Plug-In . SVG Version: 6.00 Build 0)  -->
<!DOCTYPE svg PUBLIC "-//W3C//DTD SVG 1.1//EN" "http://www.w3.org/Graphics/SVG/1.1/DTD/svg11.dtd">
<svg version="1.1"
	 id="svg8" xmlns:dc="http://purl.org/dc/elements/1.1/" xmlns:cc="http://creativecommons.org/ns#" xmlns:rdf="http://www.w3.org/1999/02/22-rdf-syntax-ns#" xmlns:svg="http://www.w3.org/2000/svg" xmlns:sodipodi="http://sodipodi.sourceforge.net/DTD/sodipodi-0.dtd" xmlns:inkscape="http://www.inkscape.org/namespaces/inkscape" sodipodi:docname="echinodermata.svg" inkscape:version="0.92.4 (5da689c313, 2019-01-14)"
	 xmlns="http://www.w3.org/2000/svg" xmlns:xlink="http://www.w3.org/1999/xlink" x="0px" y="0px" viewBox="0 0 2267.7 2267.7"
	 enable-background="new 0 0 2267.7 2267.7" xml:space="preserve">
<sodipodi:namedview  borderopacity="1.0" bordercolor="#666666" showgrid="false" pagecolor="#ffffff" inkscape:cy="902.72849" inkscape:cx="1484.9069" inkscape:zoom="0.1400905" id="base" inkscape:document-units="mm" inkscape:pageshadow="2" inkscape:window-x="-8" inkscape:current-layer="layer1" inkscape:window-height="962" inkscape:window-y="-8" inkscape:pageopacity="0.0" inkscape:window-width="1280" inkscape:window-maximized="1">
	</sodipodi:namedview>
<path id="path3713" inkscape:connector-curvature="0" fill="none" stroke="#000000" stroke-width="0.2646" d="M2236.8,945.7
	L1863,1327.4c-76.3,76.3-110.6,186.9-92.1,294.8l89.5,542.2c5.3,29-7.9,60.5-31.6,79c-23.7,18.4-57.9,21.1-84.2,5.3L1284,1996
	c-94.8-52.6-205.3-52.6-297.4,0l-463.3,252.7c-26.3,15.8-57.9,13.2-84.2-5.3c-23.7-18.4-34.2-50-29-79l86.9-542.2
	c18.4-107.9-15.8-218.5-92.1-294.8L31,945.7C9.9,922,2,890.4,9.9,861.5c10.5-31.6,34.2-52.6,65.8-57.9l515.9-76.3
	c105.3-15.8,194.8-86.9,239.5-184.2l231.6-492.2c13.2-26.3,42.1-44.7,71.1-44.7c29,0,57.9,18.4,71.1,44.7l231.6,492.2
	c44.7,97.4,136.9,168.5,239.5,184.2l518.5,76.3c29,5.3,52.6,26.3,63.2,57.9C2265.7,890.4,2257.8,922,2236.8,945.7z M352.1,864.1
	c-57.9-21.1-118.4,13.2-136.9,71.1c-18.4,57.9,13.2,123.7,68.4,142.1c57.9,18.4,118.4-13.2,136.9-71.1
	C439,945.7,407.4,882.5,352.1,864.1z M1383.9,1164.2c10.5,31.6,44.7,50,76.3,39.5c31.6-10.5,47.4-44.7,39.5-79
	c-10.5-34.2-44.7-52.6-76.3-39.5C1391.8,1095.7,1373.4,1129.9,1383.9,1164.2z M1026,390.3c0,60.5,50,113.2,107.9,113.2
	c60.5,0,107.9-52.6,107.9-113.2c0-63.2-47.4-113.2-107.9-113.2C1076,277.1,1026,327.1,1026,390.3z M1212.9,698.3
	c0-44.7-34.2-81.6-79-81.6c-42.1,0-79,36.8-79,81.6c0,44.7,36.8,81.6,79,81.6S1212.9,743,1212.9,698.3z M1133.9,887.8
	c-34.2,0-60.5,26.3-60.5,63.2c0,34.2,26.3,63.2,60.5,63.2c34.2,0,60.5-29,60.5-63.2C1194.4,914.1,1168.1,887.8,1133.9,887.8z
	 M807.5,1203.6c31.6,10.5,65.8-7.9,76.3-39.5c10.5-34.2-7.9-68.4-39.5-79c-31.6-13.2-63.2,5.3-73.7,39.5
	C760.1,1156.3,775.9,1193.1,807.5,1203.6z M573.2,1143.1c42.1,15.8,86.9-7.9,100-52.6c13.2-42.1-7.9-89.5-50-102.7
	s-84.2,10.5-100,52.6C510.1,1082.6,533.8,1129.9,573.2,1143.1z M702.2,1872.2c-44.7-36.8-113.2-29-150,21.1
	c-36.8,47.4-29,118.4,18.4,157.9c47.4,36.8,115.8,29,150-21.1C757.5,1982.7,749.6,1911.7,702.2,1872.2z M868,1653.7
	c-34.2-29-84.2-23.7-110.5,13.2s-21.1,86.9,13.2,115.8c34.2,29,84.2,21.1,110.5-13.2C907.5,1732.7,902.3,1680.1,868,1653.7z
	 M1002.3,1469.5c-26.3-21.1-63.2-15.8-84.2,10.5c-18.4,29-15.8,68.4,10.5,89.5c26.3,21.1,65.8,15.8,84.2-10.5
	C1033.9,1530,1028.6,1490.5,1002.3,1469.5z M1283.9,1253.6c-2.6-84.2-68.4-152.7-150-150c-81.6,0-144.8,71.1-144.8,155.3
	c0,84.2,68.4,152.7,150,152.7C1218.1,1408.9,1283.9,1340.5,1283.9,1253.6z M1349.7,1480c-21.1-26.3-57.9-31.6-84.2-10.5
	c-26.3,21.1-31.6,60.5-10.5,89.5c21.1,26.3,57.9,31.6,84.2,10.5C1365.5,1548.4,1370.8,1509,1349.7,1480z M1510.3,1666.9
	c-26.3-34.2-76.3-42.1-107.9-13.2c-34.2,26.3-42.1,79-15.8,115.8c26.3,34.2,76.3,42.1,110.6,13.2
	C1531.3,1753.8,1536.6,1703.7,1510.3,1666.9z M1715.6,1890.6c-36.8-47.4-102.7-55.3-150-18.4c-47.4,39.5-55.3,110.5-18.4,157.9
	c36.9,50,102.7,57.9,150,21.1C1744.5,2011.7,1752.4,1940.6,1715.6,1890.6z M1744.5,1040.4c-13.2-42.1-57.9-65.8-100-52.6
	c-42.1,13.2-63.2,60.5-50,102.7c13.2,44.7,57.9,68.4,100,52.6C1734,1129.9,1757.7,1082.6,1744.5,1040.4z M2052.5,935.2
	c-18.4-57.9-79-92.1-136.9-71.1c-55.3,18.4-86.9,81.6-68.4,142.1c18.4,57.9,79,89.5,136.9,71.1
	C1984.1,1077.3,2078.2,1040.1,2052.5,935.2z"/>
</svg>
