<?xml version="1.0" encoding="utf-8"?>
<!-- Generator: Adobe Illustrator 14.0.0, SVG Export Plug-In . SVG Version: 6.00 Build 43363)  -->
<!DOCTYPE svg PUBLIC "-//W3C//DTD SVG 1.1//EN" "http://www.w3.org/Graphics/SVG/1.1/DTD/svg11.dtd">
<svg version="1.1"
	 id="svg8" xmlns:dc="http://purl.org/dc/elements/1.1/" xmlns:cc="http://creativecommons.org/ns#" xmlns:rdf="http://www.w3.org/1999/02/22-rdf-syntax-ns#" xmlns:svg="http://www.w3.org/2000/svg" xmlns:sodipodi="http://sodipodi.sourceforge.net/DTD/sodipodi-0.dtd" xmlns:inkscape="http://www.inkscape.org/namespaces/inkscape" sodipodi:docname="en-peligro-critico-cr.svg" inkscape:version="0.92.4 (5da689c313, 2019-01-14)"
	 xmlns="http://www.w3.org/2000/svg" xmlns:xlink="http://www.w3.org/1999/xlink" x="0px" y="0px" width="1133.859px"
	 height="1133.859px" viewBox="0 0 1133.859 1133.859" enable-background="new 0 0 1133.859 1133.859" xml:space="preserve">
<sodipodi:namedview  id="base" showgrid="false" pagecolor="#ffffff" inkscape:cy="940.52369" inkscape:cx="1188.0825" inkscape:zoom="0.1400905" borderopacity="1.0" bordercolor="#666666" inkscape:window-maximized="1" inkscape:window-width="1280" inkscape:window-y="-8" inkscape:window-x="-8" inkscape:pageshadow="2" inkscape:current-layer="layer1" inkscape:pageopacity="0.0" inkscape:document-units="mm" inkscape:window-height="962">
	</sodipodi:namedview>
<path fill="none" stroke="#000000" stroke-width="0.2646" d="M1120.506,3.116H532.804v1.116
	C237.285,21.878,3.127,267.007,3.127,566.913c0,311.396,252.391,563.832,563.786,563.832c311.385,0,563.82-252.437,563.82-563.832
	V13.332C1130.733,7.682,1126.144,3.116,1120.506,3.116z M416.611,694.157c26.463,0,58.531-6.618,96.157-19.856v67.021
	c-30.929,12.899-65.477,19.338-103.644,19.338c-54.822,0-96.755-16.643-125.801-49.883c-29.046-33.263-43.557-80.98-43.557-143.21
	c0-39.194,7.126-73.516,21.39-103.001c14.274-29.452,34.751-52.059,61.474-67.777c26.723-15.741,58.058-23.6,93.981-23.6
	c36.611,0,73.381,8.851,110.342,26.554l-25.776,64.947c-14.105-6.697-28.279-12.527-42.542-17.533
	c-14.275-4.961-28.279-7.453-42.023-7.453c-30.072,0-53.367,11.298-69.875,33.883c-16.484,22.607-24.739,54.122-24.739,94.488
	C321.997,652.133,353.535,694.157,416.611,694.157z M805.356,755.496L715.4,610.875h-42.543v144.62h-79.909V378.589H702.76
	c51.214,0,89.109,9.336,113.69,27.986c24.569,18.649,36.859,46.962,36.859,84.938c0,22.167-6.1,41.9-18.3,59.151
	c-12.199,17.296-29.474,30.827-51.811,40.615c56.715,84.734,93.666,139.467,110.86,164.216H805.356z M772.623,493.577
	c0,18.041-6.021,31.29-18.03,39.701c-12.042,8.412-30.692,12.629-55.948,12.629h-25.788V444.089h24.231
	c25.775,0,44.82,3.777,57.11,11.343C766.478,462.998,772.623,475.717,772.623,493.577z"/>
</svg>
