<?xml version="1.0" encoding="utf-8"?>
<!-- Generator: Adobe Illustrator 14.0.0, SVG Export Plug-In . SVG Version: 6.00 Build 43363)  -->
<!DOCTYPE svg PUBLIC "-//W3C//DTD SVG 1.1//EN" "http://www.w3.org/Graphics/SVG/1.1/DTD/svg11.dtd">
<svg version="1.1"
	 id="svg8" xmlns:dc="http://purl.org/dc/elements/1.1/" xmlns:cc="http://creativecommons.org/ns#" xmlns:rdf="http://www.w3.org/1999/02/22-rdf-syntax-ns#" xmlns:svg="http://www.w3.org/2000/svg" xmlns:sodipodi="http://sodipodi.sourceforge.net/DTD/sodipodi-0.dtd" xmlns:inkscape="http://www.inkscape.org/namespaces/inkscape" sodipodi:docname="en-peligro-en-evaluacion-conabio.svg" inkscape:version="0.92.4 (5da689c313, 2019-01-14)"
	 xmlns="http://www.w3.org/2000/svg" xmlns:xlink="http://www.w3.org/1999/xlink" x="0px" y="0px" width="1133.858px"
	 height="1133.859px" viewBox="0 0 1133.858 1133.859" enable-background="new 0 0 1133.858 1133.859" xml:space="preserve">
<sodipodi:namedview  id="base" showgrid="false" pagecolor="#ffffff" inkscape:cy="1995.5144" inkscape:cx="1992.7552" inkscape:zoom="0.14369886" borderopacity="1.0" bordercolor="#666666" inkscape:window-maximized="1" inkscape:window-width="1280" inkscape:window-y="-8" inkscape:window-x="-8" inkscape:pageshadow="2" inkscape:current-layer="layer1" inkscape:pageopacity="0.0" inkscape:document-units="mm" inkscape:window-height="962">
	</sodipodi:namedview>
<path fill="none" stroke="#000000" stroke-width="0.2646" d="M1072.767,509.227c0-279.369-226.439-505.849-505.829-505.849
	s-505.85,226.48-505.85,505.849c0,123.309,44.143,236.27,117.451,324.039h-0.781c149.332,176.956,389.26,297.214,389.26,297.214
	s239.968-120.258,389.28-297.214h-0.952C1028.635,745.497,1072.767,632.536,1072.767,509.227z M478.896,456.41H355.628v74.382
	h114.695v58.827H355.628v87.363h123.268v59.313H283.81V397.542h195.086V456.41z M850.067,736.295h-91.275L611.426,480.021h-2.087
	c2.938,45.278,4.397,77.564,4.397,96.859v159.415h-64.167V397.542h90.576l147.143,253.71h1.602
	c-2.311-44.001-3.466-75.143-3.466-93.363V397.542h64.644V736.295z"/>
</svg>
