<?xml version="1.0" encoding="utf-8"?>
<!-- Generator: Adobe Illustrator 14.0.0, SVG Export Plug-In . SVG Version: 6.00 Build 43363)  -->
<!DOCTYPE svg PUBLIC "-//W3C//DTD SVG 1.1//EN" "http://www.w3.org/Graphics/SVG/1.1/DTD/svg11.dtd">
<svg version="1.1"
	 id="svg8" xmlns:dc="http://purl.org/dc/elements/1.1/" xmlns:cc="http://creativecommons.org/ns#" xmlns:rdf="http://www.w3.org/1999/02/22-rdf-syntax-ns#" xmlns:svg="http://www.w3.org/2000/svg" xmlns:sodipodi="http://sodipodi.sourceforge.net/DTD/sodipodi-0.dtd" xmlns:inkscape="http://www.inkscape.org/namespaces/inkscape" sodipodi:docname="en-peligro-de-extincion-p-evaluacion-conabio.svg" inkscape:version="0.92.4 (5da689c313, 2019-01-14)"
	 xmlns="http://www.w3.org/2000/svg" xmlns:xlink="http://www.w3.org/1999/xlink" x="0px" y="0px" width="1133.859px"
	 height="1133.859px" viewBox="0 0 1133.859 1133.859" enable-background="new 0 0 1133.859 1133.859" xml:space="preserve">
<sodipodi:namedview  id="base" showgrid="false" pagecolor="#ffffff" inkscape:cy="1999.2939" inkscape:cx="1996.5347" inkscape:zoom="0.14369886" borderopacity="1.0" bordercolor="#666666" inkscape:window-maximized="1" inkscape:window-width="1280" inkscape:window-y="-8" inkscape:window-x="-8" inkscape:pageshadow="2" inkscape:current-layer="layer1" inkscape:pageopacity="0.0" inkscape:document-units="mm" inkscape:window-height="962">
	</sodipodi:namedview>
<path fill="none" stroke="#000000" stroke-width="0.2646" d="M1073.664,509.121c0-279.862-226.841-506.733-506.724-506.733
	c-279.883,0-506.743,226.871-506.743,506.733c0,123.496,44.221,236.719,117.658,324.611h-0.782
	c149.596,177.29,389.948,297.741,389.948,297.741s240.393-120.451,389.968-297.741h-0.954
	C1029.452,745.839,1073.664,632.617,1073.664,509.121z M649.9,586.893c-22.82,19.339-55.266,29.014-97.354,29.014h-30.872v120.694
	h-71.945V397.27h108.379c41.156,0,72.443,8.852,93.883,26.577c21.44,17.704,32.141,44.139,32.141,79.264
	C684.132,539.617,672.741,567.554,649.9,586.893z M597.679,468.28c9.208,8.05,13.817,20.506,13.817,37.379
	c0,16.709-5.492,29.44-16.497,38.181c-10.963,8.741-27.531,13.116-49.662,13.116h-23.664V456.21h32.729
	C574.047,456.21,588.482,460.24,597.679,468.28z"/>
</svg>
