<?xml version="1.0" encoding="utf-8"?>
<!-- Generator: Adobe Illustrator 14.0.0, SVG Export Plug-In . SVG Version: 6.00 Build 43363)  -->
<!DOCTYPE svg PUBLIC "-//W3C//DTD SVG 1.1//EN" "http://www.w3.org/Graphics/SVG/1.1/DTD/svg11.dtd">
<svg version="1.1"
	 id="svg8" xmlns:dc="http://purl.org/dc/elements/1.1/" xmlns:cc="http://creativecommons.org/ns#" xmlns:rdf="http://www.w3.org/1999/02/22-rdf-syntax-ns#" xmlns:svg="http://www.w3.org/2000/svg" xmlns:sodipodi="http://sodipodi.sourceforge.net/DTD/sodipodi-0.dtd" xmlns:inkscape="http://www.inkscape.org/namespaces/inkscape" sodipodi:docname="en-peligro-en.svg" inkscape:version="0.92.4 (5da689c313, 2019-01-14)"
	 xmlns="http://www.w3.org/2000/svg" xmlns:xlink="http://www.w3.org/1999/xlink" x="0px" y="0px" width="1133.859px"
	 height="1133.859px" viewBox="0 0 1133.859 1133.859" enable-background="new 0 0 1133.859 1133.859" xml:space="preserve">
<sodipodi:namedview  id="base" showgrid="false" pagecolor="#ffffff" inkscape:cy="940.52369" inkscape:cx="1188.0825" inkscape:zoom="0.1400905" borderopacity="1.0" bordercolor="#666666" inkscape:window-maximized="1" inkscape:window-width="1280" inkscape:window-y="-8" inkscape:window-x="-8" inkscape:pageshadow="2" inkscape:current-layer="layer1" inkscape:pageopacity="0.0" inkscape:document-units="mm" inkscape:window-height="962">
	</sodipodi:namedview>
<path fill="none" stroke="#000000" stroke-width="0.2646" d="M1120.308,3.324H532.823v1.115
	C237.401,22.079,3.34,267.118,3.34,566.913c0,311.281,252.298,563.624,563.567,563.624c311.281,0,563.612-252.343,563.612-563.624
	V13.535C1130.519,7.888,1125.944,3.324,1120.308,3.324z M468.993,444.021H331.9v82.72h127.569v65.431H331.9v97.17h137.094v65.972
	H252.009V378.535h216.985V444.021z M881.828,755.314H780.308L616.41,470.272h-2.333c3.27,50.36,4.903,86.271,4.903,107.732v177.31
	H547.6V378.535h100.754l163.648,282.19h1.793c-2.57-48.941-3.855-83.566-3.855-103.844V378.535h71.889V755.314z"/>
</svg>
