<?xml version="1.0" encoding="utf-8"?>
<!-- Generator: Adobe Illustrator 14.0.0, SVG Export Plug-In . SVG Version: 6.00 Build 43363)  -->
<!DOCTYPE svg PUBLIC "-//W3C//DTD SVG 1.1//EN" "http://www.w3.org/Graphics/SVG/1.1/DTD/svg11.dtd">
<svg version="1.1"
	 id="svg8" xmlns:dc="http://purl.org/dc/elements/1.1/" xmlns:cc="http://creativecommons.org/ns#" xmlns:rdf="http://www.w3.org/1999/02/22-rdf-syntax-ns#" xmlns:svg="http://www.w3.org/2000/svg" xmlns:sodipodi="http://sodipodi.sourceforge.net/DTD/sodipodi-0.dtd" xmlns:inkscape="http://www.inkscape.org/namespaces/inkscape" sodipodi:docname="en-peligro-critico-cr-evaluacion-conabio.svg" inkscape:version="0.92.4 (5da689c313, 2019-01-14)"
	 xmlns="http://www.w3.org/2000/svg" xmlns:xlink="http://www.w3.org/1999/xlink" x="0px" y="0px" width="1133.858px"
	 height="1133.859px" viewBox="0 0 1133.858 1133.859" enable-background="new 0 0 1133.858 1133.859" xml:space="preserve">
<sodipodi:namedview  id="base" showgrid="false" pagecolor="#ffffff" inkscape:cy="2003.0735" inkscape:cx="2000.3142" inkscape:zoom="0.14369886" borderopacity="1.0" bordercolor="#666666" inkscape:window-maximized="1" inkscape:window-width="1280" inkscape:window-y="-8" inkscape:window-x="-8" inkscape:pageshadow="2" inkscape:current-layer="layer1" inkscape:pageopacity="0.0" inkscape:document-units="mm" inkscape:window-height="962">
	</sodipodi:namedview>
<path fill="none" stroke="#000000" stroke-width="0.2646" d="M752.106,500.911c0,16.24-5.431,28.161-16.24,35.742
	c-10.83,7.577-27.617,11.368-50.363,11.368h-23.202v-91.667h21.802c23.213,0,40.346,3.405,51.408,10.21
	C746.574,473.375,752.106,484.824,752.106,500.911z M955.982,833.679h0.954c-149.575,177.254-389.89,297.69-389.89,297.69
	s-240.345-120.437-389.921-297.69h0.781C104.513,745.803,60.271,632.634,60.271,509.132c0-279.792,226.846-506.643,506.673-506.643
	s506.643,226.851,506.643,506.643C1073.588,632.634,1029.376,745.803,955.982,833.679z M346.472,567.975
	c0-36.352,7.43-64.705,22.269-85.044c14.859-20.345,35.829-30.521,62.888-30.521c12.382,0,24.988,2.244,37.838,6.729
	c12.829,4.491,25.598,9.749,38.285,15.778l23.202-58.473c-33.271-15.94-66.359-23.907-99.325-23.907
	c-32.337,0-60.533,7.084-84.588,21.238s-42.487,34.499-55.346,61.025c-12.839,26.536-19.254,57.438-19.254,92.712
	c0,56.007,13.073,98.97,39.218,128.911c26.146,29.932,63.882,44.902,113.24,44.902c34.357,0,65.445-5.806,93.296-17.406v-60.33
	c-33.87,11.905-62.736,17.863-86.567,17.863C374.851,681.454,346.472,643.626,346.472,567.975z M861.407,736.688
	c-15.468-22.278-48.728-71.555-99.781-147.819c20.106-8.821,35.646-21.01,46.639-36.555c10.971-15.549,16.463-33.301,16.463-53.26
	c0-34.19-11.063-59.67-33.181-76.458c-22.116-16.788-56.229-25.182-102.339-25.182h-98.849v339.274h71.941v-130.19h38.296
	l80.974,130.19H861.407z"/>
</svg>
