<?xml version="1.0" encoding="utf-8"?>
<!-- Generator: Adobe Illustrator 18.0.0, SVG Export Plug-In . SVG Version: 6.00 Build 0)  -->
<!DOCTYPE svg PUBLIC "-//W3C//DTD SVG 1.1//EN" "http://www.w3.org/Graphics/SVG/1.1/DTD/svg11.dtd">
<svg version="1.1"
	 id="svg8" xmlns:dc="http://purl.org/dc/elements/1.1/" xmlns:cc="http://creativecommons.org/ns#" xmlns:rdf="http://www.w3.org/1999/02/22-rdf-syntax-ns#" xmlns:svg="http://www.w3.org/2000/svg" xmlns:sodipodi="http://sodipodi.sourceforge.net/DTD/sodipodi-0.dtd" xmlns:inkscape="http://www.inkscape.org/namespaces/inkscape" sodipodi:docname="en-peligro-de-extincion-p-2.svg" inkscape:version="0.92.4 (5da689c313, 2019-01-14)"
	 xmlns="http://www.w3.org/2000/svg" xmlns:xlink="http://www.w3.org/1999/xlink" x="0px" y="0px" viewBox="0 0 2267.7 2267.7"
	 enable-background="new 0 0 2267.7 2267.7" xml:space="preserve">
<sodipodi:namedview  borderopacity="1.0" bordercolor="#666666" showgrid="false" pagecolor="#ffffff" inkscape:cy="-374.7519" inkscape:cx="271.14532" inkscape:zoom="0.1400905" id="base" inkscape:document-units="mm" inkscape:pageshadow="2" inkscape:window-x="-8" inkscape:current-layer="layer1" inkscape:window-height="962" inkscape:window-y="-8" inkscape:pageopacity="0.0" inkscape:window-width="1280" inkscape:window-maximized="1">
	</sodipodi:namedview>
<path id="path3713" inkscape:connector-curvature="0" fill="none" stroke="#000000" stroke-width="0.2646" d="M1314.7,1453.7
	c207.9,0,372.2-66.5,492.8-199.6c124.8-137.2,187.1-320.2,187.1-548.9c0-224.6-62.4-397.1-187.1-517.7
	c-124.8-120.7-303.6-181-536.4-181h-998v2251.8h461.6v-804.7L1314.7,1453.7L1314.7,1453.7z M734.6,393.2h436.6
	c124.8,0,214.2,27,268.2,81.1c62.4,58.2,93.6,145.5,93.6,262c0,224.6-120.6,336.8-361.8,336.8H734.6L734.6,393.2L734.6,393.2z"/>
</svg>
