<?xml version="1.0" encoding="utf-8"?>
<!-- Generator: Adobe Illustrator 14.0.0, SVG Export Plug-In . SVG Version: 6.00 Build 43363)  -->
<!DOCTYPE svg PUBLIC "-//W3C//DTD SVG 1.1//EN" "http://www.w3.org/Graphics/SVG/1.1/DTD/svg11.dtd">
<svg version="1.1"
	 id="svg8" xmlns:dc="http://purl.org/dc/elements/1.1/" xmlns:cc="http://creativecommons.org/ns#" xmlns:rdf="http://www.w3.org/1999/02/22-rdf-syntax-ns#" xmlns:svg="http://www.w3.org/2000/svg" xmlns:sodipodi="http://sodipodi.sourceforge.net/DTD/sodipodi-0.dtd" xmlns:inkscape="http://www.inkscape.org/namespaces/inkscape" sodipodi:docname="enciclovida_correo.svg" inkscape:version="0.92.4 (5da689c313, 2019-01-14)"
	 xmlns="http://www.w3.org/2000/svg" xmlns:xlink="http://www.w3.org/1999/xlink" x="0px" y="0px" width="1133.858px"
	 height="1133.858px" viewBox="0 0 1133.858 1133.858" enable-background="new 0 0 1133.858 1133.858" xml:space="preserve">
<sodipodi:namedview  id="base" showgrid="false" pagecolor="#ffffff" inkscape:cy="566.35025" inkscape:cx="922.73583" inkscape:zoom="0.1400905" borderopacity="1.0" bordercolor="#666666" inkscape:window-maximized="1" inkscape:window-width="1280" inkscape:window-y="-8" inkscape:window-x="-8" inkscape:pageshadow="2" inkscape:current-layer="layer1" inkscape:pageopacity="0.0" inkscape:document-units="mm" inkscape:window-height="962">
	</sodipodi:namedview>
<g id="layer1" transform="translate(-128.86771,29.132292)" inkscape:groupmode="layer" inkscape:label="Capa 1">
	<path id="path3713" inkscape:connector-curvature="0" fill="none" stroke="#000000" stroke-width="0.2646" d="M129.518,5.057
		c-0.898,8.335,2.708,15.54,9.128,21.955c2.705,2.704,6.309,4.504,8.112,6.302c2.705,2.703,5.405,3.605,8.333,4.505l6.305-6.311
		c-6.421-2.813-11.827-6.411-16.334-10.916c-3.717-3.717-7.321-9.121-6.423-13.621c0.899-4.508,2.699-9.914,8.215-15.435
		l29.064,29.046l4.502-4.505c6.42-6.423,10.021-11.83,9.906-19.15c0.898-6.305-1.808-12.837-7.215-18.239
		c-5.407-5.402-11.825-7.991-20.046-7.199c-8.108,0.903-15.427,4.62-22.633,11.831C133.118-9.362,130.416-3.275,129.518,5.057z
		 M164.983-19.394c4.503-0.9,7.995,0.787,11.712,4.505c3.717,3.714,5.521,7.317,5.522,10.917c-0.898,4.507-2.701,8.112-7.317,12.732
		l-22.643-22.63C155.973-17.588,160.479-18.49,164.983-19.394z M174.018,60.558l22.74-22.752c6.306-6.31,10.92-9.125,15.426-10.027
		c4.503-0.903,9.12,1.91,13.626,6.414c3.604,3.601,4.394,6.191,4.508,9.908c0.113,3.717-1.687,7.315-5.403,11.036L197.672,82.4
		l6.308,6.304l28.146-28.165c5.515-5.516,8.218-10.025,8.214-15.43c0-5.405-2.703-10.134-8.11-15.538
		c-2.703-2.703-6.534-4.5-10.14-6.301c-3.602-1.805-7.205-1.8-11.711-0.897l5.404-7.21l-5.407-5.405l-43.567,43.595L174.018,60.558z
		 M226.733,102.209c0.116,7.32,2.708,13.735,9.017,20.043c4.618,4.612,9.122,7.316,13.739,8.104l5.405-5.409
		c-5.405-1.799-9.911-4.5-13.63-8.217c-4.505-4.502-6.307-8.108-5.408-14.412c0.897-6.305,3.601-11.037,9.003-16.444
		c11.82-11.825,21.842-12.622,30.854-3.613c0.901,0.901,2.817,2.813,3.717,5.518c0.902,2.7,1.804,3.602,2.705,6.305l7.205-3.604
		c0.001-1.805-1.689-3.717-2.59-6.421c-0.904-2.703-3.608-5.403-5.522-7.319c-7.209-7.205-13.742-9.904-21.849-9.001
		c-8.108,0.905-15.425,4.623-22.632,11.834C229.432,86.892,226.617,94.891,226.733,102.209z M308.487,91.374
		c0,1.798,0.901,2.699,1.803,3.6c0.901,0.901,1.802,1.804,3.604,1.804c1.802-0.001,2.703-0.901,4.503-2.705
		c1.801-1.804,2.814-2.816,2.814-4.621c-0.001-1.799-0.903-2.699-1.803-3.6c-0.902-0.902-1.803-1.803-3.603-1.804
		c-1.802,0.004-2.816,1.018-4.619,2.821C310.289,87.767,308.486,89.572,308.487,91.374z M262.11,148.593l43.566-43.594l-6.308-6.305
		l-43.566,43.594L262.11,148.593z M284.974,162.212c-0.112,7.321,2.593,13.625,9.014,20.043c4.505,4.504,9.012,7.202,13.628,7.991
		l5.404-5.406c-5.407-1.8-9.91-4.506-13.515-8.106c-4.619-4.617-6.424-8.217-5.525-14.523c0.9-6.307,3.714-10.927,9.116-16.332
		c11.823-11.828,21.731-12.733,30.856-3.614c0.901,0.901,2.705,2.704,3.606,5.403c0.902,2.705,1.803,3.604,2.704,6.305l8.106-4.503
		c0.002-1.803-1.688-3.718-2.589-6.423c-0.903-2.7-3.608-5.4-5.41-7.203c-7.321-7.315-13.628-9.793-21.849-9.001
		c-8.222,0.79-15.539,4.511-22.745,11.72C288.46,145.882,285.084,154.892,284.974,162.212z M322.151,208.596l61.803-61.843
		l-6.422-6.416l-61.802,61.842L322.151,208.596z M346.7,213.093c-1.798,5.407-1.797,10.813-0.896,15.315
		c0.79,4.616,3.606,9.233,7.211,12.835c6.309,6.307,13.743,8.105,20.95,8.104c7.206-0.003,14.413-3.611,21.728-10.93
		c6.305-6.312,10.92-14.532,10.919-21.741c0.897-8.105-1.806-14.64-8.114-20.945c-6.422-6.415-13.743-8.102-20.951-8.099
		c-7.208,0.005-14.637,3.609-21.843,10.819C351.205,202.955,348.388,207.576,346.7,213.093z M378.451,195.744
		c5.406-0.003,9.91,0.896,14.529,5.511c4.506,4.502,6.31,9.907,5.521,14.524c0.006,5.404-3.709,10.924-9.116,16.331
		c-5.403,5.409-11.821,8.223-16.325,9.13c-5.516-0.112-10.021-1.011-14.527-5.518c-4.619-4.615-6.422-10.021-5.524-14.523
		c-0.001-5.404,3.712-10.923,9.114-16.333C367.531,199.461,373.949,196.643,378.451,195.744z M393.908,280.307l8.111,8.105
		l59.9-27.271l-7.211-7.203c-20.039,9.013-33.552,15.323-39.969,18.141c-6.308,2.707-9.912,4.508-11.712,6.313
		c1.801-1.805,3.604-7.21,8.218-15.435l17.105-35.363l-7.323-7.317L393.908,280.307z M477.458,260.235
		c0.002,1.803,0.902,2.703,1.803,3.601c0.903,0.903,1.803,1.805,3.604,1.807c1.801-0.002,2.703-0.905,4.502-2.704
		c1.803-1.807,2.817-2.818,2.817-4.623c-0.002-1.8-0.902-2.701-1.806-3.6c-0.898-0.9-1.801-1.803-3.601-1.803
		c-1.803,0.002-2.817,1.016-4.618,2.819C479.26,256.632,477.458,258.435,477.458,260.235z M431.082,317.456l43.565-43.595
		l-6.307-6.304l-43.567,43.595L431.082,317.456z M453.045,330.174c-0.113,7.323,2.594,13.629,8,19.03
		c6.42,6.416,12.726,9.118,20.046,7.204l-4.501,6.529l5.408,5.404l61.802-61.843l-6.421-6.419l-22.739,22.756l-0.902-0.901
		c1.8-7.209-0.905-13.738-7.213-20.041c-6.308-6.304-13.63-7.989-20.048-7.201c-7.206,1.804-14.522,5.523-21.729,12.735
		C457.432,314.744,453.829,321.957,453.045,330.174z M487.495,304.716c4.504-0.905,9.911,0.896,13.516,4.5
		c4.617,4.614,7.322,9.117,6.423,13.621c-0.9,4.505-4.615,10.025-10.918,16.334l-1.801,1.804
		c-5.516,5.519-10.019,8.222-14.524,9.126c-4.505,0.9-9.009-1.802-13.627-6.418c-3.604-3.602-5.41-9.008-4.512-13.511
		c0.901-4.505,4.615-10.024,10.018-15.43C477.476,309.332,482.992,305.615,487.495,304.716z M500.243,380.95
		c-1.008,4.614,1.694,9.118,6.313,13.735c3.604,3.602,7.209,5.401,9.911,6.303c2.817,0.787,7.434,1.799,11.939,0.895l-5.516,7.325
		l4.506,4.501l30.057-30.076c4.502-4.506,7.204-9.012,7.202-14.415c0-5.407-2.704-10.139-8.111-15.542
		c-1.802-1.802-4.505-4.501-8.223-6.189c-3.719-1.91-7.321-3.715-10.025-4.612l-3.6,7.206c7.207,1.801,12.727,5.517,16.331,9.116
		c3.603,3.603,4.507,6.307,4.62,10.022c0.001,1.804-1.8,5.407-5.515,9.122l-3.603,3.608l-7.322-7.317
		c-13.631-13.622-25.342-16.324-34.462-7.197C501.144,371.038,498.443,375.543,500.243,380.95z M521.978,370.017
		c4.617,1.015,9.12,3.715,14.527,9.122l6.42,6.413l-3.602,3.604c-4.615,4.62-9.119,7.323-13.735,6.313
		c-5.406,0.003-9.008-1.802-13.514-6.305c-2.704-2.703-4.622-6.416-4.62-8.219c-0.003-1.801,0.896-4.502,3.599-7.209
		C514.655,370.135,518.374,370.02,521.978,370.017z M547.333,431.835c0.117,10.923,4.622,20.83,14.648,30.852
		c6.421,6.414,13.629,10.02,20.838,13.619l5.517-5.521c-8.222-2.586-15.542-8.103-20.949-13.508
		c-8.111-8.106-11.831-15.425-11.72-24.546c-0.117-9.119,4.384-17.229,12.603-25.451c5.405-5.407,11.821-10.027,19.14-11.719
		c6.307-2.707,12.614-2.034,19.932-0.119c7.322,1.912,12.729,5.513,19.036,11.818c4.619,4.615,7.324,9.119,11.83,17.225
		c1.917,5.517,1.917,10.923,0.006,16.44c-1.801,5.407-5.514,10.928-10.018,15.431c-4.504,4.509-8.894,7.099-13.512,8.113
		c-4.619,1.017-8.222,1.02-10.924-1.685c-3.718-3.716-2.706-8.334,1.798-12.84l0.899-0.898l19.926-18.138
		c-1.801-1.8-2.702-4.503-5.405-7.21c-1.806-3.598-3.72-5.514-5.524-7.313c-5.406-5.402-11.712-8.103-18.129-7.315
		c-6.307,0.903-12.725,3.721-18.129,9.128c-4.502,4.506-6.529,9.915-7.314,14.528c-0.787,4.618,1.917,9.125,5.52,12.726
		c2.704,2.702,5.521,5.517,9.127,5.513c3.604-0.002,6.304,0.9,10.022-1.014c-2.817,2.817-1.914,7.318-1.911,9.117
		c-0.001,1.806,0.899,4.509,3.717,7.322c2.702,2.703,6.309,4.503,9.911,4.5c3.603,0,8.22-1.016,11.825-2.817
		c3.601-1.802,8.104-4.509,11.708-8.112c5.515-5.521,10.02-11.829,11.931-19.148c2.7-6.307,1.798-12.613-0.006-19.819
		c-1.917-7.319-6.312-13.736-11.831-19.252c-7.21-7.205-15.544-11.706-22.752-13.506c-7.208-1.801-16.327-1.91-24.549,0.91
		c-8.106,2.701-15.313,6.311-22.631,13.631C552.844,411.901,547.218,420.91,547.333,431.835z M599.241,416.391
		c4.504-0.903,8.109,0.897,11.714,4.498c2.817,2.815,4.618,4.618,5.521,7.319l-11.822,10.025c-9.006,7.21-16.438,9.019-21.847,3.612
		c-5.406-5.403-4.393-11.823,1.91-18.132C589.22,419.209,594.74,417.292,599.241,416.391z M624.719,499.94
		c0.003,7.205,2.596,13.625,9.016,20.039c4.508,4.505,9.011,7.207,13.628,7.994l5.405-5.405c-5.405-1.803-9.912-4.503-13.518-8.107
		c-4.619-4.617-6.422-10.018-5.522-14.523c0.898-6.31,3.715-10.929,9.116-16.334c11.819-11.826,21.731-12.73,30.856-3.612
		c0.902,0.899,2.703,2.7,3.604,5.405c0.9,2.702,1.802,3.604,2.704,6.303l7.206-3.603c0-1.805-1.688-3.719-2.59-6.422
		c-0.902-2.699-3.607-5.402-5.409-7.203c-7.322-7.317-14.645-9.003-21.849-9.001c-8.221,0.79-15.538,4.506-22.747,11.72
		C627.306,484.511,622.801,490.82,624.719,499.94z M663.693,529.883c-1.799,5.403-1.573,10.811-0.783,15.426
		c0.791,4.617,3.493,9.122,7.1,12.727c6.42,6.416,13.74,8.101,20.946,8.098c7.32,0.113,14.529-3.493,21.843-10.814
		c6.305-6.309,10.92-14.53,10.806-21.854c0.896-8.106-1.693-14.526-8.114-20.941c-6.31-6.309-13.63-7.994-20.949-8.101
		c-7.208,0.003-14.527,3.718-21.733,10.931C668.308,519.856,665.493,524.478,663.693,529.883z M696.458,513.544
		c5.406-0.003,9.91,0.896,14.416,5.401c4.62,4.614,6.422,10.018,5.522,14.524c0.003,5.402-3.71,10.924-9.116,16.33
		c-5.402,5.408-11.82,8.225-16.327,9.128c-5.402,0.001-10.021-1.013-14.526-5.517c-4.507-4.501-6.31-9.906-5.412-14.408
		c-0.114-5.52,3.603-11.039,9.003-16.445C685.424,517.15,690.942,513.429,696.458,513.544z M709.998,596.194l22.739-22.755
		c6.306-6.308,11.823-8.223,16.328-9.128c4.503-0.901,9.122,1.915,13.627,6.416c2.704,2.702,4.62,6.42,4.622,10.023
		c0,3.605-1.8,7.204-5.516,10.923l-28.142,28.161l6.309,6.306l28.142-28.159c6.416-6.422,6.416-11.83,6.415-17.234
		c-0.003-5.403-2.819-10.021-8.227-15.427c-2.703-2.699-7.323-5.513-10.024-6.415c-2.704-0.898-7.208-1.799-9.909-0.896l5.402-7.209
		l-5.408-5.404l-43.566,43.593L709.998,596.194z M758.208,638.748c-1.01,4.617,1.806,9.234,6.311,13.735
		c3.605,3.605,7.211,5.401,10.025,6.419c2.817,0.783,7.321,1.683,11.828,0.782l-5.518,7.32l4.505,4.5l30.059-30.073
		c4.5-4.505,6.303-9.913,6.302-15.316c-0.003-5.407-2.592-10.023-8.112-15.542c-1.802-1.8-4.507-4.5-8.224-6.187
		c-3.605-1.8-7.321-3.717-10.025-4.616l-3.601,7.209c7.32,1.912,12.612,5.404,16.33,9.118c3.717,3.713,4.621,6.417,4.623,10.021
		c0,1.801-1.802,5.404-5.518,9.121l-3.602,3.605l-7.323-7.316c-13.63-13.623-25.341-16.321-34.461-7.196
		C758.206,627.935,755.504,632.44,758.208,638.748z M780.055,627.927c4.503,0.902,9.008,3.604,14.527,9.12l6.31,6.306l-3.603,3.605
		c-4.615,4.615-9.119,7.319-13.623,6.421c-5.408,0.003-9.121-1.913-13.628-6.418c-2.703-2.699-4.507-6.3-4.505-8.105
		c-0.002-1.798,0.783-4.614,3.486-7.318C772.62,627.933,775.55,627.029,780.055,627.927z M803.609,689.744l5.516-5.518l0.9,0.899
		c0.002,3.604,0.004,7.208,1.693,10.925c1.804,3.602,3.719,7.319,6.422,10.021c6.309,6.305,12.842,7.201,20.048,7.199
		c6.306-0.901,13.625-4.621,20.829-11.827c7.208-7.213,11.819-13.634,11.818-20.842c0.001-7.208-2.819-13.625-8.226-19.029
		c-6.421-6.417-12.726-9.115-19.935-7.311l24.54-24.558l-6.421-6.417l-61.802,61.841L803.609,689.744z M844.478,659.665
		c4.504-0.902,9.123,1.916,13.628,6.415c3.604,3.603,5.297,8.896,4.508,13.514c-0.785,4.615-4.5,10.135-9.905,15.541
		c-5.401,5.408-11.933,8.114-16.436,9.018c-4.504,0.9-9.91-0.9-13.516-4.503c-4.619-4.618-7.324-9.117-6.422-13.622
		c0.899-4.51,4.498-9.911,10.916-16.335C833.555,663.383,839.07,659.666,844.478,659.665z M900.792,683.298
		c0,1.799,0.9,2.699,1.803,3.6c0.9,0.9,1.8,1.801,3.603,1.803c1.803,0.001,2.703-0.9,4.503-2.705
		c1.802-1.802,2.815-2.815,2.816-4.619c-0.004-1.799-0.903-2.703-1.805-3.602c-0.901-0.901-1.802-1.799-3.603-1.803
		c-1.802,0.004-2.814,1.018-4.617,2.821C902.593,679.69,901.692,682.394,900.792,683.298z M855.316,741.416l43.566-43.593
		l-6.308-6.305l-43.568,43.594L855.316,741.416z M879.866,745.913c-1.687,5.52-1.574,10.813-0.783,15.43
		c0.79,4.615,3.494,9.122,7.21,12.837c6.309,6.305,13.63,7.992,20.948,8.101c7.208,0,14.415-3.611,21.731-10.93
		c6.304-6.309,10.919-14.532,10.917-21.74c0.784-8.218-1.805-14.638-8.114-20.942c-6.421-6.419-13.741-8.104-20.949-8.104
		c-7.32-0.106-14.639,3.61-21.845,10.821C884.481,735.889,881.666,740.513,879.866,745.913z M911.727,728.678
		c5.406-0.006,9.913,0.896,14.53,5.51c4.506,4.505,6.31,9.91,5.409,14.414c0.116,5.518-3.599,11.034-9.004,16.443
		c-5.401,5.406-11.819,8.225-16.438,9.016c-5.403-0.002-9.794-0.788-14.413-5.402c-4.618-4.615-6.423-10.021-5.525-14.523
		c-0.001-5.407,3.712-10.926,9.116-16.331C900.807,732.393,907.227,729.576,911.727,728.678z M918.962,805.023
		c-0.001,1.801,1.8,3.603,2.703,4.505c1.802,1.801,3.381,1.8,5.405,1.801c2.027-0.006,2.926-0.903,4.731-2.706
		c1.801-1.804,2.698-2.702,2.588-4.619c-0.002-1.799-0.001-3.604-1.804-5.401c-1.802-1.804-3.606-1.802-5.406-1.802
		c-1.803,0-2.701,0.899-4.501,2.703C919.974,802.21,918.959,803.224,918.962,805.023z M925.278,842.184
		c0.115,5.519,3.721,10.921,9.128,16.326c8.223,8.214,14.643,12.835,20.95,13.732c6.307,0.897,11.822-1.019,16.325-5.526
		c3.603-3.602,4.616-8.22,5.517-12.726c-0.905-4.505-3.722-9.117-8.229-13.621l-8.222-8.218c-2.703-2.703-5.406-3.604-5.408-5.404
		c0.001-1.805-0.001-3.604,0.901-4.507c1.801-1.801,5.403-1.802,9.91-0.901l3.604,3.601c4.618,4.615,10.137,8.106,15.545,8.103
		c5.403,0,10.021-0.791,14.525-5.295c1.914-1.915,3.714-3.718,4.612-6.421c1.802-1.804,1.688-3.721,1.689-5.52l9.124,7.318
		l4.503-4.508l-14.532-14.524c-0.788-2.814-2.59-4.616-5.293-7.318c-4.618-4.615-10.139-8.102-15.544-8.099
		c-5.519-0.112-10.924,1.692-15.426,6.195c-2.813,2.816-4.728,6.311-5.516,9.124c-0.787,2.815-0.783,6.42,1.018,10.023
		c-2.701-0.9-4.617-0.79-7.319,0.112c-2.703,0.901-3.605,1.804-5.405,3.606c-0.903,0.902-2.703,2.706-2.7,4.506
		c-0.899,2.703,0.002,3.604,0.001,5.405c-3.606-3.603-6.535-4.502-11.037-3.599c-4.503,0.902-7.207,1.804-9.91,4.509
		C924.486,832.16,922.577,837.68,925.278,842.184z M942.617,830.468c2.705,0.899,6.307,2.699,9.01,5.402l8.223,8.218
		c3.606,3.604,5.41,7.206,6.311,9.909c0.002,1.799,0.001,3.6-2.702,6.305c-2.7,2.704-5.29,3.492-9.909,2.709
		c-4.616-0.789-10.021-4.391-15.541-9.909c-3.606-3.602-5.409-7.203-6.31-9.906c-0.792-2.814,0.108-5.515,2.81-8.224
		C937.211,832.268,939.915,831.367,942.617,830.468z M984.386,797.682c3.604,0.001,7.208,1.801,10.023,4.615
		c6.308,6.306,6.201,13.62-0.105,19.932c-6.305,6.308-12.613,5.409-18.92-0.894c-2.816-2.814-4.617-6.417-4.619-10.022
		c-0.001-3.603,1.799-7.208,4.614-10.023C978.08,798.588,981.683,796.783,984.386,797.682z M995.33,861.304
		c-1.799,5.406-0.784,11.602,0.006,16.219c0.79,4.615,3.605,9.233,7.211,12.836c6.307,6.303,13.74,8.102,20.948,8.101
		c7.206-0.002,14.416-3.609,21.73-10.931c6.306-6.306,10.918-14.529,10.918-21.736c0.895-8.11-1.807-14.642-8.114-20.945
		c-6.421-6.419-13.743-8.104-20.95-8.102c-7.208,0.005-14.526,3.721-21.732,10.934C1000.846,852.181,997.13,855.901,995.33,861.304z
		 M1027.981,844.854c5.406-0.003,10.024,1.01,14.531,5.516c4.506,4.501,6.421,10.02,5.521,14.524
		c0.003,5.403-3.712,10.922-9.117,16.328c-5.401,5.409-11.821,8.226-16.326,9.13c-5.515-0.11-10.02-1.014-14.525-5.515
		c-4.507-4.505-6.423-10.021-5.526-14.525c0-5.405,3.712-10.926,9.116-16.332C1017.061,848.569,1022.58,844.854,1027.981,844.854z
		 M1039.833,925.817l5.516-5.52l0.9,0.901c0.001,3.604,0.001,7.205,1.692,10.924c1.803,3.599,3.606,7.206,6.423,10.02
		c6.307,6.303,12.728,7.091,20.046,7.202c6.305-0.904,13.626-4.625,20.83-11.834c7.206-7.209,11.932-13.515,11.817-20.839
		c-0.114-7.314-2.819-13.622-8.226-19.026c-6.421-6.416-12.729-9.119-19.936-7.315l24.541-24.555l-6.42-6.418l-61.804,61.846
		L1039.833,925.817z M1079.799,894.836c4.504-0.902,9.009,1.801,13.629,6.413c3.605,3.605,5.407,9.011,4.508,13.515
		c-0.896,4.503-4.613,10.021-10.018,15.432c-5.404,5.403-10.919,9.126-15.425,10.026c-4.501,0.902-9.907-0.898-13.512-4.5
		c-4.621-4.618-7.324-9.119-6.426-13.626c0.901-4.505,4.501-9.909,10.918-16.33C1069.778,899.459,1075.294,895.741,1079.799,894.836
		z M1085.229,971.181c0,1.808,1.802,3.611,2.704,4.51c1.802,1.801,3.493,1.911,5.407,1.802c1.914-0.115,2.813-1.018,4.617-2.82
		c1.802-1.804,2.699-2.703,2.702-4.502c-0.004-1.803-0.002-3.607-1.805-5.408c-1.802-1.8-3.604-1.796-5.407-1.801
		c-1.802,0.005-2.701,0.901-4.502,2.702C1086.242,968.368,1085.228,969.382,1085.229,971.181z M1107.872,992.015l6.42,6.414
		l22.742-22.756c5.404-5.406,10.019-8.222,14.523-9.125c4.503-0.901,8.106,0.897,12.726,5.513c3.606,3.604,5.408,7.207,4.511,9.911
		c-0.904,2.701-2.701,6.307-6.418,10.025l-28.142,28.16l6.421,6.415l24.541-24.556c4.502-4.506,9.118-7.321,13.622-8.228
		c4.504-0.901,8.107,0.898,12.726,5.514c3.606,3.604,5.409,7.206,4.509,9.91c-0.901,2.704-2.698,6.307-6.416,10.027l-28.143,28.161
		l6.421,6.416l28.141-28.162c5.519-5.518,8.218-10.025,8.104-15.548c0.897-4.502-2.705-9.904-7.21-14.409
		c-2.816-2.814-6.421-6.414-10.025-6.415c-3.603,0.001-8.109-0.897-10.813,0.001c1.688-7.317,0.784-13.622-6.425-20.83
		c-2.815-2.812-5.52-3.713-9.124-5.514c-3.604-1.798-7.206-1.799-9.91-0.895l5.404-7.213l-5.519-5.515L1107.872,992.015
		L1107.872,992.015z M1184.247,1071.941l30.969-5.528l-6.411,30.07l7.21,7.207l6.405-39.081l37.161-6.316l-7.208-7.206
		l-28.152,4.512l4.495-28.152l-7.322-7.316l-5.394,36.26l-39.074,6.433L1184.247,1071.941z"/>
</g>
</svg>
