<?xml version="1.0" encoding="utf-8"?>
<!-- Generator: Adobe Illustrator 14.0.0, SVG Export Plug-In . SVG Version: 6.00 Build 43363)  -->
<!DOCTYPE svg PUBLIC "-//W3C//DTD SVG 1.1//EN" "http://www.w3.org/Graphics/SVG/1.1/DTD/svg11.dtd">
<svg version="1.1"
	 id="svg8" xmlns:dc="http://purl.org/dc/elements/1.1/" xmlns:cc="http://creativecommons.org/ns#" xmlns:rdf="http://www.w3.org/1999/02/22-rdf-syntax-ns#" xmlns:svg="http://www.w3.org/2000/svg" xmlns:sodipodi="http://sodipodi.sourceforge.net/DTD/sodipodi-0.dtd" xmlns:inkscape="http://www.inkscape.org/namespaces/inkscape" sodipodi:docname="enciclo.svg" inkscape:version="0.92.4 (5da689c313, 2019-01-14)"
	 xmlns="http://www.w3.org/2000/svg" xmlns:xlink="http://www.w3.org/1999/xlink" x="0px" y="0px" width="1133.858px"
	 height="1133.858px" viewBox="3514.071 74.076 1133.858 1133.858" enable-background="new 3514.071 74.076 1133.858 1133.858"
	 xml:space="preserve">
<sodipodi:namedview  id="base" showgrid="false" pagecolor="#ffffff" inkscape:cy="1106.8223" inkscape:cx="1346.0429" inkscape:zoom="0.1400905" borderopacity="1.0" bordercolor="#666666" inkscape:window-maximized="1" inkscape:window-width="1280" inkscape:window-y="-8" inkscape:window-x="-8" inkscape:pageshadow="2" inkscape:current-layer="layer1" inkscape:pageopacity="0.0" inkscape:document-units="mm" inkscape:window-height="962">
	</sodipodi:namedview>
<path id="layer1" transform="translate(-16.867708,-379.86771)" inkscape:groupmode="layer" inkscape:label="Capa 1" fill="none" stroke="#000000" stroke-width="0.25" d="
	M3632.826,454.891c14.011,1.595,29.796,11.695,46.995,29.189c16.465,16.749,25.197,31.587,26.925,45.258
	c1.736,12.934-4.288,26.907-19.177,41.544l-25.311,24.882l-75.745-77.046l-17.119,16.831c-8.19,8.051-10.846,16.519-8.707,25.396
	c1.766,9.243,8.694,19.266,19.672,30.432c10.611,10.793,24.914,21.62,43.645,32.482l-16.376,16.099
	c-17.256-10.85-32.649-23.53-45.457-36.557c-34.396-34.988-40.422-64.197-16.972-87.25l45.036-44.275
	C3604.378,457.971,3618.819,452.557,3632.826,454.891z M3600.658,504.813l54.888,55.832l17.865-17.564
	c6.701-6.587,9.343-13.576,7.559-20.605c-1.787-7.028-6.884-15.19-16.764-25.24c-9.149-9.305-17.956-15.286-24.951-17.191
	c-6.625-2.27-13.659,0.253-20.732,7.206L3600.658,504.813z M3720.279,760.504l-21.225-21.589l83.002-81.6
	c2.605-2.561,4.839-4.756,6.707-7.324c1.495-2.202,2.258-5.148,2.655-8.466c0.77-3.684-0.303-7.753-2.48-12.201
	c-2.914-4.454-6.194-9.279-11.682-14.863c-12.076-12.284-21.608-19.746-28.239-21.279c-6.631-1.532-14.403,0.985-21.848,8.303
	l-82.629,81.233l-20.857-21.214l114.639-112.703l20.857,21.215l-14.143,13.905c13.354-8.007,31.378-0.84,53.698,21.865
	c14.638,14.889,22.279,27.872,22.185,38.943c-0.095,11.072-4.983,21.735-16.149,32.711l-84.12,82.698L3720.279,760.504z
	 M3876.646,688.755c4.762,4.102,9.16,7.83,13.192,11.186c3.665,2.984,8.422,7.823,14.276,13.777
	c10.978,11.167,20.106,22.687,28.852,36.049l-15.632,15.368c-9.099-15.21-18.947-28.95-29.925-40.116
	c-11.343-11.538-20.517-17.891-27.153-18.685c-5.899-0.79-13.683,3.205-22.989,12.353l-46.526,45.74
	c-8.188,8.05-11.949,16.137-10.529,22.793c1.054,6.282,7.981,16.307,20.057,28.59c10.979,11.166,23.81,21.24,38.13,29.853
	l-16.004,15.732c-12.113-7.854-25.67-19.412-39.209-33.182c-6.586-6.7-12.075-12.283-15.729-16.742
	c-3.66-3.722-7.305-8.922-10.575-15.224c-4.006-6.31-5.432-12.226-5.388-17.392c0.043-5.168,1.198-10.694,4.207-17.313
	c3.01-6.618,7.868-13.59,14.94-20.542l42.431-41.713c5.956-5.855,11.904-10.972,17.469-14.247c5.93-2.902,11.115-5.072,16.653-5.393
	c5.541-0.322,10.336,0.087,14.385,1.229C3866.002,681.653,3870.778,684.277,3876.646,688.755z M3963.682,740.063l21.223,21.587
	l22.332-21.955l-21.222-21.587L3963.682,740.063z M3830.061,871.427l21.223,21.588l114.639-112.702l-21.223-21.589L3830.061,871.427
	z M4006.546,820.89c4.763,4.101,9.525,8.201,13.192,11.185c4.031,3.355,8.789,8.195,14.643,14.149
	c10.612,10.795,20.106,22.687,28.851,36.048l-15.632,15.368c-9.098-15.21-19.313-29.322-29.924-40.116
	c-11.709-11.91-20.881-18.264-27.153-18.686c-6.265-1.16-13.684,3.205-22.987,12.353l-46.527,45.741
	c-8.188,8.05-11.948,16.138-10.895,22.42c1.421,6.656,8.348,16.681,20.423,28.963c10.612,10.794,23.81,21.241,38.13,29.853
	l-16.004,15.734c-12.479-8.228-25.67-19.411-39.209-33.184c-6.954-7.071-12.442-12.655-15.73-16.742
	c-3.659-3.722-7.67-9.293-10.94-15.595c-3.638-5.937-5.066-11.854-5.022-17.021c0.044-5.167,1.198-10.693,3.842-17.683
	c3.01-6.619,8.233-13.218,15.305-20.171l42.431-41.714c5.956-5.855,11.538-11.343,17.468-14.246
	c5.564-3.274,11.116-5.073,16.654-5.394c5.541-0.321,10.335,0.087,14.384,1.23C3996.27,814.159,4000.679,816.41,4006.546,820.89z
	 M3960.327,1003.933l20.858,21.218l165.632-162.835l-20.858-21.216L3960.327,1003.933z M4080.353,1125.28
	c-6.245-3.377-11.747-7.48-16.51-11.584c-4.764-4.099-10.618-10.056-17.936-17.499c-9.148-9.305-16.093-17.116-20.473-23.058
	c-4.75-5.579-8.75-12.624-11.268-20.396c-2.89-7.407-2.454-15.152,0.56-22.509c3.389-7.723,8.997-16.163,17.93-24.946l39.827-39.154
	c7.444-7.318,14.875-13.159,21.916-16.421c6.675-3.635,12.958-4.688,18.131-5.382c5.54-0.322,11.061,1.57,17.672,5.317
	c6.246,3.375,11.745,7.481,16.145,11.21c4.764,4.101,10.617,10.056,17.935,17.5c7.321,7.445,13.538,13.772,17.194,18.234
	c4.018,4.832,8.035,9.664,11.298,16.704c3.27,6.302,5.066,11.854,4.65,17.388c-0.417,5.532-1.943,11.425-5.325,18.407
	c-3.745,6.614-9.35,14.314-16.791,21.634l-39.828,39.153c-6.701,6.586-14.125,11.69-20.428,14.959
	c-6.668,2.896-12.956,4.687-18.124,4.645C4091.759,1129.436,4085.868,1127.912,4080.353,1125.28z M4111.645,1091.59l46.526-45.739
	c10.421-10.246,14.551-18.7,13.132-25.358c-1.781-7.026-8.718-16.313-20.794-28.597c-12.076-12.282-20.873-19-27.872-20.906
	c-6.258-1.9-15.154,2.455-25.575,12.701l-46.526,45.739c-4.839,4.757-8.566,9.155-10.446,13.2
	c-1.881,4.041-1.919,8.471-0.481,12.914c1.811,4.074,3.255,7.778,6.177,11.495c2.921,3.714,7.311,8.179,13.532,14.507
	c5.855,5.958,10.245,10.421,13.911,13.407c3.299,2.61,7.71,4.862,11.387,6.373c4.417,1.511,8.845,1.55,12.921-0.261
	c4.075-1.813,8.164-5.099,13.375-10.219L4111.645,1091.59z M4360.941,1332.515c-2.561-2.606-3.635-6.678-2.858-11.098
	c1.136-3.313,22.546-90.236-33.076-146.811c-13.169-13.398-30.425-24.251-50.291-31.8l-5.515-2.631l1.425,5.915
	c1.073,4.07,2.493,10.725,3.168,18.114c3.333,42.103-6.571,78.19-28.953,106.049l-1.124,1.838c-2.625,4.775-9.285,6.933-14.062,4.31
	c-5.881-3.005-8.039-9.665-5.408-15.182c0.385-1.84,1.503-2.938,2.997-5.14c7.084-8.429,28.724-35.556,24.391-90.588
	c-0.673-7.388-2.823-14.787-3.883-20.335l-0.347-2.584c-0.361-1.112-0.355-1.85-0.714-2.96c-1.419-6.654,1.224-13.646,6.43-18.028
	c4.461-3.652,12.245-7.648,19.605-5.371c28.339,9.469,51.474,23.321,69.404,41.561c64.402,65.508,39.542,167.533,39.163,168.638
	c-1.524,5.893-7.829,9.161-13.722,7.635C4365.365,1333.289,4363.895,1332.539,4360.941,1332.515z M4518.112,1556.413
	c-5.925,2.163-12.549-0.106-15.084-5.664c-2.538-5.558-0.272-11.444,4.918-14.352l1.116-1.099
	c27.871-22.277,64.123-31.564,106.529-27.143c7.008,0.428,13.639,1.962,18.056,3.475l5.528,1.155l-1.799-5.552
	c-7.947-20.002-18.14-37.066-31.678-50.836c-8.053-8.188-18.322-15.658-28.977-21.283c-3.672-2.246-5.859-5.22-8.385-12.254
	l-1.439-4.441l-3.351,3.295c-3.722,3.659-7.417,4.365-12.571,2.847c-45.643-14.415-90.765-3.726-91.137-3.362
	c-3.331,1.079-7.382-0.061-10.308-3.039c-1.467-1.49-2.556-3.343-2.909-5.192c-1.793-6.289,1.95-12.164,8.239-13.955
	c1.11-0.361,44.382-10.695,92.266,0.786l2.946,0.763l1.513-4.417c3.774-9.563,6.411-15.815,12.712-19.084
	c2.965-1.451,5.915-1.428,9.595,0.082c8.095,3.021,9.854,13.003,13.429,27.057l-0.375,0.368c1.081,3.331,1.779,7.767,3.23,10.731
	l-0.004,0.735l1.468,0.753c33.79,19.479,57.506,51.792,70.8,94.352c2.889,7.407-1.601,14.748-5.331,19.147
	c-4.846,5.495-11.506,7.653-17.397,6.125c-1.471-0.751-3.314-1.136-4.788-1.147l-0.733-0.744c-6.264-1.161-13.63-3.437-20.636-3.868
	c-54.951-5.266-82.07,15.543-90.984,22.11C4519.971,1554.583,4519.226,1555.316,4518.112,1556.413z M4327.97,1217.078
	c4.094-4.025,3.776-10.303,0.118-14.026c-3.659-3.721-9.929-4.145-14.024-0.117c-3.724,3.658-3.778,10.303-0.12,14.022
	C4317.603,1220.68,4323.509,1220.729,4327.97,1217.078z M4578.256,1471.667c4.094-4.025,3.78-10.305,0.121-14.025
	c-4.025-4.095-10.297-4.517-14.393-0.491c-3.722,3.659-3.778,10.3,0.247,14.396
	C4567.89,1475.266,4574.164,1475.693,4578.256,1471.667z"/>
</svg>
