<?xml version="1.0" encoding="utf-8"?>
<!-- Generator: Adobe Illustrator 18.0.0, SVG Export Plug-In . SVG Version: 6.00 Build 0)  -->
<!DOCTYPE svg PUBLIC "-//W3C//DTD SVG 1.1//EN" "http://www.w3.org/Graphics/SVG/1.1/DTD/svg11.dtd">
<svg version="1.1"
	 id="svg8" xmlns:dc="http://purl.org/dc/elements/1.1/" xmlns:cc="http://creativecommons.org/ns#" xmlns:rdf="http://www.w3.org/1999/02/22-rdf-syntax-ns#" xmlns:svg="http://www.w3.org/2000/svg" xmlns:sodipodi="http://sodipodi.sourceforge.net/DTD/sodipodi-0.dtd" xmlns:inkscape="http://www.inkscape.org/namespaces/inkscape" sodipodi:docname="enciclovida_correo.svg" inkscape:version="0.92.4 (5da689c313, 2019-01-14)"
	 xmlns="http://www.w3.org/2000/svg" xmlns:xlink="http://www.w3.org/1999/xlink" x="0px" y="0px" viewBox="0 0 2267.7 2267.7"
	 enable-background="new 0 0 2267.7 2267.7" xml:space="preserve">
<sodipodi:namedview  borderopacity="1.0" bordercolor="#666666" showgrid="false" pagecolor="#ffffff" inkscape:cy="566.35025" inkscape:cx="922.73583" inkscape:zoom="0.1400905" id="base" inkscape:document-units="mm" inkscape:pageshadow="2" inkscape:window-x="-8" inkscape:current-layer="layer1" inkscape:window-height="962" inkscape:window-y="-8" inkscape:pageopacity="0.0" inkscape:window-width="1280" inkscape:window-maximized="1">
	</sodipodi:namedview>
<path id="path3713" inkscape:connector-curvature="0" fill="none" stroke="#000000" stroke-width="0.2646" d="M17.3,1133
	c7.6,9.5,18.7,13.2,31.9,13.2c5.5,0,11.1-1.8,14.8-1.8c5.5,0,9.2-1.8,13.2-3.9v-12.9c-9.5,3.7-18.7,5.5-28,5.5
	c-7.6,0-16.9-1.8-20.6-7.4s-7.4-12.9-7.4-24.3h59.6v-9.2c0-13.2-1.8-22.4-9.5-29.8c-5.5-7.4-15-11.3-26.1-11.3s-20.3,3.9-28,13.2
	c-7.4,9.2-11.1,20.6-11.1,35.4C6.2,1114.5,9.6,1123.5,17.3,1133z M28.6,1071.5c3.7-5.5,9-7.4,16.6-7.4s13.2,1.8,16.9,5.5
	c3.7,5.5,5.5,11.1,5.5,20.6H21.1C21.2,1082.6,24.9,1077.1,28.6,1071.5z M119.9,1144.3v-46.7c0-12.9,1.8-20.6,5.5-26.1
	c3.7-5.5,11.3-7.4,20.6-7.4c7.4,0,10.9,1.8,14.8,5.5s5.8,9.2,5.8,16.9v55.9h12.9v-57.8c0-11.3-1.8-18.7-7.4-24.3
	c-5.5-5.5-13.2-7.6-24.3-7.6c-5.5,0-11.3,2.1-16.9,3.9c-5.5,1.8-9.2,5.5-12.9,11.1l-1.8-12.9h-11.1v89.5H119.9z M216.7,1133
	c7.6,7.4,16.9,11.3,29.8,11.3c9.5,0,16.9-1.8,22.4-5.8v-11.1c-7.4,3.7-14.8,5.5-22.4,5.5c-9.2,0-14.8-1.8-20.3-9.2
	c-5.5-7.4-7.6-15-7.6-26.1c0-24.3,9.5-35.4,28-35.4c1.8,0,5.8,0,9.5,1.8c3.7,1.8,5.5,1.8,9.2,3.7l3.7-11.1c-1.8-1.8-5.5-2.1-9.2-3.9
	s-9.2-1.8-13.2-1.8c-14.8,0-24.3,3.9-31.7,13.2c-7.4,9.2-11.1,20.6-11.1,35.4C203.8,1114.5,209.1,1125.6,216.7,1133z M289.5,1038
	c1.8,1.8,3.7,1.8,5.5,1.8c1.8,0,3.7,0,5.5-1.8c1.8-1.8,1.8-3.7,1.8-7.4s0-5.8-1.8-7.6c-1.8-1.8-3.7-1.8-5.5-1.8
	c-1.8,0-3.7,0-5.5,1.8c-1.8,1.8-1.8,3.9-1.8,7.6C287.7,1032.5,287.7,1036.2,289.5,1038z M300.6,1144.3v-89.5h-12.9v89.5H300.6z
	 M338.1,1134.9c7.4,7.6,16.6,11.3,29.8,11.3c9.2,0,16.6-1.8,22.2-5.8v-11.1c-7.4,3.7-14.8,5.5-22.2,5.5c-9.5,0-15-1.8-20.6-9.2
	c-5.5-7.4-7.4-15-7.4-26.1c0-24.3,9.2-35.4,28-35.4c1.8,0,5.5,0,9.2,1.8s5.5,1.8,9.2,3.7l3.7-12.9c-1.8-1.8-5.5-2.1-9.2-3.9
	s-9.2-1.8-12.9-1.8c-15,0-24,3.9-31.7,13.2c-7.6,9.2-11.3,20.6-11.3,35.4C324.9,1114.5,330.7,1127.2,338.1,1134.9z M423.8,1144.3
	v-126.9h-13.2v126.9H423.8z M453.7,1123.8c3.7,7.4,9.2,12.9,14.8,16.6c5.5,3.9,13.2,5.8,20.6,5.8c12.9,0,22.4-5.8,29.8-13.2
	c7.4-7.4,11.1-18.5,11.1-33.5c0-12.9-3.7-26.1-11.1-33.5c-7.4-9.2-16.9-13.2-29.8-13.2c-13.2,0-22.4,5.8-29.8,13.2
	c-7.4,7.4-11.3,18.7-11.3,33.5C447.9,1108.7,449.7,1116.4,453.7,1123.8z M468.5,1073.4c5.5-5.5,11.1-9.2,20.6-9.2
	c9.2,0,16.6,3.7,20.6,9.2c5.5,5.5,7.4,15,7.4,26.1s-3.7,20.6-7.4,26.1c-5.8,5.5-11.3,9.2-20.6,9.2c-9.5,0-16.9-3.7-20.6-9.2
	c-5.5-5.5-7.4-15-7.4-26.1S464.8,1078.9,468.5,1073.4z M571.1,1144.3h16.6l33.5-89.5h-14.8c-11.3,29.8-18.7,50.2-22.4,59.6
	c-3.7,9.2-5.5,14.8-5.5,18.5c0-3.7-3.7-11.1-7.4-24.3l-18.7-53.9h-15L571.1,1144.3z M636.3,1038c1.8,1.8,3.7,1.8,5.5,1.8
	c1.8,0,3.7,0,5.5-1.8c1.8-1.8,1.8-3.7,1.8-7.4s0-5.8-1.8-7.6s-3.7-1.8-5.5-1.8c-1.8,0-3.7,0-5.5,1.8c-1.8,1.8-1.8,3.9-1.8,7.6
	C634.4,1032.5,634.4,1036.2,636.3,1038z M647.4,1144.3v-89.5h-12.9v89.5H647.4z M683,1134.9c7.4,7.6,16.6,11.3,27.7,11.3
	c13.2,0,22.4-3.7,28-13.2l2.1,11.3h11.1v-126.9h-13.2v46.7h-1.8c-5.5-9.2-15-13.2-28-13.2c-12.9,0-22.2,5.8-28,13.2
	c-5.5,9.2-9.2,20.6-9.2,35.4C671.6,1114.5,675.3,1125.6,683,1134.9z M692.2,1073.4c3.7-5.5,11.1-9.2,18.5-9.2
	c9.5,0,16.9,1.8,20.6,7.4c3.7,5.6,5.5,15,5.5,28v3.7c0,11.3-1.8,18.7-5.5,24.3c-3.7,5.6-11.1,7.4-20.6,7.4c-7.4,0-14.8-3.7-18.5-9.2
	c-3.7-5.5-5.5-15-5.5-26.1C686.7,1088.4,688.5,1078.9,692.2,1073.4z M783.5,1138.6c3.7,5.8,11.1,7.6,20.6,7.6
	c7.4,0,12.9-1.8,16.6-3.7c3.7-2.1,9.5-5.8,13.2-11.3l1.8,13.2h9.2v-61.7c0-9.2-1.8-16.6-7.4-22.2c-5.5-5.5-13.2-7.6-24.3-7.6
	c-3.7,0-9.2,0-14.8,2.1c-5.8,1.8-11.3,3.7-15,5.5l3.7,11.1c9.2-5.5,18.7-7.4,26.1-7.4c7.4,0,11.1,1.8,15,5.5c1.8,1.8,3.7,7.4,3.7,15
	v7.4h-15c-28,0-42.8,9.2-42.8,28C774.3,1127.5,776.1,1134.9,783.5,1138.6z M794.6,1105c5.8-3.7,13.2-5.5,24.3-5.5h13.2v7.4
	c0,9.5-1.8,16.9-7.6,20.6c-5.5,5.5-11.1,7.4-20.3,7.4c-5.5,0-11.3-1.8-13.2-3.7c-1.8-1.8-3.7-5.5-3.7-11.1
	C787.2,1112.7,790.9,1108.7,794.6,1105z M884.1,1142.5c11.3,11.1,26.1,16.6,46.7,16.6c13.2,0,24.3-3.7,35.4-7.4v-11.3
	c-11.1,5.8-24.3,7.6-35.4,7.6c-16.6,0-28-3.7-37.2-13.2c-9.5-9.2-13.2-22.2-13.2-39.1c0-11.1,1.8-22.4,7.6-31.7
	c3.7-9.2,10.9-15,20.3-20.6c9.5-5.5,18.7-7.4,31.7-7.4c9.5,0,16.9,1.8,29.8,5.5c7.6,3.7,13.2,9.2,16.9,16.9
	c3.7,7.4,5.5,16.9,5.5,26.1s-1.8,16.4-5.5,22.2c-3.7,5.8-7.4,9.5-12.9,9.5c-7.6,0-11.3-5.8-11.3-15v-1.8l1.8-39.1
	c-3.7,0-7.4-1.8-12.9-1.8c-5.5-1.8-9.5-1.8-13.2-1.8c-11.1,0-20.3,3.7-26.1,11.1c-5.5,7.4-9.2,16.9-9.2,28c0,9.2,3.5,16.9,7.4,22.4
	c3.9,5.5,11.3,7.4,18.7,7.4c5.5,0,11.3,0,15-3.7c3.7-3.7,7.4-5.5,9.2-11.3c0,5.8,5.5,9.5,7.4,11.3c1.8,1.8,5.5,3.7,11.3,3.7
	c5.5,0,11.1-1.8,14.8-5.5c3.7-3.7,7.4-9.5,9.2-15c1.8-5.5,3.7-12.9,3.7-20.3c0-11.3-1.8-22.4-7.4-31.9c-3.7-9.2-11.1-14.8-20.3-20.3
	c-9.5-5.5-20.6-7.6-31.9-7.6c-14.8,0-28,3.9-37.2,9.5c-9.2,5.5-18.7,14.8-24.3,26.1c-5.5,11.1-9.2,22.2-9.2,37.2
	C869.3,1116.4,872.7,1131.4,884.1,1142.5z M921.5,1073.4c3.7-5.5,9.2-7.4,16.6-7.4c5.8,0,9.5,0,13.2,1.8l-1.8,22.4
	c-1.8,16.6-7.6,26.1-18.7,26.1s-16.6-7.6-16.6-20.6C914.1,1086.6,917.8,1078.9,921.5,1073.4z M1033.4,1133
	c7.4,7.4,16.6,11.3,29.8,11.3c9.2,0,16.6-1.8,22.2-5.8v-11.1c-7.4,3.7-14.8,5.5-22.2,5.5c-9.5,0-16.9-3.7-20.6-9.2
	c-5.5-7.4-7.4-15-7.4-26.1c0-24.3,9.2-35.4,28-35.4c1.8,0,5.5,0,9.2,1.8c3.7,1.8,5.5,1.8,9.2,3.7l3.7-11.1c-1.8-1.8-5.5-2.1-9.2-3.9
	c-3.7-1.8-9.2-1.8-12.9-1.8c-15,0-24.3,5.8-31.7,13.2c-7.6,9.2-11.3,20.6-11.3,35.4C1020.2,1114.5,1022,1125.6,1033.4,1133z
	 M1104.1,1123.8c3.7,7.4,9.5,12.7,15,16.6c5.5,3.9,12.9,5.8,20.3,5.8c13.2,0,22.4-5.8,29.8-13.2c7.6-7.4,11.3-18.5,11.3-33.5
	c0-12.9-3.7-26.1-11.3-33.5c-7.4-9.2-16.6-13.2-29.8-13.2c-12.9,0-22.2,5.8-29.8,13.2c-7.4,7.4-11.1,18.7-11.1,33.5
	C1098.6,1108.7,1100.4,1116.4,1104.1,1123.8z M1121,1073.4c5.5-5.5,11.1-9.2,20.3-9.2c9.5,0,16.9,3.7,20.6,9.2
	c5.5,5.5,7.4,15,7.4,26.1s-3.7,20.6-7.4,26.1c-5.5,5.5-11.3,9.2-20.6,9.2c-9.2,0-16.6-3.7-20.3-9.2c-5.8-5.5-7.6-15-7.6-26.1
	C1113.3,1088.4,1115.2,1078.9,1121,1073.4z M1219.7,1144.3v-46.7c0-12.9,3.7-20.6,7.4-26.1c3.7-5.5,11.3-7.4,20.6-7.4
	c5.5,0,11.3,1.8,15,5.5s5.5,9.2,5.5,16.9v57.8h12.9v-57.8c0-13.2-5.5-18.7-11.1-24.3c-5.6-5.6-13.2-7.4-24.3-7.4
	c-5.5,0-13.2,1.8-16.9,3.7c-3.7,1.8-9.2,5.5-11.1,9.2l-1.8-12.9h-11.1v89.5L1219.7,1144.3L1219.7,1144.3z M1312.8,1138.6
	c3.7,5.8,11.3,7.6,20.6,7.6c7.4,0,12.9-1.8,16.9-3.7c3.7-2.1,9.2-5.8,12.9-11.3l1.8,13.2h9.2v-61.7c0-9.2-3.7-16.6-9.2-22.2
	c-5.5-5.5-12.9-7.6-24.3-7.6c-3.7,0-9.2,0-14.8,2.1c-5.5,1.8-11.3,3.7-15,5.5l3.7,11.1c9.5-5.5,18.5-7.4,26.1-7.4
	c7.6,0,11.3,1.8,15,5.5c1.8,1.8,3.7,7.4,3.7,15v7.4h-15c-28,0-42.8,9.2-42.8,28C1301.7,1127.5,1303.6,1134.9,1312.8,1138.6z
	 M1324.2,1105c5.5-3.7,12.9-5.5,24.3-5.5h12.9v7.4c0,9.5-1.8,16.9-7.4,20.6c-5.5,5.5-11.3,7.4-20.6,7.4c-5.5,0-11.1-1.8-12.9-3.7
	c-1.8-1.8-3.9-5.5-3.9-11.1C1316.5,1112.7,1318.6,1108.7,1324.2,1105z M1411.8,1144.3V1133h1.8c3.7,3.7,7.4,7.4,12.9,9.5
	c5.5,1.8,11.3,3.7,16.9,3.7c12.9,0,20.6-5.8,28-13.2c5.5-7.4,9.2-18.7,9.2-33.5s-1.8-26.1-9.2-33.5c-7.4-7.4-16.9-11.1-28-11.1
	c-13.2,0-22.4,3.7-28,12.9v-50.4h-13.2v126.9H1411.8z M1422.9,1071.5c3.7-5.5,11.3-7.4,20.6-7.4c7.4,0,14.6,3.7,18.5,9.2
	c3.9,5.5,5.8,15,5.8,26.1s-3.9,20.6-7.6,26.1c-3.7,5.5-11.1,9.2-18.5,9.2c-9.5,0-16.9-1.8-20.6-7.4c-3.7-5.6-5.5-14.8-5.5-28
	C1415.5,1086.6,1417.3,1077.1,1422.9,1071.5z M1504.9,1038c1.8,1.8,3.7,1.8,5.5,1.8s3.7,0,5.5-1.8c1.8-1.8,1.8-3.7,1.8-7.4
	s0-5.8-1.8-7.6s-3.7-1.8-5.5-1.8s-3.7,0-5.5,1.8c-1.8,1.8-1.8,3.9-1.8,7.6C1503.1,1032.5,1504.9,1036.2,1504.9,1038z M1517.9,1144.3
	v-89.5H1505v89.5H1517.9z M1547.7,1123.8c3.9,7.4,9.5,12.7,15,16.6c5.5,3.9,12.9,5.8,20.6,5.8c12.9,0,22.2-5.8,29.8-13.2
	c7.4-7.4,11.1-18.5,11.1-33.5c0-12.9-3.7-26.1-11.1-33.5c-7.6-9.2-16.9-13.2-29.8-13.2c-13.2,0-22.4,5.8-29.8,13.2
	c-7.6,7.4-11.3,18.7-11.3,33.5C1542.1,1108.7,1544,1116.4,1547.7,1123.8z M1562.7,1073.4c5.5-5.5,11.1-9.2,20.6-9.2
	c9.2,0,16.6,3.7,20.3,9.2c5.8,5.5,7.6,15,7.6,26.1s-3.7,20.6-7.6,26.1c-5.5,5.5-10.9,9.2-20.3,9.2s-16.9-3.7-20.6-9.2
	c-5.5-5.5-7.4-15-7.4-26.1S1559,1078.9,1562.7,1073.4z M1648.4,1144.3c1.8,1.8,5.5,1.8,7.4,1.8c3.7,0,5.3-1.6,7.4-3.7
	s2.1-3.9,2.1-7.6c0-3.7,0-5.5-2.1-7.4c-1.8-1.8-3.7-3.7-7.4-3.7c-3.7,0-5.5,1.8-7.4,3.7c-1.8,1.8-1.8,3.7-1.8,7.4
	C1646.6,1140.4,1646.6,1142.5,1648.4,1144.3z M1693.1,1176c5.8,5.5,15,7.4,26.1,7.4c16.9,0,28.2-1.8,35.6-7.4
	c7.4-5.5,11.1-13.2,11.1-22.4c0-7.4-3.7-13.2-7.4-18.7c-5.5-3.7-13.2-5.5-22.4-5.5h-16.9c-5.5,0-9.2,1.8-11.1,0s-3.7-3.7-3.7-5.5
	c0-3.7,3.7-7.4,9.2-11.1h7.4c9.5,0,18.7-2.1,24.3-7.6c5.6-5.5,9.5-11.1,9.5-20.3c0-3.9,0-7.6-1.8-11.3c0-3.7-2.1-5.5-3.9-7.4
	l16.9-1.8v-9.2h-29.9c-3.7-2.1-7.4-2.1-12.9-2.1c-9.5,0-18.7,2.1-24.3,7.6c-5.8,5.5-9.5,12.9-9.5,22.2c0,5.8,1.6,11.3,3.7,15
	s5.8,7.4,11.3,9.2c-3.7,1.8-5.5,3.9-7.4,7.6c-1.8,3.7-1.8,5.5-1.8,9.2c0,1.8,0,5.5,1.8,7.4c1.8,3.7,3.7,3.7,5.5,5.5
	c-7.4,0-11.3,2.1-15,7.6c-3.7,5.5-5.5,9.2-5.5,14.8C1682,1166.5,1685.7,1174.2,1693.1,1176z M1698.8,1146.2
	c3.7-1.8,9.2-3.7,14.8-3.7h16.9c7.4,0,12.9,1.8,16.6,3.7c1.8,1.8,3.7,3.7,3.7,9.2c0,5.5-1.8,9-7.4,12.9c-5.6,3.9-14.8,5.8-26.1,5.8
	c-7.4,0-12.9-1.8-16.6-3.7c-3.7-2.1-5.5-5.8-5.5-11.3C1695.1,1153.6,1697,1149.9,1698.8,1146.2z M1708.1,1069.7
	c3.7-3.7,9.2-5.5,15-5.5c12.9,0,20.3,7.6,20.3,20.6s-7.4,18.5-20.3,18.5c-5.8,0-11.3-1.8-15-5.5s-5.5-9.2-5.5-15
	C1702.5,1077.1,1704.4,1071.5,1708.1,1069.7z M1784.6,1123.8c3.7,7.4,11.1,12.7,16.6,16.6s13.2,5.8,20.6,5.8
	c12.9,0,22.4-5.8,29.8-13.2c7.4-7.4,11.1-18.5,11.1-33.5c0-12.9-3.7-26.1-11.1-33.5c-7.4-9.2-16.9-13.2-29.8-13.2
	c-13.2,0-22.4,5.8-29.8,13.2c-7.4,7.4-11.1,18.7-11.1,33.5C1780.9,1108.7,1780.9,1116.4,1784.6,1123.8z M1801.2,1073.4
	c5.5-5.5,11.3-9.2,20.6-9.2c9.2,0,16.9,3.7,20.6,9.2c5.5,5.5,7.4,15,7.4,26.1s-3.7,20.6-7.4,26.1c-5.8,5.5-11.3,9.2-20.6,9.2
	c-9.2,0-16.9-3.7-20.6-9.2c-5.5-5.5-7.4-15-7.4-26.1S1795.7,1078.9,1801.2,1073.4z M1896.5,1144.3V1133h1.8
	c3.7,3.7,7.4,7.4,12.9,9.5c5.5,1.8,11.1,3.7,16.9,3.7c12.9,0,20.3-5.8,28-13.2c5.5-7.4,9.2-18.7,9.2-33.5s-1.6-26.1-9.2-33.5
	c-7.6-7.4-16.9-11.1-28-11.1c-13.2,0-22.4,3.7-28,12.9v-50.4h-13.2v126.9H1896.5z M1905.7,1071.5c3.7-5.5,11.1-7.4,20.6-7.4
	c7.4,0,14.8,3.7,18.5,9.2c3.7,5.5,5.5,15,5.5,26.1s-1.8,20.6-5.5,26.1c-3.7,5.5-11.1,9.2-18.5,9.2c-9.5,0-16.9-1.8-20.6-7.4
	c-3.7-5.5-5.5-14.8-5.5-28C1900.2,1086.6,1902,1077.1,1905.7,1071.5z M1989.6,1144.3c1.8,1.8,5.5,1.8,7.4,1.8c3.7,0,5.5-1.6,7.4-3.7
	c1.8-2.1,1.8-3.9,1.8-7.6c0-3.7,0-5.5-1.8-7.4c-1.8-1.8-3.7-3.7-7.4-3.7s-5.5,1.8-7.4,3.7c-1.8,1.8-1.8,3.7-1.8,7.4
	C1987.8,1140.4,1987.8,1142.5,1989.6,1144.3z M2034.3,1142.5h13.2v-46.7c0-11.1,1.8-18.7,5.5-24.3c3.7-5.6,9.2-7.4,18.7-7.4
	c7.4,0,12.9,1.8,14.8,5.5s3.7,9.2,3.7,16.9v57.8h13.2v-50.4c0-9.2,1.8-16.9,5.5-22.4c3.7-5.5,9.2-7.4,18.7-7.4
	c7.4,0,12.9,1.8,14.8,5.5s3.7,9.2,3.7,16.9v57.8h13.2v-57.8c0-11.3-1.8-18.7-7.6-24.3c-3.7-5.5-12.9-7.4-22.2-7.4
	c-5.8,0-13.2,0-16.9,3.7s-9.2,7.4-11.1,11.1c-5.8-9.2-13.2-14.8-28-14.8c-5.8,0-9.5,1.8-15,3.7c-5.5,1.8-9.2,5.5-11.1,9.2l-1.8-12.9
	h-11.3v89.5L2034.3,1142.5L2034.3,1142.5z M2194.7,1146.2l26.1-37.4l24.3,37.4h14.8l-33.5-46.7l31.7-44.6h-14.8l-24.3,33.5
	l-24.3-33.5h-15l31.7,42.8l-33.5,46.7L2194.7,1146.2z"/>
</svg>
