<?xml version="1.0" encoding="utf-8"?>
<!-- Generator: Adobe Illustrator 18.0.0, SVG Export Plug-In . SVG Version: 6.00 Build 0)  -->
<!DOCTYPE svg PUBLIC "-//W3C//DTD SVG 1.1//EN" "http://www.w3.org/Graphics/SVG/1.1/DTD/svg11.dtd">
<svg version="1.1"
	 id="svg8" xmlns:dc="http://purl.org/dc/elements/1.1/" xmlns:cc="http://creativecommons.org/ns#" xmlns:rdf="http://www.w3.org/1999/02/22-rdf-syntax-ns#" xmlns:svg="http://www.w3.org/2000/svg" xmlns:sodipodi="http://sodipodi.sourceforge.net/DTD/sodipodi-0.dtd" xmlns:inkscape="http://www.inkscape.org/namespaces/inkscape" sodipodi:docname="extinto-en-estado-silvestre-ew.svg" inkscape:version="0.92.4 (5da689c313, 2019-01-14)"
	 xmlns="http://www.w3.org/2000/svg" xmlns:xlink="http://www.w3.org/1999/xlink" x="0px" y="0px" viewBox="0 0 2267.7 2267.7"
	 enable-background="new 0 0 2267.7 2267.7" xml:space="preserve">
<sodipodi:namedview  borderopacity="1.0" bordercolor="#666666" showgrid="false" pagecolor="#ffffff" inkscape:cy="940.52369" inkscape:cx="1188.0825" inkscape:zoom="0.1400905" id="base" inkscape:document-units="mm" inkscape:pageshadow="2" inkscape:window-x="-8" inkscape:current-layer="layer1" inkscape:window-height="962" inkscape:window-y="-8" inkscape:pageopacity="0.0" inkscape:window-width="1280" inkscape:window-maximized="1">
	</sodipodi:namedview>
<path fill="none" stroke="#000000" stroke-width="0.2646" d="M2241,6.2H1065.6v2.2C474.6,43.7,6.2,534,6.2,1133.8
	c0,622.8,504.8,1127.7,1127.6,1127.7s1127.7-504.9,1127.7-1127.7V26.6C2261.5,15.3,2252.3,6.2,2241,6.2z M809.2,887.9H534.9v165.5
	h255.2v131H534.9v194.4h274.3v131.9H375.1V756.9h434.1V887.9z M1700.7,1510.7h-182l-102.1-396c-3.8-14.1-10.2-43.2-19.3-87.4
	c-9.1-44.2-14.4-73.8-15.7-88.9c-2.1,18.5-7.3,48.4-15.5,89.4c-8.3,41.1-14.6,70.4-19.1,87.9l-101.6,394.9h-181.5L871.6,756.9h157.3
	l96.4,411.5c16.8,76,29,141.8,36.6,197.5c2.1-19.6,6.8-49.9,14.2-91c7.4-41.1,14.3-73,20.9-95.7l109.9-422.3h151l109.8,422.3
	c4.8,19,10.8,47.8,18.1,86.6c7.2,38.8,12.7,72.2,16.5,100c3.5-26.8,8.9-60.3,16.5-100.3c7.6-40,14.5-72.5,20.6-97.2l95.9-411.5
	h157.3L1700.7,1510.7z"/>
</svg>
