<?xml version="1.0" encoding="utf-8"?>
<!-- Generator: Adobe Illustrator 18.0.0, SVG Export Plug-In . SVG Version: 6.00 Build 0)  -->
<!DOCTYPE svg PUBLIC "-//W3C//DTD SVG 1.1//EN" "http://www.w3.org/Graphics/SVG/1.1/DTD/svg11.dtd">
<svg version="1.1"
	 id="svg8" xmlns:dc="http://purl.org/dc/elements/1.1/" xmlns:cc="http://creativecommons.org/ns#" xmlns:rdf="http://www.w3.org/1999/02/22-rdf-syntax-ns#" xmlns:svg="http://www.w3.org/2000/svg" xmlns:sodipodi="http://sodipodi.sourceforge.net/DTD/sodipodi-0.dtd" xmlns:inkscape="http://www.inkscape.org/namespaces/inkscape" sodipodi:docname="feather.svg" inkscape:version="0.92.4 (5da689c313, 2019-01-14)"
	 xmlns="http://www.w3.org/2000/svg" xmlns:xlink="http://www.w3.org/1999/xlink" x="0px" y="0px" viewBox="0 0 2267.7 2267.7"
	 enable-background="new 0 0 2267.7 2267.7" xml:space="preserve">
<sodipodi:namedview  borderopacity="1.0" bordercolor="#666666" showgrid="false" pagecolor="#ffffff" inkscape:cy="1095.5629" inkscape:cx="1410.1476" inkscape:zoom="0.1400905" id="base" inkscape:document-units="mm" inkscape:pageshadow="2" inkscape:window-x="-8" inkscape:current-layer="layer1" inkscape:window-height="962" inkscape:window-y="-8" inkscape:pageopacity="0.0" inkscape:window-width="1280" inkscape:window-maximized="1">
	</sodipodi:namedview>
<path id="path3713" inkscape:connector-curvature="0" fill="none" stroke="#000000" stroke-miterlimit="10" d="M1945.6,639
	c56.4,0,99.2,4.5,130.8,11.3c-87.9,196.1-214.2,410.3-399,597.4c-22.5-2.3-47.3-2.3-69.9-2.3c-257,0-372,87.9-378.7,90.2l-33.8,27.1
	l42.8-6.8c85.7-15.8,164.6-24.8,236.7-24.8c42.8,0,78.9,4.5,106,9c-362.9,317.9-809.3,444.1-1014.4,489.2l-281.9,281.8L4.6,2203.5
	l468.9-466.6C516.3,1534,640.3,1105.7,942.4,745c9,69.9,13.5,180.3-15.8,347.2l-9,42.8l27.1-36.1c6.8-4.5,110.5-144.3,90.2-455.4
	c2.3-2.3,4.5-6.8,9-9c74.4-74.4,151-137.5,232.2-196.1c9,69.9,13.5,182.6-15.8,347.2l-9,42.8l27.1-36.1c4.5-4.5,101.4-133,90.2-417
	c437.3-272.8,890.5-331.4,890.5-331.4s-29.3,223.2-142,507.2c-11.3,0-24.8,0-38.3,0c-257,0-372,87.9-376.5,90.2l-36.1,29.3l42.8-9
	C1794.5,645.8,1873.4,639,1945.6,639z M1339.2,934.4l-845.4,816.1l121.7-6.8L1339.2,934.4z"/>
</svg>
