<?xml version="1.0" encoding="utf-8"?>
<!-- Generator: Adobe Illustrator 22.1.0, SVG Export Plug-In . SVG Version: 6.00 Build 0)  -->
<svg version="1.1"
	 id="svg8" inkscape:version="0.92.4 (5da689c313, 2019-01-14)" sodipodi:docname="file-pdf.svg" xmlns:cc="http://creativecommons.org/ns#" xmlns:dc="http://purl.org/dc/elements/1.1/" xmlns:inkscape="http://www.inkscape.org/namespaces/inkscape" xmlns:rdf="http://www.w3.org/1999/02/22-rdf-syntax-ns#" xmlns:sodipodi="http://sodipodi.sourceforge.net/DTD/sodipodi-0.dtd" xmlns:svg="http://www.w3.org/2000/svg"
	 xmlns="http://www.w3.org/2000/svg" xmlns:xlink="http://www.w3.org/1999/xlink" x="0px" y="0px" viewBox="0 0 2267.7 2267.7"
	 style="enable-background:new 0 0 2267.7 2267.7;" xml:space="preserve">
<style type="text/css">
	.st0{fill:none;stroke:#000000;stroke-width:0.2646;}
</style>
<sodipodi:namedview  bordercolor="#666666" borderopacity="1.0" id="base" inkscape:current-layer="layer1" inkscape:cx="1410.2949" inkscape:cy="1174.8542" inkscape:document-units="mm" inkscape:pageopacity="0.0" inkscape:pageshadow="2" inkscape:window-height="962" inkscape:window-maximized="1" inkscape:window-width="1280" inkscape:window-x="-8" inkscape:window-y="-8" inkscape:zoom="0.1400905" pagecolor="#ffffff" showgrid="false">
	</sodipodi:namedview>
<g id="layer1" transform="translate(0.13229166,150.13229)" inkscape:groupmode="layer" inkscape:label="Capa 1">
	<path id="path3713" inkscape:connector-curvature="0" class="st0" d="M1622.6-59.5c-22.6-24.1-54.2-44.4-94.8-61
		c-40.6-16.6-77.5-24.8-110.6-24.8H288.1c-33.1,1.5-61.7,13.5-85.8,36.1S166.1-58,166.1-23.4v2014.2c1.5,33.1,13.5,61.7,36.1,85.8
		s51.2,36.1,85.8,36.1h1693.6c34.6-1.5,63.2-13.5,85.8-36.1c22.6-22.6,33.9-51.2,33.9-85.8V541.1c0-36.1-8.3-73.8-24.8-112.9
		c-16.6-39.1-36.9-70.8-61-94.8L1622.6-59.5z M1507.4,53.4l395.2,395.2c10.5,9,19.6,26.3,27.1,51.9h-474.2V26.3
		C1481.1,33.8,1498.4,42.8,1507.4,53.4z M326.5,1952.5V15h968.7v526.1c1.5,31.6,13.5,59.5,36.1,83.5s51.2,36.1,85.8,36.1H1941
		v1291.6H326.5z M1107.8,904.7c10.5-58.7,16.6-139.2,18.1-241.6v-38.4c0-4.5,0-8.3,0-11.3c1.5-1.5,3-4.5,4.5-9
		c7.5-39.1,3.8-67.7-11.3-85.8c-10.5-12-25.6-18.1-45.2-18.1h-27.1c-25.6,0-42.9,16.6-51.9,49.7c-12,42.2-15.1,95.6-9,160.3
		s18.8,131.7,38.4,201c-30.1,105.4-73.8,215.3-131,329.7c-46.7,94.8-91.8,177.6-135.5,248.4c0-1.5-0.8-3-2.3-4.5
		c-7.5-12-17.3-14.3-29.4-6.8c-69.2,39.1-124.2,79.8-164.8,121.9s-64.7,80.5-72.3,115.2c-3,21.1,0,36.1,9,45.2
		c4.5,3,6.8,4.5,6.8,4.5l31.6,15.8c10.5,6,21.8,9,33.9,9c75.3,0,176.9-109.9,304.8-329.7c144.5-49.7,309.4-84.3,494.5-103.9
		c54.2,27.1,109.1,48.9,164.8,65.5c55.7,16.6,103.9,24.8,144.5,24.8c54.2,0,83.5-15.8,88.1-47.4l0,0l2.3-4.5c1.5,0,2.3-0.8,2.3-2.3
		c12-24.1,11.3-45.9-2.3-65.5c-25.6-40.6-100.1-61-223.6-61c-48.2,0-97.1,3-146.8,9c-43.7-25.6-79-48.9-106.1-70
		C1216.1,1141.8,1154.4,1041.7,1107.8,904.7z M629,1629.5c30.1-37.6,67-73,110.6-106.1c-70.8,112.9-128,179.1-171.6,198.7
		C578.6,1698,598.9,1667.2,629,1629.5z M1069.4,559.2c0,0,0-0.8,0-2.3c10.5,12,15.8,27.1,15.8,45.2c0,1.5,0.8,3,2.3,4.5
		c0,1.5,0.8,2.3,2.3,2.3c-3,3-5.3,6.8-6.8,11.3c-6,33.1-9,51.2-9,54.2c-4.5,30.1-7.5,48.2-9,54.2c-10.5-75.3-9-130.2,4.5-164.8
		V559.2z M970,1290.8c46.7-93.3,81.3-176.1,103.9-248.4c42.2,91.8,95.6,165.6,160.3,221.3c4.5,4.5,11.3,10.5,20.3,18.1
		c9,7.5,14.3,11.3,15.8,11.3c-124.9,22.6-244.6,56.5-359,101.6C924.9,1372.1,944.4,1337.5,970,1290.8z M1728.7,1378.9
		c-3,1.5-10.5,2.3-22.6,2.3c-40.6,0-92.6-12-155.8-36.1c97.9,0,156.6,9.8,176.1,29.4"/>
</g>
</svg>
