<?xml version="1.0" encoding="utf-8"?>
<!-- Generator: Adobe Illustrator 18.0.0, SVG Export Plug-In . SVG Version: 6.00 Build 0)  -->
<!DOCTYPE svg PUBLIC "-//W3C//DTD SVG 1.1//EN" "http://www.w3.org/Graphics/SVG/1.1/DTD/svg11.dtd">
<svg version="1.1"
	 id="svg8" xmlns:dc="http://purl.org/dc/elements/1.1/" xmlns:cc="http://creativecommons.org/ns#" xmlns:rdf="http://www.w3.org/1999/02/22-rdf-syntax-ns#" xmlns:svg="http://www.w3.org/2000/svg" xmlns:sodipodi="http://sodipodi.sourceforge.net/DTD/sodipodi-0.dtd" xmlns:inkscape="http://www.inkscape.org/namespaces/inkscape" sodipodi:docname="flow-cascade.svg" inkscape:version="0.92.4 (5da689c313, 2019-01-14)"
	 xmlns="http://www.w3.org/2000/svg" xmlns:xlink="http://www.w3.org/1999/xlink" x="0px" y="0px" viewBox="0 0 2267.7 2267.7"
	 enable-background="new 0 0 2267.7 2267.7" xml:space="preserve">
<sodipodi:namedview  borderopacity="1.0" bordercolor="#666666" showgrid="false" pagecolor="#ffffff" inkscape:cy="1061.4683" inkscape:cx="1410.2949" inkscape:zoom="0.1400905" id="base" inkscape:document-units="mm" inkscape:pageshadow="2" inkscape:window-x="-8" inkscape:current-layer="layer1" inkscape:window-height="962" inkscape:window-y="-8" inkscape:pageopacity="0.0" inkscape:window-width="1280" inkscape:window-maximized="1">
	</sodipodi:namedview>
<path id="path3713" inkscape:connector-curvature="0" fill="none" stroke="#000000" stroke-width="0.2646" d="M1350.3,1858.4H955.9
	c-125,0-187.6-62.5-187.6-187.6v-466.5c57.7,25.7,120.2,38.5,187.6,38.5h394.4c48.1,118.6,136.3,178,264.5,178
	c80.2,0,148.3-28.1,204.4-84.2s84.2-124.2,84.2-204.4c0-80.2-28.1-148.3-84.2-204.4s-124.2-84.2-204.4-84.2
	c-128.3,0-216.4,57.7-264.5,173.1H955.9c-125,0-187.6-62.5-187.6-187.6V555c115.4-54.5,173.1-142.7,173.1-264.5
	c0-80.2-28.1-148.3-84.2-204.4S733,1.9,652.8,1.9S504.6,30,448.5,86.1s-84.2,124.2-84.2,204.4c0,121.8,57.7,210,173.1,264.5v1115.8
	c0,102.6,34.5,197.2,103.4,283.8s173.9,129.9,315,129.9h394.4c48.1,118.6,136.3,178,264.5,178c80.2,0,148.3-28.1,204.4-84.2
	c56.1-56.1,84.2-124.2,84.2-204.4c0-80.2-28.1-148.3-84.2-204.4s-124.2-84.2-204.4-84.2C1486.5,1685.3,1398.4,1743,1350.3,1858.4z
	 M1732.6,1011.9c33.7,32.1,50.5,72.1,50.5,120.2c0,44.9-16.8,83.4-50.5,115.4c-33.7,32.1-72.9,48.1-117.8,48.1
	c-44.9,0-84.2-16-117.8-48.1c-33.6-32.1-50.5-70.5-50.5-115.4c0-48.1,16.8-88.2,50.5-120.2c33.7-32,72.9-48.1,117.8-48.1
	C1659.7,963.8,1699,979.8,1732.6,1011.9z M535,170.2c33.7-32,73-48.1,117.9-48.1c44.9,0,84.2,16,117.8,48.1
	c33.7,32.1,50.5,72.1,50.5,120.2c0,44.9-16.8,83.4-50.5,115.4c-33.7,32.1-72.9,48.1-117.8,48.1c-44.9,0-84.2-16-117.8-48.1
	s-50.5-70.5-50.5-115.4C484.5,242.4,501.4,202.3,535,170.2z M1497,2089.4c-33.7-32.1-50.5-70.5-50.5-115.4
	c0-48.1,16.8-88.2,50.5-120.2c33.7-32,72.9-48.1,117.8-48.1c44.9,0,84.2,16,117.8,48.1c33.7,32.1,50.5,72.1,50.5,120.2
	c0,44.9-16.8,83.4-50.5,115.4c-33.7,32.1-72.9,48.1-117.8,48.1C1537,2133.4,1497,2089.4,1497,2089.4z"/>
</svg>
