<?xml version="1.0" encoding="utf-8"?>
<!-- Generator: Adobe Illustrator 22.1.0, SVG Export Plug-In . SVG Version: 6.00 Build 0)  -->
<svg version="1.1"
	 id="svg8" inkscape:version="0.92.4 (5da689c313, 2019-01-14)" sodipodi:docname="globe.svg" xmlns:cc="http://creativecommons.org/ns#" xmlns:dc="http://purl.org/dc/elements/1.1/" xmlns:inkscape="http://www.inkscape.org/namespaces/inkscape" xmlns:rdf="http://www.w3.org/1999/02/22-rdf-syntax-ns#" xmlns:sodipodi="http://sodipodi.sourceforge.net/DTD/sodipodi-0.dtd" xmlns:svg="http://www.w3.org/2000/svg"
	 xmlns="http://www.w3.org/2000/svg" xmlns:xlink="http://www.w3.org/1999/xlink" x="0px" y="0px" viewBox="0 0 2267.7 2267.7"
	 style="enable-background:new 0 0 2267.7 2267.7;" xml:space="preserve">
<style type="text/css">
	.st0{fill:none;stroke:#000000;stroke-width:0.2646;}
</style>
<sodipodi:namedview  bordercolor="#666666" borderopacity="1.0" id="base" inkscape:current-layer="layer1" inkscape:cx="1410.8263" inkscape:cy="906.50774" inkscape:document-units="mm" inkscape:pageopacity="0.0" inkscape:pageshadow="2" inkscape:window-height="962" inkscape:window-maximized="1" inkscape:window-width="1280" inkscape:window-x="-8" inkscape:window-y="-8" inkscape:zoom="0.1400905" pagecolor="#ffffff" showgrid="false">
	</sodipodi:namedview>
<g id="layer1" transform="translate(0.27290535,79.132292)" inkscape:groupmode="layer" inkscape:label="Capa 1">
	<path id="path3713" inkscape:connector-curvature="0" class="st0" d="M566.3,78.3C401.6,179.9,265.8,316.6,158.9,488.3
		S1.2,848.5,6.4,1053.5s56.1,393.4,152.5,565.1s232.2,308.4,407.4,410.1c175.2,101.6,364.5,152.5,567.8,152.5
		s391.7-50.8,565.1-152.5c173.5-101.6,310.2-238.3,410.1-410.1c99.9-171.7,149.8-360.1,149.8-565.1s-49.9-393.4-149.8-565.1
		c-99.9-171.7-236.6-308.4-410.1-410.1S1337.4-74.2,1134.1-74.2C920.3-74.2,731-23.4,566.3,78.3z M1599.3,672.3
		c21,7,23.7,14.9,7.9,23.7c0,1.8-4.4,2.6-13.1,2.6s-14.9,0-18.4,0c10.5,5.3,18.4,8.8,23.7,10.5s6.1,6.1,2.6,13.1
		c15.8,8.8,19.3,18.4,10.5,28.9c-14,12.3-29.8,17.5-47.3,15.8c3.5,0,3.5,1.8,0,5.3l-23.7,18.4c0-1.8-6.1,0-18.4,5.3
		c-12.3,5.3-20.2,9.6-23.7,13.1c-5.3,3.5-7,9.6-5.3,18.4c1.8,8.8,1.8,14.9,0,18.4c-1.8,3.5-6.1,4.4-13.1,2.6
		c-1.8,5.3-10.5,9.6-26.3,13.1c-15.8,3.5-25.4,8.8-28.9,15.8c7,7,6.1,14.9-2.6,23.7c-12.3,8.8-22.8,7.9-31.5-2.6
		c-5.3,0-8.8,4.4-10.5,13.1s-5.3,14.9-10.5,18.4c7,10.5,6.1,17.5-2.6,21c-1.8,3.5,0,5.3,5.3,5.3s9.6,1.8,13.1,5.3
		c3.5,3.5,5.3,5.3,5.3,5.3c-3.5,8.8-8.8,13.1-15.8,13.1c7,15.8,0,33.3-21,52.6c-3.5,1.8-9.6,5.3-18.4,10.5
		c-8.8,5.3-16.6,8.8-23.7,10.5c-7,1.8-10.5,3.5-10.5,5.3c-12.3,8.8-20.2,17.5-23.7,26.3c-3.5,8.8-3.5,17.5,0,26.3
		c3.5,8.8,12.3,14.9,26.3,18.4v10.5v26.3l2.6,13.1c0,5.3,0.9,11.4,2.6,18.4c1.8,7,1.8,14,0,21c-1.8,7-4.4,11.4-7.9,13.1
		c-3.5,1.8-8.8,0.9-15.8-2.6c-7-3.5-15.8-25.4-26.3-65.7c-3.5-8.8-9.6-20.2-18.4-34.2c-5.3,5.3-9.6,8.8-13.1,10.5
		c-3.5,1.8-6.1,1.8-7.9,0c-1.8-1.8-4.4-4.4-7.9-7.9c-3.5-3.5-7-6.1-10.5-7.9c-3.5,0-11.4-1.8-23.7-5.3c-12.3-3.5-20.2-6.1-23.7-7.9
		c-22.8,17.5-36.8,13.1-42.1-13.1c-1.8,3.5-1.8,9.6,0,18.4c1.8,8.8,2.6,14,2.6,15.8c-5.3,12.3-15.8,13.1-31.5,2.6
		c-5.3-5.3-18.4-6.1-39.4-2.6c-21,3.5-35,4.4-42.1,2.6c1.8,0,3.5,0.9,5.3,2.6c3.5,1.8,5.3,3.5,5.3,5.3c-1.8,3.5-2.6,6.1-2.6,7.9
		c0,1.8-1.8,2.6-5.3,2.6s-6.1,0-7.9,0s-4.4,0.9-7.9,2.6c-3.5,3.5-7.9,8.8-13.1,15.8c-5.3,7-9.6,11.4-13.1,13.1
		c7,15.8,9.6,28,7.9,36.8s-3.5,21-5.3,36.8c-1.8,15.8-2.6,28.9-2.6,39.4c0,14,4.4,31.5,13.1,52.6c8.8,21,20.2,35,34.2,42.1
		c5.3,3.5,16.6,6.1,34.2,7.9c17.5,1.8,29.8,0.9,36.8-2.6c7-3.5,11.4-7,13.1-10.5c1.8-3.5,3.5-8.8,5.3-15.8c1.8-7,3.5-12.3,5.3-15.8
		c7-19.3,20.2-28.9,39.4-28.9c12.3-3.5,20.2-2.6,23.7,2.6c3.5,5.3,6.1,9.6,7.9,13.1c1.8,3.5,0,9.6-5.3,18.4s-9.6,16.6-13.1,23.7
		c-3.5,7-6.1,12.3-7.9,15.8c-3.5,8.8-5.3,20.2-5.3,34.2s-0.9,22.8-2.6,26.3c1.8,0,8.8,0,21,0c0-3.5,0.9-7,2.6-10.5s2.6-6.1,2.6-7.9
		c5.3,7,13.1,11.4,23.7,13.1c10.5,1.8,18.4-1.8,23.7-10.5c3.5,1.8,9.6,8.8,18.4,21c8.8,12.3,14,21.9,15.8,28.9
		c0,5.3,1.8,12.3,5.3,21c3.5,8.8,4.4,14.9,2.6,18.4c-1.8,3.5-7,5.3-15.8,5.3c-1.8-3.5-3.5-2.6-5.3,2.6c-1.8,5.3-1.8,9.6,0,13.1
		c1.8,3.5,2.6,7,2.6,10.5s1.8,7.9,5.3,13.1c3.5,5.3,5.3,7.9,5.3,7.9c17.5,31.5,41.2,40.3,71,26.3c0,28-7,43.8-21,47.3
		c-8.8,0-17.5-5.3-26.3-15.8c-8.8-10.5-12.3-20.2-10.5-28.9c0,5.3-3.5,9.6-10.5,13.1c-5.3-5.3-14-12.3-26.3-21
		c-12.3-8.8-21-15.8-26.3-21c0-3.5-2.6-7.9-7.9-13.1s-9.6-12.3-13.1-21c-3.5-8.8-7-16.6-10.5-23.7c-3.5-7-4.4-10.5-2.6-10.5
		c-17.5,7-43.8,1.8-78.9-15.8c-7-5.3-17.5-15.8-31.5-31.5c-14-15.8-28-22.8-42.1-21c-5.3,1.8-12.3,3.5-21,5.3
		c-8.8,1.8-15.8,2.6-21,2.6s-13.1-1.8-23.7-5.3c-8.8-5.3-19.3-11.4-31.5-18.4c-12.3-7-21-12.3-26.3-15.8
		c-12.3-5.3-18.4-7.9-18.4-7.9l-23.7-13.1c-5.3-1.8-11.4-6.1-18.4-13.1c-7-7-11.4-14-13.1-21c-3.5-5.3-6.1-16.6-7.9-34.2
		c-1.8-17.5-5.3-30.7-10.5-39.4c-7-10.5-15.8-20.2-26.3-28.9c-10.5-8.8-20.2-13.1-28.9-13.1c7-1.8,7-8.8,0-21
		c-7-12.3-14-21.9-21-28.9c-1.8,0-7-6.1-15.8-18.4c-8.8-12.3-17.5-21.9-26.3-28.9c-8.8-7-14.9-15.8-18.4-26.3
		c-3.5-10.5-4.4-19.3-2.6-26.3c0,0-0.9-0.9-2.6-2.6c-1.8-1.8-5.3-4.4-10.5-7.9c-5.3-3.5-9.6-5.3-13.1-5.3c-3.5,0-6.1,0-7.9,0
		c0,3.5,1.8,10.5,5.3,21c3.5,10.5,7,17.5,10.5,21c1.8,5.3,9.6,19.3,23.7,42.1c26.3,42.1,37.7,72.7,34.2,92c-3.5,1.8-7,0.9-10.5-2.6
		c-3.5-3.5-5.3-8.8-5.3-15.8c0-7-0.9-12.3-2.6-15.8c-1.8-5.3-8.8-11.4-21-18.4c-12.3-7-20.2-14-23.7-21c0,1.8,0.9,1.8,2.6,0
		c1.8-1.8,3.5-2.6,5.3-2.6c1.8-8.8-3.5-20.2-15.8-34.2c-12.3-14-16.6-23.7-13.1-28.9c-7-5.3-14-16.6-21-34.2s-12.3-28.9-15.8-34.2
		c-1.8-3.5-6.1-7.9-13.1-13.1c-7-5.3-14.9-10.5-23.7-15.8c-8.8-5.3-14.9-8.8-18.4-10.5c-1.8-1.8-5.3-6.1-10.5-13.1
		c-31.5-40.3-41.2-61.3-28.9-63.1c-12.3,3.5-22.8-6.1-31.5-28.9c-8.8-22.8-11.4-39.4-7.9-49.9l-2.6-2.6c-1.8-3.5-1.8-14.9,0-34.2
		c1.8-19.3,3.5-36.8,5.3-52.6c1.8-15.8,6.1-23.7,13.1-23.7c-7,0-12.3-6.1-15.8-18.4c-3.5-12.3-3.5-21,0-26.3
		c1.8-3.5,6.1-1.8,13.1,5.3c7,7,11.4,11.4,13.1,13.1c12.3-7,16.6-15.8,13.1-26.3c-1.8-3.5-11.4-14-28.9-31.5
		c-42.1-26.3-64-39.4-65.7-39.4c5.3-10.5,3.5-19.3-5.3-26.3c-10.5,5.3-15.8,6.1-15.8,2.6c0-3.5-0.9-8.8-2.6-15.8s-4.4-11.4-7.9-13.1
		c-5.3,0-11.4-3.5-18.4-10.5C425.2,418.2,540,309.6,682,230.7c7-1.8,18.4-2.6,34.2-2.6c7,1.8,14,4.4,21,7.9c7,3.5,14,8.8,21,15.8
		c7,7,12.3,12.3,15.8,15.8c3.5-7,1.8-15.8-5.3-26.3c1.8-7,12.3-13.1,31.5-18.4c22.8-3.5,37.7-2.6,44.7,2.6c-7-8.8-16.6-21-28.9-36.8
		l-7.9,5.3c-8.8-5.3-29.8-1.8-63.1,10.5c0,0-4.4,2.6-13.1,7.9c-8.8,5.3-15.8,8.8-21,10.5c-5.3,1.8-10.5,2.6-15.8,2.6
		C742.4,199.2,788,179,831.8,165c3.5,3.5,8.8,7.9,15.8,13.1c7,5.3,12.3,9.6,15.8,13.1c-3.5-1.8-5.3-0.9-5.3,2.6
		c-5.3,12.3-5.3,21.9,0,28.9c1.8,8.8,7.9,13.1,18.4,13.1s21-0.9,31.5-2.6c10.5-1.8,18.4-2.6,23.7-2.6h13.1
		c31.5,3.5,43.8,0.9,36.8-7.9c3.5,3.5,7,11.4,10.5,23.7s7.9,21,13.1,26.3c3.5-5.3,4.4-12.3,2.6-21c-1.8-8.8-1.8-15.8,0-21
		c3.5-3.5,7-5.3,10.5-5.3s8.8-1.8,15.8-5.3s11.4-5.3,13.1-5.3c5.3-3.5,0.9-10.5-13.1-21c-1.8-3.5-6.1-5.3-13.1-5.3
		c-7,0-12.3-1.8-15.8-5.3c-3.5-3.5-8.8-6.1-15.8-7.9c-7-1.8-9.6-5.3-7.9-10.5s4.4-11.4,7.9-18.4c5.3-3.5,14.9-5.3,28.9-5.3
		s24.5,2.6,31.5,7.9c26.3,14,29.8,27.2,10.5,39.4c12.3,0,24.5,3.5,36.8,10.5s17.5,14.9,15.8,23.7c7-15.8,14.9-23.7,23.7-23.7
		c3.5,1.8,7.9,8.8,13.1,21s7.9,18.4,7.9,18.4c8.8,12.3,16.6,14.9,23.7,7.9c7-7,14.9-15.8,23.7-26.3s14-15.8,15.8-15.8
		c-10.5-3.5-12.3-7-5.3-10.5c15.8-8.8,28.9-11.4,39.4-7.9c5.3,1.8,9.6,6.1,13.1,13.1c8.8,17.5,7,26.3-5.3,26.3
		c7,7,10.5,16.6,10.5,28.9c0,12.3-7,17.5-21,15.8c-5.3,0-12.3-2.6-21-7.9c-8.8-5.3-15.8-7.9-21-7.9s-12.3,2.6-21,7.9
		c-3.5,7-8.8,15.8-15.8,26.3c-7,10.5-12.3,18.4-15.8,23.7c-15.8,15.8-40.3,21-73.6,15.8c1.8,1.8,0.9,5.3-2.6,10.5
		c-3.5,5.3-7.9,11.4-13.1,18.4s-8.8,11.4-10.5,13.1c-8.8,8.8-14.9,20.2-18.4,34.2c1.8,0,1.8,6.1,0,18.4s-3.5,21-5.3,26.3
		c10.5-3.5,19.3,2.6,26.3,18.4c7,14,7,21,0,21c33.3-5.3,62.2-3.5,86.7,5.3c35,14,55.2,27.2,60.5,39.4c5.3-8.8,19.3-9.6,42.1-2.6
		c8.8,5.3,16.6,20.2,23.7,44.7c3.5,15.8,9.6,28.9,18.4,39.4c8.8,10.5,19.3,13.1,31.5,7.9l2.6-2.6c5.3-3.5,8.8-5.3,10.5-5.3
		c1.8,0,4.4-1.8,7.9-5.3c3.5-3.5,5.3-6.1,5.3-7.9c0-1.8-0.9-3.5-2.6-5.3c-7-5.3-12.3-13.1-15.8-23.7c-3.5-10.5-2.6-20.2,2.6-28.9
		c3.5-1.8,11.4-7,23.7-15.8c12.3-8.8,20.2-16.6,23.7-23.7c1.8-12.3-3.5-22.8-15.8-31.5s-18.4-16.6-18.4-23.7
		c-1.8-5.3,0.9-11.4,7.9-18.4c7-7,9.6-13.1,7.9-18.4c0-1.8-1.8-7.9-5.3-18.4c-3.5-10.5-5.3-17.5-5.3-21s2.6-8.8,7.9-15.8
		c7-1.8,22.8-0.9,47.3,2.6c24.5,3.5,41.2,7.9,49.9,13.1c1.8,1.8,7.9,4.4,18.4,7.9c10.5,3.5,19.3,7.9,26.3,13.1
		c7,5.3,11.4,9.6,13.1,13.1h-7.9c7,7,11.4,14,13.1,21s-2.6,12.3-13.1,15.8c7,0,14.9,1.8,23.7,5.3c15.8,5.3,16.6,10.5,2.6,15.8
		c3.5-1.8,7.9-2.6,13.1-2.6s8.8-1.8,10.5-5.3c0-3.5,2.6-5.3,7.9-5.3s7.9-0.9,7.9-2.6c0-1.8,1.8-2.6,5.3-2.6s7,0.9,10.5,2.6
		c3.5-1.8,5.3-4.4,5.3-7.9c0-3.5,3.5-7.9,10.5-13.1c7-5.3,10.5-7.9,10.5-7.9s2.6,0.9,7.9,2.6s7.9,4.4,7.9,7.9c0,3.5,0.9,7,2.6,10.5
		c1.8,3.5,3.5,6.1,5.3,7.9c1.8,5.3,6.1,10.5,13.1,15.8c7,5.3,11.4,10.5,13.1,15.8c0,3.5,1.8,10.5,5.3,21s7.9,18.4,13.1,23.7
		c5.3,5.3,12.3,9.6,21,13.1c0,1.8,4.4,0.9,13.1-2.6c8.8-3.5,14.9-4.4,18.4-2.6c3.5,1.8,5.3,6.1,5.3,13.1c7-5.3,10.5-9.6,10.5-13.1
		c0,12.3,2.6,22.8,7.9,31.5c5.3,8.8,14,12.3,26.3,10.5l-2.6,31.5c-5.3,3.5-13.1,7-23.7,10.5s-17.5,6.1-21,7.9s-10.5,7.9-21,18.4
		c-10.5,10.5-14.9,16.6-13.1,18.4c-17.5-19.3-42.9-24.5-76.2-15.8c-36.8,5.3-62.2,11.4-76.2,18.4c-15.8,7-26.3,14-31.5,21
		c0,1.8-1.8,5.3-5.3,10.5c-3.5,5.3-6.1,10.5-7.9,15.8s-3.5,7.9-5.3,7.9c5.3-3.5,11.4-8.8,18.4-15.8c7-7,12.3-11.4,15.8-13.1
		C1560.8,675,1581.8,668.8,1599.3,672.3z M1291.8,1955.1c-1.8-7,1.8-17.5,10.5-31.5s13.1-24.5,13.1-31.5
		c-15.8-3.5-21.9-15.8-18.4-36.8c1.8-15.8,15.8-35.9,42.1-60.5c19.3-15.8,25.4-38.6,18.4-68.3c-3.5-14-6.1-33.3-7.9-57.8
		c-1.8-24.5-3.5-41.2-5.3-49.9c-1.8,3.5,2.6,6.1,13.1,7.9c10.5,1.8,16.6,4.4,18.4,7.9c0-3.5,1.8-8.8,5.3-15.8
		c3.5-7,7-12.3,10.5-15.8c0-1.8,4.4-6.1,13.1-13.1c8.8-7,12.3-9.6,10.5-7.9s2.6-0.9,13.1-7.9c10.5-7,16.6-11.4,18.4-13.1
		c1.8-1.8,7-3.5,15.8-5.3c8.8-1.8,14,0,15.8,5.3c5.3,5.3,4.4,14-2.6,26.3c-7,12.3-7,21,0,26.3c0-1.8,0.9-7.9,2.6-18.4
		s5.3-18.4,10.5-23.7c5.3-3.5,10.5-6.1,15.8-7.9s10.5-1.8,15.8,0s10.5,5.3,15.8,10.5s10.5,7.9,15.8,7.9c14,5.3,31.5,16.6,52.6,34.2
		c0-3.5,0-5.3,0-5.3s1.8-0.9,5.3-2.6c3.5-1.8,6.1-3.5,7.9-5.3c1.8-1.8,4.4-2.6,7.9-2.6l5.3-2.6c5.3-3.5,9.6-4.4,13.1-2.6
		c3.5,1.8,7.9,3.5,13.1,5.3s8.8,3.5,10.5,5.3s5.3,4.4,10.5,7.9c5.3,3.5,8.8,6.1,10.5,7.9c3.5,1.8,8.8,5.3,15.8,10.5
		s13.1,9.6,18.4,13.1s9.6,7.9,13.1,13.1s4.4,11.4,2.6,18.4c5.3,1.8,16.6,6.1,34.2,13.1c1.8,3.5,7.9,5.3,18.4,5.3s16.6,1.8,18.4,5.3
		c-140.2,149-311.1,241.8-512.6,278.6"/>
</g>
</svg>
