<?xml version="1.0" encoding="utf-8"?>
<!-- Generator: Adobe Illustrator 22.1.0, SVG Export Plug-In . SVG Version: 6.00 Build 0)  -->
<svg version="1.1"
	 id="svg8" inkscape:version="0.92.4 (5da689c313, 2019-01-14)" sodipodi:docname="instagram.svg" xmlns:cc="http://creativecommons.org/ns#" xmlns:dc="http://purl.org/dc/elements/1.1/" xmlns:inkscape="http://www.inkscape.org/namespaces/inkscape" xmlns:rdf="http://www.w3.org/1999/02/22-rdf-syntax-ns#" xmlns:sodipodi="http://sodipodi.sourceforge.net/DTD/sodipodi-0.dtd" xmlns:svg="http://www.w3.org/2000/svg"
	 xmlns="http://www.w3.org/2000/svg" xmlns:xlink="http://www.w3.org/1999/xlink" x="0px" y="0px" viewBox="0 0 2267.7 2267.7"
	 style="enable-background:new 0 0 2267.7 2267.7;" xml:space="preserve">
<style type="text/css">
	.st0{fill:none;stroke:#000000;stroke-width:0.2646;}
</style>
<sodipodi:namedview  bordercolor="#666666" borderopacity="1.0" id="base" inkscape:current-layer="layer1" inkscape:cx="1402.7358" inkscape:cy="1171.0743" inkscape:document-units="mm" inkscape:pageopacity="0.0" inkscape:pageshadow="2" inkscape:window-height="962" inkscape:window-maximized="1" inkscape:window-width="1280" inkscape:window-x="-8" inkscape:window-y="-8" inkscape:zoom="0.1400905" pagecolor="#ffffff" showgrid="false">
	</sodipodi:namedview>
<g id="layer1" transform="translate(-1.8677083,149.13229)" inkscape:groupmode="layer" inkscape:label="Capa 1">
	<path id="path3713" inkscape:connector-curvature="0" class="st0" d="M2261.3,415.9v1133.4c0,309.3-252.9,559.9-564.5,559.9H572.4
		c-311.6,0-562.2-250.6-562.2-559.9V415.9C10.2,106.6,260.8-144,572.4-144h1124.4C2008.4-144,2261.3,106.6,2261.3,415.9z
		 M2051.3,817.8h-422.2c33.9,67.7,51.9,144.5,51.9,225.8c0,293.5-239.3,532.8-535.1,532.8c-293.5,0-535.1-239.3-535.1-532.8
		c0-81.3,20.3-158,51.9-225.8H217.9v731.5c0,194.2,158,352.2,354.5,352.2h1124.4c196.4,0,354.5-158,354.5-352.2V817.8z
		 M1145.9,1264.9c121.9,0,221.3-99.3,221.3-221.3c0-121.9-99.3-221.3-221.3-221.3s-221.3,99.3-221.3,221.3
		C924.6,1165.5,1024,1264.9,1145.9,1264.9z M2051.3,415.9c0-194.2-158-352.2-354.5-352.2H572.4c-196.4,0-354.5,158-354.5,352.2
		v194.2h618.6c88.1-63.2,194.2-99.3,309.3-99.3s221.3,36.1,309.3,99.3h596.1V415.9z M1888.7,251.1v194.2c0,33.9-27.1,61-63.2,61
		h-191.9c-33.9,0-63.2-27.1-63.2-61V251.1c0-33.9,29.4-61,63.2-61h191.9C1825.5,190.1,1888.7,188.1,1888.7,251.1z"/>
</g>
</svg>
