<?xml version="1.0" encoding="utf-8"?>
<!-- Generator: Adobe Illustrator 18.0.0, SVG Export Plug-In . SVG Version: 6.00 Build 0)  -->
<!DOCTYPE svg PUBLIC "-//W3C//DTD SVG 1.1//EN" "http://www.w3.org/Graphics/SVG/1.1/DTD/svg11.dtd">
<svg version="1.1"
	 id="svg8" xmlns:dc="http://purl.org/dc/elements/1.1/" xmlns:cc="http://creativecommons.org/ns#" xmlns:rdf="http://www.w3.org/1999/02/22-rdf-syntax-ns#" xmlns:svg="http://www.w3.org/2000/svg" xmlns:sodipodi="http://sodipodi.sourceforge.net/DTD/sodipodi-0.dtd" xmlns:inkscape="http://www.inkscape.org/namespaces/inkscape" sodipodi:docname="invertebrados.svg" inkscape:version="0.92.4 (5da689c313, 2019-01-14)"
	 xmlns="http://www.w3.org/2000/svg" xmlns:xlink="http://www.w3.org/1999/xlink" x="0px" y="0px" viewBox="0 0 2267.7 2267.7"
	 enable-background="new 0 0 2267.7 2267.7" xml:space="preserve">
<sodipodi:namedview  borderopacity="1.0" bordercolor="#666666" showgrid="false" pagecolor="#ffffff" inkscape:cy="729.83909" inkscape:cx="1157.8855" inkscape:zoom="0.1400905" id="base" inkscape:document-units="mm" inkscape:pageshadow="2" inkscape:window-x="-8" inkscape:current-layer="layer1" inkscape:window-height="962" inkscape:window-y="-8" inkscape:pageopacity="0.0" inkscape:window-width="1280" inkscape:window-maximized="1">
	</sodipodi:namedview>
<path id="path3713" inkscape:connector-curvature="0" fill="none" stroke="#000000" stroke-width="0.2646" d="M2236.4,847.4
	c-68,120.5-223.2,226.2-244.6,302.2c-21.4,76-78.6,312.6-287.6,289.7c-37.3-3.8-74.1-11.4-109.8-22.5c212.7,180,95,253.3,70.1,313.2
	c-24.8,60-10.1,163.4-65.9,196.5c-55.8,33.1-100.6,12.5-124.3,85.6c-23.7,73.1-74,127.7-153.2,111.2
	c-79.1-16.5-153.5,66.7-209.6-17.7c-31.6-60.7-73.2-115.6-123.2-162.3c-41-30.6-27.8-151.9-0.4-282.1c23.9-107.8,19.1-220-14-325.3
	c-10,19.8-20,39.6-27.1,57.1c-14.3,38.5-23.1,78.9-26.2,119.9l0,0c-3.5,46.4-14.6,92-33,134.8c-43.7,89.2-88.8,71.2-88.8,71.2
	s-46.2-7.7-35.1-108.3c11.1-100.6,69.4-156.9,87.1-246.4c2-18.1,4.5-41.3,6.8-61.9c-86.3,70.1-152.3,162.1-191.1,266.3
	c-47.1,120.2-101.1,231.8-151,234.2c-67.8,11-133,34-192.8,67.7c-93.4,42-107.6-66.6-185.3-96c-77.7-29.4-87.9-103.6-69.4-177.3
	c18.5-73.7-25.1-81.1-55.3-139.2c-30.2-58.1,39.6-147.1,48.1-201s-47.6-185.4,228.4-225.7c-34.6-9.1-68.2-21.6-100.4-37.1
	C0.5,900.5,83,671.9,104.7,593.3S55.3,352.9,60.8,207.2c5.5-145.6,154.9-293.8,474.4,7.6c255.8,239.5,371.1,641.3,401.9,764.8
	c10.6-8.9,22.9-15.6,36.1-19.5l0,0c8.3-3.6,17.6-4.5,26.4-2.3c0.3-84.6-6.2-169.2-19.3-252.8c-17-59.3-57.7-236.1-75.8-261.6
	c-18.1-25.5-27.6-34.4-14.7-56.5c12.9-22.1,24.1-5.2,23.2,2.5c12.8,70.5,31.5,139.8,55.6,207.2c28.9,118.4,41.9,240.1,38.7,362
	l12.9,1.4l14.9,6.9c63.1-105.3,140.4-201.4,229.7-285.6c56.6-43.3,109.1-91.8,156.9-144.7c0.8-7.7,20-16.1,20.1,7.4
	c0.1,23.5-16.3,29.6-41.2,42.5c-24.9,12.9-161.2,136.4-207.6,178.3c-56.2,63.4-107.3,131.1-152.8,202.6c5.4,3.1,10.3,7.2,14.4,12
	c13.1,9.9,22.5,23.8,27,39.5c90.7-89.3,405.1-360.4,751.6-424.3C2267.4,516.5,2304.4,726.9,2236.4,847.4z M893.8,1112.9
	c4.7-14.5,12.4-27.9,22.6-39.3c3.1-4.9,3.1-4.9,3.1-4.9c-63.1-252.2-178.7-488.2-339.3-692.6c105.7,165,193.2,341,261.1,524.8
	C752.8,716,633.5,547.5,488.5,402.6c99.4,120.7,186.6,251,260.3,388.9c-87.9-128.6-192.9-244.7-312.1-344.9
	c144.8,156.2,272.3,327.8,380,511.6c-126.2-162.1-279.8-300.9-453.8-410c168.2,136.4,321.2,290.7,456.2,460
	C659.4,865.4,475.4,752.4,275.9,674.4c197.1,104.9,382,231.2,551.6,376.4c-175-110.5-369.9-186-573.7-222.1
	C435,883,609.9,956.4,775.6,1047.8c-152.9-58.4-314.8-89.4-478.3-91.6C501.3,986.3,701.3,1038.8,893.8,1112.9z M862.8,1253.1
	c7.7-22.7,10.2-45.9,12.8-69.1c-233.2-66.4-477.7-83.4-717.9-49.9c182.3-8.9,364.9,1.5,545,31c-189.9-14.3-380.8,3.7-564.6,53
	c143.4-23.9,288.7-33.3,434-28.2c-144.2,10.4-286.4,40.5-422.4,89.5c195.2-43.5,394.7-65.5,594.7-65.4
	c-189.2,25.3-372.5,83.9-541.2,173.1C390.6,1315,585.4,1263.7,784,1234c-187.8,61.2-362.8,156.2-516.4,280.3
	c175.3-109.4,362-199.3,556.9-268c-169.3,88.2-319.4,209.4-441.2,356.4c125.9-119.7,264.4-225.4,413.2-315.1
	c-115.9,94-214.2,207.9-290.2,336.4C610.9,1487.6,730.5,1363.2,862.8,1253.1z M1650.4,1571.8c-184.8-158-400.4-275.9-633.2-346.2
	c-7.7,22.7-18,45-28.3,67.4c52.3,164,86.3,333.2,101.4,504.7c6.8-149.8-13.1-299.6-58.6-442.5c77.1,156.3,137,320.5,178.8,489.6
	c-23.1-189.8-83.9-373.1-178.6-539.2c126.9,163.9,235.3,341.3,323.3,529c-62.1-188-157.9-363.1-282.9-516.7
	c151.8,133.7,288.6,283.6,408,446.9c-93.9-166.5-216.4-315.2-361.9-439.2c165.7,108.6,319.1,234.9,457.5,376.5
	c-87.2-114-189.3-215.7-303.8-302.2c125.1,73.2,242.5,158.7,350.7,255.2c-127.7-140.4-278.1-258.4-444.9-349
	c168.1,71.6,328.2,160.9,477.4,266.4L1650.4,1571.8z M1138.9,1139.8c221.3-29.5,445.2-34.7,667.6-15.7
	c-208.5-42.4-422.8-47.3-633-14.5c205.7-69.2,418.4-116,634.2-139.4c-206.5-2.4-411.8,31.7-606.4,100.7
	c190.1-96.3,390.1-171.6,596.5-224.5c-154.6,19.2-305.8,59.8-449.3,120.5c136-76.1,279.3-138.3,427.7-185.6
	c-198.9,43-389.1,119.3-562.7,225.6c156.3-117,324.8-216.8,502.6-297.5c-246.5,84.1-472.3,219.6-662.4,397.5l-0.6,5.2
	c1.2,14.8-0.4,29.7-4.8,43.9c202.3,42,399.4,106.5,587.4,192.3c-139.1-86.9-292.2-148.7-452.6-182.8c187.4,13.5,372.8,47,553.1,99.8
	"/>
</svg>
