<?xml version="1.0" encoding="utf-8"?>
<!-- Generator: Adobe Illustrator 18.0.0, SVG Export Plug-In . SVG Version: 6.00 Build 0)  -->
<!DOCTYPE svg PUBLIC "-//W3C//DTD SVG 1.1//EN" "http://www.w3.org/Graphics/SVG/1.1/DTD/svg11.dtd">
<svg version="1.1"
	 id="svg8" xmlns:dc="http://purl.org/dc/elements/1.1/" xmlns:cc="http://creativecommons.org/ns#" xmlns:rdf="http://www.w3.org/1999/02/22-rdf-syntax-ns#" xmlns:svg="http://www.w3.org/2000/svg" xmlns:sodipodi="http://sodipodi.sourceforge.net/DTD/sodipodi-0.dtd" xmlns:inkscape="http://www.inkscape.org/namespaces/inkscape" sodipodi:docname="macaulay_library.svg" inkscape:version="0.92.4 (5da689c313, 2019-01-14)"
	 xmlns="http://www.w3.org/2000/svg" xmlns:xlink="http://www.w3.org/1999/xlink" x="0px" y="0px" viewBox="0 0 2267.7 2267.7"
	 enable-background="new 0 0 2267.7 2267.7" xml:space="preserve">
<sodipodi:namedview  borderopacity="1.0" bordercolor="#666666" showgrid="false" pagecolor="#ffffff" inkscape:cy="167.16536" inkscape:cx="19665.043" inkscape:zoom="0.108" id="base" inkscape:document-units="mm" inkscape:pageshadow="2" inkscape:window-x="-8" inkscape:current-layer="layer1" inkscape:window-height="962" inkscape:window-y="-8" inkscape:pageopacity="0.0" inkscape:window-width="1280" inkscape:window-maximized="1">
	</sodipodi:namedview>
<path id="path3713" inkscape:connector-curvature="0" fill="none" stroke="#000000" stroke-width="0.25" stroke-miterlimit="10" d="
	M3.1,1209.5H49V1050h0.6l52.6,159.5H137l54.3-159.5h0.6v159.5h45.9v-207.7h-68.9l-48.2,135.8h-0.6L72,1001.8H3.1V1209.5z
	 M356.8,1069c8.8,3.2,14.9,7.9,20.2,14c5,6.1,8.8,14,10.5,23.4c1.8,9.1,2.9,19.6,2.9,31.8v72.7h-40.3v-19h-0.6
	c-5.5,7.3-12.3,12.9-20.2,16.4c-7.9,3.2-16.4,5-25.7,5c-6.7,0-12.9-1.2-19-3.2c-5.8-1.8-11.4-4.7-16.4-8.5c-5-3.5-8.5-8.5-11.1-14
	c-2.3-5.5-4.1-11.7-4.1-19c0-7.9,1.2-15.2,4.1-20.7c3.2-5.5,7.3-10.2,12.3-14c5-3.8,11.1-6.7,17.8-8.5c6.7-2,13.4-3.8,20.7-4.4
	c7.3-1.2,14-1.8,21.3-1.8h19.6c0-7.9-2.9-14-8.5-18.4c-5.5-5-12.3-6.7-19.6-6.7c-7.3,0-14,1.2-19.6,4.4c-6.1,2.9-11.1,7.3-15.8,12
	l-23.4-23.7c7.9-7.3,17.8-13.4,28.6-17.2c11.1-3.5,22.2-5.5,34.5-5.5C337.8,1064,348.4,1066.1,356.8,1069z M326.4,1147.8
	c-5,0-9.9,1.2-14.6,2.3c-5,1.5-8.8,3.8-11.7,6.1c-3.2,2.6-5,6.7-5,11.7c0,5.5,2.3,9.1,6.7,11.7c4.4,2.3,9.1,3.5,14,3.5
	c4.4,0,8.5-0.6,12.3-1.8c4.4-1.2,7.3-2.9,11.1-5c2.9-2.3,5.3-4.7,7.3-7.9c1.8-2.9,2.9-7.3,2.9-11.7v-9.1h-10.8v-0.6
	C335.5,1147.3,331.1,1147.3,326.4,1147.8z M535.9,1081.8c-7.3-6.7-15.2-11.7-24.2-14.6c-9.3-3.2-17.8-4.4-26.3-4.4
	c-11.1,0-21.6,2-31.3,5.5c-9.6,3.8-17.8,8.5-25.1,15.2s-12.9,14.9-16.9,24c-4.4,9.1-6.1,19-6.1,30.7c0,10.8,1.8,21.3,6.1,30.4
	c4.1,9.3,9.6,17.2,16.9,24c6.7,6.7,15.5,11.7,25.1,15.2c9.6,3.8,20.2,5.5,31.3,5.5c7.9,0,16.9-1.2,26.3-4.4
	c9.6-2.3,17.5-7.3,24.2-14.6l-29.2-30.7c-2.3,2.6-5.5,5-9.1,7.6c-3.8,1.8-8.2,2.9-12.9,2.9c-11.1,0-19.6-2.9-25.7-9.6
	c-6.1-6.7-9.3-15.5-9.3-26.3c0-11.1,3.2-19.6,9.3-26.3c6.1-6.7,14.6-9.9,25.7-9.9c4.7,0,9.1,1.2,12.9,3.2c4.1,2.3,6.7,4.7,9.1,7.9
	L535.9,1081.8z M651.5,1069c8.5,3.2,14.6,7.9,20.2,14c4.7,6.1,8.5,14,10.2,23.4c2,9.1,3.2,19.6,3.2,31.8v72.7h-40.3v-19h-0.6
	c-5.5,7.3-12.3,12.9-20.2,16.4c-8.2,3.2-16.6,5-25.7,5c-6.7,0-12.9-1.2-19-3.2c-6.1-1.8-11.7-4.7-16.6-8.5c-4.7-3.5-8.5-8.5-10.8-14
	c-2.6-5.5-4.4-11.7-4.4-19c0-7.9,1.2-15.2,4.4-20.7c2.9-5.5,7.3-10.2,12.3-14c4.7-3.8,10.8-6.7,17.5-8.5c6.7-2,13.4-3.8,20.7-4.4
	c7.3-1.2,14-1.8,21.6-1.8h19.6c0-7.9-3.2-14-8.8-18.4c-5.5-5-12.3-6.7-19.6-6.7s-14,1.2-19.6,4.4c-6.1,2.9-10.8,7.3-15.8,12
	l-23.4-23.7c8.2-7.3,17.8-13.4,28.9-17.2c10.8-3.5,21.9-5.5,34.2-5.5C632.5,1064,642.8,1066.1,651.5,1069z M620.9,1147.8
	c-5,0-9.6,1.2-14.6,2.3c-5,1.5-8.5,3.8-11.7,6.1c-2.9,2.6-5,6.7-5,11.7c0,5.5,2.6,9.1,6.7,11.7c4.4,2.3,9.3,3.5,14.3,3.5
	c4.1,0,8.5-0.6,12-1.8c4.4-1.2,7.3-2.9,11.1-5c2.9-2.3,5.5-4.7,7.3-7.9c1.8-2.9,3.2-7.3,3.2-11.7v-9.1h-11.1v-0.6
	C629.9,1147.3,625.8,1147.3,620.9,1147.8z M842,1067.2h-43.8v71.6c0,4.7,0,9.1-0.6,13.4c-0.6,4.1-2,7.9-3.8,11.4
	c-1.8,3.2-4.1,6.1-7.9,8.2c-3.8,1.8-8.5,2.9-14,2.9s-9.9-1.2-12.9-3.5c-3.2-2.6-5.5-5.5-6.7-9.3c-1.2-3.5-2.3-7.9-2.3-12.3
	c-0.9-4.1-0.9-8.5-0.9-12.9v-69.5h-43.8v78.3c0,9.6,0.6,19,1.8,26.9c1.2,7.9,3.8,15.2,7.3,21.3c3.8,6.1,9.3,10.5,16.1,14
	c6.7,3.2,15.8,5,26.9,5c5.3,0,10.2-0.6,14.6-1.8c5-2,8.5-3.2,12.3-5.5c3.5-2.6,6.7-5,9.1-7.3c2.3-2.6,4.4-5.5,6.1-8.2h0.6v19.6h42.1
	v-142.3H842z M870.9,1209.5h43.8V987.8h-43.8V1209.5z M1035.9,1069c8.5,3.2,14.6,7.9,20.2,14c4.7,6.1,8.5,14,10.2,23.4
	c1.8,9.1,3.2,19.6,3.2,31.8v72.7h-40.3v-19h-0.6c-5.5,7.3-12.3,12.9-20.4,16.4c-7.9,3.2-16.4,5-25.4,5c-6.7,0-12.9-1.2-19-3.2
	c-6.1-1.8-11.7-4.7-16.6-8.5c-4.7-3.5-8.5-8.5-10.8-14c-2.6-5.5-4.4-11.7-4.4-19c0-7.9,1.2-15.2,4.4-20.7c2.9-5.5,7.3-10.2,12-14
	c5-3.8,11.1-6.7,17.8-8.5c6.7-2,13.4-3.8,20.7-4.4c7.3-1.2,14-1.8,21.3-1.8h19.6c0-7.9-2.9-14-8.5-18.4c-5.5-5-12.3-6.7-19.6-6.7
	s-14,1.2-19.6,4.4c-6.1,2.9-10.8,7.3-15.8,12l-23.4-23.7c8.2-7.3,17.8-13.4,28.9-17.2c10.8-3.5,21.9-5.5,34.2-5.5
	C1016.9,1064,1027.1,1066.1,1035.9,1069z M1005.2,1147.8c-5,0-9.6,1.2-14.6,2.3c-5,1.5-8.8,3.8-11.7,6.1c-2.9,2.6-5,6.7-5,11.7
	c0,5.5,2.6,9.1,6.7,11.7c4.4,2.3,9.3,3.5,14,3.5c4.4,0,8.8-0.6,12.3-1.8c4.4-1.2,7.3-2.9,11.1-5c2.9-2.3,5.5-4.7,7.3-7.9
	c1.8-2.9,3.2-7.3,3.2-11.7v-9.1h-11.1v-0.6C1014.3,1147.3,1010.2,1147.3,1005.2,1147.8z M1235.7,1067.2h-45.3l-31.3,94h-0.6
	l-36.5-94h-47.9l63.1,142.8l-3.2,8.2c-1.2,4.1-2.9,7.3-4.1,10.2c-1.2,3.2-3.2,5.5-5,7.3c-2.3,2.6-5,3.8-7.9,5
	c-3.2,1.2-7.3,1.8-12.3,1.8c-7.3,0-14-1.2-20.7-4.1l-6.1,35.9c11.1,3.8,21.3,5.5,33,5.5c11.1,0,19-1.2,25.7-2.9
	c6.1-2,11.7-5,15.8-9.3c4.4-3.5,7.9-8.5,10.5-14.6c2.9-5.5,5.5-12.9,8.5-20.2L1235.7,1067.2z M1331.5,1209.5h130.9v-42.1h-85v-165.6
	h-45.9V1209.5z M1486,1040.9c5.5,5,11.1,7.3,18.4,7.3c7.3,0,13.4-2.3,18.4-7.3c5-5.5,7.3-11.1,7.3-18.4c0-7.3-2.3-13.4-7.3-18.4
	c-5.5-4.7-11.1-7.3-18.4-7.3c-7.3,0-13.4,2.6-18.4,7.3c-4.7,5.5-7.3,11.1-7.3,18.4C1478.7,1029.3,1481.3,1035.4,1486,1040.9z
	 M1482.5,1209.5h44.1v-142.3h-44.1V1209.5z M1603.4,987.8v94.6h0.6c5-6.7,11.7-11.7,19.6-14.6c7.9-2.9,16.6-4.4,25.7-4.4
	c10.5,0,19.6,2,27.5,6.1c7.9,4.4,14.6,9.9,20.2,17.2c5.5,7.3,9.9,15.2,12.9,24.5c3.2,9.1,4.4,18.1,4.4,28.6c0,11.1-2,20.7-5,29.2
	c-2.9,9.3-7.9,16.6-14,23.4c-6.1,6.7-13.4,11.7-21.9,15.2c-8.8,3.8-18.4,5.5-28.9,5.5c-4.7,0-9.6-0.6-14.6-1.8
	c-4.4-1.5-8.5-3.2-12.3-5.5c-3.5-2.6-7.3-4.4-9.6-7.3c-3.2-2.6-5-5.5-6.7-8.2h-0.6v19h-40.3V987.8H1603.4z M1609,1112.5
	c-6.1,6.7-9.1,15.2-9.1,26.3c0,10.8,2.9,19.6,9.1,26.3c6.1,6.7,14.6,9.6,25.7,9.6c10.8,0,19.6-2.9,25.7-9.6
	c6.1-6.7,9.1-15.5,9.1-26.3c0-11.1-2.9-19.6-9.1-26.3c-6.1-6.7-14.9-9.9-25.7-9.9C1623.6,1102.6,1615.1,1105.8,1609,1112.5z
	 M1732.5,1209.5h43.8v-59.3c0-7.3,0.6-13.4,1.2-19.6c0.6-5.8,2.6-10.8,5-15.2c2.3-4.1,6.1-7.3,11.1-9.6c4.7-2.6,11.7-3.8,20.2-3.8
	c3.5,0,6.7,0,9.6,0.6c3.2,0.6,6.1,1.2,9.3,2.6v-40.3c-2.6-0.9-7.3-1.5-7.3-1.5h-7.6c-9.6,0-17.5,2.6-24.2,6.7
	c-6.1,4.4-11.7,11.1-16.6,19.6h-0.6v-22.5h-43.8L1732.5,1209.5L1732.5,1209.5z M1941.4,1069c8.5,3.2,14.6,7.9,20.2,14
	c5,6.1,8.5,14,10.5,23.4c1.8,9.1,2.9,19.6,2.9,31.8v72.7h-40.3v-19h-0.6c-5.5,7.3-12.3,12.9-20.2,16.4c-7.9,3.2-16.6,5-25.7,5
	c-6.7,0-12.9-1.2-19-3.2c-6.1-1.8-11.7-4.7-16.4-8.5c-5-3.5-8.8-8.5-11.1-14c-2.3-5.5-4.4-11.7-4.4-19c0-7.9,1.5-15.2,4.4-20.7
	c2.9-5.5,7.3-10.2,12.3-14c5-3.8,11.1-6.7,17.8-8.5c6.7-2,13.4-3.8,20.7-4.4c7.3-1.2,14-1.8,21.3-1.8h19.6c0-7.9-3.2-14-8.5-18.4
	c-5.5-5-12.3-6.7-19.6-6.7c-7.3,0-14.3,1.2-19.6,4.4c-6.1,2.9-11.1,7.3-16.1,12l-23.1-23.7c7.9-7.3,17.5-13.4,28.6-17.2
	c11.1-3.5,21.9-5.5,34.2-5.5C1922.4,1064,1932.9,1066.1,1941.4,1069z M1910.7,1147.8c-4.7,0-9.6,1.2-14.6,2.3
	c-4.7,1.5-8.5,3.8-11.7,6.1c-2.9,2.6-4.7,6.7-4.7,11.7c0,5.5,2.3,9.1,6.7,11.7c4.1,2.3,9.1,3.5,14,3.5c4.4,0,8.5-0.6,12.3-1.8
	c4.1-1.2,7.3-2.9,10.8-5c3.2-2.3,5.5-4.7,7.3-7.9c2-2.9,3.2-7.3,3.2-11.7v-9.1h-11.1v-0.6C1920,1147.3,1915.7,1147.3,1910.7,1147.8z
	 M1994.5,1209.5h44.1v-59.3c0-7.3,0.6-13.4,1.2-19.6c0.6-5.8,2.3-10.8,5-15.2c2.3-4.1,6.1-7.3,10.8-9.6c5-2.6,11.7-3.8,20.2-3.8
	c3.8,0,6.7,0,9.9,0.6c2.9,0.6,6.1,1.2,9.1,2.6v-40.3c-2.3-0.9-7.3-1.5-7.3-1.5h-7.3c-9.9,0-17.8,2.6-24.5,6.7
	c-6.1,4.4-11.7,11.1-16.4,19.6h-0.6v-22.5h-44.1L1994.5,1209.5L1994.5,1209.5z M2215.7,1067.2l-31,94h-0.6l-36.8-94h-47.6
	l62.2,142.8l-2.9,8.2c-1.2,4.1-3.2,7.3-4.4,10.2c-1.2,3.2-2.9,5.5-5,7.3c-2.3,2.6-4.7,3.8-7.9,5c-2.9,1.2-7.3,1.8-12.3,1.8
	c-7.3,0-14-1.2-20.7-4.1l-6.1,35.9c11.1,3.8,21.6,5.5,33,5.5c11.1,0,19-1.2,25.7-2.9c6.1-2,11.7-5,16.1-9.3
	c4.1-3.5,7.9-8.5,10.2-14.6c3.2-5.5,5.5-12.9,8.5-20.2l68.5-165.6L2215.7,1067.2L2215.7,1067.2z"/>
</svg>
