<?xml version="1.0" encoding="utf-8"?>
<!-- Generator: Adobe Illustrator 18.0.0, SVG Export Plug-In . SVG Version: 6.00 Build 0)  -->
<!DOCTYPE svg PUBLIC "-//W3C//DTD SVG 1.1//EN" "http://www.w3.org/Graphics/SVG/1.1/DTD/svg11.dtd">
<svg version="1.1"
	 id="svg8" xmlns:dc="http://purl.org/dc/elements/1.1/" xmlns:cc="http://creativecommons.org/ns#" xmlns:rdf="http://www.w3.org/1999/02/22-rdf-syntax-ns#" xmlns:svg="http://www.w3.org/2000/svg" xmlns:sodipodi="http://sodipodi.sourceforge.net/DTD/sodipodi-0.dtd" xmlns:inkscape="http://www.inkscape.org/namespaces/inkscape" sodipodi:docname="mammalia.svg" inkscape:version="0.92.4 (5da689c313, 2019-01-14)"
	 xmlns="http://www.w3.org/2000/svg" xmlns:xlink="http://www.w3.org/1999/xlink" x="0px" y="0px" viewBox="0 0 2267.7 2267.7"
	 enable-background="new 0 0 2267.7 2267.7" xml:space="preserve">
<sodipodi:namedview  borderopacity="1.0" bordercolor="#666666" showgrid="false" pagecolor="#ffffff" inkscape:cy="872.50279" inkscape:cx="945.93665" inkscape:zoom="0.1400905" id="base" inkscape:document-units="mm" inkscape:pageshadow="2" inkscape:window-x="-8" inkscape:current-layer="layer1" inkscape:window-height="962" inkscape:window-y="-8" inkscape:pageopacity="0.0" inkscape:window-width="1280" inkscape:window-maximized="1">
	</sodipodi:namedview>
<path fill="none" stroke="#000000" stroke-width="0.25" stroke-miterlimit="10" d="M2013.4,2050.5
	c-123.2,208.9-203.6,128.6-543.7,203.6c-37.5,8-77.7,2.7-115.2-2.7c-155.3-18.7-310.7-42.9-492.8-69.6
	c123.2-174.1,251.8-64.3,369.6-61.6c32.1-75-40.2-88.4-67-125.9c-190.2-238.4-190.2-235.7-372.3,26.8
	c-77.7,115.2-142,131.2-353.5,67c171.4-58.9,211.6-190.2,262.5-321.4c42.9-109.8,34.8-184.8-58.9-257.1
	c-80.4-61.6-150-155.3-128.6-254.4c64.3-297.3-5.4-302.7-214.3-383c-128.6-48.2,0-195.5,64.3-246.4
	c123.2-93.7,147.3-179.5,69.6-310.7C401,256,403.7,181,435.8,116.7c24.1-53.6,29.5-117.8,112.5-24.1c16.1,18.7,26.8,26.8,37.5,29.5
	c120.5,192.8,150,476.8,150,476.8c2.7-77.7,2.7-283.9-42.9-393.7c-10.7-26.8-42.2-76.3-99.6-87.3C588.7,113.5,636.7,12.3,701,9.6
	C792.1,135.5,861.7,264,824.2,446.2c-42.9,208.9,171.4,498.2,377.7,549.1c316.1,75,506.2,275.9,621.4,573.2
	c34.8,88.4-5.4,407.1,195.5,391C2018.8,1959.5,2032.6,2007.9,2013.4,2050.5z"/>
</svg>
