<?xml version="1.0" encoding="utf-8"?>
<!-- Generator: Adobe Illustrator 18.0.0, SVG Export Plug-In . SVG Version: 6.00 Build 0)  -->
<!DOCTYPE svg PUBLIC "-//W3C//DTD SVG 1.1//EN" "http://www.w3.org/Graphics/SVG/1.1/DTD/svg11.dtd">
<svg version="1.1"
	 id="svg8" xmlns:dc="http://purl.org/dc/elements/1.1/" xmlns:cc="http://creativecommons.org/ns#" xmlns:rdf="http://www.w3.org/1999/02/22-rdf-syntax-ns#" xmlns:svg="http://www.w3.org/2000/svg" xmlns:sodipodi="http://sodipodi.sourceforge.net/DTD/sodipodi-0.dtd" xmlns:inkscape="http://www.inkscape.org/namespaces/inkscape" sodipodi:docname="mollusca.svg" inkscape:version="0.92.4 (5da689c313, 2019-01-14)"
	 xmlns="http://www.w3.org/2000/svg" xmlns:xlink="http://www.w3.org/1999/xlink" x="0px" y="0px" viewBox="0 0 2267.7 2267.7"
	 enable-background="new 0 0 2267.7 2267.7" xml:space="preserve">
<sodipodi:namedview  borderopacity="1.0" bordercolor="#666666" showgrid="false" pagecolor="#ffffff" inkscape:cy="660.83868" inkscape:cx="1556.1847" inkscape:zoom="0.1400905" id="base" inkscape:document-units="mm" inkscape:pageshadow="2" inkscape:window-x="-8" inkscape:current-layer="layer1" inkscape:window-height="962" inkscape:window-y="-8" inkscape:pageopacity="0.0" inkscape:window-width="1280" inkscape:window-maximized="1">
	</sodipodi:namedview>
<path id="path3713" inkscape:connector-curvature="0" fill="none" stroke="#000000" stroke-width="0.25" stroke-miterlimit="10" d="
	M2223,867.9c22.7,50.4,35.3,108.4,35.3,166.4c0,70.6-17.6,138.7-52.9,199.2c0-5,0-12.6-2.5-17.6C2182.7,1105,2132.3,989,2051.6,868
	c-95.8-143.7-226.9-254.6-390.8-332.8c-156.3-70.6-332.8-108.4-526.9-108.4s-370.6,37.7-526.9,108.3
	c-163.9,78.2-295,189.1-390.8,332.8C130.4,994,80,1117.5,62.3,1236C27,1175.5,9.4,1107.4,9.4,1034.3c0-60.5,12.6-118.5,35.3-168.9
	c204.2-431.1,620.2-700.8,1089.1-700.8S2018.8,434.2,2223,867.9z M1991,920.8c75.6,108.4,121,214.3,138.7,312.6
	c5,30.3,7.6,58,7.6,85.7c-2.5,5-7.6,10.1-12.6,15.1l-204.2,174c-30.3-78.2-73.1-158.8-131.1-244.5c-70.6-103.4-163.9-184-279.8-237
	c-110.9-52.9-237-78.2-375.6-78.2s-264.9,25.2-375.8,78.2c-116,52.9-209.2,133.6-279.8,237c-58,85.7-100.8,166.4-131.1,244.5
	l-204.2-174c-2.5-5-7.6-7.6-12.6-12.6c2.5-123.5,50.4-259.7,143.7-400.8c176.5-262.2,481.5-405.9,859.7-405.9S1817,658.6,1991,920.8
	z M1728.8,1316.6c42.9,63,95.8,153.8,128.6,244.5l-221.8,189.1c-22.7-27.7-47.9-52.9-73.1-78.2
	c-118.5-108.4-272.3-168.9-428.6-168.9c-158.8,0-310.1,60.5-428.6,168.9c-27.7,25.2-50.4,50.4-73.1,78.2l-221.9-189.1
	c32.8-90.8,85.7-181.5,128.6-244.5c121-181.5,332.8-282.4,595-282.4S1607.8,1135.1,1728.8,1316.6z M1587.6,1823.3l27.7,75.6
	c17.6,45.4,12.6,98.3-12.6,138.7c-27.7,40.3-70.6,65.5-118.5,65.5h-595c17.6-113.4,121-201.7,244.5-201.7
	c50.4,0,98.3,15.1,141.2,42.9c15.1,10.1,35.3,2.5,42.9-17.6c7.6-20.2,2.5-47.9-15.1-58c-50.4-35.3-108.4-52.9-168.9-52.9
	c-161.3,0-292.4,126.1-310.1,287.4h-42.9c-45.4,0-88.2-25.2-116-65.5c-25.2-40.3-30.3-93.3-12.6-138.7l27.7-75.6
	c88.2-123.5,252.1-231.9,453.8-231.9C1133.8,1591.4,1463.2,1578.5,1587.6,1823.3z"/>
</svg>
