<?xml version="1.0" encoding="utf-8"?>
<!-- Generator: Adobe Illustrator 18.0.0, SVG Export Plug-In . SVG Version: 6.00 Build 0)  -->
<!DOCTYPE svg PUBLIC "-//W3C//DTD SVG 1.1//EN" "http://www.w3.org/Graphics/SVG/1.1/DTD/svg11.dtd">
<svg version="1.1"
	 id="svg8" xmlns:dc="http://purl.org/dc/elements/1.1/" xmlns:cc="http://creativecommons.org/ns#" xmlns:rdf="http://www.w3.org/1999/02/22-rdf-syntax-ns#" xmlns:svg="http://www.w3.org/2000/svg" xmlns:sodipodi="http://sodipodi.sourceforge.net/DTD/sodipodi-0.dtd" xmlns:inkscape="http://www.inkscape.org/namespaces/inkscape" sodipodi:docname="no-evaluado-ne.svg" inkscape:version="0.92.4 (5da689c313, 2019-01-14)"
	 xmlns="http://www.w3.org/2000/svg" xmlns:xlink="http://www.w3.org/1999/xlink" x="0px" y="0px" viewBox="0 0 2267.7 2267.7"
	 enable-background="new 0 0 2267.7 2267.7" xml:space="preserve">
<sodipodi:namedview  borderopacity="1.0" bordercolor="#666666" showgrid="false" pagecolor="#ffffff" inkscape:cy="1167.2953" inkscape:cx="1398.7589" inkscape:zoom="0.1400905" id="base" inkscape:document-units="mm" inkscape:pageshadow="2" inkscape:window-x="-8" inkscape:current-layer="layer1" inkscape:window-height="962" inkscape:window-y="-8" inkscape:pageopacity="0.0" inkscape:window-width="1280" inkscape:window-maximized="1">
	</sodipodi:namedview>
<path fill="none" stroke="#000000" stroke-width="0.2646" d="M2241.1,6.1H1065.6v2.2C474.5,43.7,6.2,534,6.2,1133.8
	c0,622.8,504.8,1127.7,1127.7,1127.7c622.8,0,1127.7-504.9,1127.7-1127.7V26.6C2261.5,15.3,2252.4,6.1,2241.1,6.1z M1172.5,1510.8
	H969.4l-328-570.3h-4.7c6.5,100.8,9.8,172.6,9.8,215.6v354.8H503.8v-754h201.6l327.4,564.6h3.6c-5.2-97.9-7.7-167.2-7.7-207.8V756.9
	h143.9v753.9H1172.5z M1764,887.9h-274.3v165.5h255.2v130.9h-255.2v194.4H1764v132h-434.1V756.9H1764V887.9z"/>
</svg>
