<?xml version="1.0" encoding="utf-8"?>
<!-- Generator: Adobe Illustrator 18.0.0, SVG Export Plug-In . SVG Version: 6.00 Build 0)  -->
<!DOCTYPE svg PUBLIC "-//W3C//DTD SVG 1.1//EN" "http://www.w3.org/Graphics/SVG/1.1/DTD/svg11.dtd">
<svg version="1.1"
	 id="svg8" xmlns:dc="http://purl.org/dc/elements/1.1/" xmlns:cc="http://creativecommons.org/ns#" xmlns:rdf="http://www.w3.org/1999/02/22-rdf-syntax-ns#" xmlns:svg="http://www.w3.org/2000/svg" xmlns:sodipodi="http://sodipodi.sourceforge.net/DTD/sodipodi-0.dtd" xmlns:inkscape="http://www.inkscape.org/namespaces/inkscape" sodipodi:docname="peces-mariscos-comerciales.svg" inkscape:version="0.92.4 (5da689c313, 2019-01-14)"
	 xmlns="http://www.w3.org/2000/svg" xmlns:xlink="http://www.w3.org/1999/xlink" x="0px" y="0px" viewBox="0 0 2267.7 2267.7"
	 enable-background="new 0 0 2267.7 2267.7" xml:space="preserve">
<sodipodi:namedview  borderopacity="1.0" bordercolor="#666666" showgrid="false" pagecolor="#ffffff" inkscape:cy="1130.3504" inkscape:cx="1258.6408" inkscape:zoom="0.1400905" id="base" inkscape:document-units="mm" inkscape:pageshadow="2" inkscape:window-x="-8" inkscape:current-layer="layer1" inkscape:window-height="962" inkscape:window-y="-8" inkscape:pageopacity="0.0" inkscape:window-width="1280" inkscape:window-maximized="1">
	</sodipodi:namedview>
<path id="path3713" inkscape:connector-curvature="0" fill="none" stroke="#000000" stroke-miterlimit="10" d="M1931,1294.1
	l-4.5,9.1l4.5-2.3l106.7,27.2c6.8,2.3,11.3,4.5,13.6,9.1l122.6,124.8c4.5,6.8,6.8,13.6,6.8,22.7v122.6c0,18.2-15.9,31.8-31.8,31.8
	c-15.9,0-29.5-13.6-29.5-31.8v-111.2l-104.4-109l-108.9-29.5c-9.1,13.6-18.2,27.2-29.5,40.9L1981,1453c6.8,4.5,11.3,9.1,13.6,15.9
	l59,122.6c4.5,9.1,4.5,20.4,0,27.2l-61.3,122.6c-9.1,15.9-27.2,22.7-40.9,13.6c-15.9-6.8-22.7-25-13.6-40.9l54.5-108.9l-47.7-99.9
	l-115.7-61.3c-20.4,13.6-40.9,27.2-61.3,36.3l97.6,102.1c6.8,4.5,9.1,13.6,9.1,20.4l-2.3,124.8c0,11.3-6.8,22.7-15.9,27.2
	l-90.8,43.1c-6.8-18.2-13.6-38.6-20.4-56.7l65.8-34l2.3-90.8l-111.2-113.5c-20.4,4.5-40.9,6.8-63.5,4.5h4.5c-4.5,0-6.8,0-9.1,0
	c-6.8,0-13.6,0-20.4,2.3c-18.2-25-38.6-49.9-61.3-72.6c-90.8-93.1-202-152.1-310.9-163.4l-25-2.3c-38.6-2.3-70.4,4.5-115.7,6.8
	c-43.1,2.3-88.5,11.3-129.4,11.3c-2.3-13.6-4.5-61.3-4.5-74.9c-84-22.7-81.7-22.7-84-25c-61.3-25-108.9-61.3-149.8-115.7
	c-36.3-49.9-59-106.7-70.4-174.8c-11.3-74.9,0-122.6,4.5-227c0,0,0-2.3,0-4.5c13.6-68.1,56.7-129.4,113.5-168l49.9-31.8
	c81.7-52.2,181.6-56.7,263.3-13.6l61.3,31.8c-65.8,43.3-199.7,129.6-222.4,145.5c-13.6,9.1-18.2,27.2-9.1,43.1
	c9.1,13.6,29.5,18.2,43.1,9.1l145.3-95.3c59,72.6,43.1,181.6-27.2,227l-65.8,43.1c-45.4,29.5-95.3,49.9-145.3,61.3
	c6.8,18.2,18.2,34,36.3,43.1l68.1,36.3c6.8-11.3,15.9-22.7,27.2-29.5c22.7-18.2,49.9-22.7,77.2-15.9c54.5,13.6,127.1,18.2,188.4-4.5
	c0-2.3,0-2.3,0-2.3l6.8-177c-29.5-6.8-49.9-34-49.9-63.5c2.3-34,29.5-63.5,63.5-61.3c34,0,63.5,29.5,61.3,63.5
	c0,29.5-20.4,54.5-49.9,61.3l-6.8,168c11.3-6.8,22.7-13.6,34-22.7l74.9-68.1c31.8-27.2,77.2-27.2,106.7,2.3l59,54.5
	c13.6,13.6,31.8,25,49.9,34l6.8-165.7c-29.5-4.5-49.9-31.8-49.9-61.3c2.3-34,29.5-61.3,63.5-61.3c36.3,0,63.5,29.5,63.5,63.5
	c-2.3,29.5-22.7,54.5-52.2,61.3l-6.8,174.8c56.7,25,122.6,29.5,181.6,15.9c27.2-6.8,56.7-2.3,79.4,15.9
	c11.3,9.1,20.4,20.4,27.2,31.8l68.1-34c18.2-9.1,31.8-25,38.6-45.4c-106.7-25-161.1-79.4-206.5-106.7
	c-120.3-84-72.6-186.1-36.3-233.8l11.3,6.8c59,43.1,122.6,86.2,136.2,97.6c15.9,9.1,34,6.8,43.1-9.1c11.3-13.6,6.8-34-6.8-43.1
	l-213.3-149.9l63.5-29.5c84-40.9,183.8-36.3,263.3,20.4l49.9,31.8c56.7,40.9,97.6,102.1,108.9,170.2c2.3,4.5,0,0,4.5,124.8
	c2.3,36.3,0,74.9-6.8,108.9c-11.3,65.8-36.3,122.6-74.9,170.2c-40.9,54.5-88.5,90.8-149.8,113.5c-4.5,2.3,0,0-86.2,20.4
	C1940.1,1251,1937.9,1273.7,1931,1294.1z M1125.3,2120.2c-31.8-90.8-52.2-188.4-52.2-290.5c0-172.5,52.2-333.6,138.4-467.5
	c6.8-2.3,15.9,2.3,22.7,2.3c0,0,0-2.3,0,0c122.6,38.6,233.8,97.6,326.8,190.6c84,86.2,136.2,190.6,161.1,306.4
	c4.5,20.4-11.3,52.2-29.5,68.1c-122.6,120.3-272.4,174.8-440.3,188.4c-13.6,0-25,2.3-38.6,0
	C1182.1,2115.7,1152.6,2115.7,1125.3,2120.2z M1293.3,1741.2c0,38.6,20.4,61.3,59,63.5c38.6,0,61.3-20.4,63.5-63.5
	c0-36.3-20.4-59-56.7-61.3C1318.3,1679.9,1293.3,1702.6,1293.3,1741.2z M1041.4,2156.5c-11.3,9.1-22.7,15.9-31.8,27.2
	c-52.2,54.5-129.4,61.3-202,49.9c-13.6-2.3-36.3-29.5-34-43.1c0-43.1,11.3-84,20.4-131.6c-15.9-6.8-34-11.3-49.9-20.4
	c-102.1-54.5-202-108.9-301.9-168c-25-15.9-43.1-27.2-74.9-15.9c-65.8,22.7-172.5,6.8-177-31.8c-4.5-49.9,22.7-102.1,36.3-161.1
	c-34-61.3-79.4-133.9-118-211.1c-95.4-188.3-113.5-388-90.8-592.3C29.1,772.1,45,685.8,72.3,604.1
	C144.9,386.2,301.5,241,487.6,120.7c56.7-34,115.7-63.5,177-88.5c20.4-9.1,49.9,6.8,77.2,9.1c-4.5,25-2.3,54.5-13.6,72.6
	c-31.8,43.1-70.4,81.7-104.4,122.6c-34,36.3-70.4,70.4-97.6,111.2c-43.1,61.3-49.9,124.8,2.3,186.1c6.8,9.1,11.3,18.2,18.2,25
	C583,620.1,569.4,670,501.3,695c-40.9,15.9-84,27.2-124.8,45.4C256.2,792.6,179,915.2,185.9,1040c4.5,70.4,36.3,122.6,99.9,152.1
	c15.9,6.8,31.8,11.3,47.7,13.6c102.1,63.5,360.9,190.6,767.1,165.7c-72.6,136.2-115.7,292.8-115.7,458.5
	C990.6,2000.7,1041.4,2156.5,1041.4,2156.5z"/>
</svg>
