<?xml version="1.0" encoding="utf-8"?>
<!-- Generator: Adobe Illustrator 18.0.0, SVG Export Plug-In . SVG Version: 6.00 Build 0)  -->
<!DOCTYPE svg PUBLIC "-//W3C//DTD SVG 1.1//EN" "http://www.w3.org/Graphics/SVG/1.1/DTD/svg11.dtd">
<svg version="1.1"
	 id="svg8" xmlns:dc="http://purl.org/dc/elements/1.1/" xmlns:cc="http://creativecommons.org/ns#" xmlns:rdf="http://www.w3.org/1999/02/22-rdf-syntax-ns#" xmlns:svg="http://www.w3.org/2000/svg" xmlns:sodipodi="http://sodipodi.sourceforge.net/DTD/sodipodi-0.dtd" xmlns:inkscape="http://www.inkscape.org/namespaces/inkscape" sodipodi:docname="porifera.svg" inkscape:version="0.92.4 (5da689c313, 2019-01-14)"
	 xmlns="http://www.w3.org/2000/svg" xmlns:xlink="http://www.w3.org/1999/xlink" x="0px" y="0px" viewBox="0 0 2267.7 2267.7"
	 enable-background="new 0 0 2267.7 2267.7" xml:space="preserve">
<sodipodi:namedview  borderopacity="1.0" bordercolor="#666666" showgrid="false" pagecolor="#ffffff" inkscape:cy="703.14882" inkscape:cx="1099.027" inkscape:zoom="0.1400905" id="base" inkscape:document-units="mm" inkscape:pageshadow="2" inkscape:window-x="-8" inkscape:current-layer="layer1" inkscape:window-height="962" inkscape:window-y="-8" inkscape:pageopacity="0.0" inkscape:window-width="1280" inkscape:window-maximized="1">
	</sodipodi:namedview>
<path id="path3713" inkscape:connector-curvature="0" fill="none" stroke="#000000" stroke-width="0.25" stroke-miterlimit="10" d="
	M639.9,2022.3c12,15,27,6,45-3c75-48,123-48,192-6c9,6,15,0,21-6c15-30,36-15,54-3c75,48,156,93,231,147c60,45,120,78,198,90
	c159,30,312,21,465,3c120-12,213-90,327-123c24-9,39-33,45-60c30-90,48-183,42-279c-9-123-51-216-174-258c-57-18-90-63-117-114
	c-39-81-81-96-165-69c-57,18-102,54-150,87c-15,9-30,27-51,24c-48-9-78,15-111,45c-54,45-90,42-147-3c84-75,195-96,282-171
	c84-72,141-156,204-243c12-15,18-36,21-54c21-102,21-204-30-300c-27-57-60-90-120-84c-33,3-48-12-60-39c-51-102-132-174-240-216
	c-18-6-33-18-33-39c0-39-18-75-27-114c-24-138-153-234-294-225c-24,0-51,0-75,0c-45,0-90,6-132,15c-75,15-108,84-84,186
	c15,66,15,129-6,192c-12,42-30,57-72,45c-69-18-135-18-201,3c-39,15-69,9-108-6c-168-60-369,9-363,246c3,120,30,237,54,351
	c9,39,27,72,54,99s30,60,6,87c-30,42-15,66,21,93c105,81,171,174,141,315c-3,12,6,27,6,42c-3,45,51,48,60,81c15,48,48,81,93,99
	c54,21,84-18,111-57c-3,54-30,93-81,99c-96,9-123-69-159-135c-30,72,15,111,57,153c33,36,81,48,111,84c3-3,3-9,6-12
	c33-18,69-6,75,39C591.9,2004.3,612.9,1983.3,639.9,2022.3z M834.9,1299.3c15,0,30,0,45-6c6-3,18-9,18,6c3,6,0,15-12,15
	c-24-6-27,12-27,30c0,9,6,30-12,27c-18-3-15-18-6-33c0-3,0-9,3-15c-42,9-78-3-90-39c-3-12-6-57,33-57c3-15-18-36,12-39
	c12,0,9-9,9-15c0-12-6-24,6-30c18-3,12,15,15,21c3,9,12,12,18,9c12-3,6-9,6-18c-9-57-24-114,21-165c9-9,3-30,6-42c6-24,0-57,42-51
	c9,3,27-6,24-21c-3-12-12-18,9-12c18,3,21-9,27-21c12-33,30-45,63-18c15-30-66-99,39-84c-9-27-30-18-54-30c48-3,39-57,78-60
	c-18-36,21-48,33-72c3-9,9-27,24-24c15,3,9,18,12,27c39,141,198,228,333,186c9-3,18-12,30,3c-48,30-69,87-117,114c-9,6-9,15-12,24
	c-3,21-15,30-39,30c-21-3-51-6-42,36c3,18-15,33-30,36c-27,0-24,18-18,33c9,36-3,63-45,66c-21,3-36,3-51,24c-6,9-30,12-48,0
	c-42-24-84-39-132-6c42,18,93-6,132,36c-51-9-90,24-138,3c-9-3-45-15-42,24c0,9-18,3-30,3c-39-3-63,9-81,42c-6,9-15,6-24,3
	c-12-3-18-21-36-12C804.9,1248.3,783.9,1296.3,834.9,1299.3z M1497.9,2094.3c21,0,42,3,54,21c6,6-6,12-12,18c-21,18-39,3-57-9
	c-30-18-60-42-99-12c-9,9-18,0-27-9c-30-24-60-48-102-63c-30-9-72-18-87-57c-6-12-15-18-27-18c-15,0-27,0-33-21c-6-21-42-3-54-27
	c-3-9-12-42-45-15c-18,15-21-42-42-33c-24,15-39,12-48-12c-12-30-33-48-75-57c27-9,36-24,42-42c21-48,72-72,117-54c30,9,69-9,90,24
	c18-21,39,9,63-3c30-15,69,3,105,0c30,0,60,48,87-3c9-18,21-30,39-33c18-3,33-12,48-21c12-3,30-36,39,6c3,6,24-6,36-15
	c39-33,81-63,120-96c18-12,33-21,54-21c-54,87-42,156,45,216c54,36,84,87,96,150c15,54,21,111,66,159c-30-21-57,9-87-6
	c-12-6-36,33-63,18c-12,45-54,15-78,30c-39,24-87,15-120-27c-3-6-15-9-21-9c-36,6-66-6-93-27
	C1443.9,2076.3,1464.9,2094.3,1497.9,2094.3z M705.9,744.3c12,0,27-18,36-3c9,15-3,36-15,42c-39,15-30,72-75,87c-12,3,6,36,27,42
	c30,12,30,30,0,39c-39,12-45,81-105,54c0,27,18,24,27,30c12,3,33-3,33,15c-3,21-24,27-36,27c-39-3-69,18-108,21c24,42,75,27,111,66
	c-75-15-132,36-201,12c27,12,6,60,51,60c30,0,60,6,93-9c-30,33-66,60-81,105c-9,21-36,24-48,6c-30-36-90-33-102-87
	c-24,15,0,30-15,42c-12-15-21-33-33-48c-15-18-57-24-45-51c9-24,51-6,69-12c24-9,39-21,45,15c18-15,21-27,12-45c-21-42-15-87,27-102
	c42-12,48-45,57-72c6-27,9-27,33-18s48,15,75,21c0-18-12-21-18-24c-66-21-54-87-75-132c-12-30,42-63,96-63c-18-39-42-72-48-114
	c21-12,33,6,48,12c51,21,99,21,147-12c9-9,21-24,33-12c12,12,6,30-3,42c-15,24-36,48-57,72C684.9,759.3,693.9,744.3,705.9,744.3z
	 M1665.9,954.3c6,42,27,72,63,96c-36,27-60-15-81-9c-54,12-24-48-54-51c-15,51,6,84,96,138c-63,48-129,81-210,84c18,18,33,12,48,15
	c12,0,24,6,24,15c-3,12-15,24-24,30c-27,15-9-12-15-15c-18-9-39-24-54-9c-18,15-33,3-48-3c3,42,39,27,63,60c-57-9-99-42-147-36
	c9,42,51,30,87,42c-69,45-132,81-210,87c-18,3-48-12-54,30c-3,18-30,3-45-6c-30-15-51-42-90-39c66-39,135-6,201-6c12-12-15-21-3-36
	c33,18,66,24,96-3c-60,9-114-45-174-9c-9,6-18,0-24-9c-3-12,6-21,15-21c54-12,84-63,144-66c30,0,69-30,84-51c30-36,69-42,99-69
	c6-3,21,0,18-3c-36-51,24-63,33-93c12-39,33-72,57-102c24-27,69-33,72-90C1659.9,876.3,1662.9,915.3,1665.9,954.3z M921.9,522.4
	c-12-3-39-51-12-87c3-6,9-18,0-18c-54-6-42-36-33-69c12-33,3-72,3-108c0-45,12-39,45-30c63,15,129,24,189,63c36,24,81,12,120,0
	c12-3,24-9,33,3c6,6,3,18-3,18c-27-6-3,42-36,33c-24-9-60,15-81,24c-99,48-141,141-198,231C939.9,555.4,951.9,534.4,921.9,522.4z
	 M405.9,828.3c-15,66-66,60-114,66c-15,3-42-9-45,15c-6,21,18,33,39,42c6,6,15,9,21,12c-3,3-3,9-6,9c-57-18-120-27-159-81
	c-12-15-24-36-9-54c18-18,30,9,42,12c6,3,12,3,21,6c-3-27-24-36-36-54c-15-24-57-45-6-78c12-6,3-15-3-24c-27-36-18-69,9-108
	c-9,81,39,114,102,132c57,15,111-6,168-72c12,72-63,105-69,174C375.9,825.3,390.9,828.3,405.9,828.3z M354.9,1437.3
	c18,9,36,30,60,24c66-15,75,27,81,75c6,45,6,96,78,78c6-3,18,6,27,12c18,12,9,33,15,48c3,9-6,21-18,18c-18-3-27-15-36-30
	c-3-6-6-12-12-27c-18,33-63,45-30,90c3,6-6,42-42,36c-57-9-102-36-144-75c-18-18-30-36-24-63c3-12,9-27,21-33c18-9,21,12,27,21
	c33,39,72,66,126,57c12-3,24-6,24-21c-3-15-15-9-24-9c-78-3-129-78-144-153c-6-33-30-39-57-63
	C315.9,1410.3,333.9,1425.3,354.9,1437.3z M315.9,1011.3c21-3,18,24,9,39c-6,18-21,27-42,27c9-15-3-21-78-45c0,3-3,9-3,12
	c0,15,24,21,9,39c0,3-9,3-12,0c-12-9-27-24-24-33c18-36-15-57-21-90"/>
</svg>
