<?xml version="1.0" encoding="utf-8"?>
<!-- Generator: Adobe Illustrator 18.0.0, SVG Export Plug-In . SVG Version: 6.00 Build 0)  -->
<!DOCTYPE svg PUBLIC "-//W3C//DTD SVG 1.1//EN" "http://www.w3.org/Graphics/SVG/1.1/DTD/svg11.dtd">
<svg version="1.1"
	 id="svg8" xmlns:dc="http://purl.org/dc/elements/1.1/" xmlns:cc="http://creativecommons.org/ns#" xmlns:rdf="http://www.w3.org/1999/02/22-rdf-syntax-ns#" xmlns:svg="http://www.w3.org/2000/svg" xmlns:sodipodi="http://sodipodi.sourceforge.net/DTD/sodipodi-0.dtd" xmlns:inkscape="http://www.inkscape.org/namespaces/inkscape" sodipodi:docname="prokaryotae.svg" inkscape:version="0.92.4 (5da689c313, 2019-01-14)"
	 xmlns="http://www.w3.org/2000/svg" xmlns:xlink="http://www.w3.org/1999/xlink" x="0px" y="0px" viewBox="0 0 2267.7 2267.7"
	 enable-background="new 0 0 2267.7 2267.7" xml:space="preserve">
<sodipodi:namedview  borderopacity="1.0" bordercolor="#666666" showgrid="false" pagecolor="#ffffff" inkscape:cy="876.42212" inkscape:cx="1050.4279" inkscape:zoom="0.1400905" id="base" inkscape:document-units="mm" inkscape:pageshadow="2" inkscape:window-x="-8" inkscape:current-layer="layer1" inkscape:window-height="962" inkscape:window-y="-8" inkscape:pageopacity="0.0" inkscape:window-width="1280" inkscape:window-maximized="1">
	</sodipodi:namedview>
<path id="path3713" inkscape:connector-curvature="0" fill="none" stroke="#000000" stroke-width="0.25" stroke-miterlimit="10" d="
	M1306.8,1008.1c-18.8,118-80.5,219.9-107.3,332.5c83.1-198.4,177-394.2,193.1-611.4c-26.8,88.5-56.3,177-83.1,268.2
	C1309.4,1000.1,1306.8,1005.4,1306.8,1008.1z M2092.5,254.5c-53.6,236-123.4,466.6-238.7,686.5c-42.9,80.5-69.7,168.9-131.4,241.4
	c-21.5,26.8-48.3,67-13.4,107.3c2.7,2.7,0,10.7-2.7,16.1c-67,193.1-93.9,391.5-128.7,590c-21.5,120.7-75.1,227.9-177,308.4
	c-59,45.6-120.7,75.1-203.8,48.3c-45.6-13.4-93.9-18.8-147.5-8c-77.8,13.4-147.5-10.7-203.8-69.7
	c-110-120.7-187.7-257.4-230.6-407.6c-34.9-120.7-85.8-238.7-150.2-345.9c-56.3-101.9-144.8-185-219.9-278.9
	c-21.5-24.1-45.6-48.3-69.7-72.4c-26.8-26.8-10.7-51,13.4-72.4c24.1-26.8,53.6-32.2,80.5-10.7c85.8,69.7,177,134.1,246.7,214.5
	s152.9,152.9,222.6,236c-53.6-380.8-120.7-758.9-244-1126.3c24.1,10.7,21.5,40.2,42.9,61.7c0-64.4,40.2-91.2,104.6-99.2
	c-8-21.5-16.1-42.9-21.5-61.7c5.4-2.7,13.4-2.7,18.8-5.4c72.4,260.1,209.2,504.2,225.3,783.1c21.5-10.7,10.7-21.5,8-32.2
	c0-8-2.7-16.1,0-26.8c32.2,75.1,48.3,155.5,91.2,241.4c26.8-134.1,48.3-254.8,80.5-375.4c8-37.5-13.4-83.1,40.2-112.6
	c8-5.4-18.8-64.4-5.4-99.2c2.7-13.4-2.7-29.5,5.4-40.2c37.5-72.4,5.4-147.5,16.1-222.6c5.4-42.9,0-88.5,13.4-134.1
	c0,37.5,0,75.1,0,112.6c16.1-42.9,8-85.8,34.9-126c-2.7,37.5-5.4,75.1-8,110c0,13.4-8,32.2,16.1,29.5c10.7,0,32.2-5.4,29.5-26.8
	c-5.4-37.5,8-72.4,8-110c8,48.3,18.8,96.5,26.8,144.8c0,0,2.7,0,5.4,0c0-42.9,0-88.5,0-131.4c2.7,0,5.4,0,8,0c0,91.2,0,185,0,278.9
	c0,0-2.7,0-5.4,0c0-21.5-2.7-42.9-5.4-64.4c-18.8,201.1-37.5,399.6,2.7,600.7c0-110,0-217.2,0-327.2c2.7,0,8,0,13.4,0
	c0,104.6,0,206.5,0,311.1c29.5,0,29.5-21.5,42.9-29.5c-21.5,120.7-91.2,225.3-120.7,345.9c93.9-206.5,201.1-410.3,219.9-638.2
	c-32.2,93.9-64.4,185-93.9,278.9c21.5-131.4,69.7-254.8,104.6-383.5c40.2-150.2,83.1-300.4,123.4-450.5c5.4-16.1,0-42.9,37.5-32.2
	c2.7,2.7-2.7-45.6,32.2-59c24.1-10.7,51-13.4,77.8-16.1c56.3-2.7,91.2,45.6,75.1,96.5c-40.2,118-72.4,236-104.6,356.7
	c-48.3,182.4-88.5,367.4-128.7,552.4c-2.7,10.7-2.7,18.8-5.4,29.5c-24.1-8-5.4-26.8-13.4-37.5c-37.5,75.1-37.5,152.9-45.6,230.6
	c5.4,0,10.7,0,16.1,2.7c5.4-48.3,13.4-96.5,18.8-142.1c18.8,64.4-16.1,131.4,5.4,206.5c59-69.7,93.9-144.8,136.8-217.2
	c120.7-198.4,233.3-402.3,319.1-614.1c32.2-77.8,72.4-152.9,112.6-225.3c13.4-26.8,5.4-53.6,13.4-77.8c2.7-13.4,8-26.8,26.8-26.8
	c21.5,2.7,16.1,18.8,16.1,29.5C2108.6,198.2,2097.9,225,2092.5,254.5z M1296,1206.5c10.7,0,24.1,0,34.9,0l0,0c18.8,0,34.9,0,51,0
	c32.2,2.7,42.9-13.4,45.6-40.2c0-26.8-13.4-37.5-40.2-37.5c-29.5,0-59-5.4-88.5-8c-42.9-2.7-51,26.8-56.3,53.6
	C1239.7,1209.2,1269.2,1206.5,1296,1206.5z M1151.2,1453.3c-18.8,0-34.9,5.4-37.5,24.1c-5.4,24.1,18.8,21.5,32.2,24.1
	c42.9,8,88.5,13.4,139.4,21.5c18.8-2.7,45.6-5.4,69.7-10.7c13.4-5.4,29.5-13.4,26.8-29.5c-5.4-16.1-24.1-16.1-37.5-13.4
	c-37.5,8-72.4-2.7-107.3-8C1207.5,1458.6,1178,1453.3,1151.2,1453.3z M1341.6,1697.4c-77.8,0-155.5-5.4-233.3-18.8
	c-16.1,0-34.9-5.4-40.2,13.4c-8,21.5,16.1,29.5,26.8,32.2c56.3,16.1,112.6,24.1,187.7,24.1c10.7,0,37.5-2.7,64.4-5.4
	c10.7-2.7,26.8-8,26.8-26.8C1371.1,1697.4,1357.7,1697.4,1341.6,1697.4z M1057.4,927.6c0,37.5,34.9,48.3,69.7,48.3
	c32.2,0,72.4,0,59-59c-5.4-13.4,18.8-59-37.5-53.6C1105.6,868.6,1052,871.3,1057.4,927.6z M1103,1155.6
	c83.1,2.7,107.3-10.7,107.3-64.4c0-45.6-13.4-80.5-77.8-77.8c-80.5,0-104.6,18.8-110,99.2C1019.8,1185.1,1078.8,1142.2,1103,1155.6z
	 M1057.4,1394.3c2.7,0,32.2,26.8,42.9-8c13.4-40.2,34.9-77.8,51-118s-5.4-69.7-51-72.4c-40.2,5.4-77.8,8-91.2,53.6
	C995.7,1289.7,1022.5,1372.8,1057.4,1394.3z M821.4,1514.9c-40.2,24.1-34.9,59-18.8,93.9c13.4,32.2,40.2,37.5,75.1,21.5
	c8-5.4,24.1-2.7,29.5-2.7c56.3,8,91.2-21.5,120.7-53.6c40.2-42.9,5.4-110-56.3-112.6C915.2,1461.3,867,1485.4,821.4,1514.9z
	 M861.6,1287c-42.9,10.7-88.5,26.8-88.5,77.8c-2.7,40.2,16.1,64.4,61.7,72.4c45.6,8,128.7-42.9,128.7-80.5
	C958.1,1284.3,939.4,1268.2,861.6,1287z M639,533.4c37.5-13.4,61.7-34.9,42.9-77.8c-10.7-24.1-18.8-53.6-29.5-77.8
	c-8-21.5-5.4-56.3-45.6-51c-34.9,5.4-34.9,37.5-40.2,69.7c5.4,26.8,10.7,61.7,24.1,91.2C598.8,506.6,588.1,552.2,639,533.4z
	 M673.9,753.3c13.4-37.5,85.8,18.8,83.1-45.6c0-59-32.2-110-69.7-107.3c-34.9,2.7-53.6,21.5-56.3,56.3
	C641.7,689,639,726.5,673.9,753.3z M706.1,959.8c5.4,10.7,13.4,16.1,24.1,21.5l0,0c5.4,0,10.7,2.7,16.1,2.7c8,0,13.4,0,21.5-2.7
	c29.5-2.7,69.7-2.7,61.7-53.6c-8-69.7-40.2-134.1-72.4-126c-2.7,0-8,2.7-13.4,2.7c-32.2,2.7-77.8-2.7-61.7,56.3
	C684.6,908.9,692.7,941.1,706.1,959.8z M762.4,1136.8c53.6,5.4,107.3-24.1,110-53.6c0-34.9-13.4-59-56.3-61.7
	c-34.9,0-91.2,40.2-91.2,67C722.1,1112.7,730.2,1134.1,762.4,1136.8z M625.6,1598.1c18.8-37.5,56.3-29.5,91.2-32.2
	c10.7,0,16.1-8,10.7-32.2c-8-24.1-16.1-69.7-56.3-80.5c-37.5-13.4-77.8,13.4-101.9,45.6c-16.1,21.5-2.7,40.2,8,56.3
	C590.7,1571.3,609.5,1584.7,625.6,1598.1z M799.9,1858.3c-13.4-59-32.2-115.3-5.4-177c10.7-24.1-10.7-45.6-21.5-72.4
	c-5.4,18.8-8,29.5-10.7,48.3c-8-24.1-13.4-40.2-18.8-64.4c-37.5,34.9-107.3,26.8-112.6,85.8c0,24.1,8,51,29.5,61.7
	c45.6,21.5,69.7-21.5,115.3-51c-21.5,91.2,10.7,163.6,8,244C802.6,1909.3,805.3,1885.1,799.9,1858.3z M805.3,1799.3
	c5.4,40.2,18.8,56.3,67,42.9c24.1-8,48.3-32.2,80.5-13.4c8,5.4,13.4-8,21.5-16.1c32.2-51,24.1-104.6,32.2-163.6
	c-42.9,0-77.8,13.4-112.6,21.5C802.6,1697.4,794.6,1710.8,805.3,1799.3z M872.3,2038c34.9,2.7,77.8,10.7,104.6-5.4
	c13.4-5.4,5.4-48.3,8-72.4c0-8,2.7-16.1,2.7-24.1c0-37.5,0-53.6-16.1-53.6c-8-2.7-16.1,0-29.5,5.4c-5.4,0-13.4,2.7-21.5,5.4
	c-13.4,5.4-29.5,5.4-42.9,5.4c-45.6-5.4-59,18.8-59,53.6C818.7,1989.7,824.1,2035.3,872.3,2038z M1011.8,2166.7
	c-10.7-32.2,8-85.8-48.3-91.2c-26.8,0-80.5-13.4-91.2,29.5c-10.7,32.2,45.6,77.8,99.2,83.1
	C982.3,2182.8,1019.8,2190.8,1011.8,2166.7z M1239.7,2196.2c-21.5,5.4-37.5,10.7-53.6,13.4c-53.6,8-139.4-26.8-142.1-69.7
	c-2.7-61.7-34.9-126-16.1-187.7c16.1-48.3,5.4-88.5-18.8-142.1c-2.7,118-10.7,222.6,21.5,327.2
	C1054.7,2220.3,1156.6,2249.8,1239.7,2196.2z M1330.9,1989.7c0-26.8-13.4-42.9-45.6-42.9c-53.6,2.7-110-2.7-150.2-10.7
	c-40.2,2.7-72.4-13.4-88.5,21.5c-21.5,48.3,16.1,107.3,72.4,115.3c24.1,2.7,51,5.4,72.4,16.1
	C1279.9,2129.2,1333.6,2062.1,1330.9,1989.7z M1355,1812.7c0-10.7-2.7-32.2-16.1-26.8c-75.1,37.5-136.8-26.8-209.2-18.8
	c-34.9,5.4-72.4-13.4-85.8,32.2c-13.4,45.6,13.4,85.8,67,96.5c37.5,8,75.1,10.7,93.9,13.4C1320.2,1911.9,1357.7,1887.8,1355,1812.7z
	 M1448.9,1297.7c-16.1,107.3-32.2,198.4-42.9,292.3c-8,53.6-18.8,110-18.8,166.3c0,93.9-69.7,182.4-24.1,286.9"/>
</svg>
