<?xml version="1.0" encoding="utf-8"?>
<!-- Generator: Adobe Illustrator 18.0.0, SVG Export Plug-In . SVG Version: 6.00 Build 0)  -->
<!DOCTYPE svg PUBLIC "-//W3C//DTD SVG 1.1//EN" "http://www.w3.org/Graphics/SVG/1.1/DTD/svg11.dtd">
<svg version="1.1"
	 id="svg8" xmlns:dc="http://purl.org/dc/elements/1.1/" xmlns:cc="http://creativecommons.org/ns#" xmlns:rdf="http://www.w3.org/1999/02/22-rdf-syntax-ns#" xmlns:svg="http://www.w3.org/2000/svg" xmlns:sodipodi="http://sodipodi.sourceforge.net/DTD/sodipodi-0.dtd" xmlns:inkscape="http://www.inkscape.org/namespaces/inkscape" sodipodi:docname="riesgo-bajo-lr-preocupacion-menor-lc.svg" inkscape:version="0.92.4 (5da689c313, 2019-01-14)"
	 xmlns="http://www.w3.org/2000/svg" xmlns:xlink="http://www.w3.org/1999/xlink" x="0px" y="0px" viewBox="0 0 2267.7 2267.7"
	 enable-background="new 0 0 2267.7 2267.7" xml:space="preserve">
<sodipodi:namedview  borderopacity="1.0" bordercolor="#666666" showgrid="false" pagecolor="#ffffff" inkscape:cy="1167.2953" inkscape:cx="1398.7589" inkscape:zoom="0.1400905" id="base" inkscape:document-units="mm" inkscape:pageshadow="2" inkscape:window-x="-8" inkscape:current-layer="layer1" inkscape:window-height="962" inkscape:window-y="-8" inkscape:pageopacity="0.0" inkscape:window-width="1280" inkscape:window-maximized="1">
	</sodipodi:namedview>
<path fill="none" stroke="#000000" stroke-width="0.2646" d="M2241.7,5.5H1065.6v2.2C474.2,43.1,5.6,533.6,5.6,1133.8
	c0,623.2,505.1,1128.4,1128.3,1128.4S2262.2,1757,2262.2,1133.8V26C2262.2,14.7,2253,5.5,2241.7,5.5z M1030.7,1511.2H564.8V756.9
	h159.9v622.2h305.9L1030.7,1511.2L1030.7,1511.2z M1482.1,1388.4c53,0,117.1-13.2,192.4-39.7v134.1c-61.9,25.8-131,38.7-207.4,38.7
	c-109.7,0-193.6-33.3-251.8-99.8c-58.1-66.6-87.2-162.1-87.2-286.6c0-78.4,14.3-147.1,42.8-206.1c28.6-59,69.6-104.2,123-135.7
	c53.5-31.5,116.2-47.2,188.1-47.2c73.3,0,146.9,17.7,220.8,53.2l-51.6,130c-28.2-13.4-56.6-25.1-85.1-35.1c-28.6-10-56.6-15-84.1-15
	c-60.2,0-106.8,22.6-139.8,67.9c-33,45.2-49.5,108.2-49.5,189.1C1292.8,1304.3,1355.9,1388.4,1482.1,1388.4z"/>
</svg>
