<?xml version="1.0" encoding="utf-8"?>
<!-- Generator: Adobe Illustrator 18.0.0, SVG Export Plug-In . SVG Version: 6.00 Build 0)  -->
<!DOCTYPE svg PUBLIC "-//W3C//DTD SVG 1.1//EN" "http://www.w3.org/Graphics/SVG/1.1/DTD/svg11.dtd">
<svg version="1.1"
	 id="svg8" xmlns:dc="http://purl.org/dc/elements/1.1/" xmlns:cc="http://creativecommons.org/ns#" xmlns:rdf="http://www.w3.org/1999/02/22-rdf-syntax-ns#" xmlns:svg="http://www.w3.org/2000/svg" xmlns:sodipodi="http://sodipodi.sourceforge.net/DTD/sodipodi-0.dtd" xmlns:inkscape="http://www.inkscape.org/namespaces/inkscape" sodipodi:docname="salobre.svg" inkscape:version="0.92.4 (5da689c313, 2019-01-14)"
	 xmlns="http://www.w3.org/2000/svg" xmlns:xlink="http://www.w3.org/1999/xlink" x="0px" y="0px" viewBox="0 0 2267.7 2267.7"
	 enable-background="new 0 0 2267.7 2267.7" xml:space="preserve">
<sodipodi:namedview  borderopacity="1.0" bordercolor="#666666" showgrid="false" pagecolor="#ffffff" inkscape:cy="940.52333" inkscape:cx="1172.1847" inkscape:zoom="0.1400905" id="base" inkscape:document-units="mm" inkscape:pageshadow="2" inkscape:window-x="-8" inkscape:current-layer="layer1" inkscape:window-height="962" inkscape:window-y="-8" inkscape:pageopacity="0.0" inkscape:window-width="1280" inkscape:window-maximized="1">
	</sodipodi:namedview>
<path id="path3713" inkscape:connector-curvature="0" fill="none" stroke="#000000" stroke-width="0.2646" d="M2263.1,3.5V1134
	c0,624.6-505.9,1130.5-1130.5,1130.5S4.6,1761.1,4.6,1134S507.9,3.5,1132.5,3.5H2263.1z M2121.2,1461.7c-33.6,7.7-59.4,7.7-85.2,7.7
	c-160,5.2-309.7-51.6-425.9-162.6l-25.8-25.8l-25.8,25.8c-116.1,111-271,167.8-425.9,162.6c-160,5.2-309.7-51.6-425.9-162.6
	l-25.8-25.8l-25.8,25.8c-116.1,111-271,167.8-425.9,162.6c-25.8,0-43.9-7.7-69.7-7.7c5.2,25.8,12.9,46.5,12.9,72.3h51.6
	c167.8,0,322.6-59.4,451.7-162.6c129.1,111,283.9,167.8,451.7,162.6c167.8,0,322.6-59.4,451.7-162.6
	c129.1,111,283.9,167.8,451.7,162.6c12.9,0,31,0,51.6,0C2087.6,1513.4,2100.5,1487.5,2121.2,1461.7z M2185.7,919.7l-33.6,20.6
	c-116.1,108.4-271,167.8-425.9,160c-160,7.7-309.7-51.6-425.9-160l-25.8-25.8l-25.8,25.8c-116.1,108.4-271,167.8-425.9,160
	c-160,7.7-309.7-51.6-425.9-160l-25.7-25.7l-25.8,25.8c-69.7,64.5-154.8,108.4-245.2,134.2c0,20.6,0,43.9,0,51.6
	c0,7.7,0,12.9,0,20.6c98.1-25.8,188.4-72.3,265.8-136.8c129.1,111,283.9,167.8,451.7,162.6c167.8,0,322.6-59.4,451.7-162.6
	c129.1,111,283.9,167.8,451.7,162.6c160,5.2,322.6-51.6,443.9-154.9L2185.7,919.7z M2165,798.4V101.5H1132.5
	c-418.1,0-800.1,250.4-955,637.5c103.2,51.6,214.2,77.4,330.4,77.4c167.8,0,322.6-56.8,451.7-160c129.1,108.4,283.9,167.8,451.7,160
	c167.8,0,322.6-56.8,451.7-160C1953.3,721,2056.6,772.6,2165,798.4"/>
</svg>
