<?xml version="1.0" encoding="utf-8"?>
<!-- Generator: Adobe Illustrator 18.0.0, SVG Export Plug-In . SVG Version: 6.00 Build 0)  -->
<!DOCTYPE svg PUBLIC "-//W3C//DTD SVG 1.1//EN" "http://www.w3.org/Graphics/SVG/1.1/DTD/svg11.dtd">
<svg version="1.1"
	 id="svg8" xmlns:dc="http://purl.org/dc/elements/1.1/" xmlns:cc="http://creativecommons.org/ns#" xmlns:rdf="http://www.w3.org/1999/02/22-rdf-syntax-ns#" xmlns:svg="http://www.w3.org/2000/svg" xmlns:sodipodi="http://sodipodi.sourceforge.net/DTD/sodipodi-0.dtd" xmlns:inkscape="http://www.inkscape.org/namespaces/inkscape" sodipodi:docname="semaforo-no-datos.svg" inkscape:version="0.92.4 (5da689c313, 2019-01-14)"
	 xmlns="http://www.w3.org/2000/svg" xmlns:xlink="http://www.w3.org/1999/xlink" x="0px" y="0px" viewBox="0 0 2267.7 2267.7"
	 enable-background="new 0 0 2267.7 2267.7" xml:space="preserve">
<sodipodi:namedview  borderopacity="1.0" bordercolor="#666666" showgrid="false" pagecolor="#ffffff" inkscape:cy="1174.8538" inkscape:cx="1410.5045" inkscape:zoom="0.1400905" id="base" inkscape:document-units="mm" inkscape:pageshadow="2" inkscape:window-x="-8" inkscape:current-layer="layer1" inkscape:window-height="962" inkscape:window-y="-8" inkscape:pageopacity="0.0" inkscape:window-width="1280" inkscape:window-maximized="1">
	</sodipodi:namedview>
<path id="path3713" inkscape:connector-curvature="0" fill="none" stroke="#000000" stroke-width="0.25" stroke-miterlimit="10" d="
	M2121.1,989.2c0,244-88.1,465.4-232.7,637l-628-628V752h-244L499.1,237C670.8,92.4,892.2,4.3,1133.9,4.3
	C1680.6,4.3,2121.1,444.8,2121.1,989.2z M2168.5,2010.4l-155.9,158.1L99.2,255.1L257.4,99.2L2168.5,2010.4z M1000.6,526.1
	c-2.3,67.8,49.7,126.5,131,126.5c83.6,0,137.8-58.7,137.8-126.5c-2.3-74.5-54.2-128.8-135.5-128.8S998.3,451.6,1000.6,526.1z
	 M1007.4,1565.4h253v-45.2l338.8,341.1c-137.8,74.5-295.9,117.5-465.4,117.5c-6.8,0-13.6-2.3-20.3-2.3l-465.3,286.9l11.3-408.9
	c-305-167.2-512.8-492.5-512.8-865.2c0-167.2,42.9-325.3,117.5-463.1l736.4,736.6L1007.4,1565.4z"/>
</svg>
