<?xml version="1.0" encoding="utf-8"?>
<!-- Generator: Adobe Illustrator 18.0.0, SVG Export Plug-In . SVG Version: 6.00 Build 0)  -->
<!DOCTYPE svg PUBLIC "-//W3C//DTD SVG 1.1//EN" "http://www.w3.org/Graphics/SVG/1.1/DTD/svg11.dtd">
<svg version="1.1"
	 id="svg8" xmlns:dc="http://purl.org/dc/elements/1.1/" xmlns:cc="http://creativecommons.org/ns#" xmlns:rdf="http://www.w3.org/1999/02/22-rdf-syntax-ns#" xmlns:svg="http://www.w3.org/2000/svg" xmlns:sodipodi="http://sodipodi.sourceforge.net/DTD/sodipodi-0.dtd" xmlns:inkscape="http://www.inkscape.org/namespaces/inkscape" sodipodi:docname="spin3.svg" inkscape:version="0.92.4 (5da689c313, 2019-01-14)"
	 xmlns="http://www.w3.org/2000/svg" xmlns:xlink="http://www.w3.org/1999/xlink" x="0px" y="0px" viewBox="0 0 2267.7 2267.7"
	 enable-background="new 0 0 2267.7 2267.7" xml:space="preserve">
<sodipodi:namedview  borderopacity="1.0" bordercolor="#666666" showgrid="false" pagecolor="#ffffff" inkscape:cy="1174.8541" inkscape:cx="1410.2949" inkscape:zoom="0.1400905" id="base" inkscape:document-units="mm" inkscape:pageshadow="2" inkscape:window-x="-8" inkscape:current-layer="layer1" inkscape:window-height="962" inkscape:window-y="-8" inkscape:pageopacity="0.0" inkscape:window-width="1280" inkscape:window-maximized="1">
	</sodipodi:namedview>
<path id="path3713" inkscape:connector-curvature="0" fill="none" stroke="#000000" stroke-width="0.2646" d="M1047.8,2265.9
	c-13.6,0-24.9-11.3-24.9-24.9v-414.3l0,0c0-13.6,11.3-24.9,24.9-24.9H1204c2.3,0,2.3,0,2.3,0c15.8,0,27.2,11.3,27.2,24.9V2241l0,0
	c0,13.6-11.3,24.9-27.2,24.9h-156.2C1050.1,2265.9,1050.1,2265.9,1047.8,2265.9z M1613.8,2159.5c-9.1,2.3-18.1-4.5-22.6-11.3
	l-206-357.7l0,0c-9.1-13.6-4.5-29.4,9.1-36.2l135.8-77c0-2.3,0-2.3,0-2.3c13.6-6.8,29.4-2.3,36.2,9.1l206,357.7
	c6.8,13.6,4.5,29.4-9.1,36.2l-138.1,79.2C1622.9,2159.5,1618.3,2159.5,1613.8,2159.5z M644.8,2155c-4.5,0-9.1-2.3-13.6-4.5
	l-138.1-79.3c-11.3-6.8-15.8-22.6-9.1-36.2l206-355.5l0,0c6.8-13.6,22.6-18.1,36.2-11.3l138.1,79.2c11.3,9.1,15.8,24.9,9.1,36.2
	l-206,355.5c0,2.3,0,2.3,0,2.3C662.9,2150.5,653.8,2155,644.8,2155z M2048.6,1785.9c-4.5,0-9.1,0-13.6-2.3l-355.5-206l0,0
	c-13.6-6.8-18.1-22.6-11.3-36.2l79.2-138.1c9.1-11.3,24.9-15.8,36.2-9.1l355.5,206c2.3,0,2.3,0,2.3,0c13.6,6.8,15.8,24.9,9.1,36.2
	l-79.2,138.1C2066.7,1783.6,2057.7,1788.1,2048.6,1785.9z M214.6,1776.8c-11.3,0-20.4-4.5-24.9-13.6l-79.2-138.1
	c-6.8-11.3-2.3-27.2,9.1-34l357.7-206l0,0c13.6-9.1,29.4-4.5,36.2,9.1l79.2,135.8l0,0c6.8,13.6,2.3,29.4-9.1,36.2l-357.7,206
	C221.4,1774.6,216.9,1776.8,214.6,1776.8z M1826.6,1244.8L1826.6,1244.8c-13.6,0-24.9-11.3-24.9-24.9v-156.3c0-2.3,0-2.3,0-2.3
	c0-15.8,11.3-27.2,24.9-27.2H2241l0,0c13.6,0,24.9,11.3,24.9,27.2v156.2c0,0,0,0,0,2.3c0,13.6-11.3,24.9-24.9,24.9L1826.6,1244.8
	L1826.6,1244.8z M29,1233.4L29,1233.4c-15.8,0-27.2-11.3-27.2-27.2v-156.1c0,0,0,0,0-2.3c0-13.6,11.3-24.9,27.2-24.9h412.1l0,0
	c13.6,0,24.9,11.3,24.9,24.9V1204c0,2.3,0,2.3,0,2.3c0,15.8-11.3,27.2-24.9,27.2L29,1233.4L29,1233.4z M1776.8,887
	c-9.1,0-18.1-4.5-22.6-13.6l-77-135.8c-2.3,0-2.3,0-2.3,0c-6.8-13.6-2.3-29.4,9.1-36.2l357.7-206c13.6-6.8,29.4-2.3,36.2,9.1
	l79.2,138.1c6.8,11.3,2.3,27.2-9.1,34l-357.7,208.3l0,0C1785.9,887,1781.3,887,1776.8,887z M495.4,875.7c-2.3,0-6.8,0-11.3-2.3
	l-355.5-206h-2.3c-11.3-6.8-15.8-22.6-9.1-36.2l79.3-138.1c6.8-11.3,22.6-15.8,36.2-9.1l355.5,206l0,0c13.6,6.8,18.1,22.6,11.3,36.2
	l-79.2,138.1C513.5,871.2,504.4,878,495.4,875.7z M1554.9,601.8c-4.5,0-9.1,0-13.6-2.3l-138.1-79.2c-11.3-9.1-15.8-24.9-9.1-36.2
	l206-355.5c0-2.3,0-2.3,0-2.3c6.8-13.6,24.9-15.8,36.2-9.1l138.1,79.2c11.3,6.8,15.8,22.6,9.1,36.2l-206,355.5l0,0
	C1573.1,597.2,1564,601.8,1554.9,601.8z M724,597.2c-9.1,0-18.1-4.5-22.6-13.6l-206-357.7c-6.8-13.6-2.3-29.4,9.1-36.2l138.1-79.2
	c11.3-6.8,27.2-2.3,34,9.1l208.3,357.7l0,0c6.8,13.6,2.3,29.4-11.3,36.2l-135.8,79.2l0,0C733.1,595,728.6,595,724,597.2z
	 M1061.4,465.9c-15.8,0-27.2-11.3-27.2-24.9V26.7l0,0c0-13.6,11.3-24.9,27.2-24.9h156.2c0,0,0,0,2.3,0c13.6,0,24.9,11.3,24.9,24.9
	V441l0,0c0,13.6-11.3,24.9-24.9,24.9h-156.2"/>
</svg>
