<?xml version="1.0" encoding="utf-8"?>
<!-- Generator: Adobe Illustrator 18.0.0, SVG Export Plug-In . SVG Version: 6.00 Build 0)  -->
<!DOCTYPE svg PUBLIC "-//W3C//DTD SVG 1.1//EN" "http://www.w3.org/Graphics/SVG/1.1/DTD/svg11.dtd">
<svg version="1.1"
	 id="svg8" xmlns:dc="http://purl.org/dc/elements/1.1/" xmlns:cc="http://creativecommons.org/ns#" xmlns:rdf="http://www.w3.org/1999/02/22-rdf-syntax-ns#" xmlns:svg="http://www.w3.org/2000/svg" xmlns:sodipodi="http://sodipodi.sourceforge.net/DTD/sodipodi-0.dtd" xmlns:inkscape="http://www.inkscape.org/namespaces/inkscape" sodipodi:docname="sujeta-a-proteccion-especial-pr-2.svg" inkscape:version="0.92.4 (5da689c313, 2019-01-14)"
	 xmlns="http://www.w3.org/2000/svg" xmlns:xlink="http://www.w3.org/1999/xlink" x="0px" y="0px" viewBox="0 0 2267.7 2267.7"
	 enable-background="new 0 0 2267.7 2267.7" xml:space="preserve">
<sodipodi:namedview  borderopacity="1.0" bordercolor="#666666" showgrid="false" pagecolor="#ffffff" inkscape:cy="-382.3109" inkscape:cx="679.3343" inkscape:zoom="0.1400905" id="base" inkscape:document-units="mm" inkscape:pageshadow="2" inkscape:window-x="-8" inkscape:current-layer="layer1" inkscape:window-height="962" inkscape:window-y="-8" inkscape:pageopacity="0.0" inkscape:window-width="1280" inkscape:window-maximized="1">
	</sodipodi:namedview>
<path id="path3713" inkscape:connector-curvature="0" fill="none" stroke="#000000" stroke-width="0.2646" d="M789.9,1376.4
	c157,0,281.1-50.3,372.2-150.8c94.2-103.6,141.3-241.8,141.3-414.6c0-169.6-47.1-299.9-141.3-391S932.8,283.4,757,283.4H3.2v1700.7
	h348.6v-607.7H789.9z M351.8,575.6h329.8c91.1,0,158.6,20.4,202.6,61.2c47.1,44,70.7,108.4,70.7,193.1
	c0,169.6-91.1,254.4-273.2,254.4H351.8V575.6z M1548.4,1984.2h329.8v-669c0-191.6,95.8-287.4,287.4-287.4c28.3,0,61.2,3.1,98.9,9.4
	V707.5c-12.6-3.1-25.1-4.7-37.7-4.7c-75.4,0-144.5,23.6-207.3,70.7c-59.7,47.1-106.8,113.1-141.3,197.9v-245h-329.8L1548.4,1984.2
	L1548.4,1984.2z"/>
</svg>
