<?xml version="1.0" encoding="utf-8"?>
<!-- Generator: Adobe Illustrator 18.0.0, SVG Export Plug-In . SVG Version: 6.00 Build 0)  -->
<!DOCTYPE svg PUBLIC "-//W3C//DTD SVG 1.1//EN" "http://www.w3.org/Graphics/SVG/1.1/DTD/svg11.dtd">
<svg version="1.1"
	 id="svg8" xmlns:dc="http://purl.org/dc/elements/1.1/" xmlns:cc="http://creativecommons.org/ns#" xmlns:rdf="http://www.w3.org/1999/02/22-rdf-syntax-ns#" xmlns:svg="http://www.w3.org/2000/svg" xmlns:sodipodi="http://sodipodi.sourceforge.net/DTD/sodipodi-0.dtd" xmlns:inkscape="http://www.inkscape.org/namespaces/inkscape" sodipodi:docname="vista-general.svg" inkscape:version="0.92.4 (5da689c313, 2019-01-14)"
	 xmlns="http://www.w3.org/2000/svg" xmlns:xlink="http://www.w3.org/1999/xlink" x="0px" y="0px" viewBox="0 0 2267.7 2267.7"
	 enable-background="new 0 0 2267.7 2267.7" xml:space="preserve">
<sodipodi:namedview  borderopacity="1.0" bordercolor="#666666" showgrid="false" pagecolor="#ffffff" inkscape:cy="1174.8537" inkscape:cx="1409.7949" inkscape:zoom="0.1400905" id="base" inkscape:document-units="mm" inkscape:pageshadow="2" inkscape:window-x="-8" inkscape:current-layer="layer1" inkscape:window-height="962" inkscape:window-y="-8" inkscape:pageopacity="0.0" inkscape:window-width="1280" inkscape:window-maximized="1">
	</sodipodi:namedview>
<path id="path3713" inkscape:connector-curvature="0" fill="none" stroke="#000000" stroke-width="0.25" stroke-miterlimit="10" d="
	M1965,446.3c0,244.8-197.4,443.3-441,443.3l0,0c-243.6,0-441-198.5-441-443.3l0,0C1083,201.5,1280.4,3,1524,3S1965,201.5,1965,446.3
	z M1521.7,242.8c-113.7,0-205.8,94.2-205.8,210.3c0,0.8,0,1.5,0,2.3c0,116.2,92.2,210.3,205.8,210.3c0.7,0,1.5,0,2.2,0
	c113.7-1.2,204.8-96.4,203.6-212.6C1727.5,336.9,1635.4,242.8,1521.7,242.8L1521.7,242.8z M2141.4,2101.9h-262.3
	c-230.7-1393.2-649.1-771.2-689.8-6.8c-29.4-334.7-133.4-479.5-217.1-549.6c101.8-370.9,318.9-590.3,533.7-599.3
	C1811.2,930.3,2127.8,1308,2141.4,2101.9z M646.5,715.4c193.6,0,350.5,158,350.5,352.8c0,1.5,0,3,0,4.6
	c-1.3,194.8-159.2,351.8-352.8,350.5c-0.8,0-1.5,0-2.3,0c-193.5-1.2-349.5-160.2-348.2-355.1l0,0c0-194.9,156.9-352.8,350.6-352.8
	C645,715.4,645.7,715.4,646.5,715.4z M637.4,921.2c-77.4,0-140.2,64.8-140.2,144.8c0,0.8,0,1.6,0,2.4c1.2,79.9,65,143.7,142.5,142.4
	l0,0c77.4,0,140.2-64.8,140.2-144.7s-62.8-144.7-140.2-144.7C638.9,921.2,638.2,921.2,637.4,921.2z M638.6,1478.6
	c383.5,0,494.2,786,494.2,786H865.9c-90.5-581.2-375.4-667.2-499.8,0c-76.9,0-149.3,0-239.7,0
	C126.3,2166.5,293.7,1478.6,638.6,1478.6z"/>
</svg>
