<?xml version="1.0" encoding="utf-8"?>
<!-- Generator: Adobe Illustrator 18.0.0, SVG Export Plug-In . SVG Version: 6.00 Build 0)  -->
<!DOCTYPE svg PUBLIC "-//W3C//DTD SVG 1.1//EN" "http://www.w3.org/Graphics/SVG/1.1/DTD/svg11.dtd">
<svg version="1.1"
	 id="svg8" xmlns:dc="http://purl.org/dc/elements/1.1/" xmlns:cc="http://creativecommons.org/ns#" xmlns:rdf="http://www.w3.org/1999/02/22-rdf-syntax-ns#" xmlns:svg="http://www.w3.org/2000/svg" xmlns:sodipodi="http://sodipodi.sourceforge.net/DTD/sodipodi-0.dtd" xmlns:inkscape="http://www.inkscape.org/namespaces/inkscape" sodipodi:docname="vulnerable-vu-evaluacion-conabio.svg" inkscape:version="0.92.4 (5da689c313, 2019-01-14)"
	 xmlns="http://www.w3.org/2000/svg" xmlns:xlink="http://www.w3.org/1999/xlink" x="0px" y="0px" viewBox="0 0 2267.7 2267.7"
	 enable-background="new 0 0 2267.7 2267.7" xml:space="preserve">
<sodipodi:namedview  borderopacity="1.0" bordercolor="#666666" showgrid="false" pagecolor="#ffffff" inkscape:cy="1133.2796" inkscape:cx="1529.728" inkscape:zoom="0.1400905" id="base" inkscape:document-units="mm" inkscape:pageshadow="2" inkscape:window-x="-8" inkscape:current-layer="layer1" inkscape:window-height="962" inkscape:window-y="-8" inkscape:pageopacity="0.0" inkscape:window-width="1280" inkscape:window-maximized="1">
	</sodipodi:namedview>
<path fill="none" stroke="#000000" stroke-width="0.2646" d="M2147.2,1018.3C2147.2,458.7,1693.5,5,1133.9,5
	S120.6,458.7,120.6,1018.3c0,247,88.5,473.3,235.3,649.1h-1.6c299.2,354.5,779.8,595.4,779.8,595.4s480.6-240.9,779.8-595.4h-1.9
	C2058.7,1491.5,2147.2,1265.3,2147.2,1018.3z M893.2,1468.5H736.3L506.1,790h145.2L779,1193.7c7.2,23.8,14.5,51.6,22,83.3
	c7.6,31.7,12.3,53.7,14.2,66.2c3.4-28.5,15-78.3,34.8-149.5L978.6,790h145.3L893.2,1468.5z M1761.6,1229
	c0,50.1-11.2,94.1-33.7,131.8c-22.4,37.8-54.8,66.7-97.2,86.8c-42.4,20.1-92.5,30.2-150.3,30.2c-87.3,0-155.1-22.3-203.3-67.1
	c-48.3-44.7-72.4-105.9-72.4-183.5V790H1348v415.4c0,52.3,10.5,90.7,31.5,115.1c21.1,24.5,55.9,36.7,104.4,36.7
	c47,0,81.1-12.3,102.3-36.9c21.2-24.6,31.8-63.2,31.8-115.8V790h143.4v439H1761.6z"/>
</svg>
