<?xml version="1.0" encoding="utf-8"?>
<!-- Generator: Adobe Illustrator 18.0.0, SVG Export Plug-In . SVG Version: 6.00 Build 0)  -->
<!DOCTYPE svg PUBLIC "-//W3C//DTD SVG 1.1//EN" "http://www.w3.org/Graphics/SVG/1.1/DTD/svg11.dtd">
<svg version="1.1"
	 id="svg8" xmlns:dc="http://purl.org/dc/elements/1.1/" xmlns:cc="http://creativecommons.org/ns#" xmlns:rdf="http://www.w3.org/1999/02/22-rdf-syntax-ns#" xmlns:svg="http://www.w3.org/2000/svg" xmlns:sodipodi="http://sodipodi.sourceforge.net/DTD/sodipodi-0.dtd" xmlns:inkscape="http://www.inkscape.org/namespaces/inkscape" sodipodi:docname="vulnerable-vu.svg" inkscape:version="0.92.4 (5da689c313, 2019-01-14)"
	 xmlns="http://www.w3.org/2000/svg" xmlns:xlink="http://www.w3.org/1999/xlink" x="0px" y="0px" viewBox="0 0 2267.7 2267.7"
	 enable-background="new 0 0 2267.7 2267.7" xml:space="preserve">
<sodipodi:namedview  borderopacity="1.0" bordercolor="#666666" showgrid="false" pagecolor="#ffffff" inkscape:cy="940.52369" inkscape:cx="1188.0825" inkscape:zoom="0.1400905" id="base" inkscape:document-units="mm" inkscape:pageshadow="2" inkscape:window-x="-8" inkscape:current-layer="layer1" inkscape:window-height="962" inkscape:window-y="-8" inkscape:pageopacity="0.0" inkscape:window-width="1280" inkscape:window-maximized="1">
	</sodipodi:namedview>
<path fill="none" stroke="#000000" stroke-width="0.2646" d="M2236.4,11H1065.9v2.3C477.4,48.3,11.1,536.6,11.1,1133.9
	c0,620.1,502.7,1122.9,1122.8,1122.9S2256.8,1754,2256.8,1133.9V31.4C2256.8,20,2247.6,11,2236.4,11z M867.6,1504.1H694.1
	L439.4,753.4h160.7l141.2,446.7c7.9,26.4,16,57.1,24.4,92.2c8.4,35.1,13.6,59.4,15.7,73.1c3.8-31.4,16.6-86.6,38.5-165.3L962,753.4
	h160.8L867.6,1504.1z M1828.3,1239.1c0,55.5-12.4,104.1-37.2,145.8c-24.7,41.8-60.6,73.8-107.6,96.1
	c-46.9,22.3-102.4,33.4-166.3,33.4c-96.5,0-171.5-24.7-224.9-74.2c-53.4-49.5-80.1-117.2-80.1-203.1V753.4h158.7v459.5
	c0,57.9,11.6,100.3,34.9,127.4c23.3,27,61.8,40.5,115.5,40.5c52,0,89.8-13.6,113.3-40.9c23.5-27.2,35.2-70,35.2-128V753.4h158.7
	L1828.3,1239.1L1828.3,1239.1z"/>
</svg>
