<?xml version="1.0" encoding="utf-8"?>
<!-- Generator: Adobe Illustrator 18.0.0, SVG Export Plug-In . SVG Version: 6.00 Build 0)  -->
<!DOCTYPE svg PUBLIC "-//W3C//DTD SVG 1.1//EN" "http://www.w3.org/Graphics/SVG/1.1/DTD/svg11.dtd">
<svg version="1.1"
	 id="svg8" xmlns:dc="http://purl.org/dc/elements/1.1/" xmlns:cc="http://creativecommons.org/ns#" xmlns:rdf="http://www.w3.org/1999/02/22-rdf-syntax-ns#" xmlns:svg="http://www.w3.org/2000/svg" xmlns:sodipodi="http://sodipodi.sourceforge.net/DTD/sodipodi-0.dtd" xmlns:inkscape="http://www.inkscape.org/namespaces/inkscape" sodipodi:docname="youtube.svg" inkscape:version="0.92.4 (5da689c313, 2019-01-14)"
	 xmlns="http://www.w3.org/2000/svg" xmlns:xlink="http://www.w3.org/1999/xlink" x="0px" y="0px" viewBox="0 0 2267.7 2267.7"
	 enable-background="new 0 0 2267.7 2267.7" xml:space="preserve">
<sodipodi:namedview  borderopacity="1.0" bordercolor="#666666" showgrid="false" pagecolor="#ffffff" inkscape:cy="1174.8542" inkscape:cx="1353.602" inkscape:zoom="0.1400905" id="base" inkscape:document-units="mm" inkscape:pageshadow="2" inkscape:window-x="-8" inkscape:current-layer="layer1" inkscape:window-height="962" inkscape:window-y="-8" inkscape:pageopacity="0.0" inkscape:window-width="1280" inkscape:window-maximized="1">
	</sodipodi:namedview>
<path id="path3713" inkscape:connector-curvature="0" fill="none" stroke="#000000" stroke-width="0.2646" d="M1340.7,1488.7
	c-19.6,0-38.4,9-56.5,27.1v379.7c18.1,18.1,36.9,27.1,56.5,27.1c33.2,0,49.7-27.9,49.7-83.6v-266.7
	C1390.4,1516.6,1373.8,1488.7,1340.7,1488.7z M1758.8,1488.7c-37.7,0-56.5,28.6-56.5,85.9v56.5h115.3v-56.5
	C1816.1,1517.3,1796.5,1488.7,1758.8,1488.7z M597,2017.7H472.7v-718.8H339.3v-117.5h393.3v117.5H597V2017.7z M960.9,1949.8
	c-45.2,51.2-88.2,76.9-128.8,76.9c-37.7,0-61.8-15.8-72.3-47.5c-7.5-19.6-11.3-50.5-11.3-92.7v-492.8h113v458.9
	c0,27.1,0.8,42.2,2.3,45.2c1.5,16.6,9.8,24.9,24.9,24.9c22.6,0,46.7-17.3,72.3-52v-476.9h113v623.9H961v-67.9H960.9z M1492.1,1956.6
	c-15.1,46.7-45.2,70.1-90.4,70.1c-40.7,0-79.9-23.4-117.5-70.1v61h-113v-836.4h113v273.5c36.2-45.2,75.3-67.8,117.5-67.8
	c45.2,0,75.3,23.4,90.4,70.1c7.5,21.1,11.3,62.5,11.3,124.3v248.6C1503.4,1891.8,1499.6,1934,1492.1,1956.6z M1926.1,1891.1
	c-3,22.6-12.1,45.2-27.1,67.8c-30.1,45.2-75.3,67.8-135.6,67.8c-57.3,0-102.5-21.9-135.6-65.6c-24.1-31.6-36.2-80.6-36.2-146.9v-217
	c0-66.3,11.3-115.3,33.9-146.9c33.2-42.2,78.4-63.3,135.6-63.3c55.8,0,100.2,21.1,133.4,63.3c22.6,31.6,33.9,80.6,33.9,146.9v128.9
	h-226v110.8c0,57.3,19.6,85.9,58.8,85.9c27.1,0,43.7-15.1,49.7-45.2c1.5-7.5,2.3-33.2,2.3-76.9h115.3v15.8
	C1928.4,1858.7,1927.6,1883.5,1926.1,1891.1z M1107.8,754.1c-36.2,0-54.2-29.4-54.2-88.2V401.5c0-58.8,18.1-88.2,54.2-88.2
	c36.1,0,54.2,29.4,54.2,88.2V666C1162.1,724.7,1144,754.1,1107.8,754.1z M2037,1172.3c-10.5-51.2-34.7-93.4-72.3-126.6
	c-37.7-33.2-81.4-52.7-131.1-58.8C1679.8,970.3,1447,962,1135,962s-545.5,8.3-700.7,24.9c-48.2,4.5-91.2,24.1-128.8,58.8
	c-37.7,34.7-61.8,76.9-72.3,126.6c-22.6,96.4-33.9,243.4-33.9,440.8c0,200.4,11.3,347.4,33.9,440.8c10.5,51.2,34.7,93.4,72.3,126.6
	c37.6,33.2,80.6,52,128.8,56.5c155.2,18.1,388.8,27.1,700.7,27.1s544.8-9,698.5-27.1c48.2-3,91.2-21.9,128.8-56.5
	c37.7-34.7,62.5-76.9,74.6-126.6c21.1-96.4,31.6-243.4,31.6-440.8C2068.6,1412.6,2058.1,1265.7,2037,1172.3z M723.6,335.9L635.4,3.6
	H499.8c24.1,70.8,52,149.2,83.6,235.1c39.2,116,64.8,205.7,76.9,269V849h126.6V507.7L938.3,3.6H809.5L723.6,335.9z M1241.2,274.9
	c-31.6-42.2-76.1-63.3-133.4-63.3c-55.8,0-100.2,21.1-133.4,63.3c-22.6,31.6-33.9,81.4-33.9,149.2v219.3
	c0,67.8,11.3,117.5,33.9,149.2c33.2,43.7,77.6,65.6,133.4,65.6c57.3,0,101.7-21.9,133.4-65.6c24.1-30.1,36.2-79.9,36.2-149.2V424.1
	C1277.4,356.2,1265.3,306.5,1241.2,274.9z M1584.8,218.4v481.5c-25.6,36.2-49.7,54.2-72.3,54.2c-15.1,0-24.1-9-27.1-27.1
	c0-1.5,0-16.6,0-45.2V218.4h-115.3v497.3c0,43.7,3,75.3,9,94.9c12.1,31.6,36.9,47.5,74.6,47.5c42.2,0,85.9-26.4,131.1-79.1v70.1
	h115.3V218.4H1584.8z"/>
</svg>
